<?xml version="1.0" encoding="utf-8"?>
<!-- Generator: Adobe Illustrator 24.0.1, SVG Export Plug-In . SVG Version: 6.00 Build 0)  -->
<svg version="1.1" xmlns="http://www.w3.org/2000/svg" xmlns:xlink="http://www.w3.org/1999/xlink" x="0px" y="0px"
	 viewBox="0 0 528.57 523.81" style="enable-background:new 0 0 528.57 523.81;" xml:space="preserve">
<style type="text/css">
	.st0{fill:#616060;}
	.st1{fill:#8D8989;}
	.st2{fill:#FFFFFF;}
</style>
<g id="Layer_1">
	<g>
		<path d="M172.4,240.67c-5.01,0.58-10.03,1.16-15.22,1.76c0-1.39,0-2.69,0-4.55c-5.22,2.11-10.15,3.96-14.97,6.07
			c-7.73,3.37-15.7,5.56-24.19,5.03c-8.71-0.55-16.85-2.82-23.44-8.97c-0.91-0.85-1.77-1.8-2.42-2.85
			c-0.37-0.59-0.25-1.49-0.35-2.25c0.74-0.02,1.58-0.28,2.2-0.02c6.73,2.76,13.72,3.73,20.95,3.53c5.91-0.16,11.47-1.68,16.81-4.11
			c9.87-4.49,20.37-6.61,30.99-8.31c2.02-0.32,4.03-0.67,6.04-1.13c-7.03-0.88-14.05-0.78-21.08,0.03
			c-11.62,1.34-23.11,4.09-34.91,3.3c-11.76-0.78-22.52-4.34-31.63-12.07c-1.55-1.32-2.87-2.96-4.08-4.62
			c-0.41-0.57-0.17-1.61-0.23-2.44c0.75,0.01,1.62-0.22,2.24,0.07c7.96,3.87,16.49,5.08,25.19,5.88c12.41,1.14,24.71,0.17,36.99-1.5
			c0.64-0.09,1.25-0.32,1.84-0.88c-7.69-0.57-15.38-1.42-23.08-1.65c-18.19-0.54-33.26-7.95-46.19-20.3
			c-1.14-1.09-2.67-2.21-1.93-4.61c2.28,0.79,4.45,1.56,6.64,2.29c10.43,3.5,21.26,5.15,32.04,7.08
			c15.41,2.75,30.78,5.69,46.16,8.59c2.92,0.55,5.82,1.26,8.75,1.78c-9.4-4.21-18.8-8.37-28.99-10.37
			c-13.2-2.6-26.43-5.07-39.54-8.06c-8.77-2-17.24-5.13-24.92-9.95c-7.37-4.63-13.16-10.65-15.52-19.35
			c-0.04-0.14-0.16-0.29-0.14-0.42c0.13-1.05,0.29-2.09,0.44-3.13c0.98,0.28,2.11,0.35,2.93,0.89c5.3,3.45,10.41,7.2,15.81,10.48
			c6.34,3.86,13.27,6.5,20.76,8.85c-3.4-2.34-6.44-4.42-9.47-6.51c0.07-0.14,0.13-0.28,0.2-0.43c2.66,1.08,5.25,2.39,7.98,3.2
			c8.16,2.44,16.3,5.02,24.59,6.93c11.14,2.56,21.98,5.75,32.4,10.56c4.8,2.22,10.14,3.27,15.36,4.47c-3.06-1.56-6.16-3.04-9.16-4.7
			c-9.75-5.39-19.18-11.29-27.64-18.6c-1.62-1.39-3.08-2.97-4.62-4.45c-0.64-0.61-1.2-1.43-1.97-1.74
			c-0.97-0.39-2.12-0.34-3.19-0.48c0.06,1.07-0.31,2.54,0.25,3.15c1.73,1.87,3.76,3.48,5.78,5.06c3.06,2.39,6.21,4.68,9.15,7.4
			c-1.05-0.3-2.1-0.6-3.16-0.88c-10.09-2.66-20.28-5.03-30.26-8.07c-9.6-2.93-18.87-6.83-26.82-13.17
			c-9.17-7.32-13.98-16.9-14.22-28.7c-0.01-0.44-0.12-0.94,0.04-1.32c0.36-0.8,0.86-1.53,1.31-2.28c0.72,0.49,1.65,0.83,2.13,1.5
			c3.11,4.27,5.9,8.79,9.23,12.87c3.68,4.51,8.38,7.92,13.7,10.55c-3.94-4.7-7.96-9.34-11.82-14.11
			c-5.51-6.8-10.35-14.01-12.11-22.79c-0.97-4.81-0.93-9.67,0.59-14.4c0.25-0.78,1.11-1.36,1.69-2.04c0.5,0.69,1.29,1.32,1.47,2.08
			c2.74,11.8,9.76,20.96,18,29.37c10.48,10.69,21.87,20.38,35.56,26.55c10.67,4.81,20.34,11.16,30.37,16.98
			c3.65,2.12,7.5,3.91,11.47,5.46c-4.03-2.86-8.09-5.66-12.07-8.6c-6.42-4.74-12.54-9.8-17.45-16.2c-0.69-0.91-2.06-1.72-3.13-1.74
			c-0.57-0.01-1.16,1.79-1.95,3.11c-1.06-0.44-2.61-0.97-4.07-1.71c-11.04-5.56-21.59-11.84-30.05-21.07
			c-6.87-7.49-11.88-15.95-13.15-26.23c-0.95-7.63-0.26-15.14,2.17-22.46c0.09-0.28,0.17-0.6,0.35-0.8c0.47-0.5,1.01-0.94,1.52-1.4
			c0.33,0.6,0.81,1.16,0.96,1.8c1.02,4.35,1.67,8.81,2.99,13.07c3.27,10.57,9.66,19.19,18,26.28c9.15,7.77,18.63,15.14,27.87,22.79
			c6.13,5.08,12.04,10.41,18.13,15.53c9.33,7.83,19.75,13.81,31.08,18.27c2.04,0.8,4.02,1.83,5.87,3.01
			c3.07,1.95,4.46,4.83,4.58,8.53c0.2,5.95-0.08,12.05,1.19,17.8c3.91,17.69,14.32,30.51,30.77,38.3c1.06,0.5,2.11,1.02,3.55,1.73
			c-1.91,7.83-3.51,15.75-5.81,23.46c-2.29,7.69-7.79,12.47-15.53,14.67c-0.61,0.17-1.27,0.83-1.55,1.44
			c-4.89,10.49-13.37,15.89-24.57,17.47c-0.21,0.03-0.44-0.03-0.64-0.11c-0.12-0.04-0.2-0.2-0.59-0.63
			c9.94-5.36,17.04-13.64,23.22-22.24c-2.61,0.75-5.61,1.6-8.59,2.48c-0.33,0.1-0.7,0.33-0.89,0.61
			c-3.75,5.72-9.77,8.11-15.69,10.52c-8.77,3.56-17.78,4.5-26.96,1.56c-1-0.32-1.92-0.88-2.87-1.33c0.07-0.25,0.15-0.5,0.22-0.75
			c1.93-0.27,3.87-0.49,5.8-0.82c10.19-1.71,18.59-7.05,26.75-12.99c3.98-2.89,8.29-5.31,12.44-7.97c1.13-0.72,2.19-1.55,3.18-2.57
			c-6.43,2.6-12.74,5.44-19.62,1.96c-9.52,9.15-21.13,12.24-33.82,12.01c-4.7-0.09-9.31-1.04-13.96-4.15
			c1.21-0.5,1.9-1.02,2.62-1.05c14.78-0.74,26.82-7.21,36.92-17.67c2.65-2.74,5.11-5.68,7.66-8.53c-0.14-0.24-0.27-0.47-0.41-0.71
			c-3.97,1.78-8.11,3.25-11.87,5.39c-9.65,5.5-19.92,9.18-30.89,10.66c-7.29,0.98-14.6,0.7-21.44-2.48
			c-2.04-0.95-3.85-2.41-5.7-3.73c-0.52-0.37-0.8-1.07-1.59-2.17c2.62,0.25,4.56,0.48,6.51,0.61c11.24,0.74,21.6-1.96,31.1-7.99
			c4.64-2.95,9.71-4.84,15.02-6.21c4.6-1.18,9.14-2.61,13.71-3.93C172.47,240.96,172.43,240.82,172.4,240.67z"/>
		<path d="M350.08,270.93c-7.02,3.34-13.32,1.13-20.14-2.3c0.6,0.74,0.76,0.99,0.96,1.19c0.21,0.2,0.46,0.37,0.7,0.53
			c8.23,5.4,16.38,10.95,24.75,16.13c3.21,1.99,6.84,3.42,10.45,4.61c3.6,1.19,7.41,1.75,11.5,2.67c-0.64,0.47-1.15,1.13-1.76,1.24
			c-4.46,0.81-8.95,2.18-13.42,2.1c-8.96-0.16-17.11-3.49-24.49-8.51c-2.48-1.69-4.33-4.38-6.91-5.81
			c-2.54-1.41-5.64-1.79-8.27-2.56c6.66,8.26,13.34,17,23.45,22.26c-0.11,0.29-0.23,0.58-0.34,0.87c-1.59-0.18-3.22-0.19-4.76-0.57
			c-9.42-2.34-16.36-7.82-20.57-16.62c-0.65-1.36-1.44-1.92-3.04-2.28c-5.99-1.35-10.41-5.15-12.72-10.68
			c-2.11-5.05-3.38-10.47-4.79-15.79c-0.96-3.61-1.53-7.33-2.26-10.93c4.09-2.28,8.4-4.14,12.1-6.84
			c14.72-10.73,22.58-25.26,23.25-43.56c0.09-2.36,0.09-4.72,0-7.08c-0.18-4.47,1.8-7.73,5.7-9.66c4.48-2.21,9.13-4.08,13.66-6.2
			c10.58-4.94,19.72-12,28.62-19.44c11.09-9.26,22.32-18.34,33.45-27.55c8.05-6.65,15.57-13.77,20.54-23.18
			c3.56-6.74,5.54-13.91,6.49-21.42c0.11-0.83,0.36-1.64,0.54-2.46c0.23-0.08,0.46-0.15,0.68-0.23c0.52,0.77,1.21,1.48,1.52,2.32
			c2.3,6.22,3.18,12.66,2.78,19.28c-0.93,15.3-9.07,26.6-20.21,36.15c-7.32,6.28-15.7,10.93-24.35,15.12
			c-1.16,0.56-2.41,0.92-3.3,1.25c-0.75-1.3-1.32-2.3-1.89-3.3c-1.09,0.72-2.46,1.22-3.22,2.2c-5.52,7.16-12.48,12.71-19.78,17.88
			c-3.06,2.17-6.2,4.22-9.3,6.33c0.08,0.16,0.17,0.33,0.25,0.49c3.61-1.8,7.31-3.45,10.81-5.43c4.16-2.36,8.1-5.11,12.25-7.49
			c4.27-2.45,8.58-4.89,13.05-6.94c19.48-8.94,35.66-22.03,49.03-38.66c4.47-5.56,7.7-11.83,9.39-18.83
			c0.17-0.71,0.37-1.44,0.71-2.08c0.26-0.51,0.85-1.34,1.12-1.28c0.61,0.14,1.5,0.67,1.59,1.17c0.59,3.08,1.37,6.19,1.37,9.3
			c0.02,10.51-5.11,19.04-11.24,27.01c-4.17,5.42-8.69,10.57-12.97,15.94c4.07-2.03,7.65-4.76,10.89-7.94
			c4.56-4.46,8.49-9.38,11.41-15.1c0.43-0.85,1.54-1.35,2.33-2.02c0.44,0.99,1.28,1.97,1.27,2.96c-0.05,14.38-6.38,25.22-18.6,32.74
			c-11.05,6.8-23.23,10.65-35.68,13.79c-6.61,1.67-13.23,3.26-20.04,4.55c2.65-1.96,5.32-3.89,7.93-5.9
			c2.04-1.57,4.06-3.18,5.98-4.91c0.73-0.66,1.29-1.61,1.64-2.54c0.18-0.48-0.07-1.4-0.46-1.74c-0.39-0.34-1.27-0.42-1.8-0.23
			c-0.73,0.27-1.41,0.81-1.95,1.39c-8.99,9.48-19.83,16.42-31.17,22.66c-3.67,2.02-7.39,3.94-10.98,6.28
			c4.74-1.44,9.77-2.29,14.18-4.42c13.61-6.55,28.35-9.09,42.73-12.99c7.35-1.99,14.45-4.93,21.66-7.44
			c0.39-0.14,0.77-0.28,1.35-0.06c-2.95,2.01-5.9,4.01-8.85,6.02c0.06,0.15,0.11,0.29,0.17,0.44c4.64-1.83,9.36-3.48,13.91-5.52
			c7.9-3.54,15.17-8.15,21.84-13.71c0.73-0.61,1.86-0.72,2.81-1.06c0.19,1.1,0.76,2.28,0.52,3.28c-1.92,7.93-6.87,13.74-13.39,18.29
			c-9.03,6.31-19.37,9.64-29.91,12.13c-10.5,2.49-21.16,4.34-31.79,6.27c-11.43,2.07-22.37,5.48-32.6,11.16
			c4.79-1.07,9.55-2.27,14.37-3.18c10.54-1.99,21.1-3.85,31.65-5.74c13.45-2.4,27.05-4.06,40.08-8.45c1.53-0.52,3.01-1.2,4.54-1.71
			c0.49-0.16,1.07-0.03,1.61-0.03c-0.06,0.54,0.08,1.28-0.23,1.61c-2.32,2.53-4.44,5.38-7.16,7.4c-8.31,6.15-17,11.78-27.42,13.71
			c-4.47,0.83-9.04,1.23-13.58,1.63c-7.62,0.66-15.26,1.16-22.93,2.26c1.47,0.28,2.93,0.71,4.41,0.81
			c7.93,0.58,15.87,1.48,23.81,1.5c11.13,0.03,22.21-0.89,32.77-4.97c1.1-0.42,2.11-1.05,3.22-1.45c0.56-0.2,1.23-0.08,1.84-0.1
			c0.02,0.69,0.33,1.57,0.02,2.04c-0.96,1.47-2,2.95-3.28,4.13c-8.09,7.46-17.87,11.15-28.63,12.61c-9.62,1.3-19.09-0.15-28.57-1.52
			c-10.07-1.46-20.15-2.77-30.4-1.22c3.46,0.6,6.91,1.21,10.37,1.81c9.3,1.62,18.31,4.16,27.01,7.9
			c11.95,5.14,24.03,4.91,36.13,0.31c0.74-0.28,1.7-0.01,2.56,0c-0.18,0.86-0.1,1.91-0.57,2.56c-4.18,5.78-10.4,8.29-16.95,10.02
			c-11.43,3.03-22.31,0.78-32.91-3.78c-3.92-1.69-7.89-3.25-11.85-4.83c-0.87-0.35-1.8-0.56-2.86-0.88c0,1.44,0,2.68,0,4.16
			c-5.11-0.51-10.18-1.02-15.26-1.53c-0.03,0.09-0.05,0.17-0.08,0.26c3.58,1.04,7.13,2.21,10.75,3.08
			c6.56,1.57,12.75,3.93,18.54,7.43c10.42,6.31,21.68,8.97,33.85,7.3c0.79-0.11,1.6-0.01,3.15-0.01c-1.01,1.16-1.58,2.02-2.34,2.66
			c-3.66,3.11-8.1,4.51-12.71,5.21c-14.95,2.26-28.55-2.17-41.6-8.84c-4.89-2.5-9.59-5.39-15.09-6.41c-0.16,0.17-0.32,0.33-0.48,0.5
			c4.37,4.33,8.64,8.76,13.15,12.95c4.58,4.25,9.97,7.44,15.86,9.4c5.74,1.91,11.74,3.04,17.64,4.52
			C390.95,285.03,364.63,286.02,350.08,270.93z"/>
		<path d="M284.62,339.65c-2.09,7.52-4.57,15.39-6.36,23.41c-0.71,3.19-0.1,6.74,0.3,10.09c0.57,4.74-0.16,9.24-1.74,13.65
			c-2.13,5.94-4.91,11.73-6.36,17.83c-2.16,9.09-2.22,18.38,0.37,27.52c1.7,6.01-0.47,10.5-6.23,12.71
			c-0.38,0.15-1.02,0.01-1.37-0.24c-1.49-1.08-2.99-2.17-4.35-3.41c-2.19-2-2.62-4.59-1.78-7.31c4.16-13.49,2.74-26.58-2.59-39.46
			c-1.55-3.73-3.48-7.46-4.12-11.38c-0.73-4.5-0.56-9.24-0.14-13.81c0.36-3.87-0.24-7.45-1.22-11.09
			c-1.94-7.17-4.06-14.3-5.63-21.55c-1.92-8.88-1.62-17.9-0.1-26.82c1.41-8.26,3.27-16.45,4.66-24.71c0.39-2.32,0.03-4.84-0.36-7.2
			c-0.83-5-1.89-9.96-2.87-14.94c-0.07-0.35-0.23-0.69-0.58-1.72c-0.61,2.45-0.93,4.32-1.56,6.08c-1.05,2.95-2.34,5.82-3.45,8.76
			c-1.11,2.93-2.63,5.83-3.05,8.87c-0.78,5.68-2.99,10.54-6.48,14.98c-2.27,2.89-4.62,5.81-4.85,9.72
			c-0.08,1.46,0.13,2.94,0.13,4.41c0,3.3-0.15,6.6-0.02,9.88c0.06,1.45,0.59,2.89,1.01,4.31c0.37,1.23,0.89,2.41,1.01,3.76
			c-3.36-1.66-5.77-3.91-5.95-7.88c-2.17,1.75-2.33,4.95-0.56,7.33c0.61,0.83,1.3,1.6,1.84,2.48c0.22,0.36,0.11,0.92,0.16,1.38
			c-0.48,0.02-1,0.18-1.44,0.05c-2.51-0.75-5.16-4.31-5.28-7.01c-0.06-1.27-0.12-2.54-0.2-4.19c-2.4,2.7-2.63,5.14-1.09,8.25
			c0.84,1.7,1.9,3.36,0.62,5.47c-3.31-3.36-5.5-6.97-4.64-11.86c0.5-2.87,0.33-2.94-2.56-3.74c-1.91-0.53-4.08-0.74-5.08-3.52
			c6.39,1.51,9.16-2.75,12.08-6.81c2.74-3.82,3.78-8.27,4.72-12.73c0.61-2.88,1-5.8,1.42-8.72c0.54-3.71,1.65-7.13,4.24-10
			c3.14-3.47,4.11-7.85,5.03-12.3c1.52-7.34,3.17-14.66,4.96-21.94c1.23-4.98,4.85-7.25,9.77-7.9c2.53-0.34,5.12-0.8,7.49-1.69
			c4.7-1.76,6.1-6.41,3.47-10.66c-0.15-0.25-0.28-0.61-0.51-0.69c-4.88-1.91-4.48-6.86-6.11-10.71c0.97,0.54,1.95,1.09,2.95,1.65
			c0.19-2.8-1.17-4.01-3.58-4.96c-7.74-3.03-11.77-9.34-10.94-16.54c0.53-4.56,3.01-8.23,5.34-11.99c2.45-3.96,4.72-7.99,4.84-12.85
			c0.16-6.31-2.23-11.46-6.88-15.63c-0.44-0.39-0.87-0.79-1.3-1.19c-0.05-0.04-0.06-0.13-0.09-0.19c2.08-0.73,5.24,0.28,7.85,2.5
			c6.83,5.82,9.23,15.21,5.85,24.11c-1.38,3.63-3.32,7.05-5.03,10.54c-1.7,3.47-2.17,6.92,0.38,10.16c0.89,1.13,2.11,2.04,3.3,2.9
			c1.63,1.17,2.95,1.81,4.73-0.41c2.85-3.56,11.46-4.83,15.92,0.8c0.27,0.34,0.53,0.68,0.76,0.98c7.43-2.26,9.85-7.96,6.53-14.83
			c-2.01-4.16-4.44-8.26-5.57-12.67c-2.18-8.51,0.17-16.05,6.99-21.85c2.15-1.83,4.79-2.79,8.21-2.61
			c-0.73,0.63-1.13,0.99-1.54,1.33c-7.81,6.47-9.74,16.07-4.93,25.03c1.91,3.57,4.23,6.93,5.94,10.59
			c4.03,8.56,1.33,16.24-7.01,20.68c-0.84,0.45-1.68,1.01-2.59,1.23c-2.56,0.62-3.5,2.3-3.45,5.05c1.14-0.65,2.16-1.23,3.19-1.81
			c0.16,0.1,0.33,0.2,0.49,0.3c-1.43,3.1-2.86,6.2-4.32,9.29c-0.15,0.31-0.46,0.6-0.76,0.76c-4.34,2.26-4.59,8.4-0.11,10.79
			c2.63,1.41,5.79,2.03,8.79,2.51c6.36,1.02,8.92,3.01,10.4,9.32c1.83,7.79,3.31,15.66,5.2,23.43c0.66,2.73,1.54,5.72,3.27,7.82
			c3.91,4.76,5.21,10.2,6.02,16.05c0.97,7.02,2.49,13.88,7.29,19.55c2.46,2.9,4.96,5.29,9.14,4.52c0.2-0.04,0.43,0.04,0.65,0.08
			c0.05,0.01,0.1,0.09,0.51,0.48c-0.9,0.7-1.7,1.46-2.63,1.98c-0.75,0.42-1.66,0.57-2.51,0.8c-2.87,0.77-3.06,1.05-2.66,3.98
			c0.65,4.75-0.55,7.93-4.42,11.6c-1.2-1.87-0.42-3.54,0.5-5.11c1.75-2.98,1.04-5.71-0.49-8.39c-0.22-0.02-0.45-0.04-0.67-0.06
			c-0.08,1.07-0.35,2.16-0.21,3.2c0.51,3.7-1.72,5.74-4.39,7.51c-0.5,0.33-1.31,0.22-1.97,0.31c0.14-0.67,0.15-1.39,0.44-1.99
			c0.38-0.79,0.97-1.47,1.48-2.2c1.53-2.19,1.48-4.44-0.36-7.13c-0.71,1.77-1.1,3.54-2.05,4.92c-0.96,1.38-2.49,2.36-3.78,3.52
			c-0.26-0.16-0.52-0.32-0.78-0.48c0.48-1.28,0.99-2.55,1.44-3.83c0.38-1.07,0.98-2.16,1.01-3.25c0.11-4.47-0.1-8.95,0.08-13.41
			c0.12-3.03-0.68-5.67-2.31-8.13c-0.77-1.17-1.55-2.35-2.44-3.42c-3.97-4.72-5.94-10.22-6.86-16.26c-0.37-2.41-1.18-4.95-2.49-6.98
			c-2.46-3.83-3.67-7.98-4.53-12.34c-0.18-0.91-0.41-1.8-1.08-2.71c-0.36,2.19-0.68,4.39-1.09,6.57c-0.41,2.16-0.76,4.35-1.38,6.46
			c-1.43,4.83-1.59,9.61-0.54,14.59c1.77,8.4,3.16,16.88,4.68,25.33c2.37,13.19,8.69,24.32,17.99,33.77
			c5.88,5.97,12.09,11.62,18.59,17.84c0-3.27-0.3-6.12,0.05-8.89c1.58-12.52,6.86-22.86,18.51-28.85c12.2-6.27,27.19-2.4,35.76,8.86
			c4.15,5.45,6.93,11.56,8.77,18.45c2.53-3.25,4.93-6.33,7.33-9.41c0.2,0.06,0.4,0.13,0.6,0.19c-0.6,11.4-1.2,22.79-1.79,34.19
			c-0.15,0.1-0.3,0.21-0.45,0.31c-7.03-8.49-14.06-16.98-21.09-25.48c0.08-0.14,0.16-0.27,0.25-0.41c2.93,0.75,5.85,1.5,9.07,2.33
			c-1.1-4.8-3.24-8.86-5.69-12.75c-3.47-5.5-7.96-9.94-14.3-11.95c-9.92-3.15-20.82,1.95-26.05,11.98
			c-3.33,6.38-4.24,13.26-3.1,20.18c1.32,8.01,3.45,15.89,5.18,23.84c2.65,12.19,0.8,23.32-8.22,32.53
			c-5.54,5.66-12.58,8.22-20.32,9.16c-10.73,1.3-20.42-2.23-30.19-5.93c-4.24-1.61-5.71-3.92-4.92-8.18
			c0.25-1.34,0.04-2.78,0.04-4.29c4.81,1.83,9.35,3.69,13.99,5.28c6.84,2.36,13.88,3.46,21.05,1.88
			c11.94-2.63,18.77-12.2,17.88-24.49c-0.77-10.66-6.1-18.88-13.45-26.08c-5.16-5.05-10.65-9.79-15.54-15.09
			C291.56,349.24,288.16,344.21,284.62,339.65z M264.14,328.61c-1.52,20.29-4.99,40.6-0.07,60.37
			C269.39,369.22,265.8,348.92,264.14,328.61z"/>
		<path d="M181.81,364.11c2.41,0,4.59,0.02,6.78,0c13.85-0.16,26.37,4.06,37.79,11.65c9.82,6.52,18.04,14.92,26.23,23.31
			c3.34,3.42,3.15,8.06,3.83,13.11c-2.66-1.95-4.91-3.42-6.96-5.14c-7-5.87-13.91-11.85-20.9-17.74
			c-9.99-8.42-21.3-14.32-34.23-16.44c-4.93-0.81-10.09-0.27-15.15-0.3c-1.4-0.01-1.99,0.89-2.37,2.17
			c-1.52,5.18,1.87,10.51,7.39,11.51c0.42,0.08,0.85,0.1,1.65,0.19c-2.2,2.46-4.88,3.32-7.63,3.31c-2.75,0-5.68-0.22-8.21-1.2
			c-16.74-6.44-32.21-14.96-44.13-28.79c-5.93-6.87-9.89-14.78-11.47-23.79c-0.06-0.36-0.22-0.75-0.15-1.09
			c0.13-0.58,0.4-1.14,0.61-1.7c0.47,0.29,1.05,0.48,1.39,0.88c1.72,2.01,3.23,4.22,5.08,6.1c7.57,7.69,17.01,10.81,27.53,9.87
			c8.39-0.75,16.67-2.62,25.03-3.77c7.06-0.97,14.1-1.01,20.65,2.49c1.06,0.57,2,1.38,3.63,2.52
			C189.72,352.47,184.19,356.32,181.81,364.11z"/>
		<path d="M130.22,106.7c1.68,0.46,3.17,0.68,4.49,1.27c7.35,3.28,12.64,8.76,16.36,15.82c4.13,7.84,8.56,15.46,14.74,21.94
			c6.4,6.71,13.94,11.74,22.31,15.61c0.59,0.27,1.25,0.42,1.89,0.6c5.06,1.45,7.56,0.26,9.45-4.32c0.93,1.36,1.61,3.21,2.94,4.16
			c4.53,3.22,13.35,2.17,15.53-4.53c2.55-7.87,0.63-14.94-4.7-21.15c-0.67-0.78-1.43-1.49-2.13-2.24c-0.09-0.09-0.08-0.27-0.19-0.69
			c3.36,0.39,5.92,2.08,8.21,4.18c5.06,4.63,7.62,10.64,8.7,17.22c1.4,8.49,0.41,16.77-3.86,24.38c-1.5,2.68-3.41,5.18-5.44,7.5
			c-4.49,5.14-6.16,11.2-5.9,17.8c0.49,12.21,4.76,22.95,13.15,31.95c1.24,1.33,2.58,2.56,3.69,4.17c-0.79-0.31-1.61-0.57-2.38-0.92
			c-14.04-6.52-22.08-17.9-26.07-32.46c-1.37-5.01-1.58-10.15-1.04-15.34c0.95-9.16-1.35-13.05-9.78-16.83
			c-1.54-0.69-3.12-1.31-4.66-2.01c-19.8-8.96-34.28-22.89-40.96-44.03c-2.66-8.43-6.74-15.85-14.08-21.13
			C130.41,107.55,130.41,107.36,130.22,106.7z"/>
		<path d="M398.1,107.53c-0.83,0.67-1.66,1.33-2.48,2.02c-5.29,4.48-8.65,10.22-10.53,16.79c-5.11,17.89-16.06,31.3-31.57,41.1
			c-4.2,2.66-8.93,4.49-13.42,6.68c-0.73,0.36-1.49,0.64-2.22,0.98c-7.83,3.64-10.34,7.66-9.32,16.26
			c1.19,10.08-1.25,19.28-5.9,28.05c-5.2,9.81-12.82,16.97-23.28,20.96c-0.19,0.07-0.4,0.1-1.1,0.28c0.63-0.69,0.94-1.1,1.31-1.44
			c9.76-8.88,15.15-19.95,16.37-33.03c0.75-8.12-1.56-15.27-7.21-21.3c-10.26-10.95-10.75-28.41-5.01-39.93
			c2.29-4.58,5.46-8.41,10.21-10.66c1.14-0.54,2.4-0.83,3.61-1.24c0.09,0.18,0.19,0.37,0.28,0.55c-0.66,0.62-1.36,1.21-1.99,1.87
			c-5.24,5.49-7.23,12.03-5.97,19.48c1.24,7.36,9.91,11.1,16.08,6.86c1.36-0.93,2.1-2.78,3.17-4.26c-0.17-0.08,0.02-0.06,0.06,0.04
			c2.47,5,4.76,6.15,10.05,4.21c9.65-3.54,17.76-9.44,24.74-16.95c5.27-5.67,9.27-12.18,12.7-19.07c3.38-6.79,7.73-12.75,14.59-16.4
			c2.03-1.08,4.26-1.79,6.4-2.67C397.83,106.99,397.96,107.26,398.1,107.53z"/>
		<path d="M381.61,148.17c1.54-8.01,5.49-14.79,11.52-20.45c5.92-5.56,11.73-11.22,15.75-18.42c4.31-7.7,7.07-15.83,7.19-24.76
			c0.01-0.97,0.9-1.94,1.38-2.91c0.89,0.73,2.2,1.29,2.6,2.23c5.11,12.1,4.87,25.25-5.38,35.63c-5.98,6.05-12.88,11.2-19.35,16.78
			C390.75,140.22,386.21,144.18,381.61,148.17z"/>
		<path d="M147.18,148.69c-7.34-8.02-15.51-14.09-23.51-20.35c-5.6-4.38-10.82-9.1-14.5-15.31c-3.8-6.42-4.49-13.35-3.16-20.48
			c0.6-3.21,1.81-6.33,2.96-9.41c0.24-0.65,1.41-0.96,2.15-1.43c0.45,0.75,1.29,1.5,1.31,2.26c0.34,15.33,7.03,27.68,17.69,38.23
			c3.4,3.36,6.78,6.77,9.9,10.39C143.86,137.02,145.66,142.46,147.18,148.69z"/>
		<path d="M329.66,303.48c-8.68,0.79-18.07-8.14-17.34-16.44c2.67,1.77,5.94,1.54,7.64,5.33c1.52,3.4,4.76,6.04,7.28,8.97
			C327.86,302.05,328.65,302.6,329.66,303.48z"/>
		<path d="M199.18,303.45c1.32-1.21,2.71-2.18,3.71-3.46c2.46-3.16,4.74-6.46,7.11-9.69c0.33-0.45,0.65-1.06,1.1-1.22
			c1.56-0.55,3.19-0.94,4.78-1.39C217.48,293.87,208.61,304.02,199.18,303.45z"/>
	</g>
</g>
<g id="Layer_17">
</g>
</svg>
