<?xml version="1.0" encoding="utf-8"?>
<!-- Generator: Adobe Illustrator 24.0.1, SVG Export Plug-In . SVG Version: 6.00 Build 0)  -->
<svg version="1.1" xmlns="http://www.w3.org/2000/svg" xmlns:xlink="http://www.w3.org/1999/xlink" x="0px" y="0px"
	 viewBox="0 0 528.57 523.81" style="enable-background:new 0 0 528.57 523.81;" xml:space="preserve">
<style type="text/css">
	.st0{fill:#616060;}
	.st1{fill:#8D8989;}
	.st2{fill:#FFFFFF;}
</style>
<g id="Layer_1">
	<g>
		<path d="M81.24,363.16c3.39,2.48,7.37,2.7,11.33,2.92c1.62,0.09,3.26,0.01,5.21,0.01c0,17.33,0,34.31,0,51.44
			c1.06,0,1.79,0,2.82,0c0-7.09-0.08-14.1,0.06-21.12c0.03-1.41,0.56-3.08,1.43-4.17c2.27-2.84,4.89-5.4,7.31-8.12
			c0.94-1.05,1.71-0.97,2.58,0.01c0.4,0.45,0.8,0.96,1.31,1.27c6.21,3.76,7.68,9.24,7.13,16.26c-0.64,8.12-0.08,16.32-0.19,24.49
			c-0.03,2.2,0.5,3.51,3.06,3.57c0.05-0.64,0.13-1.29,0.13-1.94c0.01-21.55,0.01-43.1,0.05-64.64c0-0.93,0.37-1.86,0.57-2.79
			c0.33,0.06,0.67,0.12,1,0.18c0.04,0.84,0.11,1.68,0.11,2.52c0.06,21.72,0.17,43.44,0.12,65.16c-0.01,2.65,1,3.58,3.78,3.63
			c0-18.06,0-36.03,0-54c0.36-0.06,0.72-0.12,1.08-0.18c0.2,0.89,0.57,1.78,0.57,2.66c0.03,14.68,0.02,29.37,0.02,44.05
			c0,1.82,0.13,3.66-0.03,5.47c-0.23,2.61,0.75,3.94,3.57,3.85c0.03-0.67,0.1-1.35,0.1-2.02c-0.03-17.03-0.07-34.06-0.1-51.09
			c0-0.26-0.09-0.56,0.01-0.77c0.3-0.67,0.68-1.31,1.02-1.96c0.26,0.63,0.74,1.27,0.74,1.9c0.05,10.51,0.06,21.03,0.05,31.54
			c0,6.86,0.06,13.73-0.12,20.59c-0.07,2.61,1.03,3.61,3.64,3.74c0-19.13,0-38.21,0-57.27c2.41-0.56,1.88,1.06,1.88,2.14
			c0,11.03-0.03,22.07-0.06,33.1c-0.01,6.78-0.08,13.55,0.01,20.33c0.01,1.05,0.8,2.07,1.17,3.13c0.17,0.48,0.26,1.02,0.26,1.54
			c0.01,1.39-0.2,2.79-0.03,4.15c0.08,0.66,0.81,1.24,1.57,1.67c0.56-26.33,0.27-52.47,0.54-78.6c0.44-0.01,0.88-0.02,1.33-0.02
			c0.05,0.98,0.14,1.96,0.14,2.94c0.01,24.5,0,49,0,73.5c0,3.23,0.01,3.23,3.43,4.14c0.06-0.86,0.16-1.68,0.16-2.51
			c-0.01-27.89-0.03-55.78-0.07-83.67c0-3.4,0.96-4.41,4.35-4.4c5.65,0,11.29-0.01,16.94-0.01c2.58,0,4.29,1.65,4.29,4.29
			c-0.01,13.73-0.05,27.46-0.07,41.18c-0.02,9.64-0.01,19.29-0.08,28.93c-0.02,2.04,0.67,3.09,2.99,2.84c0-11.67,0-23.34,0-35.01
			c0.29-0.09,0.58-0.18,0.87-0.27c0.3,0.89,0.86,1.78,0.86,2.68c0.03,9.3-0.02,18.59-0.05,27.89c-0.01,1.55,0,3.1,0,4.88
			c0.99,0.06,1.8,0.1,2.89,0.16c0-11.45,0-22.69,0-34.12c4.66,0,9.06,0,13.72,0c0,15.32,0,30.66,0,46.35c3.3,0,6.35,0,9.72,0
			c0-1.07,0-2.26,0-3.45c0-19.38-0.01-38.75,0.02-58.13c0-0.92,0.28-1.84,0.43-2.76c0.32,0.05,0.65,0.1,0.97,0.15
			c0,21.39,0,42.78,0,64.32c1.28,0.29,2.32,0.52,3.64,0.82c0-1.04,0-1.8,0-2.57c-0.04-20.85-0.09-41.7-0.07-62.56
			c0-1.24,0.56-2.48,0.85-3.72c0.31,1.19,0.9,2.39,0.9,3.58c0.05,21.11,0.06,42.23-0.02,63.34c-0.01,2.34,0.79,3.14,3.12,2.79
			c0-23.66,0-47.28,0-71.36c1.16,0.62,2.05,1.04,2.89,1.56c4.64,2.87,9.24,5.83,13.92,8.63c1.55,0.92,2.01,2.01,2,3.78
			c-0.06,20.07-0.03,40.14-0.02,60.21c0,0.94,0,1.88,0,2.9c1.44-0.19,2.63-0.35,4.12-0.55c0.06-1.11,0.18-2.29,0.18-3.47
			c-0.02-16.77-0.06-33.54-0.1-50.31c0-0.69-0.07-1.41,0.06-2.08c0.06-0.3,0.54-0.71,0.82-0.71c0.28,0,0.72,0.44,0.79,0.75
			c0.13,0.58,0.05,1.21,0.05,1.81c0,16.77,0,33.54,0,50.3c0,1.01,0,2.01,0,3.24c1.34-0.19,2.26-0.32,3.45-0.49c0-0.99,0-1.91,0-2.84
			c-0.02-16.59-0.04-33.19-0.06-49.78c0-0.61-0.1-1.25,0.06-1.81c0.13-0.46,0.58-0.84,0.89-1.25c0.3,0.43,0.79,0.83,0.88,1.31
			c0.17,0.93,0.15,1.9,0.15,2.86c0.04,16.16,0.06,32.32,0.09,48.48c0,0.93,0,1.85,0,3.01c1.41-0.2,2.42-0.34,3.67-0.51
			c0-20.81,0-41.54,0-62.27c0.31-0.08,0.63-0.15,0.94-0.23c0.22,0.85,0.62,1.69,0.63,2.54c0.07,7.38,0.07,14.77,0.08,22.16
			c0.01,11.64,0,23.29,0,34.93c0,0.85,0,1.69,0,2.68c1.18,0,2.09,0,3.3,0c0-12.4,0-24.68,0-37.03c6.73-1.87,13.2-3.68,20.08-5.59
			c0,14.42,0,28.58,0,42.87c1.36,0,2.36,0,3.6,0c0-7.27,0-14.44,0-21.8c4.99-0.47,9.77-0.92,14.9-1.4c0-1.94,0-3.49,0-5.03
			c-0.01-15.99-0.06-31.97,0.03-47.96c0.01-1.19,0.64-2.69,1.49-3.53c7.78-7.69,15.67-15.28,23.54-22.88
			c0.7-0.68,1.48-1.28,2.69-2.32c0,33.62,0,66.57,0,99.81c1.15-0.05,2.07-0.1,3.37-0.16c0-1.03,0-1.96,0-2.88
			c-0.03-32.15-0.06-64.3-0.06-96.44c0-0.93,0.26-1.87,0.41-2.8c0.42,0.04,0.84,0.08,1.26,0.13c0,33.59,0,67.18,0,100.65
			c3.13,0.87,3.29-0.72,3.29-2.52c-0.02-12.95-0.04-25.89-0.06-38.84c-0.01-4.26-0.13-8.52,0.05-12.77c0.06-1.34,0.6-2.92,1.45-3.93
			c2.68-3.19,5.68-6.1,8.4-9.25c0.76-0.88,1.3-2.21,1.38-3.38c0.19-3.03,0.03-6.08,0.09-9.12c0.01-0.65,0.41-1.29,0.63-1.94
			c0.27,0.06,0.55,0.11,0.82,0.17c0,21.22,0,42.44,0,63.88c1.19-0.07,2.02-0.12,3.15-0.19c0-23,0-45.88,0-68.76
			c0.35-0.07,0.7-0.13,1.05-0.2c0.2,0.85,0.57,1.7,0.58,2.55c0.07,12.16,0.11,24.33,0.12,36.49c0.01,9.47-0.02,18.94-0.02,28.41
			c0,0.33,0.06,0.66,0.09,0.98c3.84,0.09,3.96-0.02,3.96-3.58c0-15.2,0-30.4,0-45.89c0.65,0.28,1.18,0.44,1.64,0.71
			c5.02,2.93,10.02,5.89,15.05,8.79c1.5,0.87,2.41,1.73,2.36,3.81c-0.15,7.12,0.03,14.24,0.08,21.37c0.01,1.72,0,3.43,0,5.29
			c2.41,0,4.46,0,6.86,0c0-13.91,0-27.82,0-41.73c0.35-0.05,0.71-0.1,1.06-0.16c0.17,0.9,0.49,1.8,0.49,2.7
			c0,12.34-0.05,24.68-0.08,37.01c0,0.68,0,1.36,0,2.16c0.98,0,1.82,0,3.12,0c0-14.52,0-29.04,0-43.55c0.4-0.06,0.81-0.13,1.21-0.19
			c0.22,0.93,0.62,1.85,0.63,2.78c0.08,13.29,0.12,26.59,0.15,39.88c0.02,7.98,0,15.96,0,23.95c2.75-0.08,3.46-1.23,3.45-3.64
			c-0.12-21.46-0.11-42.92-0.1-64.38c0-0.79,0.35-1.57,0.53-2.36c0.39,0.06,0.79,0.13,1.18,0.19c0,22.53,0,45.05,0,67.67
			c2.87,0,3.62-1.07,3.61-3.49c-0.1-21.89-0.08-43.79-0.09-65.68c0-0.61-0.11-1.24,0.04-1.82c0.2-0.8,0.59-1.55,0.9-2.32
			c0.29,0.79,0.82,1.58,0.82,2.37c0.11,22.07,0.17,44.14,0.24,66.2c0,0.86,0,1.72,0,2.59c2.6,0.17,3.22-1.04,3.21-3.27
			c-0.08-15.2-0.06-30.41-0.08-45.62c0-1.18,0-2.36,0-4.09c3.46,2.09,6.53,3.84,9.43,5.81c0.54,0.37,0.59,1.68,0.59,2.56
			c0.04,12.08,0.02,24.15,0.02,36.23c0,0.95,0,1.9,0,2.85c3.04-0.07,3.12-0.13,3.12-2.76c0-9.21-0.01-18.42-0.02-27.63
			c0-0.94,0-1.88,0-2.82c0.31-0.1,0.61-0.19,0.92-0.29c0.23,0.72,0.65,1.44,0.65,2.16c0.05,7.82,0.03,15.64,0.03,23.46
			c0,2.16,0,4.31,0,6.59c0.76-0.13,1.26-0.26,1.77-0.3c2.67-0.17,3.56-1.47,3.4-4.19c-0.26-4.48-0.07-8.98-0.07-13.62
			c3.48,0,6.74,0,10.29,0c0,4.83,0,9.48,0,14.13c0.29,0.15,0.58,0.3,0.88,0.44c0.47-0.67,1.36-1.34,1.36-2.01
			c0.02-21.54-0.05-43.09-0.11-64.63c0-0.08-0.06-0.16-0.22-0.57c-3.61-0.65-7.41-1.33-11.21-2c-25.21-4.45-48.85-13.06-70.69-26.54
			c-14.15-8.73-22.58-21.96-29.28-36.61c-5.48-11.99-8.3-24.66-10.01-37.68c-1.27-9.66-2.72-19.32-4.74-28.85
			c-1.56-7.35-5.9-12.82-13.76-14.69c-3.84,12.1-12.25,19.33-24.66,19.47c-12.62,0.14-20.8-7.38-24.66-19.62
			c-5.95,1.6-10.53,4.91-12.27,10.8c-1.85,6.25-3.21,12.7-4.2,19.15c-2.03,13.18-2.91,26.57-7.37,39.27
			c-4.53,12.9-10.35,25.14-19.34,35.63c-6.5,7.6-14.89,11.96-24.53,14.08c-8.14,1.79-16.11-0.05-23.7-2.45
			c-14.5-4.58-28.74-10.01-43.13-14.96c-8.23-2.83-16.46-5.74-24.86-7.97c-9.51-2.52-18.8-0.68-27.92,2.69
			c-13.41,4.96-27.28,8.05-41.56,9.14c-3.01,0.23-6.04,0.4-9.06,0.46c-0.58,0.01-1.17-0.62-1.75-0.95c0.59-0.33,1.16-0.92,1.76-0.94
			c17.77-0.58,34.96-4.14,51.56-10.36c12.36-4.63,24.59-4.03,36.75,0.28c13.14,4.65,26.15,9.67,39.25,14.42
			c10.24,3.71,20.55,7.13,31.39,8.76c11.22,1.69,20.67-2.13,29.17-8.91c8.72-6.95,13.72-16.64,18.66-26.32
			c6.09-11.95,8.61-24.88,10.39-38.01c0.06-0.42,0.01-0.86,0.01-1.07c-1.93,1.65-3.83,3.55-6.01,5.05
			c-2.24,1.54-4.71,2.88-7.86,2.06c2.73-3.95,5.34-7.73,7.96-11.51c-0.31-0.25-0.61-0.51-0.92-0.76c-0.59,0.56-1.29,1.04-1.77,1.69
			c-3.41,4.66-7.47,8.42-13.22,9.93c-1.13,0.3-2.29,0.47-3.68,0.37c2.33-5.13,7.95-7.48,10.33-12.42c-0.14-0.2-0.29-0.4-0.43-0.6
			c-1.08,0.68-2.28,1.23-3.22,2.07c-4.94,4.37-10.44,7.39-17.22,7.37c-0.78,0-1.57-0.44-2.35-0.68c0.41-0.67,0.67-1.54,1.26-1.98
			c4.44-3.3,8.94-6.52,13.62-9.91c-1.18-0.86-2.52-1.83-3.75-2.73c-4.32,2.98-8.99,6.53-14,9.52c-2.19,1.31-5.02,1.71-7.63,2.09
			c-2.14,0.31-2.79-0.79-1.36-2.35c3.44-3.75,7.14-7.27,10.85-10.77c1.3-1.23,2.9-2.12,4.11-3.66c-2.45,1.19-4.94,2.3-7.33,3.59
			c-5.45,2.94-11.12,5.23-17.35,5.63c-1.6,0.1-3.25-0.66-4.87-1.02c0.97-1.21,1.7-2.78,2.94-3.55c4.25-2.66,8.75-4.93,13.02-7.57
			c2.61-1.61,4.98-3.62,7.46-5.45c-0.18-0.34-0.37-0.68-0.55-1.03c-3.34,1.41-6.74,2.69-9.99,4.27c-6.66,3.23-13.4,6.1-20.94,6.27
			c-1.09,0.03-2.19-0.57-3.29-0.88c0.63-1.02,1.02-2.44,1.94-3c3.76-2.3,7.67-4.36,11.55-6.45c2.09-1.13,4.24-2.16,6.58-3.35
			c-1.12-0.72-1.85-1.45-2.72-1.68c-0.91-0.24-2.2-0.38-2.88,0.09c-6.63,4.53-13.95,6.85-21.94,6.87c-2.47,0.01-4.97-0.51-7.39-1.07
			c-0.96-0.22-1.74-1.2-2.6-1.84c0.66-0.74,1.2-1.7,2.02-2.18c2.04-1.18,4.2-2.14,6.45-3.26c-4.74-0.68-9.17-1.23-13.56-2.02
			c-0.92-0.16-1.68-1.2-2.51-1.83c0.78-0.71,1.46-1.65,2.37-2.07c1.98-0.9,4.08-1.53,6.18-2.28c-4.99-1.1-9.76-2.1-14.49-3.22
			c-1.07-0.25-2.15-0.78-3.01-1.46c-0.72-0.57-1.12-1.54-1.66-2.34c0.82-0.34,1.64-0.93,2.47-0.97c4.6-0.21,9.23,0.01,13.8-0.45
			c8.06-0.81,16.1-1.81,24.09-3.15c2.69-0.45,5.18-2.15,7.84-3.31c-2.3-3.34-2.62-3.44-6.45-2.1c-9.46,3.3-19.11,5.86-29.19,4.85
			c-5.33-0.54-10.55-2.23-15.78-3.55c-1.12-0.28-2.22-1.06-3.09-1.86c-1.19-1.1-3.61-2.05-2.46-3.95c0.63-1.03,3.05-1.46,4.61-1.35
			c3.67,0.26,7.31,1.01,11.01,1.32c-5.1-1.1-10.27-2.36-14.15-5.86c-3.23-2.92-6.77-5.11-10.54-7.1c-0.08-0.04-0.18-0.06-0.22-0.13
			c-1.06-1.45-2.11-2.91-3.17-4.37c1.77-0.51,3.53-1.02,5.21-1.5c-0.01-0.01-0.57-0.38-1.09-0.78c-5.47-4.23-10.94-8.46-16.39-12.72
			c-0.47-0.37-0.88-0.85-1.21-1.36c-1.16-1.77-0.58-2.9,1.52-3.07c0.47-0.04,0.94-0.07,1.35-0.09c-3.21-2.86-6.35-5.65-9.48-8.45
			c-0.32-0.29-0.72-0.59-0.86-0.97c-0.44-1.27-1.28-2.69-0.99-3.81c0.2-0.78,1.99-1.15,3.19-1.76c-1.44-1.21-3.11-2.6-4.78-3.99
			c-0.13-0.11-0.26-0.23-0.39-0.35c-1.43-1.34-3.72-2.76-2.57-4.78c0.64-1.12,3.26-1.09,5.22-1.65c-1.47-1.3-3.21-2.73-4.82-4.3
			c-1.6-1.57-3.25-3.15-4.54-4.96c-0.78-1.1-1.42-2.76-1.17-3.97c0.14-0.65,2.3-0.87,3.16-1.15c-2.25-2.21-4.89-4.64-7.34-7.26
			c-1.04-1.11-1.85-2.54-2.42-3.96c-0.33-0.82-0.34-2.21,0.16-2.8c0.49-0.58,1.94-0.89,2.71-0.61c2.82,1.02,5.52,2.34,8.52,3.29
			c-2.32-1.89-4.75-3.67-6.93-5.71c-2-1.88-3.87-3.94-5.51-6.14c-0.56-0.75-0.21-2.17-0.27-3.28c1.11,0.02,2.29-0.21,3.3,0.11
			c1.35,0.43,2.56,1.29,3.83,1.96c0.14-0.17,0.28-0.34,0.42-0.52c-2.55-2.46-5.08-4.95-7.66-7.38c-1.19-1.13-2.62-2.03-3.68-3.26
			c-0.59-0.68-1.1-2.02-0.8-2.7c0.28-0.66,1.62-0.9,2.53-1.24c0.38-0.14,0.83-0.06,0.84-0.06c-1.75-1.94-3.75-3.96-5.48-6.17
			c-0.67-0.85-0.75-2.16-1.11-3.25c1.21-0.24,2.58-0.98,3.59-0.63c7.35,2.5,14.87,4.69,21.88,7.96
			c30.13,14.08,59.11,30.25,86.68,48.89c11.35,7.68,22.42,15.76,32.15,25.49c6.6,6.6,11.26,14.48,14.95,22.99
			c0.38,0.87,0.74,1.75,1.13,2.62c0.1,0.22,0.28,0.4,0.21,0.31c2.76-0.25,5.29-0.49,8.1-0.74c0.29-1.35,0.54-3.06,1.02-4.69
			c1.88-6.33,7.29-9.82,13.86-9.25c3.97,0.34,7.97,0.54,11.94,0.48c3.51-0.06,5.62-2.75,7.92-4.98c2.1-2.04,4.06-4.31,6.42-5.99
			c3.97-2.82,8.58-3.45,13.39-2.73c-4.73-2.11-9.59-1.86-13.96,0.36c-3.13,1.59-5.68,4.37-8.4,6.72c-1.89,1.63-3.43,3.74-5.49,5.08
			c-4.21,2.75-11.19-1.15-11.43-6.21c-0.02-0.53,0.29-1.08,0.65-2.31c0.63,1.34,0.91,2.1,1.33,2.78c1.44,2.28,3.22,4.28,6.17,4.08
			c2.76-0.18,4.49-1.92,5.45-4.52c2.36-6.4,6.3-11.35,13.03-13.53c5.01-1.62,12.67-1.01,15.67,3.76c2.9-3.64,6.73-5.22,11.28-4.91
			c5.24,0.36,9.74,2.52,13.09,6.53c1.75,2.1,3.17,4.57,4.29,7.07c2.62,5.83,7.63,6.94,11.7,1.34c0.13-0.18,0.4-0.26,0.62-0.4
			c0.89,2.78-1.8,6.01-5.26,6.23c-5.37,0.33-9.86-1.36-13.13-5.85c-3.07-4.22-6.79-7.65-12.03-8.93c-2.28-0.56-4.59-0.75-6.69,0.74
			c0.11,0.2,0.19,0.43,0.24,0.43c8.12-1,13.43,3.43,17.97,9.31c1.89,2.44,3.89,4.85,7.13,5.24c3.17,0.38,6.39,0.35,9.59,0.41
			c2.16,0.04,4.38-0.39,6.48-0.07c5.8,0.88,9.54,4.89,10.81,11.13c0.21,1.01,0.44,2.01,0.68,3.08c1.99,0.17,3.86,0.33,5.88,0.5
			c1-2.43,1.95-4.93,3.05-7.36c4.94-10.86,12.97-19.2,22.04-26.63c13.98-11.46,28.98-21.45,44.46-30.73
			c24.62-14.76,49.56-28.91,76.29-39.6c3.83-1.53,7.87-2.58,11.86-3.65c0.92-0.25,2.07,0.32,3.11,0.51c-0.21,1-0.09,2.29-0.68,2.95
			c-2.07,2.29-4.37,4.37-6.64,6.57c0.4-0.09,0.88-0.34,1.28-0.25c1.03,0.23,2.3,0.37,2.94,1.04c0.35,0.37-0.11,2.03-0.7,2.65
			c-1.48,1.56-3.24,2.86-4.87,4.28c-2.27,1.99-4.52,4.01-6.78,6.01c0.24,0.29,0.48,0.58,0.71,0.88c1.4-0.66,2.76-1.44,4.23-1.93
			c0.88-0.29,1.92-0.12,2.88-0.15c0,1.07,0.43,2.48-0.09,3.16c-2.04,2.67-4.27,5.21-6.64,7.6c-1.44,1.45-3.24,2.55-4.71,4.22
			c1.2-0.57,2.36-1.26,3.62-1.68c2.17-0.73,4.65-2.97,6.57-0.36c1.58,2.15-0.72,4.06-2.04,5.56c-2.55,2.88-5.43,5.46-8.14,8.14
			c0.14,0.01,0.61,0.04,1.07,0.07c2.44,0.16,3.25,1.36,1.82,3.34c-1.75,2.42-3.9,4.57-6.01,6.72c-1.23,1.25-2.7,2.27-3.76,3.87
			c0.49-0.02,1-0.15,1.45-0.05c1.18,0.27,2.98,0.32,3.34,1.05c0.41,0.84-0.12,2.58-0.83,3.45c-1.28,1.6-2.98,2.87-4.54,4.25
			c-0.69,0.61-1.45,1.12-2.18,1.68c0.22,0.3,0.31,0.54,0.41,0.54c4.43,0.17,4.61,2.81,2.12,5.33c-2.84,2.88-6.13,5.31-9.23,7.92
			c-0.38,0.32-0.82,0.58-1.16,0.81c1.04,0.72,2.82,1.43,2.79,2.04c-0.06,1.23-0.89,2.61-1.79,3.57c-4.71,5.11-10.6,8.6-16.7,11.78
			c-0.45,0.23-0.91,0.44-1.28,0.95c1.31-0.1,2.64-0.39,3.93-0.25c2.31,0.24,3.14,2.23,1.45,3.81c-1.93,1.8-4.3,3.14-6.43,4.74
			c-1.47,1.11-2.79,2.43-4.31,3.46c-2.56,1.74-5.18,3.38-7.85,4.94c-1.3,0.76-2.78,1.22-4.09,2.12c2.3-0.25,4.59-0.54,6.89-0.73
			c0.93-0.08,1.91-0.04,2.81,0.15c1.76,0.38,2.1,1.69,1.06,2.88c-1.17,1.34-2.62,2.55-4.18,3.4c-7.91,4.31-16.49,5.16-25.18,3.82
			c-6.53-1.01-12.98-2.7-19.36-4.46c-2.56-0.71-4.44-0.55-6.18,1.41c4.62,4.08,10.37,5.38,16.16,5.97
			c8.35,0.85,16.76,1.07,25.15,1.54c0.86,0.05,1.76-0.17,2.59-0.02c1.08,0.2,2.11,0.64,3.17,0.98c-0.7,0.9-1.22,2.3-2.12,2.62
			c-3.63,1.29-7.36,2.33-11.1,3.28c-1.82,0.46-3.75,0.51-6.01,0.8c2.89,2.06,6.86,1.45,9.09,4.8c-4.7,3.19-10.09,2.69-15.31,4.14
			c1.59,0.63,3.27,1.11,4.75,1.95c1.01,0.57,1.73,1.65,2.58,2.5c-0.9,0.67-1.71,1.65-2.72,1.95c-9.12,2.76-17.63,0.83-25.63-3.8
			c-2.15-1.25-3.93-2.33-6.11-0.25c-0.45,0.43-1.27,0.46-1.76,0.62c5.13,2.66,10.44,5.27,15.58,8.18c1.41,0.8,2.3,2.5,3.43,3.79
			c-1.64,0.46-3.31,1.38-4.92,1.3c-6.76-0.32-12.95-2.68-18.92-5.77c-3.65-1.89-7.42-3.55-11.14-5.31c-0.18,0.27-0.36,0.53-0.54,0.8
			c2.82,2.18,5.49,4.59,8.48,6.49c4.09,2.6,8.43,4.81,12.65,7.19c0.53,0.3,1.14,0.56,1.5,1.01c0.56,0.7,0.93,1.54,1.37,2.32
			c-0.78,0.42-1.53,1.12-2.35,1.22c-5.4,0.67-10.46-0.7-15.33-2.89c-3.34-1.5-6.63-3.13-10.12-4.45c1.91,1.56,3.88,3.07,5.73,4.71
			c2.46,2.19,4.91,4.41,7.18,6.8c0.71,0.75,0.79,2.09,1.16,3.15c-1.13,0.28-2.29,0.9-3.38,0.78c-5.47-0.58-9.81-3.63-14.09-6.77
			c-2.07-1.52-4.14-3.06-6.19-4.58c-1.25,1.02-2.38,1.94-3.55,2.9c5.42,3.26,11.09,6.08,15.97,10.86c-3.42,1.68-6.45,1.22-9.03,0.15
			c-4.11-1.71-7.92-4.13-11.85-6.27c-0.96-0.52-1.89-1.09-2.83-1.63c-0.24,0.32-0.49,0.65-0.73,0.97c3.9,3.71,7.81,7.43,11.71,11.14
			c-0.17,0.24-0.34,0.49-0.51,0.73c-4.55,0-8.8-1.57-12.25-4.33c-3.33-2.66-5.94-6.22-8.87-9.39c-0.33,0.23-0.65,0.46-0.98,0.69
			c1.46,2.45,2.65,5.13,4.45,7.3c1.78,2.14,4.19,3.78,5.98,6.06c-5.47,1.07-9.48-1.42-13.32-4.14c1.48,13.77,5.62,26.78,11.52,39.37
			c8.39,17.88,21.94,30.05,39.49,38.62c17.7,8.64,36.14,14.74,55.41,18.52c4.04,0.79,8.11,1.4,12.45,2.14c0-6.16,0-12.03,0-18.61
			c8.93-0.6,17.68-1.18,26.7-1.79c0,29.67,0,58.57,0,87.61c1.09,0.23,1.99,0.42,3.25,0.69c0-1.11,0-1.96,0-2.81
			c0-17.29,0.01-34.58-0.04-51.87c0-1.08-0.57-2.15-0.96-3.51c-0.43,0.18-0.28,0.09-0.12,0.05c0.91-0.2,1.82-0.38,2.72-0.57
			c0.14,1.26,0.39,2.51,0.39,3.77c-0.01,17.03-0.05,34.06-0.08,51.09c0,1.21,0,2.41,0,3.78c4.65,0.7,9.07,1.36,14.03,2.11
			c-0.14-3.15-0.27-6.12-0.42-9.1c-0.01-0.22-0.21-0.55-0.41-0.63c-3.23-1.35-4.41-4.47-6.29-7.04c-2.1-2.89-2.13-5.05,0.42-7.51
			c0.5-0.49,0.58-1.47,0.73-2.26c0.32-1.67,0.25-3.5,0.9-5.01c1.19-2.77,3.88-4.18,6.21-3.73c3.02,0.59,5.08,2.96,5.31,6.2
			c0.09,1.2,0.01,2.4,0.01,3.7c3.7,2.27,3.95,5.14,0.7,8.26c-0.55,0.53-0.59,1.55-0.96,2.3c-0.7,1.39-1.17,3.13-2.3,4.01
			c-1.59,1.26-2.42,2.46-2.21,4.52c0.18,1.72-0.03,3.48,0.1,5.2c0.04,0.54,0.66,1.04,1.01,1.56c0.4-0.34,0.81-0.68,1.2-1.03
			c0.56-0.52,1.17-1,1.64-1.59c0.49-0.6,1.23-1.32,1.19-1.95c-0.17-3.17,1.31-5.08,4.06-6.06c-0.12-1.68-0.58-3.36-0.24-4.85
			c0.29-1.29,1.5-2.37,2.67-4.07c-0.67-2.8,0.18-5.87,3.41-7.98c2.58-1.68,5.31-1.63,7.76,0.17c2.38,1.75,3.46,4.22,2.97,6.72
			c2.14,1.21,4.46,2.01,6.06,3.55c1.86,1.8,1.19,4.29,0.14,6.45c3.42,2.05,4.68,5.98,2.18,7.49c1.02,2.14,2.01,4.22,3.18,6.67
			c2.86,0.77,6.32,1.7,9.77,2.63c-0.05,0.35-0.1,0.7-0.16,1.05c-0.86,0.06-1.73,0.2-2.59,0.18c-9.38-0.17-18.79-0.96-28.12-0.41
			c-13.9,0.82-27.82,2.05-41.58,4.09c-15.26,2.26-30.44,5.21-45.49,8.6c-21.27,4.79-41.85,11.96-62.24,19.64
			c-6.06,2.29-12.2,4.39-18.29,6.59c-0.45,0.16-0.87,0.4-1.07,0.5c11.64,2.09,23.4,4.18,35.16,6.3c3.9,0.7,7.76,1.64,11.68,2.16
			c1.69,0.22,3.65,0.07,5.19-0.59c17.91-7.69,36.01-14.87,54.61-20.75c4.6-1.45,9.21-2.89,13.77-4.43c0.69-0.23,1.41-0.9,1.74-1.56
			c2.17-4.27,7-5.19,10.32-1.73c1.08,1.12,1.89,1.19,3.31,0.89c9.92-2.14,19.82-4.45,29.83-6.09c10.94-1.8,22.01-2.65,33.12-2.29
			c0.32,0.01,0.64,0.12,1.12,0.78c-0.76,0.22-1.51,0.63-2.27,0.65c-19.62,0.4-38.88,3.42-57.94,7.9c-0.92,0.22-1.83,0.47-2.59,0.67
			c1.16,2.58,2.32,5.16,3.61,8.03c19.06-4.47,38.59-9.67,58.98-8.63c0.07,0.26,0.13,0.51,0.2,0.77c-0.8,0.22-1.6,0.63-2.4,0.63
			c-18.8,0.14-36.95,4.38-55.09,8.74c-1.4,0.34-2.53,0.76-2.78,2.54c-0.13,0.91-0.9,2.21-1.67,2.46c-2.89,0.95-5.72,1.96-8.45,4.53
			c0,0.3,0,1.32,0,2.35c0,1.04,0,2.08,0,2.78c11.46-2.37,22.8-5.15,34.29-6.97c11.41-1.81,22.97-2.66,34.42-0.31
			c0.01,0.38,0.03,0.75,0.04,1.13c-1.19,0.05-2.38,0.14-3.57,0.16c-8.76,0.16-17.66-0.58-26.26,0.68
			c-12.31,1.79-24.42,4.95-36.58,7.69c-7.38,1.66-14.6,4.19-22.04,5.33c-9.84,1.51-19.81,1.93-29.8,0.88
			c-6.8-0.71-13.63-1.07-20.44-1.66c-2.32-0.2-4.67-0.45-6.9-1.05c-5.93-1.58-11.42,0.51-17.02,1.77
			c-5.2,1.17-10.41,2.32-15.73,3.05c7.29-2.12,14.57-4.25,22.17-6.46c-32.91-7.87-56.51-10.67-92.37-4.64
			c17.48,4.74,34.82,10.33,52.79,12.72c18.03,2.4,36.26,3.27,54.45,5.2c-0.87,0.09-1.75,0.27-2.62,0.25
			c-11.15-0.29-22.33-0.26-33.45-1.03c-9.02-0.63-17.98-2.27-26.97-3.37c-2.23-0.27-4.52-0.36-6.76-0.22
			c-13.31,0.81-26.5-0.66-39.69-2.01c-9.09-0.94-18.11-2.66-27.21-3.44c-3.09-0.26-6.37,1.17-9.51,2.02
			c-14.96,4.08-30.08,7.41-45.49,9.19c-10.04,1.16-20.13,1.92-30.22,2.67c-6.81,0.51-13.64,0.89-20.46,0.94
			c-7.8,0.06-15.6-0.31-23.4-0.51c-0.46-0.01-0.92-0.14-1.39-0.61c42-0.17,83.66-2.87,124.49-14.83c-2.37-0.42-4.56-0.79-6.74-1.19
			c-2.2-0.4-4.44-0.69-6.59-1.28c-5.9-1.62-11.82-3.21-17.62-5.15c-2.21-0.74-4.09-0.65-6.23-0.05
			c-14.17,3.99-28.26,8.34-42.59,11.67c-9.97,2.32-20.24,3.63-30.46,4.59c-9.82,0.93-19.74,0.83-29.62,1.16
			c-0.87,0.03-1.74-0.09-2.61-0.68c17.74-1.05,35.47-1.78,52.94-5.07c17.48-3.29,34.47-8.39,52.23-13.96
			c-5.91-1.73-11.1-3.25-16.29-4.76c-0.66-0.19-1.37-0.25-2-0.51c-6.78-2.81-13.44-0.68-20.03,0.69
			c-16.5,3.43-32.9,7.39-49.46,10.52c-9.22,1.75-18.64,2.66-28.02,3.26c-9.76,0.62-19.59,0.78-29.37,0.44
			c-9.42-0.33-18.8-1.54-28.2-2.39c-5.59-0.51-11.18-1.07-16.76-1.61c-0.43-0.04-0.95,0.07-1.28-0.14c-0.65-0.4-1.19-0.97-1.77-1.47
			c0.67-0.25,1.37-0.78,2.01-0.71c6.81,0.68,13.6,1.58,20.41,2.18c8.81,0.78,17.63,1.47,26.45,1.94c5.19,0.28,10.41,0.05,15.82-0.27
			c-3.75-1.55-7.51-3.08-11.24-4.67c-12-5.13-24.63-7.9-37.47-9.75c-4.01-0.58-8.12-0.51-12.18-0.69c-1.65-0.07-3.3,0.05-4.95-0.04
			c-0.48-0.03-0.94-0.48-1.41-0.74c0.47-0.37,0.92-1.03,1.4-1.05c2.95-0.14,5.92-0.36,8.85-0.14c12.8,0.97,25.41,3.08,37.57,7.28
			c6.13,2.12,12.08,4.78,18.11,7.2c1.67,0.67,3.32,1.39,5.27,2.2c0-2.86,0-5.45,0-8.12c-5.92,3.05-8.85,2.12-12.48-3.65
			c-0.5-0.8-1.49-1.54-2.4-1.79c-10.29-2.87-20.5-6.16-30.96-8.26c-8.23-1.65-16.77-1.8-25.17-2.63C6,457,5.58,456.78,4.91,456.57
			c3.67-1.72,13.92-1.32,30.43,1.96c9.93,1.97,19.66,4.97,29.41,7.49c-0.22-0.64-0.9-1.72-0.92-2.82c-0.05-2.42,0.55-4.63,3.12-5.77
			c0.6-0.26,1.21-0.91,1.43-1.52c1.23-3.36,3.52-4.72,7.02-4.14c0.65,0.11,1.52,0.05,2.02-0.31c3.7-2.64,8.29-1.81,10.58,2.35
			c1.01,1.84,1.2,4.14,1.87,6.64c3.86,1.45,4.75,3.48,3.12,9c2.61,1.34,5.27,2.73,7.95,4.08c1.23,0.62,2.63,1.01,3.73,1.8
			c4.62,3.3,9.38,3.62,14.83,2.04c6.25-1.81,12.76-2.75,19.18-4.44c-20.28-11.64-41.37-21-64.22-25.89
			c-22.69-4.85-45.72-6.26-68.91-5.75c-0.01-0.29-0.01-0.58-0.02-0.87c0.42-0.16,0.84-0.47,1.26-0.47c9.1-0.1,18.23-0.61,27.31-0.16
			c34.44,1.7,67.16,9.97,97.53,26.66c3.19,1.75,6.36,3.53,9.56,5.27c0.49,0.26,1.12,0.58,1.6,0.48c8.82-1.81,17.63-3.67,26.49-5.78
			c-26.07-10.64-52.41-20.33-80.28-25.12c-27.71-4.77-55.62-6.79-84.04-5.61c0.99-1.67,0.99-1.67,8.88-2.64
			c-0.87-3.67-0.22-6.71,3.87-8.03c-4.11-4.55-2.76-8.21,4.05-10.99c-1.07-4.34-0.65-8.3,3.73-10.74c2.56-1.43,5.87-0.8,8.18,1.31
			c2.69,2.46,3.33,5.86,1.83,9.72c6.02,3.78,6.86,6.02,4.16,11.45c1.3,0.45,2.56,0.95,3.87,1.32c0.81,0.23,1.67,0.26,2.74,0.41
			c0-3.61,0.09-7.07-0.07-10.52c-0.04-0.75-0.91-1.54-1.55-2.16c-1.45-1.38-3.1-2.58-2.67-5c0.06-0.32-0.43-0.84-0.78-1.12
			c-3.99-3.17-3.93-5.71,0.27-8.49c-0.82-3.41-0.5-6.58,2.69-8.73c2.06-1.38,4.25-1.22,6.33,0.14c2.96,1.94,3.12,4.74,2.34,7.78
			c4.11,2.94,4.19,5.15,1.79,9.43c-1.39,2.48-2.69,4.58-5.29,5.83c-0.52,0.25-0.87,1.33-0.9,2.03c-0.1,3.03-0.04,6.06-0.04,9.38
			c4.41-0.6,1.58-4.21,3.24-6.48c4.87-2.41,10.34-5.13,16.43-8.15c0,3.36,0.01,6,0,8.64c-0.01,2.26,0.06,4.53-0.1,6.77
			c-0.17,2.32,0.39,3.88,3.28,3.87c0.06-0.6,0.17-1.24,0.17-1.88c0.01-21.63-0.01-43.27,0.01-64.9c0-0.97,0.26-1.94,0.4-2.91
			c0.43,0.03,0.86,0.06,1.29,0.09c0,1.89,0,3.78,0,5.67c0,20.94,0,41.88,0.01,62.82c0,1.78-0.17,3.72,2.87,3.26
			c0-23.57,0-47.23,0-71.08c1.91,0.51,3.61,0.96,5.31,1.41L81.24,363.16z M377.86,481.54c25.08,3.64,50.02,6.16,74.54-2.41
			c0-1.9,0.13-3.48-0.06-5.02c-0.09-0.71-0.66-1.5-1.24-1.98c-1.13-0.93-2.41-1.67-4.07-2.79c-0.13,0.01-0.9,0.08-1.67,0.17
			c-2.11,0.25-3.8-0.51-4.84-2.34c-0.96-1.69-0.9-3.33,0.26-5.1c0.55-0.83,0.21-2.24,0.29-3.55
			C418.81,464.19,398.41,473.05,377.86,481.54z M207.77,461.02c10.41,0.84,21.78,1.72,33.15,2.69c2.41,0.2,4.98,0.27,7.12,1.21
			c1.45,0.63,2.48,0.78,3.97,0.53c6.13-1.04,12.28-2.36,18.46-2.69c16.24-0.87,32.29,0.98,48.17,4.41c3.02,0.65,6.21,1.88,9.11,1.43
			c3.54-0.54,6.86-2.57,10.92-4.22C294.48,451.49,250.78,448.18,207.77,461.02z M243.07,209.91c0.3,1.31,0.43,2.16,0.68,2.98
			c2.59,8.33,11.65,14.79,20.43,15.24c11.14,0.57,20.29-8.48,22.74-14.91c0.82-2.16,0.9-3.79-2.01-4.28
			c-1.34-0.23-2.58-0.98-3.87-1.48c-4.19-1.62-6.54-4.71-7.24-9.08c-0.32-2.01-0.55-4.04-0.8-5.86c-2.59,0.74-5.05,1.96-7.53,2
			c-2.45,0.04-4.92-1.1-7.6-1.78C259.13,203.47,252.08,207.49,243.07,209.91z M196.1,175.36c2.21-0.63,1.73-2.04,1.17-3.34
			c-3.73-8.65-8.16-16.87-14.98-23.52c-12.64-12.34-26.92-22.57-41.73-32.09c-21.82-14.02-44.48-26.56-67.73-38.02
			c-7.98-3.93-16.34-7.07-24.57-10.48c-1.84-0.76-3.83-1.14-5.75-1.69c-0.12,0.21-0.23,0.42-0.35,0.64
			c0.71,0.83,1.29,1.84,2.16,2.44c3.61,2.53,7.05,5.52,11.02,7.3c22.08,9.91,43.5,21.06,64.4,33.23
			c14.43,8.4,29.5,15.63,43.22,25.32c11.54,8.15,21.54,17.38,27.85,30.21C192.46,168.75,194.33,172.04,196.1,175.36z M486.76,66.93
			c-1.1,0.12-1.47,0.08-1.78,0.2c-8.02,2.97-16.25,5.48-24,9.04c-21.61,9.91-42.34,21.52-62.68,33.82
			c-16.94,10.24-33.29,21.31-48.27,34.3c-8.61,7.46-15.19,16.36-19.12,27.14c-0.55,1.52-0.83,2.65,1.16,3
			c1.94-3.58,3.79-7.1,5.73-10.56c3.91-6.99,8.09-14.04,14.36-18.97c8.81-6.94,18.22-13.17,27.71-19.17
			c6.79-4.3,14.16-7.67,21.22-11.54c11.85-6.49,23.54-13.31,35.55-19.51c11.46-5.92,23.24-11.24,34.88-16.82
			C477.02,75.2,482.12,72.02,486.76,66.93z M324.19,470.5c-28.55-7.24-56.52-7.92-83.91-0.89c-0.23-0.09,0.23,0.15,0.72,0.27
			c7.78,1.83,15.6,3.49,23.32,5.52c3.01,0.79,5.8,0.96,8.84,0.3c4.28-0.93,8.63-1.75,12.99-2.04c10.63-0.72,21.29-1.06,31.93-1.69
			C319.96,471.85,321.81,471.09,324.19,470.5z M265.22,156.07c-3.17,4.1-6.05,7.84-9.08,11.76c1.97,0.75,3.72,1.41,5.46,2.07
			c-0.1,0.31-0.2,0.62-0.31,0.94c-1.61-0.2-3.21-0.51-4.83-0.55c-0.66-0.02-1.33,0.53-2,0.83c0.3,0.64,0.46,1.64,0.94,1.84
			c1.19,0.48,2.51,0.69,3.8,0.79c0.87,0.07,1.77-0.21,2.65-0.33c0.1,0.32,0.2,0.64,0.3,0.96c-0.95,0.6-1.87,1.64-2.85,1.69
			c-2.03,0.11-4.08-0.31-6.19-0.51c-1.51,5.9,3.68,14.7,10.1,16.49c1.18,0.33,2.55,0.27,3.78,0.08c6.42-0.98,11.36-9.25,11.49-14.48
			c0.02-1.05-0.43-2.11-0.74-3.49c-2.19,2.49-4.48,3.09-7.02,1.68c-0.69-0.38-1.05-1.34-1.88-2.47c2.25,0.32,3.75,0.89,5.08,0.61
			c1.34-0.28,3.37-0.74,2.58-3.36c-2.36,0-4.65,0-6.95,0c-0.07-0.3-0.14-0.6-0.21-0.89c2.03-0.59,4.05-1.18,6.64-1.94
			C272.32,163.78,268.94,160.1,265.22,156.07z M453.18,156.02c-2.82-1.08-4.09-0.85-7.19,0.64c-13.19,6.35-26.32,12.81-39.6,18.96
			c-8.33,3.86-17.2,5.6-26.42,5.51c-4.77-0.05-9.55-0.01-14.32-0.01c6.44,1.49,12.97,2.99,19.57,3.51
			c5.58,0.44,11.25-0.1,16.86-0.46c4.29-0.27,8.62-0.62,12.81-1.49c5.54-1.14,11.05-2.61,16.44-4.35c2.76-0.89,5.23-2.66,7.83-4.03
			c-0.11-0.33-0.21-0.67-0.32-1c-0.79-0.1-1.64-0.44-2.36-0.27c-4.01,0.98-8.03,1.96-11.97,3.17c-4.62,1.42-9.12,3.23-13.76,4.54
			c-2.04,0.58-4.3,0.34-6.47,0.48c-0.05-0.29-0.11-0.58-0.16-0.86C422.29,176.27,438.84,169.02,453.18,156.02z M75.45,156.3
			c0.25,0.43,0.36,0.77,0.59,0.97c2.11,1.93,4.11,4.02,6.39,5.74c12.01,9.09,25.57,14.8,40.17,18.21c0.83,0.19,1.58,0.74,2.36,1.12
			c-0.11,0.32-0.22,0.64-0.33,0.96c-1.92-0.28-3.93-0.3-5.75-0.9c-6.55-2.17-12.99-4.7-19.58-6.76c-3.08-0.97-6.4-1.2-9.61-1.77
			c-0.14,0.45-0.29,0.91-0.43,1.36c2.56,1.28,4.99,3.01,7.69,3.76c9.34,2.58,18.46,5.83,28.51,5.61c9.86-0.22,19.74,0.88,29.49-1.42
			c2.55-0.6,5.06-1.4,7.65-2.12c-6.16,0-12.17,0.52-18.05-0.13c-7.17-0.8-14.68-1.48-21.23-4.18c-13.82-5.69-27.16-12.59-40.6-19.18
			C80.35,156.44,78.21,155.69,75.45,156.3z M380,174.54c-0.1,0.25-0.2,0.5-0.3,0.74c2.51,1.17,5.19,3.59,7.5,3.28
			c6-0.8,11.99-2.4,17.71-4.44c5.86-2.08,11.49-4.87,17.05-7.7c10.26-5.24,20.47-10.57,30.5-16.22c3.18-1.79,5.77-4.67,8.53-7.15
			c0.47-0.42,0.47-1.35,0.69-2.05c-0.72-0.14-1.55-0.57-2.15-0.36c-2.75,0.95-5.48,1.97-8.13,3.18
			c-8.81,4.03-17.58,8.14-26.35,12.25c-0.91,0.43-1.81,0.96-2.59,1.58c-1.67,1.34-3.11,3.04-4.92,4.13
			C405.99,168.78,393.81,174.1,380,174.54z M146.14,175.27c-13.33-1.45-29.39-7.03-41.06-17.48c-0.37-0.33-0.86-0.56-1.34-0.71
			c-10.54-3.39-20.22-8.58-29.72-14.15c-2.23-1.31-4.56-2.5-7.86-0.69c2.78,2.52,5.19,5.1,7.98,7.17
			c12.13,9.01,25.81,15.2,39.5,21.37c7.76,3.5,15.53,6.76,24.14,7.51C141.14,178.58,143.58,176.87,146.14,175.27z M376.83,165.64
			c3.93-0.58,7.84-0.81,11.55-1.77c11.98-3.1,23.97-6.2,35.8-9.81c14.4-4.39,27.39-11.65,39.3-20.83c0.97-0.75,1.71-1.82,2.69-2.88
			c-3.92-0.82-5.79-0.37-10.2,2.01c-5.11,2.75-10.11,5.79-15.43,8.05c-12.41,5.27-24.98,10.17-37.51,15.17
			c-2.07,0.83-4.25,1.4-6.36,2.14C390.04,160.05,382.29,159.35,376.83,165.64z M62.04,130.84c1.26,1.27,2.09,2.33,3.14,3.12
			c12.68,9.51,26,17.69,41.7,21.42c9.63,2.29,19.11,5.24,28.68,7.79c5.43,1.45,10.89,2.86,16.69,1.87
			c-3.25-1.75-6.49-3.58-9.97-4.63c-4.18-1.26-8.7-1.43-12.81-2.83c-8.56-2.9-16.97-6.26-25.42-9.49
			c-11.1-4.24-21.79-9.34-32.08-15.3C69.13,131.15,66.11,129.99,62.04,130.84z M53.33,84.83c3.09,2.93,5.82,6.46,9.35,8.69
			c8.48,5.35,17.05,10.71,26.13,14.9c10.56,4.88,21.69,8.54,32.57,12.72c2.46,0.94,4.94,1.85,7.41,2.77
			C122.23,117.66,64.32,87.52,53.33,84.83z M399.96,123c0.94-0.31,1.89-0.59,2.82-0.93c4.75-1.77,9.46-3.68,14.26-5.31
			c16.26-5.52,32.21-11.66,46.73-21.06c4.42-2.86,7.66-6.77,10.89-10.88C448.65,95.4,424.01,108.56,399.96,123z M263.55,477.79
			c0.02-0.21,0.04-0.43,0.06-0.64c-8.23-1.81-16.44-3.7-24.69-5.4c-3.02-0.62-6.17-1.3-9.19-1.05c-3.91,0.32-7.75,1.52-11.61,2.37
			c-1.43,0.31-2.85,0.67-4.27,1.03c-1.31,0.34-2.61,0.71-3.91,1.07c0.01,0.26,0.01,0.52,0.02,0.79c8.3,1.91,16.57,4.01,24.93,5.66
			c4.12,0.81,8.2,2.4,12.65,0.84C252.77,480.61,258.2,479.32,263.55,477.79z M45.22,76.25c-0.2,0.52-0.4,1.04-0.6,1.56
			c2.61,1.4,5.14,3.02,7.86,4.16c3.98,1.67,8.25,2.68,12.13,4.53c22.05,10.52,43.85,21.57,64.58,34.52
			c9.58,5.99,19.82,10.22,30.2,14.37c-0.36-0.47-0.77-0.88-1.25-1.17c-5.77-3.49-11.47-7.12-17.35-10.41
			c-15.32-8.58-30.59-17.27-46.13-25.43c-12.87-6.75-26.06-12.91-39.22-19.09C52.25,77.79,48.63,77.23,45.22,76.25z M483.58,77.74
			c-0.17-0.42-0.35-0.84-0.52-1.25c-2.76,0.69-5.68,1.02-8.26,2.14c-8.02,3.49-16.09,6.93-23.82,11.01
			c-23.29,12.3-46.45,24.85-69.62,37.38c-4.06,2.2-7.91,4.77-11.86,7.17c0.12,0.23,0.24,0.45,0.35,0.68
			c6.86-2.92,13.86-5.57,20.54-8.87c4.86-2.4,9.18-5.88,13.95-8.48c12.91-7.05,25.78-14.18,38.95-20.72
			c10.75-5.34,21.93-9.81,32.86-14.78C478.76,80.85,481.12,79.18,483.58,77.74z M243.47,466.62c-20.04-3.94-40.01-3.37-60.57,0.21
			c1.08,0.51,1.52,0.8,2,0.94c6.76,2,13.52,3.99,20.29,5.93c0.67,0.19,1.49,0.11,2.19-0.05c5.09-1.2,10.13-2.66,15.26-3.64
			C229.55,468.69,236.53,467.73,243.47,466.62z M158.77,138.47c0.08-0.27,0.17-0.55,0.25-0.82c-27.86-10.7-55.73-21.4-83.71-32.14
			c-0.78,3,0.59,5.07,2.82,6.21c4.22,2.15,8.51,4.29,12.99,5.76c12.18,3.99,24.48,7.63,36.72,11.42
			C138.16,132.08,148.47,135.28,158.77,138.47z M453.24,105.13c-28.55,10.76-57.11,21.53-85.67,32.3c0.08,0.23,0.16,0.45,0.24,0.68
			c0.58-0.11,1.17-0.16,1.72-0.33c10.21-3.17,20.41-6.36,30.61-9.52c11.96-3.7,23.96-7.28,35.87-11.13
			c4.98-1.61,9.89-3.56,14.6-5.82C453.63,109.86,454.04,107.9,453.24,105.13z M188.52,197.38c-2.89-0.17-5.75-0.95-8.29-0.35
			c-4.44,1.04-8.94,2.43-12.97,4.54c-9.29,4.87-19.12,7.68-29.37,9.61c-5.46,1.03-10.67,3.34-15.99,5.07
			c0.06,0.24,0.12,0.48,0.17,0.72c7.3,1.48,14.61,2.19,21.82-0.53c7.2-2.71,14.36-5.54,21.5-8.39c3.06-1.22,6.06-2.61,9.09-3.92
			c-0.97-0.57-1.82-0.41-2.47-0.7c-0.65-0.29-1.1-1.03-1.63-1.57c0.67-0.18,1.35-0.55,2-0.5c1.37,0.1,2.72,0.41,4.08,0.67
			C181.34,202.94,184.77,200.05,188.52,197.38z M50.85,101.18c-0.17,0.2-0.33,0.41-0.5,0.61c1.62,3.7,4.3,6.55,7.5,8.97
			c8.69,6.56,18.87,10.11,28.81,14.12c2.9,1.17,5.9,2.11,8.85,3.15c0-0.93-0.24-1.41-0.62-1.62c-3.35-1.89-6.52-3.94-8.19-7.65
			c-0.21-0.46-0.92-0.75-1.44-1.02c-6.29-3.24-12.54-6.58-18.92-9.67C61.25,105.62,56.02,103.47,50.85,101.18z M249.39,483.95
			c19.53,3.06,38.99,5.22,58.63,5.25c-10.18-2.95-20.46-5.38-30.56-8.42c-5.84-1.76-11.33-2.05-17.08,0.04
			C256.81,482.13,253.06,482.93,249.39,483.95z M432.46,127.05c0.15,0.17,0.29,0.34,0.44,0.52c1.12-0.43,2.25-0.81,3.35-1.28
			c9.99-4.33,20.14-8.35,29.9-13.15c5.02-2.46,9.65-6.01,12.33-12.4c-5.32,2.2-10.09,3.95-14.66,6.12
			c-6.87,3.28-13.6,6.86-20.37,10.33c-0.42,0.22-0.89,0.6-1.07,1.02c-1.53,3.5-4.61,5.28-7.65,7.14
			C433.93,125.85,433.22,126.49,432.46,127.05z M407.45,216.12c-2.78-1.01-5.06-1.92-7.39-2.65c-2.53-0.8-5.1-1.53-7.69-2.12
			c-9.93-2.25-19.99-4.08-28.75-9.81c-1.76-1.15-3.76-1.94-5.57-2.85c0.12,1.28,0.64,2.58,0.2,3.17c-0.58,0.79-1.91,1.03-3.32,1.7
			c10.78,4.38,21.19,8.9,31.81,12.83C393.39,218.85,400.28,217.99,407.45,216.12z M179.26,195.48c-2.6-1.94-4.68-2.3-7.19-0.7
			c-3.15,2.01-6.66,3.02-10.51,3.15c-1.95,0.06-3.89,1.08-5.79,1.82c-2.64,1.02-5.13,2.55-7.84,3.2
			c-10.99,2.63-22.2,3.36-33.47,3.23c-0.86-0.01-1.72,0-2.58,0c-0.03,0.4-0.07,0.8-0.1,1.19c5.34,0.98,10.68,2.72,16.03,2.76
			c9.06,0.07,17.96-2.03,26.55-4.89c6.19-2.06,12.15-4.81,18.22-7.23C174.68,197.18,176.82,196.41,179.26,195.48z M349.92,194.86
			c2.87,1.06,5.4,2.04,7.95,2.94c2.58,0.91,5.37,1.4,7.76,2.67c5.3,2.81,10.71,5.12,16.56,6.56c8.97,2.2,17.94,3.64,27.13,1.73
			c2.67-0.55,5.27-1.42,7.91-2.15c-8.38-1.05-16.58-1.3-24.72-2.11c-7.11-0.7-14.26-1.7-20.22-6.34c-0.68-0.53-1.79-0.92-2.61-0.8
			c-5.19,0.79-9.76-1.01-14.1-3.4C353.55,192.85,352.05,193.08,349.92,194.86z M371.86,170.94c3.64,2.43,7.75,2.18,11.78,1.67
			c9.17-1.15,17.75-4.27,25.93-8.51c3.49-1.81,6.85-3.89,10.27-5.84c-0.12-0.28-0.24-0.57-0.36-0.85
			c-7.64,2.16-15.26,4.41-22.93,6.45c-7.75,2.06-15.59,3.72-23.77,3.18c-0.06,0.9-0.01,1.51-0.15,2.08
			C372.46,169.74,372.13,170.32,371.86,170.94z M108.09,157.83c0.07,0.15,0.09,0.35,0.2,0.45c0.25,0.24,0.53,0.44,0.81,0.64
			c10.42,7.14,21.76,12,34.31,13.86c4.15,0.61,8.25,0.97,11.88-2.11c-0.34-1-0.7-2.05-1.07-3.12
			C138.04,167.84,123.48,160.89,108.09,157.83z M439.71,118.62c-0.41,0.05-0.84,0.04-1.23,0.15c-9.6,2.77-19.23,5.44-28.78,8.38
			c-7.56,2.32-15.01,4.99-22.52,7.48c-1.9,0.63-2.71,1.86-2.3,4.27c11.13-3.26,22.09-6.42,33.01-9.71c4.87-1.47,9.71-3.1,14.47-4.88
			C435.3,123.2,437.83,121.33,439.71,118.62z M101.4,191.65c5.84,8.05,35.07,9.26,45.54,2.66
			C132.45,189.97,117.01,192.73,101.4,191.65z M105.83,138.2c0.2-0.35,0.39-0.71,0.59-1.06c-4.58-2.56-9.02-5.43-13.78-7.6
			c-7.71-3.51-15.6-6.61-23.46-9.76c-3.94-1.58-8-2.89-12-4.32c-0.13,0.29-0.27,0.58-0.4,0.87c2.2,3.67,5.08,6.72,9.1,8.39
			c2.61,1.09,5.45,1.6,8.14,2.52C84.64,130.86,95.23,134.54,105.83,138.2z M117.77,150.35c-3.36-3.63-6.24-6.77-9.17-9.86
			c-0.32-0.33-0.95-0.36-1.45-0.52c-11.24-3.65-22.48-7.3-33.73-10.94c-1.31-0.42-2.62-0.83-3.94-1.24
			C84.13,138.2,100.17,145.34,117.77,150.35z M459.7,127.63c-0.12-0.27-0.25-0.54-0.37-0.81c-1.04,0.37-2.08,0.75-3.13,1.11
			c-10.64,3.6-21.25,7.31-31.96,10.69c-2.54,0.8-4.76,1.31-6.18,3.91c-0.73,1.33-2.48,2.07-3.7,3.17c-0.84,0.76-1.56,1.67-2.33,2.51
			c0.22,0.26,0.44,0.53,0.65,0.79C429.28,143.89,445.18,137.28,459.7,127.63z M90.05,119.42c-0.11,0.21-0.21,0.41-0.32,0.62
			c2.6,2.68,5.73,4.59,9.24,5.89c13.76,5.11,27.86,9.05,42.12,12.47c0.63,0.15,1.41-0.29,2.11-0.46c-0.48-0.74-0.81-1.92-1.47-2.14
			c-14.24-4.7-28.5-9.31-42.78-13.89C96.02,120.98,93.02,120.25,90.05,119.42z M471.24,115.57c-9.61,1.66-17.35,6.53-25.83,9.31
			c-8.55,2.81-16.37,6.92-23.47,12.54c13.85-4.51,27.65-9.22,41.4-14.03C466.84,122.17,469.22,119.58,471.24,115.57z M214.54,174.48
			c1.66-3.62,4.14-6.27,7.77-6.58c2.89-0.24,6,0.44,8.81,1.34c5.07,1.63,9.83,1.27,14.05-1.83c2.97-2.18,5.59-4.91,8.1-7.63
			c2.83-3.07,5.5-6.24,9.71-7.49c0.3-0.09,0.48-0.61,0.91-1.2c-3.08-1.21-5.82-0.53-7.96,1.09c-2.78,2.12-5.19,4.76-7.59,7.34
			c-2.65,2.86-4.98,6.32-9.24,6.63c-2.67,0.19-5.47-0.26-8.09-0.92c-3.47-0.87-6.83-1.93-10.41-0.71
			C216.17,166.01,212.71,170.83,214.54,174.48z M426.61,192.14c-0.14-0.32-0.27-0.63-0.41-0.95c-14.2,1.07-28.6-1.2-42.81,3.04
			c3.98,0.98,7.84,2.1,11.77,2.85c8.28,1.59,16.55,1.79,24.57-1.32C422.13,194.83,424.32,193.36,426.61,192.14z M247.88,186.49
			c-1.84,4.26-4.92,7.27-8.97,9.34c-2.31,1.18-4.72,2.16-6.99,3.4c-5.45,2.98-10.96,5.89-16.22,9.17
			c-4.45,2.78-6.74,9.93-4.35,15.61c0.29-0.92,0.56-1.73,0.79-2.54c2.11-7.44,7-12.41,13.97-15.37c3.33-1.41,6.83-2.39,10.24-3.61
			C244.07,199.7,248.34,193.89,247.88,186.49z M360.38,186.06c8.77,7.34,36.33,7.55,42.4,0.34c-1.58,0-3.14-0.05-4.7,0.01
			c-9.26,0.32-18.53,0.48-27.54-2.18c-3-0.88-5.79-1.54-8.29,1.09C361.83,185.75,361.03,185.81,360.38,186.06z M126.72,186.75
			c-0.03,0.15-0.06,0.3-0.09,0.45c0.45,0.24,0.88,0.54,1.35,0.72c8.53,3.4,17.41,4.71,26.47,3.43c4.12-0.58,8.08-2.33,12.07-3.68
			c0.5-0.17,1.14-1.15,1.05-1.63c-0.19-1.05-4.73-3.02-5.82-2.7c-7.74,2.28-15.63,3.54-23.72,3.42
			C134.26,186.7,130.49,186.75,126.72,186.75z M287.14,180.92c0.66,3.75,3.16,7.18,6.85,9.17c6.88,3.7,13.5,2.16,20.12-0.88
			c1.66-0.76,3.62-1.28,5.41-1.22c1.97,0.07,3.56,1.29,3.69,3.61c0.15,2.75-1.4,3.73-5.3,3.31c1.39,1.98,3.06,2.76,5.39,2.01
			c2.35-0.76,3.57-2.24,3.61-4.75c0.06-3.54-2.22-5.52-4.85-7.14c-2.32-1.44-4.74-1.27-7.08,0.19c-6.71,4.15-13.49,4.32-20.32,0.3
			C292.1,183.98,289.56,182.4,287.14,180.92z M247.97,177.59c-2.67,2.35-5.08,4.9-7.89,6.87c-4.98,3.49-10.51,5.83-16.75,4.35
			c-2.81-0.67-5.44-2.14-8.13-3.29c-5.35-2.3-10.32-0.53-11.72,4.25c-0.68,2.31-0.39,4.6,1.45,6.22c0.92,0.81,2.42,0.96,3.65,1.41
			c0.1-0.24,0.2-0.47,0.3-0.71c-0.37-0.56-0.76-1.11-1.12-1.67c-1.54-2.47-1.13-4.66,1.19-6.33c1.98-1.42,4.03-0.9,5.85,0.17
			c3.45,2.03,7.18,2.91,11.09,3.19C234.76,192.67,245.17,189.22,247.97,177.59z M107.16,479.38c0.02-0.24,0.04-0.49,0.06-0.73
			c-4.65-2.21-9.29-4.44-13.98-6.57c-0.53-0.24-1.59-0.13-1.98,0.25c-3.18,3.11-6.79,4.6-11.23,3.43c0,2.06,0,4.06,0,6.19
			C89.33,482.03,98.32,481.46,107.16,479.38z M309.06,193.96c0.9,1.28,1.45,2.7,2.49,3.42c3.16,2.21,6.4,4.36,9.81,6.13
			c4.55,2.36,8.4,5.38,8.7,10.75c0.18,3.22-0.87,6.55-1.65,9.77c-0.49,2.03-1.52,3.92-2.31,5.88c4.63-2.59,7.13-6.39,8.21-11.39
			c1.64-7.63-2.07-14.71-9.61-16.43c-5.52-1.26-9.32-3.84-10.79-9.43c-0.06-0.22-0.3-0.4-0.52-0.67
			C312.05,192.6,310.73,193.2,309.06,193.96z M147.35,217.2c0.08,0.25,0.17,0.51,0.25,0.76c4.6,1.13,9.19,0.74,13.55-0.78
			c5.04-1.75,9.87-4.11,14.86-6c3.39-1.28,5.32-3.37,5.04-7.65C169.72,208.14,158.53,212.67,147.35,217.2z M370.5,243.49
			c0.08-0.31,0.17-0.62,0.25-0.94c-5.52-2.96-10.31-6.97-16.63-8.82c-6.71-1.97-13-5.4-19.56-8.24c-0.7,0.98-1.64,2.3-2.74,3.83
			c10.09,4.16,19.98,8.35,29.98,12.26C364.53,242.65,367.59,242.88,370.5,243.49z M380.92,217.09
			c-10.9-4.81-21.46-10.37-33.24-14.08c1.09,4.95,1.09,4.95,4.65,6.87c1.68,0.9,3.37,1.78,5.01,2.76
			C364.59,216.98,372.44,218.44,380.92,217.09z M263.53,154.94c-0.15-0.17-0.3-0.35-0.45-0.52c-1.35,0.87-2.88,1.54-4.01,2.64
			c-2.67,2.59-5.15,5.39-7.72,8.09c-6.02,6.33-12.95,9.42-21.71,6.16c-1.21-0.45-2.48-0.72-3.75-0.99
			c-4.44-0.96-8.81,1.98-9.61,6.76c2.88-4.02,6.54-3.77,10.44-2.76c2.5,0.65,5.05,1.45,7.6,1.53c8.19,0.27,14.69-3.48,19.98-9.39
			C257.58,162.79,260.47,158.79,263.53,154.94z M158.92,243.2c0.11,0.26,0.22,0.53,0.33,0.79c3.65-1,7.44-1.63,10.91-3.06
			c9.21-3.79,18.27-7.91,27.44-11.92c-0.9-1.2-1.92-2.57-2.91-3.89c-7.42,3.21-14.14,7.58-22,9.8c-4.67,1.32-8.74,4.79-13.06,7.33
			C159.31,242.43,159.15,242.88,158.92,243.2z M144.71,178.99c10.39,1.06,20.04-0.73,30.27-2.59c-2.83-2.3-6.79-2.73-6.46-6.97
			C159.5,170.4,152.21,174.41,144.71,178.99z M315.25,174.61c0.99-2.47,0.74-4.17-1.03-6.31c-4.31-5.24-10.56-5.66-15.61-1.05
			c-4.4,4.01-9.26,4.77-14.18,1.48c-3.02-2.02-5.63-4.77-8.11-7.47c-2.06-2.24-4.46-3.6-6.99-4.68c3.24,3.81,6.28,7.81,9.78,11.35
			c3.75,3.8,8.39,6.45,13.94,5.23c2.84-0.62,5.46-2.43,8.07-3.89c3.85-2.14,6.88-2.01,10.18,0.93
			C312.75,171.5,313.92,173.11,315.25,174.61z M319.66,225.31c3.08-6.56,1.08-11.92-4.13-15.99c-4.55-3.55-9.52-6.49-15.3-7.97
			c-3.61-0.93-7.26-2.31-10.39-4.29c-2.17-1.38-3.49-4.11-5.3-6.39c0.74,5.41,3.65,9.08,8.42,11.21c2.9,1.29,6.03,2.09,8.99,3.26
			C311.28,208.84,318.06,214.81,319.66,225.31z M382.69,178.9c-7.97-4.06-14.87-8.8-23.56-9.69c0.62,4.56-4.21,4.39-5.78,6.79
			C362.74,178.42,372.28,179.47,382.69,178.9z M429.6,128.36c-1.27,0.19-2.21,0.22-3.09,0.47c-6.12,1.76-12.21,3.57-18.32,5.34
			c-5.75,1.67-6.08,1.96-8.43,7.74C415.51,138.47,427.76,133.08,429.6,128.36z M98.4,128.78c6.99,7.43,20.75,13.38,30.43,13.81
			c-0.93-1.71-1.86-3.53-2.89-5.28c-0.26-0.45-0.82-0.85-1.32-1.01c-7.57-2.36-15.15-4.7-22.74-6.98
			C100.76,128.98,99.56,128.95,98.4,128.78z M367.65,157.03c10.21-1.56,20.32-2.41,26.64-11.8c-3.82,0.38-7.52,1.12-11.24,1.76
			c-3.81,0.66-7.94,0.62-9.6,5.27c-0.23,0.63-1.14,1.02-1.75,1.51C370.45,154.79,369.18,155.8,367.65,157.03z M373.43,149.23
			c-1.02-0.09-1.47-0.24-1.86-0.14c-8.23,1.99-16.47,3.91-24.64,6.13c-1.38,0.38-2.41,2.07-3.75,3.29
			C354.17,157.85,365.3,159.11,373.43,149.23z M334.5,232.99c1.11,1.99,1.92,3.47,2.76,4.93c0.57,1,0.96,2.25,1.81,2.91
			c2.65,2.08,5.4,4.05,8.24,5.86c2.92,1.86,5.95,3.57,9.78,3.89c-0.29-0.62-0.4-0.95-0.59-1.22c-0.29-0.42-0.62-0.83-0.98-1.2
			c-6.61-6.87-14.34-12.17-22.8-16.51c-2.06-1.06-3.48-0.6-5.18,1.4c1.55,1.28,2.99,2.45,4.53,3.72
			C332.89,235.51,333.4,234.72,334.5,232.99z M160.47,156.91c-1.99-1.75-4.78-3.13-5.76-5.33c-1.38-3.11-3.84-3.14-6.23-3.77
			c-1.9-0.51-3.88-0.75-5.83-1.06c-2.63-0.42-5.27-0.79-7.91-1.18c-0.13,0.26-0.25,0.53-0.38,0.79c1.76,1.6,3.36,3.45,5.32,4.76
			C145.94,155.31,153.18,156.21,160.47,156.91z M226.85,216.64c-0.32-0.24-0.65-0.49-0.97-0.73c-2.82,3.78-5.68,7.54-8.44,11.36
			c-2.23,3.08-3.99,6.58-6.61,9.26c-1.95,1.99-4.79,3.39-7.49,4.28c-2.83,0.94-5.73,0.21-7.98-2.27c0.7,1.4,1.48,2.76,2.64,3.59
			c4.33,3.11,11.96,1.96,14.99-2.44c3.58-5.2,6.87-10.6,10.17-15.98C224.54,221.44,225.63,219,226.85,216.64z M128.53,225.74
			c9.29,3.18,22.38-0.24,28.46-5.48c-0.79,0-1.37,0.02-1.95,0c-3.58-0.17-7.27,0.68-10.66-1.28c-0.4-0.23-1.19-0.04-1.69,0.19
			C138.18,221.23,133.69,223.34,128.53,225.74z M49.38,88.69c-0.22,0.27-0.45,0.54-0.67,0.81c6.71,8.28,15.73,13.77,24.58,20.08
			c0-2.48,0-4.4,0-6.88C65.6,98.2,57.49,93.45,49.38,88.69z M330.43,238.38c-1.1-0.74-2.05-1.31-2.92-1.97
			c-3.91-2.97-4.69-6.23-2.64-10.72c0.72-1.57,1.51-3.12,2.07-4.75c2.75-8.11-2.24-14.81-10-13.49c7.27,7.29,8.15,10.9,4.72,19.31
			C319.32,232.49,323.95,238.81,330.43,238.38z M155.72,148.82c0.25,1.01,0.25,1.28,0.38,1.49c0.22,0.37,0.47,0.73,0.77,1.03
			c3.92,3.77,8.57,6.2,13.96,6.85c4.47,0.54,9,0.63,14.28,0.98C176.31,151.91,165.55,152.45,155.72,148.82z M370.33,169.57
			c-0.21-1.02-0.19-1.23-0.29-1.34c-0.28-0.32-0.55-0.68-0.91-0.89c-6.13-3.64-12.6-6.48-19.69-7.46
			c-4.09-0.57-9.35,3.05-10.65,6.93c1.14-0.41,2.15-0.8,3.18-1.15c4.28-1.44,8.51-1.6,12.92-0.19
			C359.82,167.05,364.91,168.15,370.33,169.57z M199.65,230.1c-10.75,5.06-19.78,11.65-26.85,20.88c2.94-0.95,5.75-2.14,8.31-3.73
			c3.22-2,6.14-4.5,9.39-6.46c1.61-0.98,2.46-2.03,2.94-3.84c0.86-3.3,2.58-4.2,5.91-3.7c0.64,0.1,1.34-0.16,2.13-0.28
			c-0.24-0.65-0.29-0.92-0.43-1.11C200.63,231.29,200.18,230.76,199.65,230.1z M334.65,239.52c-1.54,0.52-3.09,1.4-4.7,1.51
			c-4.9,0.34-8.58-2.31-10.83-7.63c-2.81-6.63-6.72-12.33-13.49-16.35c0.39,0.72,0.53,1,0.69,1.28c3.67,6.45,7.38,12.88,11,19.36
			c1.48,2.66,3.69,4.36,6.49,5.29C328.16,244.42,333.17,242.66,334.65,239.52z M479.95,89.19c-0.8,0-0.89-0.03-0.95,0
			c-7.55,4.38-15.09,8.74-22.61,13.17c-0.39,0.23-0.7,0.95-0.69,1.43c0.04,1.58,0.25,3.16,0.41,4.94
			C464.83,103.34,473.34,97.83,479.95,89.19z M400.17,225c-3.84-1.9-7.19-3.65-10.61-5.23c-2.39-1.1-4.71-1.51-7.52-0.66
			c-2.9,0.88-6.16,0.58-9.33,0.81C381.17,224.75,389.75,228.33,400.17,225z M286.24,186.52c1.94,5.75,5.11,10.17,11.38,11.8
			c3.81,0.99,7.68,2.08,11.17,3.83c3.05,1.52,5.95,2.83,9.1,2.62c-2.24-1.44-5.24-2.55-6.98-4.68c-3.12-3.83-6.33-6.56-11.57-5.55
			c-0.15,0.03-0.32-0.12-0.49-0.15C293.68,193.33,289.39,190.87,286.24,186.52z M188.59,166.52c-1.57-5.21-7.31-6.85-11.26-5.82
			c-6.54,1.71-12.81,4.44-19.17,6.83c-0.6,0.23-0.99,1.02-1.48,1.55c0.15,0.27,0.3,0.54,0.45,0.81c5.38-1.35,10.81-2.52,16.12-4.12
			c4.07-1.23,8.02-2.03,12.12-0.39C186.39,165.78,187.43,166.11,188.59,166.52z M334.93,174.54c1.09-0.39,1.8-0.61,2.48-0.89
			c3.29-1.39,6.67-2.34,10.28-1.88c1.7,0.22,3.43,0.99,5.06,0.8c1.43-0.16,2.75-1.32,4.12-2.03c-0.78-1-1.35-2.37-2.36-2.95
			c-4.76-2.71-9.48-1.32-14.1,0.58C337.74,169.27,335.72,171.04,334.93,174.54z M147.03,141.6c0.92,3.09,3.17,4.43,6.01,5.06
			c5.69,1.26,11.4,2.45,17.07,3.81c3.31,0.79,6.57,1.84,9.85,2.78c-0.53-1.18-1.3-1.96-2.2-2.51c-6.21-3.81-13.33-4.85-20.22-6.59
			C154.06,143.28,150.58,142.46,147.03,141.6z M380.06,141.36c-0.82,0.06-1.42,0-1.97,0.16c-8.09,2.3-16.21,4.51-24.24,7.04
			c-2.26,0.71-4.22,2.37-6.32,3.6c0.12,0.23,0.25,0.47,0.37,0.7c1.62-0.48,3.23-1.02,4.87-1.42c7.26-1.76,14.52-3.53,21.8-5.18
			C377.32,145.63,378.79,143.85,380.06,141.36z M408.82,149.67c-0.2-0.4-0.4-0.8-0.6-1.2c-10.17,2.96-20.33,5.92-30.5,8.88
			c-0.05,0.21-0.1,0.42-0.16,0.63c1.66,0.32,3.44,1.19,4.96,0.86c6.35-1.4,12.69-2.94,18.88-4.9
			C404.06,153.1,406.36,151.13,408.82,149.67z M235.08,193.94c-2.88,0.3-5.09,0.47-7.28,0.81c-0.76,0.12-1.71,0.45-2.15,1.01
			c-3.42,4.42-7.72,7.56-12.82,9.85c-2.13,0.96-4.19,2.52-5.71,4.3c-3.72,4.37-3.07,10.71,1.17,13.83c-0.04-0.42-0.04-0.75-0.1-1.07
			c-1.17-7.13,1.18-12.86,7.17-16.84c4.45-2.96,9.15-5.55,13.75-8.31C230.94,196.42,232.78,195.32,235.08,193.94z M368.47,220.26
			c-6.77-3.38-13.42-6.69-20-9.98c-0.6,1.61-1.16,3.1-1.72,4.59C352.99,219.27,364,223.33,368.47,220.26z M416.81,140.44
			c-0.51,0-1.03-0.09-1.52,0.01c-3.85,0.85-7.67,1.84-11.54,2.57c-6.14,1.17-7.68,2.2-11.02,7.94
			C401.09,148.2,410.33,147.74,416.81,140.44z M191.81,173.79c0.18-0.19,0.36-0.37,0.54-0.56c-1.26-1.37-2.34-3-3.82-4.07
			c-4.89-3.56-10.19-3.86-15.6-1.23c-0.92,0.45-1.6,1.4-2.39,2.11c0.83,0.82,1.55,1.85,2.53,2.39c0.73,0.4,1.93,0.48,2.73,0.17
			C181.32,170.49,186.62,171.13,191.81,173.79z M285.16,175.3c1.57,1.04,3.04,2.29,4.73,3.08c3.55,1.66,7.45,2.11,10.53-0.54
			c3.8-3.26,7.49-4.95,12.44-1.84c-2.71-5.45-6.87-6.7-11.79-3.66C296.13,175.39,291.14,177.51,285.16,175.3z M316.41,178.44
			c3.95,0.8,7.95,1.38,11.81,2.47c4.11,1.16,6.74,4.06,7.76,8.92c0.77-7.26-4.42-14.36-10.72-15.44
			C321.21,173.69,316.93,175.85,316.41,178.44z M246.05,176.09c-10.16,2.88-10.15,2.86-21.44,0.45c-2.01-0.43-4.09-0.35-5.45,1.45
			c-0.62,0.82-0.7,2.05-1.02,3.09c1.04,0.26,2.08,0.74,3.11,0.73c2.82-0.04,5.66-0.64,8.43-0.4
			C235.76,181.92,241.18,180.84,246.05,176.09z M136.4,151.5c-1.27-1.48-2.36-2.5-3.14-3.72c-1.09-1.7-2.43-2.77-4.46-3.14
			c-3.21-0.59-6.39-1.31-9.57-2.03c-2.33-0.53-4.63-1.15-7.66-1.91C118.27,148.91,127.54,148.98,136.4,151.5z M184.37,216.81
			c-2.1,1.07-3.8,2.15-5.64,2.83c-3.62,1.35-7.34,2.45-10.99,3.73c-0.57,0.2-1.01,0.77-1.51,1.16c0.47,0.44,0.89,1.18,1.42,1.27
			c1.68,0.27,3.55,0.8,5.07,0.33c5.35-1.66,10.57-3.7,16.36-5.77C187.01,218.8,185.64,217.77,184.37,216.81z M180.16,211.25
			c-6.12,2.88-12.1,5.69-18.43,8.66c5.2,2.42,15.17,0.18,20.65-4.27C181.66,214.22,180.93,212.77,180.16,211.25z M379.49,161.48
			c-0.07-0.34-0.14-0.68-0.21-1.01c-7-3.05-14.19-1.9-21.59-0.67c4.34,1.95,8.48,3.81,12.62,5.67c0.21,0.09,0.51,0.25,0.67,0.18
			C373.82,164.28,376.65,162.88,379.49,161.48z M148.74,156.83c-9.21-2.38-18.42-4.76-27.62-7.13
			C125.37,155.83,142.91,160.28,148.74,156.83z M213.98,227.16c0.23,0.01,0.46,0.02,0.7,0.04c0.54-1.26,1.01-2.55,1.63-3.77
			c1.29-2.52,2.45-5.15,4.05-7.48c3.36-4.91,8.6-7.01,14.02-8.76c4.38-1.41,8.72-3,11.98-6.41c1.28-1.34,2.07-3.14,3.42-5.25
			c-2.81,2.53-4.74,5.05-7.29,6.4c-4.08,2.15-8.54,3.6-12.89,5.21c-8.15,3.02-14.09,8.02-15.59,17.06
			C213.84,225.17,213.98,226.17,213.98,227.16z M148.24,160.82c1.94,1.04,3.48,2,5.12,2.71c1.46,0.63,3.21,1.66,4.54,1.33
			c4.1-1.02,8.06-2.61,12.41-4.09C163.41,158.05,153.57,158.05,148.24,160.82z M203.1,211.03c-0.39-0.06-0.78-0.13-1.17-0.19
			c-0.68,2.67-1.7,5.3-1.97,8.01c-0.41,4.11,3.15,5.81,5.65,8.14c0.79,0.73,1.53,1.9,1.63,2.93c0.27,2.87-1.47,5.36-4.03,6.32
			c-2.49,0.93-4.3,0.11-5.34-2.4c-1.31,1.7-0.68,2.73,0.62,3.67c3.47,2.52,9.01,0.61,11.53-4.01c1.37-2.52,1.17-3.85-1.11-5.54
			C203.1,223.66,200.17,218.41,203.1,211.03z M213.59,178.7c-3.63-4.64-9.41-5.07-12.68-3.65c-4.65,2.01-7.63,8.26-6.54,13.73
			c0.5,2.51,2.44,4.38,4.75,4.47c-2.39-3.93-3.8-8.01-0.72-12.07C202.38,175.95,207.77,177.13,213.59,178.7z M363.48,224.19
			c-1.18-0.47-2.11-0.82-3.03-1.21c-4.45-1.87-8.97-3.6-13.33-5.68c-3.07-1.46-3.77-1.38-5.43,2.41c4.84,2.01,9.63,4.17,14.54,5.97
			C358.65,226.57,361.14,226.07,363.48,224.19z M382.15,234.81c0.11-0.28,0.22-0.56,0.33-0.84c-4.25-2.23-8.55-4.39-12.75-6.71
			c-2.53-1.4-4.87-2.57-7.34,0.1c-0.49,0.53-1.46,0.61-2.5,1C367.27,231.46,374.21,234.88,382.15,234.81z M169.88,228.51
			c-1.51-0.62-3.25-1.44-5.06-2.03c-0.78-0.26-1.87-0.35-2.55-0.01c-4.63,2.35-9.19,4.82-13.75,7.3c-0.59,0.32-1.04,0.9-1.56,1.36
			C155.54,235,162.84,231.32,169.88,228.51z M428.38,181.4c-5.5,1.3-10.95,3-16.53,3.75c-3.85,0.52-6.6,2.42-9.41,4.88
			c4.67-0.35,9.27-0.97,13.79-1.95C420.87,187.06,424.88,184.68,428.38,181.4z M399.8,136.86c-0.85,0.07-1.36,0.03-1.84,0.15
			c-3.82,0.97-7.63,2-11.46,2.95c-3.17,0.79-5.49,2.57-6.98,5.67c2.22-0.35,4.28-0.54,6.27-1.03c3.48-0.85,7-1.66,10.34-2.9
			C397.98,141.02,399.75,139.67,399.8,136.86z M235.29,164.2c2.96,0.74,5.19,0.02,6.97-1.63c1.88-1.75,3.62-3.7,5.17-5.75
			c2.55-3.39,5.48-6.28,9.52-7.71c2.04-0.72,4.25-0.94,7.03-1.51c-1.09-0.44-1.58-0.76-2.1-0.83c-8.24-1.22-14.48,2.3-17.44,10.08
			C242.87,160.96,240.08,163.34,235.29,164.2z M344.1,213.74c3.83-3.96,2.64-10.41-2.92-14.38c-4.97-3.54-10.86-4.21-12.69-1.3
			C337.66,199.77,342.92,201.91,344.1,213.74z M185.08,214.93c-0.68-5.38,0.8-9.5,4.61-12.52c3.69-2.93,8.24-3.46,12.88-4.02
			c-1.2-0.79-2.48-1.63-3.68-1.54c-5.75,0.45-11.06,2.18-14.7,6.98C182.02,206.69,181.17,210.88,185.08,214.93z M199.7,203.72
			c0.1,0.18,0.19,0.35,0.29,0.53c4.22-0.76,8.5-1.31,12.66-2.33c4.36-1.07,8.07-3.3,10.35-7.47c-1.92-0.47-3.63-0.89-5.14-1.26
			c-0.67,0.94-1.16,1.72-1.74,2.43c-2.5,3.01-6.07,4.11-9.57,5.37C204.24,201.82,201.98,202.8,199.7,203.72z M147.15,145.81
			c-1.45-3.07-3.52-4.8-6.65-5.46c-4.12-0.87-8.15-2.19-12.44-3.38c0.93,3.39,2.96,5.34,6.04,6.06
			C138.43,144.05,142.8,144.89,147.15,145.81z M314.82,219.71c0.22-0.18,0.44-0.35,0.65-0.53c-2.27-2.53-4.38-5.25-6.86-7.56
			c-3.99-3.73-9.29-4.81-14.27-6.5c-6.02-2.04-10.48-5.62-12.02-12.12c-0.09-0.36-0.41-0.67-0.62-1c-0.12,1.65,0.08,3.18,0.53,4.63
			c1.62,5.3,5.97,7.66,10.68,9.43c6.32,2.38,12.85,4.29,17.66,9.47C311.92,216.99,313.4,218.32,314.82,219.71z M207.07,205.14
			c-0.68,0-1.02-0.02-1.35,0c-7.26,0.49-11.01,4.77-10.6,11.25c0.4,6.46,3.76,10.69,9.21,13.68c-0.61-1.02-1.34-1.97-2.27-2.66
			c-2.31-1.71-4.24-3.75-4.5-6.69c-0.45-5.18,0.69-9.83,5.36-12.95C204.19,206.95,205.49,206.15,207.07,205.14z M194.57,193.95
			c-3.48-4.63-10.81-5.37-16.91-1.75C183.03,195.39,188.51,196.55,194.57,193.95z M355.39,191.91c8.13,4.19,13.16,5.28,17.2,2.17
			c-3.84-1.62-7.92-3.39-12.05-5.04c-0.64-0.26-1.67-0.28-2.19,0.08C357.26,189.87,356.39,190.94,355.39,191.91z M100.84,182.38
			c7.06,5.25,14.87,8.07,23.98,7.07c-0.22-0.44-0.26-0.61-0.36-0.73c-2.12-2.42-5.08-2.07-7.87-2.6
			C111.29,185.1,106.08,183.65,100.84,182.38z M173.88,191.98c-1.32-0.72-2.29-1.29-3.29-1.77c-0.8-0.39-1.87-1.16-2.46-0.91
			c-3.7,1.59-7.29,3.41-10.92,5.15C163.2,197.67,168.27,194.66,173.88,191.98z M357.75,186.85c-6.46-4.37-12.63-0.99-19.24,0.04
			c4.07,0.92,7.71,1.53,11.22,2.59C353.21,190.55,355.79,189.74,357.75,186.85z M144.65,136.19c-0.17,0.28-0.35,0.57-0.52,0.85
			c1.28,0.88,2.45,2.16,3.86,2.56c8.02,2.26,16.1,4.3,24.16,6.42C163.76,140.46,153.84,139.38,144.65,136.19z M383.2,136.41
			c-0.18-0.23-0.36-0.45-0.55-0.68c-9.29,2.78-18.8,4.97-27.31,9.9c6.39-1.47,12.69-3.18,18.96-4.97c2.38-0.68,4.76-1.42,7.06-2.33
			C382.12,138.03,382.6,137.07,383.2,136.41z M185.38,187.93c-2.11-1.37-3.84-3.42-5.64-3.47c-3.28-0.1-6.6,0.97-10.02,1.57
			c1.68,3.08,4.93,4.56,7.98,3.85C180.09,189.33,182.46,188.68,185.38,187.93z M363.4,182.25c-4.68-3.17-9.14-4.14-14.07-3.61
			c-0.25,1.31-0.48,2.52-0.76,3.95C353.49,183.05,358.12,184.96,363.4,182.25z M179.71,182.38c-0.23-1.3-0.43-2.48-0.63-3.62
			c-5.43-0.79-10.93,0.6-13.22,3.31C168.37,184.08,173.59,184.23,179.71,182.38z M335.65,223.68c5.21,2.36,10.42,4.72,16.29,7.38
			c-2-2.17-3.3-3.8-4.83-5.19c-1.73-1.56-3.6-2.98-5.51-4.31C338.47,219.37,337.27,219.81,335.65,223.68z M301.63,160.62
			c-0.23-0.08-0.48-0.24-0.7-0.21c-7.5,1.03-12.95-1.76-16.98-8.25c-2.26-3.63-5.82-6.22-10.29-6.78c-1.75-0.22-3.6,0.32-5.41,0.52
			c0.02,0.3,0.04,0.59,0.06,0.89c6.19-0.52,10.94,1.96,14.65,6.74c0.85,1.09,1.94,1.99,2.83,3.05
			C290.08,161.66,295.7,161.83,301.63,160.62z M336.23,193.81c6.88,1.57,10.79,0.99,14.53-2.35c-2.62-0.61-5.03-1.18-7.44-1.74
			C339.68,188.88,337.64,190.06,336.23,193.81z M330.38,200.97c5.97,4.48,9,9.84,7.35,17.32c3.43-2.41,4.15-4.73,3.05-9.05
			C339.7,204.97,335.46,201.46,330.38,200.97z M191.61,185.14c0.24-1.15,0.64-2.17,0.58-3.16c-0.04-0.77-0.48-1.93-1.06-2.2
			c-3.05-1.4-6.26-2.2-9.77-1.59C182.13,184.44,187.52,183.59,191.61,185.14z M193.78,223.8c-2.55-3.29-3.03-3.39-6.34-1.33
			c-0.44,0.27-0.9,0.52-1.31,0.84c-3.08,2.43-6.15,4.88-9.23,7.32c0.15,0.21,0.3,0.42,0.45,0.62
			C182.82,228.77,188.28,226.29,193.78,223.8z M340.97,197.02c2.58,1.63,4.72,3.42,7.17,4.42c2.61,1.06,5.42,0.78,8.08-1.04
			C346.45,195.61,349.59,195.62,340.97,197.02z M338.64,184.79c6.47-1.38,8.18-2.8,7.77-6.66c-1.41,0-2.9-0.25-4.27,0.04
			c-5.26,1.15-5.46,1.58-3.68,6.45C338.48,184.69,338.58,184.73,338.64,184.79z M266.91,150.28c6.25,0.04,10.53,2.7,14.23,6.61
			c2.02,2.13,4.08,4.29,6.41,6.05c3.67,2.77,6.65,3.32,9.19,1c-5.98,0.3-10.28-2.6-14-6.74c-1.56-1.74-3.2-3.41-4.9-5.01
			C274.7,149.23,270.62,148.37,266.91,150.28z M201.66,246.1c-2.17,0-4.03-0.58-5.08,0.1c-3.81,2.47-7.36,5.36-11.23,8.26
			C189.63,254.55,196.17,251.25,201.66,246.1z M330.51,193.93c0.8-0.61,1.77-0.98,2.09-1.67c1-2.13,0.63-4.2-0.92-6.01
			c-2.17-2.53-6.11-4.19-10.19-4.32C328.03,186.16,328.03,186.16,330.51,193.93z M214.31,181.79c-3.65-1.59-7.33-2.81-11.14-1.3
			c-4.06,1.61-5.14,5.32-2.72,8.48C202.73,182.07,207.88,180.83,214.31,181.79z M193.42,178.7c-0.42-4.56-10.25-6.69-17.15-3.82
			c1.01,0.5,2.07,1,3.13,1.01C184.16,175.93,188.83,176.28,193.42,178.7z M273.87,138.46c2.99,1.35,7.02,2.51,10.25,4.8
			c3.27,2.32,5.75,5.75,8.44,8.54C288.52,141.06,281.32,137.29,273.87,138.46z M198.52,201.1c-5.19,0.69-9.26,2.93-10.77,8.07
			c-0.82,2.78-0.99,5.81,2.26,8.41C187.85,209.11,192.26,204.6,198.52,201.1z M224.99,161.17c-5.06-1.99-9-0.55-11.25,1.67
			c-2.31,2.28-3.66,6.72-2.6,9.66C213.01,165.36,217.69,161.96,224.99,161.17z M242.16,145.35c3.07-1.23,6.27-3,9.7-3.75
			c3.37-0.74,6.97-0.46,10.21-0.62C258.09,136.29,244.46,139.47,242.16,145.35z M292.35,168.38c-2.23-1.21-4.66-2.12-6.58-3.65
			c-2.88-2.31-5.44-5.04-8.08-7.64c-2.69-2.64-6.55-4.29-9.44-3.77c4.87,1.37,8.49,4.05,11.4,7.93c2.57,3.43,5.87,6.1,10.21,7.1
			C290.73,168.56,291.7,168.38,292.35,168.38z M351.83,174.93c-6.55-2.67-11.84-0.73-17.22,1.6c0.54,0.81,0.97,1.43,1.03,1.52
			C341.05,177.01,346.08,176.04,351.83,174.93z M329.46,245.76c-0.08,0.36-0.15,0.73-0.23,1.09c4.19,3.92,9.11,6.3,14.88,6.96
			c-3.31-2.46-6.7-4.76-10.25-6.8C332.58,246.29,330.94,246.17,329.46,245.76z M303.77,179.06c2.02,1.46,4.06,3.02,6.21,4.41
			c0.69,0.45,1.68,0.42,2.54,0.61c0.12-0.88,0.49-1.82,0.31-2.64C311.91,177.34,306.76,176.21,303.77,179.06z M319.09,171.67
			c-0.56-8.38-6.32-13.22-12.83-10.44C312.94,162.11,316.73,166.04,319.09,171.67z M220.3,184.71c3.81,3.46,11.81,2.19,14.89-1.11
			C230.16,183.97,225.45,184.32,220.3,184.71z M296.44,183.08c3.75,1.88,6.96,3.84,11.08,2.38
			C304.1,181.72,301.18,181.04,296.44,183.08z M315.03,239.44c-1.74-5.24-3.96-10.18-8.72-13.95
			C307.84,231.26,311.46,235.34,315.03,239.44z M222.65,228.93c-2.76,4.33-5.52,8.66-8.46,13.27
			C218.67,239.98,221.4,235.92,222.65,228.93z M211.82,255.57c0.21,0.17,0.42,0.33,0.62,0.5c3.42-1.85,6.69-6.41,7.52-10.53
			c-0.19-0.14-0.38-0.27-0.56-0.41C216.87,248.61,214.35,252.09,211.82,255.57z M215.66,192.17c-2.19-1.28-4.17-2.78-5.8-0.77
			c-0.53,0.65,0.98,2.97,1.56,4.52c0.32,0.03,0.63,0.06,0.95,0.09C213.42,194.79,214.46,193.57,215.66,192.17z M310.23,244.73
			c0.07,5.98,2.66,10.9,5.86,11.77C314.22,252.73,312.26,248.8,310.23,244.73z M320.49,248.12c-0.28,0.39-0.56,0.79-0.84,1.18
			c3.16,2.55,6.33,5.11,9.49,7.66c0.24-0.3,0.49-0.59,0.73-0.89C325.75,254.61,324.8,249.35,320.49,248.12z M210.18,248.94
			c-2.75-0.29-8.7,5.1-9.34,8.24C204.09,254.31,206.88,251.85,210.18,248.94z M310.45,240.34c1.7,3.47,6.8,5.9,11.28,5.27
			C318.09,243.91,314.11,242.05,310.45,240.34z M228.91,161.18c5.76,1.75,9.81,0.85,11.69-2.17
			C236.96,159.68,232.81,160.45,228.91,161.18z M184.6,185.63c-0.09,0.24-0.19,0.48-0.28,0.72c2.37,0.89,4.74,1.79,7.38,2.78
			C191.33,186.54,188.89,185.51,184.6,185.63z M210.74,246.22c3.31,0.67,8.13-1.53,9.27-4.29
			C217,243.32,213.56,244.92,210.74,246.22z M192.1,218.42c0.14-0.01,0.28-0.02,0.42-0.02c0-2.61,0-5.21,0-7.82
			c-0.14,0.01-0.28,0.01-0.42,0.02C192.1,213.21,192.1,215.81,192.1,218.42z"/>
		<path d="M81.31,363.24c0.22-0.34,0.36-0.83,0.68-1.01c11.09-6.07,22.08-12.36,33.36-18.07c6.52-3.3,13.5-5.69,20.31-8.4
			c1.15-0.46,2.47-0.48,3.71-0.71c0.05-0.27,0.1-0.53,0.14-0.8c-6.76-2.2-13.47-4.58-20.3-6.54c-7.96-2.28-16.13-3.56-24.38-2.19
			c-4.64,0.77-9.2,2.16-13.71,3.55c-15.85,4.89-30.38,12.87-45.38,19.73c-10.45,4.77-20.98,9.36-32.41,11.31
			c-0.73,0.13-1.58-0.4-2.37-0.62c0.65-0.39,1.26-0.97,1.96-1.13c11.82-2.59,22.88-7.23,33.81-12.3c11.78-5.46,23.62-10.81,35.53-16
			c4.47-1.95,9.19-3.31,13.79-5.32c-3.59,0-7.22-0.3-10.77,0.05c-21.2,2.1-41.39,8.74-61.91,13.94c-3.58,0.91-7.22,1.66-10.85,2.31
			c-0.77,0.14-1.67-0.45-2.51-0.71c0.7-0.43,1.36-1.07,2.12-1.26c13.76-3.57,27.51-7.15,41.3-10.6c13.52-3.38,27.13-6.28,41.18-6.01
			c7.46,0.14,15.03-0.38,22.34,0.74c8.39,1.29,16.61,3.89,24.8,6.28c4.13,1.2,7.98,3.33,12.05,4.76c1.82,0.64,3.87,0.66,5.83,0.86
			c9.2,0.94,17.57,4.64,25.9,8.18c12.76,5.41,25.29,11.38,37.9,17.15c1.46,0.67,2.81,1.58,4.22,2.37c-0.11,0.24-0.22,0.48-0.33,0.72
			c-6.67-2.84-13.37-5.6-20-8.53c-9.35-4.13-18.58-8.53-27.97-12.55c-9.16-3.91-18.74-6.23-28.78-5.41c-7.16,0.59-13.69,3.4-20,6.68
			c-8.14,4.24-16.2,8.65-24.4,12.77c-4.87,2.44-9.94,4.46-14.93,6.67C81.24,363.16,81.31,363.24,81.31,363.24z"/>
		<path d="M370.88,333.55c9.33-3.29,18.66-6.58,28.24-9.95c-15.13-6.54-30.38-11.4-47.18-8.66c1.86-0.53,3.7-1.2,5.6-1.57
			c9.63-1.88,18.94-0.18,28.07,2.86c5.58,1.86,11.07,3.99,16.64,5.87c0.95,0.32,2.22,0.34,3.15,0c11.6-4.28,23.18-8.65,34.75-13
			c7.08-2.66,14.41-4.56,21.93-4.67c6.63-0.1,13.36,0.5,19.9,1.65c11.87,2.08,23.62,4.82,35.43,7.23c3.67,0.75,7.38,1.33,11.07,1.98
			c0.02,0.32,0.05,0.64,0.07,0.97c-0.94,0.14-1.92,0.54-2.81,0.39c-6.96-1.21-13.89-2.55-20.84-3.81
			c-11.1-2.02-22.16-4.42-33.33-5.9c-10.43-1.38-20.71,0.38-30.57,4.07c-11.24,4.2-22.43,8.56-34.05,13
			c4.91,1.24,9.57,2.57,14.29,3.59c6.89,1.48,13.85,1.83,20.91,1.08c14.44-1.53,27.44,3.55,40.3,9.12
			c14.55,6.3,29.06,12.69,43.58,19.06c0.71,0.31,1.36,0.74,2.05,1.12c-0.09,0.3-0.18,0.59-0.26,0.89c-0.91-0.14-1.89-0.09-2.71-0.44
			c-10.92-4.6-21.86-9.14-32.7-13.92c-11.24-4.96-22.31-10.4-34.46-12.78c-4.62-0.9-9.52-1.3-14.19-0.87
			c-13.45,1.23-26.25-1.28-38.91-5.38c-1.34-0.43-3.05-0.42-4.4-0.01c-9.07,2.79-18.1,5.75-27.14,8.63
			c-0.71,0.23-1.47,0.27-2.21,0.4C371.03,334.17,370.96,333.86,370.88,333.55z"/>
		<path d="M239.82,357.28c0-23.17,0-46.35,0-69.52c-2.63,17.05-6.9,33.66-11.6,50.17c-0.18,0.63-0.81,1.13-1.57,2.14
			c3.44-16.54,6.77-32.26,9.97-48c3.24-15.91,3.99-32.08,5.32-48.49c0.3,0.49,0.86,1,0.85,1.48c-0.17,6.23-0.28,12.48-0.7,18.7
			c-0.43,6.28-1.46,12.53-1.7,18.81c-0.13,3.58,1.2,7.2,1.18,10.8c-0.11,20.59-0.43,41.17-0.68,61.76c-0.01,0.73-0.13,1.47-0.19,2.2
			C240.4,357.31,240.11,357.3,239.82,357.28z"/>
		<path d="M303.97,339.79c-6.63-16.62-9.41-34.17-13.01-51.56c0.26,22.97,0.31,45.91,0.23,68.84c-0.38,0.01-0.77,0.02-1.15,0.04
			c-0.08-0.71-0.21-1.41-0.22-2.12c-0.24-22.05-0.48-44.11-0.65-66.16c-0.01-0.96-1.05-2.97,1.72-2.41
			c-0.64-6.15-1.42-12.15-1.84-18.18c-0.55-7.87-0.82-15.77-1.13-23.66c-0.02-0.52,0.65-1.07,1.37-1.47
			C289.95,276.1,296.14,308.05,303.97,339.79z"/>
		<path d="M374.86,469.04c27.33-13.23,55.53-23.95,85.6-29.35c20.86-3.74,41.78-6.16,62.97-4.39c0.04,0.32,0.07,0.65,0.11,0.97
			c-0.82,0.09-1.65,0.25-2.47,0.25c-7.47,0.04-14.99-0.48-22.4,0.2c-11.5,1.05-22.95,2.76-34.38,4.46
			c-15.12,2.25-29.93,5.97-44.27,11.17c-13.09,4.74-25.89,10.27-38.81,15.45c-1.97,0.79-3.96,1.54-5.94,2.31
			C375.13,469.76,375,469.4,374.86,469.04z"/>
		<path d="M264.84,131.21c-6.52-0.21-12.95-0.78-19.03-3.33c-1.58-0.66-3.13-1.54-4.46-2.61c-3.11-2.52-3.16-6.24,0.3-8.14
			c3.42-1.88,7.21-3.42,11.03-4.15c9.23-1.77,18.56-1.78,27.75,0.45c2.72,0.66,5.42,1.82,7.81,3.27c4.23,2.56,4.01,6.54-0.22,9.21
			c-4.33,2.74-9.18,3.9-14.15,4.58C270.88,130.91,267.85,130.99,264.84,131.21z M265.25,128.73c3.54-0.26,7.15-0.17,10.59-0.89
			c3.65-0.76,7.3-1.98,10.66-3.6c3.45-1.66,3.37-3.95,0.1-5.83c-1.78-1.02-3.71-1.93-5.7-2.41c-9.72-2.37-19.55-2.39-29.31-0.4
			c-3.06,0.62-6.04,1.99-8.84,3.45c-2.09,1.09-2.07,2.55-0.25,4.09c1.23,1.04,2.66,1.96,4.14,2.59
			C252.59,128.26,258.9,128.56,265.25,128.73z"/>
		<path d="M192.32,340.81c3.45-4.03,7.01-7.98,10.33-12.12c9.77-12.17,15.51-26.26,19.34-41.23c2.98-11.65,4.61-23.52,5.75-35.46
			c0.72-7.57,1.41-15.14,2.15-22.7c0.06-0.62,0.47-1.2,0.72-1.8c0.28,0.07,0.57,0.14,0.85,0.22c-0.23,2.95-0.44,5.9-0.69,8.84
			c-0.46,5.52-0.94,11.04-1.43,16.56c-1.77,20.09-5.01,39.85-13.67,58.31c-4.14,8.83-9.48,16.91-16.36,23.88
			c-2.08,2.1-4.5,3.86-6.77,5.77C192.47,340.98,192.39,340.9,192.32,340.81z"/>
		<path d="M336.39,341.21c-2.01-1.9-4.18-3.66-6.01-5.72c-12.71-14.32-20.52-31.06-24.44-49.73c-2.49-11.85-4-23.81-4.75-35.89
			c-0.3-4.8-0.68-9.59-1.03-14.38c0.27-0.08,0.53-0.16,0.8-0.24c0.25,0.4,0.69,0.78,0.73,1.19c0.56,6.35,0.98,12.72,1.61,19.07
			c1.98,19.72,5,39.22,14.02,57.18c4.61,9.18,10.53,17.5,17.63,24.96c0.81,0.86,1.48,1.86,2.21,2.79
			C336.9,340.7,336.65,340.95,336.39,341.21z"/>
		<path d="M269.14,246.09c1.79,2.27,1.76,134.48,0,137.76C269.14,337.71,269.14,292.15,269.14,246.09z"/>
		<path d="M260.89,378.9c0-41.89,0-83.78,0-126.05C262.34,255.71,262.53,376.11,260.89,378.9z"/>
		<path d="M221.12,335.25c3.56-15.9,7.4-31.75,10.62-47.72c3.25-16.12,4.12-32.5,3.65-48.97c0.3-0.05,0.59-0.1,0.89-0.15
			c0.25,0.57,0.72,1.14,0.71,1.7c-0.28,10.66-0.03,21.38-1.11,31.96c-1.06,10.38-3.21,20.69-5.41,30.92
			c-2.14,9.96-4.94,19.77-7.49,29.64c-0.26,0.99-0.82,1.91-1.24,2.86C221.53,335.41,221.32,335.33,221.12,335.25z"/>
		<path d="M307.72,331.21c-10.94-31.81-14.88-64.65-13.97-98.33c0.59,2.96,1.5,5.8,1.66,8.68c0.53,9.94,0.24,19.96,1.27,29.84
			c1.8,17.3,5.19,34.35,10.03,51.09c0.69,2.4,1.35,4.8,1.98,7.22c0.12,0.46,0.02,0.97,0.02,1.46
			C308.38,331.19,308.05,331.2,307.72,331.21z"/>
		<path d="M254.94,363.12c-1.51-1.24-1.78-95.85,0-100.31C254.94,296.19,254.94,329.57,254.94,363.12z"/>
		<path d="M275.97,359.28c0-32.95,0-65.9,0-98.85c0.28,0,0.55,0,0.83,0c0,32.97,0,65.94,0,98.91
			C276.52,359.32,276.25,359.3,275.97,359.28z"/>
		<path d="M464.31,366.34c21.68,8.56,42.19,19.6,63.11,29.78c-0.03,0.3-0.06,0.61-0.09,0.91c-0.92-0.08-1.96,0.11-2.74-0.27
			c-7.97-3.81-15.86-7.78-23.85-11.55c-11.43-5.39-22.94-10.63-34.39-15.97c-0.99-0.46-1.83-1.24-2.74-1.88
			C463.83,367.02,464.07,366.68,464.31,366.34z"/>
		<path d="M247.36,268.47c0,24.24,0,48.47,0,72.71c-0.27,0-0.55,0-0.82,0c0-24.24,0-48.48,0-72.71
			C246.82,268.47,247.09,268.47,247.36,268.47z"/>
		<path d="M283.8,337.98c0-25.15,0-49.66,0-74.74C285.45,265.48,285.4,335.39,283.8,337.98z"/>
		<path d="M10.34,450.45c9.42-2.44,49.92,4.99,51.73,9.22c-8.73-2-17.23-4.28-25.86-5.82C27.66,452.33,18.97,451.55,10.34,450.45z"
			/>
		<path d="M63.21,371.33c-20.24,5.2-38.08,16.23-57.87,23.75C7.65,391.07,58.54,370.21,63.21,371.33z"/>
		<path d="M344.68,337.49c-6.13-0.21-24.76-26.49-22.81-31.63C327.75,317.65,335.15,328.34,344.68,337.49z"/>
		<path d="M183.75,337.55c0.41-0.51,0.76-1.1,1.25-1.53c9.03-8,16.65-17.08,21.73-28.15c0.25-0.54,1-0.84,1.71-0.99
			C204.76,318.54,190.97,335.95,183.75,337.55z"/>
		<path d="M261.2,184.91c2.87-1.01,5.29-0.79,7.82-0.1C266.86,188.68,264.99,188.78,261.2,184.91z"/>
		<path d="M263.89,179.94c0.36,0.64,0.72,1.28,1.16,2.08c0.77-0.81,1.3-1.37,1.82-1.93c0.24,0.22,0.48,0.45,0.73,0.67
			c-0.64,0.63-1.18,1.64-1.93,1.82C263.97,183,263.33,181.94,263.89,179.94z"/>
	</g>
</g>
<g id="Layer_17">
</g>
</svg>
