<?xml version="1.0" encoding="utf-8"?>
<!-- Generator: Adobe Illustrator 24.0.1, SVG Export Plug-In . SVG Version: 6.00 Build 0)  -->
<svg version="1.1" xmlns="http://www.w3.org/2000/svg" xmlns:xlink="http://www.w3.org/1999/xlink" x="0px" y="0px"
	 viewBox="0 0 528.57 523.81" style="enable-background:new 0 0 528.57 523.81;" xml:space="preserve">
<style type="text/css">
	.st0{fill:#616060;}
	.st1{fill:#8D8989;}
	.st2{fill:#FFFFFF;}
</style>
<g id="Layer_1">
	<g>
		<path d="M269.16,66.87c20.8-0.05,40.94,3.6,60.49,10.6c18.35,6.56,35.42,15.56,50.95,27.35c16.37,12.44,30.44,27.11,42.23,43.99
			c13.81,19.76,23.17,41.5,29,64.81c3.83,15.31,5.6,30.91,5.4,46.7c-0.24,18.76-3.32,37.03-9.38,54.82
			c-4.38,12.84-9.8,25.2-16.7,36.87c-8.03,13.59-17.71,25.93-28.85,37.12c-6.52,6.55-13.36,12.73-20.72,18.35
			c-16.77,12.79-35.25,22.32-55.25,28.92c-9.77,3.23-19.77,5.65-29.96,7.11c-12.29,1.76-24.66,2.56-37.07,1.97
			c-27.3-1.28-53.14-8.16-77.52-20.57c-17.17-8.74-32.69-19.8-46.41-33.28c-25.8-25.33-43.34-55.46-51.97-90.67
			c-2.47-10.09-3.98-20.32-4.76-30.67c-0.86-11.34-0.73-22.66,0.61-33.96c3.02-25.47,10.62-49.5,23.18-71.87
			c9.82-17.48,22.05-33.16,36.74-46.84c14.09-13.11,29.93-23.68,47.31-31.98c17.15-8.19,35.12-13.69,53.87-16.58
			c5.67-0.87,11.43-1.24,17.15-1.69C261.38,67.07,265.28,67.03,269.16,66.87z M451.52,257.94c-0.05-7.7-0.34-15.39-1.45-23.02
			c-1.66-11.38-4.16-22.58-7.71-33.55c-7.52-23.23-19-44.28-34.73-62.97c-6.53-7.76-13.65-14.95-21.3-21.61
			c-6.54-5.7-13.43-10.97-20.82-15.52c-13.34-8.22-27.32-15.08-42.29-19.91c-15.75-5.09-31.85-8.01-48.37-8.54
			c-15.61-0.49-31.07,0.97-46.31,4.36c-24.41,5.43-46.8,15.45-67.25,29.83c-9.84,6.93-18.81,14.84-27,23.65
			c-7.24,7.79-13.74,16.15-19.67,24.98c-9.69,14.4-17.09,29.91-22.23,46.47c-4.07,13.09-6.85,26.45-8.03,40.15
			c-0.94,10.94-0.86,21.86,0.33,32.75c1.15,10.55,3.17,20.96,5.99,31.22c6.19,22.57,16.83,42.88,30.98,61.42
			c10.93,14.33,23.78,26.72,38.35,37.32c10.98,7.99,22.77,14.53,35.22,19.95c14.58,6.34,29.8,10.42,45.46,12.82
			c11.96,1.83,24.01,2.36,36.11,1.62c9.88-0.6,19.69-1.72,29.38-3.74c17.64-3.68,34.31-9.96,50.1-18.67
			c11.89-6.56,22.86-14.38,33.07-23.34c11.64-10.22,21.63-21.88,30.48-34.53c9.53-13.62,16.75-28.44,22.13-44.15
			C448.26,296.46,451.68,277.5,451.52,257.94z"/>
		<path d="M451.52,257.94c0.16,19.56-3.26,38.52-9.58,56.97c-5.38,15.71-12.61,30.53-22.13,44.15
			c-8.85,12.65-18.84,24.31-30.48,34.53c-10.2,8.96-21.17,16.78-33.07,23.34c-15.78,8.7-32.46,14.98-50.1,18.67
			c-9.69,2.02-19.5,3.14-29.38,3.74c-12.1,0.73-24.15,0.21-36.11-1.62c-15.66-2.4-30.88-6.48-45.46-12.82
			c-12.45-5.41-24.24-11.96-35.22-19.95c-14.57-10.6-27.42-22.99-38.35-37.32c-14.15-18.54-24.79-38.85-30.98-61.42
			c-2.81-10.25-4.83-20.66-5.99-31.22c-1.19-10.89-1.27-21.81-0.33-32.75c1.18-13.69,3.97-27.06,8.03-40.15
			c5.14-16.56,12.54-32.06,22.23-46.47c5.93-8.82,12.43-17.19,19.67-24.98c8.19-8.81,17.16-16.72,27-23.65
			c20.45-14.39,42.84-24.41,67.25-29.83c15.24-3.39,30.7-4.85,46.31-4.36c16.52,0.52,32.62,3.45,48.37,8.54
			c14.97,4.83,28.95,11.7,42.29,19.91c7.39,4.55,14.28,9.82,20.82,15.52c7.65,6.66,14.77,13.85,21.3,21.61
			c15.73,18.69,27.21,39.74,34.73,62.97c3.55,10.96,6.05,22.17,7.71,33.55C451.18,242.55,451.47,250.25,451.52,257.94z
			 M365.94,141.51c0.78,0.55,1.59,1.07,2.34,1.65c1.73,1.33,3.44,2.7,5.15,4.05c-2.41-3.1-5.2-5.73-8.47-7.81
			c-0.35-0.22-0.85-0.21-1.28-0.3c-0.99-0.68-1.97-1.36-2.96-2.03c-0.94-0.63-1.88-1.25-2.82-1.88c-0.92-0.62-1.82-1.26-2.73-1.9
			c5.02,1,9.58,2.93,14.14,5.12c-0.8-1.03-1.61-2.05-2.7-3.44c8.66,2.49,16.63,5.46,24.3,9.23c0.07-0.15,0.15-0.29,0.22-0.44
			c-2.26-1.69-4.52-3.39-6.78-5.08c0.1-0.14,0.2-0.28,0.3-0.41c8.56,3.62,15.52,9.73,22.97,15.1c-0.66-0.96-1.38-1.82-2.15-2.64
			c-10.34-10.89-22.72-18.67-36.75-23.87c-4.58-1.7-9.33-2.8-14.25-2.56c-1.65,0.08-3.38,0.52-4.88,1.21
			c-2.51,1.14-3.45,3.66-2.58,6.32c0.43,1.3,1.03,2.55,1.69,3.75c1.36,2.48,2.89,4.88,4.23,7.38c5.34,9.92,9.94,20.17,13.49,31.41
			c-0.23-8.94-2.22-17.13-3.63-25.42c0.57,0.85,0.98,1.72,1.28,2.63c1,2.99,2.07,5.97,2.91,9c0.84,3.03,1.54,6.11,2.11,9.2
			c0.45,2.46,0.58,4.99,0.9,7.48c1.09,8.51,2.13,17.03,3.31,25.53c1.03,7.46,2.15,14.91,1.95,22.48c-0.04,1.57-0.01,3.14-0.01,4.86
			c0.33-0.44,0.63-0.8,0.88-1.19c4.51-7.02,7.04-14.76,7.75-23.02c0.86-10.01-0.5-19.76-4.92-28.87
			c-3.54-7.28-7.36-14.41-11.1-21.59c-0.99-1.9-2.13-3.72-3.2-5.57c0.53,0.04,0.83,0.26,1.06,0.54c3.09,3.74,6.43,7.31,9.2,11.28
			c6.26,8.96,12.23,18.11,18.33,27.18c2.21,3.29,4.33,6.66,6.71,9.83c4.58,6.08,9.32,12.03,14.01,18.03c0.3,0.38,0.67,0.7,1,1.05
			c0.08-1.36-0.11-2.55-0.37-3.72c-1.62-7.53-3.59-14.93-7.03-21.9c-3.56-7.22-7.96-13.91-12.71-20.37
			c-4.38-5.96-9.32-11.41-14.79-16.38c-2.75-2.5-5.65-4.84-8.31-7.43C369.7,145.96,367.88,143.68,365.94,141.51z M208.05,299.75
			c-2.93-2.53-6.55-3.79-9.95-5.47c3.02,2.4,6.35,4.2,10.01,5.41c0.59,1.7,0.63,3.27-0.74,4.71c-0.7,0.73-0.55,1.66,0,2.47
			c0.67,0.98,0.57,1.97,0.12,3c-0.22,0.51-0.36,1.05-0.55,1.59c1.59,2.04,3.07,4.06,4.67,5.98c1.59,1.9,3.3,3.69,4.91,5.48
			c-0.11,0.22-0.13,0.32-0.19,0.35c-0.27,0.17-0.54,0.35-0.83,0.48c-3.1,1.4-6.35,1.8-9.73,1.62c-4.17-0.23-8.15-1.22-12.03-2.73
			c-2.38-0.93-3.21-0.68-4.78,1.37c-1.7,2.21-2.2,4.81-2.37,7.53c-0.09,1.43,0.5,2.25,1.78,2.81c5.54,2.43,11.23,4.16,17.35,4.2
			c0.69,0,1.37,0.1,2.39,0.18c-2.68,3.82-5.8,6.52-9.89,8.21c2.63,0.36,5.26,0.73,7.88,1.09c-7.22,2.64-14.46,2.3-21.91-0.18
			c1.16,2.95,2.74,5.05,4.8,6.84c6.39,5.56,13.66,9.56,21.73,12.03c6.7,2.05,13.56,3.21,20.61,2.15c0.36-0.05,0.74,0.03,1.38,0.07
			c-4.22,5.15-9.92,6.83-16.29,8.26c6.76,3.33,13.24,5.44,20.78,4.71c-1.51,2.1-3.21,3.17-4.96,4.14
			c-5.13,2.81-10.64,3.76-16.44,3.35c13.87,3.57,26.23,0.75,37.06-8.84c-1.55,10.09-8.14,16.19-16.22,21.26
			c2.84-0.1,5.57-0.33,8.29-0.72c7.34-1.06,13.9-4.18,20.29-7.77c0.43-0.24,0.9-0.39,1.66-0.72c-3.54,6.72-8.13,12-13.86,16.38
			c3.71-0.49,7.2-1.53,10.5-3.03c3.3-1.5,6.45-3.33,10.04-5.2c-2.22,5.4-4.67,10.07-9.35,13.72c2.93-0.18,4.8-1.98,7.16-2.5
			c-1.5,1.53-3.03,2.97-4.7,4.23c-1.67,1.27-3.43,2.45-5.24,3.52c-1.72,1.01-3.54,1.84-5.32,2.74c0.05,0.14,0.11,0.28,0.16,0.42
			c3.59-0.83,7.19-1.67,10.78-2.5c-7.84,4.78-16.68,5.98-25.42,7.57c8.79,0.39,17.33-1.15,25.77-3.46
			c-5.48,3.48-11.75,4.73-17.9,6.35c1.08,0.1,2.13,0.16,3.18,0.09c9.29-0.54,18.26-2.61,26.88-6.08
			c15.89-6.39,29.15-16.39,40.04-29.55c5.86-7.08,10.75-14.79,14.4-23.26c3.98-9.24,6.39-18.87,7.03-28.88
			c0.52-8.2-0.4-16.35-2.39-24.34c-6.57-26.34-27.66-49.44-56.89-55.08c-6.66-1.29-13.45-1.95-20.18-2.86
			c-10.13-1.37-19.81-4.26-28.78-9.16c-20.57-11.24-33.63-28.63-40.19-50.85c-4.33-14.65-4.01-29.6-0.56-44.46
			c2.4-10.37,6.75-19.91,12.62-28.75c11.27-16.94,26.4-29.24,45.14-37.06c11.27-4.7,23.11-7.57,34.96-10.53
			c-2.22-0.4-4.45-0.78-6.69-0.94c-8.98-0.62-17.95-0.6-26.94,0.25c-10.76,1.02-21.33,2.86-31.7,5.91
			c-25.07,7.38-47.56,19.53-67.51,36.38c-15.51,13.1-28.03,28.74-38.32,46.15c-9.25,15.66-15.71,32.46-19.59,50.24
			c-1.95,8.96-3.56,17.96-3.76,27.15c-0.13,6.23,0.02,12.48,0.14,18.71c0.05,2.67,0.31,5.34,0.54,8c0.07,0.86,0.32,1.7,0.49,2.55
			c0.9-4.73,1.33-9.41,2.06-14.04c1.1-7.04,2.34-14.05,3.61-21.06c2.55-14.04,5.73-27.92,10.62-41.35c0.31-0.85,0.73-1.66,1.09-2.49
			c0.16,0.07,0.33,0.13,0.49,0.2c-0.25,0.83-0.46,1.67-0.74,2.48c-1.49,4.28-2.95,8.55-3.89,13c-0.88,4.18-2.07,8.3-3.01,12.48
			c-0.98,4.34-1.85,8.71-2.72,13.08c-0.76,3.81-1.65,7.61-2.11,11.45c-0.91,7.63-1.73,15.29-2.27,22.95
			c-0.49,6.95-0.5,13.94,0.61,20.85c0.73,4.54,1.88,9.02,2.83,13.53c1.65,7.88,4.2,15.46,7.42,22.83c0.19,0.44,0.47,0.83,0.71,1.25
			c-5.63-17.61-7.27-35.48-4.55-53.73c0.27,1.5,0.31,3.01,0.42,4.53c0.42,5.81,0.61,11.66,1.33,17.43
			c1.09,8.68,2.87,17.22,5.44,25.62c2.61,8.55,5.44,16.96,9.97,24.71c0.46,0.78,0.89,1.58,1.34,2.38
			c-2.03-5.58-4.2-11.05-6.02-16.64c-2.08-6.39-3.52-14.32-3.43-17.41c0.48,1.62,0.91,2.92,1.26,4.24
			c2.73,10.31,6.82,20.1,11.93,29.42c9.07,16.53,21.73,29.73,37.72,39.74c0.88,0.55,1.83,1.07,2.35,2.06
			c-7.85-3.07-14.54-8.17-21.86-12.18c1.72,1.7,3.47,3.35,5.43,4.72c6.17,4.33,12.72,8.05,19.47,11.41c3.19,1.58,6.31,3.31,9.44,5
			c0.5,0.27,0.89,0.73,1.33,1.11c-5.85-1.15-11.22-3.39-16.56-5.73c1.03,0.97,2.11,1.81,3.26,2.55c5.87,3.77,12.01,7.08,18.38,9.89
			c4.43,1.96,8.99,3.69,13.62,5.09c6.03,1.81,12.27,1.88,18.54,1.57c10.14-0.51,19.9-2.54,29.2-6.64c4.91-2.17,9.59-4.71,13.72-8.19
			c0.31-0.26,0.55-0.6,1.11-1.24c-0.8,0.18-1.12,0.2-1.4,0.32c-9.06,3.91-18.59,5.6-28.39,5.67c-5.5,0.04-11.02-0.11-16.5-0.53
			c-3.61-0.28-7.15-1.3-10.75-1.84c-7.37-1.11-14.16-3.89-20.87-6.98c-4.64-2.13-8.95-4.83-13.31-7.45
			c-2.76-1.66-5.41-3.52-8.09-5.32c-0.75-0.5-1.53-1.03-2.1-2.43c3.61,1.85,6.76,3.47,9.92,5.09c8,4.1,16.04,8.12,24.7,10.72
			c6.21,1.87,12.47,3.5,19,3.72c7.61,0.25,15.04-0.93,22.23-3.37c3.2-1.08,6.28-2.61,9.26-4.22c2.21-1.19,4.07-2.95,5.51-5.51
			c-0.6,0.19-0.84,0.23-1.04,0.34c-6.99,4.18-14.59,5.96-22.7,6.11c-8.07,0.15-15.99-0.74-23.87-2.43
			c-12.41-2.66-24.41-6.45-35.81-12.07c-2-0.99-3.99-1.98-5.99-2.96c-0.09,0.09-0.19,0.18-0.28,0.28c1.05,1.23,2.1,2.45,3.15,3.68
			c-1.74-0.48-3.3-1.25-4.84-2.04c-2.37-1.22-4.62-2.91-7.13-3.55c-1.96-0.5-3.23-1.49-4.52-2.75c-1.19-1.16-2.78-1.98-3.18-3.83
			c-0.07-0.33-0.53-0.59-0.82-0.87c-4.15-4.14-7.59-8.85-10.65-13.82c-4.93-8.04-8.95-16.5-11.45-25.65
			c-2.49-9.08-4.46-18.25-5.01-27.68c-0.11-1.83-0.26-3.67-0.39-5.5c0.54,1.24,0.82,2.49,1.04,3.76c1.09,6.22,2.2,12.43,4.27,18.42
			c1.61,4.66,3.21,9.33,4.95,13.95c2.61,6.91,5.83,13.56,9.88,19.73c2.19,3.33,3.84,7.2,7.64,9.24c0.2,0.11,0.31,0.37,0.48,0.54
			c2.78,2.82,5.57,5.64,8.37,8.44c0.26,0.26,0.67,0.38,1.18,0.66c-2.69-4.48-5.28-8.68-7.77-12.95
			c-9.13-15.68-16.62-32.04-20.76-49.8c-1.88-8.09-2.7-16.28-2.73-24.57c0.3,1.65,0.59,3.29,0.79,4.95
			c1.1,8.95,3.07,17.7,6.23,26.16c1.58,4.24,3.65,8.32,5.1,12.6c2.64,7.78,6.84,14.67,11.59,21.24c4.47,6.18,9.79,11.64,15.47,16.74
			c7.25,6.52,14.78,12.62,24.01,16.21c2.87,1.12,5.71,2.32,8.98,3.65c-0.41-0.57-0.48-0.74-0.6-0.83
			c-9.24-6.62-17.72-14.13-25.77-22.15c-13.48-13.45-24.57-28.59-32.71-45.84c-0.19-0.41-0.3-0.85-0.45-1.28
			c0.55,0.37,0.87,0.84,1.15,1.32c4.6,7.92,9.73,15.49,15.35,22.72c6.92,8.9,14.39,17.32,22.99,24.66
			c8.55,7.3,17.88,13.41,28.26,17.79c7.98,3.37,16.25,5.56,25.03,4.98c1.44-0.1,2.88-0.39,4.31-0.6
			c-13.29-2.48-25.48-7.26-36.37-15.21c3.51,0.87,6.9,2.15,10.38,3.03c3.61,0.92,7.34,1.14,11.08,1.1
			c3.61-0.05,7.17-0.32,10.59-1.59c-0.81-0.25-1.61-0.28-2.4-0.34c-5.02-0.37-9.99-0.99-14.76-2.7c-8.07-2.9-15.42-7.09-22.24-12.28
			c-7.78-5.91-14.66-12.75-20.81-20.32c-3.89-4.79-7.35-9.86-10.42-15.21c-0.29-0.51-0.9-1.03-0.1-1.88
			c1.04,1.25,1.95,2.57,3.09,3.66c3.5,3.36,6.97,6.77,10.66,9.91c4.71,4.01,9.89,7.33,15.7,9.56c5.9,2.26,11.79,2.9,17.6-0.31
			c0.34-0.19,0.61-0.5,1.07-0.88c-18.19-1.29-36.11-15.8-42.88-26.05c4.09,3.07,7.58,6.62,12.86,8.49
			c-1.75-1.88-3.14-3.32-4.47-4.81c-3.77-4.23-7.46-8.54-11.29-12.72c-7.58-8.28-14.36-17.11-19.57-27.1
			c-1.9-3.64-4.12-7.13-6.34-10.6c-3.44-5.39-6.98-10.7-9.32-16.72c-2.66-6.82-3.63-13.92-3.92-21.15
			c-0.03-0.67-0.22-1.47,0.75-2.02c0.26,1.09,0.51,2.1,0.73,3.11c1.52,7.08,3.81,13.9,7.19,20.31c1.96,3.71,4.33,7.14,7.52,9.95
			c-2.76-4.46-5.69-8.82-7.37-13.84c2.93,3.6,5.14,7.77,9,10.61c-2.95-6.03-5.33-12.21-6.13-18.9c1.08,2.15,1.95,4.37,2.88,6.56
			c1.88,4.44,4.5,8.38,7.75,11.96c4.7,5.17,11.34,6.45,17.37,9.06c0.02-0.44-0.07-0.73-0.23-0.97c-2.47-3.7-5.07-7.32-7.38-11.12
			c-2.78-4.57-5.08-9.39-6.65-14.54c-1.62-5.3-2.55-10.71-2.98-16.21c-0.67-8.61-0.32-17.17,1.53-25.62
			c0.31-1.44,0.88-2.82,1.33-4.23c0.3,0.74,0.28,1.38,0.23,2.02c-0.19,2.66-0.54,5.33-0.56,7.99c-0.06,10.98,1.04,21.84,4.24,32.39
			c2.07,6.83,4.6,13.44,8.53,19.51c6.11,9.44,14.38,16.1,24.68,20.4c0.66,0.27,1.19,0.53,1.68-0.2c0.35,0.19,0.69,0.38,1.34,0.74
			c-3.18,1.44-5.1,3.89-8.17,4.28c-0.34,0.04-0.67,0.43-0.93,0.72c-3.45,3.79-4.97,8.27-4.69,13.36c0.04,0.78,0.24,1.55,0.36,2.33
			c0.69-4.42,1.72-7.3,3.41-8.79c-0.08,0.51-0.12,0.91-0.21,1.29c-0.76,3.34-0.96,6.73-0.77,10.14c0.05,0.9,0.33,1.78,0.51,2.67
			c0.42-5.76,1.78-11.19,3.8-13.05c-1.47,5.42-2.27,10.7-0.16,15.98c0.19-1.46,0.15-2.91,0.2-4.37c0.04-1.4,0.24-2.78,1.04-4.03
			c0.62,3.2,0.39,6.49,1.78,10.07c0.35-4.94-0.83-9.51,1.78-13.66c-0.11,2.69-0.39,5.26-0.29,7.81c0.17,4.52,0.53,5.48,1.89,7.12
			c-0.17-5.64-0.17-8.15,1.51-11.46c0,2.73-0.07,5.3,0.02,7.87c0.09,2.66,0.8,5.14,2.8,7.49c-1.36-3.82-1.49-4.81-1.03-6.94
			c1.45,2.93,2.69,6.12,5.26,8.5c-0.85-2.93-2.04-5.75-1.9-8.87c0.34,0.74,0.5,1.53,0.84,2.25c1.05,2.26,2.16,4.49,3.27,6.73
			c0.02,0.04,0.25-0.01,0.4-0.02c-0.02-0.4-0.05-0.8-0.09-1.57c1.71,2.04,3.16,3.78,4.97,5.95c-0.38-1.43-0.59-2.26-0.93-3.56
			c1.61,1.55,2.27,3.33,4.68,3.94c-1.41-1.76-2.47-3.08-3.54-4.41c0.08-0.06,0.15-0.12,0.23-0.18c2,1.65,3.99,3.3,5.99,4.95
			c0.08-0.09,0.17-0.18,0.25-0.26c-0.42-0.74-0.83-1.48-1.35-2.42c2.11,1.23,3.94,2.3,5.78,3.37c-0.6-1.66-1.52-3.04-2.43-4.43
			c-0.96-1.48-2.16-2.52-3.98-2.93c-1.8-0.41-3.35-1.35-4.68-3.07c2.5-0.07,4.98,0.65,6.43-1.67c-0.59-1.73-1.94-1.79-3.08-2.03
			c-4.44-0.93-6.81-3.83-7.7-8.06c-0.36-1.69-0.41-3.44-0.62-5.26c-1.6,1.48-1.81,3.46-2.36,5.41c-2.19-4.63-0.11-9.52,4.69-10.97
			c2.9-0.88,5.62-2.02,8.06-3.82c0.32-0.24,0.65-0.55,1.02-0.64c0.45-0.11,0.95-0.03,1.76-0.03c-3.05,1.7-3.47,2.45-3.05,5.08
			c1.97-0.99,2.86-1.13,4.33-0.32c1.05,0.58,1.99,1.36,2.94,2.1c0.7,0.55,1.26,1.26,1.99,1.76c2.21,1.52,3.82,1.16,5.64-1.32
			c-2.72-4.36-5.49-8.79-8.32-13.31c-2.44,0.79-4.86,1.57-7.28,2.36c-1,0.33-1.97,0.78-2.98,1.02c-3.13,0.74-6.53-0.32-8.69-2.71
			c3.18,1.6,6.19,2.04,9.38-0.32c-1-0.29-1.69-0.56-2.4-0.68c-4.6-0.76-8.14-2.95-10.29-7.23c-1.44-2.85-3.84-4.76-6.63-6.22
			c-0.67-0.35-1.3-0.8-1.95-1.2c3.09-0.69,5.95-0.37,8.73,0.61c3.69,1.3,6.56,3.83,9.24,6.54c3.01,3.04,6.43,5.1,10.78,5.5
			c1.69,0.16,2.51-0.33,2.56-2c0.02-0.75-0.22-1.51-0.33-2.24c-1.25,0-2.23,0.09-3.18-0.02c-1.19-0.14-2.45-0.23-3.52-0.71
			c-3.58-1.59-5.95-4.6-8.49-7.41c0.82,0.4,1.52,0.94,2.25,1.44c1.66,1.16,3.27,2.4,5.02,3.42c2.14,1.24,4.42,1.68,7.27,0.11
			c-9.3-1.1-12.66-7.21-14.3-14.87c0.46,0.63,0.83,1.32,1.2,2.02c1.28,2.47,2.86,4.75,4.97,6.54c1.46,1.24,3.1,2.35,4.83,3.17
			c1.44,0.68,3.1,0.82,4.34-0.97c-3.57-1.54-6.79-3.31-8.07-7.15c4.61,4.45,4.61,4.45,6.53,4.01c0.11-2.46-0.05-3.32-1.03-5.12
			c-4.29-7.84-11.01-12.32-19.66-14.05c-1.97-0.39-4.5-0.24-6.15,0.25c1.86,1.79,3.68,3.54,5.5,5.3c-3.84-1.33-7.44-2.97-10.21-5.85
			c-5.69-5.91-10.07-12.65-12.46-20.58c-0.12-0.4-0.05-0.85-0.07-1.2c3.42,2.05,6.62,4.29,10.08,5.99c5.66,2.77,9.11,3.66,11.19,3.4
			c-1.05-0.83-1.98-1.61-2.95-2.32c-4.6-3.33-8.87-7.04-12.97-10.97c-7.3-6.99-11.2-15.53-12.29-25.48
			c-0.14-1.24-0.34-2.47-0.56-4.07c-0.51,2.31-0.99,4.19-1.34,6.09c-0.34,1.9-0.67,3.83-0.8,5.75c-0.41,6.07-0.39,12.13,0.39,18.19
			c0.82,6.46,2.8,12.47,6.6,17.8c0.52,0.73,1.15,1.4,1.72,2.09c-1.8-3.84-3.67-7.54-4.34-11.81c0.2,0.11,0.3,0.12,0.33,0.18
			c0.31,0.56,0.62,1.13,0.91,1.7c2.17,4.23,4.97,7.99,8.68,10.97c3.47,2.78,7.12,5.34,10.66,8.05c2.07,1.58,4.17,3.16,5.57,5.53
			c-3.1-1.77-6.2-3.55-9.3-5.32c-0.12,0.16-0.24,0.32-0.36,0.47c2.52,2.36,5.05,4.71,7.57,7.07c-2-0.69-3.79-1.59-5.55-2.55
			c-1.69-0.92-3.34-1.89-5.24-2.96c1.28,2.81,4.31,3.56,5.4,6.13c-0.79-0.57-1.58-1.14-2.37-1.7c-0.12,0.12-0.24,0.24-0.36,0.36
			c1.19,1.66,2.38,3.33,3.56,4.99c-0.14,0.12-0.28,0.23-0.41,0.35c-2.93-2.47-5.85-4.95-8.78-7.42c1.66,3.48,4.19,6.21,7.17,8.62
			c-3.25-0.95-6.1-2.57-8.68-4.82c1.2,2.05,2.51,3.95,3.96,5.74c1.49,1.83,3.13,3.55,4.7,5.32c-3.67-1.37-5.82-4.74-8.96-6.77
			c-0.12,0.15-0.25,0.3-0.37,0.45c3.01,2.76,6.02,5.52,9.03,8.29c-0.94-0.25-1.76-0.69-2.53-1.2c-0.8-0.54-1.56-1.15-2.33-1.72
			c1.45,3.41,4.91,4.82,6.69,7.88c-1.19-0.69-2.37-1.39-3.56-2.08c-0.1,0.13-0.21,0.26-0.31,0.39c2.21,2.43,4.42,4.87,6.64,7.3
			c-2.73-1.06-5.17-2.57-7.28-4.6c-5.68-5.49-9.75-12.08-12.7-19.34c-2.65-6.53-4.47-13.33-6.08-20.2
			c-4.02-17.14-3.93-34.36-1.21-51.62c1.25-7.92,3.23-15.68,5.97-23.23c4.75-13.11,11.57-25.1,19.86-36.28
			c0.98-1.32,2.03-2.59,3.04-3.89c0.07,0.76-0.15,1.34-0.4,1.91c-1.44,3.17-2.94,6.31-4.33,9.49c-7.37,16.89-10.95,34.46-9.63,52.96
			c0.83,11.6,3.87,22.45,9.93,32.41c3,4.92,6.28,9.62,10.72,13.41c1.7,1.44,3.25,3.05,4.87,4.58c-0.08,0.15-0.16,0.3-0.25,0.44
			c-7.96-1.74-16.04-3.05-23.86-7.31c0.37,0.88,0.44,1.17,0.6,1.41c1.7,2.56,3.3,5.19,5.15,7.63c2.59,3.41,2.67,3.35,6.86,3.31
			c0.49,0,0.97-0.02,1.46,0c7.18,0.36,13.71,2.54,19.06,7.44c5.9,5.41,9.66,11.91,9.31,20.26c-0.03,0.79,0.27,1.6,0.27,2.4
			c0.02,2.33-0.05,4.66-0.03,6.99c0.01,0.77,0,1.64,0.34,2.28c1.42,2.63,2.94,5.21,4.48,7.78c0.62,1.04,1.47,1.95,2.06,3
			c2.14,3.79,0.12,7.23-4.26,7.33c-0.87,0.02-1.74-0.07-2.69-0.11c-0.08,0.86-0.12,1.66-0.25,2.45c-0.38,2.28-1.61,3.21-3.88,2.92
			C208.95,300.16,208.51,299.91,208.05,299.75z M268.85,211.41c14.48,0.26,28.99-11.54,29.61-29.55c0.56-16.1-12.4-31.61-30.48-31.8
			c-19.25-0.21-30.9,16.15-31,29.63C236.86,196.56,251.17,211.69,268.85,211.41z M359.98,169.64c-1.44,0.49-1.97,1.64-2.44,2.71
			c-3,6.9-5.98,13.81-8.87,20.75c-0.55,1.32-0.77,2.81-0.95,4.25c-0.68,5.45,2.4,10.57,7.49,12.57c0.44,0.17,0.84,0.41,1.22,0.59
			c-0.2,3.29-1.86,5.53-4.66,6.42c-6.23-2.92-6.23-2.92-8.16-2.11c4.42,1.24,6.36,2.63,6.78,4.92c-0.39-0.31-0.77-0.61-1.14-0.92
			c-1.84-1.49-3.97-2.22-6.31-2.08c-2.43,0.16-4.38,1.22-5.84,3.31c-1.48,2.12-3.62,3.39-6.13,4.13c-2.01,0.6-3.92,1.39-5.35,3.13
			c-1.04,1.27-2.35,2.31-3.55,3.46c0.09-1.22,0.43-2.45,0.2-3.55c-0.24-1.11-1.05-2.09-1.64-3.16c-0.06,0.01-0.24-0.01-0.36,0.07
			c-0.2,0.12-0.39,0.29-0.55,0.47c-1.46,1.65-2.11,3.65-2.26,5.78c-0.22,3.15-0.33,6.31-0.39,9.46c-0.02,0.91,0.31,1.83,0.47,2.7
			c2.01,0.42,3.52,0.03,4.66-1.32c1.09-1.29,2.14-2.62,3.1-4.02c1.48-2.16,2.95-4.29,5.79-4.81c0.28-0.05,0.51-0.35,0.73-0.51
			c0.26-1.51-0.5-2.19-1.75-2.52c-2.23-0.58-3.68-0.1-5.08,1.81c-0.83,1.13-1.58,2.33-2.36,3.49c0.29-2.37,1.32-4.32,2.83-6.05
			c1.22-1.39,2.75-1.93,4.35-1.19c1.96,0.91,3.74,0.51,5.61-0.07c1.08-0.34,2.2-0.54,3.29-0.85c4.58-1.29,8.29,0.14,11.3,3.64
			c2.66,3.09,4.67,6.55,6.36,10.27c3.01,6.62,0.81,15.1-4.4,19.8c-0.36,0.33-0.82,0.55-1.23,0.83c0.34-1.35,0.99-2.37,1.49-3.47
			c0.73-1.61,1.71-3.23,1.95-4.93c0.95-6.9-1.49-12.76-6.08-17.83c0.34,1.4,0.95,2.72,1.28,4.1c0.68,2.82,1.33,5.66,1.78,8.52
			c0.37,2.38-0.47,4.5-2.25,6.14c-1.25,1.15-2.58,2.21-3.93,3.23c-1.16,0.87-2.47,1.56-3.61,2.46c-0.98,0.77-2.06,1.6-1.59,3.24
			c1.46,0.44,2.77-0.1,4.05-0.47c1.24-0.37,2.4-1.02,3.59-1.54c-0.04,0.89-0.33,1.43-0.69,1.92c-0.91,1.24-1.95,2.4-2.75,3.7
			c-1.77,2.88-1.32,6.59,0.94,8.7c2.28,2.12,6.16,2.44,8.76,0.81c-0.95,0.05-2.06,0.12-3.17,0.18c6.11-2.53,9.25-5.41,9.84-9.39
			c-0.71,0.92-1.35,1.75-2,2.57c-1.19,1.51-2.74,2.5-4.57,3.06c-3.11,0.95-4.54,0.4-6.7-2.8c1.97,0.99,3.69,2.21,5.8,0.74
			c-1.63-1.24-3.8-1.51-4.73-4.01c2.04,0.74,3.79,1.07,5.32-0.18c1.32-1.09,2.81-2.04,3.4-3.82c-0.99,0.4-1.85,0.95-2.74,1.47
			c-0.91,0.53-1.76,1.3-3.25,0.9c0.47-0.61,0.74-0.98,1.03-1.33c1.58-1.94,3.37-3.74,4.71-5.84c2.89-4.49,5.58-9.1,8.28-13.7
			c0.69-1.18,1.15-2.49,1.66-3.77c0.21-0.52,0.26-1.11,0.39-1.66c-0.71,0.8-1.08,1.7-1.58,2.52c-0.51,0.82-1.15,1.56-1.73,2.34
			c-0.52,0.7-0.9,1.54-1.72,1.98c0.01-0.65,0.19-1.18,0.37-1.71c1.06-3.09,1.68-6.29,1.5-9.53c-0.22-3.81-1.67-7.22-4.27-10.09
			c-0.47-0.52-1.24-1.34-1.09-1.73c0.45-1.23-0.48-1.8-0.89-2.59c-0.44-0.86-1.17-1.59-1.13-2.98c0.66,0.76,1.06,1.27,1.51,1.72
			c1.7,1.68,3.65,2.95,6.01,3.48c2.48,0.56,4.62-0.3,5.66-2.22c0.93-1.71,0.87-2.05-0.63-3.45c-0.16-0.15-0.33-0.32-0.45-0.51
			c-1.73-2.72-2.51-5.62-1.35-8.77c0.52-1.4,0.06-2.34-1.04-3.14c-0.66-0.47-1.32-0.94-1.97-1.41c-2.75-1.99-4.45-4.69-5.1-7.99
			c-0.28-1.42-0.47-2.9-0.39-4.34C359.04,183.08,359.52,176.49,359.98,169.64z M268.88,137.29c2.81-0.15,5.96-0.26,9.11-0.5
			c5.99-0.46,11.87-1.54,17.55-3.5c2.47-0.85,4.75-2.09,6.5-4.11c1.91-2.2,1.86-5.12-0.1-7.26c-0.49-0.53-1.08-0.98-1.64-1.43
			c-3.52-2.82-7.7-4.09-12-4.94c-12.76-2.52-25.57-2.56-38.36-0.33c-3.32,0.58-6.57,1.7-9.77,2.79c-2.22,0.76-4.24,2.03-5.82,3.84
			c-2.14,2.44-2.17,5.17,0.18,7.33c1.4,1.29,3.06,2.41,4.79,3.22c2.19,1.01,4.52,1.79,6.86,2.38
			C253.49,136.65,261,137.1,268.88,137.29z M394.41,266.76c0,0.86,0.01,1.72,0,2.58c-0.17,13.33-2.66,26.23-7.41,38.68
			c-3.84,10.06-9.44,18.97-17.36,26.34c-0.65,0.61-1.36,1.16-2.05,1.73c6.81-8.06,12.09-16.92,15.86-26.68
			c0.61-1.58,1.18-3.19,1.58-4.84c2.63-10.79,4.41-21.73,5.57-32.77c0.53-5.08,0.5-10.18,0.01-15.3
			c-1.15,6.35-3.69,12.21-6.21,18.07c-0.93,2.16-1.97,4.28-2.7,6.5c-2.52,7.6-4.91,15.25-7.4,22.87
			c-4.22,12.94-8.76,25.75-15.4,37.71c-0.56,1.02-1.17,2.01-1.99,3.41c0.87-0.4,1.3-0.59,1.72-0.8c4-2.02,7.53-4.74,10.95-7.6
			c8.11-6.77,14.31-14.94,18.2-24.81c2.86-7.25,4.99-14.7,6.48-22.35c1.14-5.83,1.73-11.69,1.4-17.63
			C395.57,270.11,395.38,268.36,394.41,266.76z M351.31,175.87c-4.13,0.13-6.89,1.9-8.63,5.29c-1.02,1.99-1.42,4.1-1.34,6.34
			c0.14,4-1.42,7.42-3.74,10.55c-1.73,2.33-4.16,3.28-6.96,3.38c-0.7,0.02-1.41-0.27-2.11-0.42c7.55-0.83,11.05-6.36,7.88-13.26
			c0,1.82,0.13,3.29-0.03,4.73c-0.39,3.55-2.17,5.41-5.41,5.9c-2.17,0.32-3.58-0.41-4.56-2.37c-1.84-3.7-1.3-10.37,2.12-14.23
			c-1.06,3.68-2.19,7.16-0.09,10.94c0.07-0.64,0.13-0.96,0.15-1.28c0.18-4.77,1.19-9.26,3.81-13.38c1.38-2.16,2.23-4.63,2.54-7.28
			c-0.73,1.19-1.46,2.38-2.18,3.57c0.6-3.3,2.38-6.32,2.03-10.38c-2.27,6.27-5.84,11.21-8.77,16.51
			c-2.76,4.99-4.39,10.25-2.27,16.06c1.07,2.94-1.02,7.24-4.47,7.73c-0.67-0.68-1.75-1.38-2.29-2.38c-1.5-2.81-1.89-5.9-1.75-9.08
			c0.51,0.84,0.85,1.73,1.23,2.61c0.34,0.78,0.72,1.55,1.08,2.32c-0.67-4.26-1.03-8.42-0.3-12.63c0.31,3.37,0.64,6.7,3.35,9.23
			c-1.56-4.59-2.05-9.3-1.73-14.61c-0.44,1.31-0.71,2.11-0.98,2.91c-0.57-3.39,0.69-6.76-0.83-10.02c-0.38,1.16-0.53,2.34-0.8,3.5
			c-0.79,3.47-1.68,6.92-2.43,10.4c-1.26,5.87-1.12,11.6,2.13,16.92c0.21,0.34,0.3,0.74,0.43,1.07c-0.09,0.31-0.16,0.54-0.24,0.76
			c-0.36,1.01-0.77,2.08,0.09,2.97c0.9,0.93,2.11,0.6,3.23,0.42c0.39-0.06,0.76-0.26,1.14-0.42c0.61-0.25,1.22-0.52,1.82-0.79
			c-0.9,0.93-1.89,1.81-3.02,2.05c-2.59,0.56-3.25,2.34-3.48,4.58c-0.07,0.72-0.35,1.45-0.31,2.16c0.08,1.28,0.17,2.59,0.55,3.8
			c0.43,1.39,1.22,1.69,3.01,1.62c-1.3-3.57-1.38-4.83-0.44-7.52c0.28,2.37,0.59,4.64,3.03,5.73c1.48-0.27,2.58-1.07,3.54-2.09
			c1.39-1.48,2.74-2.99,4.1-4.48c2.48-2.72,5.44-4.57,9.13-5.12c1.41-0.21,2.82-0.36,4.37-0.56c-0.74-1.1-1.72-1.66-2.83-1.9
			c-2.41-0.52-4.82-0.72-7.04,0.69c-1.64,1.04-3.25,2.13-4.89,3.17c-0.41,0.26-0.88,0.41-1.32,0.61c2.32-2.46,4.58-4.95,7.97-5.77
			c5.22-1.26,5.22-1.25,11.09,1.14c-0.96-1.65-0.96-1.65-3.99-3.6c0.31-0.56,0.63-1.12,1.23-2.18c-3.46,1.48-6.19,3.14-9.31,3.84
			c0.33-0.52,0.72-0.91,1.16-1.24c4.49-3.42,7.42-7.74,8.47-13.41c0.6-3.24,1.72-6.39,4.09-8.91
			C348.77,178.8,349.91,177.44,351.31,175.87z M373.68,140.23c1.34,1.99,2.45,3.55,3.47,5.16c2.04,3.24,4.35,6.27,7.17,8.85
			c7.91,7.23,15.05,15.19,22.02,23.29c7.46,8.68,15.59,16.68,23.95,24.47c0.36,0.33,0.8,0.58,1.6,1.15
			c-0.3-0.89-0.39-1.27-0.54-1.62c-1.41-3.27-2.72-6.58-4.26-9.79c-3.98-8.3-9.05-15.89-15.33-22.64c-4.65-5-9.88-9.35-15.34-13.41
			c-3.51-2.61-7.15-5.03-10.71-7.57c-0.44-0.32-0.76-0.8-1.14-1.21c0.12-0.16,0.24-0.31,0.36-0.47c0.88,0.32,1.78,0.59,2.62,0.98
			c2.06,0.96,4.08,1.98,6.13,2.96c0.58,0.28,1.18,0.52,1.79,0.76c0.58,0.23,1.18,0.44,1.77,0.65
			C390.07,146.76,382.63,142.49,373.68,140.23z M387.61,226.37c-0.25,2.57-0.38,5.17-0.78,7.72c-1.54,9.87-3.9,19.51-7.55,28.84
			c-3.55,9.06-8.31,17.36-14.74,24.68c-0.55,0.62-1.17,1.19-1.75,1.78c-0.14-0.09-0.28-0.18-0.42-0.27
			c13.9-18.24,19.55-39.19,20.52-62.12c-1.23,4.16-2.37,7.9-4.33,11.39c0.19-2.08,0.38-4.16,0.57-6.24
			c-1.96,2.46-3.59,4.97-4.49,7.85c-2.74,8.81-5.49,17.62-8.15,26.45c-2.24,7.44-4.42,14.9-7.61,22.01
			c-1.54,3.45-3.19,6.85-4.78,10.28c4.67-2.39,17.29-14.43,22.91-25.46C384.51,258.53,388.53,243.01,387.61,226.37z M381.7,121.28
			c-0.97-0.85-1.91-1.73-2.91-2.55c-5.23-4.28-10.94-7.8-17.12-10.53c-7.13-3.15-14.58-4.8-22.43-4.38
			c-2.22,0.12-4.32,0.67-6.3,1.65c-4.06,2.01-6.39,6.47-5.43,10.91c0.56,2.59,1.45,5.13,2.42,7.6c1.55,3.91,3.39,7.7,4.92,11.62
			c3.1,7.92,5.45,16.04,6.12,24.61c0.21-0.39,0.31-0.77,0.38-1.16c0.84-4.62,0.42-9.22-0.55-13.74c-1.14-5.29-2.66-10.51-3.79-15.81
			c-0.53-2.51-0.73-5.13-0.69-7.7c0.05-2.98,1.08-5.71,3.34-7.83c1.04-0.97,2.23-1.5,3.89-1.35c-0.61,0.78-1.08,1.39-1.89,2.44
			c2.79-1.53,5.04-3.09,8.26-2.85c-1.09,0.59-1.84,1-2.59,1.41c5.95-0.03,11.8,0.26,17.55,1.53
			C370.75,116.45,376.39,118.38,381.7,121.28z M348.02,98.82c-8-4.54-16.39-7.46-25.69-6.62c-4.9,0.44-9.52,1.87-13.67,4.59
			c-6.4,4.2-8.56,10.88-5.72,17.99c0.84,2.1,1.81,4.18,3.01,6.08c3.25,5.12,6.74,10.09,10,15.21c3.13,4.91,6.09,9.92,9.12,14.89
			c0.29,0.47,0.55,0.95,0.83,1.43c0.12-0.58,0-1.04-0.15-1.49c-1.76-5.32-4.16-10.35-6.9-15.23c-2.38-4.23-4.79-8.44-7-12.76
			c-2.21-4.31-2.93-9.01-3.05-13.99c0.52,0.32,0.86,0.52,1.26,0.76c0.17-2.21-0.7-4.43,0.67-6.42c0.5,1.53,0.97,2.97,1.43,4.41
			c0.49-2.64,0.09-5.45,2.68-7.41c-0.61,4.08,0.15,7.72,2.82,10.92c-0.28-1.24,0.02-2.23,0.88-3.12c0.37-0.39,0.51-1,0.75-1.51
			c1.22-2.58,3.12-4.48,5.67-5.77c5.32-2.68,10.99-3.09,16.8-2.62C343.86,98.33,345.94,98.6,348.02,98.82z M413.72,299.38
			c0.14,0.02,0.27,0.04,0.41,0.05c0.81-2.18,1.63-4.35,2.44-6.53c2-5.41,3.48-10.96,3.84-16.73c0.53-8.45-0.46-16.82-1.9-25.12
			c-1.48-8.55-4.13-16.8-7.44-24.82c-0.1-0.24-0.36-0.41-0.89-1c0.88,7.62,2.11,14.72,1.34,21.93c-0.41-2.08-0.05-4.25-0.88-6.3
			c-0.27,0.91-0.34,1.82-0.34,2.73c0.02,6.96,0.25,13.92,0.03,20.88c-0.24,7.88,0.12,15.69,1.42,23.45
			C412.39,291.75,413.06,295.56,413.72,299.38z M440.6,244.55c-0.35-0.6-0.81-1.16-1.03-1.8c-0.63-1.84-1.26-3.68-1.7-5.57
			c-1.84-7.92-4.43-15.58-7.94-22.9c-4.36-9.08-10.64-16.79-17.7-23.89c-0.17-0.17-0.44-0.25-0.66-0.38c0.54,2.02,1.3,3.79,2.18,5.5
			c1.07,2.08,2.28,4.1,3.37,6.18c0.49,0.93,0.87,1.92,1.24,2.9c0.4,1.06,0.74,2.14,1.1,3.22c0.34,1,0.68,1.99,1.01,2.99
			c0.35,1.08,0.52,2.25,1.07,3.21c0.58,1.01-0.43,1.7-0.26,2.4c0.37,1.47,0.98,2.91,1.67,4.26c1.14,2.23,2.56,4.32,3.64,6.58
			c2.78,5.82,6.4,11.07,10.68,15.86c2.19,2.45,4.47,4.83,6.84,7.37c0.57-11.03-4.44-30.27-9.65-36.34
			C438.1,224.22,441.22,233.97,440.6,244.55z M417.03,307.59c-2.68,6.94-5.31,13.9-8.07,20.8c-3.91,9.79-9.47,18.59-16.21,26.66
			c-0.59,0.7-1.25,1.34-1.88,2c-0.12-0.1-0.24-0.21-0.36-0.31c0.42-0.64,0.82-1.3,1.26-1.93c4.85-6.89,9.46-13.92,13.02-21.6
			c3.83-8.28,6.65-16.85,8.18-25.85c0.15-0.88,0.13-1.79,0.19-2.68c-0.15-0.02-0.3-0.05-0.45-0.07c-1.03,2.87-2.07,5.75-3.1,8.62
			c-0.09-0.02-0.17-0.04-0.26-0.07c0.66-3.81,1.31-7.62,1.97-11.43c-0.89,1.4-1.27,2.95-1.88,4.4c-1.38,3.27-2.9,6.49-4.32,9.74
			c-1.91,4.38-3.76,8.78-5.69,13.15c-2.03,4.59-4.32,9.07-6.17,13.72c-2.41,6.09-4.5,12.31-6.71,18.47
			c-0.09,0.24,0.03,0.56,0.08,1.3C404.12,347.95,412.89,329.06,417.03,307.59z M380.2,358.49c-0.2-0.13-0.4-0.26-0.6-0.39
			c-1.82,2.15-3.74,4.23-5.43,6.48c-2.86,3.82-5.64,7.71-8.35,11.64c-5.8,8.42-12.06,16.44-19.33,23.66c-1.54,1.53-3,3.14-4.37,4.58
			c13.35-2.11,38.49-23.79,41.11-35.49c-7.85,10.31-16.09,20.42-27.48,27.55c-0.07-0.29-0.11-0.39-0.09-0.4
			c0.96-0.86,1.9-1.75,2.9-2.57c9.2-7.61,16.16-16.95,21.35-27.65c0.97-2,1.84-4.06,2.16-6.58c-1.62,1.93-3.04,3.62-4.47,5.32
			c-0.11-0.07-0.23-0.14-0.34-0.22C378.25,362.44,379.22,360.46,380.2,358.49z M434.61,263.76c-0.16-0.03-0.32-0.06-0.48-0.1
			c-0.33,1.3-0.64,2.6-1,3.89c-0.3,1.09-0.43,2.29-1,3.22c-2.37,3.84-3.32,8.35-5.83,12.11c-0.25,0.38-0.32,0.92-0.38,1.39
			c-0.19,1.53-0.39,3.05-0.5,4.59c-0.57,7.27-1.64,14.43-3.7,21.47c-2.99,10.21-6.77,20.09-11.54,29.58
			c-5.18,10.29-11.34,19.98-18.44,29.07c-0.61,0.78-1.44,1.43-1.59,2.54c1.74-1.56,3.4-3.18,4.88-4.95
			c7.3-8.71,13.76-17.99,18.66-28.29c3.76-7.89,7.5-15.78,10.07-24.17c1.56-5.11,3.2-10.19,4.6-15.35c2.6-9.61,5-19.26,5.8-29.23
			C434.31,267.6,434.46,265.68,434.61,263.76z M403.39,298.89c-1.48,6.28-3.22,12.5-5.24,18.66c-2.24,6.84-5.42,13.17-9.47,19.08
			c-1.15,1.68-2.49,3.24-3.75,4.85c-0.14-0.09-0.28-0.19-0.42-0.28c3.04-5.95,6.81-11.52,9.11-17.85
			c2.33-6.42,3.85-13.04,5.28-19.69c1.41-6.55,2.26-16.43,1.81-20.08c-0.26,1.05-0.49,1.82-0.64,2.61
			c-1.83,9.85-5.21,19.2-9.23,28.34c-1.98,4.51-4.11,9.02-5.51,13.72c-1.75,5.88-2.83,11.97-4.19,17.97
			c-0.04,0.19,0.1,0.42,0.24,0.9c5.91-5.73,11.33-11.63,14.82-18.95C400.58,318.94,402.79,309.11,403.39,298.89z M397.97,261.07
			c0.16-0.04,0.33-0.08,0.49-0.12c0.22-3.19,0.67-6.38,0.62-9.56c-0.09-6.64-0.3-13.28-0.71-19.9c-0.22-3.6-0.52-7.3-1.53-10.74
			c-2.34-8-5.13-15.86-7.75-23.77c-0.21-0.64-0.54-1.25-0.81-1.87c-0.21,0.56-0.17,1.03-0.06,1.5c0.99,4.52,1.53,9.1,1.69,13.72
			c0.22,6.15,0.28,12.31,0.52,18.46c0.13,3.39,0.33,6.8,0.8,10.16c0.91,6.36,3.02,12.42,5.24,18.42
			C396.94,258.62,397.47,259.84,397.97,261.07z M372.7,341.13c-3.67,2.93-7.12,5.94-9.48,10c-4.13,7.07-8.62,13.9-13.68,20.34
			c-1.11,1.41-2.19,2.85-3.57,4.64c0.78-0.2,1.08-0.26,1.37-0.35c4.53-1.41,8.61-3.75,12.55-6.31c6.12-3.98,11.3-8.93,15.05-15.26
			c0.72-1.22,1.26-2.55,1.88-3.82c-10.73,11.96-18.74,19.34-22.3,20.03c4.54-3.88,8.75-7.94,12.27-12.6
			c3.55-4.7,6.55-9.75,8.02-15.63c-1.26,1.84-2.97,3.07-4.95,4.01c0.44-0.83,1.05-1.53,1.52-2.32
			C371.88,342.99,372.26,342.04,372.7,341.13z M439.55,305.69c-4.36,11.08-8.92,21.96-14.4,32.44c-5.35,10.22-11.6,19.86-18.8,28.86
			c-9.76,12.21-20.9,22.99-33.51,32.26c-14.92,10.98-31.04,19.63-48.57,25.63c-5.15,1.76-10.36,3.35-15.54,5.03
			c0.89,0.06,1.79,0.06,2.63-0.16c4.84-1.28,9.74-2.41,14.49-3.97c19.76-6.52,37.41-16.94,53.69-29.73
			c11.58-9.1,21.69-19.73,30.6-31.44c11.86-15.59,20.87-32.72,27.08-51.32C438.05,310.77,438.77,308.22,439.55,305.69z
			 M267.77,407.09c-0.12-0.17-0.24-0.33-0.37-0.5c-1.98,0.88-3.9,1.94-5.94,2.61c-8.14,2.67-16.29,5.33-24.51,7.77
			c-6.21,1.84-12.53,3.27-19.04,3.59c-2.46,0.12-4.91,0.29-7.84,0.47c8.62,2.01,16.81,2.11,25.05,0.92
			c4.84-0.7,9.39-2.42,13.99-3.95c4.64-1.54,9.01-3.64,13.02-6.41C264.11,410.23,265.9,408.59,267.77,407.09z M178.5,217.78
			c0.11-0.09,0.22-0.17,0.33-0.26c-0.3-0.53-0.58-1.08-0.92-1.59c-5.74-8.73-9.28-18.31-10.65-28.65c-1.1-8.3-0.95-16.63-0.32-24.97
			c0.11-1.49,0.02-3,0.02-4.81c-0.29,0.96-0.49,1.65-0.7,2.33c-1.36,4.43-1.99,8.99-2.56,13.57c-0.5,4.03-0.87,8.03-0.42,12.09
			c1.16,10.63,4.66,20.28,11.72,28.47C176.12,215.29,177.33,216.52,178.5,217.78z M146.18,264.98c-0.11,0.12-0.22,0.24-0.33,0.36
			c0.55,0.74,1.1,1.48,1.65,2.23c0.91,1.23,1.98,2.37,2.69,3.71c1.17,2.21,2.04,4.58,3.17,6.81c1.14,2.24,2.19,4.47,2.68,6.97
			c0.48,2.47,1.52,4.72,4.1,5.71c-0.1,0.22-0.11,0.32-0.17,0.36c-0.39,0.28-0.8,0.54-1.2,0.81c-2.08,1.42-2.61,3.76-1.34,5.89
			c0.99,1.66,2.72,2.36,4.34,1.77c1.4-0.51,2.31-2.27,1.97-4.03c-0.1-0.52-0.49-0.98-0.72-1.49c-0.29-0.63-0.55-1.27-0.76-1.77
			c0.28-0.36,0.35-0.52,0.47-0.61c0.83-0.62,1.81-1.11,2.48-1.87c0.73-0.83,1.17-1.91,1.75-2.87c0.55-0.92,0.43-1.71-0.03-2.71
			c-0.24-0.53,0.37-1.5,0.71-2.21c0.23-0.49,0.66-0.89,0.79-1.06c0.37-2.28-0.76-3.46-2.15-4.54c-3.98-3.09-8.46-5.36-12.87-7.74
			C151.05,267.4,148.6,266.21,146.18,264.98z M346.57,171.29c0.33-0.19,0.7-0.32,0.97-0.57c2.53-2.26,3.79-5.01,3.94-8.48
			c0.19-4.46-1.19-8.65-1.62-12.99c-0.03-0.31-0.2-0.61-0.28-0.92c-1.05-3.63-1.96-7.32-4.26-10.45c-0.18-0.25-0.17-0.62-0.3-0.92
			c-0.99-2.32-1.99-4.63-2.99-6.95c-0.25,1.12-0.27,2.18-0.09,3.19c0.49,2.7,1.02,5.4,1.63,8.07c1.38,6.06,2.97,12.08,4.19,18.17
			C348.55,163.37,348.55,167.35,346.57,171.29z M344.98,230.23c-3.33-0.65-6.83-1.55-10.63-0.47c1.42,3.54-0.46,5.66-2.91,7.55
			c-0.51,0.39-1.05,0.76-1.53,1.19c-1.69,1.53-3.1,3.23-3.59,5.52c1.48,0.85,1.54,0.85,3.34-0.07c4.69-2.39,8.59-5.72,11.87-9.82
			C342.61,232.76,343.83,231.51,344.98,230.23z M404.77,236.63c0.27-5.71-1.72-15.24-4.49-23.81c-1.8-5.56-8.34-17.74-11.31-20.6
			C395,206.66,400.57,221.1,404.77,236.63z M430.32,267.68c0.09,0.01,0.18,0.01,0.27,0.02c0.18-0.69,0.44-1.37,0.54-2.07
			c0.44-3.29,0.89-6.57,1.24-9.87c0.92-8.62-2.03-16.02-7.47-22.9c0.15,0.71,0.23,1.17,0.34,1.62c0.9,3.7,2.03,7.35,2.65,11.1
			c0.72,4.38,0.98,8.84,1.45,13.27C429.65,261.8,429.99,264.74,430.32,267.68z M335.43,158.69c0-1.5,0.14-3.02-0.03-4.51
			c-0.35-3.13-0.73-6.27-1.34-9.36c-0.97-4.96-3.15-9.51-5.16-14.1c-1.89-4.33-4.06-8.54-6.13-12.88c-0.57,0.79-0.33,1.68-0.24,2.53
			c0.34,3,1.25,5.84,2.46,8.6c1.66,3.78,3.34,7.54,4.94,11.35C332.42,146.22,334.33,152.3,335.43,158.69z M435.86,254.21
			c-0.43,8.26,0.14,16.64-1.27,24.89c-1.41,8.23-3.05,16.42-4.59,24.63C437.09,287.84,437.62,271.18,435.86,254.21z M426.62,270.83
			c0.18-12.62-7.8-38.58-13.69-44.99c2.6,7.27,5.5,14.55,7.78,22.02C422.98,255.32,424.62,262.98,426.62,270.83z M401.56,263.92
			c-0.73,1.76-0.77,3.24-0.12,4.7c0.56,1.25,1.17,2.48,1.81,3.69c0.63,1.21,1.31,2.39,1.97,3.59c-0.34-9.02-0.45-18-3.54-26.59
			c0.52,5.61,1.05,11.23,1.61,17.23C402.63,265.55,402.19,264.88,401.56,263.92z M199.62,289.03c-0.47,1.72,0.49,2.54,1.5,3.14
			c2.98,1.78,6.02,3.45,9.04,5.15c0.09,0.05,0.29-0.07,0.63-0.17c-0.4-1.26-0.79-2.53-1.18-3.76
			C205.88,292.88,202.92,290.72,199.62,289.03z M349.19,387.12c-7.11,5.71-13.83,11.11-20.54,16.52
			C336.55,399.69,343.27,394.29,349.19,387.12z M441.82,256.78c-0.52,7.97-1.03,15.72-1.55,23.51
			C442.65,272.61,443.6,264.89,441.82,256.78z M341.31,257.18c2.92-1.23,5.17-2.92,6.99-5.1c1.18-1.42,1.78-3.14,1.31-5.2
			c-1.4,1.79-2.5,3.6-4,4.99c-1.5,1.39-3.39,2.37-5.21,3.6C340.7,256.01,340.94,256.48,341.31,257.18z M349.91,120.43
			c3.61-0.94,7.32-1.05,11-0.67c3.7,0.38,7.36,1.1,11.47,1.74C364.73,118.28,357.44,116.74,349.91,120.43z M407.46,270.97
			c0.92-6.95,0.62-13.79-1.98-20.39C406.14,257.38,406.8,264.17,407.46,270.97z M329.05,221.24c1.87,0.95,3.11,0.92,4.5-0.32
			c1.34-1.2,2.61-2.54,2.21-4.82C332.54,216.8,331.31,219.6,329.05,221.24z M206.73,302.24c-0.28-0.66-0.35-1.39-0.7-1.57
			c-2.23-1.16-4.51-2.2-7.05-3.41C200.37,301.42,202.69,302.93,206.73,302.24z M175.04,316.73c0.64-0.5,1.09-0.86,1.46-1.14
			c-3.47-3.26-6.77-6.36-10.38-9.76C168.04,310.68,172.26,313.04,175.04,316.73z M331.74,245.96c0.94,0.72,1.66,1.27,2.22,1.69
			c1.72-0.33,1.3-1.68,1.78-2.66c0.36,0.25,0.66,0.5,1,0.68c0.33,0.18,0.7,0.28,1.05,0.42c0.32-0.34,0.6-0.54,0.74-0.81
			c0.61-1.17,0.5-2.29-0.23-2.85c-0.73-0.56-1.9-0.33-2.63,0.87c-0.49,0.8-1.15,1.02-1.84,1.38
			C333.2,245.01,332.63,245.41,331.74,245.96z M301.52,89.91c5.52-1.04,10.72-2.02,16.03-3.02
			C311.97,86.3,306.77,87.22,301.52,89.91z M341.74,243.95c1.29-2.42,1.09-3.53-0.77-5.33c-0.87,0.85-1.74,1.7-2.85,2.78
			C339.45,242.33,340.51,243.09,341.74,243.95z M333.81,178.47c-2.29,4.13-4.01,8.36-2.49,13.19
			C331.23,187.09,332.84,182.84,333.81,178.47z M342.24,237.88c0.76,1.42,1.5,2.6,3.02,3.01c1.04-1.99,0.67-3.53-1.26-5.47
			C343.44,236.19,342.89,236.96,342.24,237.88z M358.97,316.85c2.05-3.65,3.71-7.52,4.01-11.86
			C361.15,308.74,359.91,312.7,358.97,316.85z M176.49,319.98c-0.53-2.33-2.6-3.25-4.17-4.61c-1.61-1.38-3.23-2.74-4.85-4.11
			C169.9,314.77,173.12,317.45,176.49,319.98z M344.87,386.7c-0.14-0.15-0.29-0.3-0.43-0.45c-2.89,2.16-5.79,4.32-8.68,6.48
			C339.47,391.65,342.3,389.34,344.87,386.7z M285.69,84.36c3.77-0.5,7.53-0.99,11.3-1.49C293.05,82.18,289.27,82.55,285.69,84.36z
			 M153.89,362.61c2.96,3.54,6.34,6.66,10.5,8.85C160.89,368.51,157.39,365.56,153.89,362.61z M365.21,311.95
			c1.53-2.77,2.23-5.78,2.65-8.87C366.61,305.93,365.6,308.85,365.21,311.95z M306.66,85.28c-2.83-0.43-5.41-0.17-7.77,1.27
			C301.48,86.13,304.07,85.7,306.66,85.28z M340.47,258.46c-1-0.99-1.31-2.49-3.18-1.66c0.34,0.93,0.64,1.77,1.01,2.77
			C339.1,259.16,339.64,258.88,340.47,258.46z"/>
		<path class="st2" d="M182.23,276.33c-0.48,0.73-1.02,0.47-1.68,0.2c-10.3-4.3-18.57-10.96-24.68-20.4
			c-3.93-6.07-6.46-12.68-8.53-19.51c-3.2-10.55-4.3-21.41-4.24-32.39c0.02-2.67,0.37-5.33,0.56-7.99c0.05-0.64,0.07-1.28-0.23-2.02
			c-0.45,1.41-1.01,2.79-1.33,4.23c-1.85,8.46-2.2,17.02-1.53,25.62c0.43,5.5,1.36,10.92,2.98,16.21c1.57,5.15,3.87,9.97,6.65,14.54
			c2.31,3.8,4.91,7.41,7.38,11.12c0.16,0.24,0.25,0.53,0.23,0.97c-6.03-2.61-12.67-3.89-17.37-9.06c-3.25-3.58-5.87-7.52-7.75-11.96
			c-0.93-2.2-1.8-4.42-2.88-6.56c0.81,6.69,3.18,12.87,6.13,18.9c-3.86-2.85-6.07-7.01-9-10.61c1.68,5.02,4.61,9.38,7.37,13.84
			c-3.19-2.81-5.56-6.24-7.52-9.95c-3.39-6.41-5.68-13.23-7.19-20.31c-0.22-1.01-0.47-2.02-0.73-3.11
			c-0.97,0.55-0.78,1.35-0.75,2.02c0.3,7.24,1.26,14.33,3.92,21.15c2.35,6.02,5.88,11.33,9.32,16.72c2.21,3.47,4.44,6.96,6.34,10.6
			c5.22,9.99,12,18.82,19.57,27.1c3.83,4.18,7.52,8.49,11.29,12.72c1.33,1.49,2.72,2.92,4.47,4.81c-5.28-1.87-8.77-5.43-12.86-8.49
			c6.77,10.24,24.69,24.76,42.88,26.05c-0.45,0.38-0.72,0.69-1.07,0.88c-5.81,3.21-11.7,2.57-17.6,0.31
			c-5.81-2.23-11-5.55-15.7-9.56c-3.69-3.14-7.16-6.55-10.66-9.91c-1.14-1.09-2.05-2.42-3.09-3.66c-0.8,0.85-0.2,1.36,0.1,1.88
			c3.07,5.35,6.53,10.42,10.42,15.21c6.16,7.57,13.03,14.41,20.81,20.32c6.82,5.18,14.17,9.38,22.24,12.28
			c4.77,1.71,9.74,2.33,14.76,2.7c0.79,0.06,1.59,0.09,2.4,0.34c-3.42,1.27-6.98,1.55-10.59,1.59c-3.74,0.05-7.47-0.18-11.08-1.1
			c-3.48-0.88-6.87-2.16-10.38-3.03c10.88,7.95,23.07,12.73,36.37,15.21c-1.44,0.2-2.87,0.5-4.31,0.6
			c-8.78,0.58-17.05-1.61-25.03-4.98c-10.38-4.38-19.71-10.49-28.26-17.79c-8.6-7.34-16.07-15.75-22.99-24.66
			c-5.62-7.23-10.75-14.8-15.35-22.72c-0.28-0.49-0.6-0.95-1.15-1.32c0.15,0.43,0.26,0.87,0.45,1.28
			c8.14,17.25,19.23,32.4,32.71,45.84c8.04,8.02,16.52,15.53,25.77,22.15c0.12,0.09,0.19,0.26,0.6,0.83
			c-3.27-1.33-6.11-2.53-8.98-3.65c-9.23-3.59-16.76-9.69-24.01-16.21c-5.68-5.1-10.99-10.55-15.47-16.74
			c-4.75-6.57-8.95-13.47-11.59-21.24c-1.45-4.28-3.51-8.36-5.1-12.6c-3.16-8.45-5.13-17.2-6.23-26.16
			c-0.2-1.66-0.49-3.31-0.79-4.95c0.03,8.29,0.85,16.48,2.73,24.57c4.14,17.76,11.63,34.12,20.76,49.8
			c2.48,4.27,5.08,8.47,7.77,12.95c-0.51-0.28-0.92-0.4-1.18-0.66c-2.8-2.8-5.58-5.62-8.37-8.44c-0.17-0.17-0.28-0.44-0.48-0.54
			c-3.8-2.04-5.45-5.91-7.64-9.24c-4.06-6.17-7.27-12.81-9.88-19.73c-1.74-4.61-3.34-9.28-4.95-13.95
			c-2.07-5.99-3.18-12.2-4.27-18.42c-0.22-1.27-0.51-2.53-1.04-3.76c0.13,1.83,0.28,3.66,0.39,5.5c0.54,9.43,2.52,18.6,5.01,27.68
			c2.5,9.14,6.52,17.61,11.45,25.65c3.05,4.97,6.49,9.68,10.65,13.82c0.29,0.29,0.75,0.54,0.82,0.87c0.4,1.85,1.99,2.67,3.18,3.83
			c1.29,1.26,2.56,2.25,4.52,2.75c2.52,0.64,4.76,2.33,7.13,3.55c1.54,0.8,3.09,1.57,4.84,2.04c-1.05-1.23-2.1-2.45-3.15-3.68
			c0.09-0.09,0.19-0.18,0.28-0.28c2,0.99,3.99,1.98,5.99,2.96c11.4,5.63,23.4,9.41,35.81,12.07c7.88,1.69,15.8,2.58,23.87,2.43
			c8.11-0.16,15.71-1.93,22.7-6.11c0.2-0.12,0.44-0.15,1.04-0.34c-1.44,2.55-3.3,4.31-5.51,5.51c-2.98,1.61-6.06,3.14-9.26,4.22
			c-7.18,2.43-14.62,3.62-22.23,3.37c-6.53-0.21-12.79-1.85-19-3.72c-8.66-2.6-16.7-6.61-24.7-10.72c-3.15-1.62-6.31-3.24-9.92-5.09
			c0.57,1.4,1.35,1.93,2.1,2.43c2.68,1.8,5.32,3.66,8.09,5.32c4.36,2.62,8.67,5.32,13.31,7.45c6.71,3.08,13.5,5.86,20.87,6.98
			c3.6,0.54,7.14,1.56,10.75,1.84c5.48,0.43,11,0.58,16.5,0.53c9.81-0.07,19.33-1.76,28.39-5.67c0.28-0.12,0.61-0.14,1.4-0.32
			c-0.57,0.64-0.81,0.98-1.11,1.24c-4.13,3.48-8.81,6.02-13.72,8.19c-9.3,4.11-19.06,6.14-29.2,6.64
			c-6.27,0.31-12.51,0.24-18.54-1.57c-4.63-1.39-9.2-3.13-13.62-5.09c-6.37-2.81-12.51-6.12-18.38-9.89
			c-1.15-0.74-2.24-1.58-3.26-2.55c5.35,2.34,10.71,4.58,16.56,5.73c-0.44-0.37-0.83-0.84-1.33-1.11c-3.13-1.7-6.25-3.42-9.44-5
			c-6.76-3.35-13.3-7.07-19.47-11.41c-1.95-1.37-3.71-3.02-5.43-4.72c7.33,4.01,14.01,9.11,21.86,12.18
			c-0.52-0.99-1.47-1.51-2.35-2.06c-15.99-10.01-28.65-23.21-37.72-39.74c-5.12-9.32-9.2-19.11-11.93-29.42
			c-0.35-1.32-0.78-2.63-1.26-4.24c-0.09,3.09,1.35,11.02,3.43,17.41c1.82,5.59,3.99,11.07,6.02,16.64c-0.45-0.8-0.88-1.6-1.34-2.38
			c-4.53-7.75-7.36-16.16-9.97-24.71c-2.56-8.4-4.35-16.95-5.44-25.62c-0.72-5.78-0.92-11.62-1.33-17.43
			c-0.11-1.51-0.15-3.03-0.42-4.53c-2.71,18.25-1.08,36.12,4.55,53.73c-0.24-0.41-0.52-0.81-0.71-1.25
			c-3.22-7.37-5.77-14.95-7.42-22.83c-0.95-4.51-2.1-8.99-2.83-13.53c-1.11-6.91-1.11-13.9-0.61-20.85
			c0.55-7.67,1.36-15.32,2.27-22.95c0.46-3.85,1.35-7.64,2.11-11.45c0.87-4.37,1.74-8.74,2.72-13.08c0.94-4.17,2.13-8.29,3.01-12.48
			c0.94-4.45,2.4-8.73,3.89-13c0.28-0.81,0.5-1.65,0.74-2.48c-0.16-0.07-0.33-0.13-0.49-0.2c-0.37,0.83-0.78,1.64-1.09,2.49
			c-4.89,13.44-8.06,27.32-10.62,41.35c-1.27,7.01-2.51,14.02-3.61,21.06c-0.72,4.63-1.16,9.31-2.06,14.04
			c-0.17-0.85-0.42-1.69-0.49-2.55c-0.22-2.66-0.49-5.33-0.54-8c-0.12-6.24-0.27-12.48-0.14-18.71c0.19-9.18,1.8-18.19,3.76-27.15
			c3.88-17.78,10.33-34.58,19.59-50.24c10.29-17.41,22.81-33.05,38.32-46.15c19.95-16.85,42.44-29.01,67.51-36.38
			c10.37-3.05,20.94-4.9,31.7-5.91c8.99-0.85,17.96-0.87,26.94-0.25c2.24,0.15,4.47,0.54,6.69,0.94
			c-11.85,2.97-23.68,5.83-34.96,10.53c-18.75,7.83-33.88,20.12-45.14,37.06c-5.88,8.84-10.22,18.38-12.62,28.75
			c-3.45,14.86-3.76,29.81,0.56,44.46c6.56,22.22,19.62,39.61,40.19,50.85c8.97,4.9,18.65,7.79,28.78,9.16
			c6.73,0.91,13.52,1.58,20.18,2.86c29.23,5.65,50.33,28.75,56.89,55.08c1.99,7.99,2.91,16.13,2.39,24.34
			c-0.64,10.01-3.04,19.64-7.03,28.88c-3.65,8.47-8.54,16.18-14.4,23.26c-10.89,13.16-24.15,23.16-40.04,29.55
			c-8.63,3.47-17.59,5.54-26.88,6.08c-1.05,0.06-2.1,0.01-3.18-0.09c6.15-1.61,12.41-2.86,17.9-6.35
			c-8.44,2.31-16.98,3.85-25.77,3.46c8.74-1.59,17.58-2.79,25.42-7.57c-3.59,0.83-7.19,1.67-10.78,2.5
			c-0.05-0.14-0.11-0.28-0.16-0.42c1.78-0.91,3.61-1.73,5.32-2.74c1.81-1.07,3.57-2.25,5.24-3.52c1.67-1.27,3.2-2.71,4.7-4.23
			c-2.36,0.52-4.23,2.32-7.16,2.5c4.68-3.65,7.13-8.32,9.35-13.72c-3.58,1.88-6.74,3.7-10.04,5.2c-3.3,1.5-6.79,2.54-10.5,3.03
			c5.73-4.38,10.33-9.66,13.86-16.38c-0.76,0.33-1.24,0.48-1.66,0.72c-6.38,3.58-12.95,6.71-20.29,7.77
			c-2.71,0.39-5.45,0.62-8.29,0.72c8.08-5.07,14.67-11.18,16.22-21.26c-10.83,9.59-23.19,12.41-37.06,8.84
			c5.79,0.41,11.31-0.54,16.44-3.35c1.76-0.96,3.45-2.04,4.96-4.14c-7.54,0.73-14.03-1.38-20.78-4.71
			c6.37-1.43,12.07-3.11,16.29-8.26c-0.65-0.04-1.03-0.12-1.38-0.07c-7.06,1.05-13.91-0.11-20.61-2.15
			c-8.07-2.47-15.34-6.47-21.73-12.03c-2.06-1.79-3.64-3.88-4.8-6.84c7.46,2.48,14.69,2.83,21.91,0.18
			c-2.63-0.36-5.26-0.73-7.88-1.09c4.09-1.69,7.21-4.4,9.89-8.21c-1.01-0.08-1.7-0.17-2.39-0.18c-6.11-0.04-11.81-1.77-17.35-4.2
			c-1.28-0.56-1.87-1.38-1.78-2.81c0.17-2.72,0.67-5.32,2.37-7.53c1.57-2.05,2.4-2.29,4.78-1.37c3.88,1.51,7.86,2.5,12.03,2.73
			c3.37,0.19,6.63-0.21,9.73-1.62c0.29-0.13,0.56-0.31,0.83-0.48c0.06-0.04,0.08-0.14,0.19-0.35c-1.61-1.79-3.32-3.59-4.91-5.48
			c-1.6-1.92-3.09-3.94-4.67-5.98c0.18-0.54,0.33-1.08,0.55-1.59c0.45-1.03,0.54-2.01-0.12-3c-0.55-0.81-0.7-1.74,0-2.47
			c1.37-1.43,1.33-3.01,0.74-4.71l-0.07,0.07c0.46,0.16,0.9,0.41,1.37,0.47c2.27,0.28,3.5-0.65,3.88-2.92
			c0.13-0.79,0.16-1.59,0.25-2.45c0.95,0.04,1.82,0.13,2.69,0.11c4.38-0.1,6.4-3.54,4.26-7.33c-0.59-1.05-1.44-1.96-2.06-3
			c-1.54-2.57-3.06-5.14-4.48-7.78c-0.34-0.64-0.33-1.51-0.34-2.28c-0.02-2.33,0.05-4.66,0.03-6.99c-0.01-0.8-0.31-1.6-0.27-2.4
			c0.35-8.35-3.41-14.85-9.31-20.26c-5.35-4.9-11.88-7.07-19.06-7.44c-0.48-0.02-0.97-0.01-1.46,0c-4.19,0.04-4.27,0.1-6.86-3.31
			c-1.85-2.44-3.45-5.08-5.15-7.63c-0.16-0.24-0.23-0.53-0.6-1.41c7.82,4.26,15.9,5.57,23.86,7.31c0.08-0.15,0.16-0.3,0.25-0.44
			c-1.62-1.53-3.18-3.14-4.87-4.58c-4.45-3.78-7.73-8.48-10.72-13.41c-6.06-9.95-9.1-20.81-9.93-32.41
			c-1.32-18.51,2.26-36.07,9.63-52.96c1.39-3.19,2.89-6.33,4.33-9.49c0.26-0.56,0.47-1.15,0.4-1.91c-1.02,1.29-2.06,2.57-3.04,3.89
			c-8.29,11.18-15.12,23.17-19.86,36.28c-2.73,7.55-4.72,15.31-5.97,23.23c-2.72,17.27-2.81,34.49,1.21,51.62
			c1.61,6.87,3.43,13.67,6.08,20.2c2.95,7.26,7.01,13.85,12.7,19.34c2.1,2.03,4.55,3.54,7.28,4.6L182.23,276.33z M299.07,343.21
			c0.5-16.22-13.19-31.48-31.56-31.22c-18.33,0.26-31.68,13.86-31.69,32.27c-0.01,14.85,12.14,31.18,32.04,30.89
			C285.2,374.88,299.52,360.13,299.07,343.21z"/>
		<path class="st2" d="M268.85,211.41c-17.67,0.28-31.98-14.85-31.86-31.72c0.1-13.49,11.75-29.84,31-29.63
			c18.08,0.2,31.04,15.71,30.48,31.8C297.83,199.87,283.33,211.67,268.85,211.41z M267.99,209.11c-3.25-0.95-6.18-1.82-9.11-2.68
			c-3.1-0.9-5.62-2.79-8.15-4.69c-2.49-1.87-4.56-4.16-6.16-6.8c-1.57-2.6-2.87-5.36-4.41-8.28
			C241.74,196.94,253.15,209.52,267.99,209.11z"/>
		<path class="st2" d="M182.29,276.4c-2.21-2.43-4.42-4.87-6.64-7.3c0.1-0.13,0.21-0.26,0.31-0.39c1.19,0.69,2.37,1.39,3.56,2.08
			c-1.78-3.06-5.24-4.47-6.69-7.88c0.78,0.58,1.53,1.19,2.33,1.72c0.77,0.52,1.59,0.96,2.53,1.2c-3.01-2.76-6.02-5.52-9.03-8.29
			c0.12-0.15,0.25-0.3,0.37-0.45c3.14,2.03,5.29,5.4,8.96,6.77c-1.57-1.77-3.21-3.49-4.7-5.32c-1.45-1.78-2.76-3.68-3.96-5.74
			c2.58,2.25,5.43,3.87,8.68,4.82c-2.97-2.4-5.5-5.14-7.17-8.62c2.93,2.47,5.85,4.95,8.78,7.42c0.14-0.12,0.28-0.23,0.41-0.35
			c-1.19-1.66-2.38-3.33-3.56-4.99c0.12-0.12,0.24-0.24,0.36-0.36c0.79,0.57,1.58,1.14,2.37,1.7c-1.09-2.57-4.13-3.31-5.4-6.13
			c1.9,1.08,3.55,2.05,5.24,2.96c1.76,0.95,3.55,1.86,5.55,2.55c-2.52-2.36-5.05-4.71-7.57-7.07c0.12-0.16,0.24-0.32,0.36-0.47
			c3.1,1.77,6.2,3.55,9.3,5.32c-1.4-2.38-3.5-3.95-5.57-5.53c-3.54-2.7-7.19-5.26-10.66-8.05c-3.71-2.98-6.51-6.73-8.68-10.97
			c-0.29-0.57-0.6-1.14-0.91-1.7c-0.03-0.05-0.12-0.07-0.33-0.18c0.67,4.28,2.54,7.98,4.34,11.81c-0.58-0.7-1.2-1.36-1.72-2.09
			c-3.81-5.33-5.78-11.34-6.6-17.8c-0.77-6.05-0.79-12.12-0.39-18.19c0.13-1.93,0.46-3.85,0.8-5.75c0.34-1.9,0.83-3.78,1.34-6.09
			c0.22,1.6,0.43,2.84,0.56,4.07c1.09,9.95,4.99,18.49,12.29,25.48c4.1,3.93,8.37,7.64,12.97,10.97c0.98,0.71,1.9,1.49,2.95,2.32
			c-2.08,0.26-5.53-0.62-11.19-3.4c-3.47-1.7-6.67-3.93-10.08-5.99c0.02,0.35-0.05,0.81,0.07,1.2c2.39,7.92,6.78,14.66,12.46,20.58
			c2.77,2.88,6.37,4.52,10.21,5.85c-1.82-1.76-3.64-3.51-5.5-5.3c1.66-0.49,4.18-0.65,6.15-0.25c8.66,1.73,15.37,6.2,19.66,14.05
			c0.98,1.79,1.14,2.66,1.03,5.12c-1.92,0.44-1.92,0.44-6.53-4.01c1.28,3.84,4.5,5.61,8.07,7.15c-1.24,1.79-2.91,1.65-4.34,0.97
			c-1.73-0.82-3.37-1.93-4.83-3.17c-2.11-1.8-3.69-4.07-4.97-6.54c-0.36-0.7-0.74-1.4-1.2-2.02c1.63,7.67,4.99,13.77,14.3,14.87
			c-2.86,1.57-5.13,1.13-7.27-0.11c-1.75-1.01-3.36-2.26-5.02-3.42c-0.73-0.51-1.43-1.04-2.25-1.44c2.54,2.81,4.91,5.82,8.49,7.41
			c1.07,0.47,2.33,0.57,3.52,0.71c0.95,0.11,1.93,0.02,3.18,0.02c0.12,0.73,0.36,1.49,0.33,2.24c-0.05,1.67-0.87,2.16-2.56,2
			c-4.34-0.4-7.77-2.46-10.78-5.5c-2.68-2.71-5.55-5.24-9.24-6.54c-2.78-0.98-5.64-1.3-8.73-0.61c0.65,0.4,1.28,0.85,1.95,1.2
			c2.79,1.46,5.19,3.36,6.63,6.22c2.15,4.28,5.69,6.47,10.29,7.23c0.71,0.12,1.4,0.39,2.4,0.68c-3.19,2.36-6.2,1.92-9.38,0.32
			c2.16,2.4,5.55,3.45,8.69,2.71c1.02-0.24,1.98-0.69,2.98-1.02c2.42-0.79,4.84-1.57,7.28-2.36c2.83,4.52,5.6,8.96,8.32,13.31
			c-1.82,2.48-3.43,2.84-5.64,1.32c-0.72-0.5-1.29-1.21-1.99-1.76c-0.95-0.74-1.89-1.53-2.94-2.1c-1.47-0.81-2.36-0.67-4.33,0.32
			c-0.42-2.63,0-3.38,3.05-5.08c-0.8,0-1.31-0.08-1.76,0.03c-0.37,0.09-0.7,0.4-1.02,0.64c-2.44,1.8-5.16,2.95-8.06,3.82
			c-4.8,1.45-6.88,6.34-4.69,10.97c0.56-1.95,0.76-3.93,2.36-5.41c0.2,1.83,0.26,3.58,0.62,5.26c0.9,4.23,3.26,7.14,7.7,8.06
			c1.14,0.24,2.49,0.3,3.08,2.03c-1.45,2.32-3.93,1.6-6.43,1.67c1.33,1.71,2.88,2.66,4.68,3.07c1.81,0.41,3.02,1.46,3.98,2.93
			c0.9,1.39,1.83,2.77,2.43,4.43c-1.83-1.07-3.67-2.14-5.78-3.37c0.52,0.94,0.94,1.68,1.35,2.42c-0.08,0.09-0.17,0.18-0.25,0.26
			c-2-1.65-3.99-3.3-5.99-4.95c-0.08,0.06-0.15,0.12-0.23,0.18c1.06,1.33,2.13,2.65,3.54,4.41c-2.4-0.6-3.06-2.39-4.68-3.94
			c0.34,1.3,0.56,2.13,0.93,3.56c-1.81-2.17-3.26-3.91-4.97-5.95c0.05,0.77,0.07,1.17,0.09,1.57c-0.15,0.01-0.38,0.07-0.4,0.02
			c-1.11-2.23-2.22-4.47-3.27-6.73c-0.33-0.72-0.5-1.52-0.84-2.25c-0.14,3.12,1.05,5.94,1.9,8.87c-2.57-2.39-3.81-5.57-5.26-8.5
			c-0.46,2.14-0.34,3.13,1.03,6.94c-2-2.35-2.71-4.83-2.8-7.49c-0.09-2.57-0.02-5.15-0.02-7.87c-1.69,3.31-1.69,5.82-1.51,11.46
			c-1.36-1.64-1.72-2.6-1.89-7.12c-0.1-2.55,0.18-5.12,0.29-7.81c-2.61,4.15-1.43,8.72-1.78,13.66c-1.39-3.58-1.16-6.87-1.78-10.07
			c-0.8,1.25-1.01,2.63-1.04,4.03c-0.04,1.45-0.01,2.91-0.2,4.37c-2.11-5.27-1.31-10.56,0.16-15.98c-2.03,1.86-3.38,7.29-3.8,13.05
			c-0.18-0.89-0.46-1.77-0.51-2.67c-0.19-3.41,0.01-6.8,0.77-10.14c0.09-0.38,0.13-0.77,0.21-1.29c-1.69,1.5-2.71,4.37-3.41,8.79
			c-0.12-0.78-0.32-1.55-0.36-2.33c-0.28-5.09,1.24-9.57,4.69-13.36c0.27-0.29,0.6-0.68,0.93-0.72c3.07-0.39,4.99-2.85,8.17-4.28
			c-0.64-0.35-0.99-0.54-1.34-0.74L182.29,276.4z"/>
		<path class="st2" d="M365.94,141.51c1.94,2.16,3.76,4.45,5.84,6.47c2.66,2.58,5.56,4.93,8.31,7.43
			c5.47,4.97,10.41,10.43,14.79,16.38c4.76,6.47,9.15,13.15,12.71,20.37c3.43,6.96,5.41,14.37,7.03,21.9
			c0.25,1.17,0.45,2.36,0.37,3.72c-0.34-0.35-0.7-0.67-1-1.05c-4.68-6-9.43-11.95-14.01-18.03c-2.39-3.16-4.5-6.53-6.71-9.83
			c-6.1-9.07-12.07-18.23-18.33-27.18c-2.77-3.97-6.11-7.54-9.2-11.28c-0.23-0.28-0.53-0.5-1.06-0.54c1.07,1.85,2.21,3.67,3.2,5.57
			c3.74,7.18,7.56,14.32,11.1,21.59c4.43,9.11,5.79,18.86,4.92,28.87c-0.71,8.25-3.25,15.99-7.75,23.02
			c-0.25,0.39-0.56,0.75-0.88,1.19c0-1.72-0.03-3.29,0.01-4.86c0.2-7.57-0.92-15.01-1.95-22.48c-1.18-8.5-2.22-17.02-3.31-25.53
			c-0.32-2.49-0.44-5.01-0.9-7.48c-0.57-3.09-1.27-6.17-2.11-9.2c-0.84-3.04-1.91-6.01-2.91-9c-0.3-0.91-0.71-1.78-1.28-2.63
			c1.41,8.28,3.4,16.48,3.63,25.42c-3.55-11.24-8.15-21.49-13.49-31.41c-1.34-2.49-2.86-4.89-4.23-7.38
			c-0.66-1.2-1.26-2.46-1.69-3.75c-0.87-2.66,0.07-5.17,2.58-6.32c1.51-0.69,3.23-1.13,4.88-1.21c4.92-0.23,9.68,0.86,14.25,2.56
			c14.02,5.21,26.4,12.98,36.75,23.87c0.77,0.82,1.5,1.68,2.15,2.64c-7.45-5.37-14.41-11.48-22.97-15.1c-0.1,0.14-0.2,0.28-0.3,0.41
			c2.26,1.69,4.52,3.39,6.78,5.08c-0.07,0.15-0.15,0.29-0.22,0.44c-7.68-3.76-15.64-6.74-24.3-9.23c1.09,1.39,1.89,2.42,2.7,3.44
			c-4.55-2.2-9.12-4.12-14.14-5.12c0.91,0.63,1.82,1.27,2.73,1.9c0.93,0.64,1.88,1.25,2.82,1.88c0.99,0.67,1.97,1.35,2.96,2.03
			C364.44,139.9,365.19,140.71,365.94,141.51z M411.06,209.41c0.07-7.6-12.77-32.57-18.29-35.68c0.68,1.05,1.29,1.9,1.81,2.8
			c1.83,3.24,3.77,6.42,5.39,9.77c3.41,7.06,6.64,14.2,9.97,21.31C410.18,208.16,410.57,208.64,411.06,209.41z M378.66,219.96
			c3.49-4.95,4.64-21.04,2.19-28.35c-0.09,4.49,0.03,9.25-0.33,13.97C380.15,210.39,379.3,215.17,378.66,219.96z"/>
		<path class="st2" d="M359.98,169.64c-0.46,6.85-0.94,13.44-1.31,20.03c-0.08,1.44,0.11,2.92,0.39,4.34c0.65,3.31,2.35,6,5.1,7.99
			c0.65,0.47,1.32,0.94,1.97,1.41c1.1,0.79,1.56,1.74,1.04,3.14c-1.16,3.15-0.38,6.04,1.35,8.77c0.12,0.19,0.28,0.36,0.45,0.51
			c1.5,1.41,1.56,1.74,0.63,3.45c-1.04,1.91-3.18,2.78-5.66,2.22c-2.36-0.53-4.31-1.81-6.01-3.48c-0.46-0.45-0.85-0.97-1.51-1.72
			c-0.04,1.39,0.69,2.12,1.13,2.98c0.41,0.79,1.34,1.36,0.89,2.59c-0.15,0.4,0.62,1.22,1.09,1.73c2.6,2.87,4.05,6.27,4.27,10.09
			c0.18,3.24-0.44,6.44-1.5,9.53c-0.18,0.53-0.35,1.06-0.37,1.71c0.82-0.45,1.2-1.28,1.72-1.98c0.58-0.78,1.22-1.52,1.73-2.34
			c0.5-0.82,0.87-1.72,1.58-2.52c-0.12,0.56-0.18,1.14-0.39,1.66c-0.51,1.28-0.97,2.59-1.66,3.77c-2.7,4.6-5.39,9.22-8.28,13.7
			c-1.34,2.09-3.13,3.9-4.71,5.84c-0.29,0.36-0.56,0.73-1.03,1.33c1.49,0.4,2.34-0.37,3.25-0.9c0.88-0.52,1.75-1.07,2.74-1.47
			c-0.6,1.78-2.08,2.73-3.4,3.82c-1.53,1.26-3.28,0.93-5.32,0.18c0.93,2.5,3.1,2.77,4.73,4.01c-2.11,1.47-3.83,0.25-5.8-0.74
			c2.16,3.2,3.59,3.75,6.7,2.8c1.83-0.56,3.37-1.55,4.57-3.06c0.65-0.82,1.29-1.65,2-2.57c-0.59,3.99-3.73,6.87-9.84,9.39
			c1.11-0.06,2.22-0.13,3.17-0.18c-2.6,1.63-6.48,1.31-8.76-0.81c-2.26-2.11-2.71-5.82-0.94-8.7c0.8-1.3,1.84-2.46,2.75-3.7
			c0.36-0.49,0.65-1.03,0.69-1.92c-1.19,0.53-2.35,1.18-3.59,1.54c-1.28,0.38-2.59,0.92-4.05,0.47c-0.47-1.64,0.61-2.47,1.59-3.24
			c1.14-0.9,2.45-1.59,3.61-2.46c1.36-1.02,2.69-2.09,3.93-3.23c1.78-1.64,2.62-3.76,2.25-6.14c-0.45-2.86-1.1-5.7-1.78-8.52
			c-0.33-1.38-0.94-2.7-1.28-4.1c4.59,5.07,7.03,10.93,6.08,17.83c-0.23,1.7-1.22,3.32-1.95,4.93c-0.49,1.09-1.15,2.11-1.49,3.47
			c0.41-0.27,0.87-0.5,1.23-0.83c5.2-4.7,7.4-13.17,4.4-19.8c-1.69-3.72-3.71-7.19-6.36-10.27c-3.01-3.5-6.72-4.93-11.3-3.64
			c-1.09,0.31-2.21,0.51-3.29,0.85c-1.87,0.58-3.64,0.98-5.61,0.07c-1.6-0.74-3.13-0.2-4.35,1.19c-1.51,1.73-2.54,3.68-2.83,6.05
			c0.78-1.17,1.52-2.36,2.36-3.49c1.4-1.9,2.86-2.39,5.08-1.81c1.25,0.33,2,1.01,1.75,2.52c-0.21,0.16-0.45,0.46-0.73,0.51
			c-2.84,0.53-4.3,2.65-5.79,4.81c-0.95,1.39-2.01,2.73-3.1,4.02c-1.15,1.35-2.66,1.73-4.66,1.32c-0.16-0.87-0.48-1.79-0.47-2.7
			c0.06-3.16,0.17-6.31,0.39-9.46c0.15-2.13,0.8-4.13,2.26-5.78c0.16-0.18,0.34-0.35,0.55-0.47c0.12-0.08,0.3-0.06,0.36-0.07
			c0.58,1.07,1.4,2.05,1.64,3.16c0.24,1.1-0.1,2.33-0.2,3.55c1.2-1.15,2.51-2.19,3.55-3.46c1.43-1.74,3.34-2.53,5.35-3.13
			c2.5-0.74,4.65-2.02,6.13-4.13c1.46-2.09,3.41-3.15,5.84-3.31c2.34-0.15,4.47,0.59,6.31,2.08c0.37,0.3,0.75,0.6,1.14,0.92
			c-0.42-2.28-2.36-3.68-6.78-4.92c1.93-0.81,1.93-0.81,8.16,2.11c2.8-0.89,4.46-3.13,4.66-6.42c-0.37-0.18-0.78-0.42-1.22-0.59
			c-5.09-2-8.17-7.12-7.49-12.57c0.18-1.44,0.4-2.93,0.95-4.25c2.89-6.95,5.86-13.86,8.87-20.75
			C358,171.28,358.54,170.12,359.98,169.64z M357.93,209.33c0.08,0.14,0.21,0.27,0.23,0.42c0.07,0.56,0.12,1.12,0.16,1.69
			c0.25,3.58,2.72,5.23,5.6,5.72c0.95,0.16,2.02,0.28,2.58-0.8c0.5-0.97-0.21-1.67-0.75-2.38c-0.1-0.13-0.19-0.27-0.31-0.38
			c-1.33-1.19-1.34-2.62-0.91-4.23c0.32-1.22,0.44-2.49,0.66-3.77c-1.75-1.29-3.28-2.43-4.76-3.52c-1.06,0.61-0.52,2.85-2.57,1.97
			c0.6-2.19-0.17-4.19-0.64-6.21c-0.93-3.96-1.55-7.92-0.93-12.01c0.19-1.24,0.03-2.53,0.03-3.8c-1.4,2.21-2.45,4.53-3.61,6.81
			c-1.34,2.63-2.02,5.46-2.44,8.34c-0.69,4.72,1.04,8.4,5.07,10.95C356.12,208.64,357.05,208.94,357.93,209.33z"/>
		<path class="st2" d="M268.88,137.29c-7.88-0.19-15.38-0.65-22.72-2.5c-2.34-0.59-4.67-1.36-6.86-2.38
			c-1.73-0.8-3.39-1.92-4.79-3.22c-2.35-2.16-2.32-4.9-0.18-7.33c1.58-1.81,3.6-3.08,5.82-3.84c3.2-1.1,6.45-2.21,9.77-2.79
			c12.79-2.23,25.6-2.19,38.36,0.33c4.3,0.85,8.49,2.12,12,4.94c0.57,0.45,1.15,0.9,1.64,1.43c1.97,2.14,2.01,5.06,0.1,7.26
			c-1.75,2.01-4.03,3.26-6.5,4.11c-5.69,1.96-11.56,3.04-17.55,3.5C274.84,137.04,271.69,137.14,268.88,137.29z M239.93,125.94
			c0.83,0.45,1.56,0.98,2.37,1.26c1.9,0.68,3.8,1.42,5.77,1.83c12.76,2.69,25.57,2.56,38.37,0.33c2.77-0.48,5.47-1.43,8.17-2.26
			c0.97-0.3,2.04-0.71,1.97-2.28c-1.77-1.34-3.94-1.99-6.12-2.54c-5.83-1.46-11.76-2.24-17.76-2.48c-6.49-0.26-12.95,0-19.37,1.05
			c-3.75,0.61-7.51,1.22-11.04,2.74C241.36,124.01,240.28,124.29,239.93,125.94z"/>
		<path class="st2" d="M394.41,266.76c0.98,1.6,1.16,3.35,1.26,5.11c0.33,5.94-0.26,11.8-1.4,17.63c-1.49,7.64-3.62,15.1-6.48,22.35
			c-3.89,9.86-10.09,18.04-18.2,24.81c-3.42,2.86-6.95,5.58-10.95,7.6c-0.42,0.21-0.85,0.39-1.72,0.8c0.82-1.4,1.43-2.4,1.99-3.41
			c6.64-11.95,11.18-24.77,15.4-37.71c2.49-7.62,4.87-15.27,7.4-22.87c0.74-2.22,1.78-4.34,2.7-6.5c2.52-5.87,5.06-11.72,6.21-18.07
			c0.49,5.12,0.52,10.22-0.01,15.3c-1.16,11.04-2.94,21.98-5.57,32.77c-0.4,1.64-0.97,3.26-1.58,4.84
			c-3.78,9.76-9.06,18.62-15.86,26.68c0.68-0.58,1.39-1.12,2.05-1.73c7.92-7.37,13.52-16.28,17.36-26.34
			c4.75-12.45,7.24-25.35,7.41-38.68C394.41,268.48,394.41,267.62,394.41,266.76z"/>
		<path class="st2" d="M351.31,175.87c-1.39,1.57-2.53,2.93-3.75,4.21c-2.38,2.51-3.5,5.67-4.09,8.91
			c-1.04,5.67-3.97,9.99-8.47,13.41c-0.44,0.33-0.83,0.72-1.16,1.24c3.12-0.69,5.85-2.36,9.31-3.84c-0.6,1.06-0.92,1.62-1.23,2.18
			c3.03,1.95,3.03,1.95,3.99,3.6c-5.87-2.39-5.87-2.39-11.09-1.14c-3.39,0.82-5.65,3.3-7.97,5.77c0.44-0.2,0.91-0.36,1.32-0.61
			c1.64-1.04,3.24-2.13,4.89-3.17c2.22-1.41,4.64-1.21,7.04-0.69c1.11,0.24,2.09,0.8,2.83,1.9c-1.54,0.2-2.96,0.35-4.37,0.56
			c-3.69,0.55-6.65,2.4-9.13,5.12c-1.36,1.5-2.71,3.01-4.1,4.48c-0.95,1.02-2.05,1.82-3.54,2.09c-2.44-1.08-2.75-3.35-3.03-5.73
			c-0.94,2.69-0.86,3.96,0.44,7.52c-1.8,0.07-2.59-0.24-3.01-1.62c-0.37-1.21-0.47-2.52-0.55-3.8c-0.04-0.71,0.24-1.43,0.31-2.16
			c0.22-2.24,0.88-4.02,3.48-4.58c1.13-0.24,2.12-1.12,3.02-2.05c-0.61,0.26-1.21,0.53-1.82,0.79c-0.37,0.16-0.75,0.35-1.14,0.42
			c-1.11,0.18-2.33,0.51-3.23-0.42c-0.86-0.89-0.45-1.96-0.09-2.97c0.08-0.23,0.14-0.46,0.24-0.76c-0.13-0.33-0.23-0.73-0.43-1.07
			c-3.25-5.32-3.38-11.05-2.13-16.92c0.74-3.48,1.64-6.93,2.43-10.4c0.26-1.16,0.42-2.35,0.8-3.5c1.52,3.25,0.26,6.63,0.83,10.02
			c0.27-0.8,0.54-1.6,0.98-2.91c-0.32,5.31,0.17,10.02,1.73,14.61c-2.72-2.53-3.04-5.86-3.35-9.23c-0.73,4.21-0.37,8.36,0.3,12.63
			c-0.36-0.77-0.74-1.54-1.08-2.32c-0.38-0.88-0.73-1.77-1.23-2.61c-0.14,3.18,0.25,6.27,1.75,9.08c0.53,1,1.61,1.7,2.29,2.38
			c3.45-0.48,5.54-4.79,4.47-7.73c-2.12-5.81-0.49-11.07,2.27-16.06c2.93-5.3,6.5-10.24,8.77-16.51c0.35,4.06-1.43,7.08-2.03,10.38
			c0.73-1.19,1.46-2.38,2.18-3.57c-0.32,2.65-1.17,5.11-2.54,7.28c-2.62,4.11-3.63,8.61-3.81,13.38c-0.01,0.32-0.07,0.64-0.15,1.28
			c-2.1-3.78-0.97-7.26,0.09-10.94c-3.43,3.85-3.97,10.53-2.12,14.23c0.98,1.96,2.39,2.7,4.56,2.37c3.24-0.48,5.01-2.34,5.41-5.9
			c0.16-1.44,0.03-2.91,0.03-4.73c3.16,6.91-0.33,12.43-7.88,13.26c0.7,0.15,1.41,0.45,2.11,0.42c2.8-0.1,5.23-1.05,6.96-3.38
			c2.32-3.13,3.88-6.55,3.74-10.55c-0.08-2.24,0.32-4.35,1.34-6.34C344.42,177.76,347.18,175.99,351.31,175.87z"/>
		<path class="st2" d="M373.68,140.23c8.94,2.27,16.39,6.54,23.53,11.56c-0.59-0.22-1.18-0.42-1.77-0.65
			c-0.6-0.24-1.2-0.48-1.79-0.76c-2.04-0.98-4.07-2-6.13-2.96c-0.84-0.39-1.75-0.66-2.62-0.98c-0.12,0.16-0.24,0.31-0.36,0.47
			c0.38,0.41,0.7,0.9,1.14,1.21c3.56,2.54,7.21,4.96,10.71,7.57c5.46,4.06,10.69,8.41,15.34,13.41
			c6.28,6.75,11.35,14.34,15.33,22.64c1.54,3.21,2.85,6.52,4.26,9.79c0.15,0.35,0.25,0.73,0.54,1.62c-0.8-0.57-1.24-0.82-1.6-1.15
			c-8.35-7.79-16.48-15.79-23.95-24.47c-6.97-8.1-14.11-16.06-22.02-23.29c-2.82-2.58-5.13-5.61-7.17-8.85
			C376.14,143.77,375.03,142.22,373.68,140.23z"/>
		<path class="st2" d="M387.61,226.37c0.92,16.64-3.1,32.16-10.61,46.89c-5.63,11.04-18.24,23.07-22.91,25.46
			c1.6-3.43,3.24-6.83,4.78-10.28c3.18-7.11,5.37-14.57,7.61-22.01c2.66-8.83,5.41-17.64,8.15-26.45c0.9-2.88,2.52-5.39,4.49-7.85
			c-0.19,2.08-0.38,4.16-0.57,6.24c1.96-3.49,3.1-7.23,4.33-11.39c-0.97,22.93-6.62,43.88-20.52,62.12
			c0.14,0.09,0.28,0.18,0.42,0.27c0.59-0.59,1.2-1.15,1.75-1.78c6.43-7.32,11.19-15.62,14.74-24.68c3.65-9.33,6.02-18.97,7.55-28.84
			C387.23,231.54,387.36,228.95,387.61,226.37z"/>
		<path class="st2" d="M381.7,121.28c-5.31-2.9-10.96-4.82-16.81-6.12c-5.75-1.27-11.6-1.56-17.55-1.53
			c0.75-0.41,1.5-0.82,2.59-1.41c-3.22-0.24-5.47,1.32-8.26,2.85c0.81-1.05,1.28-1.66,1.89-2.44c-1.66-0.14-2.85,0.38-3.89,1.35
			c-2.26,2.12-3.29,4.86-3.34,7.83c-0.04,2.56,0.16,5.19,0.69,7.7c1.12,5.3,2.64,10.51,3.79,15.81c0.98,4.52,1.39,9.12,0.55,13.74
			c-0.07,0.39-0.18,0.77-0.38,1.16c-0.67-8.56-3.02-16.68-6.12-24.61c-1.53-3.92-3.38-7.71-4.92-11.62
			c-0.98-2.47-1.87-5.01-2.42-7.6c-0.95-4.45,1.37-8.9,5.43-10.91c1.98-0.98,4.07-1.53,6.3-1.65c7.85-0.42,15.3,1.22,22.43,4.38
			c6.17,2.73,11.89,6.25,17.12,10.53C379.79,119.54,380.73,120.42,381.7,121.28z"/>
		<path class="st2" d="M348.02,98.82c-2.08-0.22-4.16-0.49-6.25-0.66c-5.8-0.48-11.48-0.06-16.8,2.62
			c-2.55,1.29-4.45,3.18-5.67,5.77c-0.24,0.51-0.38,1.13-0.75,1.51c-0.86,0.89-1.16,1.88-0.88,3.12c-2.67-3.19-3.42-6.84-2.82-10.92
			c-2.6,1.96-2.19,4.77-2.68,7.41c-0.47-1.44-0.94-2.88-1.43-4.41c-1.37,1.99-0.5,4.21-0.67,6.42c-0.4-0.24-0.74-0.45-1.26-0.76
			c0.12,4.98,0.84,9.68,3.05,13.99c2.21,4.32,4.63,8.53,7,12.76c2.74,4.88,5.14,9.91,6.9,15.23c0.15,0.45,0.27,0.91,0.15,1.49
			c-0.28-0.48-0.54-0.96-0.83-1.43c-3.03-4.97-5.99-9.98-9.12-14.89c-3.26-5.12-6.75-10.09-10-15.21c-1.21-1.9-2.17-3.98-3.01-6.08
			c-2.84-7.1-0.67-13.79,5.72-17.99c4.15-2.73,8.77-4.15,13.67-4.59C331.63,91.35,340.03,94.28,348.02,98.82z"/>
		<path class="st2" d="M413.72,299.38c-0.66-3.82-1.34-7.63-1.97-11.45c-1.3-7.77-1.66-15.58-1.42-23.45
			c0.21-6.95-0.01-13.92-0.03-20.88c0-0.91,0.06-1.82,0.34-2.73c0.84,2.05,0.47,4.23,0.88,6.3c0.77-7.21-0.46-14.31-1.34-21.93
			c0.54,0.59,0.8,0.76,0.89,1c3.32,8.02,5.96,16.27,7.44,24.82c1.44,8.29,2.43,16.67,1.9,25.12c-0.36,5.77-1.84,11.32-3.84,16.73
			c-0.81,2.18-1.63,4.35-2.44,6.53C414,299.41,413.86,299.4,413.72,299.38z M417.4,260.5c-0.16,10.26-2.48,20.33-2.12,30.58
			C418.9,281.07,418.95,270.82,417.4,260.5z"/>
		<path class="st2" d="M440.6,244.55c0.62-10.58-2.5-20.32-6.13-30.39c5.21,6.07,10.22,25.31,9.65,36.34
			c-2.37-2.55-4.65-4.92-6.84-7.37c-4.29-4.79-7.9-10.04-10.68-15.86c-1.08-2.26-2.5-4.35-3.64-6.58c-0.7-1.36-1.3-2.79-1.67-4.26
			c-0.18-0.7,0.84-1.39,0.26-2.4c-0.55-0.96-0.72-2.14-1.07-3.21c-0.33-1-0.67-2-1.01-2.99c-0.36-1.07-0.7-2.16-1.1-3.22
			c-0.37-0.98-0.75-1.97-1.24-2.9c-1.09-2.08-2.3-4.09-3.37-6.18c-0.88-1.71-1.64-3.48-2.18-5.5c0.22,0.12,0.49,0.21,0.66,0.38
			c7.06,7.11,13.34,14.81,17.7,23.89c3.51,7.32,6.1,14.98,7.94,22.9c0.44,1.89,1.07,3.73,1.7,5.57
			C439.79,243.39,440.25,243.95,440.6,244.55z"/>
		<path class="st2" d="M417.03,307.59c-4.15,21.46-12.91,40.36-30.42,54.94c-0.05-0.74-0.16-1.05-0.08-1.3
			c2.21-6.17,4.3-12.39,6.71-18.47c1.85-4.66,4.14-9.14,6.17-13.72c1.94-4.37,3.78-8.77,5.69-13.15c1.42-3.25,2.94-6.47,4.32-9.74
			c0.61-1.45,0.99-2.99,1.88-4.4c-0.66,3.81-1.31,7.62-1.97,11.43c0.09,0.02,0.17,0.04,0.26,0.07c1.03-2.87,2.07-5.75,3.1-8.62
			c0.15,0.02,0.3,0.05,0.45,0.07c-0.06,0.9-0.04,1.8-0.19,2.68c-1.52,8.99-4.34,17.57-8.18,25.85c-3.56,7.68-8.16,14.71-13.02,21.6
			c-0.44,0.63-0.84,1.29-1.26,1.93c0.12,0.1,0.24,0.21,0.36,0.31c0.63-0.67,1.29-1.3,1.88-2c6.75-8.07,12.3-16.88,16.21-26.66
			C411.73,321.49,414.35,314.53,417.03,307.59z"/>
		<path class="st2" d="M380.2,358.49c-0.98,1.98-1.95,3.96-2.93,5.93c0.11,0.07,0.23,0.14,0.34,0.22c1.42-1.69,2.84-3.39,4.47-5.32
			c-0.32,2.52-1.2,4.58-2.16,6.58c-5.19,10.7-12.15,20.04-21.35,27.65c-0.99,0.82-1.94,1.71-2.9,2.57c-0.02,0.02,0.02,0.11,0.09,0.4
			c11.39-7.13,19.63-17.25,27.48-27.55c-2.62,11.7-27.76,33.38-41.11,35.49c1.37-1.44,2.83-3.05,4.37-4.58
			c7.26-7.22,13.53-15.24,19.33-23.66c2.71-3.93,5.48-7.82,8.35-11.64c1.69-2.25,3.61-4.32,5.43-6.48
			C379.8,358.23,380,358.36,380.2,358.49z"/>
		<path class="st2" d="M434.61,263.76c-0.15,1.92-0.31,3.85-0.46,5.77c-0.8,9.97-3.2,19.63-5.8,29.23
			c-1.39,5.15-3.03,10.24-4.6,15.35c-2.57,8.38-6.31,16.28-10.07,24.17c-4.9,10.31-11.36,19.58-18.66,28.29
			c-1.48,1.77-3.14,3.39-4.88,4.95c0.15-1.11,0.98-1.76,1.59-2.54c7.1-9.08,13.26-18.77,18.44-29.07
			c4.78-9.49,8.55-19.37,11.54-29.58c2.06-7.04,3.13-14.2,3.7-21.47c0.12-1.53,0.31-3.06,0.5-4.59c0.06-0.48,0.12-1.01,0.38-1.39
			c2.51-3.76,3.46-8.27,5.83-12.11c0.57-0.93,0.71-2.13,1-3.22c0.35-1.29,0.67-2.6,1-3.89
			C434.29,263.69,434.45,263.73,434.61,263.76z"/>
		<path class="st2" d="M403.39,298.89c-0.6,10.22-2.81,20.05-7.2,29.28c-3.49,7.33-8.91,13.22-14.82,18.95
			c-0.13-0.48-0.28-0.71-0.24-0.9c1.35-6,2.43-12.08,4.19-17.97c1.4-4.71,3.53-9.21,5.51-13.72c4.02-9.15,7.39-18.49,9.23-28.34
			c0.15-0.79,0.38-1.56,0.64-2.61c0.45,3.65-0.4,13.53-1.81,20.08c-1.43,6.65-2.95,13.27-5.28,19.69c-2.3,6.33-6.07,11.9-9.11,17.85
			c0.14,0.09,0.28,0.19,0.42,0.28c1.25-1.61,2.59-3.17,3.75-4.85c4.05-5.91,7.23-12.24,9.47-19.08
			C400.17,311.39,401.91,305.17,403.39,298.89z"/>
		<path class="st2" d="M397.97,261.07c-0.5-1.23-1.03-2.45-1.5-3.7c-2.22-6-4.34-12.06-5.24-18.42c-0.48-3.36-0.67-6.77-0.8-10.16
			c-0.24-6.15-0.31-12.31-0.52-18.46c-0.16-4.62-0.7-9.2-1.69-13.72c-0.1-0.46-0.14-0.94,0.06-1.5c0.27,0.62,0.6,1.23,0.81,1.87
			c2.62,7.91,5.41,15.78,7.75,23.77c1.01,3.44,1.31,7.13,1.53,10.74c0.41,6.62,0.63,13.27,0.71,19.9c0.04,3.18-0.4,6.37-0.62,9.56
			C398.3,260.99,398.14,261.03,397.97,261.07z"/>
		<path class="st2" d="M372.7,341.13c-0.44,0.91-0.82,1.86-1.33,2.73c-0.47,0.79-1.08,1.49-1.52,2.32c1.98-0.93,3.69-2.17,4.95-4.01
			c-1.47,5.88-4.47,10.93-8.02,15.63c-3.52,4.66-7.73,8.72-12.27,12.6c3.55-0.69,11.57-8.08,22.3-20.03
			c-0.62,1.28-1.16,2.61-1.88,3.82c-3.75,6.33-8.93,11.28-15.05,15.26c-3.94,2.56-8.01,4.9-12.55,6.31
			c-0.29,0.09-0.59,0.15-1.37,0.35c1.37-1.79,2.46-3.23,3.57-4.64c5.06-6.44,9.56-13.27,13.68-20.34
			C365.58,347.07,369.03,344.06,372.7,341.13z"/>
		<path class="st2" d="M439.55,305.69c-0.78,2.53-1.5,5.08-2.33,7.6c-6.2,18.59-15.21,35.73-27.08,51.32
			c-8.91,11.71-19.01,22.34-30.6,31.44c-16.28,12.79-33.93,23.22-53.69,29.73c-4.75,1.57-9.65,2.69-14.49,3.97
			c-0.84,0.22-1.74,0.22-2.63,0.16c5.18-1.67,10.39-3.26,15.54-5.03c17.52-6,33.65-14.66,48.57-25.63
			c12.61-9.28,23.76-20.06,33.51-32.26c7.19-9,13.45-18.63,18.8-28.86C430.63,327.64,435.19,316.77,439.55,305.69z"/>
		<path class="st2" d="M267.77,407.09c-1.87,1.51-3.66,3.14-5.64,4.5c-4.02,2.77-8.39,4.88-13.02,6.41
			c-4.6,1.53-9.15,3.25-13.99,3.95c-8.24,1.19-16.44,1.09-25.05-0.92c2.94-0.18,5.39-0.35,7.84-0.47
			c6.52-0.31,12.84-1.74,19.04-3.59c8.21-2.44,16.36-5.1,24.51-7.77c2.05-0.67,3.97-1.73,5.94-2.61
			C267.53,406.75,267.65,406.92,267.77,407.09z"/>
		<path class="st2" d="M178.5,217.78c-1.17-1.26-2.38-2.49-3.51-3.8c-7.06-8.19-10.56-17.85-11.72-28.47
			c-0.44-4.06-0.08-8.06,0.42-12.09c0.57-4.59,1.21-9.14,2.56-13.57c0.21-0.68,0.41-1.37,0.7-2.33c0,1.81,0.1,3.32-0.02,4.81
			c-0.63,8.33-0.78,16.67,0.32,24.97c1.37,10.34,4.91,19.91,10.65,28.65c0.34,0.51,0.61,1.06,0.92,1.59
			C178.72,217.61,178.61,217.7,178.5,217.78z"/>
		<path class="st2" d="M146.18,264.98c2.42,1.23,4.86,2.42,7.25,3.71c4.41,2.38,8.89,4.65,12.87,7.74c1.39,1.08,2.52,2.26,2.15,4.54
			c-0.13,0.17-0.56,0.57-0.79,1.06c-0.34,0.72-0.95,1.69-0.71,2.21c0.46,1,0.57,1.79,0.03,2.71c-0.58,0.97-1.02,2.05-1.75,2.87
			c-0.67,0.76-1.65,1.25-2.48,1.87c-0.12,0.09-0.2,0.25-0.47,0.61c0.22,0.5,0.48,1.14,0.76,1.77c0.23,0.5,0.62,0.97,0.72,1.49
			c0.33,1.77-0.57,3.52-1.97,4.03c-1.62,0.59-3.36-0.12-4.34-1.77c-1.27-2.13-0.74-4.47,1.34-5.89c0.4-0.27,0.8-0.54,1.2-0.81
			c0.06-0.04,0.07-0.14,0.17-0.36c-2.58-1-3.62-3.24-4.1-5.71c-0.49-2.51-1.54-4.73-2.68-6.97c-1.14-2.23-2-4.6-3.17-6.81
			c-0.71-1.34-1.78-2.48-2.69-3.71c-0.55-0.74-1.1-1.49-1.65-2.23C145.96,265.22,146.07,265.1,146.18,264.98z M150.24,269.25
			c2.88,4.57,4.2,5.94,5.64,11.24c0.89-1.69,1.42-3.8,3.98-2.83c-0.36,0.54-0.75,1.05-1.06,1.62c-1.66,3.07-0.28,7.3,2.73,8.44
			c1.44,0.54,2.26,0.33,2.67-1.09c0.36-1.23,0.31-2.58,0.46-4.04c0.71-0.33,1.64-0.77,2.82-1.32c-0.37-0.71-0.54-1.36-0.95-1.74
			c-1.17-1.1-2.33-2.29-3.7-3.11C158.69,273.95,154.44,271.63,150.24,269.25z M160.97,292.18c-1.86,0.72-2.53,1.82-2.31,3.69
			c0.16,1.35,0.86,2.04,1.99,1.95c1.07-0.08,1.89-0.99,1.76-2.2C162.27,294.35,161.93,293.1,160.97,292.18z"/>
		<path class="st2" d="M346.57,171.29c1.98-3.93,1.98-7.92,1.19-11.84c-1.22-6.09-2.81-12.11-4.19-18.17
			c-0.61-2.68-1.14-5.37-1.63-8.07c-0.19-1.02-0.17-2.07,0.09-3.19c1,2.32,2,4.63,2.99,6.95c0.13,0.3,0.12,0.67,0.3,0.92
			c2.3,3.12,3.21,6.81,4.26,10.45c0.09,0.31,0.25,0.61,0.28,0.92c0.43,4.34,1.82,8.54,1.62,12.99c-0.15,3.47-1.41,6.23-3.94,8.48
			C347.27,170.96,346.9,171.1,346.57,171.29z"/>
		<path class="st2" d="M344.98,230.23c-1.15,1.29-2.37,2.54-3.45,3.9c-3.28,4.1-7.18,7.43-11.87,9.82c-1.8,0.92-1.86,0.91-3.34,0.07
			c0.49-2.28,1.91-3.99,3.59-5.52c0.48-0.43,1.01-0.8,1.53-1.19c2.45-1.88,4.33-4.01,2.91-7.55
			C338.15,228.67,341.65,229.58,344.98,230.23z"/>
		<path class="st2" d="M404.77,236.63c-4.2-15.53-9.77-29.97-15.8-44.41c2.96,2.86,9.51,15.04,11.31,20.6
			C403.05,221.38,405.03,230.92,404.77,236.63z"/>
		<path class="st2" d="M430.32,267.68c-0.33-2.94-0.67-5.88-0.98-8.82c-0.47-4.43-0.73-8.88-1.45-13.27
			c-0.61-3.74-1.75-7.4-2.65-11.1c-0.11-0.45-0.19-0.91-0.34-1.62c5.44,6.88,8.39,14.28,7.47,22.9c-0.35,3.3-0.8,6.58-1.24,9.87
			c-0.09,0.7-0.35,1.38-0.54,2.07C430.5,267.7,430.41,267.69,430.32,267.68z"/>
		<path class="st2" d="M335.43,158.69c-1.1-6.39-3.01-12.47-5.49-18.38c-1.6-3.8-3.28-7.57-4.94-11.35c-1.21-2.76-2.12-5.6-2.46-8.6
			c-0.09-0.84-0.33-1.74,0.24-2.53c2.08,4.34,4.24,8.55,6.13,12.88c2.01,4.59,4.18,9.14,5.16,14.1c0.61,3.09,0.99,6.23,1.34,9.36
			C335.57,155.66,335.43,157.18,335.43,158.69z"/>
		<path class="st2" d="M435.86,254.21c1.76,16.97,1.22,33.63-5.86,49.52c1.54-8.21,3.19-16.4,4.59-24.63
			C436.01,270.84,435.43,262.47,435.86,254.21z"/>
		<path class="st2" d="M426.62,270.83c-1.99-7.86-3.64-15.51-5.91-22.97c-2.28-7.47-5.18-14.75-7.78-22.02
			C418.82,232.25,426.8,258.21,426.62,270.83z"/>
		<path class="st2" d="M401.56,263.92c0.63,0.96,1.07,1.63,1.72,2.63c-0.56-6.01-1.09-11.62-1.61-17.23
			c3.09,8.58,3.2,17.57,3.54,26.59c-0.66-1.19-1.34-2.38-1.97-3.59c-0.63-1.22-1.25-2.44-1.81-3.69
			C400.79,267.16,400.83,265.68,401.56,263.92z"/>
		<path class="st2" d="M199.62,289.03c3.31,1.69,6.27,3.85,10,4.36c0.39,1.23,0.78,2.5,1.18,3.76c-0.35,0.1-0.54,0.22-0.63,0.17
			c-3.02-1.7-6.06-3.37-9.04-5.15C200.11,291.56,199.14,290.75,199.62,289.03z"/>
		<path class="st2" d="M349.19,387.12c-5.92,7.17-12.64,12.57-20.54,16.52C335.36,398.23,342.08,392.83,349.19,387.12z"/>
		<path class="st2" d="M441.82,256.78c1.78,8.11,0.83,15.83-1.55,23.51C440.78,272.5,441.29,264.75,441.82,256.78z"/>
		<path class="st2" d="M341.31,257.18c-0.37-0.71-0.62-1.17-0.9-1.71c1.83-1.23,3.72-2.2,5.21-3.6c1.49-1.39,2.59-3.2,4-4.99
			c0.46,2.05-0.13,3.78-1.31,5.2C346.49,254.26,344.24,255.95,341.31,257.18z"/>
		<path class="st2" d="M349.91,120.43c7.53-3.69,14.82-2.15,22.47,1.07c-4.11-0.64-7.77-1.36-11.47-1.74
			C357.23,119.38,353.52,119.49,349.91,120.43z"/>
		<path class="st2" d="M407.46,270.97c-0.66-6.8-1.32-13.6-1.98-20.39C408.08,257.19,408.38,264.02,407.46,270.97z"/>
		<path class="st2" d="M329.05,221.24c2.25-1.63,3.49-4.44,6.72-5.14c0.39,2.28-0.87,3.62-2.21,4.82
			C332.16,222.16,330.92,222.18,329.05,221.24z"/>
		<path class="st2" d="M206.73,302.24c-4.03,0.69-6.36-0.82-7.75-4.98c2.53,1.21,4.82,2.25,7.05,3.41
			C206.38,300.85,206.45,301.58,206.73,302.24z"/>
		<path class="st2" d="M175.04,316.73c-2.79-3.69-7-6.05-8.92-10.9c3.61,3.4,6.91,6.5,10.38,9.76
			C176.13,315.88,175.68,316.23,175.04,316.73z"/>
		<path class="st2" d="M331.74,245.96c0.89-0.55,1.46-0.95,2.08-1.27c0.69-0.36,1.36-0.59,1.84-1.38c0.73-1.2,1.91-1.43,2.63-0.87
			c0.73,0.56,0.84,1.68,0.23,2.85c-0.14,0.27-0.42,0.47-0.74,0.81c-0.35-0.14-0.72-0.24-1.05-0.42c-0.34-0.18-0.64-0.43-1-0.68
			c-0.48,0.98-0.06,2.33-1.78,2.66C333.4,247.23,332.68,246.68,331.74,245.96z"/>
		<path class="st2" d="M301.52,89.91c5.25-2.69,10.45-3.61,16.03-3.02C312.24,87.89,307.04,88.87,301.52,89.91z"/>
		<path class="st2" d="M341.74,243.95c-1.23-0.86-2.29-1.62-3.62-2.55c1.11-1.08,1.98-1.93,2.85-2.78
			C342.83,240.43,343.03,241.53,341.74,243.95z"/>
		<path class="st2" d="M333.81,178.47c-0.97,4.37-2.58,8.63-2.49,13.19C329.8,186.83,331.52,182.6,333.81,178.47z"/>
		<path class="st2" d="M342.24,237.88c0.65-0.91,1.21-1.69,1.76-2.46c1.93,1.94,2.31,3.48,1.26,5.47
			C343.74,240.48,342.99,239.3,342.24,237.88z"/>
		<path class="st2" d="M365.94,141.51c-0.75-0.81-1.5-1.61-2.25-2.42c0.43,0.09,0.93,0.08,1.28,0.3c3.27,2.08,6.06,4.71,8.47,7.81
			c-1.72-1.35-3.42-2.72-5.15-4.05C367.53,142.58,366.73,142.06,365.94,141.51z"/>
		<path class="st2" d="M358.97,316.85c0.95-4.15,2.18-8.11,4.01-11.86C362.68,309.32,361.01,313.2,358.97,316.85z"/>
		<path class="st2" d="M176.49,319.98c-3.37-2.53-6.59-5.2-9.03-8.72c1.62,1.37,3.24,2.73,4.85,4.11
			C173.9,316.73,175.96,317.65,176.49,319.98z"/>
		<path class="st2" d="M344.87,386.7c-2.58,2.65-5.4,4.95-9.12,6.03c2.89-2.16,5.79-4.32,8.68-6.48
			C344.58,386.4,344.73,386.55,344.87,386.7z"/>
		<path class="st2" d="M285.69,84.36c3.58-1.82,7.37-2.19,11.3-1.49C293.22,83.37,289.45,83.87,285.69,84.36z"/>
		<path class="st2" d="M153.89,362.61c3.5,2.95,7,5.9,10.5,8.85C160.23,369.27,156.84,366.15,153.89,362.61z"/>
		<path class="st2" d="M208.12,299.68c-3.66-1.21-7-3.01-10.01-5.41c3.39,1.68,7.02,2.95,9.95,5.47L208.12,299.68z"/>
		<path class="st2" d="M365.21,311.95c0.39-3.1,1.4-6.02,2.65-8.87C367.44,306.16,366.74,309.17,365.21,311.95z"/>
		<path class="st2" d="M306.66,85.28c-2.59,0.42-5.18,0.84-7.77,1.27C301.24,85.11,303.83,84.85,306.66,85.28z"/>
		<path class="st2" d="M340.47,258.46c-0.82,0.42-1.36,0.7-2.17,1.11c-0.36-1-0.67-1.84-1.01-2.77
			C339.16,255.97,339.47,257.46,340.47,258.46z"/>
		<path d="M299.07,343.21c0.45,16.93-13.87,31.67-31.21,31.93c-19.9,0.3-32.05-16.04-32.04-30.89c0.01-18.4,13.36-32,31.69-32.27
			C285.88,311.72,299.57,326.99,299.07,343.21z"/>
		<path d="M267.99,209.11c-14.84,0.41-26.25-12.17-27.83-22.44c1.54,2.92,2.84,5.68,4.41,8.28c1.59,2.64,3.66,4.93,6.16,6.8
			c2.53,1.89,5.05,3.78,8.15,4.69C261.81,207.29,264.74,208.16,267.99,209.11z"/>
		<path d="M411.06,209.41c-0.49-0.77-0.87-1.25-1.13-1.8c-3.32-7.1-6.55-14.25-9.97-21.31c-1.62-3.34-3.56-6.53-5.39-9.77
			c-0.51-0.91-1.13-1.76-1.81-2.8C398.29,176.84,411.12,201.82,411.06,209.41z"/>
		<path d="M378.66,219.96c0.64-4.79,1.48-9.57,1.85-14.39c0.36-4.72,0.24-9.48,0.33-13.97C383.3,198.92,382.16,215,378.66,219.96z"
			/>
		<path d="M357.93,209.33c-0.87-0.39-1.8-0.69-2.6-1.2c-4.03-2.55-5.76-6.23-5.07-10.95c0.42-2.88,1.1-5.7,2.44-8.34
			c1.16-2.27,2.21-4.6,3.61-6.81c0,1.27,0.16,2.56-0.03,3.8c-0.63,4.09,0,8.05,0.93,12.01c0.47,2.02,1.25,4.02,0.64,6.21
			c2.04,0.88,1.51-1.36,2.57-1.97c1.48,1.09,3.01,2.23,4.76,3.52c-0.21,1.28-0.33,2.55-0.66,3.77c-0.42,1.6-0.42,3.04,0.91,4.23
			c0.12,0.11,0.21,0.25,0.31,0.38c0.54,0.7,1.25,1.4,0.75,2.38c-0.56,1.08-1.62,0.96-2.58,0.8c-2.88-0.48-5.35-2.13-5.6-5.72
			c-0.04-0.56-0.09-1.13-0.16-1.69C358.13,209.6,358,209.47,357.93,209.33z"/>
		<path d="M239.93,125.94c0.35-1.65,1.43-1.93,2.37-2.34c3.53-1.52,7.29-2.13,11.04-2.74c6.41-1.05,12.88-1.31,19.37-1.05
			c6,0.24,11.93,1.02,17.76,2.48c2.18,0.55,4.35,1.2,6.12,2.54c0.08,1.56-1,1.98-1.97,2.28c-2.7,0.83-5.4,1.77-8.17,2.26
			c-12.8,2.24-25.61,2.36-38.37-0.33c-1.97-0.41-3.87-1.15-5.77-1.83C241.5,126.92,240.77,126.39,239.93,125.94z"/>
		<path d="M417.4,260.5c1.54,10.32,1.49,20.57-2.12,30.58C414.93,280.83,417.25,270.75,417.4,260.5z"/>
		<path d="M150.24,269.25c4.2,2.38,8.45,4.69,12.59,7.17c1.37,0.82,2.53,2,3.7,3.11c0.41,0.39,0.58,1.04,0.95,1.74
			c-1.18,0.55-2.11,0.99-2.82,1.32c-0.15,1.46-0.1,2.81-0.46,4.04c-0.42,1.42-1.24,1.63-2.67,1.09c-3.01-1.14-4.38-5.37-2.73-8.44
			c0.3-0.56,0.7-1.08,1.06-1.62c-2.56-0.97-3.09,1.14-3.98,2.83C154.44,275.2,153.12,273.82,150.24,269.25z"/>
		<path d="M160.97,292.18c0.96,0.93,1.3,2.18,1.43,3.44c0.13,1.21-0.69,2.12-1.76,2.2c-1.13,0.09-1.83-0.6-1.99-1.95
			C158.44,294,159.11,292.89,160.97,292.18z"/>
	</g>
</g>
<g id="Layer_17">
</g>
</svg>
