<svg xmlns="http://www.w3.org/2000/svg" viewBox="0 0 528.571 523.805"><defs><style>.cls-1{fill:#616060;}.cls-2{fill:#8d8989;}</style></defs><title>icon</title><g id="Layer_2" data-name="Layer 2"><path d="M217.769,489.4c-4.954-.22-9.948.64-14.9-.6a5.486,5.486,0,0,0-3.9.827c-5.966,4.007-12.606,6.058-19.584,7.3-5.907,1.054-11.718,2.687-17.79,2.68a33.149,33.149,0,0,1-19-6.152c-4.478-3.075-5.866-8.144-3.7-12.4,1.473-2.9,4.04-4.827,6.87-6.4a55.643,55.643,0,0,1,13.664-5.6,19.413,19.413,0,0,1,2.622-.46c2.165-.224,4.344-.331,6.5-.6,4.186-.525,4.977-1.895,3.666-5.944a13.368,13.368,0,0,1-.651-3.348c-.481-8.957-2.31-17.7-4.055-26.464-.9-4.5-1.8-9-2.626-13.516a2.913,2.913,0,0,0-2.311-2.633A27.4,27.4,0,0,1,157,413.609a2.737,2.737,0,0,1-1.3-2.09c.761-4.376-1.375-8.224-2.086-12.314-.917-5.268-2.17-10.48-3.373-15.695-.945-4.1-2.04-8.16-3.056-12.241a32.892,32.892,0,0,1-1.275-5.523c-.355-5.145-4.085-7.562-7.664-10.258a58.177,58.177,0,0,1-7.454-6.471c-1.752-1.863-2.311-2.948.055-5.19a22.9,22.9,0,0,0,3.6-4.943c5.512-9.191,11.118-18.332,16.371-27.671,3.819-6.791,7.165-13.85,10.676-20.813q3.1-6.153,6.052-12.385c2.117-4.493,4.114-9.043,6.2-13.551,1.5-3.241,3.286-6.37,4.538-9.7,2.033-5.408,2.361-4.562-2.589-6.392a74.386,74.386,0,0,1-32.884-23.25,17.006,17.006,0,0,1-1.751-2.026c-1.106-1.955-1.979-1.795-3.845-.532-6.588,4.458-15.878,1.335-19.247-4.028a16.476,16.476,0,0,1,1.191-18.861,13.934,13.934,0,0,1,1.114-1.524c1.018-.94.907-1.624.209-2.885a67.737,67.737,0,0,1-5.079-10.684c-2.752-8.05-5.536-16.132-5.743-24.8-.088-3.715-.546-7.435-.418-11.138.149-4.3.669-8.59,1.2-12.864a76.717,76.717,0,0,1,1.5-7.849c2.769-11.93,8.782-22.172,16.583-31.445,3.526-4.191,8.192-6.946,13.009-9.287a48.3,48.3,0,0,0,11.92-8.745,35.691,35.691,0,0,1,13.9-8.221c1.453-.444,2.892-.936,4.333-1.42a53.319,53.319,0,0,1,21.185-2.648,38.258,38.258,0,0,1,14.259,4.02c4.33,2.246,8.341,1.868,12.568,1.11,2.167-.388,4.222-.946,6.407-.245a5.155,5.155,0,0,0,1.894.144c9.574-.691,18.452,1.913,27.079,5.7a63.121,63.121,0,0,1,8.294,3.87,21.413,21.413,0,0,1,5.593,5.14,108.756,108.756,0,0,1,7.129,10.836c3.714,6.374,4.648,13.341,4.144,20.642a44.748,44.748,0,0,1-3.142,14.9,7.517,7.517,0,0,1-1.384,2.693c-2.069,1.834-1.542,3.852-.694,5.9a78.911,78.911,0,0,1,5.7,24.448c.477,6.253.756,12.506-.286,18.642a83.512,83.512,0,0,1-9.465,26.939c-3.346,5.995-7.729,11.114-12.241,16.082-3.476,3.827-7.843,6.872-11.956,10.082-2.794,2.18-5.855,4.016-8.732,6.095a1.573,1.573,0,0,0-.034,1.508,4.121,4.121,0,0,0,2.089.755c6.607.462,13.215.922,19.831,1.231a3.977,3.977,0,0,1,3.307,1.525c1.371,1.813,2.816,3.587,4,5.517.7,1.142,1.225,2.18,2.77,2.261,6.509.341,13.016.739,19.525,1.1.635.035,1.278-.089,1.918-.1,1.652-.026,1.924-1.034,1.567-2.329-.338-1.221-.978-2.367-1.244-3.6-.6-2.78.368-4.83,2.849-5.986a15.389,15.389,0,0,1,13.359.093,9.342,9.342,0,0,1,5.083,6.375c.145.511,1.285,1.273,1.477,1.151a23.888,23.888,0,0,0,2.815-2.354,7.6,7.6,0,0,0-.977-1.087c-3.541-2.695-7.413-5.046-10.579-8.124a91.93,91.93,0,0,1-11.293-12.958c-2.217-3.163-3.257-7.172-4.7-10.85-4.566-11.614-6.012-23.791-5.689-36.125a73.1,73.1,0,0,1,2.942-19.246c1.85-6.126,3.657-12.246,6.868-17.829,1.335-2.322,2.853-4.538,4.249-6.825a5.745,5.745,0,0,0,.731-4.611c-1.361-6.461-.621-13.452,7.026-17.275,1.133-.567,1.763-1.242,1.159-2.343-1.926-3.512-.314-6.735.754-9.947a17.409,17.409,0,0,1,7.631-9.12,11.4,11.4,0,0,1,3.975-1.2,2.219,2.219,0,0,0,2-1.811A25.247,25.247,0,0,1,329.1,79.38c4.48-3.732,13.169-5.238,18.745-3.293.843.294,1.739.459,2.546.826a3.267,3.267,0,0,0,4.356-1.233,11.192,11.192,0,0,1,9.967-4.73,9.9,9.9,0,0,0,2.667-.265,9.186,9.186,0,0,1,7.677,1.224c1.895,1.331,3.156,1.1,5.069-.186,4.175-2.8,9.016-2.213,13.711-1.674a4.424,4.424,0,0,1,2.735,1.283c2.229,2.745,5.107,3.154,8.22,2.485,7.595-1.633,16.225,5.44,18.308,13.073a2.193,2.193,0,0,0,2.43,1.885,16.912,16.912,0,0,1,13.288,5.749c3.949,4.405,7.254,9.352,7.624,15.533.116,1.937,1.015,2.544,2.567,3.116,7.731,2.854,11.8,8.458,12.28,16.679a14.371,14.371,0,0,1,.066,1.536c-.083,1.638-.732,3.5-.155,4.848s2.464,2.078,3.6,3.249a11.771,11.771,0,0,1,3.606,7.425c.344,4.6.916,9.206-1.778,13.428a2.211,2.211,0,0,0,0,2.067c2.1,1.93,2.31,4.684,2.511,7.037.589,6.883-.1,13.646-5.767,18.627-1.242,1.092-1.062,1.7-.639,3.094,1.611,5.31,1.034,10.314-2.9,14.612-1.713,1.871-3.1,4.083-5.892,4.618-.452.087-.921.821-1.114,1.353a12.563,12.563,0,0,0-.537,2.62c-.762,5.67-4.128,9.261-9.339,11.012a5.925,5.925,0,0,0-3.8,2.806c-2.759,5.27-7.176,8.056-12.966,8.951a2.166,2.166,0,0,0-1.322,1.42,7.167,7.167,0,0,0,.055,2.672c.93,6.163-5.689,14.707-13.675,15.573a22.439,22.439,0,0,1-13.956-3.194c-2.245-1.352-3.739-1.136-5.916-.148-7.645,3.471-15.288,7.05-23.819,7.882-.637.062-1.272.154-1.911.2-5.134.345-5.233.346-5.011,5.627.166,3.94-.186,7.95,1.264,11.778a8.366,8.366,0,0,1,.213,2.67,167.1,167.1,0,0,0,3.411,30.439,57.355,57.355,0,0,1,1.549,11.746c0,8.544,2.1,16.73,3.572,25.029.6,3.383,1.292,6.753,2.037,10.107a38.307,38.307,0,0,0,1.357,4.341c1.163,3.315.683,4.3-2.675,5.644-1.653.664-3.2,1.6-4.881,2.175-1.819.62-2.237,1.8-2.1,3.534.534,6.767,1.008,13.537,1.5,20.307a9.114,9.114,0,0,1,.089,1.533c-.651,6.555.889,12.987,1.094,19.5.068,2.13.509,4.245.723,6.372a3.044,3.044,0,0,1-1.936,3.32c-5.664,2.993-4.93,1.961-3.986,8.63,1.252,8.846,2.721,17.661,4.063,26.5.917,6.038,1.842,12.076,2.613,18.134a2.331,2.331,0,0,0,1.84,2.392,14.772,14.772,0,0,1,4.966,2.761c2.809,2.5,3.477,7.312,1.812,10.987a16.186,16.186,0,0,1-6.479,7.388c-6.534,3.934-13.448,6.536-21.2,6.933-8.3.425-16.53.323-24.553-1.981a15.668,15.668,0,0,1-6.255-3.44,4.449,4.449,0,0,0-5.18-1.127,11.946,11.946,0,0,1-7.491.4,11.548,11.548,0,0,0-3.029-.2c-9.136.261-17.285-2.982-24.972-7.411-4.605-2.654-6.7-9.784-4.63-14.584a8.455,8.455,0,0,1,3.146-3.734c4.055-2.423,8.281-4.368,13.192-4.757,5.329-.422,10.613-1.424,15.908-2.234,1.986-.3,1.508-1.794,1.109-2.972q-1.53-4.515-3.278-8.956c-4.353-11-8.77-21.982-13.107-32.992a36.86,36.86,0,0,1-1.472-5.135,4.314,4.314,0,0,0-4.233-3.7c-2.647-.136-3.452-1.568-4.253-3.975-3.133-9.41-6.642-18.695-10.036-28.017-1.31-3.6-2.811-7.136-3.983-10.779a5.426,5.426,0,0,0-3.133-3.553c-2.431-1.128-4.816-2.362-7.182-3.623-2.124-1.132-2.948-2.948-3-5.373a30.3,30.3,0,0,1,1.99-12.347c2.424-5.892,5.1-11.68,7.65-17.519a47.606,47.606,0,0,1,6.894-11.439c.967-1.166.655-1.836-.911-1.953-3.8-.282-7.6-.452-11.4-.647-4.454-.23-8.909-.436-13.364-.659-.381-.019-.758-.119-1.139-.143-4.013-.261-4.265.029-3.094,3.772,2.128,6.8,4.346,13.576,6.408,20.4,1.4,4.63,2.089,9.472,4.47,13.8.666,1.211-.795,3.182-2.721,3.992-1.289.542-2.621.985-3.937,1.462a4.557,4.557,0,0,0-3.368,4.2c-.308,4.047-.608,8.1-1.055,12.131-.925,8.33.39,16.606.488,24.909,0,.257.022.513.04.768.374,5.359-1.752,7.1-7.028,8.032-1.633.289-3.327.3-4.923.712-1.7.436-2.52,1.529-2.96,3.48-1.121,4.97-2.909,9.785-4.149,14.733-2.014,8.044-3.785,16.149-5.7,24.218-.413,1.736-1.056,3.416-1.525,5.14-.595,2.191-.35,2.576,1.829,2.348a62.959,62.959,0,0,1,18.266.941c4.227.8,8.583,1.5,12.263,4.136a9.266,9.266,0,0,1,1.906,13.41,17.9,17.9,0,0,1-9.873,6.888C231.427,487.669,224.781,489.637,217.769,489.4ZM407.74,234.065c-2.609-.293-5.18-.71-7.284-2.128-6.533-4.4-7.392-19.275-3.776-25.545.654-1.134,1.514-2.274,1.459-3.582a7.07,7.07,0,0,0-1.061-2.768,12.623,12.623,0,0,1,2.033-13.967c1.1-1.165,2.506-2.267,2.709-3.855.207-1.619-.922-3.056-1.731-4.472a12.905,12.905,0,0,1,.145-12.789,4.2,4.2,0,0,0,.951-2.583c-.158-1.132-1.3-1.806-2.24-2.452a13.127,13.127,0,0,1-5.448-9.283c-.223-1.948,1.771-7.808-.923-8.4-5.608-1.24-7.945-5.851-9.591-10.526a4.084,4.084,0,0,0-3.356-3.186c-3.438-.974-7.466-2.117-8.69-5.64-1.158-3.333-3-3.133-5.463-2.965-1.4.095-2.814.01-4.217.09-1.94.112-3.319-.789-4.759-2.014a11.678,11.678,0,0,1-3.9-7.659c-.294-2.1-1.31-2.49-3.117-2.238-1.388.193-2.948.667-4.17.251-3.29-1.121-6.16.187-8.841,1.428-25.575,11.841-44.319,36.765-47.91,65.035-3.21,25.274,6.768,52.2,26.662,68.113s49.279,19.552,71.805,7.649c2.278-1.2,4.631-2.589,7.207-2.532,2.855.064,5.321,1.875,7.908,3.083,4.547,2.123,10.3,2.295,14.306-.729s5.171-9.657,1.586-13.168C415.4,234.651,411.529,234.49,407.74,234.065Zm-130.109-64.1c-.5-4.174-.906-8.363-1.544-12.517a68.31,68.31,0,0,0-1.7-7.074c-.754-2.836-1.479-5.686-2.423-8.46-.365-1.073-.924-2.857-2.649-1.857-3.141,1.822-6.569,2.581-10.007,3.538-4.032,1.123-8,2.422-12.213,2.427-1.164,0-2.864-.26-3.379-1.03-.961-1.435.747-2.069,1.7-2.851a12.084,12.084,0,0,0,4.781-8.8,3.027,3.027,0,0,0-.335-1.03,3.266,3.266,0,0,0-.956.476c-1.15,1.192-2.242,2.44-3.38,3.644-6.928,7.328-18.739,9.7-26.654,5.978-1.525-.716-3.6-.985-3.632-3.388-.036-2.543,2.355-2.044,3.607-2.615a34.29,34.29,0,0,0,14.785-12.847,5.386,5.386,0,0,0,.336-2.016,10.53,10.53,0,0,0-1.762.395c-4.806,1.96-9.57,4.027-14.4,5.916a44.416,44.416,0,0,1-17.084,3.458c-5.193-.093-10.106-1.035-14.358-4.206-1.059-.79-1.55-.536-2.534.28-3.614,3-7.394,5.8-11.153,8.621a9.08,9.08,0,0,1-2.1.876c-3.364,1.351-3.48,1.37-2.876,5.086.945,5.814.129,11.536-1.292,17.075a54.253,54.253,0,0,1-8.328,18.344c-5.8,8.082-11.378,16.346-20.417,21.325a5.237,5.237,0,0,0-1.676,1.5c-1.023,1.435-2.174,1.465-3.667.767-5.468-2.558-9.369-.648-10.729,5.166a13.106,13.106,0,0,0,1,9.645c1.311,2.412,3.02,3.937,5.928,4.142,3.174.224,6.021-.2,8.6-2.253,2.147-1.711,2.62-1.61,4.414.267.882.923,1.675,1.934,2.464,2.941a67.634,67.634,0,0,0,17.018,15.648c9.755,6.208,20.107,10.4,31.718,11.14a1.939,1.939,0,0,1,2.08,1.774c.182.994.041,2.442.641,2.9,2.584,1.95,4.789,4.63,8.745,4.1a3.271,3.271,0,0,0,3.081-2.2c.729-1.73.379-2.288-1.468-2.311a16.36,16.36,0,0,1-3.356-.243c-.491-.109-1.231-.857-1.185-1.233a2.367,2.367,0,0,1,1.095-1.752,13.8,13.8,0,0,1,4.129-.66c6.227-.021,12.06-2.039,17.94-3.636,3.639-.988,7.077-2.759,10.554-4.294,6.392-2.821,11.542-7.4,16.59-12.071,3.435-3.175,7-6.207,9.5-10.324,2.04-3.354,4.719-6.314,6.991-9.536,2.772-3.931,3.858-8.583,5.385-13.054C276.239,186.974,278.551,178.763,277.631,169.964Zm48.262-75.59a15.592,15.592,0,0,0-.11,3A11.607,11.607,0,0,0,313.9,116.283a13.029,13.029,0,0,0-10.854,13.368,100.689,100.689,0,0,1,34.85-24.987,8.01,8.01,0,0,1,.493-7.746c3.75,6.841,13.8,9.21,20.207,4.765a9.315,9.315,0,0,0,14.809,11.3c-1.079,7.361,7.895,14.046,14.64,10.906-2.277,7.386,4.048,16.064,11.777,16.158-4.656,7.561.38,19.082,9.092,20.8-7.471,4.819-6.814,17.972,1.1,22.025-6.377-3.266-7.6,12.77-8.11,14.586-.8,2.868,3.6,5.117,2.726,8.248-.84,3.016-6.092,2.529-6.084,7.379a6.539,6.539,0,0,0,1.224,3.726c.687.972,2.695,1.848,2.785,3.035.08,1.059-1.9,2.3-2.236,3.4a6.94,6.94,0,0,0,.517,4.265,4.966,4.966,0,0,0,5.211,2.948c4.318-1.137,8.4-.065,12.25,1.606,2.392,1.04,4.391,1.647,7.123,1.027,4.919-1.116,8.861-2.99,9.994-8.326.406-1.911,1.334-2.319,3.154-2.45,5.953-.432,9.7-4.821,9.459-10.751-.037-.895-.043-1.793-.109-2.686-.219-2.95,7.729-3.775,9.694-7.211,2.88-5.034,2.519-14.68,5.271-20.761,2.939-6.493,3.7-16.034-2.792-18.967.9.406,3.171-5.062,3.359-5.7a15.47,15.47,0,0,0,.454-6.4c-.584-4.424-2.835-8.84-6.788-11.139a2.116,2.116,0,0,1-.882-.735c-.373-.7.908-3.511,1-4.442a15.689,15.689,0,0,0-.446-5.445,15.014,15.014,0,0,0-5.9-8.635c-2.36-1.609-5.225-2.579-7.082-4.75-2.34-2.734-2.5-6.647-3.648-10.057-2.716-8.072-12.052-13.278-20.346-11.345.6-10.34-12.712-18.488-21.645-13.246-2.859-7.846-16.5-7.679-19.162.234-6.849-7.466-21.086-5.466-25.614,3.6a16.62,16.62,0,0,0-27.493,10.5Zm-212.088,59.8a63.933,63.933,0,0,0,2.922,18.072,119.808,119.808,0,0,0,7.3,19.628c1.21,2.5,2.756,3.857,5.585,3.705a5.041,5.041,0,0,1,2.622.46c2.079,1.172,3.592.251,5.242-.925a56.714,56.714,0,0,0,12.349-12.43c2.895-3.868,5.431-8.01,8.06-12.074,3.2-4.944,4.4-10.608,5.29-16.271.835-5.3,1.265-10.69-.971-15.877a11.69,11.69,0,0,1-.58-3c-.178-1.279.457-2.223,1.7-1.8,2.223.758,3.988-.1,5.79-1.077,2.569-1.394,5.147-2.778,7.668-4.257,3.237-1.9,6.077-4.152,7.1-8.071a6.566,6.566,0,0,1,1.61-2.578,1.854,1.854,0,0,1,1.663-.426,3.022,3.022,0,0,1,1.487,1.515,2.592,2.592,0,0,1-.281,1.819c-.972,2.012-.093,3.237,1.385,4.627,2.9,2.732,6.554,2.517,10.01,2.806,7.99.668,15.33-2.43,22.743-4.646,4.7-1.4,9.06-3.921,13.565-5.959,1.646-.745,2.813-.047,2.673,1.737a7.2,7.2,0,0,1-.647,2.958c-2.292,3.987-4.468,8.108-8.258,10.948-2.442,1.83-5.034,3.457-7.5,5.254-.887.647-1.181,1.358.329,1.779a18.039,18.039,0,0,0,10.473.211,25.784,25.784,0,0,0,10.478-6.762c2.8-2.8,5.564-5.614,6.633-9.667.17-.647,1.519-1.323,2.339-1.344.593-.015,1.386.938,1.77,1.635a5.189,5.189,0,0,1,.341,2.248c.148,4.381-.191,8.683-2.023,12.76a6.819,6.819,0,0,0-.275,1.845,6.407,6.407,0,0,0,1.763-.016c2.694-.791,5.36-1.676,8.045-2.5,6.556-2.012,10.555-6.151,11.913-13.082,1.3-6.613,2.089-13.164.156-19.711-1.441-4.883-3.1-9.629-6.335-13.834-2.138-2.775-4.112-5.584-7.158-7.294a71.13,71.13,0,0,0-30.436-9.339,76.8,76.8,0,0,0-15.222.624c-3.3.44-6.6.631-9.721,1.905-3.983,1.626-7.976,3.227-11.964,4.84a13.44,13.44,0,0,1-2.491.967,6.7,6.7,0,0,1-2.063-.273,20.742,20.742,0,0,1,.829-2.257,1.7,1.7,0,0,1,.908-.682c3.686-1.361,6.513-4.545,10.646-4.992a3.726,3.726,0,0,0,1.66-.922c.764-.6.886-1.356-.182-1.671-6.369-1.883-12.791-3.443-19.516-2.325a66.683,66.683,0,0,0-6.77,1.307c-3.532.971-7.206,1.75-10.46,3.345a48.238,48.238,0,0,0-14.826,11.3,5,5,0,0,1-2.056,1.55A35.33,35.33,0,0,0,132.864,98.2c-2.053,2.233-3.634,4.893-5.573,7.24-4.045,4.9-6.49,10.663-8.639,16.492a64,64,0,0,0-3.8,16.285C114.344,143.685,113.09,149.078,113.805,154.174ZM358.882,296.587c-.538-5.209-1.041-10.422-1.629-15.626-.328-2.909-.8-5.8-1.2-8.7-.145-1.037-.626-1.335-1.5-.658-2.012,1.551-4,3.138-6.024,4.669-2.27,1.713-2.369,1.888-.575,4.14,2.739,3.441,3.317,7.559,3.808,11.7a2.9,2.9,0,0,1-.571,2.107c-.634.662-1.72,1.469-2.425,1.321-.682-.143-1.365-1.348-1.615-2.212a19.477,19.477,0,0,1-.251-3.436,12.807,12.807,0,0,0-3.91-8.5c-.371-.344-1.331-.663-1.544-.47-1.593,1.445-3.675,2.765-4.457,4.61a16.372,16.372,0,0,1-9.869,9.407,12.9,12.9,0,0,0-2.763,1.914c-5.182,3.786-10.71,5.427-16.879,2.572-2.661-1.231-5.216-2.691-7.877-3.922a6.572,6.572,0,0,0-3.208-.76c-4.161.425-8.326.918-12.44,1.662-3.6.653-3.581.817-3.306,4.372a14.544,14.544,0,0,0,.314,2.272c1.193,4.942,2.442,9.871,3.615,14.817.469,1.981.745,4.007,1.194,5.993.85,3.756.977,4.127,4.79,3.918,5.717-.313,11.41-1.1,17.11-1.7a37.92,37.92,0,0,0,6.06-.8q7.488-2.067,14.861-4.541c3.231-1.092,6.337-2.551,9.512-3.813a5.1,5.1,0,0,1,2.162-.551c.645.059,1.6.5,1.763.99a2.128,2.128,0,0,1-.8,1.851,17.556,17.556,0,0,1-3.153,1.323c-1.535.621-3.031,1.365-4.6,1.86-5.7,1.79-11.394,3.615-17.154,5.191a91.6,91.6,0,0,1-9.353,1.741c-6.521,1.072-12.934,2.927-19.7,2.047-4.167-.542-5.237-1.44-5.712-5.635A20.007,20.007,0,0,0,280.2,320.2c-.736-1.73-3.6-2.054-4.478-.669-2.847,4.51-5.846,8.946-8.358,13.641a117.376,117.376,0,0,0-5.921,13.287,113.392,113.392,0,0,0-3.729,12c-.772,2.96-.205,4.2,2.612,5.516,4.021,1.885,8.065,3.933,12.325,5.049,6.4,1.676,12.979,2.693,19.512,3.815,3.139.539,6.361.579,9.52,1.02a53.172,53.172,0,0,0,18.288-.322c2.1-.432,4.337-.164,6.509-.262,3.8-.17,7.62-.172,11.387-.62a112.975,112.975,0,0,0,13.177-2.267c5.3-1.281,10.482-3.037,15.737-4.511a2.421,2.421,0,0,0,1.922-3.176c-.456-2.514-.878-5.039-1.453-7.528a160.45,160.45,0,0,1-3.8-21.4c-.318-3.46-1.015-7.4-1.973-15.184C360.752,312.639,359.861,305.2,358.882,296.587ZM199.759,364.842a103.8,103.8,0,0,0,20.461-2.725c4.541-1.147,9.119-2.165,13.621-3.45a84.069,84.069,0,0,0,8.66-3.137c1.412-.577,2.881-1.421,2.486-3.374a46.545,46.545,0,0,0-1.33-5.15q-4.665-14.365-9.418-28.7c-1.169-3.516-2.608-3.637-5.35-1.169-5.539,4.986-10.426,10.916-18.56,12.133-7.033,1.052-13.266-.438-18.515-5.1-1.52-1.35-2.87-2.855-4.722-3.721a5.923,5.923,0,0,1-3.455-4.713,6.251,6.251,0,0,0-2.788-4.618c-2.263-1.507-4.368-4.012-2.884-7.2.942-2.024,3.022-3.585,3.7-5.646s-.045-4.579.439-6.764c.308-1.394.481-2.32-.591-3.346a10.116,10.116,0,0,1-1.9-2.4,9.125,9.125,0,0,1-.571-2.339c.933.031,2.133-.294,2.747.165a37.317,37.317,0,0,1,3.8,3.777c.4.405.855,1.027,1.322,1.063q7.733.6,15.48,1.006c1.069.057,1.343-.541.661-1.438-.459-.6-.946-1.189-1.367-1.818a16.072,16.072,0,0,1-3.056-7.318,5.552,5.552,0,0,1,5.143-6.3c2.361-.317,4.112.934,6.122,1.665a20.226,20.226,0,0,1,10,7.924c2.158,3.145,4.527,6.144,6.819,9.2,1.062,1.414,4.124,2.132,5.895,1.3,1.691-.791.725-2.247.616-3.39-.665-6.917-.357-13.706,2.166-20.288.642-1.676.071-2.54-1.9-2.943-9.082-1.856-18.137-3.9-27.282-5.376-6.153-1-12.44-1.16-18.669-1.687-.381-.033-.774.055-1.151,0a2.365,2.365,0,0,1-2.273-2.588c.018-1.512,1.243-1.354,2.237-1.435a21.557,21.557,0,0,0,3.055-.251c.366-.085.918-.918.817-1.216-.579-1.7-2.116-2.026-3.667-2.209a2.433,2.433,0,0,0-2.713,1.635c-1.373,3.026-2.854,6-4.22,9.031-2.666,5.912-5.171,11.9-7.955,17.756-2.57,5.408-5.469,10.659-8.133,16.025-4.538,9.144-8.943,18.35-14.5,26.952-2.075,3.209-3.672,6.723-5.625,10.016-2.34,3.945-4.781,7.833-7.266,11.688-1.825,2.83-1.464,2.734.956,4.6,3.518,2.711,7.339,5.033,11.064,7.469,4.5,2.943,9.6,4.393,14.74,5.7,1.465.372,3,.447,4.5.686,3.648.582,7.277,1.528,10.943,1.7C185.473,364.86,192.62,364.762,199.759,364.842ZM361.1,398.166c-.352-7.542-.678-15.085-1.07-22.625-.11-2.1-.526-2.382-2.62-2.093-.616.085-1.2.41-1.811.527-5.867,1.114-11.708,2.906-17.614,3.163-13.246.575-26.5,2.588-39.792.555-3.266-.5-6.551-.885-9.806-1.45-5.006-.868-9.991-1.865-14.994-2.759-.874-.156-1.6.216-1.264,1.278.423,1.335,1.007,2.617,1.493,3.932,1.809,4.894,3.585,9.8,5.414,14.687,2.1,5.607,4.185,11.219,6.422,16.77a4.38,4.38,0,0,0,2.284,2.239,27.517,27.517,0,0,0,13.962.975c2.795-.456,3.323-1.673,2.507-4.345a84.558,84.558,0,0,1-2.707-9.149,62.428,62.428,0,0,1-.687-9.545,2.047,2.047,0,0,1,1.339-1.479,2.087,2.087,0,0,1,1.708,1.011,16.211,16.211,0,0,1,1.014,3.676,244.711,244.711,0,0,0,7.52,28.016c1.377,4.369,3.3,5.651,7.892,5.873,1.4.067,2.786.207,4.178.32,4.906.4,9.645,2.02,14.733,1.229,6.653-1.034,13.352-1.6,19.489-4.768,3.432-1.773,3.528-1.644,3.368-5.35C361.755,411.957,361.418,405.061,361.1,398.166Zm-153.279,5.278c-.116,4.825.139,5.07,4.534,4.883.768-.033,1.536-.077,2.3-.156,3.18-.329,6.366-.616,9.535-1.03a60.48,60.48,0,0,0,7.159-1.242c3.49-.893,4.02-1.719,4.14-5.369.017-.511,0-1.025-.024-1.536-.291-5.117-.724-10.23-.836-15.351-.072-3.3.312-6.607.517-9.91.174-2.811.481-5.618.549-8.43.051-2.148-.426-2.391-2.57-1.879-4.96,1.183-9.947,2.261-14.879,3.547-5.68,1.481-11.49,1.57-17.274,1.708-6.885.165-13.777-.046-20.667-.066a65.114,65.114,0,0,1-19.246-2.661c-2.907-.9-5.934-1.436-8.8-2.439-1.856-.649-2.014.033-1.8,1.5.094.631.217,1.26.369,1.88,1.5,6.159,3.055,12.306,4.522,18.473,1.65,6.938,3.164,13.908,4.878,20.829.473,1.913,1.072,4.043,2.329,5.42.74.811,2.888.334,4.4.445.254.019.5.11.755.126,3.922.252,7.842.544,11.768.725,2.033.094,4.075-.012,6.114-.024,5.329-.031,10.642-.06,15.857-1.518,1.237-.346,1.719-.783,1.8-1.948.073-1.012.281-2.015.342-3.027.263-4.326.385-8.665.776-12.98.23-2.537.93-5.029,1.3-7.56a1.739,1.739,0,0,1,2-1.759c1.211.006,1.515.716,1.551,1.721a4.685,4.685,0,0,0,.088,1.518,1.473,1.473,0,0,0,.963.569c1.837-1.89,4.58-3,5.334-5.821.383-1.43.837-3.031,2.555-2.382,1.677.633.944,2.445.663,3.758a4.192,4.192,0,0,1-1.2,1.926c-2.61,2.568-5.292,5.061-7.913,7.617a3,3,0,0,0-.96,1.525C208.355,397.673,208.078,400.838,207.818,403.444Zm116.809-116.1-.04.269a61.151,61.151,0,0,1-6.757-.9,2.907,2.907,0,0,1-1.727-2.129c-.065-1.361,1.441-1.551,2.3-1.254,3.6,1.242,7.048.03,10.577-.275,3.508-.3,5.792-2.549,8.2-4.555a6.334,6.334,0,0,0,1.514-3.442c.392-1.854-.412-2.334-2.312-1.539a30.55,30.55,0,0,1-4.6,1.924,97.56,97.56,0,0,1-10.087,1.834c-1.4.175-3.486.2-3.5-1.886-.016-1.793,1.938-1.294,3.075-1.453,4.467-.624,8.815-1.56,12.681-4.032a22.123,22.123,0,0,0,3.112-2.172c1.456-1.337,2.334-4.506,1.452-5.567-1.35-1.623-3.138-1.821-5.169-1.126-3.357,1.15-6.77,2.136-10.168,3.165-4.26,1.291-8.51,2.62-12.8,3.8-1.944.536-3.033-.122-3.176-2.167a30.79,30.79,0,0,1,.606-5.642,47.848,47.848,0,0,0,.665-6.025c-.056-5.771-5.56-7.817-10.636-6.03-1.232.434-2,1.333-1.223,3.022,2.5,5.439,2.286,11.193,1.548,16.956A7.356,7.356,0,0,1,292,274.56c-1.88.333-3.8.467-5.7.639-4.507.4-8.84-.691-13.221-1.489-9.755-1.778-19.529-3.445-29.3-5.142-1.659-.289-3-.026-3.591,1.9-2.041,6.612-4.114,13.162-1.753,20.2.962,2.872.83,3.129,3.791,3.057,14.286-.349,28.575-.712,42.827-1.8a18.223,18.223,0,0,0,7.9-2.147c1.758-1.071,2.828-1.17,4.43-.315,3.367,1.8,6.839,3.4,10.143,5.3a12.115,12.115,0,0,0,7.015,1.284,5.16,5.16,0,0,0,1.379-.483c-.376-.459-.661-1.121-1.147-1.341-1.36-.616-2.83-.986-4.2-1.577-1.049-.451-1.786-1.445-1-2.418.481-.6,1.7-.727,2.608-.808a4.322,4.322,0,0,1,1.808.584,17.791,17.791,0,0,0,9.792,1.085c1.909-.308,3.665-1.6,5.461-2.515a.729.729,0,0,0-.383-1.4C327.442,287.183,326.035,287.28,324.627,287.346ZM205.333,319.608c1.92-.089,3.839-.2,5.76-.244.3-.007.88.324.869.46a1.928,1.928,0,0,1-.482,1.3c-.482.354-1.221.342-1.74.664-2.1,1.3-5.12.422-6.723,2.861,2.517-.047,5.036-.079,7.553-.153a4.24,4.24,0,0,0,1.867-.287c5.03-2.8,10.009-5.661,12.962-10.962,1.421-2.55,2.085-2.758,4.947-2.306,4.141.654,8.262,1.533,12.429,1.9,5.843.511,11.718.677,17.582.919,5.111.212,10.231.224,15.336.518,3.05.175,4.195-.723,3.172-3.632a40.991,40.991,0,0,1-2.55-10.722c-.14-1.953-1.406-2.868-3.294-2.98-1.015-.06-2.035-.15-3.049-.116-13.15.432-26.294,1.838-39.461.242a3.108,3.108,0,0,0-1.707.579c-2.1,1.225-3.449,1.149-4.785-.692a30.948,30.948,0,0,1-1.862-3.761,38.55,38.55,0,0,0-13.073-14.7,11.317,11.317,0,0,0-4.332-1.207c-1.1-.173-1.655.587-1.424,1.69a12.275,12.275,0,0,0,.73,2.156c1.723,4.149,4.837,7.128,8.218,9.926.65.537.845,1.625,1.25,2.459-.883.34-1.883,1.14-2.63.949-6.843-1.749-13.876-1.767-20.834-2.4a8.508,8.508,0,0,0-3.966,1.079,2.044,2.044,0,0,0-.845,1.81c.63,1.306.812,3.017,2.692,3.457,4.789,1.121,9.289,3.791,14.5,2.637a5.508,5.508,0,0,1,1.151-.053c1.167-.008,2.636-.057,2.782,1.358.166,1.609-1.479,1.516-2.534,1.664a29.008,29.008,0,0,1-13.586-1.347,20.357,20.357,0,0,0-4.852-.721,2.789,2.789,0,0,0-3.052,2.358,2.945,2.945,0,0,0,1.078,3.4,11.774,11.774,0,0,0,7.018,2.667,50.562,50.562,0,0,1,5.711.392,9.518,9.518,0,0,0,4.864-.4,16.189,16.189,0,0,1,4.867-.515,1.469,1.469,0,0,1,1.109.854,1.41,1.41,0,0,1-.567,1.23,10.909,10.909,0,0,1-3.8,1.687c-3.942.381-7.914.456-11.877.613-1.031.041-2.067-.051-3.1-.083a14.8,14.8,0,0,0,2.117,2.6,8.953,8.953,0,0,0,3.065,1.5A30.685,30.685,0,0,0,205.333,319.608ZM184,469.781l.1.294c1.932-.571,3.886-1.078,5.791-1.726,5.01-1.7,6.585-4.336,6.549-8.594a26.959,26.959,0,0,1,.247-3.438c.937-7.808,1.98-15.6,2.812-23.423.484-4.544.655-9.123.936-13.687.121-1.967-.31-2.426-2.442-2.189-7.606.843-15.224.429-22.84.349-1.735-.019-3.47.019-5.206.03.058,1.886.1,3.772.184,5.656a5.863,5.863,0,0,0,.249,1.122,125.479,125.479,0,0,1,3.945,24.107,11.809,11.809,0,0,0,.164,1.525q1.287,7.116,2.593,14.228c.161.882.257,1.779.479,2.645a3.823,3.823,0,0,0,3.757,3.208A21.679,21.679,0,0,0,184,469.781ZM359.436,445.4l.234-.033c-.536-3.778-1.047-7.56-1.627-11.331a14.526,14.526,0,0,0-.748-2.171c-.38-1.167-.931-1.395-2.275-1.141-5.617,1.06-11.277,1.895-16.931,2.747a15.531,15.531,0,0,1-3.046-.043c-1.653-.084-3.306-.309-4.956-.287-2.724.037-2.957.7-1.7,3.248,4.944,10.051,9.811,20.141,14.722,30.208,1.834,3.761,3.723,7.5,5.563,11.254a2.98,2.98,0,0,0,2.92,1.968c2.414.024,4.83.526,7.237.469,4.123-.1,5.552-1.752,5.081-5.777-.372-3.169-1.026-6.3-1.509-9.461C361.4,458.5,360.421,451.95,359.436,445.4Zm-195.764,50.16c1.189-.236,2.684-.527,4.177-.831a91.7,91.7,0,0,1,9.714-1.917,42.485,42.485,0,0,0,15.883-5.03,19.778,19.778,0,0,0,5.944-4.683c4.382-5.273,1.72-9.867-2.391-12.108-.874-.476-2.765-.688-3.138-.208-1.668,2.15-4.176,1.905-6.277,2.448-4.351,1.125-8.82,1.787-12.686-1.685a3.515,3.515,0,0,0-2.379-.842c-2.257.2-4.5.636-6.73,1.041-7.48,1.357-14.538,3.8-20.634,8.483-4.137,3.175-3.381,7.573-.225,9.667A35.462,35.462,0,0,0,163.672,495.559Zm135.889-77.836c-1.476.069-3.017.078-4.544.226-2.108.2-2.314.545-1.892,2.724a7.336,7.336,0,0,0,.4,1.474c1.692,3.99,3.479,7.941,5.1,11.96,3.486,8.644,6.876,17.327,10.333,25.983,1.651,4.134,3.356,8.246,5.054,12.36.554,1.342,1.3,2.717,2.909,2.72a37.845,37.845,0,0,0,7.622-.532c3.1-.636,3.305-1.051,3.079-4.2-.312-4.323-.79-8.634-1.219-12.949-.6-6.092-1.17-12.19-1.885-18.27a38.021,38.021,0,0,0-1.345-5.551,2.656,2.656,0,0,0-3.076-2.185,17.912,17.912,0,0,1-4.136-.555c-4.664-.855-8.154-2.7-8.172-8.337a7.761,7.761,0,0,0-2.243-4.68c-.563-.6-2.381-.006-3.63-.01C301.152,417.9,300.388,417.79,299.561,417.723Zm45.707,87.557c4.523-.689,9.14-1.022,13.537-2.187,3.147-.833,6.015-2.749,8.98-4.238,2.93-1.471,4.4-4.127,5.64-7a4.131,4.131,0,0,0-.5-4c-1.709-2.9-7.418-4.869-10.747-4.147-2.463.534-5.218,1.172-7.549.589-6.065-1.519-11.96-2.224-17.913.2-.226.092-.515.013-.761.072a31.048,31.048,0,0,0-14.736,7.721c-2.976,2.88-2.882,5.838.371,8.477a16.367,16.367,0,0,0,4.287,2.339C332.138,505.583,338.672,505.283,345.268,505.28ZM302.2,475.322c-1.532.072-3.076.049-4.6.232a52.5,52.5,0,0,0-14.8,3.626c-4.45,1.922-6.139,8.606-2.305,11.749a23.258,23.258,0,0,0,4.3,3.127c2.509,1.223,5.2,2.081,7.8,3.118,6.085,2.423,12.5,2.055,18.845,2.192,1.878.041,2.975-.7,3-3a8.4,8.4,0,0,1,1.8-4.451,26.161,26.161,0,0,1,10.256-8.4c2.742-1.26,5.7-2.042,8.548-3.083.438-.161,1.154-.673,1.106-.844a2.261,2.261,0,0,0-.955-1.375c-3-1.415-6.278-2.055-9.211-.387-3.407,1.937-6.833,1.653-10.317,1.05-1.542-.267-3.5-.86-4.313-1.993-1.3-1.814-2.732-1.933-4.557-1.783C305.273,475.218,303.737,475.246,302.2,475.322Zm-84.4-11.589c-4.907-.854-9.594,3.455-15.044,5.341-1.577.546-1,1.481-.179,2.306a18.559,18.559,0,0,1,2.661,2.656c1.9,2.954,1.581,6.016.171,9.121-.813,1.789-.517,2.293,1.375,2.4,6.77.383,13.552.575,20.209-1.039,5.164-1.252,10.343-2.239,14.885-5.553,2.845-2.075,2.974-4.348,2.8-7.247-.177-2.947-2.343-3.681-4.5-4.536C233.453,464.51,226.434,463.65,217.8,463.733Zm-16.075,1.514c4.48-.093,6.356-1.47,7.659-5.908.933-3.176,1.662-6.41,2.5-9.614q3.624-13.844,7.26-27.686c.675-2.585,1.255-5.2,1.947-7.777.418-1.56.273-2.36-1.7-2.167-2.929.286-5.884.3-8.827.456-3.449.177-4.448.943-5.355,4.267a18.177,18.177,0,0,0-.548,3.4c-.392,5.2-.548,10.429-1.136,15.608-1.038,9.135-2.278,18.249-3.56,27.354C199.731,464.849,200.3,465.271,201.726,465.247Zm47.05-200c1.9-.163,3.589.337,3.632-1.576.09-3.994.435-7.887,2.2-11.563.143-.3-.571-1.439-.987-1.5-3.387-.492-6.791-.9-10.2-1.179-4.571-.37-9.191-.34-13.718-.984a23.957,23.957,0,0,0-7.916.438c-1.7.314-2.726,1.09-2.109,3.2a19.28,19.28,0,0,1,.372,4.574c.046,1.136.347,1.929,1.626,2.209.986.215,1.884.823,2.868,1.048,4.817,1.1,9.65,2.132,14.476,3.189Zm36.909,6.045.033-.3,4.94-.61c.253-.031.507-.061.76-.1a2.375,2.375,0,0,0,2.294-2.563c.011-.893-.012-1.788-.059-2.68-.186-3.561-.592-4.194-4.092-3.833-8.743.9-17.124-1.661-25.692-2.389-7.127-.605-7.009-.082-6.681,6.6.069,1.409.87,1.917,2.2,2.125,6.006.945,11.991,2.028,18,2.938C280.13,270.907,282.917,271.035,285.685,271.294Zm45.141,183.3c.621,4.3,1.193,8.328,1.788,12.354.315,2.13.062,4.682,1.176,6.259s3.632,2.144,5.5,3.222c.765.442,1.4,1.112,2.152,1.578a5.541,5.541,0,0,0,1.414.419c.13-.57.468-1.19.344-1.7a12.594,12.594,0,0,0-1.086-2.4q-3.677-7.536-7.356-15.071c-1.057-2.171-2.083-4.358-3.164-6.517-.123-.246-.513-.359-.779-.534a6.973,6.973,0,0,0-.057.748C330.771,453.587,330.809,454.223,330.826,454.59Zm11.3-185.911c.407,1.551.679,2.664.992,3.765.659,2.322,1.026,2.662,2.711,1.2,3.335-2.893,6.421-6.086,9.461-9.3.843-.89.4-2-.978-2.194a4.078,4.078,0,0,0-2.232.17c-2.965,1.447-5.9,2.959-8.765,4.6C342.676,267.291,342.389,268.27,342.125,268.679ZM323.24,255.37c.329-1.833-.7-1.714-1.791-1.38-3.811,1.166-6,4.467-8.9,6.832a1.889,1.889,0,0,0-.407,1.049c-.214,1.1.012,1.8,1.365,1.382,1.566-.487,3.131-.977,4.7-1.445C322.481,260.536,323.1,259.744,323.24,255.37Zm-107.1-.612a2.615,2.615,0,0,0-.349-1.335c-.745-.929-1.58-2.168-2.589-2.413-1.6-.389-1.379,1.364-1.76,2.349a11.149,11.149,0,0,1-.834,1.695c-.825,1.375-.334,2.191,1.11,2.441a15.255,15.255,0,0,0,2.655.036C215.915,257.524,216.288,256.577,216.141,254.758Z"/><path d="M325.2,234.985c-8.956.452-15.741-4.807-19.262-12.432-.262-.567.315-1.521.5-2.3a5.209,5.209,0,0,1,1.981.581A10.063,10.063,0,0,1,309.951,223a19.5,19.5,0,0,0,8.85,7.479c4.4,1.854,8.406.909,12.381-.975a30.721,30.721,0,0,0,4.918-2.925c1.607-1.17,3.4-2.3,2.954-4.867-.234-1.343.748-1.775,1.959-1.558,1.935.349,4.757,3.52,4.557,5.456-.08.769-1.193,2.115-1.663,2.044-2.678-.4-4.17,1.382-5.946,2.735A26.865,26.865,0,0,1,325.2,234.985Z"/><path d="M318.894,215.136c-4.48.537-7.326-1.966-9.251-5.48-2.069-3.778-1.577-7.716.814-11.233,1.3-1.912,3.485-1.869,5.591-1.561a8.555,8.555,0,0,1,4.858,2.387c.633.656,2.706,4.173.918,4.663a1.143,1.143,0,0,1-.684-.084c-1.8-.654-3.142-2.213-4.912-2.941a2.442,2.442,0,0,0-1.585-.192,2.413,2.413,0,0,0-1.417,1.538c-.868,2.214-.047,4.853,1.279,6.706,1.388,1.94,4.157,3.9,6.374,2a13.582,13.582,0,0,0,2.075-2.726,3.263,3.263,0,0,1,.951-.988,1.225,1.225,0,0,1,1.911.8c.446,1.788-.635,4.176-1.949,5.39C322.446,214.728,320.723,214.917,318.894,215.136Z"/><path d="M357.967,210.846a2.2,2.2,0,0,1-3.6,1.234,6.588,6.588,0,0,1-1.354-2.128,35.309,35.309,0,0,0-2.527-4.394,3.683,3.683,0,0,0-1.561-1.5,2.737,2.737,0,0,0-1.68-.026c-1.359.356-2.479,1.308-3.772,1.856-1.988.842-4.645.107-3.46-2.456,1.391-3.013,6.046-3.55,8.9-3.176a8.4,8.4,0,0,1,4.977,2.208c1.54,1.613,1.92,3.989,3.053,5.855a8.41,8.41,0,0,1,.928,1.669A2.012,2.012,0,0,1,357.967,210.846Z"/><path d="M376.27,186.507c-.092.959.007,1.442-.19,1.7-.658.854-1.422,1.626-2.146,2.429-.721-.653-1.458-1.291-2.154-1.971a1.259,1.259,0,0,1-.272-.7c-.758-5.728-4.083-9.734-8.687-12.837-.961-.647-1.692-1.357-1.159-2.461a2.014,2.014,0,0,1,2.957-.837,35.316,35.316,0,0,1,5.255,3.745C373.361,178.614,374.542,182.989,376.27,186.507Z"/><path d="M301.859,187.068a4.588,4.588,0,0,1,1.653.318,7.624,7.624,0,0,1,2.3,1.625,32.849,32.849,0,0,1,2.54,2.748,6.127,6.127,0,0,1,1.367,2.263,2.255,2.255,0,0,1-.7,2.405,2.35,2.35,0,0,1-2.7-.285,9.092,9.092,0,0,1-1.8-2.271,4.64,4.64,0,0,0-2.1-1.941,3.543,3.543,0,0,0-2.753.283c-1.049.524-1.936,1.889-3.074,2.141-.666.147-2.236.173-2.578-.605a1.169,1.169,0,0,1-.069-.529C294.1,189.946,298.463,187.006,301.859,187.068Z"/><path d="M308.688,162.262a4.622,4.622,0,0,1,1.641.586c.27.228.323,1.275.132,1.392a23.209,23.209,0,0,1-3.427,1.683c-4.024,1.613-8.017,3.255-11.033,6.566-.583.641-1.362,1.646-2.173.714a4.056,4.056,0,0,1-.425-2.7A2.316,2.316,0,0,1,294.432,169c4.125-2.543,8.219-5.166,12.993-6.394C307.794,162.51,308.161,162.405,308.688,162.262Z"/><path d="M323.9,245.717a8.221,8.221,0,0,1-6.239-3.209,2.119,2.119,0,0,1-.1-2.01,1.969,1.969,0,0,1,1.946-.2c1.644,1.274,3.431,1.343,5.379,1.332.786,0,1.576.869,2.365,1.342a12.79,12.79,0,0,1-1.61,2.274C325.243,245.615,324.463,245.58,323.9,245.717Z"/><path d="M198.744,215.827c2.92.38,6.23-.989,9.562-2.294a4.307,4.307,0,0,1,1.388-.056c-.027.589-.042,1.18-.091,1.768-.008.1-.175.181-.247.285-.628.9-1.9,1.962-1.732,2.675a7.1,7.1,0,0,0,2.328,3.421c6.618,5.629,14.018,7.814,22.606,5.1,3.086-.974,6.069-1.928,8.386-4.319a2.661,2.661,0,0,1,1.3-.762,1.674,1.674,0,0,1,1.364.291,1.5,1.5,0,0,1,.078,1.368,4.856,4.856,0,0,1-1.392,1.752,27.5,27.5,0,0,1-12.244,5.112,12.1,12.1,0,0,0-4.488,1.8c-2.92,1.791-5.542,4.134-8.59,5.633a9.457,9.457,0,0,1-13.251-5.811,88.046,88.046,0,0,1-2.895-10.308c-.415-2.062-1.232-2.8-3.257-2.783a12.44,12.44,0,0,1-3.64-.786c-.369-.114-.6-.676-.893-1.033.368-.282.712-.76,1.109-.81C195.4,215.921,196.687,215.923,198.744,215.827Zm15.5,19.015c1.94.171,3.732-1.256,5.455-2.8a6.426,6.426,0,0,0,.8-1.093,3.139,3.139,0,0,0-.985-.449c-4.31-.259-7.351-3.2-10.862-5.135a29.3,29.3,0,0,1-2.923-2.09c.258,1.212.453,2.442.791,3.631a35.539,35.539,0,0,0,1.456,4.324A6.069,6.069,0,0,0,214.247,234.842Z"/><path d="M228.517,216.308c-4.91.218-8.068-1.566-9.547-5.407a3.344,3.344,0,0,1-.408-1.447,2.352,2.352,0,0,1,.75-1.591,1.82,1.82,0,0,1,1.644.274,12.253,12.253,0,0,1,2.025,2.28c3.086,4.254,7.954,3.843,11.061-1.5a2.925,2.925,0,0,0-1.781-4.326,27.41,27.41,0,0,0-5.99-.545c-.932-.019-2.033.228-2.09-.927-.028-.582.855-1.473,1.528-1.782,3.981-1.823,9.624.061,11.873,2.906,1.871,2.367,1.17,6.3-1.52,8.9A10.247,10.247,0,0,1,228.517,216.308Z"/><path d="M254.877,163.008a10.314,10.314,0,0,1,8.937,4.114,66.012,66.012,0,0,1,5.452,8.239c.833,1.372-.239,4.018-1.721,4.231a2.723,2.723,0,0,1-2.109-1.087c-1.074-1.563-1.814-3.352-2.838-4.955-1.878-2.938-4.1-5.536-7.622-6.6-1.177-.354-2.363-1.046-1.921-2.343C253.341,163.771,254.573,163.256,254.877,163.008Z"/><path d="M262.416,198.187c-.691.887-1.192,2-2.049,2.514-1.1.664-1.914.124-2.7-1.126-2.829-4.5-4.722-4.711-8.821-1.3a28.546,28.546,0,0,1-3.17,2.717c-.606.367-2.139.366-2.326.024-.4-.729-.608-2.17-.167-2.652,2.673-2.916,5.489-5.783,9.425-6.962,2.746-.823,5.054.493,6.9,2.327C260.653,194.865,261.327,196.471,262.416,198.187Z"/><path d="M207.065,158.544c.154,1.188-1.537,3.5-2.9,3.5-3.175-.007-5.349,2.059-7.745,3.554-2.02,1.261-3.684,3.079-5.592,4.537a4.867,4.867,0,0,1-2.37.926c-1.294.126-1.985-.905-1.228-1.971,1.164-1.638,2.68-3.019,3.965-4.576,3.191-3.869,7.384-6.059,12.11-7.4C205.228,156.573,206.889,157.193,207.065,158.544Z"/><path d="M201.114,187.881c4.712-.279,9.762,3.3,10.506,7.784a4.546,4.546,0,0,1-1.7,3.439c-1.234.985-1.954-.513-2.589-1.406a15.632,15.632,0,0,1-.835-1.709c-2.5-4.629-5.342-5.451-9.944-2.886-.332.185-.691.615-.96.559a4.482,4.482,0,0,1-2.268-.872c-.291-.3-.065-1.534.336-1.984,1.266-1.419,2.679-2.741,4.784-2.8C199.334,187.977,200.224,187.923,201.114,187.881Z"/><path class="cls-1" d="M524.571,4.019V520.3H4V4.019H524.571m4-4H0V524.3H528.571V.019Z"/><path class="cls-2" d="M525.268,521.39H4V3.8H525.268ZM34,491.39H495.268V33.8H34Z"/></g></svg>