<svg xmlns="http://www.w3.org/2000/svg" viewBox="0 0 528.571 523.805"><defs><style>.cls-1{fill:#231f20;}.cls-2{fill:#636464;}.cls-3{fill:gray;}.cls-4{fill:#b4b3b4;}.cls-5{fill:#333;}.cls-6{fill:#616060;}.cls-7{fill:#8d8989;}</style></defs><title>icon</title><g id="Layer_3" data-name="Layer 3"><rect class="cls-1" x="151.25" y="31.356" width="3" height="359.291"/><rect class="cls-1" x="130.302" y="31.356" width="3" height="361.374"/><rect class="cls-1" x="109.592" y="31.356" width="3" height="364.23"/><rect class="cls-1" x="88.882" y="31.356" width="3" height="366.67"/><rect class="cls-1" x="67.934" y="31.356" width="3" height="369.705"/><rect class="cls-1" x="47.224" y="31.356" width="3" height="373.038"/><rect class="cls-1" x="419.052" y="31.356" width="3" height="322.989"/><rect class="cls-1" x="438.175" y="31.356" width="3" height="320.648"/><rect class="cls-1" x="458.25" y="31.356" width="3" height="317.792"/><rect class="cls-1" x="479.039" y="28.976" width="3" height="317.792"/><rect class="cls-1" x="398.103" y="31.356" width="3" height="326.441"/><rect class="cls-1" x="377.393" y="31.356" width="3" height="328.405"/><rect class="cls-1" x="356.684" y="31.356" width="3" height="331.797"/><rect class="cls-1" x="335.736" y="31.356" width="3" height="334.217"/><rect class="cls-1" x="315.026" y="31.356" width="3" height="337.034"/><rect class="cls-1" x="294.236" y="35.641" width="3" height="54.433"/><rect class="cls-1" x="275.034" y="37.819" width="3" height="54.433"/><rect class="cls-1" x="254.404" y="23.58" width="3" height="68.584"/><rect class="cls-1" x="233.774" y="26.379" width="3" height="68.584"/><rect class="cls-1" x="213.143" y="29.178" width="3" height="68.584"/><rect class="cls-1" x="192.512" y="31.978" width="3" height="68.584"/><rect class="cls-1" x="171.882" y="34.777" width="3" height="68.584"/><path class="cls-2" d="M448.4,207.494l-65.7,3.795v-85.88l64.807-4.993Q447.957,163.955,448.4,207.494Z"/><path class="cls-3" d="M448.4,207.494l-58.718,3.795v-85.88l57.92-4.993Z"/><path class="cls-4" d="M442.373,198.941l-46.657,3.015v-68.24l46.022-3.967Q442.056,164.345,442.373,198.941Z"/><path class="cls-3" d="M299.545,363.153l-12.081-9.4,2.083-262.591,10.117-1.084Q299.606,226.613,299.545,363.153Z"/><path class="cls-2" d="M307.48,369.461,295.4,359.82l2.083-269.23L307.6,89.479Q307.541,229.47,307.48,369.461Z"/><path class="cls-5" d="M241.631,161.8c.8-.611.212-2.726-.417-4.434a8.528,8.528,0,0,1-4.85-1.25c-1.094-.718-1.266-1.286-1.309-1.458-.2-.778.292-1.267.535-2.47a7.939,7.939,0,0,0,0-2.469c-.249-2.779-.72-5.2-.773-5.476-.561-2.886-.842-4.33-1.012-5.713-.4-3.23-.63-5.277.119-7.766.36-1.2,1.136-3.649,3.3-4.7a4.633,4.633,0,0,1,.893-.327,3.609,3.609,0,0,0-2.351.237,2.9,2.9,0,0,1,3.987-.892,1.55,1.55,0,0,0-1.7-.863,1.751,1.751,0,0,1,1.428-.447,1.5,1.5,0,0,1,.595.268,3.712,3.712,0,0,1,.744-1.606,3.6,3.6,0,0,1,.774-.714c-.027.369-.065.756-.119,1.16q-.054.4-.119.774a11.974,11.974,0,0,1,2.648-1.458c5.269-2.082,10.45.285,12.646,1.289,6.008,2.745,8.493,7.021,8.274,7.894a4.347,4.347,0,0,1-.5,1.152,7.8,7.8,0,0,1-.516.634c-.607.865.1,1.774-.278,3.056a3.146,3.146,0,0,1-.674,1.189q.019,2.162.079,4.365.018.677.039,1.349l2.659.278c-.172.427-.425,1.071-.715,1.864a19.6,19.6,0,0,1-.714,1.944c-.609,1.2-1.138,1.247-1.745,2.3a6.106,6.106,0,0,0-.715,2.34c-.546,3.548-1.284,8.348-4.007,10.673a6.856,6.856,0,0,1-3.134,1.468,25.034,25.034,0,0,1,3.849,1.269c3.2,1.349,4.035,2.492,7.1,4.483,5.761,3.743,8.443,3.374,11.049,7.142a13.875,13.875,0,0,1,1.249,2.261c3.609,7.933,3.409,18.92,3.393,19.817-.128,7.09-.157,14.778-.119,24.578l1.19,2.083-1.309.774q.772,1.042,1.547,2.083a217.468,217.468,0,0,0,1.547,28.982q.524,4.332,1.19,8.451l-.386.327.237,3.779-1.755,1.071a21.975,21.975,0,0,1,1.071,4.464,13.926,13.926,0,0,1-.089,5.8,11.3,11.3,0,0,1-3.422,5.386,10,10,0,0,1-6.725-.773q-.228-2.128-.457-4.255l-.078-2.649,2.678-2.142v-3.988l-.357-4.6c-.272-.323-.543-.648-.814-.972-.022-4.226-.071-10.642-.2-18.508-.155-9.592-.293-13.051-.238-18.885.043-4.605.21-11.22.793-19.282-.748,7.315-1.134,13.436-1.349,17.893-.477,9.894-.407,17.688-.317,26.225.067,6.337.213,11.6.337,15.305q-.551.848-1.1,1.695c-.168,1.712-.391,4.254-.565,7.34-.435,7.74-.226,13.081-.179,16.406.132,9.138-.877,8.464-1.547,22.614-.658,13.886.307,14.684-.714,25.828-.78,8.515-1.17,12.773-1.9,15.711-1.009,4.038-3.318,11.53-2.261,15.83a40.578,40.578,0,0,1,.952,4.761c.27,1.954.188,2.418.357,3.214.726,3.4,4.475,5.414,5.475,5.951,5.647,3.031,10.8.824,12.022,3.451a2.337,2.337,0,0,1,0,2.023c-.709,1.294-2.843,1.066-7.38,1.072-8.1.009-8.611.744-10.474-.238a21.254,21.254,0,0,0-5-2.142c-.647-.178-1.189-.291-1.547-.358l-.437,1.23-9.323-.278c.442-2.542-.114-3.884-.714-4.642-.682-.859-1.411-.951-1.9-1.9-.7-1.349-.129-2.888.119-3.689.876-2.835.1-4.147.119-8.57.021-5.885,1.415-10.542,2.142-16.425,1.092-8.847-.811-8.435-.595-22.02.15-9.437,1.063-9.317,1.071-19.162,0-3.1-.276-7.621-.833-16.663-.742-12.049-1.148-14.979-2.143-15.116-1.174-.163-2.6,3.648-2.975,4.642a26.775,26.775,0,0,0-1.428,10.831c.058,2.9-.517,7.012-1.666,15.235-1.6,11.444-2.911,10.032-3.571,18.091-.478,5.832.063,8.337-.833,16.782-.3,2.848-.405,2.953-.953,7.142-2.22,17-3.33,25.508-2.856,28.922.19,1.372,1.213,8.242-1.19,9.523-.291.154-.633.228-1.667.713a11.889,11.889,0,0,0-3.213,1.905c-1.234,1.18-.835,2.046-1.667,3.214-1.5,2.1-4.771,2.07-9.4,2.023-4.709-.048-5.681-1.01-6.071-1.548A2.753,2.753,0,0,1,210,401c.392-.938,1.4-.949,2.738-1.666,2.095-1.121,4.073-3.46,4.166-5.713.051-1.232-.508-1.317-.595-3.214a10.885,10.885,0,0,1,.476-3.571c.614-2.287.992-4.634,1.666-6.9,1.253-4.218-.118-7.59-.714-13.807-.787-8.211,1.132-7.256.952-19.282-.127-8.448-1.08-9.367-.119-14.164.692-3.45,1.687-5.477,2.023-10.116a33.276,33.276,0,0,0-.357-8.094c-.37-2.173-.547-1.859-.714-3.213-.612-4.969,2.04-7.007,1.785-11.545-.114-2.034-.662-1.894-1.428-5-1.865-7.56-.824-17.33.119-20.949a4.725,4.725,0,0,0-.119-3.213,4.339,4.339,0,0,0-1.9-1.9c1.626-16.043,2.486-27.852,2.5-30.709.013-2.722.019-4.083-.476-5.237a3.845,3.845,0,0,1-.595-2.38c.216-1.066,1.057-1.287,1.547-2.261.657-1.305,0-2.6-.357-4.047a13.731,13.731,0,0,1,1.071-8.451c1.524-3.619,4.389-5.46,4.166-5.713-.1-.113-.753.166-3.541,2.262l.447-6.4a35.284,35.284,0,0,0-1.31,4.017c-.895,3.426-1.2,6.727-1.785,13.172-.22,2.446-.328,4.054-1.269,5.673a3.864,3.864,0,0,0-.635,1.468c-.224,1.384.634,2.095.754,3.73a6.588,6.588,0,0,1-.318,2.221c-.541,2.422-.055,4.248.2,6.428a60.987,60.987,0,0,1-.239,8.53c-.307,5.171-.645,5.962-.952,10.513-.141,2.094-.3,5.279-.238,9.244l-1.983,1.231a2.455,2.455,0,0,1-2.381,3.847,13.528,13.528,0,0,1,2.738,6.19c.305,2.055-.007,3.75.555,7.419.154,1.006.322,1.82.437,2.341l-1.945.635c.5.58,1.023,1.324.794,1.7-.381.635-2.669-.042-3.809-.475-1.483-.565-5.254-2-6.586-5.475-1.034-2.7-.5-6.388-.158-8.769a3.071,3.071,0,0,0,.039-.516c-.012-1.207-.753-1.648-1.19-2.856-.367-1.015,0-1.134-.357-2.143a4.976,4.976,0,0,0-1.389-2.023q.813-21.909,1.627-43.82c.31-1.418.754-3.564,1.19-6.189.968-5.823,1.095-9.141,1.607-15.295.5-6.018,1.035-12.3,2.2-19.46.765-4.7,1.591-8.473,2.142-10.831a18.848,18.848,0,0,1,2.857-2.618c2.593-1.925,4.823-2.525,8.272-3.571,7.515-2.279,11.273-3.418,12.259-4.344,1.707-1.6,3.43-4.215,5.832-3.988C240.5,161.781,241.163,162.153,241.631,161.8Z"/><path class="cls-5" d="M210.278,405.009a26.857,26.857,0,0,0,8.411,1.269c3.034-.033,8.154-.09,9.76-2.935.5-.884.393-1.567,1.269-2.46.984-1,1.734-.771,3.65-1.984,1.479-.935,1.487-1.361,2.222-1.508,1.579-.315,3.01,1.356,4.285,2.539,2.7,2.5,3.218,1.443,11.982,6.11,0,0,2.206,1.176,5.872,3.333a185.9,185.9,0,0,1,19.043,13.172c12.157,9.581,27.44,18.5,47.689,30.311C335,459,343.216,463.419,347.789,465.87c17.046,9.136,27.256,13.8,44.912,24.122,3.585,2.1,6.476,3.839,8.252,4.919l-89.823-.635c-23.436-27.463-37.923-41.623-47.133-49.513a183.622,183.622,0,0,1-28.09-29.677c-1.637-2.168-2.94-4-3.808-5.237a20.966,20.966,0,0,1-21.821-4.84Z"/><path class="cls-5" d="M251.7,396.439c1.088.443,5.008,1.883,8.689.04a8.529,8.529,0,0,0,1.864-1.27,47.549,47.549,0,0,0,24.956,1.746l.4-1.468L288.754,397c2.691,1.408,6.918,3.595,12.14,6.189,11.138,5.532,19.554,9.312,22.3,10.553,8.4,3.8,22.078,10.228,44.872,21.662l5.951-6.784c3.76-1.128,7.746-2.481,11.9-4.106,2.962-1.159,5.76-2.358,8.391-3.571,4.568,1.429,11.322,3.526,19.52,6.011,16.2,4.912,26.421,7.819,34.457,10.176,11.018,3.233,26.635,7.989,45.983,14.461l1.746,43.007-69.351.159q-52.477-29.976-105.217-59.511Q286.623,415.74,251.7,396.439Z"/><path class="cls-4" d="M34.084,406.477l134.853-18.528,34.755,112.675-170.917.952Z"/><path class="cls-4" d="M308.036,369.619l187.5,42.611q.477-34.437.953-68.875Z"/><path class="cls-6" d="M524.571,4V520.287H4V4H524.571m4-4H0V524.287H528.571V0Z"/><path class="cls-7" d="M525.268,521.373H4V3.783H525.268ZM34,491.373H495.268V33.783H34Z"/></g></svg>