<svg xmlns="http://www.w3.org/2000/svg" viewBox="0 0 528.571 523.805"><defs><style>.cls-1{fill:none;}.cls-2{stroke:#000;stroke-miterlimit:10;stroke-width:3px;}.cls-3{fill:#616060;}.cls-4{fill:#8d8989;}</style></defs><title>icon</title><g id="Layer_5" data-name="Layer 5"><path d="M436.583,337.421c-.5-.16-.97-.38-2.65-1.05,10.71-13.97,21.01-27.4,31.44-41q-26.925-12.735-54.94-25.98c-2.45,3.44-4.66,6.86-7.23,9.97a5.343,5.343,0,0,1-3.96,1.68c-2.34-.18-4.62-1.1-7.46-1.86,1.99-5,3.83-9.66,5.69-14.35,14.57,3,28.54,5.87,42.89,8.83.47-2.42.88-4.53,1.35-6.91-14.93-3.09-29.41-5.88-43.77-9.18-3.9-.89-5.38.35-6.61,3.59-2.08,5.45-4.4,10.81-6.71,16.43-10.13-2.41-20.04-4.77-30.18-7.18-1.48,2.9-2.88,5.65-4.45,8.73-2.84-6.86-5.52-13.22-8.09-19.61-.88-2.19-1.97-2.76-4.46-2.17-6.47,1.53-13,2.91-19.54,4.09h-.02q-9.93,2.145-19.84,4.27l-5.75,1.23q.135.7.27,1.35c.33,1.66.62,3.14.9,4.6,5.62,2.06,12.02-5.65,17.87,2.12-1.25.3-2.48.6-3.72.91-3.83.93-7.61,1.84-11.38,2.76-7.44,1.81-14.82,3.61-22.36,5.44-.84.21-1.68.41-2.53.62.31.52.62,1.05.92,1.57,9.5,16.22,17.5,32.75,23.12,50.33-11.27,4.82-13.08,9.02-9.34,20.67,1.14,3.54,2.1,7.13,3.28,11.17-.09.02-.19.05-.28.07a14.242,14.242,0,0,1,2.41,5.69,9.257,9.257,0,0,1,.14,1.12.392.392,0,0,0,.1-.019c.91,10.059,2.59,19.739,2.51,29.409-.18,21.54-1.3,43.07-1.9,64.61-.66,23.65,17.14,42.93,40.41,43.28q32.79.51,65.59-.02c23.23-.4,41.79-21.34,40.31-44-1.22-18.79-1.72-37.63-2.34-56.44-.65-19.66,2.84-38.69,9.17-57.26C448.383,346.3,445.2,340.131,436.583,337.421Zm-22.96-52.46c-1.11-.48-2.42-1.05-4.15-1.8,1.06-1.61,2.02-3.059,3.2-4.85,13.86,6.55,27.5,13.01,41.67,19.71-2.17,2.62-4.19,4.81-5.92,7.21-6.75,9.4-13.64,18.72-19.99,28.4-2.2,3.37-4.41,4.26-8.1,3.41,8.3-10.07,9.09-18.21,2.56-24.74-6.31-6.32-14.49-6.03-23.81.41C403.893,303.541,408.7,294.361,413.623,284.961Zm6.57,38.73a8.325,8.325,0,0,1-8.73,7.82,8.6,8.6,0,0,1-7.83-8.84,8.741,8.741,0,0,1,8.84-7.86A8.517,8.517,0,0,1,420.193,323.691Zm-17.68,13.42h-12.67c1.92-5.36,3.72-10.4,5.36-14.96C397.613,327.081,400.033,332.041,402.513,337.111Zm-44.3-58.52c14.9,3.57,29.69,7.12,43.92,10.53-6.04,14.27-12.04,28.04-17.69,41.95-2.67,6.57-2.37,6.7-11.01,5.87,6.58-4.3,9.95-9.89,8.26-16.97a19.273,19.273,0,0,0-5.61-9.36c-6.04-5.41-15.84-4.12-21.07,2.09-6.19,7.35-4.65,15.97,4.79,24.36H346.6C347.743,317.051,350.133,297.641,358.213,278.591Zm8.52,52.41a8.3,8.3,0,1,1,.04-16.6,8.223,8.223,0,0,1,8.23,8.28A8.455,8.455,0,0,1,366.733,331Zm-31.76-65.82a2.845,2.845,0,0,1,2.26,1.53c2.94,8.04,6.36,15.98,8.26,24.28.87,3.8-1.33,8.32-2.27,13.19-3.97-11.9-7.62-22.88-10.9-32.72-2.27-.76-4.43-.25-6.48.31a22.106,22.106,0,0,1-3.46.79c-2.21.26-4.3-.31-6.31-3.42C322.753,267.711,328.843,266.341,334.973,265.181Zm-50.34,28.57c-.59-1.35-1.33-2.64-2.23-4.39,11-2.66,21.63-5.3,32.32-7.73.95-.21,2.54.69,3.27,1.55,4.69,5.51,9.11,11.24,13.83,16.72,4.94,5.74,4.43,12.93,5.58,19.66a115.162,115.162,0,0,1,1.12,12.6c.22,3.58-1.09,5.72-5.22,5.22a76.712,76.712,0,0,0-8.14-.05c9.96-8.45,11.44-18.18,4.65-25.31a15.517,15.517,0,0,0-22.57.3c-6.57,7.21-5.01,16.68,3.97,24.19-6.39,2.13-7.44,1.32-9.97-4.73C295.923,319.021,290.213,306.411,284.633,293.751Zm34.14,37.26a8.568,8.568,0,0,1-8.41-8.34,8.282,8.282,0,0,1,16.56-.23A8.519,8.519,0,0,1,318.773,331.011Zm119.83,22.51a156.052,156.052,0,0,0-9.38,58.081c.6,19.109,1.24,38.229,2.35,57.319,1.1,18.81-14.27,36.34-33.39,36.64q-32.775.525-65.56,0c-19.28-.32-33.91-16.73-33.25-36.57.64-19.56,1.45-39.13,2.03-58.69.57-19.34-2.85-38.07-9.02-56.35-2.39-7.1-.64-9.55,6.74-9.56q16.725-.015,33.46,0h33.01c22.15,0,44.31.19,66.46-.13C438.043,344.181,440.583,348.031,438.6,353.521Z"/><path d="M365.913,399.831a40.183,40.183,0,1,0,39.56,40.42A40.226,40.226,0,0,0,365.913,399.831Zm-.54,73.3a33.111,33.111,0,1,1,33.03-33.02A33.285,33.285,0,0,1,365.373,473.131Z"/><path d="M403.971,405.152l-5.981,3.809c-15.063-22.354-35.91-35.711-62.276-41.029.134-2.261.256-4.3.416-6.991C365.023,366.4,387.419,380.7,403.971,405.152Z"/><path d="M362.525,412.517h6.133q.1,2.3.209,4.594a21.978,21.978,0,0,1,4.629,2.2,13.347,13.347,0,0,1,4.9,4.386,11.69,11.69,0,0,1,1.6,6.242l-6.086.741a7.008,7.008,0,0,0-1.357-4.557c-2.271-2.881-6.836-3.066-9.875-1.434-.577.309-4,2.245-3.989,5.6.017,3.424,3.6,5.348,4.149,5.629,1.962,1.008,3.054.541,5.28.868,6.09.893,10.939,5.342,11.854,10.863.966,5.83-2.005,10.813-7.756,13.985-.252.14-.618.535-1.2.9a9.4,9.4,0,0,1-2.351,1.069l.126,3.709h-6.462q0-2.106,0-4.211a16.306,16.306,0,0,1-4.6-1.858A14.366,14.366,0,0,1,352,455.382a13.175,13.175,0,0,1-1.345-5.133l5.733,0a7.933,7.933,0,0,0,2.464,4.151c3.663,3.152,10.155,2.1,12.841-1.244a5.64,5.64,0,0,0,1.292-3.245c.089-2.5-1.705-4.934-4.872-5.823-2.014-.565-4.181-.556-6.249-.957a13.726,13.726,0,0,1-11.275-11.469,4.52,4.52,0,0,1-.028-.632c-.085-5.565,3.667-10.5,8.129-12.661a13.387,13.387,0,0,1,3.2-1.067Z"/><path class="cls-1" d="M299.193,265.261c-.39.15-.77.3-1.15.46a53.724,53.724,0,0,0-5.48,2.58"/><path class="cls-1" d="M317.883,261.451q-3.09.12-6.11.54"/><path class="cls-1" d="M283.883,273.991a58.229,58.229,0,0,0-10.01,10.14c-.55.71-1.09,1.44-1.61,2.19"/><path class="cls-1" d="M289.043,368.561a14.242,14.242,0,0,1,2.41,5.69,9.257,9.257,0,0,1,.14,1.12,12.817,12.817,0,0,1,.07,1.34"/><path class="cls-1" d="M325.843,271.771c-1.15.26-2.3.52-3.46.79q-7.38,1.68-14.77,3.37a48.381,48.381,0,0,1-11.38,2.76"/><path class="cls-1" d="M291.593,375.371a.355.355,0,0,0,.1-.02c.91,10.06,2.59,19.74,2.51,29.41-.18,21.54-1.3,43.07-1.9,64.61-.66,23.65,17.14,42.93,40.41,43.28q32.79.51,65.59-.02c23.23-.4,41.79-21.34,40.31-44-1.22-18.79-1.72-37.63-2.34-56.44-.65-19.66,2.84-38.69,9.17-57.26,2.94-8.63-.24-14.8-8.86-17.51-.5-.16-.97-.38-2.65-1.05,10.71-13.97,21.01-27.4,31.44-41q-26.925-12.735-54.94-25.98c-2.45,3.44-4.66,6.86-7.23,9.97a5.343,5.343,0,0,1-3.96,1.68c-2.34-.18-4.62-1.1-7.46-1.86,1.99-5,3.83-9.66,5.69-14.35,14.57,3,28.54,5.87,42.89,8.83.47-2.42.88-4.53,1.35-6.91-14.93-3.09-29.41-5.88-43.77-9.18-3.9-.89-5.38.35-6.61,3.59-2.08,5.45-4.4,10.81-6.71,16.43-10.13-2.41-20.04-4.77-30.18-7.18-1.48,2.9-2.88,5.65-4.45,8.73-2.84-6.86-5.52-13.22-8.09-19.61-.88-2.19-1.97-2.76-4.46-2.17-6.47,1.53-13,2.91-19.54,4.09h-.02q-9.93,2.145-19.84,4.27l-5.75,1.23"/><path class="cls-2" d="M180.3,155.762V143.329c-.735-.543-1.547-1.2-2.416-1.774-2.726-1.794-4.554-4.129-4.753-7.524a5.1,5.1,0,0,0-.422-1.515c-1.079-2.724-2.294-5.4-3.24-8.169-.87-2.544-1.523-5.168-2.153-7.786-.79-3.275-1.459-6.579-2.178-9.871a4.1,4.1,0,0,1,.595-3.247c1.2-1.822,2.43-3.628,3.653-5.437.337-.5.692-.983,1.079-1.531-.054-2.379-.146-4.815.9-7.065a26.216,26.216,0,0,1,2.24-4.146c1.762-2.481,4.257-3.2,7.192-2.539a33.988,33.988,0,0,0,6.929.819,8.371,8.371,0,0,0,6.456-2.716,9.247,9.247,0,0,1,4.935-3,7.029,7.029,0,0,1,2.45-.165,37.013,37.013,0,0,1,4.353,1.108,13.155,13.155,0,0,1,7.009,5.061,36.5,36.5,0,0,1,5.836,11.629,10.29,10.29,0,0,1-.292,6.2,10.012,10.012,0,0,0-.657,2.823,46.355,46.355,0,0,1-1.85,11.077c-1.253,4.552-2.823,9.02-3.979,13.6a105.2,105.2,0,0,1-3.859,11.988,11.174,11.174,0,0,1-4.986,6.221c-1.039.561-2.181.932-3.43,1.453v7.11l26.316,8.918c4.273,10.383,8.372,20.864,12.379,31.54l4.02-.978c.735-2.943,1.156-3.283,4.711-3.676,0-2.751-.045-5.532.009-8.31a95.766,95.766,0,0,1,3.194-22.473,23.508,23.508,0,0,1,.98-2.992c.937-2.274,1.978-2.859,4.6-2.7,1.845,1.057,2.858,2.829,3.854,4.616.659,1.183,1.294,2.383,1.993,3.543a7.847,7.847,0,0,0,1.137,1.4,3.27,3.27,0,0,0,3.472,1.017c1.8-.5,3.686-.713,5.471-1.259,2.642-.807,4.782.136,6.632,1.8a42.179,42.179,0,0,1,3.576,4.08c.489.572.957,1.161,1.427,1.749,2,2.5,4.639,3.106,7.669,2.6a9.536,9.536,0,0,1,4.454.475,3.578,3.578,0,0,1,2.308,4.173,17.256,17.256,0,0,1-2.493,6.242,57.738,57.738,0,0,1-12.042,13.138c-2.951,2.446-6.076,4.683-9.112,7.006a13.519,13.519,0,0,1-.075,3.339c-.17.667-1.075,1.146-1.746,1.8l1.978,6.241a9.367,9.367,0,0,1,4.467,1.371,6.451,6.451,0,0,1,2.8,3.96c.559,2.329,1.02,4.69,1.372,7.06.619,4.162-1.549,6.8-4.316,7.834-.348.129-.671.327-1.124.553v1.97c0,6.656.1,13.313-.031,19.966-.069,3.6-.522,7.2-.8,10.8-.177,2.327-.277,4.661-.533,6.979-.345,3.13-.8,6.249-1.222,9.37-.314,2.3-.668,4.6-.993,6.9a163.41,163.41,0,0,1-3.913,19.61c-.874,3.254-1.891,6.473-2.936,9.677a15.021,15.021,0,0,1-1.617,3.469,9.577,9.577,0,0,1-2.38,2.656c-6.466,4.545-13.374,4.978-20.539,1.874a53.162,53.162,0,0,1-11.309-7c-1.606-1.244-3.2-2.508-5.027-3.944.21,4.357-.221,8.493.353,12.618a14.342,14.342,0,0,1,.078,1.809c.031,2.874.031,5.748.082,8.622q.237,13.479.507,26.958c.118,5.887.262,11.773.389,17.659.017.753,0,1.508,0,2.3-2.471,2.191-5.682,2.641-8.751,3.8-.112,2.361-.229,4.683-.331,7.007-.178,4.068-.336,8.138-.526,12.206-.109,2.331-.28,4.659-.394,6.99-.18,3.69-.328,7.382-.506,11.072-.127,2.633-.262,5.266-.427,7.9-.253,4.056-.536,8.11-.805,12.165-.01.15-.008.3-.013.453-.183,5.052-.338,10.105-.558,15.156-.144,3.309-.381,6.614-.576,9.928,7.211,3.265,14.257,6.444,21.289,9.651,1.283.585,2.743.988,3.294,2.547-.185,3.4-2.909,5.067-6.029,5.58-4.2.689-8.216.031-12.271-.835-5.421-1.158-10.858-2.24-16.283-3.382a23.534,23.534,0,0,1-2.319-.732,9.069,9.069,0,0,1-.2-4.34c.223-1.932.686-3.835,1.033-5.753a5.44,5.44,0,0,0,.185-1.553c-.383-3.2-.86-6.4-1.226-9.6-.383-3.36-.657-6.733-1.017-10.1-.192-1.789-.474-3.568-.7-5.354-.207-1.639-.415-3.278-.583-4.921-.343-3.365-.621-6.737-1-10.1-.369-3.279-.849-6.546-1.239-9.824-.223-1.866-.336-3.745-.549-5.613-.231-2.011-.53-4.013-.782-6.022-.177-1.416-.354-2.833-.479-4.254-.424-4.8-.907-9.6-.2-14.427a28.919,28.919,0,0,0,.032-4.2c-1.671-.76-3.8-.12-4.77-1.818.276-5.148,2.138-9.98.488-15.195-.053,1.412-.066,2.617-.154,3.816a31.937,31.937,0,0,0-.354,3.581c.122,2.965-.908,5.6-2.082,8.418l-4.884,1.695-38.947,78.453,19.922,16.236.123,1.93c-2.241,3.992-4.957,3.723-8.292,3.208a31.113,31.113,0,0,1-9.55-3.255c-5.282-2.737-10.632-5.341-15.938-8.032a20.831,20.831,0,0,1-2.107-1.385c.612-3.662,2.242-6.662,3.759-9.663a30.273,30.273,0,0,0,2.015-5.456c1.97-6.918,3.885-13.853,5.812-20.784q4.185-15.054,8.36-30.11c1.346-4.839,2.682-9.681,4.1-14.5a17,17,0,0,1,1.429-3.065c.81-1.53,1.677-3.031,2.638-4.755l-6.384-2.344c0-1.021-.076-1.921.013-2.805.4-3.96.837-7.915,1.26-11.872.016-.15.013-.3.019-.453q.255-6.785.511-13.569c.167-4.3.332-8.593.52-12.888.118-2.709.285-5.416.413-8.125.171-3.615.319-7.231.488-10.846.134-2.86.3-5.718.427-8.578q.258-5.649.488-11.3c.147-3.465.266-6.931.441-10.394.083-1.649.269-3.293.418-5.053-.743-.257-1.428-.508-2.122-.729a7.187,7.187,0,0,1-5.188-7.133,42.069,42.069,0,0,1,.777-7.614,41.3,41.3,0,0,0,.542-4.473c.221-3.688.348-7.38.548-11.069.085-1.575.259-3.145.407-4.889-1.891-1.7-3.856-3.447-5.8-5.218-2.112-1.923-4.51-3.582-6.168-5.938-1.959-2.784-3.034-5.834-2.211-9.355a36.252,36.252,0,0,0,.551-4.7c.334-3.366.622-6.737.982-10.1.35-3.277.768-6.547,1.161-9.866l-3.066-2.43c1.978-9.093,3.935-18.087,5.891-27.08.462-2.124.852-4.266,1.4-6.368,1.809-6.982,6-11.853,12.909-14.191C164.41,161.039,172.243,158.453,180.3,155.762Zm25.732,136.817c-1.088.2-2.254.479-3.436.616a11.848,11.848,0,0,1-8.115-2.2c-3.312-2.226-6.567-4.538-9.829-6.839q-11.448-8.076-22.884-16.17c-.762-.539-1.579-1-2.432-1.538-.331.883-.651,1.569-.848,2.288-1.425,5.212-.932,10.117,2.324,14.6a23.113,23.113,0,0,0,7.9,6.63c6.984,3.8,14.637,5.785,22.157,8.121a120.355,120.355,0,0,1,16.89,6.214c6.715,3.248,12.392,7.992,18.122,12.652a131.118,131.118,0,0,0,13.006,9.767,25.759,25.759,0,0,0,9.523,3.965,17.166,17.166,0,0,0,13.118-2.921,6.361,6.361,0,0,0,2.362-2.657c.811-1.938,1.668-3.869,2.3-5.868A139.454,139.454,0,0,0,270.3,302.2c.7-3.834,1.288-7.69,1.884-11.542.356-2.3.646-4.608.938-6.915.3-2.382.592-4.765.842-7.153.2-1.945.351-3.9.5-5.845.283-3.6.72-7.195.79-10.8.128-6.576.035-13.157.034-19.736v-2.191c-.778-.383-1.39-.665-1.985-.98a5.881,5.881,0,0,1-3.251-3.6,40.405,40.405,0,0,1-1.621-9.526,6.248,6.248,0,0,1,2.013-4.625c.526-.515,1.123-.957,1.78-1.51-.851-2.488-1.695-4.955-2.476-7.236L243.659,197.49c-1.481.393-2.934.753-4.372,1.165a92.755,92.755,0,0,0-19.574,8.595,163.651,163.651,0,0,0-17.375,11.382,203.5,203.5,0,0,0-17.8,15.027,171.6,171.6,0,0,0-13.473,14.378c-1.3,1.531-2.479,3.172-3.661,4.7l24.934,26.831h10.109c1.215,1.585-.133,2.6-.639,3.733l7.71,5c.288,1.6-.124,2.561-1.5,3.094A13.429,13.429,0,0,0,206.035,292.579Zm18.1-125.983c-3.433-1.15-6.561-2.192-9.684-3.247s-6.231-2.118-9.259-3.148c-8.746,5.512-18.367,6.578-29.886-.318L161.57,164.5c4.049,4.694,5.7,7.594,6.977,12.591a25.748,25.748,0,0,1,1.033,9.365c-.466,3.942-1.16,7.858-1.831,11.773-.682,3.984-1.443,7.955-2.195,11.927-.444,2.348-.938,4.686-1.423,7.094l-2.91.921q-3.214,10.608-6.453,21.3l10.961,11.529a188.462,188.462,0,0,1,57.342-48.328c.135-2.174-.246-4.308-.091-6.492.42-5.939.429-11.906.591-17.862.057-2.115.041-4.233.136-6.346C223.784,170.247,223.976,168.537,224.136,166.6ZM158.354,295.033c-.17,1.362-.381,2.476-.434,3.6-.187,3.914-.311,7.832-.473,11.748q-.214,5.195-.46,10.387c-.14,3.009-.3,6.017-.442,9.026-.161,3.387-.308,6.775-.467,10.161q-.218,4.627-.449,9.253c-.149,3.084-.322,6.167-.441,9.252-.2,5.276-.351,10.553-.562,15.828-.1,2.406-.28,4.809-.443,7.212-.025.369-.179.729-.219,1.1-.236,2.151-.455,4.305-.675,6.4,9.733,4.407,24.777,5.543,33.824,1.685a14.465,14.465,0,0,0,1.575-6.2c-.026-2.476.284-4.955.46-7.432.14-1.95.276-3.9.454-5.847.252-2.767.586-5.526.8-8.3.229-2.927.349-5.862.537-8.793.149-2.327.3-4.656.5-6.979.393-4.489.864-8.971,1.226-13.462.248-3.077.367-6.164.544-9.246.013-.226.016-.453.037-.679.269-2.84.577-5.678.8-8.522.27-3.437.468-6.881.7-10.437-.336-.1-.679-.223-1.026-.321a41.913,41.913,0,0,1-12.224-5.671,33.515,33.515,0,0,0-8.028-4.058,14.426,14.426,0,0,0-4.812-.948c-2.919.065-5.83.508-8.741.824A10.9,10.9,0,0,0,158.354,295.033ZM225.4,389.262c0-1.02.014-1.847,0-2.674-.121-5.886-.213-11.773-.383-17.658-.185-6.414-.073-12.828-.376-19.248-.456-9.654-.435-19.33-.613-29-.015-.819,0-1.638,0-2.317-.724-.572-1.263-.982-1.785-1.413a97.363,97.363,0,0,0-13.226-9.451,8.053,8.053,0,0,0-3.559-1.31c-2.394-.155-4.775-.509-7.164-.753a7.622,7.622,0,0,0-1.275.082c-.209,3.242-.41,6.318-.606,9.394-.033.529-.025,1.06-.071,1.587-.412,4.716-.86,9.43-1.24,14.15-.23,2.853-.347,5.714-.536,8.57-.139,2.1-.3,4.2-.473,6.3q-.411,5.056-.847,10.111c-.07.823-.187,1.641-.256,2.463a58.082,58.082,0,0,0-.465,6.513,70.454,70.454,0,0,0,.83,7.155c.4,2.973.864,5.938,1.228,8.915a11.167,11.167,0,0,1-.066,2.714c-.214,1.709-.553,3.4-.772,5.11a19.149,19.149,0,0,0-.016,2.323,72.414,72.414,0,0,0,11.908,1.591,52.6,52.6,0,0,0,9.933-.319A32.85,32.85,0,0,0,225.4,389.262Zm46.643-185.025a72.017,72.017,0,0,0,19.4-16.908,18.894,18.894,0,0,0,4.051-7.472,2.489,2.489,0,0,0-.614-2.482,13.089,13.089,0,0,0-3.141-.255,20.2,20.2,0,0,1-4-.039,6.827,6.827,0,0,1-4.635-2.044c-1.011-1.007-1.931-2.107-2.87-3.185-1.089-1.249-2.073-2.6-3.252-3.756a4.731,4.731,0,0,0-4.97-1.26c-1.788.534-3.663.767-5.473,1.236a5.064,5.064,0,0,1-5.121-1.48,20.566,20.566,0,0,1-3.293-4.833A38.539,38.539,0,0,0,255.667,158c-.242-.328-.852-.383-1.428-.618a20.873,20.873,0,0,0-1.446,3.263c-.721,2.9-1.386,5.829-1.887,8.777-.464,2.732-.626,5.513-1.029,8.257-.748,5.1-.345,10.221-.4,15.34a12.3,12.3,0,0,0,4.912,1.716,17.062,17.062,0,0,1,11.152,5.323A16.816,16.816,0,0,0,272.039,204.237ZM159.657,393.642c-1.261,2.341-2.481,4.584-3.673,6.842a6.456,6.456,0,0,0-.426,1.266q-3.987,14.044-7.966,28.091-2.594,9.186-5.15,18.384c-2.091,7.5-4.173,15-6.282,22.587l2.6,4.027.877-1.935,3.147-.731c12.724-25.63,25.487-51.342,38.467-77.488-3.95.87-7.48.629-11,.591A51.588,51.588,0,0,1,159.657,393.642Zm52.11-286.512c-2.785-.034-5.385.218-7.99.075a61.376,61.376,0,0,0-8.567.277,41.34,41.34,0,0,1-13.6-1.172c-1.549,6.2-1.291,12.473-2.047,18.552-.472.438-1.094.757-1.292,1.248a4.179,4.179,0,0,1-2.8,2.532c0,1.563.044,3.066-.01,4.567a6.886,6.886,0,0,0,3.218,6.1,42.644,42.644,0,0,0,7.591,4.428c3.645,1.643,7.407,2.951,11.492,2.78a8.136,8.136,0,0,0,7.661-5.029,71.733,71.733,0,0,0,4.977-16.076c.46-2.5.642-5.059,1.062-7.572C212.05,114.322,211.69,110.807,211.767,107.13Zm.805,370.509c.213-5.437.416-10.635.618-15.832.012-.3.009-.6.029-.906.265-4.05.542-8.1.8-12.151q.242-3.828.426-7.661.268-5.643.493-11.288c.192-4.744.366-9.489.548-14.234.006-.151,0-.3.013-.453.263-4.05.538-8.1.789-12.151.163-2.629.3-5.259.426-7.89a2.741,2.741,0,0,0-.244-.755,61.353,61.353,0,0,1-18.16-.339c-.171,2.5-.378,4.814-.477,7.133a64.83,64.83,0,0,0,.789,12.815c.612,3.924.954,7.891,1.376,11.842.36,3.36.659,6.727,1,10.089q.246,2.464.531,4.926c.261,2.234.558,4.463.807,6.7.2,1.792.316,3.593.537,5.381.385,3.124.867,6.235,1.223,9.362.383,3.357.65,6.726,1,10.087.178,1.708.431,3.409.626,4.927,1.248,1.113,2.359,2.118,3.492,3.1.132.114.384.09.578.13.157-.63.3-1.2.443-1.783ZM139.038,210.477c5.808,4.146,16.209,6.819,23.171,4.827.78-4.121,1.62-8.294,2.349-12.487.706-4.059,1.2-8.157,1.968-12.2a27.46,27.46,0,0,0-2.881-19.555c-1.28-2.1-2.557-4.288-4.944-5.477a5.71,5.71,0,0,0-1.34.153,17.7,17.7,0,0,0-11.2,11.585,80.469,80.469,0,0,0-1.9,8.31q-1.748,8.121-3.456,16.249C140.2,204.729,139.631,207.586,139.038,210.477Zm2.592,4.251c-.226,2.456-.408,4.774-.658,7.084-.4,3.729-.848,7.453-1.28,11.178-.241,2.087-.453,4.178-.745,6.257A9.614,9.614,0,0,0,142,247.839c3.923,3.749,8.063,7.27,12.122,10.877,1.914,1.7,3.76,3.5,5.8,5.04,3.723,2.812,7.561,5.473,11.362,8.182,5.947,4.238,11.885,8.489,17.863,12.682,2.461,1.726,4.958,3.414,7.544,4.94,2.332,1.375,4.836,2.025,7.49.674.328-.167.838.022,1.258.046l.93-1.215c-2.9-2.139-6.082-3.58-8.536-5.986l.665-1.254H191.16c-.825-.953-1.59-1.88-2.4-2.764q-5.436-5.917-10.9-11.811-6.633-7.126-13.31-14.211c-3.525-3.733-7.1-7.415-10.626-11.149a22.5,22.5,0,0,1-1.628-2.152c1.13-3.786,2.171-7.3,3.231-10.816,1.05-3.48,2.12-6.953,3.24-10.623A38,38,0,0,1,141.63,214.728ZM172.789,94.605a5.99,5.99,0,0,0,1.18,4.231,11.914,11.914,0,0,0,4.015,3.591,26.491,26.491,0,0,0,11.733,2.728c4.054.124,8.122-.231,12.186-.32,2.842-.062,5.671.351,8.534,0,3-.366,5.237-1.822,6.081-4.585a8.422,8.422,0,0,0-.381-5.744A56.07,56.07,0,0,0,213.557,89a20.344,20.344,0,0,0-4.271-5.787c-2.351-2.044-5.3-2.758-8.28-3.241a4,4,0,0,0-2.38.434,15.325,15.325,0,0,0-2.867,2.145,11.382,11.382,0,0,1-8.125,3.318,43.687,43.687,0,0,1-6.919-.809c-2.574-.471-3.893-.554-5.766,2.3A12.3,12.3,0,0,0,172.789,94.605ZM153.045,260.633c-.234,4.306-.392,8.062-.66,11.809-.177,2.467-.535,4.92-.771,7.383-.222,2.318-.421,4.639-.574,6.962-.19,2.892,1.975,5.037,4.87,5.488a26.756,26.756,0,0,0,5.583-.054c.9-.045,1.8-.13,2.695-.237.812-.1,1.617-.251,2.612-.41-4.7-2.928-8.517-6.353-10.337-11.536-1.813-5.164-1.226-10.2,1.006-15.174Zm9.573,229.3L143.9,474.668l-2.283.143-1.592,2.116h-2.165l-3.055-3.511c-.792,1.662-1.564,3.282-2.388,5.013.711.389,1.345.756,2,1.088,2.945,1.5,5.943,2.905,8.831,4.509a50.649,50.649,0,0,0,11.328,4.868C157.027,489.556,159.476,490.313,162.618,489.937Zm73.768-.408a3.888,3.888,0,0,0-.571-.507c-6.42-2.934-12.852-5.842-19.258-8.805-1.488-.688-2.853-.857-4.191.236-.406,1.983-.406,1.983-2.73,2.831l-4.059-2.865c-.308,1.742-.63,3.563-.962,5.446.622.214,1.1.429,1.6.543q5.907,1.344,11.822,2.651a51.976,51.976,0,0,0,13.85,1.449A13.657,13.657,0,0,0,236.386,489.529ZM197.271,148.938c-5.267-.187-9.8-2.086-14.348-4.2-.985,4.364-.17,8.625-.486,12.92a19.8,19.8,0,0,0,7.765,1.655c2.724-.032,5.47.13,7.759-1.1a15.2,15.2,0,0,1-.661-2.744C197.214,153.363,197.271,151.256,197.271,148.938Zm29.154,22.778-.309.062q-.312,7.9-.626,15.806c-.134,3.311-.284,6.621-.415,9.932a6.45,6.45,0,0,0,.611,3.845l10.542-4.348Q231.341,184.4,226.425,171.716Zm-47.034-66.135a16.447,16.447,0,0,1-8.107-6.426c-1.23,1.84-2.359,3.43-3.366,5.093a2.99,2.99,0,0,0-.451,1.9c.672,3.592,1.457,7.163,2.208,10.766,4.05-1.611,5.76-1.015,7.929,2.7C178.091,114.991,178.157,110.357,179.391,105.581ZM270.61,224.462c.516,2.639.9,5.313,1.586,7.907a4.33,4.33,0,0,0,5.078,3.1,4.167,4.167,0,0,0,3.469-4.551,70.639,70.639,0,0,0-1.369-7.944,4.278,4.278,0,0,0-4.983-3.222A4.434,4.434,0,0,0,270.61,224.462Zm.851-15.66.892-1.5c-.688-.439-1.215-.834-1.792-1.131-1.736-.893-3.494-1.744-5.24-2.617q-8.664-4.331-17.328-8.663c-.919-.458-1.841-1.054-2.933-.353.088,1.235,1,1.585,1.886,2.023q9.088,4.509,18.157,9.056C267.179,206.658,269.254,207.7,271.461,208.8Zm-95.6-82.836c.2-2.827.277-5.427-1.862-7.385-1.723-.139-1.723-.139-2.848.519a6.765,6.765,0,0,0,1.117,5.508A2.9,2.9,0,0,0,175.862,125.966Zm23.843,34.189c-.41.126-.815.273-1.231.376a29.517,29.517,0,0,1-4.354,1.016,27.082,27.082,0,0,1-14.465-2.448,4.273,4.273,0,0,0-1.133-.2C185.413,162.638,192.488,163.7,199.705,160.155ZM215.334,105.6l-1.133.772v6.387C214.6,110.449,215.463,108.215,215.334,105.6ZM188.97,299.909c2.546,1.3,5.122,2.571,8.037,2.61-1.318-.538-2.68-.922-4.033-1.335S190.3,300.335,188.97,299.909Z"/><path class="cls-2" d="M236.49,231.873c1.261-1.227,1.242-3.121,2.971-4.112,2.048,1.19,4.486,1.918,6.562,3.589l-1.909,4.059a28.27,28.27,0,0,1,5.688,6.43,2.31,2.31,0,0,1,.394,2.387l-6.323,3.241-3.43-4.5c-1.815,3.025-3.1,6.029-4.611,8.943,1.033,1.178,2.032,2.289,3,3.426a9.61,9.61,0,0,1,2.034,9.474,17.074,17.074,0,0,1-4.493,7.714,11.031,11.031,0,0,1-9.806,2.807c-.724-.109-1.439-.283-2.172-.43l-2.023,3.8c-2.7-.034-4.523-1.978-6.725-2.628-.736-2.014,1.043-3.106,1.158-4.883-.531-.517-1.154-1.157-1.812-1.758a17.887,17.887,0,0,1-4.6-6.893,21.387,21.387,0,0,1-.653-2.736l6.7-3.038a1.781,1.781,0,0,1,1.346,1.606,9.8,9.8,0,0,0,3.037,5.313l4.73-9.412c-.684-.586-1.4-1.141-2.046-1.76-3.266-3.1-3.886-6.861-2.412-10.96a16.642,16.642,0,0,1,4.281-6.83c2.777-2.549,5.9-3.765,9.68-2.942A9.618,9.618,0,0,0,236.49,231.873Zm-13.18,40.286c1.111.278,2.038.557,2.984.738,2.575.5,5.1.544,7.353-1.111a13.664,13.664,0,0,0,5.3-9.365,7.56,7.56,0,0,0-.375-2.869c-.583-2.315-2.263-3.856-3.968-5.361-.547-.482-1.085-.974-1.71-1.536,2.164-4.322,4.244-8.479,6.432-12.852,2.72.659,3.715,3.069,5.343,4.715l3.013-1.621c-1.6-2.906-4.083-4.763-6.491-6.778.639-1.4,1.22-2.675,1.828-4.01l-2.964-1.442c-1.13,1.3-1.158,3.164-2.742,3.947-.683-.153-1.347-.266-1.989-.453a8.32,8.32,0,0,0-8.488,2.3,14.371,14.371,0,0,0-3.708,6.369,7.259,7.259,0,0,0,1.825,7.886c1.078,1.051,2.2,2.053,3.356,3.122-2.109,4.236-4.107,8.279-6.152,12.3-.175.344-.67.525-1.045.8-2.825-1.759-4.367-4.369-5.471-7.387l-3.305,1.622c1.722,4.146,2.651,5.342,7.352,9.466-.493,1.267-1.019,2.621-1.592,4.1,1.131.311,1.855,1.231,3.091,1.122Z"/><path class="cls-2" d="M230.991,256.763a5.774,5.774,0,0,1,4.021,4.815c.353,2.749-2.112,6.431-4.078,7.257-2.317.974-4.039.879-5.684-.68C227.033,264.319,228.867,260.439,230.991,256.763Zm-2.81,10.434c2.592-.726,3.522-1.51,4.251-3.549a3.372,3.372,0,0,0-.629-3.64Z"/><path class="cls-2" d="M235.235,237.84l.555,1.112c-1.708,3.345-3.465,6.8-5.254,10.246-.115.223-.472.32-.678.451a5.5,5.5,0,0,1-2.835-6.446C228.234,239.109,230.749,237.43,235.235,237.84Zm-5.594,8.248,2.942-5.939A4.491,4.491,0,0,0,229.641,246.088Z"/><path class="cls-3" d="M524.571,4.972V521.258H4V4.972H524.571m4-4H0V525.258H528.571V.972Z"/><path class="cls-4" d="M525.268,522.344H4V4.754H525.268ZM34,492.344H495.268V34.754H34Z"/></g></svg>