<svg xmlns="http://www.w3.org/2000/svg" viewBox="0 0 528.571 523.805"><defs><style>.cls-1{fill:#616060;}.cls-2{fill:#8d8989;}.cls-3{fill:none;stroke:#000;stroke-miterlimit:10;stroke-width:5px;}</style></defs><title>icon</title><g id="Layer_4" data-name="Layer 4"><path class="cls-1" d="M524.571,4V520.289H4V4H524.571m4-4H0V524.289H528.571V0Z"/><path class="cls-2" d="M525.268,521.374H4V3.784H525.268ZM34,491.374H495.268V33.784H34Z"/><path d="M367.719,202.615,331.376,234.4c-1.292-1.51-2.05-2.32-2.718-3.2-.583-.767-1.066-1.611-1.313-1.992,10.647-9.581,21.377-18.549,31.295-28.34,11.636-11.488,22.074-24.079,28.989-39.121A36.044,36.044,0,0,0,390.4,151.72c.57-4.133-1-7.492-5.673-9.216-21.37,29.805-49.453,52.7-78.217,75.575l-4.192-5.156c6.719-5.47,13.316-10.7,19.758-16.114,18-15.128,35.785-30.53,50.19-49.264a100.008,100.008,0,0,0,11.082-18.8c2.752-5.923.925-10.805-3.477-13.659-2.462-1.6-4.157-1.553-6.361.9-26.945,29.963-57.406,56.075-89.066,80.857-.514.4-1.1.707-2.071,1.321l-4.1-4.913c7.146-5.743,14.17-11.235,21.028-16.927,23.346-19.38,46.134-39.378,66.536-61.912a57.468,57.468,0,0,0,7.949-11.388,9.6,9.6,0,0,0-1.455-11.625c-3.331-3.452-7.575-2.98-11.58-1.088a32.784,32.784,0,0,0-6.337,3.909c-27.924,22.153-55.566,44.668-83.776,66.449a312.525,312.525,0,0,1-58.822,36.217l-2.914-5.688a19.083,19.083,0,0,1,3.843-2.239c8.125-2.418,12.113-8.435,15.05-15.916,6.275-15.988,11.537-32.216,13.922-49.285,1.378-9.865-1.272-16.365-9.013-20.85-2.426,4.268-5.008,8.466-7.262,12.833-13.951,27.027-30.836,52.128-49.476,76.113-14.324,18.431-22.373,39.97-29.781,61.751-5.523,16.237-10.251,33.009-21.444,46.358-9.7,11.573-20.826,21.961-31.4,32.8-2.666,2.735-5.611,5.2-8.907,8.229l-4.586-4.873c6.217-5.823,11.985-11.591,18.134-16.917,19.689-17.053,32.717-38.1,40.3-63.05,6.63-21.811,14.682-43.217,27.82-62.159,9.012-12.993,19.239-25.183,27.7-38.508,11.589-18.247,22.016-37.232,32.952-55.893.913-1.559,1.912-3.067,2.8-4.487,13.27,2.633,20.459,12.8,19.121,26.395-1.71,17.371-6.838,33.836-13.031,50.031-.576,1.506-1.143,3.015-2.25,5.936,4.3-2.611,7.506-4.428,10.581-6.442,32.26-21.124,61.67-45.961,91.469-70.291,5.161-4.213,10.327-8.423,15.574-12.527a31.79,31.79,0,0,1,5.5-3.405c6.712-3.312,13.622-4.189,19.695.924s6.325,12.047,4.156,19.239a18.283,18.283,0,0,0-.37,1.884C392.8,117,393.661,120,388.32,135.714c10.138,9.339,12.057,15.893,5.484,28.427-5.366,10.233-12.473,19.579-19.129,29.093-1.71,2.444-2.2,3.936-.968,6.921,3.432,8.344,1.708,16.766-3.2,23.769-7.708,10.994-16.415,21.288-25.081,32.367l-5.326-4.885c7.063-8.482,14.369-16.288,20.467-24.945,3.6-5.113,5.5-11.5,7.707-17.474C368.91,207.261,367.968,204.953,367.719,202.615Z"/><path d="M302.22,351.216l2.7-10.64a51.733,51.733,0,0,0,7.963-5.213c22.268-17.716,22.141-48.076,22.115-49.412-.476-24.533-15.613-40.167-19.369-44.506-11.882-13.722-28.441-19.5-46.566-19.444-37.327.11-66.389,31.575-63.71,70.049,1.687,24.236,14.42,42.247,36.374,52.947,21.817,10.633,43.249,8.339,63.853-4.839.364,3.334.584,5.359.851,7.8a39.611,39.611,0,0,1-5.254,3.883c-26.535,14.256-66.32,5.391-86.339-19.156C179.371,289.2,203.282,225.65,258.738,216c37.628-6.549,75.625,20.98,81.491,58.795a74.858,74.858,0,0,1,.174,22.464,72.074,72.074,0,0,1-38.183,53.958Z"/><path d="M269.732,343.037A56.434,56.434,0,0,1,213.2,287.063c-.24-31.069,25.091-56.431,56.476-56.543,31.069-.111,56.577,24.881,56.341,55.962C325.784,316.809,304.428,343.02,269.732,343.037Zm49.451-55.586c.15-27.982-22.024-50.453-49.684-50.351a49.667,49.667,0,0,0-.336,99.33C295.124,336.729,319.646,314.517,319.183,287.451Z"/><path d="M147.4,412.181l-4.967-4.467c22.026-24.012,43.706-47.978,71.288-66.221l3.736,5.608C190.625,364.922,169.386,388.537,147.4,412.181Z"/><path d="M264.8,301.077a18.6,18.6,0,0,1-12.132-12.157c.648.4,1.2.717,1.728,1.063.745.486,1.386.443,1.8-.144a1.212,1.212,0,0,0-.478-1.742,19.54,19.54,0,0,0-8.856-3.233,31.267,31.267,0,0,0-3.122-.227c-1.037-.037-1.267.2-1.657,1.15a6.654,6.654,0,0,1-.961,1.7,1.184,1.184,0,0,1-1.984.015,5.182,5.182,0,0,1-1.236-2.894,7.494,7.494,0,0,1,.431-4.076,4.786,4.786,0,0,1,.595-1.064c.769-1.008,1.648-1.031,2.388-.012a7.483,7.483,0,0,1,.836,1.694,1.222,1.222,0,0,0,1.2.923,21.282,21.282,0,0,0,12.268-3.383,1.878,1.878,0,0,0,.683-.724,1.049,1.049,0,0,0-.312-1.3,1.108,1.108,0,0,0-1.389-.066c-.606.377-1.208.762-1.9,1.2a18.325,18.325,0,0,1,12.121-12.138c-.4.641-.726,1.192-1.075,1.73-.477.735-.415,1.392.186,1.79a1.2,1.2,0,0,0,1.695-.464,19.438,19.438,0,0,0,3.249-8.85,31.268,31.268,0,0,0,.22-3.327c.028-.87-.219-1.137-1.042-1.452a7.046,7.046,0,0,1-1.405-.667c-1.224-.82-1.257-1.875,0-2.616a8.455,8.455,0,0,1,2.591-.935,6.766,6.766,0,0,1,4.127.491,4.447,4.447,0,0,1,1.181.785,1.131,1.131,0,0,1,.012,1.879,7.707,7.707,0,0,1-1.934,1.079,1.282,1.282,0,0,0-.963,1.246,21.547,21.547,0,0,0,3.323,12.158c.076.113.154.225.238.332a1.188,1.188,0,0,0,1.622.329,1.133,1.133,0,0,0,.273-1.624c-.368-.6-.751-1.183-1.154-1.817,4.291.32,11.04,7.038,12.09,12.061-.624-.389-1.176-.722-1.717-1.073-.709-.46-1.336-.416-1.749.141a1.207,1.207,0,0,0,.437,1.749,19.425,19.425,0,0,0,8.85,3.245c1.12.154,2.262.163,3.395.219a1.3,1.3,0,0,0,1.368-.98,7.434,7.434,0,0,1,1.087-1.93,1.126,1.126,0,0,1,1.836,0,5.077,5.077,0,0,1,1.3,2.934,7.3,7.3,0,0,1-.449,4.137,4.869,4.869,0,0,1-.885,1.352,1.081,1.081,0,0,1-1.774,0,8.433,8.433,0,0,1-1.125-1.985,1.289,1.289,0,0,0-1.257-.945,21.586,21.586,0,0,0-12.041,3.249c-.955.622-1.2,1.3-.757,1.939s1.06.627,2.021-.009c.452-.3.925-.565,1.44-.878-1.313,5.265-6.478,10.6-12.089,12.093.391-.626.727-1.18,1.08-1.724.459-.707.413-1.335-.146-1.749a1.208,1.208,0,0,0-1.747.441,19.428,19.428,0,0,0-3.244,8.853,31.269,31.269,0,0,0-.221,3.327c-.026.871.237,1.095,1.052,1.443a7.48,7.48,0,0,1,1.861,1.078,1.13,1.13,0,0,1,0,1.838,5.223,5.223,0,0,1-3.269,1.352,7.271,7.271,0,0,1-4.177-.662,3.8,3.8,0,0,1-.738-.484c-.894-.745-.922-1.563,0-2.259a7.27,7.27,0,0,1,1.742-.885,1.265,1.265,0,0,0,.951-1.257,21.31,21.31,0,0,0-3.38-12.2,1.7,1.7,0,0,0-.973-.731,1.292,1.292,0,0,0-1.084.446,1.826,1.826,0,0,0-.028,1.251,3.883,3.883,0,0,0,.579.913C264.4,300.339,264.563,300.659,264.8,301.077Zm.324-29.324a6.879,6.879,0,0,0-4.734,1.414,3.975,3.975,0,0,0-.174,6.27,6.792,6.792,0,0,0,8.684.022,3.945,3.945,0,0,0,.019-6.135A5.966,5.966,0,0,0,265.12,271.753Zm1.894,23.224a6.243,6.243,0,0,0,4.243-1.591,3.938,3.938,0,0,0,.1-6,6.757,6.757,0,0,0-8.982.047,3.952,3.952,0,0,0,.2,6A6.482,6.482,0,0,0,267.014,294.977Zm10.056-8.154a6.547,6.547,0,0,0,4.612-1.542,3.972,3.972,0,0,0-.059-6.224,6.877,6.877,0,0,0-8.327-.171,4.037,4.037,0,0,0,.123,6.709A6.178,6.178,0,0,0,277.07,286.823Z"/><path d="M283.9,299.468l2.6-2.561c1.141,1.385,2.319,2.879,3.568,4.31.791.906,1.048.881,2.133.4a5.971,5.971,0,0,1,1.547-.487c1.162-.17,1.9.563,1.616,1.7a7.828,7.828,0,0,1-1.041,2.475,6.689,6.689,0,0,1-4.477,3.066,1.344,1.344,0,0,1-1.705-1.692,6.4,6.4,0,0,1,.51-1.541c.448-.993.463-1.3-.371-2.027C286.834,301.844,285.327,300.645,283.9,299.468Z"/><path d="M283.859,267.186c1.022-.773,2.134-1.588,3.215-2.441.5-.393.932-.865,1.4-1.3a1.3,1.3,0,0,0,.285-1.662,7.646,7.646,0,0,1-.608-1.72c-.227-1.221.518-1.917,1.746-1.717a7.3,7.3,0,0,1,5.485,5.52c.191,1.228-.517,1.954-1.744,1.712A7.156,7.156,0,0,1,291.98,265a1.281,1.281,0,0,0-1.711.295c-1.284,1.522-2.558,3.052-3.775,4.507Z"/><path d="M254.273,296.89l2.546,2.612c-1.367,1.127-2.86,2.305-4.291,3.555-.906.791-.876,1.045-.4,2.134a5.9,5.9,0,0,1,.492,1.683,1.294,1.294,0,0,1-1.574,1.53,7.285,7.285,0,0,1-5.7-5.7,1.286,1.286,0,0,1,1.519-1.578,6.184,6.184,0,0,1,1.744.519c1,.436,1.3.462,2.026-.375C251.9,299.818,253.1,298.311,254.273,296.89Z"/><path d="M254.258,269.834c-1.112-1.363-2.249-2.831-3.47-4.225-.905-1.034-1.055-.987-2.347-.437a5.409,5.409,0,0,1-1.63.431,1.285,1.285,0,0,1-1.471-1.569c.235-2.554,3.231-5.523,5.764-5.713.984-.073,1.616.471,1.515,1.45a6.656,6.656,0,0,1-.545,1.875c-.392.925-.418,1.251.349,1.919,1.469,1.277,2.987,2.5,4.426,3.689Z"/><path d="M265,274.054a3.9,3.9,0,0,1,2.18.781,1.792,1.792,0,0,1,.06,3.042,4.7,4.7,0,0,1-5.408-.031,1.777,1.777,0,0,1-.058-2.875A4.637,4.637,0,0,1,265,274.054Z"/><path d="M266.873,292.669a4,4,0,0,1-2.825-.974,1.76,1.76,0,0,1,.071-2.782,4.665,4.665,0,0,1,5.566.027,1.755,1.755,0,0,1,.027,2.783A4.23,4.23,0,0,1,266.873,292.669Z"/><path d="M277.793,284.588a5.106,5.106,0,0,1-3.185-.953,1.769,1.769,0,0,1-.008-2.875,4.7,4.7,0,0,1,5.464-.044A1.728,1.728,0,0,1,280,283.69,10.593,10.593,0,0,1,277.793,284.588Z"/><path d="M255.284,327.727a5.118,5.118,0,0,1-3.336-3.343c.179.11.329.2.476.293.2.133.38.121.493-.04a.333.333,0,0,0-.131-.479,5.371,5.371,0,0,0-2.435-.889,8.491,8.491,0,0,0-.858-.062c-.285-.01-.349.054-.456.316a1.8,1.8,0,0,1-.264.467.326.326,0,0,1-.546,0,1.417,1.417,0,0,1-.339-.8,2.06,2.06,0,0,1,.118-1.12,1.335,1.335,0,0,1,.164-.293c.211-.277.453-.283.656,0a2.042,2.042,0,0,1,.23.466.335.335,0,0,0,.33.253,5.844,5.844,0,0,0,3.373-.93.519.519,0,0,0,.188-.2.289.289,0,0,0-.086-.356.306.306,0,0,0-.382-.018c-.167.1-.332.21-.522.33a5.037,5.037,0,0,1,3.333-3.337c-.109.176-.2.327-.3.475-.131.2-.114.383.051.492a.329.329,0,0,0,.466-.127,5.342,5.342,0,0,0,.893-2.433,8.468,8.468,0,0,0,.061-.915c.008-.239-.06-.313-.286-.4a1.909,1.909,0,0,1-.387-.184c-.336-.225-.345-.515,0-.719a2.354,2.354,0,0,1,.712-.257,1.858,1.858,0,0,1,1.135.135,1.22,1.22,0,0,1,.325.216.311.311,0,0,1,0,.517,2.127,2.127,0,0,1-.532.3.352.352,0,0,0-.264.343,5.924,5.924,0,0,0,.913,3.342c.021.031.043.062.066.092a.327.327,0,0,0,.446.09.312.312,0,0,0,.075-.446c-.1-.164-.207-.326-.318-.5,1.18.088,3.036,1.935,3.324,3.316-.171-.107-.323-.2-.472-.3-.195-.127-.367-.114-.481.039a.332.332,0,0,0,.121.481,5.348,5.348,0,0,0,2.433.892c.308.042.622.044.933.06a.357.357,0,0,0,.376-.27,2.034,2.034,0,0,1,.3-.53.309.309,0,0,1,.5,0,1.4,1.4,0,0,1,.357.806,2,2,0,0,1-.124,1.138,1.345,1.345,0,0,1-.243.371.3.3,0,0,1-.488,0,2.326,2.326,0,0,1-.309-.546.356.356,0,0,0-.346-.26,5.945,5.945,0,0,0-3.31.894c-.263.171-.331.357-.208.533s.291.172.555,0c.125-.082.255-.155.4-.241a4.991,4.991,0,0,1-3.323,3.325c.107-.172.2-.325.3-.474.126-.2.113-.367-.041-.481a.331.331,0,0,0-.48.121,5.345,5.345,0,0,0-.892,2.434,8.713,8.713,0,0,0-.061.915c-.007.239.066.3.29.4a2.082,2.082,0,0,1,.511.3.31.31,0,0,1,0,.5,1.435,1.435,0,0,1-.9.372,2.008,2.008,0,0,1-1.149-.182,1.044,1.044,0,0,1-.2-.133c-.245-.2-.253-.43,0-.621a2,2,0,0,1,.479-.244.347.347,0,0,0,.261-.345,5.862,5.862,0,0,0-.929-3.355.47.47,0,0,0-.268-.2.358.358,0,0,0-.3.123.5.5,0,0,0-.007.344,1.035,1.035,0,0,0,.159.251C255.175,327.524,255.22,327.612,255.284,327.727Zm.089-8.062a1.893,1.893,0,0,0-1.3.388,1.093,1.093,0,0,0-.047,1.724,1.866,1.866,0,0,0,2.387.006,1.084,1.084,0,0,0,0-1.686A1.637,1.637,0,0,0,255.373,319.665Zm.521,6.385a1.72,1.72,0,0,0,1.166-.438,1.082,1.082,0,0,0,.028-1.648,1.858,1.858,0,0,0-2.47.013,1.087,1.087,0,0,0,.054,1.649A1.788,1.788,0,0,0,255.894,326.05Zm2.764-2.242a1.8,1.8,0,0,0,1.268-.424,1.092,1.092,0,0,0-.016-1.711,1.889,1.889,0,0,0-2.289-.047,1.11,1.11,0,0,0,.034,1.844A1.7,1.7,0,0,0,258.658,323.808Z"/><path d="M260.537,327.285l.715-.705c.314.381.638.792.981,1.185.217.249.288.243.587.109a1.681,1.681,0,0,1,.425-.134c.319-.046.522.155.444.468a2.142,2.142,0,0,1-.286.68,1.838,1.838,0,0,1-1.231.843.37.37,0,0,1-.469-.465,1.788,1.788,0,0,1,.14-.424c.124-.273.128-.357-.1-.557C261.343,327.938,260.929,327.608,260.537,327.285Z"/><path d="M260.525,318.409c.281-.212.587-.436.884-.671.137-.108.256-.238.385-.356a.357.357,0,0,0,.078-.457,2.082,2.082,0,0,1-.167-.473c-.063-.335.142-.527.48-.472a2.008,2.008,0,0,1,1.508,1.518c.052.337-.143.537-.48.47a1.974,1.974,0,0,1-.455-.161.353.353,0,0,0-.471.081c-.353.419-.7.84-1.038,1.24Z"/><path d="M252.391,326.576l.7.718c-.376.31-.786.634-1.18.977-.249.218-.241.288-.11.587a1.642,1.642,0,0,1,.136.463.356.356,0,0,1-.433.42,2,2,0,0,1-1.567-1.567.354.354,0,0,1,.418-.434,1.7,1.7,0,0,1,.479.142c.275.12.357.127.557-.1C251.739,327.381,252.068,326.966,252.391,326.576Z"/><path d="M252.387,319.137c-.306-.375-.619-.778-.954-1.161-.249-.285-.29-.272-.646-.121a1.493,1.493,0,0,1-.448.119.353.353,0,0,1-.4-.432,2,2,0,0,1,1.584-1.57c.271-.02.445.129.417.4a1.816,1.816,0,0,1-.15.516c-.108.254-.115.344.1.527.4.352.822.687,1.217,1.015Z"/><path d="M255.341,320.3a1.074,1.074,0,0,1,.6.215.492.492,0,0,1,.017.836,1.291,1.291,0,0,1-1.487-.008.489.489,0,0,1-.016-.791A1.281,1.281,0,0,1,255.341,320.3Z"/><path d="M255.855,325.415a1.1,1.1,0,0,1-.777-.268.483.483,0,0,1,.02-.764,1.281,1.281,0,0,1,1.53.007.482.482,0,0,1,.007.765A1.16,1.16,0,0,1,255.855,325.415Z"/><path d="M258.857,323.193a1.4,1.4,0,0,1-.876-.262.487.487,0,0,1,0-.79,1.293,1.293,0,0,1,1.5-.012.475.475,0,0,1-.019.817A2.833,2.833,0,0,1,258.857,323.193Z"/><path d="M307.681,304.175a5.113,5.113,0,0,1-3.335-3.342c.178.109.329.2.475.292.2.134.381.122.494-.039a.333.333,0,0,0-.132-.479,5.368,5.368,0,0,0-2.434-.889,8.49,8.49,0,0,0-.859-.062c-.285-.011-.348.053-.456.316a1.838,1.838,0,0,1-.264.467.325.325,0,0,1-.545,0,1.431,1.431,0,0,1-.34-.8,2.05,2.05,0,0,1,.119-1.12,1.291,1.291,0,0,1,.163-.293c.212-.277.453-.283.657,0a2.077,2.077,0,0,1,.23.465.336.336,0,0,0,.33.254,5.848,5.848,0,0,0,3.372-.93.512.512,0,0,0,.188-.2.287.287,0,0,0-.086-.356.3.3,0,0,0-.382-.018l-.521.329a5.039,5.039,0,0,1,3.332-3.337c-.109.177-.2.328-.3.476-.131.2-.115.383.051.492a.33.33,0,0,0,.466-.128,5.338,5.338,0,0,0,.893-2.433,8.449,8.449,0,0,0,.06-.914c.008-.24-.06-.313-.286-.4a1.9,1.9,0,0,1-.386-.183c-.337-.225-.346-.515,0-.719a2.309,2.309,0,0,1,.712-.257,1.859,1.859,0,0,1,1.135.135,1.191,1.191,0,0,1,.324.216.311.311,0,0,1,0,.516,2.148,2.148,0,0,1-.532.3.351.351,0,0,0-.265.342,5.92,5.92,0,0,0,.914,3.343c.02.031.042.062.065.091a.328.328,0,0,0,.446.091.312.312,0,0,0,.075-.447c-.1-.164-.206-.325-.317-.5,1.18.088,3.035,1.935,3.324,3.316-.172-.107-.324-.2-.472-.3-.195-.127-.368-.115-.481.038a.332.332,0,0,0,.12.481,5.329,5.329,0,0,0,2.433.892c.308.043.622.045.934.061a.359.359,0,0,0,.376-.27,2.057,2.057,0,0,1,.3-.531.309.309,0,0,1,.5,0,1.394,1.394,0,0,1,.357.807,2.008,2.008,0,0,1-.123,1.137,1.316,1.316,0,0,1-.244.372.3.3,0,0,1-.487,0,2.334,2.334,0,0,1-.31-.546.353.353,0,0,0-.345-.26,5.939,5.939,0,0,0-3.311.893c-.262.171-.331.357-.208.534s.292.172.556,0c.124-.082.254-.155.4-.241a4.988,4.988,0,0,1-3.324,3.324c.108-.172.2-.324.3-.474.126-.194.113-.367-.04-.48a.332.332,0,0,0-.481.121,5.339,5.339,0,0,0-.891,2.434,8.451,8.451,0,0,0-.061.915c-.007.239.065.3.289.4a2.057,2.057,0,0,1,.512.3.31.31,0,0,1,0,.5,1.443,1.443,0,0,1-.9.372,2.005,2.005,0,0,1-1.148-.182,1.06,1.06,0,0,1-.2-.133c-.246-.2-.254-.43,0-.622a2.037,2.037,0,0,1,.479-.243.348.348,0,0,0,.262-.345,5.855,5.855,0,0,0-.93-3.355.464.464,0,0,0-.267-.2.355.355,0,0,0-.3.122.5.5,0,0,0-.008.344,1.066,1.066,0,0,0,.159.251C307.572,303.973,307.617,304.061,307.681,304.175Zm.089-8.062a1.892,1.892,0,0,0-1.3.389,1.093,1.093,0,0,0-.048,1.724,1.869,1.869,0,0,0,2.388.006,1.085,1.085,0,0,0,0-1.687A1.644,1.644,0,0,0,307.77,296.113Zm.521,6.385a1.717,1.717,0,0,0,1.167-.437,1.083,1.083,0,0,0,.027-1.649,1.859,1.859,0,0,0-2.469.013,1.086,1.086,0,0,0,.054,1.649A1.779,1.779,0,0,0,308.291,302.5Zm2.765-2.241a1.8,1.8,0,0,0,1.268-.424,1.093,1.093,0,0,0-.016-1.712,1.894,1.894,0,0,0-2.29-.047,1.111,1.111,0,0,0,.034,1.845A1.7,1.7,0,0,0,311.056,300.257Z"/><path d="M312.935,303.733l.715-.7c.313.381.637.792.981,1.185.217.249.288.242.586.109a1.616,1.616,0,0,1,.425-.134c.32-.047.522.155.445.467a2.159,2.159,0,0,1-.287.681,1.842,1.842,0,0,1-1.231.843.369.369,0,0,1-.468-.466,1.736,1.736,0,0,1,.14-.423c.123-.273.127-.358-.1-.557C313.74,304.386,313.326,304.057,312.935,303.733Z"/><path d="M312.922,294.858c.281-.213.587-.437.884-.672.137-.107.256-.237.385-.356a.355.355,0,0,0,.078-.456,2.1,2.1,0,0,1-.167-.473c-.062-.336.143-.527.48-.472a2,2,0,0,1,1.508,1.517c.053.338-.142.537-.479.471a1.965,1.965,0,0,1-.456-.161.352.352,0,0,0-.47.081c-.353.418-.7.839-1.038,1.239Z"/><path d="M304.788,303.024l.7.719c-.376.309-.786.633-1.179.977-.249.217-.241.287-.11.587a1.611,1.611,0,0,1,.135.462.356.356,0,0,1-.433.421,2,2,0,0,1-1.566-1.568.353.353,0,0,1,.417-.434,1.744,1.744,0,0,1,.48.143c.275.12.356.127.557-.1C304.136,303.829,304.465,303.415,304.788,303.024Z"/><path d="M304.784,295.586c-.306-.375-.618-.779-.954-1.162-.249-.284-.29-.271-.645-.12a1.463,1.463,0,0,1-.448.118.353.353,0,0,1-.405-.431,2,2,0,0,1,1.585-1.57c.271-.021.444.129.416.4a1.857,1.857,0,0,1-.149.516c-.108.254-.115.344.1.527.4.351.821.686,1.216,1.014Z"/><path d="M307.739,296.746a1.071,1.071,0,0,1,.6.215.492.492,0,0,1,.016.836,1.288,1.288,0,0,1-1.486-.009.488.488,0,0,1-.016-.79A1.274,1.274,0,0,1,307.739,296.746Z"/><path d="M308.252,301.864a1.1,1.1,0,0,1-.776-.268.484.484,0,0,1,.019-.765,1.281,1.281,0,0,1,1.53.008.482.482,0,0,1,.008.765A1.166,1.166,0,0,1,308.252,301.864Z"/><path d="M311.255,299.642a1.407,1.407,0,0,1-.876-.262.485.485,0,0,1,0-.79,1.293,1.293,0,0,1,1.5-.013.475.475,0,0,1-.018.818A2.965,2.965,0,0,1,311.255,299.642Z"/><path d="M255.919,254.222a5.117,5.117,0,0,1-3.335-3.343c.178.11.329.2.475.293.205.133.381.121.494-.04a.333.333,0,0,0-.132-.479,5.368,5.368,0,0,0-2.434-.889,8.49,8.49,0,0,0-.859-.062c-.285-.01-.348.054-.455.316a1.808,1.808,0,0,1-.265.467.325.325,0,0,1-.545,0,1.425,1.425,0,0,1-.34-.8,2.06,2.06,0,0,1,.119-1.12,1.291,1.291,0,0,1,.163-.293c.212-.277.453-.283.657,0a2.063,2.063,0,0,1,.23.466.334.334,0,0,0,.33.253,5.846,5.846,0,0,0,3.373-.93.516.516,0,0,0,.187-.2.288.288,0,0,0-.085-.356.306.306,0,0,0-.382-.018c-.167.1-.332.21-.522.33a5.037,5.037,0,0,1,3.332-3.337c-.109.176-.2.327-.3.475-.131.2-.114.383.051.492a.33.33,0,0,0,.466-.127,5.342,5.342,0,0,0,.893-2.433,8.731,8.731,0,0,0,.061-.915c.007-.239-.061-.313-.287-.4a1.9,1.9,0,0,1-.386-.184c-.337-.225-.346-.515,0-.719a2.335,2.335,0,0,1,.712-.257,1.859,1.859,0,0,1,1.135.135,1.215,1.215,0,0,1,.324.216.311.311,0,0,1,0,.516,2.117,2.117,0,0,1-.532.3.353.353,0,0,0-.265.343,5.917,5.917,0,0,0,.914,3.342c.021.031.042.062.065.092a.328.328,0,0,0,.446.09.311.311,0,0,0,.075-.446c-.1-.164-.206-.326-.317-.5,1.18.088,3.035,1.935,3.324,3.316-.172-.107-.323-.2-.472-.295-.195-.127-.368-.114-.481.039a.332.332,0,0,0,.12.481,5.352,5.352,0,0,0,2.433.892c.308.042.622.044.934.06a.358.358,0,0,0,.376-.27,2.034,2.034,0,0,1,.3-.53.308.308,0,0,1,.5,0,1.391,1.391,0,0,1,.357.806,2.012,2.012,0,0,1-.123,1.138,1.326,1.326,0,0,1-.244.371.3.3,0,0,1-.487,0,2.294,2.294,0,0,1-.31-.546.354.354,0,0,0-.345-.26,5.948,5.948,0,0,0-3.311.894c-.262.171-.331.357-.208.533s.292.172.556,0c.124-.082.254-.155.4-.241a4.991,4.991,0,0,1-3.324,3.325c.108-.172.2-.325.3-.474.126-.195.114-.367-.04-.481a.332.332,0,0,0-.481.121,5.343,5.343,0,0,0-.891,2.434,8.451,8.451,0,0,0-.061.915c-.007.239.065.3.289.4a2.088,2.088,0,0,1,.512.3.31.31,0,0,1,0,.5,1.438,1.438,0,0,1-.9.372,2.006,2.006,0,0,1-1.148-.182,1.044,1.044,0,0,1-.2-.133c-.246-.2-.254-.43,0-.621a2.04,2.04,0,0,1,.479-.244.346.346,0,0,0,.262-.345,5.855,5.855,0,0,0-.93-3.355.468.468,0,0,0-.267-.2.356.356,0,0,0-.3.123.5.5,0,0,0-.008.344,1.066,1.066,0,0,0,.159.251C255.81,254.019,255.856,254.107,255.919,254.222Zm.09-8.062a1.893,1.893,0,0,0-1.3.388,1.093,1.093,0,0,0-.048,1.724,1.867,1.867,0,0,0,2.388.006,1.084,1.084,0,0,0,0-1.686A1.639,1.639,0,0,0,256.009,246.16Zm.52,6.385a1.723,1.723,0,0,0,1.167-.438,1.082,1.082,0,0,0,.027-1.648,1.857,1.857,0,0,0-2.469.013,1.086,1.086,0,0,0,.054,1.649A1.785,1.785,0,0,0,256.529,252.545Zm2.765-2.242a1.8,1.8,0,0,0,1.268-.424,1.092,1.092,0,0,0-.016-1.711,1.891,1.891,0,0,0-2.29-.047,1.11,1.11,0,0,0,.034,1.844A1.7,1.7,0,0,0,259.294,250.3Z"/><path d="M261.173,253.78l.715-.705c.313.381.637.792.981,1.185.217.249.288.243.586.109a1.654,1.654,0,0,1,.425-.134c.32-.046.522.155.445.468a2.165,2.165,0,0,1-.286.68,1.838,1.838,0,0,1-1.231.843.369.369,0,0,1-.469-.465,1.744,1.744,0,0,1,.14-.424c.123-.273.127-.357-.1-.557C261.978,254.433,261.564,254.1,261.173,253.78Z"/><path d="M261.16,244.9c.282-.212.587-.436.884-.671.137-.108.257-.238.385-.356a.357.357,0,0,0,.078-.457,2.131,2.131,0,0,1-.167-.473c-.062-.335.143-.527.48-.472a2.006,2.006,0,0,1,1.508,1.518c.053.337-.142.537-.479.47a1.965,1.965,0,0,1-.456-.161.352.352,0,0,0-.47.081c-.353.419-.7.84-1.038,1.24Z"/><path d="M253.026,253.071l.7.718c-.375.31-.786.634-1.179.977-.249.218-.241.288-.11.587a1.611,1.611,0,0,1,.135.462.356.356,0,0,1-.433.421,2,2,0,0,1-1.566-1.567c-.03-.286.13-.466.417-.434a1.709,1.709,0,0,1,.48.142c.275.12.356.127.557-.1C252.374,253.876,252.7,253.461,253.026,253.071Z"/><path d="M253.022,245.632c-.306-.375-.618-.778-.954-1.161-.249-.285-.29-.272-.645-.121a1.493,1.493,0,0,1-.448.119.354.354,0,0,1-.405-.432,2,2,0,0,1,1.585-1.57c.271-.02.444.129.417.4a1.884,1.884,0,0,1-.15.516c-.108.254-.115.344.1.527.4.352.821.687,1.217,1.015Z"/><path d="M255.977,246.792a1.077,1.077,0,0,1,.6.215.492.492,0,0,1,.016.836,1.29,1.29,0,0,1-1.486-.008.489.489,0,0,1-.016-.791A1.279,1.279,0,0,1,255.977,246.792Z"/><path d="M256.491,251.91a1.1,1.1,0,0,1-.777-.268.483.483,0,0,1,.019-.764,1.283,1.283,0,0,1,1.531.007.483.483,0,0,1,.007.765A1.16,1.16,0,0,1,256.491,251.91Z"/><path d="M259.493,249.688a1.4,1.4,0,0,1-.876-.262.486.486,0,0,1,0-.79,1.292,1.292,0,0,1,1.5-.012.475.475,0,0,1-.018.817A2.854,2.854,0,0,1,259.493,249.688Z"/><path d="M229.68,297.291a5.113,5.113,0,0,1-3.335-3.342c.178.109.329.2.475.292.205.134.381.122.494-.039a.334.334,0,0,0-.132-.479,5.367,5.367,0,0,0-2.435-.889,8.449,8.449,0,0,0-.858-.062c-.285-.011-.348.053-.456.316a1.838,1.838,0,0,1-.264.467.326.326,0,0,1-.545,0,1.424,1.424,0,0,1-.34-.8,2.063,2.063,0,0,1,.118-1.121,1.351,1.351,0,0,1,.164-.292c.212-.277.453-.284.657,0a2.06,2.06,0,0,1,.229.466.337.337,0,0,0,.33.254,5.849,5.849,0,0,0,3.373-.93.512.512,0,0,0,.188-.2.289.289,0,0,0-.086-.356.3.3,0,0,0-.382-.018c-.166.1-.332.209-.522.329a5.041,5.041,0,0,1,3.333-3.337c-.109.176-.2.328-.3.476-.131.2-.114.382.052.492a.329.329,0,0,0,.465-.128,5.339,5.339,0,0,0,.894-2.433,8.451,8.451,0,0,0,.06-.915c.008-.239-.06-.312-.286-.4a1.931,1.931,0,0,1-.387-.183c-.336-.226-.345-.515,0-.719a2.324,2.324,0,0,1,.713-.257,1.855,1.855,0,0,1,1.134.135,1.2,1.2,0,0,1,.325.216.31.31,0,0,1,0,.516,2.13,2.13,0,0,1-.532.3.351.351,0,0,0-.264.342,5.92,5.92,0,0,0,.914,3.343c.02.031.042.062.065.091a.328.328,0,0,0,.446.091.312.312,0,0,0,.075-.447c-.1-.164-.206-.325-.317-.5,1.179.087,3.035,1.935,3.323,3.316-.171-.107-.323-.2-.471-.295-.2-.127-.368-.115-.481.038a.332.332,0,0,0,.12.481,5.329,5.329,0,0,0,2.433.892c.308.043.622.045.933.061a.358.358,0,0,0,.376-.27,2.086,2.086,0,0,1,.3-.531.31.31,0,0,1,.505,0,1.4,1.4,0,0,1,.357.807,2.009,2.009,0,0,1-.123,1.137,1.353,1.353,0,0,1-.244.372.3.3,0,0,1-.488,0,2.367,2.367,0,0,1-.309-.546.353.353,0,0,0-.345-.26,5.937,5.937,0,0,0-3.311.893c-.263.171-.331.357-.208.534s.291.172.556,0c.124-.082.254-.155.4-.241a4.986,4.986,0,0,1-3.323,3.324c.107-.172.2-.324.3-.474.126-.194.113-.367-.04-.481a.333.333,0,0,0-.481.122,5.352,5.352,0,0,0-.892,2.434,8.711,8.711,0,0,0-.06.914c-.007.24.065.3.289.4a2.057,2.057,0,0,1,.512.3.311.311,0,0,1,0,.5,1.443,1.443,0,0,1-.9.372,2,2,0,0,1-1.148-.183,1.056,1.056,0,0,1-.2-.132c-.246-.2-.254-.43,0-.622a2,2,0,0,1,.479-.243.349.349,0,0,0,.262-.345,5.87,5.87,0,0,0-.93-3.355.463.463,0,0,0-.268-.2.355.355,0,0,0-.3.122.5.5,0,0,0-.008.344,1.066,1.066,0,0,0,.159.251C229.571,297.089,229.616,297.177,229.68,297.291Zm.089-8.062a1.89,1.89,0,0,0-1.3.389,1.093,1.093,0,0,0-.048,1.724,1.867,1.867,0,0,0,2.387.006,1.085,1.085,0,0,0,.006-1.687A1.644,1.644,0,0,0,229.769,289.229Zm.521,6.385a1.717,1.717,0,0,0,1.167-.437,1.083,1.083,0,0,0,.027-1.649,1.86,1.86,0,0,0-2.47.013,1.087,1.087,0,0,0,.055,1.649A1.779,1.779,0,0,0,230.29,295.614Zm2.765-2.241a1.8,1.8,0,0,0,1.268-.424,1.093,1.093,0,0,0-.017-1.712,1.892,1.892,0,0,0-2.289-.047,1.111,1.111,0,0,0,.034,1.845A1.7,1.7,0,0,0,233.055,293.373Z"/><path d="M234.934,296.849l.714-.7c.314.381.638.791.981,1.185.218.249.288.242.587.109a1.616,1.616,0,0,1,.425-.134c.32-.047.522.155.444.467a2.134,2.134,0,0,1-.286.681,1.842,1.842,0,0,1-1.231.843.369.369,0,0,1-.468-.466,1.736,1.736,0,0,1,.14-.423c.123-.273.127-.358-.1-.557C235.739,297.5,235.325,297.173,234.934,296.849Z"/><path d="M234.921,287.974c.281-.213.587-.437.884-.672.137-.108.256-.237.385-.356a.355.355,0,0,0,.078-.456,2.1,2.1,0,0,1-.167-.473c-.063-.336.142-.528.48-.472a2.006,2.006,0,0,1,1.508,1.517c.053.338-.142.537-.48.471a1.974,1.974,0,0,1-.455-.161.352.352,0,0,0-.47.081c-.354.418-.7.839-1.038,1.239Z"/><path d="M226.787,296.14l.7.718c-.376.31-.786.634-1.18.978-.249.217-.24.287-.109.587a1.634,1.634,0,0,1,.135.462.356.356,0,0,1-.433.421,2,2,0,0,1-1.567-1.568.354.354,0,0,1,.418-.434,1.738,1.738,0,0,1,.479.143c.276.12.357.127.557-.1C226.135,296.945,226.464,296.531,226.787,296.14Z"/><path d="M226.783,288.7c-.306-.375-.618-.779-.954-1.162-.249-.284-.29-.271-.645-.12a1.476,1.476,0,0,1-.449.118.353.353,0,0,1-.4-.431,2,2,0,0,1,1.585-1.571c.27-.02.444.13.416.4a1.857,1.857,0,0,1-.149.516c-.108.254-.116.343.1.527.4.351.821.686,1.216,1.014Z"/><path d="M229.737,289.862a1.072,1.072,0,0,1,.6.215.492.492,0,0,1,.016.836,1.29,1.29,0,0,1-1.487-.009.488.488,0,0,1-.016-.79A1.278,1.278,0,0,1,229.737,289.862Z"/><path d="M230.251,294.98a1.107,1.107,0,0,1-.777-.268.484.484,0,0,1,.02-.765,1.281,1.281,0,0,1,1.53.008.482.482,0,0,1,.008.765A1.17,1.17,0,0,1,230.251,294.98Z"/><path d="M233.254,292.758a1.407,1.407,0,0,1-.876-.262.485.485,0,0,1,0-.79,1.29,1.29,0,0,1,1.5-.013.476.476,0,0,1-.018.818A2.965,2.965,0,0,1,233.254,292.758Z"/><rect class="cls-3" x="299.624" y="337.008" width="43.439" height="21.35" rx="8.364" transform="translate(-151.73 329.059) rotate(-45)"/><rect class="cls-3" x="356.23" y="350.899" width="21.744" height="76.142" rx="10.872" transform="translate(-167.522 373.507) rotate(-45)"/><rect class="cls-3" x="327.726" y="355.497" width="12.948" height="7.351" transform="translate(351.858 -131.116) rotate(45)"/></g></svg>