<svg xmlns="http://www.w3.org/2000/svg" viewBox="0 0 528.571 524.286"><defs><style>.cls-1{fill:#616060;}.cls-2{fill:#8d8989;}</style></defs><title>icon</title><g id="Layer_6" data-name="Layer 6"><path d="M407.111,263.972a70.808,70.808,0,0,1,1.773,21.842,79.479,79.479,0,0,1-4.767,21.571c-1.211,3.463-2.592,6.834-4.077,10.138-1.442,3.323-3.049,6.626-4.759,9.84-3.433,6.438-7.181,12.671-10.946,18.866l-.083-.907,2.49,2.922.571.669-.747.463-3.14,1.948c-1.043.655-2.1,1.29-3.132,1.961l.352-.446a120.856,120.856,0,0,0-4.807,31.441,106.783,106.783,0,0,0,.516,15.747c.538,5.219,1.546,10.44,2.483,15.7,1.952,10.514,3.742,21.146,5.262,31.8,1.4,10.676,2.67,21.371,3.512,32.116l-.494.078c-2.722-10.444-5.018-20.939-7.181-31.453-2.222-10.508-4.528-20.971-6.376-31.607-.463-2.659-.88-5.335-1.233-8.035s-.679-5.416-.859-8.159a100.692,100.692,0,0,1,.184-16.451c1.033-10.909,3.946-21.471,7.436-31.678l.1-.305.248-.142c1.069-.613,2.116-1.261,3.175-1.89l3.167-1.9-.177,1.133-2.533-2.884-.363-.413.281-.493a153.965,153.965,0,0,0,9.2-19.507c1.34-3.338,2.585-6.676,3.875-10.043,1.263-3.38,2.61-6.7,3.873-10.029a99.88,99.88,0,0,0,5.574-20.42,111.785,111.785,0,0,0,1.1-21.4Z"/><path d="M282.063,503.091c2.105,1,4.139,2,6.186,2.943,2.057.918,4.1,1.8,6.171,2.583s4.149,1.5,6.248,2.14l6.347,1.748a48.791,48.791,0,0,0,13.231,1.976,28.311,28.311,0,0,0,6.7-.844c1.1-.266,2.2-.49,3.265-.853s2.117-.785,3.168-1.175c1.058-.363,2.064-.9,3.086-1.353l1.523-.706a16.755,16.755,0,0,0,1.512-.726c.99-.525,2-.99,3-1.48s1.972-1.047,2.957-1.567,1.962-1.054,2.914-1.643l2.881-1.7c1.869-1.231,3.8-2.343,5.671-3.576,7.633-4.7,14.979-9.906,22.677-15.04l.347.36a73.751,73.751,0,0,1-9.243,10.4,85.785,85.785,0,0,1-10.859,8.754,75.168,75.168,0,0,1-12.309,6.7c-1.082.454-2.133.966-3.236,1.368s-2.2.809-3.322,1.165a33.054,33.054,0,0,1-3.4.927c-1.146.262-2.263.594-3.433.756-1.155.206-2.311.384-3.45.611-.566.128-1.159.144-1.734.225l-1.727.237c-2.288.378-4.6.559-6.9.781-2.305.2-4.619.454-6.96.6-1.171.079-2.345.127-3.537.135a17.882,17.882,0,0,1-1.811-.078c-.591-.049-1.188-.074-1.778-.144a39,39,0,0,1-13.455-4.449,39.926,39.926,0,0,1-5.928-3.848,33.978,33.978,0,0,1-5.107-4.82Z"/><path d="M299.437,432.794l.8,10.158c.3,3.348.657,6.67,1.1,9.983s.98,6.61,1.568,9.92L304.8,472.87a44.957,44.957,0,0,1-4.155-9.446A58.679,58.679,0,0,1,297.909,443,45.229,45.229,0,0,1,299.437,432.794Z"/><path d="M297.129,444.292a84.2,84.2,0,0,0,1.819,10.625,61.492,61.492,0,0,0,3.432,9.961,60.858,60.858,0,0,0,5.163,9.183,83.633,83.633,0,0,0,6.741,8.409,31.836,31.836,0,0,1-8.584-6.965,37,37,0,0,1-6.056-9.4,37.422,37.422,0,0,1-2.991-10.772A32.14,32.14,0,0,1,297.129,444.292Z"/><path d="M305.278,429.892a83.464,83.464,0,0,0,11.907,3.945,61.992,61.992,0,0,0,12.187,1.678,65.139,65.139,0,0,0,12.287-.733,89.973,89.973,0,0,0,12.217-2.881,39.109,39.109,0,0,1-11.735,5.172,43.972,43.972,0,0,1-12.884,1.438,51.4,51.4,0,0,1-6.469-.74,43.1,43.1,0,0,1-6.268-1.7A38.131,38.131,0,0,1,305.278,429.892Z"/><path d="M300.385,428.329c2.567,1.422,5.03,2.8,7.571,3.987a68.325,68.325,0,0,0,7.731,3.1,71.5,71.5,0,0,0,8.063,2.115c2.748.581,5.549.963,8.45,1.406a27.284,27.284,0,0,1-8.734.936,32.765,32.765,0,0,1-8.717-1.609,32.435,32.435,0,0,1-7.964-3.907A26.51,26.51,0,0,1,300.385,428.329Z"/><path d="M367.569,308.064A98.493,98.493,0,0,1,355.725,343c-2.064,3.6-4.381,7.018-6.659,10.407-4.65,6.7-9.016,13.519-13.039,20.593s-7.7,14.34-11.25,21.728a146.894,146.894,0,0,1,9.185-22.831c1.812-3.695,3.842-7.279,5.936-10.824,2.118-3.532,4.407-6.958,6.69-10.353,2.33-3.362,4.608-6.711,6.7-10.158a119.534,119.534,0,0,0,5.73-10.666A151.263,151.263,0,0,0,367.569,308.064Z"/><path d="M330.359,394.691a40.8,40.8,0,0,1-2.384,4.659c-.861,1.5-1.8,2.948-2.766,4.368l-1.807-2.035a86.2,86.2,0,0,1,7.822-4.6l7.832-4.076-6.106,6.161c-1.165,1.176-2.356,2.328-3.619,3.418q-.93.832-1.919,1.612c-.656.524-1.33,1.031-2.04,1.507.382-.765.8-1.5,1.235-2.215s.884-1.422,1.355-2.108c.921-1.391,1.912-2.72,2.93-4.025l1.726,2.086a86.057,86.057,0,0,1-7.806,4.627l-6.384,3.339,4.577-5.374c1.115-1.308,2.263-2.591,3.486-3.818A40.686,40.686,0,0,1,330.359,394.691Z"/><path d="M327.679,405.333a7.087,7.087,0,0,1,3.76,2.532,8.315,8.315,0,0,1,.868,9.062,6.841,6.841,0,0,1-3.288,3.141,24.968,24.968,0,0,0,1.071-3.944,13.163,13.163,0,0,0-.678-7.068A28.677,28.677,0,0,0,327.679,405.333Z"/><path d="M388.208,273.219a25.135,25.135,0,0,1,.571,6.955,24.8,24.8,0,0,1-1.439,6.926,18.131,18.131,0,0,1-3.5,6.236,15.511,15.511,0,0,1-5.8,4.094l-.113-.165a63.676,63.676,0,0,0,4.364-5.2,33.992,33.992,0,0,0,3.564-5.578,23.515,23.515,0,0,0,1.925-6.423,26.631,26.631,0,0,0,.226-6.816Z"/><path d="M353.471,300.85a14.972,14.972,0,0,0,4.231,3.311,14.216,14.216,0,0,0,5.255,1.526,15.593,15.593,0,0,0,5.614-.538,18.868,18.868,0,0,0,5.287-2.369,19.236,19.236,0,0,1-5.042,3.078,16.715,16.715,0,0,1-5.892,1.329,16.144,16.144,0,0,1-6.122-.963A17.639,17.639,0,0,1,351.377,303Z"/><path d="M371.069,119.074a26.8,26.8,0,0,1,15.166-.77,18.5,18.5,0,0,1,7.091,3.541,14.861,14.861,0,0,1,2.8,2.9,15.146,15.146,0,0,1,1.977,3.5,22.722,22.722,0,0,1,1.534,7.639c.115,2.554.019,5.062-.033,7.559a70.785,70.785,0,0,1-1.9,14.975,82.534,82.534,0,0,1-4.942,14.276c-.984,2.295-1.982,4.6-3.076,6.875-1.077,2.277-2.282,4.494-3.438,6.682a50.863,50.863,0,0,0-3.128,6.527,33.648,33.648,0,0,0-1.717,6.95,49.484,49.484,0,0,0,.225,14.679l-.29.076a37.8,37.8,0,0,1-2.287-14.98,31.042,31.042,0,0,1,1.317-7.662,45.4,45.4,0,0,1,3.048-7.079c2.357-4.433,4.614-8.728,6.766-13.244q1.62-3.354,3.14-6.724c1-2.253,2-4.512,2.807-6.84a40.345,40.345,0,0,0,2.5-14.509c-.089-4.953-.69-10.009-2.8-14.168a16.7,16.7,0,0,0-4.206-5.387,18.341,18.341,0,0,0-6.053-3.354,34.768,34.768,0,0,0-14.434-1.167Z"/><path d="M388.991,120.975a9.588,9.588,0,0,0-5.7-8.965c-4.273-1.778-8.284.675-8.453.78a9.6,9.6,0,0,0-3.406,3.734l-2.665-1.38a12.606,12.606,0,0,1,4.483-4.9c.557-.348,5.6-3.33,11.193-1.005a12.578,12.578,0,0,1,7.548,11.724Z"/><path d="M312.274,90.419a39.325,39.325,0,0,1,25.99-3.449,44.8,44.8,0,0,1,12.578,4.8c.976.566,1.944,1.148,2.872,1.793.948.605,1.869,1.336,2.732,2.019q2.623,2.1,5.022,4.454a47.477,47.477,0,0,1,8.241,10.7,26.051,26.051,0,0,1,2.48,6.438,17.679,17.679,0,0,1,.295,6.989,20,20,0,0,1-6.909,11.65,22.161,22.161,0,0,1-12.22,4.955,23.635,23.635,0,0,0,11.227-6.044,20.639,20.639,0,0,0,3.721-5.055,16.455,16.455,0,0,0,1.863-5.828,19.608,19.608,0,0,0-2.945-11.735,45.989,45.989,0,0,0-7.864-9.937c-1.512-1.509-3.1-2.953-4.753-4.306a30.913,30.913,0,0,0-2.525-1.909c-.863-.615-1.77-1.163-2.664-1.734a46.374,46.374,0,0,0-11.695-4.98A43.87,43.87,0,0,0,312.274,90.419Z"/><path d="M335.121,81.972A46.667,46.667,0,0,1,356.4,90.9a42.425,42.425,0,0,1,8.318,8.36A51.028,51.028,0,0,1,373.9,120.82a31.245,31.245,0,0,1-.212,11.893l-.351,1.464-.516,1.422c-.186.468-.323.953-.55,1.4l-.711,1.335a16.252,16.252,0,0,1-1.663,2.5,14.585,14.585,0,0,1-1.986,2.232,22.371,22.371,0,0,1-10.312,5.281,24.721,24.721,0,0,0,9.258-6.309,20,20,0,0,0,4.537-9.8,31.133,31.133,0,0,0-.293-10.941,49.8,49.8,0,0,0-3.3-10.628,47.3,47.3,0,0,0-12.864-17.96A57.307,57.307,0,0,0,335.121,81.972Z"/><path d="M371.2,139.567a31.647,31.647,0,0,1,.616,5.4q.036,1.358-.045,2.711c-.053.879-.122,1.76-.217,2.65a25.964,25.964,0,0,1-3.131,10.24,19.642,19.642,0,0,1-7.549,7.41,22.81,22.81,0,0,1-10.046,2.7,22.429,22.429,0,0,0,9.661-3.346,18.516,18.516,0,0,0,6.61-7.47,24.1,24.1,0,0,0,2.211-9.7c.029-.84.034-1.691.025-2.545q-.015-1.246-.139-2.485a28.835,28.835,0,0,0-.915-4.871Z"/><path d="M367.166,163.838a35.525,35.525,0,0,1-1.377,6.634,42.742,42.742,0,0,1-2.538,6.2,34.925,34.925,0,0,1-3.4,5.781,18.529,18.529,0,0,1-4.949,4.645,17.555,17.555,0,0,1-12.989,2.021,15.8,15.8,0,0,1-6.02-2.669,11.6,11.6,0,0,1-3.973-5.121,11.414,11.414,0,0,0,4.189,4.814,15.243,15.243,0,0,0,5.945,2.24,16.431,16.431,0,0,0,12.018-2.535,16.819,16.819,0,0,0,4.249-4.479,32.9,32.9,0,0,0,2.876-5.616,40.332,40.332,0,0,0,2.063-5.983,32.694,32.694,0,0,0,.915-6.175Z"/><path d="M361.3,181.74a14.684,14.684,0,0,1-5.118,7.213,16.672,16.672,0,0,1-8,3.127,14.785,14.785,0,0,1-4.259-.052,15.345,15.345,0,0,1-4.042-1.167,17.766,17.766,0,0,1-6.511-5,17.386,17.386,0,0,0,6.783,4.3,14.426,14.426,0,0,0,3.887.748,13.485,13.485,0,0,0,3.893-.31,14.793,14.793,0,0,0,6.816-3.384,12.06,12.06,0,0,0,3.663-6.3Z"/><path d="M314.06,102.662a114.608,114.608,0,0,0,11.836,6.592,82.945,82.945,0,0,0,12.476,4.732,86.612,86.612,0,0,0,13.068,2.706,121.967,121.967,0,0,0,13.524.854,48.1,48.1,0,0,1-13.7,1.48,54.932,54.932,0,0,1-13.726-2.162,65.31,65.31,0,0,1-6.555-2.368,53.871,53.871,0,0,1-6.184-3.186A47.3,47.3,0,0,1,314.06,102.662Z"/><path d="M322.544,113.453a76.394,76.394,0,0,0,9.962,7.24,59.388,59.388,0,0,0,5.346,2.841c.914.422,1.829.837,2.757,1.224.946.34,1.868.744,2.83,1.035a59.134,59.134,0,0,0,11.748,2.755,79.1,79.1,0,0,0,12.308.533,36.364,36.364,0,0,1-12.481,1.8,43.193,43.193,0,0,1-6.358-.628,41.686,41.686,0,0,1-6.2-1.628,40.809,40.809,0,0,1-11.259-6A36,36,0,0,1,322.544,113.453Z"/><path d="M332.963,126.03c2.283,1.166,4.433,2.345,6.63,3.394q3.274,1.6,6.629,2.879c2.243.856,4.523,1.613,6.859,2.287,2.335.69,4.721,1.255,7.195,1.933a23.621,23.621,0,0,1-7.641.383,29.708,29.708,0,0,1-14.258-5.47A23.444,23.444,0,0,1,332.963,126.03Z"/><path d="M291.343,88.466a20.467,20.467,0,0,1,6.025-8.715,22.675,22.675,0,0,1,9.729-4.909,23.462,23.462,0,0,1,5.476-.608,24.66,24.66,0,0,1,5.405.718,21.5,21.5,0,0,1,9.366,4.918,50.607,50.607,0,0,0-9.88-1.815,37.709,37.709,0,0,0-4.8-.028c-.786.11-1.58.1-2.352.27l-1.167.177c-.386.07-.764.18-1.148.263a30.144,30.144,0,0,0-8.781,3.544A43.746,43.746,0,0,0,291.343,88.466Z"/><path d="M279.14,98.536a7.343,7.343,0,0,1-.062-3.412,7.517,7.517,0,0,1,1.287-3.075c.7-.9,1.694-1.565,2.4-2.378a16.081,16.081,0,0,0,1.845-2.707,10.134,10.134,0,0,1,2.08-2.661,11.933,11.933,0,0,1,2.7-2.029,10.646,10.646,0,0,1,6.621-1.117l.072.291c-1.793,1.446-3.456,2.506-5.1,3.607-.827.531-1.714.963-2.561,1.49-.826.547-1.726,1.029-2.638,1.564a5.987,5.987,0,0,0-2.241,2.132,13.021,13.021,0,0,0-.972,2.986,14.879,14.879,0,0,1-1.3,2.7,17.5,17.5,0,0,1-1.836,2.669Z"/><path d="M276.626,101.843a14.611,14.611,0,0,1-.816-8.1,15.39,15.39,0,0,1,3.7-7.563,17.472,17.472,0,0,1,15.049-5.476,40.584,40.584,0,0,0-7.1,3.021,21.966,21.966,0,0,0-5.712,4.454,18.526,18.526,0,0,0-3.665,6.16A27.508,27.508,0,0,0,276.626,101.843Z"/><path d="M287.29,96.12a65.409,65.409,0,0,0-6.948,4.314,53.49,53.49,0,0,0-6.175,5.173,28.887,28.887,0,0,0-4.895,6.017,13.039,13.039,0,0,0-1.338,3.327,15.234,15.234,0,0,0-.451,3.616v.317l-.165.42a17.935,17.935,0,0,0-1.193,5.282,16.459,16.459,0,0,0,.535,5.356L267,131.2l-.994.941a28.775,28.775,0,0,0-4.186,4.92c-.291.447-.592.908-.849,1.361-.231.454-.508.893-.712,1.358a14.457,14.457,0,0,0-.956,2.9,24.106,24.106,0,0,0-.412,6.471c.1,2.262.369,4.579.643,6.9.556,4.655,1.195,9.341,1.7,14.024.306,2.337.426,4.691.683,7.032s.445,4.689.732,7.029l.011.092-.029.143a12.268,12.268,0,0,1-1.249,3.454A10.113,10.113,0,0,1,259,190.75a7.876,7.876,0,0,1-3.553,1.678,8.279,8.279,0,0,1-3.966-.269l1.334-2.183c3.452,2.966,7.375,5.53,11.464,6.334a13.481,13.481,0,0,0,1.519.209c.538.041,1.178.079,1.841.162a6.065,6.065,0,0,1,1.258.27,2.481,2.481,0,0,1,.3.122,2.239,2.239,0,0,1,.5.315,2.581,2.581,0,0,1,.354.348,2.325,2.325,0,0,1,.471,1.122,2.225,2.225,0,0,1-.221,1.246,2.627,2.627,0,0,1-.159.272l-.087.112a2.5,2.5,0,0,1-.19.209,2.27,2.27,0,0,1-.571.419,2.7,2.7,0,0,1-.314.148c-.193.08-.282.1-.416.146a17.145,17.145,0,0,1-2.023.415c-1.2.192-2.38.342-3.436.536-.254.046-.512.1-.676.145-.083.019-.136.053-.013,0a1.314,1.314,0,0,0,.257-.147,1.846,1.846,0,0,0,.352-.31l.075-.09.1-.144a2.117,2.117,0,0,0,.367-1.195,2.09,2.09,0,0,0-.28-1.1,2.176,2.176,0,0,0-.154-.229l-.065-.085a1.655,1.655,0,0,0-.241-.247c-.09-.077-.2-.147-.2-.145a.8.8,0,0,0-.147-.085c-.032-.015-.015-.011-.025-.015s.014,0,.044.009l.265.061c.211.046.47.087.723.125a47.648,47.648,0,0,0,6.673.367,45.833,45.833,0,0,0,6.651-.492,40.9,40.9,0,0,0,6.411-1.329,7.464,7.464,0,0,0,1.179-.524l.4-.227a6.675,6.675,0,0,1,.666-.325,3.994,3.994,0,0,1,.65-.207c.108-.023.217-.041.326-.055a3.227,3.227,0,0,1,.533-.013,2.941,2.941,0,0,1,.457.068,2.823,2.823,0,0,1,.524.175,2.771,2.771,0,0,1,1.223,1.086,2.906,2.906,0,0,1,.385,1.1,2.216,2.216,0,0,1,.022.266,3.152,3.152,0,0,1-.042.58c-.015.1-.035.191-.059.284l-.042.143-.083.227-.091.215-.062.122-.129.238a8.658,8.658,0,0,1-.726,1.026c-.217.271-.43.524-.639.763-.42.482-.835.932-1.252,1.378l-3.974-3.6a34.31,34.31,0,0,1,6.234-5.558,29.7,29.7,0,0,1,3.645-2.137,29.393,29.393,0,0,1,3.881-1.587c1.259-.416,2.411-.793,3.575-1.234s2.31-.913,3.443-1.423a64.652,64.652,0,0,0,6.622-3.455l6.2-3.757-3.268,6.311a37.068,37.068,0,0,1-4.4,6.672,34.566,34.566,0,0,1-5.69,5.543A32.458,32.458,0,0,1,288.6,205.9l-.133-.482a35.949,35.949,0,0,0,12.554-7.871,37.209,37.209,0,0,0,8.165-11.956l2.93,2.555a56.958,56.958,0,0,1-6.849,4.179q-1.786.923-3.631,1.731c-1.225.541-2.505,1.036-3.676,1.493a25.5,25.5,0,0,0-6.2,3.348,32.039,32.039,0,0,0-5.228,4.814l-3.974-3.6c.385-.414.765-.831,1.116-1.237l.492-.591c.146-.179.287-.383.3-.406l-.024.044-.06.137-.042.125-.025.091a2.17,2.17,0,0,0-.051.229,2.142,2.142,0,0,0-.027.472l.019.24a2.615,2.615,0,0,0,.067.347,2.546,2.546,0,0,0,.29.67,2.659,2.659,0,0,0,1.15,1.009,2.483,2.483,0,0,0,.471.161,2.693,2.693,0,0,0,.4.059,2.275,2.275,0,0,0,.423-.009,1.754,1.754,0,0,0,.217-.036,1.121,1.121,0,0,0,.232-.07,1.415,1.415,0,0,0-.127.063l-.368.2a12.746,12.746,0,0,1-2.05.887,40.662,40.662,0,0,1-7.42,1.378,47.778,47.778,0,0,1-7.426.312,51.931,51.931,0,0,1-7.388-.705c-.326-.062-.647-.125-1.008-.217-.183-.047-.36-.092-.586-.167-.11-.037-.214-.069-.372-.136l-.229-.1c-.116-.058-.23-.122-.34-.189a2.53,2.53,0,0,1-.286-.21,3.079,3.079,0,0,1-.325-.321l-.084-.1a2.657,2.657,0,0,1-.164-.255,2.313,2.313,0,0,1-.209-1.878,2.481,2.481,0,0,1,.3-.625,1.515,1.515,0,0,1,.122-.165l.094-.108a2.777,2.777,0,0,1,.435-.385,3.606,3.606,0,0,1,.45-.253,4.57,4.57,0,0,1,.826-.266c.408-.093.73-.139,1.056-.187,1.269-.167,2.433-.252,3.562-.377.534-.057,1.154-.137,1.447-.2.006,0,.061-.015,0,.006l-.113.058a1.7,1.7,0,0,0-.39.3,1.732,1.732,0,0,0-.15.171l-.066.094a1.966,1.966,0,0,0-.151.246,2.026,2.026,0,0,0-.2,1.142,1.933,1.933,0,0,0,.429,1.02,1.686,1.686,0,0,0,.269.277,1.613,1.613,0,0,0,.316.2l.093.038a2.839,2.839,0,0,0-.461-.118c-.5-.1-1.03-.174-1.661-.267a17.556,17.556,0,0,1-1.951-.417,21.682,21.682,0,0,1-6.841-3.388,40.171,40.171,0,0,1-5.521-4.822l-4.47-4.577,5.8,2.394a5.823,5.823,0,0,0,2.76.451,5.52,5.52,0,0,0,2.639-1.023,7.522,7.522,0,0,0,2.051-2.214,10.5,10.5,0,0,0,1.195-2.9l-.018.234c-.147-2.331-.383-4.658-.569-6.988-.22-2.328-.384-4.663-.769-6.969-.345-2.311-.786-4.608-1.236-6.9-.492-2.289-.991-4.574-1.53-6.871s-1.054-4.609-1.422-7.018a25.854,25.854,0,0,1-.183-7.555,18.91,18.91,0,0,1,2.818-7.3,27.523,27.523,0,0,1,4.9-5.788l-.652,2.2a20.839,20.839,0,0,1-.509-6.8,19.525,19.525,0,0,1,1.749-6.561l-.166.738a19.192,19.192,0,0,1,.812-4.52,14.832,14.832,0,0,1,2.009-4.184,28.818,28.818,0,0,1,6.044-6.266,44.549,44.549,0,0,1,14.828-7.8Z"/><path d="M257.04,189.741a8.719,8.719,0,0,0,6.73-2.2,9.73,9.73,0,0,1-6.661,4.2Z"/><path d="M261.928,184.343a12.251,12.251,0,0,0,3.839-3.332,10.3,10.3,0,0,0,1.219-2.1,11.366,11.366,0,0,0,.7-2.27l.178-.971,1.149.142c2.189.271,4.362.624,6.532.991l1.248.211-.093,1.338a13.381,13.381,0,0,0,.819,5.79,12.137,12.137,0,0,0,1.394,2.562,12.815,12.815,0,0,0,1.963,2.238,18.765,18.765,0,0,0,5.189,3.347,31.635,31.635,0,0,0,6.224,1.891,18.168,18.168,0,0,1-6.754-.29,16.87,16.87,0,0,1-6.332-2.946,13.805,13.805,0,0,1-4.443-5.689,14.4,14.4,0,0,1-.93-7.173l1.155,1.549c-2.146-.489-4.289-.993-6.417-1.578l1.327-.828a10.777,10.777,0,0,1-3.089,4.755,10.237,10.237,0,0,1-2.311,1.536A9.36,9.36,0,0,1,261.928,184.343Z"/><path d="M270.631,158.782l-2-.013a7.582,7.582,0,0,0-.978-3.952,5.85,5.85,0,0,0-1.43-1.612,10.955,10.955,0,0,1-1.673-1.712c-.708-.915-2.963-4.127-2.213-7.033.452-1.753,1.724-2.39,3.2-3.128a19.4,19.4,0,0,0,3.554-2.173c1.67-1.308,5.694-4.912,6.977-10.095a19.594,19.594,0,0,0,.375-2.079,5.57,5.57,0,0,1,1.535-3.718,7.222,7.222,0,0,1,2.911-1.594c.952-.326,1.506-.538,1.838-1.1a2.719,2.719,0,0,0,.2-1.911l-13.957.077.288-1.235c.025-.106.044-.2.059-.283a16.717,16.717,0,0,0-2.729,2.143l-1.345-1.479c2.918-2.653,4.4-3.36,5.457-2.605a1.729,1.729,0,0,1,.666,1.446l13.071-.073.22.707a5.122,5.122,0,0,1-.2,4.229,4.77,4.77,0,0,1-2.912,1.976,5.37,5.37,0,0,0-2.164,1.135c-.659.641-.767,1.248-.949,2.56a21.332,21.332,0,0,1-.415,2.285c-1.432,5.786-5.851,9.752-7.684,11.189a21.191,21.191,0,0,1-3.892,2.386c-1.435.719-1.942,1.01-2.157,1.839-.415,1.611.742,3.867,1.859,5.309a9.072,9.072,0,0,0,1.4,1.424,7.747,7.747,0,0,1,1.846,2.11A9.542,9.542,0,0,1,270.631,158.782Z"/><path d="M317.409,145.447c-4.2-1.493-8.546-2.817-12.918-3.936-2.076-.532-3.871-.943-5.313-1.273-4.269-.978-5.867-1.344-5.876-2.815h0a1.794,1.794,0,0,1,.76-1.4c1.367-1.13,4.737-1.976,7.8-1.373a11.765,11.765,0,0,1,5.236,2.775c.576.446,1.209.936,1.957,1.464a38.415,38.415,0,0,0,9.03,4.677ZM295.732,137.3c.816.281,2.322.626,3.892.986,1.454.333,3.262.748,5.363,1.285q1.264.324,2.526.67c-.608-.441-1.144-.855-1.638-1.236a9.944,9.944,0,0,0-4.4-2.4A9.487,9.487,0,0,0,295.732,137.3Z"/><path d="M315.211,138.809A52.026,52.026,0,0,0,299.8,128.6l.791-1.837a54.087,54.087,0,0,1,16,10.6Z"/><path d="M298.958,133.39l-1.5-1.325a22.171,22.171,0,0,0,1.763-2.278c.41-.609.793-1.244,1.138-1.886l1.762.946c-.377.7-.794,1.393-1.242,2.058A24.165,24.165,0,0,1,298.958,133.39Z"/><path d="M316.419,133.217a1.464,1.464,0,0,1-1.04-.61c-1.283-1.5-2.345-2.873-3.281-4.088a24.961,24.961,0,0,0-3.5-4.015,8.077,8.077,0,0,0-4.8-1.49c-1.894-.153-3.854-.312-5.1-2.339-.473-.766-1.162-2.229-.455-3.417a3.014,3.014,0,0,1,2.133-1.283c2.541-.508,7.158.449,10.487,2.927,5.523,4.111,6.819,11.64,6.652,13.193a1.163,1.163,0,0,1-.66,1.023A1.045,1.045,0,0,1,316.419,133.217Zm-14.512-15.381a5.862,5.862,0,0,0-1.14.1c-.56.112-.772.286-.806.344-.067.113-.008.624.438,1.345h0c.687,1.112,1.694,1.243,3.564,1.394a9.956,9.956,0,0,1,5.884,1.921,25.914,25.914,0,0,1,3.835,4.357c.432.561.893,1.158,1.388,1.784a16.05,16.05,0,0,0-5.4-8.576A14.146,14.146,0,0,0,301.907,117.836Z"/><path d="M270.756,139.636l-.644-1.452a6.832,6.832,0,0,0-3.062-3.284,7.127,7.127,0,0,0-3.836-.721,6.538,6.538,0,0,0-.713.112l-1.89.408.76-1.778a5.549,5.549,0,0,1,1.942-2.439c3-2.072,6.69-.03,7.1.21a5.163,5.163,0,0,1,2.563,2.746c.851,2.5-.979,4.743-1.19,4.99Zm-6.353-7.475a9.076,9.076,0,0,1,3.567.963,8.65,8.65,0,0,1,3.056,2.658,2.6,2.6,0,0,0,.058-1.7,3.277,3.277,0,0,0-1.678-1.663c-.029-.017-2.938-1.686-4.956-.292C264.434,132.138,264.418,132.149,264.4,132.161Z"/><path d="M267.724,139.5a5.4,5.4,0,0,1-1.325-.164,6.478,6.478,0,0,1-4.586-6.06l2-.107a4.472,4.472,0,0,0,3.08,4.228,4.124,4.124,0,0,0,3.124-.6l1.076,1.686A6.457,6.457,0,0,1,267.724,139.5Z"/><path d="M307.417,150.043a17.69,17.69,0,0,1-5.525-1.3c-4.835-1.723-7.26-2.587-7.645-4.788a4.451,4.451,0,0,1,2.991-4.793,3.268,3.268,0,0,1,2.14.292c1.134.531,3.084,1.414,5.659,2.582,1.826.827,3.964,1.8,6.349,2.883l.812.37-.275.848A5.858,5.858,0,0,1,309.3,149.6,3.723,3.723,0,0,1,307.417,150.043Zm-9.536-8.957a.832.832,0,0,0-.19.021h0a2.561,2.561,0,0,0-1.474,2.5c.184,1.054,2.5,1.879,6.341,3.247,4.607,1.641,5.454,1.173,5.774,1a3.43,3.43,0,0,0,1.354-1.512c-2.035-.927-3.875-1.761-5.474-2.486-2.586-1.171-4.544-2.059-5.684-2.593A1.565,1.565,0,0,0,297.881,141.086Z"/><path d="M334.256,167.68q-.328,0-.706-.017a25.008,25.008,0,0,1-7.326-1.51l.678-1.881a23,23,0,0,0,6.739,1.393c.191.009.389.011.584.01a1.733,1.733,0,0,1-.716-1.667,1.433,1.433,0,0,1,.181-.461,14.414,14.414,0,0,1-3.007-.555c-.459-.138-1.415-.426-1.319-1.344l.06-.568.545-.265c.586-.268,2.589.121,4.075.588a6.576,6.576,0,0,1-.445-9.433c1.938-2.4,6.3-4.581,9.454-2.431a6.18,6.18,0,0,1,2.469,4.11,8.261,8.261,0,0,1-1.559,6.241l-1.608-1.188a6.258,6.258,0,0,0,1.2-4.718,4.182,4.182,0,0,0-1.625-2.792c-2.053-1.4-5.326.243-6.77,2.034a5.477,5.477,0,0,0-1.28,3.979,5.7,5.7,0,0,0,1.723,2.935c.653.705,1.394,1.505.893,2.465a1.368,1.368,0,0,1-.253.342c.009.04.017.081.022.122a1.42,1.42,0,0,1-.524,1.26c.116.088.241.178.337.246.609.433,1.366.972,1.179,1.851C337.126,167.02,336.657,167.68,334.256,167.68Z"/><path d="M330.411,176.353a12.334,12.334,0,0,1-3.943-.629c-2.548-.856-6.415-3.133-5.948-5.6.184-.97.991-1.746,2.4-2.306l.739,1.859c-.869.345-1.146.678-1.173.82-.122.645,1.943,2.431,4.62,3.331a12.544,12.544,0,0,0,8.274-.44c5.355-1.919,8.2-6.132,10.076-8.921,2.566-3.8,4.419-6.552,4.077-10.06-.4-4.127-3.63-7.723-6.455-9.318-1.415-.8-2.48-.948-2.91-.742-.195.093-.314.331-.559.893a6.5,6.5,0,0,1-1.92,2.7,8.182,8.182,0,0,1-5.572,1.638l.057-2a6.276,6.276,0,0,0,4.252-1.19,4.553,4.553,0,0,0,1.349-1.949,3.289,3.289,0,0,1,1.531-1.9c1.161-.555,2.85-.269,4.754.805,3.372,1.9,6.987,6,7.463,10.865.413,4.225-1.714,7.38-4.408,11.374-1.9,2.822-5.088,7.545-11.06,9.684A16.521,16.521,0,0,1,330.411,176.353Z"/><path d="M312.653,185.242l-.646-.764a6.584,6.584,0,0,0,1.142-1.245,7.2,7.2,0,0,0,1.167-3.694,8.407,8.407,0,0,1,.572-2.585c.771-1.732,2.566-3.027,5.337-3.848l.285.958c-2.478.735-4.062,1.844-4.709,3.3a7.534,7.534,0,0,0-.491,2.287,8.125,8.125,0,0,1-1.343,4.159A7.556,7.556,0,0,1,312.653,185.242Z"/><path d="M341.092,212.972a12.378,12.378,0,0,1-1.944-1.336c-.812-.682-3.284-2.759-4.85-9.238a38.851,38.851,0,0,1-.746-13.692l1.986.233a36.847,36.847,0,0,0,.7,12.989c1.41,5.84,3.5,7.6,4.191,8.176a10.335,10.335,0,0,0,1.629,1.12Z"/><path d="M352.358,222.164a34.159,34.159,0,0,1-3.908-17.942,33.566,33.566,0,0,1,3.335-12.654l1.8.873a31.567,31.567,0,0,0-3.139,11.9,32.165,32.165,0,0,0,3.682,16.888Z"/><path d="M342.072,217.7l-1.77-.93a44.553,44.553,0,0,0,5.022-23.8l2-.137a46.539,46.539,0,0,1-5.247,24.869Z"/><path d="M344.084,216.754l-1.7-1.051q1.641-2.655,3.315-5.327,1.376-2.2,2.751-4.367l1.69,1.071q-1.373,2.166-2.747,4.358Q345.722,214.105,344.084,216.754Z"/><path d="M289.047,272.618a39.1,39.1,0,0,1-2.472,6.793,66.632,66.632,0,0,1-3.335,6.3,31.244,31.244,0,0,1-4.37,5.638,42.8,42.8,0,0,0-4.63,5.446,58.688,58.688,0,0,0-3.669,6.132,44.178,44.178,0,0,1-3.822,6.173,56.213,56.213,0,0,1-4.784,5.567,37.256,37.256,0,0,1-5.694,4.619l.984-2.1c-.034,1.2-.086,2.4-.164,3.6-.107,1.2-.159,2.405-.311,3.61-.119,1.2-.287,2.41-.466,3.616-.209,1.208-.407,2.415-.722,3.627l-.5.021c-.414-1.182-.712-2.368-1.019-3.554-.279-1.188-.546-2.376-.764-3.566-.252-1.188-.4-2.381-.609-3.572-.178-1.191-.329-2.384-.462-3.577l-.121-1.09,1.105-1.009c3.39-3.1,6.9-5.859,10.145-9.137,3.184-3.283,7.046-6.281,9.637-10.221a33.12,33.12,0,0,0,3.279-6.3,36.383,36.383,0,0,1,3.162-6.348,65.691,65.691,0,0,1,4.154-5.713,39.979,39.979,0,0,1,5.017-5.221Z"/><path d="M254.143,319.594l-4.733.477.407-.357a15.345,15.345,0,0,1-2.345,6.411,14.273,14.273,0,0,1-2.391,2.555,3.4,3.4,0,0,1-.946.532c-.292.087-.611.209-.886.26-.573.142-1.132.243-1.69.341-2.228.348-4.436.54-6.647.723s-4.416.316-6.635.4l-.2.008-.243-.079-8.246-2.656,1.864-.884-2.323,6.614-.219.623-.675.3L208.56,339.1l-4.844,2.1-4.786,2.227c-3.173,1.52-6.354,3.026-9.5,4.594s-6.3,3.129-9.429,4.752l.745-.811A31.511,31.511,0,0,0,178,362.133a30.383,30.383,0,0,0,.285,5.287c.212,1.821.461,3.657.71,5.493s.471,3.694.833,5.413a4.789,4.789,0,0,0,.891,2.139,5.131,5.131,0,0,0,1.9,1.418c.774.36,1.684.671,2.571,1.086a13.411,13.411,0,0,1,2.51,1.539,14.8,14.8,0,0,1,3.755,4.421l-.83-.267q8.22-3.6,16.745-6.443c2.846-.919,5.684-1.88,8.587-2.608s5.786-1.543,8.684-2.312l.318-.084.336.2,10.255,6.034-1.476.234,4.772-5.923,5.84-7.248-3.613,8.648-.88,2.106-1.5-1.926c4.648-.941,9.3-1.865,13.925-2.88s9.241-2.1,13.85-3.192c4.616-1.062,9.169-2.377,13.737-3.623l13.7-3.761-1.433,1.43a24.654,24.654,0,0,1,8.194-12.362c.478-.4.969-.761,1.336-1.083.407-.326.782-.674,1.145-1.029a17.451,17.451,0,0,0,1.96-2.323c1.176-1.689,2.22-3.755,3.441-5.794a56.209,56.209,0,0,1,4.055-5.893,24.631,24.631,0,0,1,2.446-2.778c.856-.844,1.726-1.62,2.593-2.4,3.477-3.087,6.992-6.044,10.5-9.022l10.6-8.839c.877-.733,1.768-1.457,2.6-2.189a17.342,17.342,0,0,0,2.239-2.312,35.005,35.005,0,0,0,3.7-5.533c1.07-1.963,2.013-4.089,3.169-6.14a39.645,39.645,0,0,1,3.983-5.8,46.123,46.123,0,0,1,10.338-9.282l.236.324a48.835,48.835,0,0,0-9.4,9.854,44.48,44.48,0,0,0-3.45,5.8c-1,2.013-1.813,4.145-2.83,6.28a37.507,37.507,0,0,1-3.642,6.117,20.207,20.207,0,0,1-2.41,2.77c-.854.829-1.7,1.611-2.559,2.387L330.47,327.3c-3.418,3.067-6.859,6.127-10.176,9.239-.823.778-1.639,1.565-2.41,2.346a20.291,20.291,0,0,0-2.069,2.426,51.971,51.971,0,0,0-3.678,5.518c-1.119,1.917-2.106,3.992-3.52,6.109a19.4,19.4,0,0,1-2.467,2.95,34.448,34.448,0,0,1-2.766,2.359,20.905,20.905,0,0,0-6.88,10.239l-.345,1.152-1.089.278L281.2,373.458c-4.625,1.171-9.233,2.411-13.9,3.4-4.654,1.046-9.338,1.955-14.025,2.831s-9.386,1.691-14.1,2.376l-2.594.377,1.095-2.3.981-2.061,2.226,1.4-5.051,5.687-.672.756-.8-.522-9.987-6.468.653.113c-2.889.657-5.792,1.279-8.68,1.967-1.45.32-2.881.713-4.308,1.124s-2.851.831-4.262,1.292c-2.825.912-5.63,1.891-8.4,2.961q-4.146,1.629-8.2,3.47l-.528.239-.3-.507a13.148,13.148,0,0,0-3.514-3.9,11.917,11.917,0,0,0-2.264-1.292c-.8-.354-1.667-.6-2.6-.967a6.911,6.911,0,0,1-2.6-1.762,5.243,5.243,0,0,1-.917-1.4,9.654,9.654,0,0,1-.507-1.456c-.5-1.889-.8-3.706-1.152-5.53s-.692-3.649-1-5.5a32.423,32.423,0,0,1-.585-5.789,32.983,32.983,0,0,1,2.489-11.345l.215-.52.531-.291c3.113-1.709,6.231-3.412,9.412-4.991,3.173-1.6,6.362-3.162,9.6-4.629l4.858-2.185,4.915-2.056,9.856-4.038-.894.92,2.518-6.542.53-1.376,1.335.492,8.126,3-.445-.07c4.366-.023,8.788-.017,13.088-.4.533-.053,1.063-.108,1.569-.193.27-.03.471-.1.713-.149a1.394,1.394,0,0,0,.507-.231,12.825,12.825,0,0,0,2.278-2.094,14.293,14.293,0,0,0,2.576-5.731l.08-.358h.326l4.756-.007Z"/><path d="M360.751,288.94l-.132-.991c3.3-.44,6.65-.72,9.966-.832,1.283-.043,2.583-.062,3.87-.056l0,1c-1.271-.006-2.562.013-3.832.056C367.336,288.227,364.016,288.5,360.751,288.94Z"/><path d="M254.449,337.386c.6,1.4,1.1,2.761,1.636,4.1s1.094,2.636,1.686,3.924,1.21,2.564,1.87,3.84,1.36,2.546,2.027,3.917a13.783,13.783,0,0,1-3.332-3.062,18.367,18.367,0,0,1-3.746-8.193A13.836,13.836,0,0,1,254.449,337.386Z"/><path d="M257.568,319.032a25.327,25.327,0,0,1,2.487,4.006,25.672,25.672,0,0,1,1.791,4.215,41.163,41.163,0,0,0,1.217,4.5,15.822,15.822,0,0,0,2.409,3.938c.99,1.205,1.941,2.416,2.8,3.675.885,1.246,1.8,2.46,2.611,3.749a55.237,55.237,0,0,1,4.3,8.247l-.233.19a27.091,27.091,0,0,1-6.723-6.652,32.335,32.335,0,0,1-2.376-4.064,25.96,25.96,0,0,1-1.818-4.359,23.55,23.55,0,0,0-1.837-4.3c-.759-1.354-1.847-2.568-2.645-3.93a17.713,17.713,0,0,1-1.679-4.38,17.249,17.249,0,0,1-.586-4.737Z"/><path d="M216.756,334.505c-.6,1.854-1.278,3.542-1.82,5.266-.567,1.711-1.053,3.408-1.516,5.132-.141.426-.294.853-.454,1.283s-.245.874-.375,1.317a10.31,10.31,0,0,0-.473,2.719,10.592,10.592,0,0,0,.172,2.753,13.068,13.068,0,0,0,.715,2.67c.305.871.636,1.722,1.008,2.559.185.417.333.844.5,1.264l.546,1.244c.35.832.745,1.645,1.161,2.447l1.216,2.419c1.566,3.27,3.332,6.45,5.052,9.886l-.224.2a21.713,21.713,0,0,1-4.3-3.866,27.572,27.572,0,0,1-3.356-4.721,20.27,20.27,0,0,1-1.243-2.632l-.528-1.357c-.157-.461-.29-.932-.435-1.4s-.3-.924-.409-1.4-.213-.951-.289-1.433a19.574,19.574,0,0,1-.3-2.9c-.1-.959-.052-1.932-.116-2.882-.083-.95-.055-1.9-.127-2.852-.106-.953-.136-1.909-.206-2.887-.026-.487-.1-.985-.079-1.474s.059-.98.1-1.471.119-.98.206-1.465a13.357,13.357,0,0,1,.423-1.414,17.445,17.445,0,0,1,1.2-2.688,14.938,14.938,0,0,1,3.712-4.5Z"/><path d="M226.877,376.647c1.9-1.069,3.822-1.881,5.726-2.728,1.919-.806,3.8-1.652,5.768-2.3a44.582,44.582,0,0,0,5.939-2.052c.948-.452,1.846-.993,2.766-1.54a17.974,17.974,0,0,1,2.969-1.516,11.321,11.321,0,0,1,3.385-.669,11.582,11.582,0,0,1,3.463.424c1.109.286,2.119.661,3.079.969s1.883.593,2.824.811a32.759,32.759,0,0,0,12.031.42l.1.282a17.745,17.745,0,0,1-12.817,2.427,32.828,32.828,0,0,1-6.071-2.2,13.18,13.18,0,0,0-2.726-.724,12.006,12.006,0,0,0-2.887-.138,14.3,14.3,0,0,0-5.655,2.309c-1.811,1.09-3.512,2.463-5.4,3.5a26.12,26.12,0,0,1-6.022,2.221,25.617,25.617,0,0,1-6.4.8Z"/><path d="M282.692,153.826a1.662,1.662,0,0,1,1.1.9,1.972,1.972,0,0,1,.1,1.475,1.755,1.755,0,0,1-1.309,1.207,1.213,1.213,0,0,1-1.348-.733c.459-.289.736-.532.741-.718a.612.612,0,0,1,.015-.376c.048-.154.141-.356.246-.633Z"/><path d="M279.537,157.365a16.213,16.213,0,0,1-3.192-.44c-.879-.186-1.874-.4-2.011-1.337a1.374,1.374,0,0,1,.328-1.063,2.772,2.772,0,0,1,1.89-.916,2.651,2.651,0,0,1,1.679.56,12.657,12.657,0,0,0,1.166.659c.327.163.569.266.737.337.295.126,1.079.459.916,1.305l-.078.412-.377.269A1.705,1.705,0,0,1,279.537,157.365Z"/><path d="M288.858,176.113a5.95,5.95,0,0,1-3.447-1.064l-.181-.115c-.729-.458-1.209-.656-5.078-1.9-2.244-.724-3.286-1.047-3.85-1.222a10.547,10.547,0,0,1-1.069-.364,22.459,22.459,0,0,1-3.184-1.55,18.423,18.423,0,0,0-1.657-.868,17.15,17.15,0,0,0-7.23-1.418l-2.415.013,1.7-1.716a8.674,8.674,0,0,1,4.543-2.568c2.67-.507,4.328.681,6.246,2.058a19.665,19.665,0,0,0,6.553,3.378c1.1.317,2.161.518,3.184.713,2.658.505,5.17.983,7.47,3.345a11.265,11.265,0,0,1,1.164,1.41l.791,1.134-1.325.4A7.718,7.718,0,0,1,288.858,176.113Zm-8.574-5.142.482.155c3.9,1.26,4.576,1.517,5.527,2.114l.2.126a4.267,4.267,0,0,0,1.085.551,4.178,4.178,0,0,0,1.319.195c-1.829-1.812-3.807-2.188-6.3-2.661C281.849,171.309,281.084,171.163,280.284,170.971Zm-14.318-5.2a18.065,18.065,0,0,1,5.248,1.435,20.32,20.32,0,0,1,1.826.954,20.494,20.494,0,0,0,2.933,1.429c.314.125.393.148.92.312l.28.087a23.374,23.374,0,0,1-5.105-2.965c-1.8-1.288-2.881-2.065-4.706-1.718A5.62,5.62,0,0,0,265.966,165.768Z"/><path d="M284.074,176.7a9.414,9.414,0,0,1-3.189-.451,7.04,7.04,0,0,1-2.641-1.571,4.222,4.222,0,0,0-1.915-1.091,3.114,3.114,0,0,0-1.653-.052,5.668,5.668,0,0,1-2.418-.008c-1.446-.3-2.2-.847-3.861-2.053-.657-.479-1.477-1.075-2.568-1.823-1-.681-2.013-1.349-3.023-1.983l1.064-1.694c1.032.649,2.071,1.33,3.088,2.027,1.112.761,1.947,1.368,2.616,1.855,1.545,1.124,2.065,1.5,3.086,1.711a3.641,3.641,0,0,0,1.659,0,5.029,5.029,0,0,1,2.53.089,6.142,6.142,0,0,1,2.706,1.512,5.123,5.123,0,0,0,1.967,1.185c1.265.425,2.426.378,4.738.283a26.821,26.821,0,0,0,3.408-.358l.337,1.971a28.828,28.828,0,0,1-3.663.386C285.467,176.666,284.731,176.7,284.074,176.7Z"/><path d="M180.666,401.922a66.429,66.429,0,0,0-12.991,14.168A60.578,60.578,0,0,0,159.7,433.3a63.853,63.853,0,0,0-2.309,18.755c.048,1.582.132,3.161.279,4.748s.28,3.21.467,4.782a65.878,65.878,0,0,0,1.738,9.286,45.422,45.422,0,0,0,8.417,16.735c3.984,4.915,9.134,8.923,14.252,12.9a83.832,83.832,0,0,0,16.4,10.21,69.6,69.6,0,0,0,9.015,3.436c3.086.925,6.222,1.662,9.374,2.29,12.624,2.324,25.751,2.009,37.783-1.844a64.266,64.266,0,0,0,8.84-3.465c2.886-1.347,5.718-2.834,8.5-4.422,2.756-1.586,5.558-3.3,8.3-4.968,1.371-.836,2.734-1.671,4.025-2.543a21.358,21.358,0,0,0,3.423-2.747,8.074,8.074,0,0,0,.606-.73c.185-.26.361-.6.544-.894l.549-.911c.172-.312.286-.659.434-.986l.431-.99c.141-.333.216-.7.329-1.046a13.971,13.971,0,0,0,.543-2.147,34.332,34.332,0,0,0,.443-9.156,110.756,110.756,0,0,0-3.346-18.806c-.77-3.133-1.6-6.261-2.443-9.395a64.423,64.423,0,0,1-2.074-9.7,36.839,36.839,0,0,1,.169-10.021,30.442,30.442,0,0,1,3.252-9.413l.213.764q-3.6-2.484-7.156-5.021l.214-.337q3.81,2.147,7.579,4.356l.442.258-.228.506a30.926,30.926,0,0,0-2.4,9.145,34.647,34.647,0,0,0,.4,9.4,67.155,67.155,0,0,0,2.531,9.209c.979,3.1,1.947,6.213,2.862,9.352a105.273,105.273,0,0,1,4.029,19.4,38.386,38.386,0,0,1-.345,10.252,17.684,17.684,0,0,1-.607,2.579c-.13.426-.221.861-.385,1.28l-.524,1.251c-.186.412-.338.838-.557,1.237l-.7,1.177c-.246.394-.449.777-.736,1.177a12.507,12.507,0,0,1-.951,1.14,25.163,25.163,0,0,1-4.151,3.35c-1.405.941-2.81,1.805-4.219,2.647-2.84,1.65-5.612,3.271-8.519,4.867-2.894,1.577-5.848,3.053-8.876,4.392a69.667,69.667,0,0,1-29.049,6.2,89.8,89.8,0,0,1-19.581-2.449c-3.187-.791-6.341-1.691-9.433-2.778a78.922,78.922,0,0,1-9.084-3.74,104.915,104.915,0,0,1-16.686-10.249c-5.2-3.854-10.715-7.485-15.228-12.458a45.478,45.478,0,0,1-5.868-8.117,44.3,44.3,0,0,1-4-9.226c-.482-1.607-.916-3.232-1.248-4.872s-.575-3.292-.778-4.937-.365-3.267-.5-4.912-.195-3.316-.22-4.98a66.131,66.131,0,0,1,.641-9.97,62.769,62.769,0,0,1,2.25-9.734,58.486,58.486,0,0,1,9.217-17.554A57.339,57.339,0,0,1,180.431,401.6Z"/><path d="M228.1,425.873a125.731,125.731,0,0,0-3.829,12.753c-.484,2.144-.953,4.284-1.265,6.451-.358,2.156-.635,4.325-.782,6.5a87.591,87.591,0,0,0-.093,13.112,122.089,122.089,0,0,0,1.727,13.2,47.066,47.066,0,0,1-4.051-12.923,54.5,54.5,0,0,1-.571-13.635,55.247,55.247,0,0,1,2.795-13.357A47.942,47.942,0,0,1,228.1,425.873Z"/><path d="M231.653,470.83c-1.515,3.165-3.2,6.224-4.928,9.25-.857,1.519-1.755,3.012-2.649,4.507s-1.829,2.963-2.74,4.447l-2.083-1.645q1.76-1.885,3.6-3.695c1.224-1.208,2.485-2.381,3.756-3.544,2.551-2.319,5.121-4.618,7.548-7.055l2.677-2.69-1.909,3.258c-.876,1.5-1.714,3.011-2.535,4.537s-1.606,3.071-2.373,4.627c-1.538,3.11-3,6.263-4.56,9.359l-1.928-1.485c2.726-2.833,5.5-5.623,8.268-8.409l2.022,2.32a37.665,37.665,0,0,0-5.793,6.174,27.587,27.587,0,0,0-4.062,7.36,22.2,22.2,0,0,0-1.3,8.295,23.925,23.925,0,0,0,2,8.441l-.261.147a20.611,20.611,0,0,1-3.55-8.385,21.838,21.838,0,0,1,.517-9.318,27.581,27.581,0,0,1,1.673-4.4,33.466,33.466,0,0,1,2.42-4.009,31.885,31.885,0,0,1,6.453-6.725l2.023,2.319c-2.884,2.671-5.771,5.339-8.7,7.963l-6.285,5.629,4.356-7.113c1.811-2.958,3.725-5.857,5.561-8.8.921-1.471,1.813-2.957,2.688-4.452s1.715-3.011,2.526-4.542l.768.568c-2.336,2.523-4.529,5.186-6.741,7.829-1.11,1.317-2.231,2.625-3.388,3.9s-2.337,2.524-3.545,3.748l-2.083-1.645c.974-1.444,1.913-2.91,2.916-4.334s1.979-2.868,3.007-4.276c2.039-2.828,4.129-5.624,6.384-8.313Z"/><path d="M160.237,422.7a41.155,41.155,0,0,1,3.606,3.023c1.156,1.046,2.251,2.143,3.32,3.259s2.108,2.26,3.112,3.431a40.249,40.249,0,0,1,2.857,3.641l-2.663.106c1.971-2.384,4.257-4.549,6.124-7a46.183,46.183,0,0,0,2.621-3.811c.825-1.3,1.569-2.665,2.305-4.03l2.836-5.257-.9,6.161c-.393,2.69-.8,5.376-1.4,8.009-.582,2.639-1.15,5.281-1.816,7.9s-1.483,5.191-2.385,7.743q-1.309,3.838-2.917,7.6l0-.566c.234,1.6.425,3.212.527,4.85l-.384.112c-.791-1.439-1.494-2.9-2.153-4.379l-.06-.134.055-.432q.515-4.054,1.325-8.03c.512-2.658,1.12-5.29,1.857-7.886s1.594-5.16,2.427-7.731c.81-2.577,1.818-5.1,2.839-7.619l1.936.9c-1.025,1.165-2.043,2.334-2.978,3.562a46,46,0,0,0-2.664,3.78c-1.656,2.6-2.891,5.5-4.444,8.176l-1.033,1.781-1.63-1.674a40.415,40.415,0,0,1-3.022-3.5q-1.432-1.815-2.767-3.713c-.89-1.265-1.756-2.55-2.559-3.885a41.6,41.6,0,0,1-2.274-4.121Z"/><path d="M156.659,454.6a10.291,10.291,0,0,1,4.1-.551,11.323,11.323,0,0,1,4.06,1.063A11.676,11.676,0,0,1,170.5,461a21.861,21.861,0,0,0-2.825-2.863,15.107,15.107,0,0,0-3.292-2.124A15.7,15.7,0,0,0,156.659,454.6Z"/><path d="M166.821,413.94a4.55,4.55,0,0,1,1.767-.588,4.14,4.14,0,0,1,1.745.1c.567.189,1.1.578,1.665.716a4.343,4.343,0,0,0,1.748.046,6.733,6.733,0,0,1,1.788-.063,7.978,7.978,0,0,1,1.737.269,7.114,7.114,0,0,1,3.085,1.873l-.061.191a9.452,9.452,0,0,1-3.533.01,10.68,10.68,0,0,1-1.615-.493,8.631,8.631,0,0,1-1.589-.708,3.6,3.6,0,0,0-1.649-.486,11.983,11.983,0,0,0-1.748.3,4.572,4.572,0,0,1-1.68-.2,5.349,5.349,0,0,1-1.667-.766Z"/><path d="M284.021,371.7c.307,2.6.51,5.208.686,7.813s.319,5.21.4,7.815l.128,3.908.026,3.906c.033,2.605,0,5.208-.042,7.812l-.009.521-.3.524c-.985,1.73-1.973,3.459-3,5.164l-.369-2.766c.753.761,1.527,1.5,2.262,2.279l.536.568.092.6a14.229,14.229,0,0,1-.007,4.641,13.487,13.487,0,0,1-.616,2.249,14.4,14.4,0,0,1-.924,2.094,7.141,7.141,0,0,1-1.68,2.009,6.985,6.985,0,0,1-2.273,1.215,8.634,8.634,0,0,1-4.7.042l.7-.063a124.689,124.689,0,0,1-28.967,5.829,74.487,74.487,0,0,1-14.917-.428c-2.48-.334-4.867-.724-7.334-1.2s-4.9-1.062-7.284-1.73l-3.55-1.017-1.758-.516c-.6-.186-1.213-.362-1.81-.573a67.384,67.384,0,0,1-7.017-2.809c-4.531-2.115-8.792-4.532-13.033-6.96-1.059-.609-2.123-1.2-3.17-1.833a24.826,24.826,0,0,1-3.318-2.212,8.616,8.616,0,0,1-2.779-3.686,6.007,6.007,0,0,1-.3-2.546,7.215,7.215,0,0,1,.636-2.248,10.52,10.52,0,0,1,1.055-1.8,16.042,16.042,0,0,1,1.248-1.582,21.059,21.059,0,0,1,2.973-2.437,29.744,29.744,0,0,0,5.088-5.033l.425.263a24.239,24.239,0,0,1-4.169,6.231,25.326,25.326,0,0,0-2.315,2.6,13.731,13.731,0,0,0-.809,1.437,9.995,9.995,0,0,0-.6,1.457,3.928,3.928,0,0,0-.2,1.295,2.5,2.5,0,0,0,.283,1.032,5.687,5.687,0,0,0,1.861,1.852,21.356,21.356,0,0,0,2.942,1.548l3.3,1.573c4.4,2.091,8.759,4.237,13.1,6.168,2.168.977,4.341,1.86,6.544,2.652l3.388,1.166,3.437,1.138c2.284.734,4.546,1.423,6.854,2s4.695,1.1,7.021,1.587a93.014,93.014,0,0,0,14.192,2.008,56.7,56.7,0,0,0,28.078-5.5l.238-.116.461.053a5.766,5.766,0,0,0,3.149-.469,3.538,3.538,0,0,0,1.805-2,13.476,13.476,0,0,0,.478-1.632,9.517,9.517,0,0,0,.244-1.638,10.826,10.826,0,0,0-.253-3.292l.627,1.164c-.8-.709-1.567-1.459-2.351-2.187l-1.289-1.195.919-1.571c1.006-1.718,2.052-3.413,3.1-5.105l-.306,1.044c.115-2.592.237-5.186.427-7.777.156-2.592.362-5.183.556-7.776s.443-5.185.707-7.778c.28-2.592.585-5.186,1-7.779Z"/><path d="M245.83,382.558a25.162,25.162,0,0,1,.971,2.82c.285.926.526,1.843.751,2.756a43.812,43.812,0,0,1,1.113,5.474,31.839,31.839,0,0,0,.678,5.71,15.724,15.724,0,0,0,2.472,5.144c.27.391.565.759.843,1.135.3.357.582.723.865,1.076.582.691,1.114,1.394,1.72,1.991a14.46,14.46,0,0,0,1.874,1.615,19.118,19.118,0,0,0,2.039,1.194,14.6,14.6,0,0,0,4.682,1.471,35.534,35.534,0,0,0,5.612.239l.138.375a12.153,12.153,0,0,1-5.662,2.534,11.519,11.519,0,0,1-6.553-.737,11.876,11.876,0,0,1-5.059-4.3,14.49,14.49,0,0,1-1.56-2.758,20.438,20.438,0,0,1-.932-2.927,34.827,34.827,0,0,0-1.7-5.63c-.745-1.763-1.982-3.456-2.7-5.338a12.5,12.5,0,0,1-.732-2.9,20.863,20.863,0,0,1-.232-2.986,17.649,17.649,0,0,1,.217-3,13.287,13.287,0,0,1,.753-2.954Z"/><path d="M188.884,395.547c3.755.672,7.351,1.677,10.948,2.669q2.688.766,5.348,1.6c1.781.536,3.539,1.133,5.277,1.806,3.474,1.345,6.879,3,10.457,4.072a63.2,63.2,0,0,0,10.974,2.2l5.56.617,5.512.66c3.668.4,7.323.616,10.941.778,1.811.092,3.612.1,5.417.1,1.8-.055,3.6-.135,5.4-.342,1.8-.176,3.592-.494,5.4-.841l1.358-.284,1.347-.342c.9-.226,1.819-.44,2.753-.636l.167.363c-.8.516-1.609,1.014-2.435,1.5l-1.251.714-1.3.627a33.393,33.393,0,0,1-5.446,1.99,41.292,41.292,0,0,1-11.522,1.421,65.193,65.193,0,0,1-11.392-1.31,81.716,81.716,0,0,1-10.981-2.877c-3.588-1.186-7.179-2.252-10.835-3.1s-7.437-1.267-11.112-2.131a49.764,49.764,0,0,1-5.411-1.616q-2.664-.936-5.267-2.04a66.224,66.224,0,0,1-10.058-5.235Z"/><path d="M186.134,250.493c-.418,2.067-.911,4.068-1.417,6.049l-1.47,5.92-1.44,5.873c-.45,1.961-.931,3.909-1.49,5.851-1.1,3.877-2.448,7.8-2.906,11.864a43.313,43.313,0,0,0,.376,12.2c.274,2.017.746,4.009,1.083,6,.222.99.381,1.983.567,2.972s.409,1.972.611,2.956c.854,3.93,1.919,7.79,2.982,11.65s2.189,7.716,3.422,11.575c1.215,3.871,2.612,7.694,3.913,11.675l-.433.25a54.812,54.812,0,0,1-7.1-10.376,68.4,68.4,0,0,1-4.925-11.617,69.415,69.415,0,0,1-2.52-12.376c-.275-2.086-.44-4.185-.508-6.286-.051-1.048,0-2.1.028-3.154s.053-2.1.146-3.143c.236-4.184.626-8.3.75-12.445.16-4.132-.078-8.37.423-12.557a39.108,39.108,0,0,1,1.278-6.164,58.042,58.042,0,0,1,2.042-5.954,46.4,46.4,0,0,1,6.134-10.971Z"/><path d="M176.388,358.852c-1.211,1.176-2.481,2.26-3.78,3.3s-2.623,2.042-3.97,3.007-2.715,1.9-4.1,2.807-2.853,1.686-4.333,2.448l.463-.7c-.61,2.168-1.239,4.332-1.68,6.528a61.435,61.435,0,0,0-.925,6.656c-.2,2.238-.31,4.489-.546,6.719-.251,2.229-.547,4.45-.844,6.67l-.149-.954c.954,1.7,1.889,3.4,2.755,5.148s1.685,3.51,2.486,5.287a106.45,106.45,0,0,1,4.283,10.932l-.266.138a106.558,106.558,0,0,1-6.461-9.8c-.99-1.679-1.971-3.363-2.886-5.08s-1.781-3.462-2.617-5.22l-.241-.507.092-.447c.447-2.195.9-4.391,1.388-6.578.509-2.185,1.14-4.349,1.688-6.527a61.681,61.681,0,0,0,1.307-6.591c.3-2.219.418-4.471.553-6.719l.021-.35.441-.354c1.3-1.04,2.619-2.047,4-2.957,1.393-.894,2.8-1.764,4.235-2.6s2.884-1.639,4.365-2.4,2.988-1.479,4.555-2.106Z"/><path d="M181.527,383.053a9.578,9.578,0,0,1-.712,2.153,7.814,7.814,0,0,1-1.167,1.909,12.578,12.578,0,0,1-2.962,2.615,6.732,6.732,0,0,0-1.28,1,1.786,1.786,0,0,0-.445.7,8.154,8.154,0,0,1-.448,1.132,40.365,40.365,0,0,1-2.384,3.8A18.8,18.8,0,0,1,170.8,398.1a12.534,12.534,0,0,1-1.613,1.486c-.1.087-.176.185-.036.076a1.186,1.186,0,0,0,.229-.289c.063-.116.07-.144.1-.185.076-.152.026-.421.074-.347.1.1.543.622.988,1.158a10.064,10.064,0,0,1,2.08,4.227,7.359,7.359,0,0,1-.5,4.606h-.4a21.63,21.63,0,0,0-2.026-3.414,26.492,26.492,0,0,0-2.381-2.622,7.918,7.918,0,0,1-1.51-2.089,3.5,3.5,0,0,1-.246-2.331,2.8,2.8,0,0,1,.244-.675,2.734,2.734,0,0,1,.517-.711,3.268,3.268,0,0,1,.774-.551c.649-.328,1.13-.59,1.743-.878.6-.308,1.258-.568,1.858-.85a6.123,6.123,0,0,0,1.634-1.061,3.628,3.628,0,0,0,.989-1.559,2.071,2.071,0,0,0,.021-.86,4.827,4.827,0,0,1,.01-1.291,5.662,5.662,0,0,1,.887-2.467,6.086,6.086,0,0,1,1.7-1.611c.552-.383,1.074-.708,1.62-1.051a19.478,19.478,0,0,1,3.655-2Z"/><path d="M187.679,385.52a2.948,2.948,0,0,1,.368,1.171,2.779,2.779,0,0,1-.062,1.049,2.281,2.281,0,0,1-1.117,1.588c-.653.305-1.543.229-2.092.46a2.152,2.152,0,0,0-.727.5,1.471,1.471,0,0,0-.413.741.186.186,0,0,0,.13.234c.1.032.223-.04.3-.069.185-.064.2-.341.277-.309a2.366,2.366,0,0,1,.927,1.094,4.134,4.134,0,0,1-.478,4.1l-.391.086a9.584,9.584,0,0,1-1.752-1.07,5.236,5.236,0,0,1-1.094-1,5.4,5.4,0,0,1-.715-1.786,2.744,2.744,0,0,1,.12-1.927,2.082,2.082,0,0,1,.663-.807,1.812,1.812,0,0,1,.739-.324c.425-.084.731-.043,1.005-.121a1.232,1.232,0,0,0,.669-.392c.359-.4.3-1.213.414-1.706s.507-.725.939-1.011a4.21,4.21,0,0,1,.8-.366,5.443,5.443,0,0,1,1.128-.3Z"/><path d="M233.33,201.745c-2.544,2.165-5.049,4.157-7.407,6.3-2.373,2.12-4.574,4.352-6.824,6.572s-4.677,4.434-6.306,7.231a21.727,21.727,0,0,0-2.113,4.341c-.277.757-.538,1.52-.775,2.287s-.339,1.579-.512,2.361c-.142.791-.327,1.567-.433,2.359-.076.8-.17,1.591-.275,2.376-.266,1.56-.3,3.152-.469,4.715-.088.782-.039,1.578-.071,2.364,0,.788-.073,1.571-.023,2.359.086,1.575.049,3.145.178,4.72a131.692,131.692,0,0,0,2.351,19.112l-.37.154a36.564,36.564,0,0,1-4.238-9.087,43.523,43.523,0,0,1-2-9.894,42.934,42.934,0,0,1,.419-10.133,36.706,36.706,0,0,1,1.084-4.959c.245-.81.5-1.616.776-2.411.292-.792.661-1.558.987-2.332.341-.768.646-1.545,1.011-2.3.394-.739.764-1.484,1.118-2.234.647-1.53,1.523-2.936,2.235-4.434a55.761,55.761,0,0,1,4.918-8.793c.5-.687,1.062-1.32,1.62-1.957.592-.6,1.18-1.216,1.821-1.769a35.447,35.447,0,0,1,3.992-3.117,30.334,30.334,0,0,1,9.128-4.19Z"/><path d="M239.521,207.013c-1.406,4.675-2.873,9.223-4.078,13.839-1.241,4.6-2.224,9.237-3.244,13.882-.548,2.317-1.03,4.656-1.489,7.014-.444,2.381-.812,4.768-1.041,7.161a42.52,42.52,0,0,0,1.009,14.233,48.837,48.837,0,0,0,2.226,6.675c.235.534.468,1.066.686,1.6l.785,1.555a27.934,27.934,0,0,0,1.643,3.055,52.251,52.251,0,0,0,8.673,10.767c6.641,6.511,14.752,11.564,23.44,15.867l-.126.379a53.657,53.657,0,0,1-13.926-4.753,52.458,52.458,0,0,1-12.333-8.4,43.016,43.016,0,0,1-9.041-12.039,27.439,27.439,0,0,1-1.565-3.438l-.708-1.747c-.2-.6-.381-1.2-.562-1.8a41.385,41.385,0,0,1-1.351-7.359,114.255,114.255,0,0,1-.138-14.677c.06-2.432.125-4.86.132-7.29a71.918,71.918,0,0,1,.395-7.36,49.245,49.245,0,0,1,1.37-7.245,66.034,66.034,0,0,1,2.213-7.031,59.511,59.511,0,0,1,6.67-13.068Z"/><path d="M186.764,250.818a20.124,20.124,0,0,1,2.379,1.639,13.921,13.921,0,0,1,1.933,1.724,8.079,8.079,0,0,0,1.869,2.021,4.228,4.228,0,0,0,2.658.543c.929-.1,1.8-.247,2.643-.322.85-.121,1.666-.329,2.493-.454,1.668-.23,3.319-.544,5.4-.865l.177.242a7.716,7.716,0,0,1-4.9,3.756,8.86,8.86,0,0,1-3.151.156,7.516,7.516,0,0,1-3-.908,19.464,19.464,0,0,0-2.718-1.27,23.242,23.242,0,0,1-2.987-.915,5.8,5.8,0,0,1-2.181-2.186,5.613,5.613,0,0,1-.869-3.017Z"/><path d="M209.658,266.252a5.848,5.848,0,0,1,2.075-1.941,5.671,5.671,0,0,1,2.581-.836c.93-.026,1.893.309,2.77.283a8.305,8.305,0,0,0,2.623-.526,8.3,8.3,0,0,1,2.718-.51,9.807,9.807,0,0,1,2.737.183,8.855,8.855,0,0,1,4.727,2.86l-.11.279a15.662,15.662,0,0,1-2.72.164,22.185,22.185,0,0,1-2.482-.153c-.8-.106-1.586-.32-2.388-.507-.4-.089-.805-.165-1.212-.283s-.818-.27-1.238-.391a4.6,4.6,0,0,0-2.534-.156,11.465,11.465,0,0,0-2.32,1.193,7.884,7.884,0,0,1-2.384.606,9.92,9.92,0,0,1-2.716.007Z"/><path d="M209.682,213.983a24.136,24.136,0,0,1-1.484,2.941c-.523.947-1.1,1.839-1.68,2.724a38.3,38.3,0,0,1-3.826,5.015,55.1,55.1,0,0,0-4.5,4.57,21.509,21.509,0,0,0-3.016,5.6c-.748,2.012-1.522,3.984-2.4,5.89-.861,1.918-1.634,3.868-2.575,5.738s-1.938,3.719-3.009,5.555a58.292,58.292,0,0,1-3.5,5.469l-.378-.129a30.334,30.334,0,0,1,.95-6.513,40.146,40.146,0,0,1,2.056-6.178,42.674,42.674,0,0,1,3.109-5.709q.841-1.392,1.8-2.711c.649-.873,1.361-1.706,2.066-2.536a34.5,34.5,0,0,0,3.824-5.2c1.09-1.843,1.815-3.962,2.9-5.852a17.016,17.016,0,0,1,1.89-2.634,30.431,30.431,0,0,1,2.213-2.374,25.507,25.507,0,0,1,2.473-2.133,18.218,18.218,0,0,1,2.791-1.809Z"/><path d="M260.7,200.972a34.5,34.5,0,0,0-20.432,7.275l-1.205.929.006-1.569.01-3.315,1.1.851-7.89,2.624-3.08,1.024,1.862-2.741,3.564-5.248,1.026,2.069c-3.2.011-6.405.082-9.6.011l-13.158-.294,12.866-2.747,8.194-1.749.02,2.936-11.033-2.251,1.794-1.607.446,4.856.071.775-.593.5-6.661,5.667c-1.095.963-2.271,1.831-3.4,2.75l-3.426,2.723-.177.14-.211.083-2.289.893-11.838,4.62,10.445-7.255a14.054,14.054,0,0,0,4.454-4.6,6.634,6.634,0,0,0,.854-2.8,14.254,14.254,0,0,0-.2-3.213,21.105,21.105,0,0,0-2.084-6.3,11.049,11.049,0,0,1-.874-1.841,8.229,8.229,0,0,1-.448-2.141,8.724,8.724,0,0,1,.795-4.207l2.153,1.892a29.354,29.354,0,0,1-11.161,4,27.908,27.908,0,0,1-11.84-.9,30.057,30.057,0,0,1-10.4-5.632,32.794,32.794,0,0,1-7.75-8.891,29.683,29.683,0,0,1-3.06-23,33.23,33.23,0,0,1,13.566-18.84l-.65,1.033a20.338,20.338,0,0,1,2.229-6.829,17.753,17.753,0,0,1,4.677-5.53,22.5,22.5,0,0,1,26.787-.008,24.685,24.685,0,0,1,8.118,11.49l-2.92.564a21.4,21.4,0,0,0-1.655-7.69,7.243,7.243,0,0,0-2.148-2.749,6.245,6.245,0,0,0-.743-.48l-.442-.245-.259-.146-.166-.1a2.171,2.171,0,0,1-.316-.236l-.076-.072a1.785,1.785,0,0,1-.288-.4,1.577,1.577,0,0,1-.136-.956,1.415,1.415,0,0,1,.29-.652,1.59,1.59,0,0,1,.48-.413,1.574,1.574,0,0,1,.239-.109l.054-.017.111-.029a1.983,1.983,0,0,1,.226-.04l.105-.008.179,0c.167,0,.3.017.418.031.231.03.441.064.639.1.4.08.777.176,1.15.281a18.976,18.976,0,0,1,7.976,4.5,15.359,15.359,0,0,1,4.254,8.227l-2.968.4a65.576,65.576,0,0,0-4.147-18.116l-2.259-5.862,4.661,4.207a24.785,24.785,0,0,1,4.394,5.268,20.136,20.136,0,0,1,2.626,6.335,23.383,23.383,0,0,1-.874,13.412l-1.886-.95a22.464,22.464,0,0,1,6.273-5.833,19.832,19.832,0,0,1,8-2.831,21.484,21.484,0,0,1,8.35.606,26.5,26.5,0,0,1,7.559,3.361,26.236,26.236,0,0,0-7.69-2.786,21.627,21.627,0,0,0-8.042-.062,18.429,18.429,0,0,0-7.278,3.076,20.566,20.566,0,0,0-5.416,5.68l-4.136,6.406,2.25-7.356a20.872,20.872,0,0,0,.073-11.988,24.733,24.733,0,0,0-2.4-5.483,19.984,19.984,0,0,0-3.8-4.623l2.4-1.655a68.582,68.582,0,0,1,4.337,18.946l-2.969.405a12.351,12.351,0,0,0-3.409-6.649,16.047,16.047,0,0,0-6.693-3.753c-.309-.087-.619-.165-.914-.224-.149-.031-.289-.052-.409-.068l-.112-.011h.046l.039,0a1.107,1.107,0,0,0,.161-.028l.078-.023.038-.014a1.543,1.543,0,0,0,.226-.1,1.42,1.42,0,0,0,.452-.395,1.491,1.491,0,0,0,.275-.627,1.475,1.475,0,0,0-.133-.924,1.245,1.245,0,0,0-.109-.185,1.21,1.21,0,0,0-.138-.164l-.05-.05c-.125-.108-.1-.077-.1-.082l.062.037.2.114.486.271a9.351,9.351,0,0,1,1.04.673,10.232,10.232,0,0,1,3.064,3.856,24.233,24.233,0,0,1,1.947,8.818l.785,11.317-3.7-10.753a21.715,21.715,0,0,0-7.1-10.06,19.5,19.5,0,0,0-23.105-.02,15.811,15.811,0,0,0-5.795,10.431l-.092.659-.558.374a30.29,30.29,0,0,0-7.715,7.453,30.621,30.621,0,0,0-4.626,9.681,26.683,26.683,0,0,0,2.749,20.69,29.8,29.8,0,0,0,7.052,8.082,27.036,27.036,0,0,0,9.374,5.092,24.924,24.924,0,0,0,10.565.8,26.383,26.383,0,0,0,10-3.59l4.158-2.541-2,4.435a5.722,5.722,0,0,0-.54,2.766,5.249,5.249,0,0,0,.286,1.358,8.158,8.158,0,0,0,.672,1.389,23.971,23.971,0,0,1,2.415,7.256,17.143,17.143,0,0,1,.236,3.93,9.673,9.673,0,0,1-1.207,4.007,16.981,16.981,0,0,1-5.4,5.648l-1.393-2.635,2.288-.893-.387.222,3.4-2.7c1.124-.914,2.292-1.774,3.381-2.733l6.627-5.638-.521,1.28-.447-4.855-.185-2.012,1.979.4,11.032,2.251,6.885,1.405-6.865,1.531-8.178,1.823-.292-3.04c3.2.077,6.4.3,9.595.456l2.527.126-1.5,1.944-3.877,5.022-1.219-1.717,8.036-2.139,1.178-.314-.075,1.165-.212,3.308-1.2-.639a36.18,36.18,0,0,1,10.211-4.822A33.758,33.758,0,0,1,260.7,200.972Z"/><path d="M229.134,142.067a12.644,12.644,0,0,0-3.5,2.023,9.322,9.322,0,0,0-2.33,2.945,8.055,8.055,0,0,0-.655,1.722,9.593,9.593,0,0,0-.353,1.825,18.307,18.307,0,0,0,.081,3.737l.126,1-.716.377a26.894,26.894,0,0,0-5.245,3.379,17.556,17.556,0,0,0-3.942,4.966,17.85,17.85,0,0,0-2.019,5.927,21.683,21.683,0,0,0,.032,6.037,25.366,25.366,0,0,0,1.675,5.84c.349.957.817,1.867,1.231,2.8.489.9.936,1.827,1.485,2.7a49.577,49.577,0,0,0,7.937,9.856l-.17.247a25.568,25.568,0,0,1-5.584-3.584,26.683,26.683,0,0,1-4.61-4.9,23.892,23.892,0,0,1-4.77-12.661,16.709,16.709,0,0,1,.827-6.837,17.18,17.18,0,0,1,1.4-3.093c.533-.978,1.107-1.922,1.706-2.845s1.219-1.829,1.869-2.715c.633-.9,1.314-1.765,2.007-2.636a23.094,23.094,0,0,1,4.882-4.668l-.589,1.38a11,11,0,0,1-.239-4.65,10.484,10.484,0,0,1,1.647-4.391,9.2,9.2,0,0,1,3.451-3.088,8.866,8.866,0,0,1,4.311-1Z"/><path d="M243.663,198.07a19.708,19.708,0,0,1-7.967.243,21.252,21.252,0,0,1-3.921-1,16.9,16.9,0,0,1-3.651-1.759,34.15,34.15,0,0,1-5.984-5.315,45.766,45.766,0,0,1-5.11-6.072,22.357,22.357,0,0,1-3.35-7.343,21.428,21.428,0,0,1-.633-8.182,20.524,20.524,0,0,1,7.839-13.8l.221.2a30.862,30.862,0,0,0-4.875,13.936,27.494,27.494,0,0,0,.219,7.241,32.771,32.771,0,0,0,.831,3.6,31.93,31.93,0,0,0,1.192,3.561,16.3,16.3,0,0,0,4.337,6.157,24.028,24.028,0,0,0,6.5,3.813,56.59,56.59,0,0,0,6.9,2.7,66.247,66.247,0,0,0,7.435,1.723Z"/><path d="M259.845,186.647a11.489,11.489,0,0,1-4.124-3.426c-.887-1.2-2.731-3.706-1.941-6.6a5.389,5.389,0,0,1,2.505-3.428,5.531,5.531,0,0,1,4.608-.293l-.357.934a4.593,4.593,0,0,0-3.756.228,4.374,4.374,0,0,0-2.028,2.8c-.67,2.458.981,4.7,1.774,5.775a10.491,10.491,0,0,0,3.765,3.124Z"/><path d="M256.478,186.438a47.288,47.288,0,0,1-23.016-12c-1.258-1.214-12.251-12.131-11.013-21.518a22.126,22.126,0,0,1,3.385-8.964,18.949,18.949,0,0,1,2.254-2.649l2.1,2.147a15.873,15.873,0,0,0-1.9,2.226,19.384,19.384,0,0,0-2.866,7.632c-.849,6.44,5.964,14.953,10.123,18.968a44.531,44.531,0,0,0,21.563,11.222Z"/><path d="M213.391,201.575q-7.207,3.345-14.493,6.557c-2.431,1.063-4.84,2.187-7.319,3.13l-7.394,2.952-.833.333-.737-.67-2.512-2.285,2.643-.643-1.144,3.6-.394-1.746,4.514,4.4,4.483,4.43-2.689,2.832c-3.637-3.129-7.31-6.219-10.916-9.383l.276.207-2.018-1.251,3.073-2.815,5.884,11.272-3.976,2.1c-2.376-4.432-4.823-8.826-7.136-13.292l3.956-1.649c.956,3.377,1.915,6.752,2.822,10.142l2.733,10.168-3.161,1.018-3.675-11.766c-1.237-3.918-2.434-7.849-3.7-11.755l.446.529-3.777-2.4c-.625-.405-1.263-.783-1.877-1.213-.629-.439-1.206-.915-1.79-1.354l-7.044-5.314a19.52,19.52,0,0,1-1.8-1.461,21.99,21.99,0,0,1-1.443-1.785,1.944,1.944,0,0,0-2.9-.679,10.1,10.1,0,0,1-1.089.489,3.875,3.875,0,0,1-.669.175c-.236.018-.475.023-.713.026a5.063,5.063,0,0,1-2.441-.884,14.676,14.676,0,0,1-3.331-3.278,32.966,32.966,0,0,1-2.476-3.784,36.284,36.284,0,0,0-2.41-3.573,70.925,70.925,0,0,0-5.713-6.545A143.611,143.611,0,0,0,119.577,164.8l1.171.385c-1.178.112-2.36.229-3.5.379a15.6,15.6,0,0,0-1.56.265c-.024.009-.087.025-.066.023s-.021.009.061-.021a1.289,1.289,0,0,0,.409-.269l.087-.088.122-.147a1.7,1.7,0,0,0,.326-.779,1.836,1.836,0,0,0-.073-.846,1.722,1.722,0,0,0-.53-.765l-.156-.117-.073-.048a1.2,1.2,0,0,0-.159-.083,1.273,1.273,0,0,0-.166-.061.181.181,0,0,1-.044-.015.434.434,0,0,0-.067-.018l.053,0c.2.016.577.037.932.083a5.246,5.246,0,0,1,2.551.928,3.739,3.739,0,0,1,1.135,1.409,5.953,5.953,0,0,1,.267.757c.062.244.088.467.125.7a8.446,8.446,0,0,1-.96,4.573,7.349,7.349,0,0,1-3.466,3.465,5.544,5.544,0,0,1-2.813.379,6.975,6.975,0,0,1-2.429-.763,10.36,10.36,0,0,1-5.106-7.2l3.989.914-8.365,11.55.1-2.687,2.551,4.334c.414.729.873,1.434,1.249,2.183l1.148,2.241.975,1.9-1.853,1.241-4.824,3.23-.361.241-.48.114a16.194,16.194,0,0,0-3.853,1.416,14.074,14.074,0,0,0-1.7,1.058,14.616,14.616,0,0,0-1.523,1.285l.427-3.272c1.71,2.716,3.424,5.429,5.254,8.064s3.706,5.237,5.67,7.772,3.946,5.058,6.029,7.5,4.292,4.769,6.431,7.163l1.346,1.506-1.025,1.6-1.282,2-.756-3.441a41.51,41.51,0,0,1,8.165,7.137c1.275,1.488,2.195,2.869,3.213,4.267l2.962,4.183,2.93,4.166a24.367,24.367,0,0,0,2.94,3.625,10,10,0,0,0,.821.663,5.012,5.012,0,0,0,.82.462c.689.326,1.473.645,2.246.957,1.555.632,3.144,1.247,4.73,1.855,3.174,1.225,6.36,2.391,9.563,3.553,1.612.609,3.189,1.1,4.912,1.923a8.433,8.433,0,0,1,2.37,1.77c.633.656,1.187,1.3,1.752,1.919a35.719,35.719,0,0,0,3.543,3.5,26.185,26.185,0,0,0,4,2.9,13.346,13.346,0,0,0,9.606.643l.154.476a16.428,16.428,0,0,1-5.106,1.1,12.387,12.387,0,0,1-5.265-.934,27.506,27.506,0,0,1-4.521-2.742,37.862,37.862,0,0,1-4.019-3.38c-.626-.6-1.228-1.213-1.818-1.746a5.849,5.849,0,0,0-1.785-1.17c-1.4-.561-3.114-1.006-4.729-1.494-3.281-.961-6.555-1.988-9.813-3.04-1.63-.528-3.255-1.057-4.894-1.624-.822-.293-1.633-.58-2.5-.946a8.975,8.975,0,0,1-1.434-.741,13.9,13.9,0,0,1-1.209-.892,27.238,27.238,0,0,1-3.706-4.13l-3.134-4.077-3.087-4.073c-1.025-1.331-2.064-2.751-3.051-3.82a37.721,37.721,0,0,0-7.385-6.083l-2.073-1.312,1.316-2.129,1.249-2.019.321,3.1c-2.243-2.424-4.562-4.782-6.743-7.266s-4.3-5.024-6.32-7.64-3.957-5.3-5.825-8.025-3.671-5.5-5.358-8.34l-1.112-1.872,1.539-1.4a19.975,19.975,0,0,1,2.153-1.743A19.2,19.2,0,0,1,93.57,189a21.3,21.3,0,0,1,5.1-1.765l-.84.354,4.888-3.132-.878,3.145-1.04-2.134c-.34-.714-.762-1.385-1.139-2.081l-2.324-4.144-.823-1.467.923-1.22,8.6-11.373,3.158-4.174.831,5.089a6.077,6.077,0,0,0,2.715,4.271,2.149,2.149,0,0,0,1.665.31,2.652,2.652,0,0,0,.773-.52,5.234,5.234,0,0,0,.745-.988,4.773,4.773,0,0,0,.661-2.318l-.017-.181a.284.284,0,0,1-.019-.091c-.019,0,.056.023.038.013a1.769,1.769,0,0,0-.788-.272c-.236-.045-.455-.068-.85-.121l-.169-.026-.287-.063-.1-.027c-.073-.024-.146-.052-.218-.083s-.141-.067-.209-.1l-.1-.06a1.321,1.321,0,0,1-.178-.132,1.949,1.949,0,0,1-.559-.813,1.775,1.775,0,0,1-.086-.9,1.927,1.927,0,0,1,.349-.831,1.072,1.072,0,0,1,.09-.112l.051-.054.109-.1a1.938,1.938,0,0,1,.6-.379,2.4,2.4,0,0,1,.273-.1c.162-.05.246-.064.367-.093a18.4,18.4,0,0,1,1.989-.239c1.236-.095,2.441-.149,3.648-.2l.71-.029.463.414a159.629,159.629,0,0,1,12.7,12.5,73.107,73.107,0,0,1,5.572,7.018q1.271,1.858,2.378,3.837a31.081,31.081,0,0,0,2.256,3.66c1.636,2.159,3.888,4.741,6.2,3.094a5.488,5.488,0,0,1,1.2-.444,3.174,3.174,0,0,1,2.727.66,5.978,5.978,0,0,1,.857.936c.455.6.883,1.2,1.309,1.662a18.6,18.6,0,0,0,1.644,1.292l7.114,5.234c.593.443,1.179.871,1.767,1.258.606.393,1.249.743,1.871,1.116l3.756,2.205.321.189.125.342c1.409,3.858,2.891,7.691,4.334,11.538l4.362,11.528-3.161,1.017-3.3-10c-1.1-3.332-2.152-6.68-3.207-10.026l-5.988-19.013,9.945,17.365c2.5,4.365,4.865,8.8,7.3,13.2l-3.976,2.1L174.086,213.2l-3.56-7.059,6.634,4.244,2,1.28.155.1.121.108c3.587,3.186,7.109,6.447,10.665,9.668l-2.688,2.831-4.337-4.574-4.3-4.605-.745-.8.351-.949,1.311-3.544.889-2.4,1.755,1.759,2.4,2.4-1.569-.337,7.524-2.472c2.519-.8,4.993-1.721,7.489-2.587q7.469-2.652,15.02-5.149Z"/><path d="M105.349,186.85c3.169,2.99,6.217,6.085,9.219,9.218s5.944,6.32,8.851,9.536c1.467,1.6,2.879,3.239,4.322,4.857s2.861,3.255,4.257,4.912c2.8,3.306,5.493,6.709,8.126,10.16l-.229-.209a68.763,68.763,0,0,0,7.22,5.123,57.24,57.24,0,0,0,7.922,4.019,58.525,58.525,0,0,0,8.445,2.773,65.608,65.608,0,0,0,8.74,1.507l-.942,1.732-7.885-8.054c-2.616-2.695-5.169-5.447-7.719-8.2-5.1-5.509-10.227-10.988-15.2-16.613-4.911-5.675-9.878-11.3-14.66-17.095-4.813-5.765-9.526-11.623-14.073-17.634l.3-.269c5.521,5.126,10.875,10.406,16.13,15.778s10.434,10.812,15.494,16.36c5.029,5.576,9.9,11.3,14.795,16.988,2.448,2.848,4.9,5.7,7.277,8.6l7.11,8.747,1.838,2.26-2.78-.527a90.1,90.1,0,0,1-8.8-2.223c-2.888-.88-5.737-1.867-8.533-2.994s-5.553-2.355-8.262-3.7a86.735,86.735,0,0,1-7.941-4.451l-.068-.042-.162-.167c-3.022-3.116-5.989-6.281-8.842-9.543q-2.148-2.441-4.226-4.939c-1.386-1.667-2.8-3.307-4.163-5q-4.123-5.028-8.117-10.167c-2.654-3.434-5.262-6.906-7.748-10.485Z"/><path d="M144.436,203.056a20.934,20.934,0,0,0,3.628-5.5,4.934,4.934,0,0,1-3.628,5.5Z"/><path d="M116.807,224.154c1.607.326,3.128.668,4.651.912a38.386,38.386,0,0,0,4.555.451,16.635,16.635,0,0,0,8.878-1.586,8.819,8.819,0,0,1-3.993,2.924,12.075,12.075,0,0,1-4.982.659A15.186,15.186,0,0,1,116.807,224.154Z"/><path d="M94.572,189.931a5.8,5.8,0,0,0,1.838-1.284c.215-.272.307-.535.2-.742a1.592,1.592,0,0,0-.66-.629,31.815,31.815,0,0,0-4.33-1.636c-3-1.135-5.8-2.6-8.678-3.6-.7-.235-1.494-.478-2.257-.759s-1.519-.586-2.253-.933a40.25,40.25,0,0,1-4.28-2.3,54.327,54.327,0,0,1-7.691-5.823l-.552-.487.142-.761q.365-1.958.772-3.909l1.279,1.605a5.207,5.207,0,0,1-2.882-.886,4.173,4.173,0,0,1-1.149-1.247,4.522,4.522,0,0,1-.512-1.512,14.462,14.462,0,0,1-.09-2.5c.019-.76.021-1.484,0-2.206a20.581,20.581,0,0,0-1.93-8.372,15.676,15.676,0,0,0-1.057-1.88c-.389-.585-.9-1.233-1.288-1.949a16.641,16.641,0,0,1-1-2.166,17.632,17.632,0,0,1-.628-2.26,12.1,12.1,0,0,0-1.959-3.859,5.275,5.275,0,0,1-1.2-2.174,3.783,3.783,0,0,1,.585-2.485,7.249,7.249,0,0,1,1.642-1.8,6.582,6.582,0,0,1,2.184-1.061,5.98,5.98,0,0,0,1.943-.794,2.844,2.844,0,0,0,.65-.716,5.087,5.087,0,0,1,.738-1.007,2.644,2.644,0,0,1,1.228-.676,4.973,4.973,0,0,1,1.275-.1,9.789,9.789,0,0,1,2.373.357,7.048,7.048,0,0,0,2.068.215c.343-.019.673-.073,1.069-.133a3.411,3.411,0,0,1,.723-.04,1.7,1.7,0,0,1,.9.348,2.357,2.357,0,0,1,.836,1.406,4.6,4.6,0,0,1,.072,1.373,5.528,5.528,0,0,1-.837,2.521,9.893,9.893,0,0,1-3.877,3.119,20.941,20.941,0,0,1-9.193,2.485l-.176-2.5a12.926,12.926,0,0,1,3.965.013,4.837,4.837,0,0,1,2.248.951,2.364,2.364,0,0,1,.9,1.819,2.3,2.3,0,0,1-.3,1.056,4.465,4.465,0,0,1-.358.544,14.033,14.033,0,0,0-.985,1.339,7,7,0,0,0-.638,1.335,8.906,8.906,0,0,0-.468,3.018l-2.932-.145a19.276,19.276,0,0,1,1.141-5.452,8.406,8.406,0,0,1,1.656-2.668,5.6,5.6,0,0,1,1.4-1.072,3.945,3.945,0,0,1,.956-.381c.312-.076.542-.113.773-.149l5.083-.714,2.559-.4c.923-.123,1.74-.193,2.609-.272s1.731-.15,2.637-.188a13.2,13.2,0,0,1,2.909.138,6.232,6.232,0,0,1,1.609.516,6.358,6.358,0,0,1,1.42.931,7.778,7.778,0,0,1,1.023,1.159,3.433,3.433,0,0,0,.623.648,6.544,6.544,0,0,0,1.841.926c.7.242,1.441.355,2.423.606a4.179,4.179,0,0,1,1.7.848,3.19,3.19,0,0,1,.7.895,5.31,5.31,0,0,1,.328.816,6,6,0,0,1,.254,1.607,4.389,4.389,0,0,1-.042.849l-.166.82-.115.573-.58.255a14.323,14.323,0,0,1-7.616,1.209c-1.3-.173-2.455-.52-3.577-.734a19.231,19.231,0,0,0-3.41-.364,11.742,11.742,0,0,0-3.366.243,10.269,10.269,0,0,0-3.077,1.405A13.742,13.742,0,0,1,64.8,152.3l-.03-.3a13.847,13.847,0,0,0,6.383-2.728,10.922,10.922,0,0,1,3.27-1.862,8.985,8.985,0,0,1,1.893-.421c.64-.071,1.231-.1,1.842-.135a20.86,20.86,0,0,1,3.736.13c1.24.149,2.409.4,3.493.463a12.289,12.289,0,0,0,6.319-1.371l-.7.827c.016-.149.036-.3.061-.443a2.016,2.016,0,0,0,0-.431,3.865,3.865,0,0,0-.186-.914,2.561,2.561,0,0,0-.165-.368.458.458,0,0,0-.1-.1,1.856,1.856,0,0,0-.606-.218c-.679-.152-1.646-.274-2.576-.55a9.372,9.372,0,0,1-2.766-1.289,6.033,6.033,0,0,1-1.2-1.148,4.954,4.954,0,0,0-.675-.76,3.406,3.406,0,0,0-.734-.449,3.133,3.133,0,0,0-.836-.242,20.84,20.84,0,0,0-4.69.185l-2.5.278-2.514.389-5.087.7c-1.009,0-1.831.951-2.424,2.291a16.468,16.468,0,0,0-1.044,4.544l-2.932-.145a11.808,11.808,0,0,1,.732-3.982,9.8,9.8,0,0,1,.946-1.856,16.29,16.29,0,0,1,1.158-1.511c.174-.176.159-.347.107.021a.534.534,0,0,0,.066.3c.027.038.028.029.005.008a2.636,2.636,0,0,0-1.011-.412,10.433,10.433,0,0,0-3.142-.129l-.177-2.5a19.959,19.959,0,0,0,8.349-1.815,8.223,8.223,0,0,0,3.336-2.267,3.716,3.716,0,0,0,.688-1.718,1.8,1.8,0,0,0-.223-1.439c.053-.181-.941.008-1.747.01a8.3,8.3,0,0,1-2.428-.387,7.655,7.655,0,0,0-2.1-.43,2.171,2.171,0,0,0-1.745.423,4.355,4.355,0,0,0-.62.812,3.883,3.883,0,0,1-.9.933,6.78,6.78,0,0,1-2.245.918,5.334,5.334,0,0,0-3.308,2.438,2.857,2.857,0,0,0-.433,1.859,4.463,4.463,0,0,0,1.049,1.728,13.147,13.147,0,0,1,2.307,4.127,14.754,14.754,0,0,0,.727,2.083,15.251,15.251,0,0,0,1.045,1.9c.38.594.853,1.113,1.353,1.757a17.465,17.465,0,0,1,1.319,2,22.653,22.653,0,0,1,2.756,9.084c.156,1.563.022,3.243.231,4.386a1.5,1.5,0,0,0,.615,1.035,2.573,2.573,0,0,0,1.422.385l1.581.031-.3,1.574q-.377,1.956-.791,3.905l-.41-1.247a59.334,59.334,0,0,0,7.219,5.726,37.812,37.812,0,0,0,3.949,2.317c.678.347,1.369.666,2.064.975s1.393.558,2.173.871c3.021,1.233,5.7,2.916,8.49,4.253a31.378,31.378,0,0,1,4.294,2.165,2.3,2.3,0,0,1,.875,1.11,1.209,1.209,0,0,1-.037.81,1.738,1.738,0,0,1-.415.587,6.193,6.193,0,0,1-2.176,1.139Z"/><path d="M69.1,167.607l-1.924-.547,2.332-8.19,5.58-2.06.276.053a40.662,40.662,0,0,0,7.408.763,17.565,17.565,0,0,0,4.432-.4,21.877,21.877,0,0,1,5.041-.5h.406c1.3,0,1.9-.021,2.435-.449,1.135-.908,1.146-3.039.877-4.249A6.788,6.788,0,0,0,92.1,147.7l.805-1.831c.692.3,4.184,2.01,5.01,5.732.434,1.95.281,4.756-1.579,6.244a5.353,5.353,0,0,1-3.682.888h-.4a20.192,20.192,0,0,0-4.649.454,19.354,19.354,0,0,1-4.856.439,42.808,42.808,0,0,1-7.5-.746l-4.1,1.514Z"/><path d="M78.543,174.865a3.881,3.881,0,0,1-.55-2.86c.6-2.418,4.1-3.862,8.328-3.434l.188.02.168.086a6.628,6.628,0,0,0,3.215.782,7.9,7.9,0,0,0,4.862-2.018,16.041,16.041,0,0,0,2.884-3.379,9.018,9.018,0,0,0,1.44-2.459,4.12,4.12,0,0,0-.747-2.906l-3.13-.16.1-2,4.089.21.281.378a6.325,6.325,0,0,1,1.372,4.83c-.1.553-.391,1.377-1.8,3.29a17.766,17.766,0,0,1-3.256,3.765,9.836,9.836,0,0,1-6.078,2.447,8.857,8.857,0,0,1-3.976-.915c-3.348-.3-5.714.765-6,1.941a1.979,1.979,0,0,0,.343,1.382Z"/><path d="M74.3,127.48a4.65,4.65,0,0,1-.451-2.328,3.261,3.261,0,0,1,1.34-2.464,4.115,4.115,0,0,1,2.888-.588,10.978,10.978,0,0,1,2.386.6,11.341,11.341,0,0,1,4.029,2.726c1.08,1.07,1.946,2.082,2.845,3.162,1.738,2.118,3.469,4.385,5.856,5.851a12.2,12.2,0,0,0,3.8,1.585c.664.159,1.38.252,2.148.439a13,13,0,0,1,2.207.8,15.457,15.457,0,0,1,3.874,2.572,23.03,23.03,0,0,1,3.038,3.4,27.264,27.264,0,0,1,4.065,8.062c.446,1.375.848,2.73,1.223,4.091s.773,2.715,1.14,4.087c.732,2.744,1.484,5.5,2.036,8.369l-.364.165a59.616,59.616,0,0,1-8.064-15.294,43.12,43.12,0,0,0-3.179-7.377,36.457,36.457,0,0,0-2.242-3.314,16.381,16.381,0,0,0-2.668-2.893,8.188,8.188,0,0,0-1.63-1.069,16.959,16.959,0,0,0-1.963-.735,36.66,36.66,0,0,1-4.049-1.76,37.874,37.874,0,0,1-7.593-4.625,28.417,28.417,0,0,1-3.039-3.043,11.6,11.6,0,0,0-2.772-2.369,12.574,12.574,0,0,0-1.651-.786,2.428,2.428,0,0,0-1.275-.2,1.675,1.675,0,0,0-1.03.949,5.372,5.372,0,0,0-.514,1.917Z"/><path d="M79.044,138.326c-2.93-3.484-5.663-7.052-8.123-10.6l-.628-.912c-1.713-2.5-2.317-3.311-3.614-3.777-3.13-1.125-6.841,1.248-8.061,2.028-1.5.962-2.433,1.594-2.564,2.43-.192,1.227,1.1,2.849,3.135,3.944l-1.42,2.643c-3.241-1.742-5.077-4.51-4.679-7.051.347-2.214,2.159-3.373,3.911-4.493,1.529-.977,6.177-3.947,10.693-2.324,2.27.816,3.325,2.354,5.073,4.9l.62.9c2.407,3.476,5.083,6.969,7.953,10.382Z"/><path d="M106.539,167.612c-.94-.844-1.864-1.73-2.749-2.634a60.4,60.4,0,0,1-7.613-9.559L98.7,153.8a57.3,57.3,0,0,0,7.233,9.083c.84.859,1.718,1.7,2.61,2.5Z"/><rect x="96.329" y="167.694" width="3" height="9.466" transform="translate(-95.761 129.715) rotate(-47.989)"/><path d="M277.17,202.857a67.486,67.486,0,0,1,10.513,1.51,75.579,75.579,0,0,1,10.23,3.042,77.576,77.576,0,0,1,9.7,4.541,79.53,79.53,0,0,1,8.978,5.9l-1.677-.083a41.385,41.385,0,0,1,29.145-6.537,51.024,51.024,0,0,1,14.484,4.443c1.158.5,2.256,1.126,3.377,1.7,1.085.64,2.188,1.248,3.236,1.945a56.8,56.8,0,0,1,6.1,4.441l-2.144,2.409-5.129-5.256-1.941-1.989,2.673-.463,9.681-1.677.577-.1.409.334,6.428,5.253-1.454,1.414-2.484-3.559-.279-.4.136-.4a30.89,30.89,0,0,1,3.757-7.536,13.89,13.89,0,0,1,6.535-5.4,4.621,4.621,0,0,1,1.056-.293c.363-.066.712-.165,1.086-.2a9.183,9.183,0,0,1,2.193.1,14.48,14.48,0,0,1,4.054,1.332,20.363,20.363,0,0,1,6.307,5.525,61.907,61.907,0,0,1,8.054,14.412,59.009,59.009,0,0,1,2.735,7.834c.73,2.707,1.085,5.384,2.168,7.7a48.868,48.868,0,0,0,4.175,6.822,19.462,19.462,0,0,1,1.106,1.886,7.039,7.039,0,0,1,.774,2.4,3.817,3.817,0,0,1-.16,1.58,3.4,3.4,0,0,1-.955,1.433,5.508,5.508,0,0,1-2.49,1.129,33.814,33.814,0,0,0-3.809.945,13.635,13.635,0,0,0-3.235,1.672,18.183,18.183,0,0,0-2.786,2.591,16.973,16.973,0,0,1-3.59,2.754,33.89,33.89,0,0,1-8.061,2.974,54.4,54.4,0,0,0-7.5,2.483,24.5,24.5,0,0,0-3.345,1.793c-1.08.69-2.183,1.486-3.338,2.269a69.23,69.23,0,0,1-7.242,4.281c-2.5,1.265-4.944,2.448-7.575,3.548a25.2,25.2,0,0,1-4.237,1.369,15.972,15.972,0,0,1-9.266-.781,24.675,24.675,0,0,1-3.932-2.117,33.647,33.647,0,0,0-3.341-1.956,17.6,17.6,0,0,0-3.366-1.267,18.4,18.4,0,0,0-3.588-.447c-1.251-.009-2.539.054-3.866.17-2.655.234-5.434.551-8.225.68a67.088,67.088,0,0,1-8.421-.1,32.909,32.909,0,0,1-8.482-1.675c-2.765-1.013-5-2.122-7.5-2.6a41.534,41.534,0,0,0-7.825-.736,132.762,132.762,0,0,0-16.165.557,70.621,70.621,0,0,0-15.759,3.262,21.807,21.807,0,0,1-8.188,1.684,9.766,9.766,0,0,1-7.436-3.5l.3-.267a9.274,9.274,0,0,0,7.139,2.752,20.58,20.58,0,0,0,7.62-2.119,67.118,67.118,0,0,1,16.023-4.207,119.765,119.765,0,0,1,16.487-1.307,44.606,44.606,0,0,1,8.465.515,24.91,24.91,0,0,1,4.216,1.115c1.352.472,2.6.992,3.806,1.38,4.792,1.558,10.214,1.473,15.5,1.211,2.656-.159,5.3-.5,8.072-.78,1.388-.14,2.825-.236,4.3-.243a22.618,22.618,0,0,1,4.523.508,25.479,25.479,0,0,1,8,3.761A20.664,20.664,0,0,0,355.745,280a11.529,11.529,0,0,0,3.342.791,15.1,15.1,0,0,0,7.015-1.3c2.42-.962,4.911-2.113,7.3-3.273a65.5,65.5,0,0,0,6.9-3.927c1.115-.728,2.237-1.513,3.468-2.272a28.217,28.217,0,0,1,3.893-2,57.776,57.776,0,0,1,8.056-2.531,32.4,32.4,0,0,0,7.331-2.446A13.672,13.672,0,0,0,406,260.908a21.048,21.048,0,0,1,3.295-2.858,16.7,16.7,0,0,1,4.07-1.955,30.037,30.037,0,0,1,4.158-.889,3.179,3.179,0,0,0,1.25-.41.674.674,0,0,0,.247-.667,8.534,8.534,0,0,0-1.328-3.166,50.6,50.6,0,0,1-4.025-7.313,22.244,22.244,0,0,1-1.184-4.11c-.271-1.366-.492-2.689-.789-3.994a57.38,57.38,0,0,0-2.365-7.7,68.721,68.721,0,0,0-3.286-7.4,42.042,42.042,0,0,0-4.292-6.812,23.668,23.668,0,0,0-2.69-2.944,13.651,13.651,0,0,0-3.184-2.268c-2.346-1.093-5.049-1.787-7.414-.805a12.265,12.265,0,0,0-5.719,5.022,26.63,26.63,0,0,0-3.236,7.2l-.142-.8,2.65,3.436,4.483,5.812-5.937-4.4-6.67-4.941.986.234-9.594,2.119.732-2.453,5.364,5.015-2.144,2.409a63.466,63.466,0,0,0-12.19-7.37,52.38,52.38,0,0,0-13.5-4.189,39.483,39.483,0,0,0-27.067,5.5l-.9.551-.775-.633a79.191,79.191,0,0,0-27.428-14.55,86.157,86.157,0,0,0-10.248-2.314Z"/><path d="M242.839,258.5c5.1,1.142,10.181,2.173,15.3,2.969s10.255,1.39,15.414,1.693c2.577.187,5.16.289,7.744.327,2.585.07,5.17.03,7.759-.012,5.178-.13,10.353-.492,15.555-.959a93.539,93.539,0,0,1-15.472,2.517,108.61,108.61,0,0,1-15.716.121A107.062,107.062,0,0,1,257.854,263,93.262,93.262,0,0,1,242.839,258.5Z"/><path d="M397.245,208.188c2.49-1.916,4.984-3.762,7.327-5.768.59-.495,1.165-1.006,1.733-1.523a14.573,14.573,0,0,1,1.93-1.559,5.4,5.4,0,0,1,2.6-.879,5.144,5.144,0,0,1,2.685.581,12.253,12.253,0,0,1,3.625,3.363c1,1.22,1.95,2.482,2.894,3.738a79.936,79.936,0,0,1,5.28,7.832,23.338,23.338,0,0,1,1.115,2.16,19.238,19.238,0,0,1,.707,2.334,42.758,42.758,0,0,1,.836,4.69,77.636,77.636,0,0,1,.64,9.44c.006.788-.023,1.574-.034,2.361-.012.411,0,.744-.034,1.227a5.136,5.136,0,0,1-1.961,3.664,11.412,11.412,0,0,1-2.171,1.274,35.746,35.746,0,0,0-4.034,2.2,19,19,0,0,0-1.814,1.4,20.4,20.4,0,0,0-1.686,1.595l-.16-.121a13.639,13.639,0,0,1,1.391-1.932,13.094,13.094,0,0,1,1.653-1.745,30.135,30.135,0,0,1,3.894-2.779c1.354-.791,2.436-1.61,2.748-2.779a3.762,3.762,0,0,0,.135-.9c.009-.3-.008-.745-.011-1.115-.017-.775-.016-1.551-.049-2.325-.066-3.1-.126-6.191-.378-9.265-.134-1.536-.309-3.065-.538-4.576-.12-.747-.253-1.518-.426-2.209-.2-.666-.506-1.416-.8-2.112a33.419,33.419,0,0,0-4.811-7.921c-.489-.6-1.016-1.176-1.539-1.747-.553-.546-1.084-1.11-1.659-1.631a11.567,11.567,0,0,0-3.51-2.613,3.878,3.878,0,0,0-3.655.3,13.122,13.122,0,0,0-1.746,1.336c-.615.5-1.247.985-1.884,1.455a44,44,0,0,1-8.184,4.723Z"/><path d="M429.1,230.831a12.777,12.777,0,0,1-1.5-.089l.356-2.979a9.584,9.584,0,0,0,1.416.064,11.059,11.059,0,0,0,5.029-1.475l.109-.059a15.1,15.1,0,0,1,6.773-1.861,5.037,5.037,0,0,0,3.518-1.147c1.375-1.2,2.387-4.924,4.226-11.684l.288-1.074c.743-2.795,1.191-4.482,2.987-5.9,1.1-.866,3.052-1.388,6.941-2.429l1.026-.272c2.355-.619,2.89-.8,3.2-1.264.08-.119.292-.437.241-2.712-.068-3.071-.118-5.29-.58-5.889-.593-.766-2.2-.709-6.767-.431-.992.061-2.1.129-3.355.194-11.9.617-15.2.45-15.753-1.9-.236-1.009.37-1.707,1.072-2.516a13.856,13.856,0,0,1,3.25-2.751,6.735,6.735,0,0,0,1.45-1.133,6.075,6.075,0,0,0,1.186-3.9c.1-2.44-.416-4.127-1.41-4.629a2.418,2.418,0,0,0-1.671-.067c-.817.277-1.228.972-1.941,2.278-.237.434-.484.884-.765,1.337-1.921,3.083-4.558,4.7-9.346,7.63-2.237,1.37-4.542,2.509-6.068,3.264-1.417.7-2.333,1.111-2.986,1.405a6.175,6.175,0,0,0-1.517.811c-1.8,1.418-2.725,4.235-2.759,8.37l-3-.025c.042-5.09,1.354-8.69,3.9-10.7a8.921,8.921,0,0,1,2.147-1.193c.631-.283,1.516-.681,2.882-1.356,1.481-.732,3.713-1.835,5.834-3.134,4.683-2.868,6.82-4.177,8.367-6.659.25-.4.468-.8.678-1.187.772-1.414,1.647-3.017,3.612-3.682a5.343,5.343,0,0,1,3.985.23c1.5.758,3.248,2.661,3.055,7.427a8.9,8.9,0,0,1-1.941,5.775,9.425,9.425,0,0,1-2.055,1.653,11.244,11.244,0,0,0-2.271,1.817c2.58.324,8.478.018,11.909-.16,1.241-.064,2.345-.132,3.328-.192,5.467-.334,7.73-.472,9.324,1.591,1.066,1.381,1.11,3.347,1.2,7.656.055,2.438-.126,3.518-.745,4.445-.973,1.459-2.3,1.807-4.934,2.5l-1.014.268c-3.045.815-5.245,1.4-5.86,1.888-.964.759-1.234,1.639-1.944,4.309l-.29,1.083c-2.123,7.808-3.092,11.367-5.149,13.165a7.9,7.9,0,0,1-5.272,1.879,12.16,12.16,0,0,0-5.574,1.512l-.1.055a14.093,14.093,0,0,1-6.371,1.835C429.338,230.829,429.22,230.831,429.1,230.831Z"/><polygon points="450.766 191.639 448.851 189.33 468.862 172.728 456.224 171.071 447.14 179.486 445.101 177.285 455.218 167.913 476.069 170.647 450.766 191.639"/><polygon points="421.493 253.405 419.175 251.501 435.692 231.39 434.158 228.857 436.724 227.303 439.358 231.653 421.493 253.405"/><path class="cls-1" d="M524.571,4V520.285H4V4H524.571m4-4H0V524.285H528.571V0Z"/><path class="cls-2" d="M525.267,521.371H4V3.781H525.267ZM34,491.371H495.267V33.781H34Z"/></g></svg>