<svg xmlns="http://www.w3.org/2000/svg" viewBox="0 0 528.571 523.805"><defs><style>.cls-1{fill:#616060;}.cls-2{fill:#8d8989;}</style></defs><title>icon</title><g id="Layer_7" data-name="Layer 7"><polygon points="72.972 31.227 131.857 105.785 69.885 33.771 72.972 31.227"/><polygon points="97.722 15.393 148.658 95.593 94.391 17.609 97.722 15.393"/><polygon points="144.159 14.448 184.655 100.393 140.577 16.229 144.159 14.448"/><polygon points="173.556 18.006 194.176 71.918 169.872 19.564 173.556 18.006"/><polygon points="208.393 3.265 219.179 70.097 204.464 4.018 208.393 3.265"/><polygon points="263.612 6.654 257.152 63.76 259.625 6.343 263.612 6.654"/><polygon points="303.841 13.995 282.286 59.642 300.159 12.431 303.841 13.995"/><polygon points="322.246 27.334 310.786 47.499 318.611 25.664 322.246 27.334"/><polygon points="337.857 27.613 323.643 51.356 334.286 25.812 337.857 27.613"/><polygon points="371.008 29.872 349.571 62.285 367.563 27.84 371.008 29.872"/><polygon points="395.355 29.143 377.429 51.356 392.074 26.855 395.355 29.143"/><polygon points="422.985 29.589 390.286 71.927 419.73 27.265 422.985 29.589"/><polygon points="476.789 26.824 415.786 86.499 473.925 24.031 476.789 26.824"/><polygon points="488.631 61.683 412.143 122.285 486.083 58.6 488.631 61.683"/><polygon points="484.821 119.022 429.5 153.356 482.608 115.69 484.821 119.022"/><polygon points="486.828 235.067 466.714 234.213 486.6 231.073 486.828 235.067"/><polygon points="486.263 263.067 462.429 262.499 486.023 259.074 486.263 263.067"/><polygon points="485.673 322.157 460.143 313.927 486.613 318.269 485.673 322.157"/><polygon points="488.294 387.093 432.714 353.07 490.277 383.619 488.294 387.093"/><polygon points="486.95 439.818 415.857 384.499 489.336 436.608 486.95 439.818"/><polygon points="445.427 494.591 397.857 430.785 448.573 492.121 445.427 494.591"/><polygon points="404.699 493.503 385.857 457.07 408.158 491.495 404.699 493.503"/><polygon points="373.577 492.395 353.571 455.642 376.995 490.317 373.577 492.395"/><polygon points="285.286 491.625 287.571 456.785 289.286 491.658 285.286 491.625"/><polygon points="251 489.601 253.571 461.642 255 489.682 251 489.601"/><polygon points="223.886 492.731 231.857 458.213 227.828 493.409 223.886 492.731"/><polygon points="199.094 493.035 215 449.642 202.906 494.248 199.094 493.035"/><polygon points="127.549 494.364 167.286 428.785 131.023 496.347 127.549 494.364"/><polygon points="86.569 494.122 113 463.642 89.717 496.589 86.569 494.122"/><polygon points="45.953 486.72 79.571 452.927 48.904 489.42 45.953 486.72"/><polygon points="31.838 481.976 68 446.927 34.734 484.735 31.838 481.976"/><polygon points="27.386 435.031 59.429 413.927 29.757 438.252 27.386 435.031"/><polygon points="24.069 395.954 67.571 370.642 26.217 399.329 24.069 395.954"/><polygon points="22.494 352.159 76.143 326.07 24.363 355.695 22.494 352.159"/><polygon points="22.851 330.584 86 313.642 24.006 334.414 22.851 330.584"/><polygon points="24.264 304.836 93.286 290.927 25.165 308.733 24.264 304.836"/><polygon points="31.742 258.506 61.571 263.07 31.401 262.492 31.742 258.506"/><polygon points="28.516 224.38 55.143 238.213 26.913 228.045 28.516 224.38"/><polygon points="26.309 188.783 54.714 202.213 24.833 192.501 26.309 188.783"/><polygon points="26.394 159.676 104.429 197.07 24.749 163.322 26.394 159.676"/><polygon points="29.033 140.851 103.143 179.927 27.252 144.432 29.033 140.851"/><polygon points="25.336 114.797 70.143 144.785 23.236 118.201 25.336 114.797"/><polygon points="27.565 78.853 80.429 117.785 25.292 82.145 27.565 78.853"/><polygon points="29.012 49.834 83 98.499 26.417 52.878 29.012 49.834"/><polygon points="51.104 26.071 102.714 90.785 48.038 28.64 51.104 26.071"/><path class="cls-1" d="M524.571,4V520.289H4V4H524.571m4-4H0V524.289H528.571V0Z"/><path class="cls-2" d="M525.267,521.375H4V3.785h521.27ZM34,491.375h461.27V33.785H34Z"/><path d="M137.49,344.057c10.111.479,20.22.984,30.332,1.429,11.513.507,23.029.964,34.544,1.435,11.283.462,22.567.9,33.849,1.385,1.169.049,2.329.3,3.494.458l-.076.793a22.7,22.7,0,0,1-2.6.282c-9.559-.033-19.125.117-28.674-.2-15.821-.523-31.636-1.288-47.446-2.073-11.157-.554-22.3-1.7-33.456-1.816-6.037-.063-12.091,1.48-18.137,2.3l.09.8c1.144,0,2.289-.032,3.432,0q24.441.777,48.882,1.574,19.374.649,38.744,1.371c13.149.469,26.3.923,39.447,1.432a9.087,9.087,0,0,1,4.332,1.262c-.964.062-1.929.193-2.892.177q-23.939-.38-47.877-.8c-9.2-.174-18.395-.474-27.594-.669-12.343-.261-24.689-.452-37.032-.719-8.733-.189-17.464-.44-26.195-.691-5.7-.164-11.4-.442-17.1-.546a19.356,19.356,0,0,0-9.927,2.2c-1.4.773-2.418-.221-2.313-2.284.131-2.556.3-5.116.628-7.653,1.911-14.891,3.816-29.784,5.832-44.662,1.938-14.3,4.016-28.588,6.019-42.883q2.2-15.738,4.369-31.48c1.565-11.416,3.061-22.842,4.668-34.253.65-4.61,1.447-9.2,2.3-13.781.764-4.1,1.879-5.239,6.122-5.9,6.438-1.007,12.914-1.773,19.365-2.7,11.983-1.73,23.994-3.3,35.932-5.309,20.9-3.511,41.76-7.28,62.628-10.99,3.784-.672,7.515-1.633,11.29-2.358,5.99-1.149,12.007-1.772,17.994-.011,1.528.45,2.384-.1,3.184-1.318,8.048-12.247,20-16.814,34.042-17.189,12.55-.335,24.508,2.8,36.26,6.647,12.068,3.951,23.932,8.518,35.966,12.576a81.144,81.144,0,0,0,27.8,4.525,70.761,70.761,0,0,0,8.685-.823,2.589,2.589,0,0,1,3.247,1.828c.5,1.307,1.081,2.579,1.584,3.883.921,2.383,1.688,4.722,4.5,5.82,1.088.424,1.942,2.007,2.459,3.247,3.713,8.914,7.641,17.759,10.881,26.847,7.472,20.962,14.521,42.074,21.876,63.078,6.585,18.8,13.362,37.541,20.028,56.316,3.431,9.661,6.78,19.352,10.228,29.007.742,2.079.354,3.068-1.678,4.431a22.648,22.648,0,0,1-11.131,3.605c-6.84.581-13.682,1.185-20.535,1.567-13.479.75-26.967,1.355-40.452,2.02-.465.023-.931.04-1.4.047-16.775.275-33.548.608-50.324.808-21.669.258-43.34.493-65.011.554-6.157.017-12.316-.619-18.476-.923a10.187,10.187,0,0,0-2.749.164c-6.37,1.463-11.91-.2-15.094-5.7-2.135-3.685-5.009-4.4-8.618-4.556-4.3-.181-8.6-.484-12.9-.646-8.5-.32-16.992-.577-25.488-.866q-21.12-.719-42.239-1.455c-3.138-.113-6.28-.6-9.4-.471a67.662,67.662,0,0,0-8.238,1.308Zm118.431-12.164c2.055-2.477,1.871-5.128,1.269-7.974a53.387,53.387,0,0,1-.746-7.277c-.326-4.644-.462-9.3-.9-13.937-.917-9.741-1.773-19.5-1.8-29.273-.018-8.08-1.518-16.057-1.188-24.155.1-2.577-.855-5.191-1.242-7.8a7.073,7.073,0,0,1,.236-1.987,24.726,24.726,0,0,0,.587-4.083c-.067-3.022-.43-6.035-.536-9.057q-.41-11.694-.692-23.392c-.265-10.711-.623-21.423-.663-32.135-.023-6.144.5-12.29.792-18.572a20.848,20.848,0,0,0-11.351-.757c-8.815,1.621-17.561,3.624-26.385,5.19-22.7,4.029-45.4,8.095-68.156,11.774-14.882,2.405-29.869,4.161-44.7,6.193-1.09,8.911-2.166,18.14-3.357,27.355q-3.2,24.759-6.509,49.505c-1.525,11.539-3.081,23.073-4.6,34.611-2.173,16.5-4.234,33.016-6.57,49.493a10.5,10.5,0,0,0,1.876,7.922c12.34-1.833,24.8-3.452,37.169-5.585,13.657-2.354,27.214-5.274,40.846-7.777,18.087-3.322,36.128-6.914,54.551-8.082a181.621,181.621,0,0,1,30.685.508,19.513,19.513,0,0,1,3.017.809l-.156,1.09c-16.628-.149-33.225.464-49.629,3.054-16.462,2.6-32.828,5.8-49.236,8.741l.149.859c3.08-.5,6.154-1.054,9.243-1.494,15.325-2.182,30.631-4.514,45.988-6.438,11.078-1.388,22.214-2.347,33.345-3.237a23.574,23.574,0,0,1,13.223,2.528c.155.084.411-.018.56-.03l.316-2.319C254.826,326.776,254.921,329.754,255.921,331.893Zm13.226-95.964A53.9,53.9,0,0,0,257.67,247.08a6.62,6.62,0,0,0-1.677,3.707c.069,5.182.468,10.36.784,16.257,2.279-2.275,3.987-4.133,5.859-5.808s3.334-3.994,6.481-4.027c-.553,1.083-1.686,1.555-2.473,2.363-2.838,2.92-5.576,5.937-8.318,8.949-1.284,1.411-1.435,3.037-.6,5.364a36.79,36.79,0,0,1,12.646-10.672,6.133,6.133,0,0,1-1.72,2.416c-3.319,3.414-6.666,6.8-9.926,10.272a4.719,4.719,0,0,0-1.035,5.256c2.5-2.584,4.83-5.123,7.3-7.521a18.762,18.762,0,0,1,8.415-5.194c-2.811,2.819-5.929,5.209-8.8,7.866-3.168,2.932-5.662,7.083-6.135,9.489,9-9.169,12.431-11.786,15.836-11.8-.846.651-1.439,1.177-2.1,1.6a46.966,46.966,0,0,0-12.3,11.783c-1.033,1.4-2.489,2.781-1.48,4.955,11.372-10.915,14.427-13.068,18.549-12.809-1.064.605-1.831,1.089-2.638,1.492-6,2.99-10.54,7.6-14.392,12.964-1.281,1.783-1.223,1.824-.553,4.021,2.518-3,4.887-6.057,8.27-8.013-2.584,4.3-7.438,7.087-8.459,13.279,12.629-12.489,18.392-16.406,22.664-15.584-.134.182-.227.433-.4.529-1.127.609-2.268,1.193-3.413,1.768A43.226,43.226,0,0,0,260.707,305.3a6.148,6.148,0,0,0-.837,5.987c2.3-2.656,4.322-5.2,6.555-7.541,4.256-4.47,5.229-5.124,8.481-6.057-3.236,3.112-5.976,5.62-8.569,8.272-4.4,4.5-5.759,6.755-5.95,9.846,4.6-4.216,8.3-8.986,13.965-11.438l-1.548,2c4.95-1.92,9.813-4.224,14.915-5.706,14.615-4.248,29.576-3.605,44.394-1.692C343.991,300.5,355.76,303,367.5,305.42c13.231,2.729,26.328,6.117,39.578,8.739,13.892,2.748,27.934,3.6,42.028,1.3,1.2-.2,2.412-.353,3.868-.564-.263-1.337-.358-2.247-.624-3.105-1.312-4.23-2.569-8.48-4.026-12.66-5.636-16.173-11.276-32.346-17.035-48.476q-16.394-45.928-32.919-91.809c-1.057-2.944-1.27-2.938-4.313-2.456-3.895.617-7.84,1.456-11.745,1.367-10.6-.242-20.652-3.16-30.541-6.84-10.916-4.062-21.8-8.294-32.937-11.65-11.945-3.6-24.171-6.015-36.848-4.3-11.318,1.533-19.992,6.839-26.3,16.488-3.079,4.711-2.544,9.258-1.594,14.357,3.274-2.865,4.853-7.013,8.943-8.551a4.064,4.064,0,0,1-.884,1.821c-2.186,2.722-4.43,5.4-6.567,8.159-.7.9-1.59,2-1.621,3.024-.162,5.405-.076,10.818-.076,16.228,3.119-3.582,6.036-6.988,9.824-9.536a5.18,5.18,0,0,1-1.173,2.089c-2.509,3.21-5.036,6.406-7.512,9.641a5.973,5.973,0,0,0-.914,5.658c1.811-2.214,3.44-4.172,5.031-6.161a12.337,12.337,0,0,1,5.794-4.52,15.221,15.221,0,0,1-1.994,2.695c-2.692,3.5-5.392,7-7.976,10.581-.988,1.37-1.579,2.965-.437,4.768,6.566-9.435,9.918-12.686,13.868-12.9-6.268,4.823-10.942,10.291-13.456,17.385,3.787-4.721,7.607-9.379,12.981-12.4a6.9,6.9,0,0,1-1.545,2.195c-2.878,3.181-5.825,6.3-8.609,9.566-4.981,5.837-3.386,12.659-2.675,19.32.012.115.379.192,1.12.539,1.426-1.54,2.938-3.294,4.583-4.913s3.127-3.532,6-3.433c-.328.8-1.16,1.061-1.7,1.607-2.938,2.983-5.818,6.023-8.687,9.072-1.387,1.473-1.641,3.166-.841,5.336,4.239-3.479,7.276-8.038,12.483-9.872a13.393,13.393,0,0,1-2.365,2.7c-3.075,3.168-6.158,6.329-9.154,9.571a4.764,4.764,0,0,0-.938,5.191m.626,4.648,195.7,72.182c-1.4.251-2.083.353-2.756.5a86.081,86.081,0,0,1-22.17,2.235,191.567,191.567,0,0,1-37.178-5.885c-17.273-4.352-34.514-8.871-52.229-11.143-14.121-1.811-28.257-2.884-42.41-.274-11.27,2.079-21.51,6.193-29.087,15.247-2.7,3.23-5.556,6.481-6.26,11.047a15.086,15.086,0,0,1,3.263,1.731c1.584,1.456,3.354,2.934,4.325,4.783,1.729,3.289,1.5,3.414,5.34,3.414q87.541,0,175.083-.013c1.239,0,2.479-.105,3.36-.145C451.444,331.719,451.674,324.841,451.919,317.508ZM255.957,334.541c-2.5,2.633-2.5,2.651-6.23,2.873-1.979.117-2.293,1.4-1.957,2.923a71.172,71.172,0,0,0,1.883,7.081c1.076,3.242,2.968,4.745,6.312,4.25s6.571-.173,9.882-.105q30.741.638,61.493.726c15.486.035,30.974-.281,46.46-.521,13.623-.212,27.244-.536,40.866-.813.465-.009.931-.038,1.4-.064,11.382-.655,22.768-1.236,34.142-2a89.123,89.123,0,0,0,12.067-1.581c6.168-1.278,6.557-3.228,4.2-8.188-.064-.136-.333-.174-.738-.368.132.821.294,1.481.334,2.147a4.743,4.743,0,0,1-4.568,5.336c-11.146.692-22.287,1.526-33.442,2.022-14.068.627-28.147,1.028-42.225,1.427q-16.584.47-33.176.693-29,.427-58,.726c-7.806.084-15.615-.019-23.421.095-3.5.051-6.714-.413-9.383-2.94a7.55,7.55,0,0,0-2.028-1.007c-3.381,3.555-4.566,3.865-7.829,1.773-2.345-1.5-2.6-4.06-2.552-6.507a3.922,3.922,0,0,1,3.27-4.022C255.037,338.062,255.371,336.236,255.957,334.541ZM163.251,339l.075.243,77.346,5.274c-1.091-3.6-1.094-3.661-3.314-3.828-3.362-.253-6.728-.52-10.1-.611-12.335-.332-24.673-.554-37.008-.9-6.279-.175-12.551-.618-18.83-.75C168.7,338.372,165.975,338.8,163.251,339Zm75.614.2c-.637-3.137-2.421-2.586-3.774-2.625-10.933-.318-21.867-.579-32.8-.866a21.3,21.3,0,0,1-2.436-.176,45.655,45.655,0,0,0-16.906.641C201.874,337.011,220.107,338.66,238.865,339.2Zm-35.686-5.876c9.362,1.815,32.142,2.249,34.653.659C235.448,332.71,210.576,332.237,203.179,333.32Zm33.964-1.948,0-.934c-4.32-.6-8.631.922-12.948.934Z"/><path d="M269.969,248.267,259.022,259.8C259.4,256.38,265.814,249.422,269.969,248.267Z"/><path d="M256.127,218.723c3.2-4.112,6.46-8.168,10.862-11.147l.518.482q-5.271,5.7-10.544,11.4Z"/><path d="M264.627,168.656l-8.6,10.992C255.845,176.971,261.113,169.937,264.627,168.656Z"/><path d="M254.345,159.036l8.773-11.187.943.723L255.377,159.9Z"/><path d="M385.171,317.229c-1.166-.245-2.345-.442-3.5-.742a248.636,248.636,0,0,0-46.4-7.775c-11.711-.772-23.491-1-35.224-.733-5.491.125-11.01,1.731-16.392,3.142-3.826,1-7.444,2.8-10.907,4.145.482-1.373,3.532-4.165,6.139-5.872,3.966-2.6,8.6-2.805,12.978-3.736a103.5,103.5,0,0,1,27.385-1.73,254.413,254.413,0,0,1,43.149,5.913c7.361,1.688,14.572,4.036,21.845,6.108a5.088,5.088,0,0,1,1.1.641Z"/><path d="M364.52,314.623a8.593,8.593,0,0,1-1.347.143c-8.361-.384-16.718-.892-25.084-1.137-4.172-.123-8.359.206-12.538.368-6.042.233-12.087.422-18.123.775-6.613.387-13.215.979-19.827,1.4-3.611.232-7.34-1.16-10.782,1.362l-.3-.787c.489-.5.89-1.235,1.481-1.447a69.977,69.977,0,0,1,9.88-3.24,171.463,171.463,0,0,1,40.987-2.926,231.653,231.653,0,0,1,34.242,4.269,8.55,8.55,0,0,1,1.524.61Z"/><path d="M285.086,324.809a19.58,19.58,0,0,1,2.57-.381c11.866-.222,23.733-.608,35.6-.569,17.458.056,34.914.414,52.37.666a31.947,31.947,0,0,1,3.2.361l.018.915a28.232,28.232,0,0,1-2.815.289q-40.861.288-81.722.509c-3.084.014-6.17-.435-9.255-.67Z"/><path d="M323.948,317.577a11.5,11.5,0,0,1,2.99-.73c10.814.325,21.631.633,32.437,1.154,7.2.347,14.388,1.006,21.578,1.568q9.219.72,18.43,1.555a6.877,6.877,0,0,1,3.459,1.255c-26.3-1.023-52.608-.892-78.777-3.33Z"/><path d="M318.1,317.767a11.053,11.053,0,0,1-2.191.44c-14.714-.019-28.914,2.966-42.917,7.2-1.068.322-3.077.349-3.395-.206-.907-1.582.735-2.579,1.88-3.145,2.172-1.073,4.462-2.315,6.8-2.571,11.788-1.285,23.605-2.318,35.423-3.314,1.456-.123,2.976.5,4.467.784Z"/><path d="M269.712,329.088a22.031,22.031,0,0,1,2.809-.407c11.992-.238,23.987-.7,35.977-.583,12.1.122,24.195.828,36.291,1.3a12.012,12.012,0,0,1,1.974.405l.084.765a26.826,26.826,0,0,1-3.315.329c-8.615-.178-17.227-.536-25.843-.592-14.684-.1-29.369,0-44.054-.008-1.3,0-2.593-.115-3.889-.177Z"/></g></svg>