<svg xmlns="http://www.w3.org/2000/svg" viewBox="0 0 528.571 523.805"><defs><style>.cls-1{fill:#050606;}.cls-2{fill:#616060;}.cls-3{fill:#8d8989;}</style></defs><title>icon</title><g id="Layer_8" data-name="Layer 8"><path d="M81.594,351.04c-7.6-13.316-8.706-27.163-4.638-41.731-2.452-.539-4.811-1.221-7.219-1.546a12.137,12.137,0,0,1-7.568-4.323,43.679,43.679,0,0,1-11.361-27.65,67.3,67.3,0,0,1,.979-15.146c1.505-8.569,6.177-15.077,13.5-20.109,27.094-18.611,53.992-37.508,80.961-56.3q39.807-27.741,79.587-55.519a8.957,8.957,0,0,1,7.184-1.525q55.061,9.965,110.133,19.864,48.342,8.715,96.686,17.423c2.876.517,5.258,1.642,6.081,4.647A6.174,6.174,0,0,1,443,176.39c-3.193,2.018-3.959,4.75-3.853,8.4.253,8.764.12,17.541.04,26.312-.016,1.774.33,2.6,2.313,2.92,7.518,1.222,14.988,2.731,22.5,4.026,2.921.5,5.214,1.724,6.04,4.693a6.054,6.054,0,0,1-2.819,7.056c-3.1,2.04-3.964,4.706-3.873,8.384.26,10.519.134,21.05.052,31.575-.015,1.929.226,3.072,2.5,3.343a5.849,5.849,0,0,1,5.23,4.866c.592,2.674-.594,4.741-2.617,6.457-5.751,4.879-11.43,9.842-17.228,14.663a4.89,4.89,0,0,0-2.042,4.2c.087,9.472.058,18.946.021,28.419-.006,1.556.1,2.6,2.1,2.859a5.86,5.86,0,0,1,5.274,4.8c.635,2.826-.577,4.889-2.664,6.668q-30.626,26.112-61.227,52.254-40.717,34.75-81.421,69.517a8.22,8.22,0,0,1-7.7,2.011q-66.426-14.052-132.89-27.929-45.63-9.561-91.277-19.044a13.09,13.09,0,0,1-7.4-4.116c-9.62-10.642-12.783-23.338-11.567-37.263A49.441,49.441,0,0,1,63.3,369.518a25.661,25.661,0,0,1,10.935-13.394C76.677,354.593,78.988,352.85,81.594,351.04Zm2.283,18.072v2.843c0,12.105.071,24.21-.065,36.312-.025,2.258.737,2.984,2.8,3.411q44.36,9.2,88.693,18.531,52.181,10.947,104.355,21.919c3.909.82,7.83,1.583,11.82,2.388a10.423,10.423,0,0,0,.212-1.332c.011-12.894-.016-25.787.049-38.681.008-1.671-.793-1.981-2.162-2.266q-29.823-6.221-59.629-12.528-62.333-13.075-124.671-26.128C98.265,372.112,91.252,370.652,83.877,369.112Zm198.076-29.628v-2.812c0-12.106-.076-24.213.066-36.318.028-2.319-.856-2.942-2.868-3.352-13.728-2.794-27.438-5.676-41.149-8.556Q162.168,272.515,86.335,256.57c-3.9-.82-7.824-1.574-11.678-2.348a3.39,3.39,0,0,0-.3.774c-.024,13.158-.017,26.316-.083,39.474-.008,1.623.942,1.785,2.121,2.031q30.082,6.282,60.159,12.6,62.48,13.074,124.961,26.134C268.187,336.631,274.865,338.011,281.953,339.484Zm24.065,53.6v-3.144c0-11.929.018-23.858-.031-35.787a14.526,14.526,0,0,0-.687-3.083c-1.049.411-2.372.549-3.1,1.28-2.571,2.589-5.413,3.027-8.9,2.287-30.663-6.5-61.351-12.867-92.025-19.3q-42.029-8.817-84.047-17.682c-6.137-1.29-12.286-2.522-18.582-3.812v35.794Zm12.684,2.489c7.918-6.74,15.39-13.1,22.868-19.463q53.786-45.739,107.6-91.449a5.447,5.447,0,0,0,2.16-4.666c-.1-11.048-.039-22.1-.045-33.146,0-.912-.076-1.824-.135-3.144-1.02.815-1.7,1.327-2.343,1.878q-61.6,52.586-123.234,105.137c-1.9,1.616-4.3,2.647-6.869,4.2ZM426.809,190.318c-1.494,1.258-2.606,2.185-3.707,3.124q-60.735,51.829-121.5,103.62c-1.962,1.67-4.428,2.748-7.036,4.331V341.85c.867-.671,1.482-1.111,2.057-1.6q64.356-54.68,128.661-109.419a5.214,5.214,0,0,0,1.612-3.5c.12-11.4.074-22.808.066-34.212C426.961,192.376,426.883,191.628,426.809,190.318ZM304.344,415.479v41.436c.862-.68,1.345-1.038,1.8-1.427q64.6-54.946,129.144-109.95a5.23,5.23,0,0,0,1.6-3.5c.129-9.381.075-18.764.063-28.147,0-.649-.121-1.3-.216-2.248-.806.628-1.357,1.025-1.873,1.465q-30.306,25.858-60.6,51.724-24.3,20.748-48.574,41.523c-1.982,1.7-4.11,2.88-6.693,2.113-2.154-.639-3.539.063-5.159,1.42C311.016,412.25,308.727,415.637,304.344,415.479Z"/><circle class="cls-1" cx="115.853" cy="112.359" r="18.857"/><circle class="cls-1" cx="101.925" cy="158.43" r="8.929"/><circle class="cls-1" cx="269.925" cy="62.43" r="8.929"/><circle class="cls-1" cx="433.925" cy="71.359" r="8.929"/><path class="cls-1" d="M472,135.93A8.929,8.929,0,1,1,463.068,127,8.929,8.929,0,0,1,472,135.93Z"/><path class="cls-2" d="M524.572,4V520.287H4V4H524.572m4-4H0V524.287H528.572V0Z"/><path class="cls-3" d="M525.268,521.373H4V3.783H525.268ZM34,491.373H495.268V33.783H34Z"/></g></svg>