<svg xmlns="http://www.w3.org/2000/svg" viewBox="0 0 528.571 523.805"><defs><style>.cls-1{fill:#616060;}.cls-2{fill:#8d8989;}</style></defs><title>icon</title><g id="Layer_9" data-name="Layer 9"><path class="cls-1" d="M524.571,4V520.287H4V4H524.571m4-4H0V524.287H528.571V0Z"/><path class="cls-2" d="M525.267,521.373H4V3.783H525.267ZM34,491.373H495.267V33.783H34Z"/><path d="M406.069,383.726q-3.272,4.889-6.953,9.493c-2.4,3.074-5.121,6.013-6.461,9.68a21.117,21.117,0,0,0-1.323,11.341,17.752,17.752,0,0,0,5.545,9.76,23.63,23.63,0,0,0,9.889,5.452,19.836,19.836,0,0,0,11.141-.141,22.176,22.176,0,0,0,9.416-6.015,24.3,24.3,0,0,0,5.688-9.712A22,22,0,0,0,433.9,408a49.249,49.249,0,0,0-.249-5.789c-.079-.979-.147-1.978-.135-3a7.157,7.157,0,0,1,.627-3.135,4.53,4.53,0,0,1,2.484-2.192,4.929,4.929,0,0,1,3.271-.1,4.166,4.166,0,0,1,2.322,2.311,10.6,10.6,0,0,1,.8,2.968,33.927,33.927,0,0,1,.2,5.951c-.148,3.942-.536,7.84-.837,11.748l-1,11.722c-.348,3.907-.718,7.816-1.319,11.7a56.181,56.181,0,0,1-1.158,5.8,26.185,26.185,0,0,1-2.053,5.585,62.491,62.491,0,0,1-6.049,10.17,37.524,37.524,0,0,1-8.485,8.35A32.276,32.276,0,0,1,411.409,475a34.86,34.86,0,0,1-11.96.741,46.6,46.6,0,0,1-11.6-2.891c-1.862-.708-3.685-1.517-5.463-2.375s-3.556-1.724-5.291-2.715a44.89,44.89,0,0,1-9.593-7.2,37.9,37.9,0,0,1-3.932-4.586,37.244,37.244,0,0,1-3.077-5.207,36.018,36.018,0,0,1-3.43-11.545,43.824,43.824,0,0,1,.243-12c.135-.984.313-1.954.521-2.941s.379-1.967.669-2.927a29.519,29.519,0,0,1,.87-2.873c.338-.943.646-1.895,1.062-2.806A55.729,55.729,0,0,1,374.185,396.4a86.755,86.755,0,0,1,19.077-13.844,60.99,60.99,0,0,1,10.819-4.672,16.086,16.086,0,0,1,2.906-.6,4.044,4.044,0,0,1,1.516.091,1.175,1.175,0,0,1,.672.478,1.048,1.048,0,0,1-.039.825,16.685,16.685,0,0,1-1.436,2.594C407.171,382.1,406.622,382.916,406.069,383.726Zm-.165-.112c.541-.815,1.079-1.634,1.6-2.464a16.545,16.545,0,0,0,1.379-2.558.82.82,0,0,0,.049-.6,1.185,1.185,0,0,0-.211-.207,1.671,1.671,0,0,0-.3-.128,3.767,3.767,0,0,0-1.4-.06,15.7,15.7,0,0,0-2.836.623,54.124,54.124,0,0,0-10.648,4.826,85.571,85.571,0,0,0-9.721,6.512,89.369,89.369,0,0,0-8.706,7.788A56.551,56.551,0,0,0,362.19,416.39a50.686,50.686,0,0,0-2.886,11.126,41.81,41.81,0,0,0-.2,11.444,34.757,34.757,0,0,0,9.871,20.127,42.889,42.889,0,0,0,9.1,6.949c1.662.969,3.393,1.833,5.147,2.7s3.5,1.657,5.3,2.358a45.921,45.921,0,0,0,11.125,2.893,33.182,33.182,0,0,0,11.4-.533,31.924,31.924,0,0,0,10.506-4.477,36.308,36.308,0,0,0,8.384-7.888,61.488,61.488,0,0,0,6.151-9.9,34.7,34.7,0,0,0,3.283-11.1c1.205-7.721,1.756-15.556,2.32-23.369.256-3.91.625-7.822.705-11.717a33.015,33.015,0,0,0-.33-5.78,9.624,9.624,0,0,0-.785-2.669,3.1,3.1,0,0,0-1.737-1.7,3.8,3.8,0,0,0-2.492.146,3.3,3.3,0,0,0-1.777,1.635,5.919,5.919,0,0,0-.431,2.594c.012.938.1,1.895.2,2.867a50.7,50.7,0,0,1,.4,5.946,22.1,22.1,0,0,1-.837,6.013,26,26,0,0,1-6.006,10.443,25.621,25.621,0,0,1-4.638,3.929,21.17,21.17,0,0,1-5.548,2.548,21.481,21.481,0,0,1-12.057-.008,23.952,23.952,0,0,1-10.345-6.055,18.867,18.867,0,0,1-5.547-10.517,21.816,21.816,0,0,1,1.709-11.683c1.53-3.709,4.244-6.663,6.69-9.694Q402.583,388.469,405.9,383.614Z"/><path d="M408.735,377.783A77.814,77.814,0,0,0,390.61,391.3a73.47,73.47,0,0,0-7.3,8.65c-.554.764-1.048,1.57-1.575,2.353l-.779,1.182c-.246.4-.472.817-.709,1.224l-1.4,2.457-1.241,2.543a89.543,89.543,0,0,0-4.11,10.545,68.1,68.1,0,0,0-2.711,10.967,40.882,40.882,0,0,0-.285,11.224,27.251,27.251,0,0,0,3.5,10.559,26.519,26.519,0,0,0,7.629,8.06,33.389,33.389,0,0,0,10.107,4.688,39.651,39.651,0,0,0,22.133-.236,34.886,34.886,0,0,0,18.228-12.443,41.574,41.574,0,0,0,5.516-9.8,44.81,44.81,0,0,0,2.967-10.9l.1.011a43.625,43.625,0,0,1-8.072,21.076,35.711,35.711,0,0,1-18.45,13.015,40.631,40.631,0,0,1-22.691.231,34.332,34.332,0,0,1-10.354-4.909,27.384,27.384,0,0,1-7.8-8.384,28.008,28.008,0,0,1-3.533-10.878,41.552,41.552,0,0,1,.363-11.413,68.617,68.617,0,0,1,2.807-11.046,89.951,89.951,0,0,1,4.2-10.582l1.273-2.551,1.438-2.461c.242-.409.473-.824.724-1.227l.794-1.183c.538-.783,1.042-1.59,1.606-2.353a73.808,73.808,0,0,1,7.414-8.629,78.005,78.005,0,0,1,18.29-13.4Z"/><path d="M390.947,452.9c-1.294,0-2.167-.082-2.3-.094l-.248-.025-.13-.214c-4.5-7.429-5.317-15.085-1.9-17.81a7.782,7.782,0,0,1,5.734-1.241,6.034,6.034,0,0,1,4.2,2.358,5.685,5.685,0,0,1,.863,3.77c3.22-1.617,6.621-1.509,8.191.355,1.691,2.007.511,5.426-.452,7.129C402.037,452.211,394.713,452.9,390.947,452.9ZM389,451.833c1.752.135,11.744.637,15.038-5.2.779-1.377,1.9-4.4.558-5.993-1.208-1.435-4.46-1.7-7.809.357l-.989.606.238-1.135a5.237,5.237,0,0,0-.554-4.03,5.055,5.055,0,0,0-3.522-1.936,6.851,6.851,0,0,0-4.965,1.034C384.412,437.6,384.472,444.237,389,451.833Z"/><path d="M392.233,322.6a7.692,7.692,0,1,1,7.693-7.692A7.7,7.7,0,0,1,392.233,322.6Zm0-14.384a6.692,6.692,0,1,0,6.693,6.692A6.7,6.7,0,0,0,392.233,308.214Z"/><path d="M392.233,327.645a14,14,0,1,1,14-14A14.016,14.016,0,0,1,392.233,327.645Zm0-27a13,13,0,1,0,13,13A13.015,13.015,0,0,0,392.233,300.644Z"/><rect x="363.78" y="272.117" width="69.209" height="0.999" transform="translate(-25.243 504.068) rotate(-63.034)"/><rect x="385.22" y="289.424" width="75.578" height="1" transform="translate(-45.671 498.085) rotate(-58.374)"/><path d="M436.452,260.882a44.743,44.743,0,0,1-14.817-2.695l-.286-.1-.181-.242a36.047,36.047,0,0,1-7.434-20.423c-.11-3.99-.447-16.129,7.3-19.774,5.059-2.378,11.408-.19,15.068,3.2a15.321,15.321,0,0,1,4.747,13.044c5.843-3.016,12.619-2.641,16.163,1.137,4.561,4.861,1.7,13.517-1.783,18.112C451.385,258.212,444.534,260.882,436.452,260.882Zm-13.863-4.48c13.109,4.552,25.559,2.767,31.05-4.472,2.975-3.92,5.641-11.568,1.918-15.534-2.883-3.076-9.483-3.8-15.531.31l-2.208,1.5.679-2.582a13.417,13.417,0,0,0-3.75-13.311c-3.168-2.935-8.6-4.858-12.858-2.857-6.566,3.088-6.256,14.243-6.155,17.908A33.974,33.974,0,0,0,422.589,256.4Z"/><polygon points="378.166 124.459 368.637 121.944 369.146 120.011 377.785 122.29 398.738 107.794 399.946 97.643 401.932 97.88 400.617 108.926 378.166 124.459"/><path d="M394.6,149c-.3,0-.6-.007-.9-.019a20.745,20.745,0,0,1-19.606-25.8l1.948.455A18.747,18.747,0,0,0,393.79,146.98a19.62,19.62,0,0,0,18.844-12c2.395-5.737,2.369-14.148-3.089-20a18.047,18.047,0,0,0-10.165-5.332l.343-1.971a20.037,20.037,0,0,1,11.285,5.939c5.252,5.636,6.646,14.532,3.471,22.138A21.626,21.626,0,0,1,394.6,149Z"/><path d="M394.945,156.039a28.514,28.514,0,0,1-13.508-3.573c-10.217-5.774-13.91-16.761-13.966-24.416a26.3,26.3,0,0,1,.787-6.557l1.941.484a24.222,24.222,0,0,0-.728,6.059c.052,7.12,3.476,17.335,12.951,22.689,2.362,1.335,10.8,5.422,20.189,1.951,7.274-2.688,10.846-8.36,12.371-10.782a26.532,26.532,0,0,0,4.391-16.383,26.082,26.082,0,0,0-8.574-17.237,25.288,25.288,0,0,0-9.952-5.257l.52-1.931a27.29,27.29,0,0,1,10.742,5.678,28.131,28.131,0,0,1,9.258,18.6,28.45,28.45,0,0,1-4.693,17.6c-1.633,2.594-5.459,8.668-13.369,11.592A23.99,23.99,0,0,1,394.945,156.039Z"/><path d="M353.758,132.039l-3.107-8.554,55.683-37.338,6.049,5.544Zm-.693-7.765,1.689,4.651L409.18,91.467l-3.038-2.783Z"/><path d="M370.712,111.305l-2-.022a24.2,24.2,0,0,0-6.033-16.3,16.953,16.953,0,0,0-6.113-4.411,13.01,13.01,0,0,1-5.193-3.789c-2.834-3.526-4.635-9.728-2.388-14.275,1.778-3.6,6.15-6.158,11.7-6.843,5.508-.68,10.611.7,13.009,3.525,2.346,2.759,2.076,6.7,1.817,10.515-.3,4.377-.58,8.511,2.476,11.355a11.062,11.062,0,0,0,2.41,1.623,19.978,19.978,0,0,0,13.873,1.644l.422,1.955a21.945,21.945,0,0,1-15.259-1.847,13,13,0,0,1-2.807-1.91c-3.756-3.494-3.413-8.521-3.11-12.956.243-3.571.473-6.944-1.345-9.083-1.945-2.287-6.462-3.427-11.24-2.836-4.876.6-8.67,2.749-10.149,5.743-1.879,3.8-.293,9.093,2.153,12.137a11.218,11.218,0,0,0,4.5,3.238,18.889,18.889,0,0,1,6.739,4.881,25.823,25.823,0,0,1,4.815,7.964A26.194,26.194,0,0,1,370.712,111.305Z"/><path d="M111.515,316.826a41.992,41.992,0,0,1-21.734-5.986c-11.866-7.211-16.6-18.637-18.359-24.8l-.037-.24L70.9,272.366c-.036-.983-.99-27.227-1.025-28.208l-.036-1.009,80.275-2.071-.528,42.557c-.85,5.756-3.695,16.606-13.216,24.593A38.687,38.687,0,0,1,111.515,316.826ZM73.379,285.6c1.708,5.914,6.231,16.717,17.441,23.53,13.9,8.446,32.513,7.42,44.261-2.435,8.976-7.532,11.692-17.8,12.513-23.287l.491-40.279L71.906,245.1c.181,4.99.956,26.313.988,27.2Z"/><path d="M97.928,312.278l-1.963-.38a32.326,32.326,0,0,0-4.077-22.671,32.686,32.686,0,0,0-20.156-14.354l.44-1.952a34.752,34.752,0,0,1,21.421,15.26A34.362,34.362,0,0,1,97.928,312.278Z"/><path d="M127.788,311.845c-4.1-12.879-1.418-26.081,6.84-33.636A26.788,26.788,0,0,1,148.1,271.78l.35,1.969a24.8,24.8,0,0,0-12.475,5.935c-7.683,7.03-10.15,19.416-6.283,31.554Z"/><polygon points="72.507 268.078 72.261 266.094 91.065 263.758 89.555 252.699 71.287 252.819 71.273 250.819 91.299 250.687 93.321 265.494 72.507 268.078"/><path d="M148.167,265.815l-19.224-.088-1.754-15.195,1.2.079q1.524.1,3.088.167a125.463,125.463,0,0,0,17.413-.5l.195,1.99a127.277,127.277,0,0,1-17.691.506q-.978-.041-1.942-.095l1.276,11.054,17.451.08Z"/><path d="M102.419,408.285l-6.43-8.3,26.882-17.139,5.537,9.844Zm-3.506-7.79,4,5.162,22.8-13.68-3.547-6.306Z"/><path d="M148.606,483.577a8.523,8.523,0,0,1-1.159-.08c-2.725-.376-5.283-2.083-7.4-4.938l-32.444-48.243a21.487,21.487,0,0,1-5.58-10.167,21.768,21.768,0,0,1,1.541-14.024l1.811.85a19.756,19.756,0,0,0-1.4,12.725,19.489,19.489,0,0,0,5.121,9.28l.119.144,32.468,48.282c1.219,1.645,3.282,3.73,6.037,4.109,3.334.461,6.2-1.823,8.49-3.658,6.568-5.262,12.565-10.167,18.325-14.991a9.744,9.744,0,0,0,.83-5.763,10.1,10.1,0,0,0-4.435-6.56l-.186-.121-30.631-48.584a13.624,13.624,0,0,0-6.42-6.582,13.4,13.4,0,0,0-6.611-1.251l-.131-2a15.389,15.389,0,0,1,7.6,1.442,15.628,15.628,0,0,1,7.347,7.489l30.3,48.046a12.111,12.111,0,0,1,5.133,7.78,11.781,11.781,0,0,1-1.1,7.179l-.093.185-.158.133c-5.822,4.877-11.881,9.834-18.523,15.155C155.236,481.2,152.267,483.577,148.606,483.577Z"/><path d="M103.143,396.494l-1.964-.371a15.236,15.236,0,0,0-.7-8.906c-.864-2.025-2.189-3.589-4.384-6.179-1.3-1.534-2.358-2.63-3.209-3.511-1.752-1.814-2.716-2.813-2.578-4.536.2-2.472,2.673-4.446,4.9-5.048,4.649-1.257,9.18,3.144,10.913,5.1a12.883,12.883,0,0,1,2.218,3.37,8.274,8.274,0,0,0,2.135,2.938,17.781,17.781,0,0,0,7.038,3.932,18.022,18.022,0,0,0,3.961.683l-.117,2A19.931,19.931,0,0,1,109.11,380.8a10.275,10.275,0,0,1-2.568-3.527,10.991,10.991,0,0,0-1.911-2.91c-1.486-1.674-5.314-5.461-8.9-4.494-1.554.421-3.307,1.794-3.427,3.279-.063.785.436,1.342,2.023,2.985.87.9,1.954,2.024,3.3,3.606,2.318,2.736,3.716,4.386,4.7,6.689A17.189,17.189,0,0,1,103.143,396.494Z"/><path d="M137.919,133.883c-10.014,0-22.023-2.261-32.1-11.019-9.528-8.283-13.515-18.886-15.182-26.322l-.67-2.99,48.948-.909-1.482-33.424,1.7-.639a41.742,41.742,0,0,1,8.054-2.148,40.56,40.56,0,0,1,18.329,1.1c12.669,4.112,18.8,15.365,21.106,19.6,2.563,4.7,10.359,19.016,4.661,32.932-6.384,15.589-25.232,19.555-35.358,21.686A85.639,85.639,0,0,1,137.919,133.883ZM96.283,98.436A42.924,42.924,0,0,0,109.1,119.091c16.119,14.011,37.676,9.474,45.791,7.768,9.869-2.077,26.383-5.552,31.763-18.689,4.8-11.716-2.143-24.457-4.424-28.643-2.048-3.76-7.485-13.742-18.258-17.239-6.5-2.11-13.348-1.346-15.99-.92a36.724,36.724,0,0,0-5.389,1.3l1.324,29.885,16.994-.316.094,5Z"/><rect x="130.784" y="121.375" width="4.999" height="46.646" transform="translate(-63.421 141.643) rotate(-46.461)"/><rect x="128.697" y="141.062" width="47.361" height="5" transform="translate(-56.901 137.965) rotate(-41.762)"/><path d="M125.86,180.8a11.984,11.984,0,1,1,11.985-11.984A12,12,0,0,1,125.86,180.8Zm0-18.968a6.984,6.984,0,1,0,6.985,6.984A6.992,6.992,0,0,0,125.86,161.834Z"/><path d="M156.52,178.531a11.984,11.984,0,1,1,11.985-11.984A12,12,0,0,1,156.52,178.531Zm0-18.968a6.984,6.984,0,1,0,6.985,6.984A6.992,6.992,0,0,0,156.52,159.563Z"/><path d="M220.638,193.275a54.116,54.116,0,0,0,23.216,10.6c5.247.985,23.185,3.514,38.735-7.823a45.6,45.6,0,0,0,11.229-11.861,29.949,29.949,0,0,0,28.137,21.071,43.663,43.663,0,0,0-6.688-23.089c-14.983-23.1-47.656-20.008-49.46-19.809C236.883,165.549,222.233,190.456,220.638,193.275Z"/><path d="M232.624,224.44a13.381,13.381,0,0,0,4.11,6.419,11.783,11.783,0,0,0,13.749,1.133,13.363,13.363,0,0,0,5.1-5.66,10.766,10.766,0,0,1-4.227,6.95,11.814,11.814,0,0,1-3.813,1.923,12.34,12.34,0,0,1-4.286.435,11.829,11.829,0,0,1-7.6-3.656A10.8,10.8,0,0,1,232.624,224.44Z"/><path d="M284.734,223.935a13.381,13.381,0,0,0,4.11,6.419,11.782,11.782,0,0,0,13.748,1.133,13.357,13.357,0,0,0,5.105-5.66,10.76,10.76,0,0,1-4.227,6.95,11.821,11.821,0,0,1-3.812,1.924,12.392,12.392,0,0,1-4.287.435,11.831,11.831,0,0,1-7.6-3.657A10.8,10.8,0,0,1,284.734,223.935Z"/><path d="M267.953,236.805a4.7,4.7,0,0,1,3.62-.743,4.925,4.925,0,0,1,3.3,2.289,3.605,3.605,0,0,1,.465,2.213,4.007,4.007,0,0,1-.83,1.947,4.533,4.533,0,0,1-3.277,1.738,7.725,7.725,0,0,0,1.938-2.564,3.284,3.284,0,0,0,.278-1.268,2.193,2.193,0,0,0-.312-1.077,4.79,4.79,0,0,0-2.035-1.783A8.377,8.377,0,0,0,267.953,236.805Z"/><path d="M270.085,271.172a50.349,50.349,0,0,1-8.1-.659,53.9,53.9,0,0,1-38.068-27.434c-8.145-15.267-6.17-30.8-5.326-37.439a71.334,71.334,0,0,1,3.562-14.908l1.885.67a69.332,69.332,0,0,0-3.463,14.49c-.819,6.446-2.739,21.541,5.1,36.246a51.867,51.867,0,0,0,36.625,26.4c23.266,3.782,42.288-10.1,51.512-23.143,7.043-9.959,10.265-20.554,9.576-31.492a48.248,48.248,0,0,0-11.537-28.012l1.518-1.3a50.258,50.258,0,0,1,12.015,29.187c.718,11.405-2.626,22.432-9.939,32.773C306.988,258.519,290.533,271.171,270.085,271.172Z"/><path d="M222.251,249.566a8.176,8.176,0,0,1-1.7-.175c-3.282-.7-6.242-3.5-7.917-7.488s-1.6-8.256.216-11.1a10.153,10.153,0,0,1,5.927-4.1l.559,1.92a8.353,8.353,0,0,0-4.8,3.257c-1.466,2.3-1.488,5.849-.059,9.255,1.4,3.337,3.886,5.753,6.489,6.305a8.476,8.476,0,0,0,5.94-1.321l1.027,1.715A11.147,11.147,0,0,1,222.251,249.566Z"/><path d="M312.75,250.674l-.012-2c1.159-.007,7.134-.285,10.956-5.109,1.016-1.282,4.2-5.85,2.549-10.8a10.147,10.147,0,0,0-3.106-4.474l1.294-1.525a12.133,12.133,0,0,1,3.708,5.365c1.971,5.9-1.7,11.192-2.876,12.673C320.873,250.347,314.069,250.666,312.75,250.674Z"/><path d="M269.629,435.856q-3.041,0-6.066-.3a66.536,66.536,0,0,1-39.8-19.1,74.361,74.361,0,0,1-20.975-41.3l-.012-.152-.336-169.67.017-.093c5.7-30.475,30.559-53.776,60.441-56.664,33.384-3.227,64.8,19.664,73.07,53.245l.029.233,1.093,175.549-.531,0a65.641,65.641,0,0,1-10.148,27.554A69.42,69.42,0,0,1,269.629,435.856Zm-64.857-60.928c4.94,31.548,29.188,55.656,58.991,58.637,23.337,2.336,47.834-9.519,60.972-29.5a63.784,63.784,0,0,0,9.928-27.412l-.984-18.04L235.527,258.45l1.428-1.4,98,100.013-.964-154.873c-8.078-32.561-38.52-54.747-70.908-51.618-28.971,2.8-53.075,25.39-58.65,54.95Z"/><path d="M280.357,409.723c-24.076,0-40.889-13.523-47.163-19.526-14.372-13.754-18.313-29.862-22.486-46.917-5.263-21.51-4.845-37.019-4.213-60.494.331-12.294.742-27.594.4-47.226-.223-12.821-.732-25.711-1.511-38.312l2-.124c.781,12.631,1.291,25.551,1.515,38.4.344,19.676-.069,35-.4,47.314-.628,23.314-1.042,38.716,4.157,59.966,4.1,16.763,7.975,32.6,21.926,45.947,6.347,6.073,23.792,20.073,48.722,18.9,29.918-1.406,47.284-23.549,50.461-27.973l1.625,1.166c-3.272,4.556-21.155,27.356-51.993,28.805C282.37,409.7,281.355,409.723,280.357,409.723Z"/></g></svg>