<svg xmlns="http://www.w3.org/2000/svg" viewBox="0 0 528.571 521.196"><defs><style>.cls-1{fill:#231f20;}.cls-2{fill:#616060;}.cls-3{fill:#8d8989;}</style></defs><title>icon</title><g id="Layer_11" data-name="Layer 11"><path d="M154.58,437.09c-16.069,7.672-32.464,14.441-50.032,17.909a10.721,10.721,0,0,1-3.042-.3c.627-.715,1.114-1.7,1.9-2.1,6.873-3.481,13.672-7.154,20.74-10.2,11.049-4.754,22.311-9.013,33.446-13.57,9.024-3.694,18.005-7.5,26.97-11.331a3.177,3.177,0,0,0,1.393-1.853c1.6-5.017,3.142-10.056,4.649-15.1,1.555-5.209,4.437-8.834,10.575-8.9.253-2.383.623-4.71.726-7.049.372-8.5.935-17.007.878-25.508-.042-6.207-1.093-12.4-1.383-18.616a8.3,8.3,0,0,0-2-5.05,27.027,27.027,0,0,1-5.8-16.868c-.089-8.677-.278-17.353-.462-26.028-.029-1.37-.261-2.735-.386-3.976-1.969,0-3.543.071-5.109-.013-4.482-.239-7.333-2.45-8.1-6.836-.711-4.069-2.57-7.529-4.488-11.079a46.24,46.24,0,0,1-3.57-8.921c-1.259-4.289-1.95-8.746-3.217-13.033a38.158,38.158,0,0,1-1.63-15.622c.391-3.195,1.19-6.175,3.912-8.313a3.04,3.04,0,0,0,.845-1.964c.429-4.738-1.595-8.921-3.148-13.194-2.6-7.156-4.555-14.407-4.007-22.137a5.9,5.9,0,0,0-.611-2.7c-5.049-11.126-4.837-22.449-1.26-33.873.58-1.855,1.217-3.533.923-5.613-1.4-9.919,2.024-18.3,8.811-25.367a19.014,19.014,0,0,0,5.5-9.722c1.293-5.129,3.688-9.734,9.3-10.82a8.522,8.522,0,0,0,5.545-3.179,26.343,26.343,0,0,1,2.579-2.433,63.258,63.258,0,0,1,5.483-5.06,65.966,65.966,0,0,1,6.419-3.685,6.649,6.649,0,0,0,2.158-1.447c4.725-6.513,10.827-10.391,19.092-10.379a2.7,2.7,0,0,0,1.6-.778c5.543-5.105,12.815-6.9,19.326-10.15.082-.04.26.113.626.286-.327,1.434-.665,2.92-1.055,4.634,4.345-.91,8.538-1.87,12.766-2.64a6.691,6.691,0,0,0,4.955-3.629c1.262-2.463,2.105-5.139,3.164-7.811,3.2.493,3.673.809,5.381,4.68a44.479,44.479,0,0,1,3.912,18.811c-.1,6.968-2.349,13.443-4.395,19.988a51.731,51.731,0,0,0-2.621,10.959,60.065,60.065,0,0,0,5.248,30.169c.906,2,.5,2.682-1.621,2.562-2.248-.127-4.519-.979-6.708-.769-5.047.484-9.676-.773-14.28-2.5-.49-.183-1.13-.453-1.54-.288-3.5,1.416-6.963.693-10.46.019a2.377,2.377,0,0,0-1.955.61c-3.034,3.841-7.171,4.39-11.668,4.34-3.11-.035-6.226.332-9.336.573-.311.025-.585.437-.889.652a26.33,26.33,0,0,1-3.841,2.645c-3.027,1.408-6.334,2.183-8.983,4.43a5.082,5.082,0,0,1-3.052,1.132c-3-.009-3.862,1.794-4.476,4.3-1.608,6.556-3.405,13.066-5.095,19.6a5.925,5.925,0,0,0,0,1.613c.055,1.786.222,3.575.158,5.356-.138,3.847-2.037,7.5-.732,11.57.639,1.991.128,4.348.153,6.539a6.046,6.046,0,0,0,.139,2.536c2.639,4.978,2.2,10.059.585,15.144-1.251,3.943-1.716,7.884-.288,11.817a23.717,23.717,0,0,1,.249,14.61c-2.752,10.261-.6,19.8,4.17,28.966.671,1.288,1.45,2.519,2.179,3.776l-.251.172-3.786-3.857c-.072.349-.154.5-.123.631,3.246,13.133,3.883,26.446,3.01,39.9-.52,8,1.3,15.462,7.121,21.321,4.043,4.07,8.423,7.821,12.8,11.541,3.259,2.77,6.755,5.263,10.146,7.88l.524-.472-7.069-10.876.406-.4a20.082,20.082,0,0,1,3,2.385c4.518,5.238,9.459,10.207,13.3,15.913,6.233,9.263,14.73,13.861,25.578,14.731,8.648.694,7.733,2.458,8.819-7.452a6.205,6.205,0,0,1,.661-1.6c.445.457,1.195.861,1.285,1.379.507,2.924.861,5.875,1.256,8.818.207,1.542-.539,2.07-2.03,2.148-2.99.155-5.97.486-8.956.715a31.11,31.11,0,0,1-15.844-2.859c-7.077-3.314-11.745-9.094-16.035-15.328a8.941,8.941,0,0,0-3.234-2.883c-7.3-3.581-14.543-7.216-20.663-12.706-1.143-1.025-2.326-2-3.758-3.232,0,.979-.045,1.515.007,2.041.653,6.664,1.492,13.315,1.948,19.992.917,13.418.583,26.774-2.755,39.915a4.716,4.716,0,0,0,.209,2.295c1.1,3.905,3.981,6.371,7.175,8.468,10.781,7.078,22.207,12.951,34.594,16.562,8.66,2.525,17.567,4.2,26.38,6.193,3.772.851,3.789.772,2.851,4.4a.557.557,0,0,0,.013.39c1.628,2.466-.486,3.949-1.732,5.26-7.8,8.208-12.97,17.941-17.061,28.369-2.677,6.822-5.513,13.592-10.04,19.459-3.356,4.348-7.369,7.767-13.038,8.7-2.676.44-4-.336-4.828-2.889-.679-2.094-1.316-4.212-2.162-6.239-4.024-9.65-10.5-17.724-16.795-25.908-11.11-14.446-20.417-29.87-25.88-47.147Zm35.326-227.147a56.835,56.835,0,0,1-6.046,7.636,39.37,39.37,0,0,0,4.919-20.377,24.8,24.8,0,0,1-12.166,9.868,29.754,29.754,0,0,0,12.218-23.847,20.087,20.087,0,0,1-10.333,3.8c4.887-1.464,8.552-5.7,10.573-10.385.636-1.476,6.17-24.038,5.755-24.285l-9.771-5.831a22.721,22.721,0,0,0,16.341,1.153,22.541,22.541,0,0,1-13.438-9.9,21.488,21.488,0,0,0,25.854,3.407c-3.506-2.652-7-5.318-10.553-7.907l12.417,5.355-9.7-8.441a47.287,47.287,0,0,0,21.654,8.571c3.74.476,8.613-.256,9.534-3.913a25.885,25.885,0,0,1-12.309-12.868,29.221,29.221,0,0,0,21.573,10.77,43.193,43.193,0,0,1-14.506-19.378,42.187,42.187,0,0,0,28.944,20.684,29.433,29.433,0,0,1-8.706-30.639c-1.613,13.64,7.311,27.805,20.31,32.238-7.8-20-2.772-42.435,2.336-63.282l.578,7.39a35.164,35.164,0,0,0-2.461-20.128c-1.48,13.819-14.826,23.541-14.839,37.826a53.848,53.848,0,0,1,10.292-31.476,92.652,92.652,0,0,0-28.252,19.349,48.724,48.724,0,0,1,14.826-15.819A33.506,33.506,0,0,0,231.214,85.36a33.731,33.731,0,0,1,14.37-18.217c-13.237,4.445-25.943,18.031-26.88,32.5a69.284,69.284,0,0,1,4.851-21.334c-12.02,5.549-19.143,20.043-16.191,32.949a36.489,36.489,0,0,1-1.888-21.883,28.717,28.717,0,0,0-7.142,29.579,36.207,36.207,0,0,1-3.658-20.095c-7.329,8.552-10.355,23.346-4.7,33.587a42.653,42.653,0,0,1-4.851-26.335,27.885,27.885,0,0,0-3.5,23.851c-.349-1.094-3.728-6.024-5.227-5.75a3.934,3.934,0,0,0-2.336,2.073,40.7,40.7,0,0,0-4.257,32.941l-4.289-2.956c.979.676-.457,19.33-.271,21.731a124.053,124.053,0,0,0,3.877,22.777c3.207,11.874,9.177,30.162,20.34,36.836C192.17,229.634,190.653,218.308,189.906,209.943Zm59.569,272.242c3.334-7.122,6.3-14.428,9.892-21.415a54.9,54.9,0,0,1,14.212-17.653c-4-.674-7.938-1.156-11.793-2.018-17.166-3.84-33.483-9.922-48.308-19.491-3.84-2.479-7.1-5.919-10.424-9.123-3.593-3.46-3.754-7.936-3.071-12.537a4.584,4.584,0,0,0-.178-2.452,13.218,13.218,0,0,0-2.469,2.713c-2.751,5.568-5.391,11.191-7.989,16.833-1.119,2.432-.368,4.8.7,7.052,7.2,15.192,15.262,29.866,25.661,43.169,5.967,7.634,11.969,15.272,16.159,24.1,1.21,2.548,2.25,5.176,3.473,8.012C242.023,495.142,246.257,489.061,249.475,482.185ZM178.98,229.812c-1.336-1.194-3.024-2.327-4.783-1.989-2.015.387-3.173,2.506-3.766,4.469-2.6,8.61-.156,18.625,3.12,26.73,2.333,5.772,5.913,11.059,7.449,17.092.572,2.248.985,4.8,2.836,6.193,1.877,1.418,4.456,1.1,6.658,1.017,1.165-.041,1.728.156,1.743-1.185a2.545,2.545,0,0,0-1.329-2.109c-.564-.294-1.221-.367-1.8-.641a5.356,5.356,0,0,1-1.849-1.77,56.626,56.626,0,0,1-8.671-16.909,22.271,22.271,0,0,1-1.225-8.458,10.455,10.455,0,0,1,3.761-7.46l-3.933-4.946c-.382-.481-2.261-3.6-2.611-2.282a22.342,22.342,0,0,0-.3,10.14l-.718-.031c-1.355-.056-1.133-9.042-1.107-10.028a3.8,3.8,0,0,1,.863-2.779,2.588,2.588,0,0,1,2.529-.406,6.568,6.568,0,0,1,2.238,1.452c4.332,3.852,7.489,8.822,10.588,13.723l-.007-.1A29.592,29.592,0,0,0,178.98,229.812Zm8.342,27.945c-.231-.567-.985-1.461-1.221-1.381a2.777,2.777,0,0,0-1.637,1.372c-1.048,2.9-.307,5.486,1.725,7.843A7.646,7.646,0,0,0,187.322,257.757Zm-2.227-5.443-2.654-4.079-1.015.245-1.266,9.444Zm5.1,13.348c-1.537,1.908-1.389,3.848.629,5.955Z"/><path d="M268.365,218.525c-1.917,2.007-3.639,4.278-5.84,5.9-.973.717-2.925.006-4.417.131-9.05.755-17.643-1.741-26.318-3.639-10.713-2.345-21.4-4.837-32.455-2.131a5.778,5.778,0,0,1-2-.31,22.415,22.415,0,0,1,8.537-8.25c5.982-3.134,12.556-2.645,18.763-2.324,10.62.547,20.863,3.691,30.992,6.937a18.4,18.4,0,0,0,3.313.388l.851,2.7c.157-1.411.281-2.532.4-3.652l.864-.184c.546,1.534,1.093,3.069,1.682,4.721.431-1.12.86-2.231,1.288-3.341l.382.049V220.9l3.337-3.013Zm-30.581,1.029c5.989,1.22,12.11,1.8,18.173,2.653a13.243,13.243,0,0,0,1.713.009v-4.347a96.7,96.7,0,0,0-29.261-6.517,38.861,38.861,0,0,1-5.164-.526c-7.524-1.464-14.015,1.512-20.484,4.635-.113.055-.15.266-.273.5C214.563,214.492,226.139,217.18,237.784,219.554Z"/><path d="M225.579,232.1c3.657-.5,7.289-1.192,10.947-1.685,4.048-.547,7.753-.084,10.708,3.3a59.665,59.665,0,0,0,5.477,4.847c1.156,1.035,2.249,2.141,3.37,3.215l-.4.466-4.662-2.479-.49.583,2.607,2.125c-1.172.225-2.092.413-3.016.577-6.944,1.235-13.868,2.6-20.842,3.633-3,.443-5.942.085-7.521-3.382a30.286,30.286,0,0,0-3.374-4.786l-6.421,1.438C216.425,236.263,220.2,232.836,225.579,232.1Zm11.766,12.593a3.868,3.868,0,0,0,1.4-.227c.627-.1,1.254-.186,1.879-.292a14.84,14.84,0,0,0,3.584-.975c2.072-.922,4.926-1.64,4.586-5.143l-5.349-4.342c.1.071-.012.885-.019,1.02-.017.335-.046.67-.088,1a9.845,9.845,0,0,1-1.955,4.9,9.578,9.578,0,0,1-2.093,1.941,11.179,11.179,0,0,1-1.231.736c-.218.113-.438.218-.662.317-.437.194-.656.8-.2,1.014A.766.766,0,0,0,237.345,244.691Zm3.011-11.352c-.235-.205-.663-.151-.947-.156-.331-.007-1.031-.032-1.117.409-.059.3.122.635.149.934a8.144,8.144,0,0,1,.028,1.093,4.94,4.94,0,0,1-.55,2.1,4.09,4.09,0,0,1-2.941,2.011,4.81,4.81,0,0,1-1.471.058,4.085,4.085,0,0,1-2.836-1.811A8.174,8.174,0,0,1,229.48,235a.675.675,0,0,0-.1-.268c-.205-.278-.713.061-.919.186a1.712,1.712,0,0,0-.829,1.338,3.587,3.587,0,0,0,.291,1.57,6.945,6.945,0,0,0,6.891,4.257,6.364,6.364,0,0,0,5.651-5.471,12.087,12.087,0,0,0,.065-1.94c-.013-.374.143-1-.151-1.3ZM224.091,236.1a1.474,1.474,0,0,0-.652.193c-1.032.491-2.9.548-2.591,2.085a7.855,7.855,0,0,0,1.536,2.628,7.432,7.432,0,0,0,2.045,2.065,6.1,6.1,0,0,0,2.53.891c.362.047,2.9-.191,2.979-.087-1.2-1.631-2.47-3.251-3.585-4.942-.544-.825-1.055-2.645-2.185-2.826A.648.648,0,0,0,224.091,236.1Zm9.682-2.656c-.524.716-1.513,1.324-.975,2.331.291.545.924,1.312,1.619,1.2a2.561,2.561,0,0,0,1.445-1.2,1.552,1.552,0,0,0,.259-.563,1.422,1.422,0,0,0-.463-1.088,12.02,12.02,0,0,0-.811-1,.939.939,0,0,0-.44-.317C234.115,232.759,233.912,233.253,233.773,233.444Z"/><path d="M252.169,292.425c3.507,4,5.408,4.8,8.518,3.024-1.123-.285-1.881-.463-2.631-.671-2.206-.609-2.888-2.014-1.515-3.764,1.583-2.016,3.487-3.78,5.176-6.006l-6.511,3.526c-.4-4.593,1.552-8.42,4.294-11.994l-.415-.416c-.487.226-1.146.321-1.431.7-1.732,2.3-3.47,4.611-5.031,7.03-1.683,2.61-2.841,5.624-4.816,7.966-4.208,4.991-7.264,10.637-10.229,16.362a31.958,31.958,0,0,0-1.485,4.116l.65.33a17.8,17.8,0,0,0,1.174-1.983,30.438,30.438,0,0,1,7.908-10.429C248.232,298.037,250,295.148,252.169,292.425Z"/><path d="M254.728,237.019q-4.148-4.6-8.3-9.209c3.476.563,5.521,3.586,8.829,5.255-2.091-2.488-3.887-4.682-5.764-6.8a2.218,2.218,0,0,0-1.5-.588c-7.617-.08-15.239-.284-22.851-.092-4.439.111-7.771,3.205-11.364,5.388a49.371,49.371,0,0,0-7.124,5.523c3.1-1.364,6.229-2.662,9.288-4.11s6.006-3.062,9.034-4.541a4.057,4.057,0,0,1,1.806-.28c3.854.085,7.714.4,11.558.26A9.967,9.967,0,0,1,245.11,230c3.1,2.406,6.151,4.887,9.223,7.336Z"/><path d="M247.231,321.4c.546-2.68-.095-3.545-2.2-3.412a6.08,6.08,0,0,0-5.4,3.616,2.878,2.878,0,0,0,.3,2.478c.263.356,1.529.147,2.262-.077a7.883,7.883,0,0,0,1.854-1.249,8.967,8.967,0,0,0,9.308,1.184,46.831,46.831,0,0,1,16.992-3.025,4.38,4.38,0,0,1,1.45.564,13.275,13.275,0,0,0,2.812,1.075c.562.087,1.222-.463,1.838-.726a6.578,6.578,0,0,0-.92-1.733c-.658-.659-1.576-1.055-2.249-1.7-1.368-1.316-2.6-3.171-4.335-.417a.529.529,0,0,1-.426.159c-5.245-.591-9.683,2.454-14.612,3.211A45.732,45.732,0,0,1,247.231,321.4Z"/><path d="M223.136,325.372c-1.613-4.952-1.386-9.893-1.108-14.853a43.366,43.366,0,0,0-2.326-17.892c-2.038-5.44-5.713-9.457-10.8-12.922,2.164,4.089,4.095,7.768,6.055,11.432a42.548,42.548,0,0,1,4.75,19.527c.1,4.727.5,9.448,2.811,13.747C222.7,324.746,222.928,325.052,223.136,325.372Z"/><path d="M263.851,294.783a22.61,22.61,0,0,0,2.316-.372,4.624,4.624,0,0,1,4.131.956,16.234,16.234,0,0,0,4.427,1.9c.412.132,1.185-.311,1.516-.716.16-.2-.179-1.089-.53-1.372-4.973-4.009-10.552-6.124-17.026-5.129-1.349.208-1.7,1.751-.412,2.634a35.175,35.175,0,0,0,5.341,2.533Z"/><path d="M255.089,327.408a25.135,25.135,0,0,0,1.893,3.927c3.447,4.6,11.971,6.769,17.206,4.349.728-.336,1.146-1.343,1.708-2.039-.662-.459-1.284-1.216-2-1.313a15.536,15.536,0,0,0-4.231.046c-5.142.728-9.722-.114-13.235-4.324C256.305,327.9,256.038,327.855,255.089,327.408Z"/><path d="M263.108,406.959a49.093,49.093,0,0,0,1.594,6.826,28.173,28.173,0,0,0,3.624,6.785,8.072,8.072,0,0,0,4.052,2.41c.684.208,1.739-.81,2.626-1.272a17.381,17.381,0,0,0-1.793-2.331c-.771-.725-1.987-1.066-2.567-1.887-2.026-2.87-3.872-5.868-5.762-8.833-.391-.614-.68-1.294-1.016-1.944Z"/><path d="M270.2,245.913c0-3.383,1.111-7.343-.273-10.006-1.854-3.568-5.64-6.132-8.6-9.127l-.689.493c.528.935.988,1.918,1.6,2.8,1.835,2.643,3.878,5.155,5.531,7.9.757,1.256.829,2.939,1.141,4.443.243,1.17.376,2.363.558,3.546Z"/><path d="M234.989,251.976c7.526.3,14.166-1.6,20.7-4.744C246.366,247.036,238.5,249.225,234.989,251.976Z"/><path d="M253.03,319.293a34.72,34.72,0,0,0,4.451-1.065,24.6,24.6,0,0,0,3.952-2.1c4.355-2.619,8.849-3.548,13.73-.909-.751-3.37-4.786-5.326-8.369-4.056a19.628,19.628,0,0,0-5.256,3.046c-4.189,3.227-5.068,3.782-8.62,4.5Z"/><path d="M266.369,276.588c3.592-5.517,3.851-11.8,4.406-18.017C268.358,264.35,265.666,270.06,266.369,276.588Z"/><path d="M275.458,344.465c.294-1.754-.9-2.6-2.44-2.462-3.119.278-6.208.892-9.31,1.368l.092,1.094Z"/><path d="M266.832,281.058c-.927,4.215,1.327,7.545,6.8,10.354a3.728,3.728,0,0,0,2.712.009C272.419,288.522,267.859,286.508,266.832,281.058Z"/><path d="M273.256,302.1c-1.072,2.217-2.217,5.028-.558,8.027.4.729,1.89,1.615,2.4,1.382,1.429-.649.383-1.611-.013-2.652A62.678,62.678,0,0,1,273.256,302.1Z"/><path d="M221.644,248.538l-6.625-5.816A6.339,6.339,0,0,0,221.644,248.538Z"/><path d="M455.354,446.92c-6.873-3.479-13.676-7.153-20.744-10.2-11.049-4.755-22.307-9.011-33.442-13.571-9.025-3.693-18.008-7.5-26.972-11.33a3.177,3.177,0,0,1-1.393-1.853q-2.4-7.523-4.651-15.1c-1.554-5.21-4.436-8.836-10.57-8.9-.256-2.379-.626-4.707-.73-7.049-.37-8.5-.934-17.008-.877-25.507.042-6.2,1.095-12.4,1.384-18.615a8.318,8.318,0,0,1,2-5.053,27.012,27.012,0,0,0,5.807-16.866c.09-8.674.275-17.354.46-26.028.029-1.37.261-2.735.389-3.977,1.967,0,3.541.071,5.105-.01,4.484-.242,7.338-2.451,8.1-6.84.711-4.067,2.569-7.527,4.489-11.078a46.287,46.287,0,0,0,3.569-8.921c1.261-4.29,1.954-8.746,3.219-13.031a38.235,38.235,0,0,0,1.631-15.624c-.394-3.2-1.19-6.172-3.916-8.314a3.027,3.027,0,0,1-.843-1.963c-.427-4.735,1.6-8.921,3.147-13.192,2.6-7.158,4.555-14.4,4.01-22.137a5.857,5.857,0,0,1,.607-2.7c5.053-11.13,4.84-22.449,1.261-33.874-.578-1.858-1.218-3.536-.92-5.612,1.4-9.921-2.024-18.3-8.812-25.37a18.974,18.974,0,0,1-5.5-9.722c-1.294-5.129-3.688-9.732-9.3-10.817a8.555,8.555,0,0,1-5.546-3.181,25.748,25.748,0,0,0-2.578-2.432,63.564,63.564,0,0,0-5.48-5.062,66.163,66.163,0,0,0-6.423-3.683,6.637,6.637,0,0,1-2.157-1.446c-4.726-6.513-10.827-10.391-19.094-10.381a2.708,2.708,0,0,1-1.6-.778c-5.546-5.1-12.818-6.9-19.326-10.149-.086-.042-.261.114-.626.285.327,1.436.664,2.92,1.052,4.636-4.346-.91-8.537-1.872-12.765-2.64a6.689,6.689,0,0,1-4.954-3.631c-1.261-2.461-2.1-5.139-3.166-7.812-2.626.4-3.413.692-4.555,2.92-.252.488-.517,1.066-.825,1.763a44.427,44.427,0,0,0-3.911,18.809c.1,6.968,2.347,13.443,4.394,19.99.114.365.228.725.342,1.09a46.6,46.6,0,0,1,2.28,9.865,59.854,59.854,0,0,1-2.28,22.255A62.033,62.033,0,0,1,281.676,132c-.9,2-.5,2.683,1.621,2.56a13.107,13.107,0,0,0,1.347-.147,22.516,22.516,0,0,1,5.361-.621c5.048.483,9.675-.773,14.278-2.5.492-.185,1.132-.455,1.54-.289,3.5,1.417,6.963.7,10.462.019a2.374,2.374,0,0,1,1.953.611c3.038,3.84,7.172,4.39,11.67,4.337,3.11-.033,6.224.337,9.334.579.312.024.587.436.891.649a26.056,26.056,0,0,0,3.839,2.645c3.029,1.408,6.333,2.181,8.983,4.432a5.073,5.073,0,0,0,3.053,1.129c3-.01,3.863,1.8,4.475,4.294,1.611,6.556,3.408,13.069,5.095,19.606a5.725,5.725,0,0,1,0,1.612c-.052,1.787-.218,3.574-.156,5.356.137,3.849,2.038,7.5.73,11.571-.635,1.991-.128,4.347-.152,6.537a6.029,6.029,0,0,1-.137,2.536c-2.64,4.982-2.2,10.059-.583,15.145,1.246,3.944,1.711,7.883.284,11.817a23.716,23.716,0,0,0-.246,14.61c2.749,10.262.6,19.8-4.172,28.967-.673,1.285-1.45,2.517-2.18,3.773.085.057.17.119.251.176,1.237-1.261,2.47-2.517,3.788-3.858.071.35.151.5.123.63-3.247,13.135-3.883,26.446-3.01,39.9.521,8.007-1.3,15.463-7.12,21.322-4.044,4.072-8.423,7.821-12.8,11.542-3.256,2.769-6.754,5.262-10.144,7.879-.175-.157-.35-.313-.521-.47l7.068-10.879c-.138-.132-.271-.27-.408-.4a20.24,20.24,0,0,0-3,2.384c-4.517,5.238-9.457,10.2-13.3,15.913-6.234,9.262-14.733,13.86-25.579,14.728-8.651.7-7.731,2.46-8.821-7.452a6.022,6.022,0,0,0-.659-1.593,2.221,2.221,0,0,1-.194.18c-.441.384-1.015.749-1.091,1.195-.507,2.925-.862,5.878-1.256,8.822-.208,1.54.541,2.066,2.029,2.147.1,0,.213.01.318.019,2.886.161,5.754.474,8.636.7a31.121,31.121,0,0,0,15.847-2.859c7.077-3.318,11.746-9.1,16.036-15.329a8.947,8.947,0,0,1,3.233-2.883c7.295-3.583,14.543-7.219,20.663-12.708,1.142-1.024,2.327-2,3.759-3.233,0,.981.042,1.517-.01,2.043-.654,6.665-1.493,13.315-1.948,19.994-.915,13.415-.583,26.773,2.759,39.913a4.736,4.736,0,0,1-.213,2.294c-1.1,3.907-3.978,6.371-7.172,8.471-10.784,7.077-22.208,12.951-34.595,16.563-8.66,2.521-17.567,4.2-26.379,6.191-.218.047-.422.094-.616.142-3.157.716-3.124.839-2.238,4.261a.542.542,0,0,1-.014.389c-1.626,2.469.488,3.953,1.735,5.262.175.184.346.365.517.549,7.513,8.092,12.542,17.625,16.543,27.821,2.678,6.821,5.513,13.59,10.04,19.459,3.356,4.346,7.371,7.769,13.04,8.7,2.674.441,4-.337,4.826-2.887.678-2.1,1.318-4.214,2.161-6.238,4.025-9.651,10.5-17.724,16.795-25.91,11.111-14.449,20.416-29.868,25.882-47.147,9.954,4.75,20.1,9.595,30.247,14.439,16.07,7.674,32.466,14.444,50.033,17.909a10.775,10.775,0,0,0,3.044-.294C456.629,448.309,456.141,447.318,455.354,446.92Zm-91.42-300.242,9.769-5.83A22.728,22.728,0,0,1,357.363,142a22.539,22.539,0,0,0,13.439-9.9,21.49,21.49,0,0,1-25.853,3.408c3.5-2.654,7-5.318,10.552-7.906q-6.207,2.673-12.42,5.356,4.857-4.224,9.7-8.442a47.266,47.266,0,0,1-21.654,8.57c-3.74.479-8.613-.256-9.532-3.911a25.891,25.891,0,0,0,12.31-12.87,29.228,29.228,0,0,1-21.573,10.77,43.24,43.24,0,0,0,14.5-19.378A42.2,42.2,0,0,1,297.9,128.381a29.437,29.437,0,0,0,8.7-30.641c1.617,13.638-7.309,27.806-20.307,32.238.185-.464.356-.934.526-1.4s.327-.939.484-1.413c.227-.706.445-1.412.649-2.128.085-.3.171-.6.247-.9s.156-.592.227-.886c.067-.27.133-.54.195-.806s.127-.54.184-.81q.135-.612.256-1.223c.015-.057.024-.109.034-.166.061-.323.123-.64.18-.963.019-.09.033-.18.047-.27q.114-.662.213-1.322c.072-.441.133-.882.19-1.323.043-.327.085-.659.123-.991q.163-1.394.266-2.8c.023-.323.047-.645.066-.967.029-.446.052-.9.071-1.346.014-.332.029-.664.038-1s.019-.663.024-1c.014-.815.019-1.626,0-2.441,0-.223,0-.451-.01-.673-.009-.607-.024-1.214-.052-1.821-.019-.512-.043-1.028-.071-1.54-.029-.574-.067-1.147-.109-1.721-.038-.521-.081-1.038-.128-1.559-.038-.427-.076-.858-.119-1.285-.014-.166-.028-.332-.047-.493q-.07-.7-.157-1.408-.135-1.186-.293-2.379c-.062-.446-.124-.892-.19-1.342-.114-.81-.242-1.626-.37-2.441-.123-.749-.251-1.5-.379-2.242-.071-.389-.142-.782-.213-1.171-.029-.171-.062-.346-.1-.522-.067-.369-.138-.739-.209-1.1-.042-.237-.09-.474-.137-.711-.076-.389-.152-.777-.232-1.166-.209-1.048-.427-2.1-.655-3.148q-.27-1.251-.549-2.5c-.01-.052-.024-.1-.038-.161-.086-.388-.176-.772-.261-1.156-.185-.806-.37-1.612-.559-2.413l-.526-2.195c-.09-.379-.181-.763-.275-1.147-.228-.943-.455-1.887-.688-2.825q-.291,3.7-.578,7.39a34.372,34.372,0,0,1-.5-6.869c0-.3.018-.607.037-.91s.034-.607.057-.91c.043-.607.109-1.209.19-1.815.043-.342.09-.683.147-1.024.038-.237.076-.484.123-.726,0-.019,0-.033.01-.047.056-.3.109-.6.175-.9,0-.014,0-.033.009-.047.057-.285.124-.564.19-.844s.133-.564.209-.844.142-.531.222-.8.157-.526.237-.787c.053-.171.11-.337.162-.5.085-.265.175-.526.27-.787.185-.516.379-1.033.592-1.54.105-.265.218-.526.332-.782,1.484,13.818,14.828,23.54,14.842,37.822a53.86,53.86,0,0,0-10.291-31.475,92.7,92.7,0,0,1,28.251,19.35,48.808,48.808,0,0,0-14.827-15.818,33.509,33.509,0,0,1,23.734,15.841,33.764,33.764,0,0,0-14.372-18.216c13.031,4.375,25.545,17.61,26.83,31.821a69.208,69.208,0,0,0-4.8-20.658c12.021,5.551,19.146,20.046,16.193,32.949a36.461,36.461,0,0,0,1.886-21.881,28.719,28.719,0,0,1,7.144,29.58,36.249,36.249,0,0,0,3.659-20.1c7.329,8.556,10.353,23.35,4.7,33.589a42.655,42.655,0,0,0,4.849-26.336,27.889,27.889,0,0,1,3.5,23.852c.351-1.095,3.726-6.024,5.229-5.75A3.945,3.945,0,0,1,384.7,120.6a40.716,40.716,0,0,1,4.256,32.945q2.141-1.479,4.286-2.958c-.977.673.459,19.331.275,21.729A124.407,124.407,0,0,1,389.64,195.1c-3.209,11.874-9.177,30.162-20.34,36.836-2.712-7.978-1.195-19.3-.446-27.669A56.846,56.846,0,0,0,374.9,211.9a39.318,39.318,0,0,1-4.916-20.378,24.778,24.778,0,0,0,12.164,9.869,29.735,29.735,0,0,1-12.216-23.844,20.124,20.124,0,0,0,10.334,3.8c-4.888-1.465-8.556-5.7-10.576-10.386C369.053,169.488,363.517,146.924,363.934,146.678Zm4,119.26c.223-2.133.427-4.034.63-5.954C370.105,261.889,369.958,263.833,367.939,265.938Zm-.09,8.414c.564-.294,1.223-.365,1.8-.64a5.381,5.381,0,0,0,1.848-1.773,56.578,56.578,0,0,0,8.675-16.909,22.25,22.25,0,0,0,1.223-8.456,10.454,10.454,0,0,0-3.759-7.461q1.962-2.475,3.93-4.944c.384-.484,2.261-3.6,2.611-2.285a22.339,22.339,0,0,1,.3,10.139l.715-.028c1.361-.057,1.138-9.045,1.11-10.031a3.789,3.789,0,0,0-.863-2.777,2.6,2.6,0,0,0-2.531-.408,6.575,6.575,0,0,0-2.233,1.455c-4.337,3.849-7.489,8.822-10.59,13.723,0-.033,0-.066,0-.1a29.6,29.6,0,0,1,9.689-19.725c1.337-1.194,3.025-2.327,4.783-1.99,2.015.388,3.171,2.507,3.764,4.47,2.6,8.608.156,18.624-3.119,26.73-2.332,5.774-5.911,11.059-7.447,17.093-.574,2.247-.986,4.793-2.84,6.191-1.877,1.417-4.455,1.095-6.655,1.019-1.166-.042-1.73.157-1.744-1.185A2.543,2.543,0,0,1,367.849,274.352Zm6.447-22.284c1.047,2.906.308,5.489-1.726,7.845a7.655,7.655,0,0,1-1.133-7.836c.233-.564.986-1.46,1.223-1.379A2.772,2.772,0,0,1,374.3,252.068Zm-.631-5.432c.673-1.039,1.664-2.56,2.655-4.082.336.085.673.166,1.014.247.4,3.014.806,6.029,1.266,9.442C376.775,250.172,375.429,248.641,373.665,246.636Zm-4.953,171.781c-7.2,15.193-15.264,29.863-25.659,43.17-5.968,7.631-11.969,15.268-16.165,24.1-1.208,2.55-2.246,5.176-3.469,8.011-6.684-4.233-10.917-10.315-14.136-17.193-3.332-7.12-6.3-14.424-9.893-21.412a54.825,54.825,0,0,0-14.211-17.652c4-.674,7.94-1.157,11.794-2.02,17.164-3.839,33.485-9.921,48.308-19.492,3.839-2.479,7.1-5.92,10.423-9.12,3.594-3.46,3.755-7.94,3.072-12.538a4.54,4.54,0,0,1,.18-2.45,13.225,13.225,0,0,1,2.47,2.711c2.749,5.565,5.39,11.192,7.987,16.833C370.532,413.8,369.783,416.161,368.712,418.417Z"/><path d="M368.712,418.417c-7.2,15.193-15.264,29.863-25.659,43.17-5.968,7.631-11.969,15.268-16.165,24.1-1.208,2.55-2.246,5.176-3.469,8.011-6.684-4.233-10.917-10.315-14.136-17.193-3.332-7.12-6.3-14.424-9.893-21.412a54.825,54.825,0,0,0-14.211-17.652c4-.674,7.94-1.157,11.794-2.02,17.164-3.839,33.485-9.921,48.308-19.492,3.839-2.479,7.1-5.92,10.423-9.12,3.594-3.46,3.755-7.94,3.072-12.538a4.54,4.54,0,0,1,.18-2.45,13.225,13.225,0,0,1,2.47,2.711c2.749,5.565,5.39,11.192,7.987,16.833C370.532,413.8,369.783,416.161,368.712,418.417Z"/><path d="M393.518,172.318A124.407,124.407,0,0,1,389.64,195.1c-3.209,11.874-9.177,30.162-20.34,36.836-2.712-7.978-1.195-19.3-.446-27.669A56.846,56.846,0,0,0,374.9,211.9a39.318,39.318,0,0,1-4.916-20.378,24.778,24.778,0,0,0,12.164,9.869,29.735,29.735,0,0,1-12.216-23.843,20.131,20.131,0,0,0,10.334,3.8c-4.888-1.464-8.556-5.7-10.576-10.386-.635-1.474-6.171-24.037-5.754-24.284l9.769-5.83A22.734,22.734,0,0,1,357.363,142a22.545,22.545,0,0,0,13.439-9.9,21.49,21.49,0,0,1-25.853,3.408c3.5-2.654,7-5.318,10.552-7.906q-6.207,2.673-12.42,5.356,4.857-4.224,9.7-8.442a47.255,47.255,0,0,1-21.654,8.57c-3.74.479-8.613-.256-9.532-3.911a25.893,25.893,0,0,0,12.31-12.869,29.23,29.23,0,0,1-21.573,10.769,43.24,43.24,0,0,0,14.5-19.378A42.2,42.2,0,0,1,297.9,128.381a29.437,29.437,0,0,0,8.7-30.641c1.617,13.638-7.309,27.806-20.307,32.238,7.8-20,2.773-42.434-2.337-63.282q-.291,3.7-.578,7.39a35.159,35.159,0,0,1,2.46-20.127c1.484,13.818,14.828,23.54,14.842,37.822a53.86,53.86,0,0,0-10.291-31.475,92.7,92.7,0,0,1,28.251,19.35,48.808,48.808,0,0,0-14.827-15.818A33.51,33.51,0,0,1,327.547,79.68a33.763,33.763,0,0,0-14.372-18.217c13.031,4.375,25.545,17.61,26.83,31.821a69.208,69.208,0,0,0-4.8-20.658c12.021,5.551,19.146,20.047,16.193,32.949a36.458,36.458,0,0,0,1.886-21.88,28.717,28.717,0,0,1,7.144,29.579,36.249,36.249,0,0,0,3.659-20.1c7.329,8.556,10.353,23.35,4.7,33.589a42.653,42.653,0,0,0,4.849-26.336,27.889,27.889,0,0,1,3.5,23.852c.351-1.095,3.726-6.024,5.229-5.749A3.94,3.94,0,0,1,384.7,120.6a40.716,40.716,0,0,1,4.256,32.945q2.141-1.479,4.286-2.958C392.266,151.262,393.7,169.92,393.518,172.318Z"/><path d="M352.889,204.547c-5.982-3.134-12.557-2.645-18.762-2.328-10.623.55-20.862,3.693-30.992,6.94a18.859,18.859,0,0,1-3.313.389l-.854,2.7c-.156-1.413-.279-2.531-.4-3.65-.29-.062-.579-.123-.863-.185-.55,1.536-1.095,3.067-1.683,4.721q-.646-1.679-1.289-3.342c-.128.015-.256.033-.384.048v5.375L291.01,212.2c-.2.218-.408.432-.617.645,1.92,2,3.641,4.276,5.84,5.9.977.716,2.925,0,4.418.133,9.049.753,17.643-1.745,26.318-3.641,10.713-2.346,21.407-4.835,32.457-2.133a5.663,5.663,0,0,0,2-.308A22.423,22.423,0,0,0,352.889,204.547Zm-31.911,9.329c-5.992,1.218-12.112,1.8-18.175,2.654a13.642,13.642,0,0,1-1.716.01v-4.352a96.711,96.711,0,0,1,29.262-6.513,39.191,39.191,0,0,0,5.167-.526c7.523-1.465,14.012,1.512,20.482,4.631.114.057.152.27.275.5C344.2,208.813,332.62,211.5,320.978,213.876Z"/><path d="M333.179,226.418c-3.655-.5-7.286-1.189-10.945-1.682-4.049-.55-7.755-.086-10.709,3.3a60.158,60.158,0,0,1-5.475,4.844c-1.156,1.038-2.251,2.143-3.37,3.219.133.151.266.308.4.464q2.332-1.238,4.66-2.479c.166.194.327.389.493.583-.83.673-1.655,1.346-2.607,2.124,1.17.227,2.09.412,3.014.578,6.945,1.237,13.87,2.6,20.843,3.636,3,.441,5.94.08,7.523-3.385a30.451,30.451,0,0,1,3.37-4.787c1.963.44,3.854.862,6.423,1.441C342.332,230.585,338.559,227.158,333.179,226.418ZM323.1,228.447a11.062,11.062,0,0,1,.811-1c.123-.123.275-.294.441-.317.294-.043.493.45.635.64.521.715,1.512,1.327.971,2.332-.289.545-.924,1.313-1.616,1.194A2.566,2.566,0,0,1,322.9,230.1a1.575,1.575,0,0,1-.26-.564A1.41,1.41,0,0,1,323.1,228.447Zm-1.536,10.514a.594.594,0,0,1-.151.052,3.859,3.859,0,0,1-1.4-.227c-.626-.095-1.251-.185-1.877-.294a14.827,14.827,0,0,1-3.583-.972c-2.072-.924-4.926-1.64-4.589-5.143,1.574-1.275,3.328-2.7,5.352-4.342-.1.071.009.882.019,1.019.014.337.042.668.085,1a9.875,9.875,0,0,0,1.958,4.9,9.532,9.532,0,0,0,2.09,1.939,11.207,11.207,0,0,0,1.233.74c.218.109.436.218.663.317C321.8,238.141,322.02,238.753,321.565,238.961Zm2.375-2.56a6.368,6.368,0,0,1-5.65-5.475,11.929,11.929,0,0,1-.062-1.938c.01-.375-.142-1,.147-1.3a.322.322,0,0,0,.028-.024c.237-.2.664-.151.949-.156.331,0,1.028-.033,1.114.408.061.3-.119.635-.147.933a7.559,7.559,0,0,0-.029,1.095,5.018,5.018,0,0,0,.55,2.1,4.085,4.085,0,0,0,2.939,2.01,4.835,4.835,0,0,0,1.474.057,4.07,4.07,0,0,0,2.835-1.811,8.2,8.2,0,0,0,1.19-2.986.738.738,0,0,1,.1-.266c.2-.279.711.062.92.185a1.734,1.734,0,0,1,.829,1.337,3.632,3.632,0,0,1-.294,1.569A6.945,6.945,0,0,1,323.94,236.4Zm13.97-3.7a7.857,7.857,0,0,1-1.536,2.631,7.5,7.5,0,0,1-2.043,2.062,6.031,6.031,0,0,1-2.531.891c-.361.048-2.9-.189-2.977-.085,1.2-1.631,2.469-3.252,3.583-4.944.545-.825,1.057-2.645,2.185-2.825.024,0,.053,0,.076-.01a1.491,1.491,0,0,1,.654.194C336.355,231.106,338.222,231.163,337.91,232.7Z"/><path d="M352.1,230.813c-3.1-1.366-6.229-2.66-9.286-4.11s-6.006-3.063-9.035-4.541a4.05,4.05,0,0,0-1.806-.28c-3.854.085-7.712.4-11.557.261a9.981,9.981,0,0,0-6.764,2.18c-3.105,2.408-6.153,4.887-9.224,7.338-.128-.109-.261-.213-.394-.322l8.3-9.206c-3.475.559-5.518,3.584-8.827,5.252,2.091-2.488,3.887-4.683,5.764-6.8a2.2,2.2,0,0,1,1.494-.588c7.617-.08,15.239-.284,22.852-.095,4.437.114,7.77,3.2,11.363,5.39A49.168,49.168,0,0,1,352.1,230.813Z"/><path d="M284.644,313.354v3.4a3.91,3.91,0,0,1-.5.119c-.564.085-1.223-.465-1.839-.726a6.632,6.632,0,0,1,.919-1.735A9.537,9.537,0,0,1,284.644,313.354Z"/><path d="M284.644,288.3v3.1c-.2.066-.4.132-.607.194-.413.133-1.19-.308-1.517-.716-.161-.194.175-1.09.526-1.37C283.572,289.08,284.1,288.677,284.644,288.3Z"/><path d="M284.644,326.708v3.327l-.071-.028c-.73-.337-1.148-1.346-1.712-2.038A8.18,8.18,0,0,1,284.644,326.708Z"/><path d="M295.65,401.281a48.7,48.7,0,0,1-1.592,6.826,28.1,28.1,0,0,1-3.627,6.783,8.068,8.068,0,0,1-4.048,2.413c-.464.138-1.1-.284-1.739-.716a9.616,9.616,0,0,0-.887-.559c.3-.408.588-.839.887-1.256a7.015,7.015,0,0,1,.9-1.071c.773-.726,1.986-1.067,2.564-1.892,2.029-2.868,3.873-5.868,5.765-8.831.388-.616.677-1.294,1.014-1.943C295.148,401.115,295.4,401.2,295.65,401.281Z"/><path d="M298.12,221.593c-.526.938-.986,1.919-1.6,2.8-1.835,2.646-3.878,5.158-5.532,7.9-.754,1.257-.83,2.939-1.138,4.447-.246,1.171-.379,2.36-.559,3.545-.242-.018-.489-.033-.73-.047,0-3.384-1.114-7.347.27-10.007,1.853-3.569,5.641-6.133,8.6-9.129C297.66,221.266,297.892,221.432,298.12,221.593Z"/><path d="M323.77,246.3c-7.528.3-14.164-1.6-20.7-4.745C312.393,241.36,320.262,243.545,323.77,246.3Z"/><path d="M284.644,307.4v1.626c-.346.156-.7.327-1.048.516A5.172,5.172,0,0,1,284.644,307.4Z"/><path d="M284.644,336.416v2.37H283.3A1.889,1.889,0,0,1,284.644,336.416Z"/><path d="M284.644,284.192v1.716a4.345,4.345,0,0,1-2.224-.165C283.15,285.2,283.9,284.7,284.644,284.192Z"/><path d="M286.061,304.447a3.476,3.476,0,0,1-1.417,1.19,1.365,1.365,0,0,1-.986.195c-1.427-.65-.384-1.612.014-2.655a29.023,29.023,0,0,0,.972-3.195c.308-1.218.564-2.427.858-3.56C286.578,298.641,287.72,301.452,286.061,304.447Z"/><path d="M343.74,237.041a6.333,6.333,0,0,1-6.622,5.816C339.554,240.72,341.531,238.98,343.74,237.041Z"/><path d="M365.318,238.492a23.716,23.716,0,0,1,.246-14.61c1.427-3.934.962-7.873-.284-11.817-1.617-5.086-2.057-10.163.583-15.145a6.029,6.029,0,0,0,.137-2.536c.024-2.19-.483-4.546.152-6.537,1.308-4.067-.593-7.722-.73-11.571-.062-1.782.1-3.569.156-5.356a5.725,5.725,0,0,0,0-1.612c-1.687-6.537-3.484-13.05-5.095-19.606-.612-2.5-1.47-4.3-4.475-4.294a5.073,5.073,0,0,1-3.053-1.129c-2.65-2.251-5.954-3.024-8.983-4.432a26.056,26.056,0,0,1-3.839-2.645c-.3-.213-.579-.625-.891-.649-3.11-.242-6.224-.612-9.334-.579-4.5.053-8.632-.5-11.67-4.337a2.374,2.374,0,0,0-1.953-.611c-3.5.678-6.959,1.4-10.462-.019-.408-.166-1.048.1-1.54.289-4.6,1.725-9.23,2.981-14.278,2.5a22.516,22.516,0,0,0-5.361.621V284.192c3.266-2.213,6.446-4.37,7.285-8.812.925,4.214-1.327,7.547-6.8,10.353a1.9,1.9,0,0,1-.488.175V288.3a20.515,20.515,0,0,1,15.429-3.924c1.351.208,1.7,1.749.412,2.63a35.469,35.469,0,0,1-5.337,2.536c-.081-.147-.161-.289-.242-.436a22.1,22.1,0,0,1-2.313-.369,4.624,4.624,0,0,0-4.134.952,14.018,14.018,0,0,1-3.815,1.707v8.589c.308-1.218.564-2.427.858-3.56,1.076,2.219,2.218,5.03.559,8.025a3.476,3.476,0,0,1-1.417,1.19V307.4a6.676,6.676,0,0,1,7.323-1.915,19.8,19.8,0,0,1,5.257,3.043c4.186,3.228,5.068,3.782,8.618,4.508-.038.194-.076.384-.114.578a34.725,34.725,0,0,1-4.451-1.067,24.3,24.3,0,0,1-3.953-2.1c-4.039-2.427-8.2-3.4-12.68-1.422v4.327a6.244,6.244,0,0,0,.829-.644c1.37-1.318,2.6-3.172,4.337-.418a.517.517,0,0,0,.427.157c5.243-.588,9.684,2.455,14.609,3.214a45.938,45.938,0,0,0,6.684.052c-.55-2.678.1-3.546,2.2-3.408a6.076,6.076,0,0,1,5.4,3.612,2.874,2.874,0,0,1-.308,2.479c-.261.355-1.527.147-2.261-.076a8.053,8.053,0,0,1-1.854-1.251,8.962,8.962,0,0,1-9.31,1.185,46.736,46.736,0,0,0-16.989-3.024,4.38,4.38,0,0,0-1.45.564,22.534,22.534,0,0,1-2.313.957v9.955a1.1,1.1,0,0,1,.213-.052,15.628,15.628,0,0,1,4.233.042c5.143.73,9.722-.113,13.235-4.323.128-.156.4-.2,1.346-.645a25.347,25.347,0,0,1-1.891,3.925c-3.437,4.589-11.9,6.75-17.136,4.38v6.381a3.037,3.037,0,0,1,1.1-.09c3.119.275,6.2.891,9.31,1.365-.033.365-.061.73-.095,1.1H284.644v22.449a2.221,2.221,0,0,0,.194-.18,6.022,6.022,0,0,1,.659,1.593c1.09,9.912.17,8.149,8.821,7.452,10.846-.868,19.345-5.466,25.579-14.728,3.839-5.708,8.779-10.675,13.3-15.913a20.24,20.24,0,0,1,3-2.384c.137.132.27.27.408.4l-7.068,10.879c.171.157.346.313.521.47,3.39-2.617,6.888-5.11,10.144-7.879,4.381-3.721,8.76-7.47,12.8-11.542,5.821-5.859,7.641-13.315,7.12-21.322-.873-13.457-.237-26.768,3.01-39.9.028-.128-.052-.28-.123-.63-1.318,1.341-2.551,2.6-3.788,3.858-.081-.057-.166-.119-.251-.176.73-1.256,1.507-2.488,2.18-3.773C365.92,258.3,368.067,248.754,365.318,238.492ZM292.389,270.91c-3.593-5.517-3.849-11.8-4.4-18.018C290.4,258.671,293.1,264.383,292.389,270.91Zm4.134-46.521c-1.835,2.646-3.878,5.158-5.532,7.9-.754,1.257-.83,2.939-1.138,4.447-.246,1.171-.379,2.36-.559,3.545-.242-.018-.489-.033-.73-.047,0-3.384-1.114-7.347.27-10.007,1.853-3.569,5.641-6.133,8.6-9.129.227.166.459.332.687.493C297.594,222.531,297.134,223.512,296.523,224.389Zm25.493,82.561a17.7,17.7,0,0,1-1.171-1.986,30.546,30.546,0,0,0-7.912-10.428c-2.4-2.176-4.171-5.068-6.342-7.788-3.508,4-5.409,4.8-8.518,3.024,1.123-.285,1.881-.465,2.63-.673,2.205-.607,2.887-2.015,1.517-3.764-1.583-2.015-3.489-3.778-5.176-6.006,2.138,1.157,4.276,2.318,6.508,3.527.4-4.594-1.55-8.419-4.294-11.993l.417-.417c.488.227,1.147.322,1.431.7,1.731,2.3,3.47,4.608,5.03,7.03,1.683,2.607,2.839,5.622,4.816,7.964,4.209,4.991,7.267,10.637,10.229,16.363a31.8,31.8,0,0,1,1.484,4.115C322.452,306.728,322.234,306.841,322.016,306.95Zm-18.942-65.4c9.319-.194,17.188,1.991,20.7,4.745C316.242,246.6,309.606,244.7,303.074,241.554Zm26.412-.545c-6.973-1.034-13.9-2.4-20.843-3.636-.924-.166-1.844-.351-3.014-.578.952-.778,1.777-1.451,2.607-2.124-.166-.194-.327-.389-.493-.583q-2.333,1.238-4.66,2.479c-.137-.156-.27-.313-.4-.464,1.119-1.076,2.214-2.181,3.37-3.219a60.158,60.158,0,0,0,5.475-4.844c2.954-3.39,6.66-3.854,10.709-3.3,3.659.493,7.29,1.18,10.945,1.682,5.38.74,9.153,4.167,13.623,7.86-2.569-.579-4.46-1-6.423-1.441a30.451,30.451,0,0,0-3.37,4.787C335.426,241.089,332.487,241.45,329.486,241.009Zm14.254-3.968a6.333,6.333,0,0,1-6.622,5.816C339.554,240.72,341.531,238.98,343.74,237.041Zm.067,48.417a42.544,42.544,0,0,0-4.755,19.525c-.1,4.731-.5,9.452-2.811,13.751-.18.332-.408.64-.616.958,1.611-4.949,1.384-9.893,1.1-14.851a43.438,43.438,0,0,1,2.328-17.894c2.038-5.438,5.712-9.457,10.8-12.922C347.693,278.116,345.764,281.794,343.807,285.458Zm-1-58.755c-3.043-1.441-6.006-3.063-9.035-4.541a4.05,4.05,0,0,0-1.806-.28c-3.854.085-7.712.4-11.557.261a9.981,9.981,0,0,0-6.764,2.18c-3.105,2.408-6.153,4.887-9.224,7.338-.128-.109-.261-.213-.394-.322l8.3-9.206c-3.475.559-5.518,3.584-8.827,5.252,2.091-2.488,3.887-4.683,5.764-6.8a2.2,2.2,0,0,1,1.494-.588c7.617-.08,15.239-.284,22.852-.095,4.437.114,7.77,3.2,11.363,5.39a49.168,49.168,0,0,1,7.124,5.523C349,229.447,345.868,228.153,342.811,226.7Zm16.615-13.6c-11.05-2.7-21.744-.213-32.457,2.133-8.675,1.9-17.269,4.394-26.318,3.641-1.493-.128-3.441.583-4.418-.133-2.2-1.621-3.92-3.892-5.84-5.9.209-.213.413-.427.617-.645l3.337,3.015v-5.375c.128-.015.256-.033.384-.048q.641,1.665,1.289,3.342c.588-1.654,1.133-3.185,1.683-4.721.284.062.573.123.863.185.123,1.119.246,2.237.4,3.65l.854-2.7a18.859,18.859,0,0,0,3.313-.389c10.13-3.247,20.369-6.39,30.992-6.94,6.2-.317,12.78-.806,18.762,2.328a22.423,22.423,0,0,1,8.537,8.248A5.663,5.663,0,0,1,359.426,213.1Z"/><path d="M353.406,401.347c-1.1,3.907-3.978,6.371-7.172,8.471-10.784,7.077-22.208,12.951-34.595,16.563-8.66,2.521-17.567,4.2-26.379,6.191-.218.047-.422.094-.616.142V416.587c.635.432,1.275.854,1.739.716a8.068,8.068,0,0,0,4.048-2.413,28.1,28.1,0,0,0,3.627-6.783,48.7,48.7,0,0,0,1.592-6.826c-.251-.08-.5-.166-.758-.246-.337.649-.626,1.327-1.014,1.943-1.892,2.963-3.736,5.963-5.765,8.831-.578.825-1.791,1.166-2.564,1.892a7.015,7.015,0,0,0-.9,1.071V373.418c2.886.161,5.754.474,8.636.7a31.121,31.121,0,0,0,15.847-2.859c7.077-3.318,11.746-9.1,16.036-15.329a8.947,8.947,0,0,1,3.233-2.883c7.295-3.583,14.543-7.219,20.663-12.708,1.142-1.024,2.327-2,3.759-3.233,0,.981.042,1.517-.01,2.043-.654,6.665-1.493,13.315-1.948,19.994-.915,13.415-.583,26.773,2.759,39.913A4.736,4.736,0,0,1,353.406,401.347Z"/><rect class="cls-1" x="275.163" y="38.008" width="9.48" height="461.263"/><path class="cls-2" d="M524.571,4.3V520.588H4V4.3H524.571m4-4H0V524.588H528.571V.3Z"/><path class="cls-3" d="M525.268,521.673H4V4.083H525.268ZM34,491.673H495.268V34.083H34Z"/></g></svg>