<svg xmlns="http://www.w3.org/2000/svg" viewBox="0 0 528.571 518.793"><defs><style>.cls-1{fill:#050606;}.cls-2{fill:#616060;}.cls-3{fill:#8d8989;}</style></defs><title>icon</title><g id="Layer_12" data-name="Layer 12"><polygon class="cls-1" points="235.337 502.502 121.238 440.97 109.748 496.121 99.958 494.082 114.183 425.804 240.084 493.7 235.337 502.502"/><path class="cls-1" d="M301.4,479.191,134.077,389.2l.817-39.253a122.629,122.629,0,0,0-3.184-20.371c-4.946-20.243-13.5-32.829-21.046-43.933-2.243-3.3-4.362-6.418-6.237-9.532-23.422-38.9-14.48-86.1-9.548-104.582,4.426-16.589,16.257-48.109,45.763-72.83C166.5,77.033,200.169,65.949,238,66.643c29.859.548,51.869,8.13,52.792,8.453,41.175,14.4,92.782,52.681,102.711,113.2a130.048,130.048,0,0,1-3.862,57.769c3.286,6.517,6.824,13.027,10.532,19.376,4.815,8.245,9.007,14.661,12.374,19.816,7.725,11.824,11.98,18.337,9.507,26.205-2.673,8.5-12.191,14.062-29.086,16.978-2.852,1.887-3.669,3.282-3.688,3.784-.038.991,1.684,2.748,3.067,4.159,2.461,2.51,5.832,5.949,5.26,10.806-.475,4.043-3.374,6.849-6.882,8.857,2.511,2.972,3.631,6,3.4,9.136-.249,3.432-2.031,5.371-4.286,7.827-1.162,1.266-2.609,2.841-4.509,5.218-3.187,3.986-5.291,6.618-5.631,7.961-.406,1.606-.076,2.524,1.026,5.186a38.9,38.9,0,0,1,2.456,7.595c1.66,8.192.632,19.578-5.406,26.552-6.114,7.06-15.226,7.353-26.762,7.724-13.781.444-27.692.723-41.411.832Zm-157.2-95.9,149.82,80.578,7.226-39.744,4.15-.023c14.97-.082,30.21-.369,45.294-.855,10.695-.344,16.42-.69,19.524-4.275,3.627-4.188,4.338-12.235,3.165-18.02a29.509,29.509,0,0,0-1.895-5.756c-1.274-3.078-2.719-6.567-1.48-11.463.871-3.443,3.09-6.22,7.513-11.752,2.115-2.646,3.757-4.434,4.956-5.74.657-.715,1.391-1.514,1.671-1.909-.1-.685-1.194-2.687-5.572-5.669l-8.508-5.8,9.816-3.1c5.415-1.712,7.167-3.182,7.668-3.731a21,21,0,0,0-2.346-2.652c-2.583-2.636-6.121-6.244-5.919-11.54.176-4.6,3.285-8.779,9.242-12.43l.837-.512.968-.159c12.695-2.075,20.779-5.822,22.18-10.279,1.013-3.222-1.824-7.766-8.338-17.737-3.429-5.249-7.7-11.781-12.639-20.242-4.153-7.113-8.1-14.422-11.73-21.725l-.887-1.783.582-1.9a120.6,120.6,0,0,0,4.133-55.157c-9.219-56.189-57.554-91.883-96.144-105.376a177.248,177.248,0,0,0-49.675-7.894c-35.893-.655-66.425,9.341-90.75,29.721-27.4,22.954-38.4,52.3-42.522,67.743-4.6,17.253-12.994,61.227,8.452,96.845,1.733,2.879,3.777,5.886,5.941,9.07,7.625,11.22,17.115,25.184,22.49,47.18a132.718,132.718,0,0,1,3.461,22.278l.016.224Z"/><path class="cls-1" d="M303,433.473q-13.63-9-26.748-18.636c-4.372-3.21-8.706-6.461-12.939-9.846l-12.744-10.033,14.117,7.944c4.673,2.678,9.431,5.209,14.208,7.69q14.326,7.445,28.96,14.138Z"/><path class="cls-1" d="M241.425,136.11a28.26,28.26,0,0,1-1.959-7,45.242,45.242,0,0,1-.54-7,44.524,44.524,0,0,1,.533-7,27.983,27.983,0,0,1,1.966-7,28.025,28.025,0,0,1,1.966,7,44.644,44.644,0,0,1,.533,7,45.366,45.366,0,0,1-.54,7A28.26,28.26,0,0,1,241.425,136.11Z"/><path class="cls-1" d="M269.816,143.312l12.656-24.987"/><path class="cls-1" d="M269.816,143.312a28.351,28.351,0,0,1,1.416-7.132,45.478,45.478,0,0,1,2.682-6.491,44.578,44.578,0,0,1,3.64-6,27.956,27.956,0,0,1,4.918-5.359,27.988,27.988,0,0,1-1.41,7.135,44.646,44.646,0,0,1-2.688,6.488,45.514,45.514,0,0,1-3.646,6A28.286,28.286,0,0,1,269.816,143.312Z"/><path class="cls-1" d="M289.045,164.659l22.342-16.892"/><path class="cls-1" d="M289.045,164.659a28.278,28.278,0,0,1,4.4-5.786,45.358,45.358,0,0,1,5.259-4.654,44.608,44.608,0,0,1,5.907-3.8,27.973,27.973,0,0,1,6.772-2.655,28.024,28.024,0,0,1-4.4,5.791,44.469,44.469,0,0,1-5.263,4.648A45.333,45.333,0,0,1,295.812,162,28.317,28.317,0,0,1,289.045,164.659Z"/><path class="cls-1" d="M286.186,247.956l20.384,19.21"/><path class="cls-1" d="M286.186,247.956a28.284,28.284,0,0,1,6.44,3.377,45.326,45.326,0,0,1,5.466,4.409,44.46,44.46,0,0,1,4.73,5.191,27.973,27.973,0,0,1,3.748,6.233,27.98,27.98,0,0,1-6.444-3.372,44.634,44.634,0,0,1-5.462-4.414,45.33,45.33,0,0,1-4.725-5.2A28.256,28.256,0,0,1,286.186,247.956Z"/><path class="cls-1" d="M297.03,221.351l26.748,8.308"/><path class="cls-1" d="M297.029,221.351a28.3,28.3,0,0,1,7.269.206,45.439,45.439,0,0,1,6.847,1.561,44.614,44.614,0,0,1,6.529,2.587,27.958,27.958,0,0,1,6.1,3.954,27.957,27.957,0,0,1-7.27-.2,44.511,44.511,0,0,1-6.845-1.567,45.4,45.4,0,0,1-6.527-2.593A28.254,28.254,0,0,1,297.029,221.351Z"/><path class="cls-1" d="M301.461,192.1l23.892-5.25"/><path class="cls-1" d="M301.461,192.1a22.343,22.343,0,0,1,5.552-3.226,34.749,34.749,0,0,1,5.858-1.84,34.065,34.065,0,0,1,6.087-.791,22.085,22.085,0,0,1,6.395.607,22.118,22.118,0,0,1-5.551,3.233,34.2,34.2,0,0,1-5.859,1.833,34.662,34.662,0,0,1-6.089.785A22.336,22.336,0,0,1,301.461,192.1Z"/><path class="cls-1" d="M203.816,243.263,186.024,264.9"/><path class="cls-1" d="M203.816,243.263a28.3,28.3,0,0,1-2.935,6.653,45.463,45.463,0,0,1-4.03,5.751,44.694,44.694,0,0,1-4.86,5.069,27.986,27.986,0,0,1-5.967,4.159,28.009,28.009,0,0,1,2.93-6.657,44.676,44.676,0,0,1,4.036-5.747,45.31,45.31,0,0,1,4.866-5.064A28.278,28.278,0,0,1,203.816,243.263Z"/><path class="cls-1" d="M189.7,218.242l-25.484,11.622"/><path class="cls-1" d="M189.7,218.242a28.3,28.3,0,0,1-5.558,4.688,45.334,45.334,0,0,1-6.147,3.4,44.6,44.6,0,0,1-6.592,2.42,27.981,27.981,0,0,1-7.187,1.118,27.974,27.974,0,0,1,5.556-4.7,44.555,44.555,0,0,1,6.149-3.391,45.509,45.509,0,0,1,6.595-2.414A28.286,28.286,0,0,1,189.7,218.242Z"/><path class="cls-1" d="M210.623,137.565,194.91,114.379"/><path class="cls-1" d="M210.623,137.565a28.254,28.254,0,0,1-5.55-4.7,45.417,45.417,0,0,1-4.376-5.493,44.629,44.629,0,0,1-3.486-6.1,27.978,27.978,0,0,1-2.3-6.9,27.968,27.968,0,0,1,5.555,4.695,44.553,44.553,0,0,1,4.371,5.5,45.415,45.415,0,0,1,3.48,6.1A28.313,28.313,0,0,1,210.623,137.565Z"/><path class="cls-1" d="M194.247,161.171l-24.3-13.932"/><path class="cls-1" d="M194.247,161.171a28.3,28.3,0,0,1-7.049-1.784,45.23,45.23,0,0,1-6.343-3.014,44.538,44.538,0,0,1-5.81-3.946,27.971,27.971,0,0,1-5.1-5.188A27.935,27.935,0,0,1,177,149.017a44.518,44.518,0,0,1,6.34,3.02,45.425,45.425,0,0,1,5.806,3.952A28.3,28.3,0,0,1,194.247,161.171Z"/><path class="cls-1" d="M183.554,188.755l-24.463-.078"/><path class="cls-1" d="M183.554,188.755a22.343,22.343,0,0,1-6.122,1.939,34.722,34.722,0,0,1-6.117.521,34.143,34.143,0,0,1-6.114-.553,22.1,22.1,0,0,1-6.11-1.985,22.062,22.062,0,0,1,6.122-1.946,34.063,34.063,0,0,1,6.118-.514,34.709,34.709,0,0,1,6.113.559A22.34,22.34,0,0,1,183.554,188.755Z"/><path d="M267.922,254.911c0,.8-.023,1.692,0,2.581a22.24,22.24,0,0,1-3.948,13.012,18.311,18.311,0,0,1-11.35,7.983,10.309,10.309,0,0,1-2.426.248c-4.027.025-8.055-.006-12.082.017a15.345,15.345,0,0,1-10.167-3.974,20.682,20.682,0,0,1-7.572-14.179c-.152-1.546-.335-3.094-.37-4.645a2.6,2.6,0,0,0-1.186-2.231c-2.384-1.768-4.831-3.477-7.027-5.461a39.555,39.555,0,0,1-5.417-5.912,75.044,75.044,0,0,1-5.594-8.85,62.582,62.582,0,0,1-4.922-12.887c-1.616-5.826-1.556-11.766-1.406-17.715a3.437,3.437,0,0,1,3.419-3.444c.445-.034.894-.009,1.342-.009q44.971,0,89.943-.007c1.206,0,2.392-.05,3.331.912a4.268,4.268,0,0,1,1.423,2.9,59.284,59.284,0,0,1-2.907,21.516,56.713,56.713,0,0,1-9,17.077,40.529,40.529,0,0,1-7.9,8.147C272.079,251.48,270.159,253.121,267.922,254.911Zm-66.142-48.2a41.372,41.372,0,0,0,1.017,13.038,51.783,51.783,0,0,0,5.906,14.852,45.008,45.008,0,0,0,7.276,9.271,36.763,36.763,0,0,0,8.544,6.386,2.194,2.194,0,0,1,1.3,2.319c-.053,1.49-.074,2.987.009,4.475a18.252,18.252,0,0,0,.5,3.957c1.309,4.591,3.985,8.091,8.539,9.883a10.8,10.8,0,0,0,3.847.982c4.01-.03,8.029.434,12.035-.306,5.175-.956,8.471-4.044,10.4-8.774a18.345,18.345,0,0,0,1.305-8.743c-.21-2.193.537-3.473,2.479-4.639A40.974,40.974,0,0,0,278.192,236.4a55.72,55.72,0,0,0,4.356-8.019,54.044,54.044,0,0,0,4.068-17.013,10.964,10.964,0,0,0-.22-4.652Z"/><path d="M200.605,197.465a11.012,11.012,0,0,1-4.473.117c-1.073-5.279.1-7.616,3.074-10.777-1.775-2.893-3.3-5.913-2.181-9.536a10.574,10.574,0,0,1,6.527-7.154,10.806,10.806,0,0,1,3.3-9.555,9.9,9.9,0,0,1,9.41-2.506c.4-.787.788-1.58,1.2-2.363,1.924-3.7,4.819-6.283,8.954-7.064a13.611,13.611,0,0,1,11.219,2.32,13.8,13.8,0,0,1,4.483,5.971,9.783,9.783,0,0,1,.731,3.228c.593,11.537.4,23.085.422,34.631.006,2.968,0,2.972-2.986,2.936-.516-.006-1.033-.055-1.612-.087-.629-1.456-.251-2.956-.313-4.41-.068-1.564-.015-3.132-.015-4.7v-4.725a5.506,5.506,0,0,0-2.207,3.809,9.182,9.182,0,0,1-.089,1.111,2.7,2.7,0,0,1-2.325,1.79,2.622,2.622,0,0,1-2.061-2.078,7.783,7.783,0,0,1,.226-2.418c.878-3.385,2.821-5.86,6.194-6.885.106-.242.214-.375.215-.508.02-5.817.148-11.637,0-17.45-.09-3.481-1.963-5.958-5.216-7.388a8.612,8.612,0,0,0-9.57,1.51,7.92,7.92,0,0,0-2.746,7.35,8.576,8.576,0,0,0,2.8,5.662c1.586-.068,2.985-.231,4.373-.162a2.108,2.108,0,0,1,1.974,2.8,1.492,1.492,0,0,1-1.587,1.263c-.447,0-.9-.014-1.342-.008a2.708,2.708,0,0,0-2.749,1.874,2.97,2.97,0,0,0,1.082,3.377c.346.272.809.391,1.17.648a2.121,2.121,0,0,1,.907,2.507,2.162,2.162,0,0,1-2.761,1.106c-3.3-.846-5.324-5.334-4.485-8.451.1-.353.2-.7.26-.9a43.216,43.216,0,0,1-3.013-4.576,39.476,39.476,0,0,1-1.722-5.048,17.207,17.207,0,0,0-3.7.311,5.077,5.077,0,0,0-3.561,5.947,4.935,4.935,0,0,0,4.784,4.491,2.457,2.457,0,0,1,1.974.817,2.276,2.276,0,0,1,.458,2.661,2.36,2.36,0,0,1-2.486,1.491,10.036,10.036,0,0,1-6.636-3.255l-.642-.711a6,6,0,0,0-4.212,3.607c-1.178,2.81,1.19,6.262,3.362,6.876a5.213,5.213,0,0,0,2.808.313,2.58,2.58,0,0,1,3.159,2.091,2.535,2.535,0,0,1-2.444,2.664,21.206,21.206,0,0,1-4.208-.218,1.885,1.885,0,0,0-1.635.354,5.6,5.6,0,0,0-2.174,6.118c.071.282.126.57.175.857C200.694,197.207,200.65,197.283,200.605,197.465Z"/><path d="M267.8,172.016a8.008,8.008,0,0,1-.252,6.3,6.778,6.778,0,0,1-3.647,3.426,2.1,2.1,0,0,1-2.03-3.672c.24-.17.537-.258.792-.412a2.968,2.968,0,0,0,1.057-4.384,2.469,2.469,0,0,0-2.941-1.012,1.781,1.781,0,0,1-2.231-.948,2.171,2.171,0,0,1,1.673-3.18,11.05,11.05,0,0,1,2.235-.025c.659.045,1.31.2,2.119.335,2.917-2.346,3.685-5.534,2.767-9.083a8.009,8.009,0,0,0-6.261-6c-5.9-1.446-11.056,2.494-11.085,8.5-.024,5,.028,10-.028,14.993-.014,1.313.195,2.244,1.571,2.817,2.951,1.228,4.232,3.821,5.052,6.7a5.157,5.157,0,0,1,.116,1.553,2.564,2.564,0,0,1-2.266,2.577,2.447,2.447,0,0,1-2.188-2.4,5.343,5.343,0,0,0-1.426-3.626,4.253,4.253,0,0,0-.683-.512,55.886,55.886,0,0,0-.146,6.687c-.036,2.228-.008,4.457-.008,6.874h-4.541c0-7.819.012-15.7-.014-23.574,0-1.029-.212-2.057-.3-3.088a5.712,5.712,0,0,1-.043-1.78c.637-2.579.336-5.193.342-7.788.012-5.03,2.466-8.619,6.56-11.168a13.519,13.519,0,0,1,17.749,3.589A32.413,32.413,0,0,1,272.075,158a10.112,10.112,0,0,1,9.373,2.527,10.6,10.6,0,0,1,3.274,9.5,10.9,10.9,0,0,1,6.566,7.2c1.081,3.57-.245,6.557-2.21,9.544a10.563,10.563,0,0,1,3.271,10.619,8.592,8.592,0,0,1-4.717,0c.077-.409.154-.823.233-1.236a5.431,5.431,0,0,0-1.5-5.316,2.576,2.576,0,0,0-2.921-.879,10.944,10.944,0,0,1-3.556.114,2.546,2.546,0,0,1-2.491-2.122,2.731,2.731,0,0,1,2.152-2.742,4.111,4.111,0,0,1,1.333,0c3.372.484,5.834-2.188,6.163-5.322.244-2.324-1.693-4.544-4.339-5.244a12.964,12.964,0,0,1-5.8,3.528,8.169,8.169,0,0,1-2.194.255,2.589,2.589,0,0,1-2.268-2.128,2.43,2.43,0,0,1,1.331-2.369,7.365,7.365,0,0,1,1.707-.437,5.1,5.1,0,0,0,4.3-3.742,5.69,5.69,0,0,0-1.523-5.759,4.517,4.517,0,0,0-3.038-1.206c-.809-.07-1.629-.014-2.643-.014C271.715,166.215,270.721,169.574,267.8,172.016Z"/><path d="M244.324,280.923c3.495,0,6.991-.036,10.485.025a9.1,9.1,0,0,1,2.568.547,2.367,2.367,0,0,1,1.908,2.437,3.021,3.021,0,0,1-2.194,2.307,9.563,9.563,0,0,1-3.047.505q-9.927.063-19.854,0c-1.626-.011-3.251-.218-4.45-1.588-1-1.14-.953-2.32.321-3.182a5.652,5.652,0,0,1,3.333-1.071C237.036,280.961,240.681,280.925,244.324,280.923Z"/><path d="M243.937,293.516c-3.654,0-7.308-.017-10.961.008a3.9,3.9,0,0,1-3.487-1.608,1.788,1.788,0,0,1,0-2.264,3.579,3.579,0,0,1,2.6-1.554,11.1,11.1,0,0,1,1.341-.039q10.737,0,21.474-.007a4.655,4.655,0,0,1,2.993.667c1.811,1.372,1.837,2.865-.033,4.105a5.365,5.365,0,0,1-2.747.663C251.394,293.559,247.665,293.517,243.937,293.516Z"/><path d="M225.263,197.6h-3.769a7.093,7.093,0,0,1,.176-4.189,2.811,2.811,0,0,0-1.405-3.83c-.587-.309-1.255-.459-1.854-.748a2.252,2.252,0,0,1-1.376-2.693,2.045,2.045,0,0,1,2.754-1.482,7.811,7.811,0,0,1,4.818,2.927c.447.589.931,1.15,1.441,1.776,2.441-.657,4.484.337,6.337,1.8a2.148,2.148,0,0,1-.056,3.723,1.754,1.754,0,0,1-2.532-.486,2.4,2.4,0,0,0-2.21-.723,2.181,2.181,0,0,0-2.158,1.893A19.106,19.106,0,0,0,225.263,197.6Z"/><path d="M266.926,197.6h-3.787c-.069-.586-.119-1.084-.187-1.58-.318-2.332-2.044-3.164-4-1.86-.614.409-1.087.937-1.933.9a2.13,2.13,0,0,1-1.869-1.014,1.677,1.677,0,0,1,.237-2.059,6.854,6.854,0,0,1,6.833-2.7c.963-.99,1.906-2.04,2.938-3a6.326,6.326,0,0,1,3.575-1.674c1.349-.17,1.928.108,2.455,1.3a2.148,2.148,0,0,1-.856,2.7c-.5.3-1.152.355-1.639.67a13,13,0,0,0-1.836,1.515,1.734,1.734,0,0,0-.318,2.4C267.305,194.5,267.056,195.928,266.926,197.6Z"/><path d="M250.757,295.027c-.9,2.6-3.271,4.119-6.472,4.249a6.768,6.768,0,0,1-6.668-4.093C239.06,294.688,247.742,294.566,250.757,295.027Z"/><path d="M212.881,197.712c-1,0-1.967.01-2.932-.006a7.807,7.807,0,0,1-.952-.14c.033-2.3,1.363-3.743,2.946-5a1.861,1.861,0,0,1,2.441.367,1.68,1.68,0,0,1,.371,2.226C214.175,196.018,213.533,196.83,212.881,197.712Z"/><path d="M279.353,197.471c-1.219.489-2.484.142-3.846.247-.615-.791-1.311-1.559-1.855-2.422a1.765,1.765,0,0,1,.333-2.415,1.983,1.983,0,0,1,2.644-.147C278.171,193.868,278.868,195.068,279.353,197.471Z"/><path d="M241.5,254.317c0,2.46.01,4.92,0,7.381a3.33,3.33,0,0,1-1.968,3.233,2.9,2.9,0,0,1-4.321-2.291,22.179,22.179,0,0,1-.034-2.681c0-3.5-.039-7.009.018-10.512a5.951,5.951,0,0,0-1.1-3.524c-3.5-5.345-6.922-10.74-10.322-16.148a4.94,4.94,0,0,1-.86-2.437,2.859,2.859,0,0,1,2.295-2.707,2.769,2.769,0,0,1,3.349,1.1c1.341,1.872,2.611,3.8,3.847,5.74,2.712,4.262,5.351,8.57,8.1,12.81a5.588,5.588,0,0,1,1.021,3.328C241.453,249.842,241.5,252.08,241.5,254.317Z"/><path d="M246.836,254.708c0-2.309.028-4.619-.013-6.928a4.687,4.687,0,0,1,.775-2.733q5.245-8.143,10.452-16.314c.519-.813,1.055-1.617,1.528-2.457.754-1.342,1.994-1.412,3.3-1.319a3.014,3.014,0,0,1,2.44,2.032c.513,1.018-.031,1.874-.534,2.688q-2.578,4.166-5.21,8.3-2.865,4.511-5.771,9a4.785,4.785,0,0,0-.646,2.771c.023,4.1.032,8.2-.011,12.292a4.311,4.311,0,0,1-.482,2.1,2.866,2.866,0,0,1-3.225,1.339,3.1,3.1,0,0,1-2.583-2.943c-.045-.442-.014-.893-.015-1.34Q246.835,257.949,246.836,254.708Z"/><path d="M235.816,225.308c2.485-1.5,4.2-3.7,6.181-5.584a2.546,2.546,0,0,1,2.334-1.016,2.66,2.66,0,0,1,1.506.729,38.554,38.554,0,0,0,6.669,6.344c1.773-1.759,3.49-3.512,5.27-5.2a6.716,6.716,0,0,1,2.013-1.346A2.057,2.057,0,0,1,262,222.6q-4.086,3.956-8.277,7.8a2.53,2.53,0,0,1-3.1-.089c-.462-.373-.853-.832-1.287-1.241-1.727-1.625-3.459-3.245-5.2-4.879a32.409,32.409,0,0,0-5.618,4.9c-1.839,1.8-2.907,1.821-4.736.114q-3.26-3.043-6.514-6.091a10.723,10.723,0,0,1-.943-.952,2.186,2.186,0,0,1-.308-2.48,2.072,2.072,0,0,1,2.525-.9,6.776,6.776,0,0,1,2.013,1.345C232.336,221.817,234.055,223.568,235.816,225.308Z"/><path class="cls-2" d="M524.143,4.034V520.32H3.572V4.034H524.143m4-4H-.428V524.32H528.143V.034Z"/><path class="cls-3" d="M524.839,521.405H3.568V3.815H524.839Zm-491.271-30H494.839V33.815H33.568Z"/></g></svg>