<svg xmlns="http://www.w3.org/2000/svg" viewBox="0 0 528.571 518.793"><defs><style>.cls-1{fill:#616060;}.cls-2{fill:#8d8989;}</style></defs><title>icon</title><g id="Layer_13" data-name="Layer 13"><path d="M266.85,102.226a57.249,57.249,0,0,1,6.027,4.461c4.976,4.736,9.769,9.664,14.647,14.5,1.563,1.55,3.153,3.073,4.752,4.586,3.018,2.856,6.061,5.685,9.077,8.543,3.761,3.565,7.605,7.051,11.233,10.749,4.814,4.908,9.4,10.042,14.191,14.972,2.531,2.6,5.422,4.857,7.922,7.485a115.755,115.755,0,0,1,8.089,9.42c.878,1.147,1.075,2.882,1.372,4.391a3.336,3.336,0,0,1-1.951,3.9c-4.109,1.691-8,4.364-12.893,3.255v46.874l9.47,7.181a36.116,36.116,0,0,1,.317-4.891,9.31,9.31,0,0,1,1.489-3.845c1.445-1.783,3.347-1.321,4.207.85a9.554,9.554,0,0,1,.438,2.074l11.629,5.194c0-1.7.035-3.317-.007-4.932-.092-3.5.713-4.524,4.024-5.661,6.178-2.12,12.552-1.873,18.9-1.576,5.958.279,11.9.893,17.845,1.427,1.8.162,3.575.579,5.368.828,3.655.5,5.4,2.885,5.934,6.251a110.985,110.985,0,0,1,1.716,21.667c-.228,5.815-.046,11.645-.046,17.509a15.12,15.12,0,0,0,6.244.914c2.034-.081,4.642-.381,6.435,1.765.862,1.033,3.32-.115,3.531,2.23-1.743,2.015-3.145,2.353-5.618,1.086a12.446,12.446,0,0,0-10.45-.273c-2.277.868-3.977.823-5.661-1.208-2.4,1.48-4.837,2.312-6.944-.335-2.673,2.057-5.22,1.9-7.917.686A27.492,27.492,0,0,0,386,281.159a2.058,2.058,0,0,1-.468-.4c-.857-1.17-1.837-2.4-.525-3.8,1.093-1.167,2.37-.615,3.6-.109,1.663.686,3.342,1.334,5.136,2.046.963-.9,1.812-1.676,2.645-2.471,2.637-2.515,3.579-2.513,6.5.06,1.726-.284,2.142-1.246,2.077-3.015-.206-5.575-.119-11.159-.235-16.738-.133-6.343-.361-12.683-.56-19.444-12.221-1.578-24.073-2.2-36.462-2.683a38.6,38.6,0,0,0,.02,3.9c.492,4.634,1.264,9.246,1.557,13.89.433,6.858.552,13.735.788,20.6.044,1.268.006,2.539.006,3.94,7.289-2.23,7.289-2.23,10.949,3.84l3.1.992a6.857,6.857,0,0,1-1.154,1.949c-1.95,1.517-3.694,1.242-5.4-.786-.736-.876-1.341-1.861-2.157-3.007-2.455,1.394-4.746,2.764-7.108,4a7.662,7.662,0,0,1-2.892.842c-1.547.116-3.113-.019-4.671-.057-2.51-.062-3.8-.793-4.362-2.4-.715-2.051,1.077-2.607,2.459-3.669-.371-3.322-.838-6.655-1.094-10-.336-4.392-.551-8.8-.729-13.2-.1-2.462-.017-4.932-.017-7.1a97.943,97.943,0,0,1-8.817-4.509,5.786,5.786,0,0,0-4.811-.978l-1.46,2.418c-5,2.03-7.662-2.244-11.546-4.112.5,13.119.986,25.9,1.492,39.188,1.488.024,2.933.4,4.125.008,5.823-1.921,6.373-1,8.362,3.446,4.962,1.18,5.294,1.592,4.179,5.193-5.442,2.062-8.807,1.223-11.549-3.063-4.492,1.919-7.039-2.558-11.137-3.228a21.255,21.255,0,0,0-.292,2.133c-.092,1.838-.692,3.305-2.612,3.88-1.775.533-2.816-.012-4.373-2.213-.224-.317-.486-.606-.98-1.216-3.225,1.135-6.494,2.791-9.943,3.354-3.328.544-6.841-.04-10.626-.137-2.775,1.927-5.785.537-8.8-.571a7.835,7.835,0,0,0-2.094-.83,48.108,48.108,0,0,0-13.113,1.56c-.794-.427-2.15-1.144-3.5-1.88-1.86-1.017-3.669-1.2-5.451.195a5.372,5.372,0,0,1-5.822.763c-.855-.357-1.982-.034-2.982-.078-2.263-.1-4.525-.235-7.491-.393-2.378,1.7-5.66,1.906-9.089.357l-3.768,2.577a8.134,8.134,0,0,1-1.661-.618c-1.842-1.26-3.522-1.359-5.255.281a3.693,3.693,0,0,1-4.643.533c-.218-1.175-.471-2.533-.792-4.262-2.036,1.192-4.1,1.475-5.388.126l-7.1,2.264c-3.511,3.5-5.872,3.238-9.486.282-3.988,1.467-5.981-1.246-7.687-4.477-2.276,4.09-2.9,4.259-7.929,2.352l-2.293,1.471c-.535-.295-1.254-.448-1.366-.795a19.427,19.427,0,0,1-1.166-4.793c-.11-2.1,1.6-2.957,3.46-1.8,1.518.942,2.888,2.123,4.434,3.281,2.149-4.415,1.962-8.841,1.792-13.231-.29-7.521-.766-15.035-1.028-22.556-.091-2.586.243-5.185.345-7.779.049-1.253.008-2.51.008-4.145-3.377,1.078-6.295,1.832-8.843-.421-1.8.58-1.974,1.919-2.118,3.424-.7,7.347-1.5,14.684-2.216,22.03-.136,1.4-.019,2.831-.019,4.49,2.383.768,4.611,1.818,5,4.313,1.185,1.209,3.224.718,3.427,2.647-4.1,2.962-5.759,2.63-8.729-1.922-3.354,1.448-6.9,4.516-9.927.009H160.6c-.521.468-1.109.951-1.643,1.488a4.808,4.808,0,0,1-4.631,1.381,7.1,7.1,0,0,0-2.613-.156c-3.28.624-5.582-.413-6.837-3.6a7.857,7.857,0,0,0-1-1.488c-.442.036-.856-.024-.909.087-1.625,3.428-5,4.648-7.964,6.412-3.681,2.191-5.613,1.914-8.447-1.348-.418-.482-.8-.992-1.258-1.556a3.583,3.583,0,0,0-1.094.366c-3.329,2.7-3.323,2.706-7.117.591a8.682,8.682,0,0,0-7.4-.851c-.264-.191-.731-.349-.849-.646-.6-1.511-1.861-3.144-.509-4.677,1.493-1.693,3.075-.2,4.6.357,1.184.437,2.406.773,4.063,1.3V251.072a10.593,10.593,0,0,0-7.969-1.781c-1.448,1.959-2.587,4.039-4.231,5.579-1.883,1.764-4.129.978-5.86-.2-2.135.575-3.968,1.2-5.853,1.538-1.761.316-3.576.327-5.925.518A15.023,15.023,0,0,1,84.9,258.5a22.718,22.718,0,0,1-3.357,1.269,18.023,18.023,0,0,0-.75,1.718c-2.29,7.036-8.033,8.805-13.835,4.233-1.671.91-3.285,2.371-5.042,2.57-1.541.175-3.243-1.065-5.132-1.777a10.2,10.2,0,0,1-8.684,3.278c0,1.763-.029,3.3.007,4.827a3.322,3.322,0,0,1-2.751,3.71,33.349,33.349,0,0,1-6.5.638,21.727,21.727,0,0,1-4.38-.933l-2.536,3.007-6.347-.864c-2.17,2.887-5.207,2.088-8.494.938-.2,2.055-.383,3.894-.564,5.734-2.445-3.085-2.073-6.568-2.345-9.906,3.211-1.41,4.241,3.132,6.945,1.788.867-1.209,1.5-2.885,2.678-3.494,1.032-.533,2.684.134,4.228.287.2-.389.414-.834.651-1.269,1.514-2.788,3.184-3.418,6.036-2.046,1.628.784,3.109,1.871,4.68,2.781,1.993,1.153,4.028,1.8,6.05.391,1.9-3.323-1.12-5.374-1.841-7.9,1.121-1.916,2.6-1.936,4.42-1.407,2.3.668,4.544.213,5.886-1.876,1.669-2.6,3.621-3.068,6.218-1.6.2.113.5.051,1.26.11l3.988-4.807c0-2.553-.246-5.945.061-9.286a102.95,102.95,0,0,1,1.953-13.04,13.216,13.216,0,0,1,13.27-9.869c5.511.455,10.723,1.574,15.5,4.4a7.911,7.911,0,0,1,4.061,6.287c.405,3.973.767,7.95,1.193,12.409a14.652,14.652,0,0,0,1.353-1.9c.444-.934.683-1.967,1.139-2.893,1.342-2.724,2.454-3.135,5.291-2.046a2.653,2.653,0,0,1,.717.344h7.271a31.832,31.832,0,0,0,1.082-3.9c.435-2.677.788-5.376.987-8.08.37-5.036,2.378-9.617,4.629-13.9,3.448-6.565,9.567-9.706,16.863-10.259,5.3-.4,10.58-.509,15.57,2.184a20.678,20.678,0,0,0,6.747,1.716c5.623.827,9.673,3.671,11.727,8.982,1.351,3.5,2.357,7.124,3.687,11.214,2.156-.888,4.288-1.094,5.883,1.163l4.7-1.061a57.347,57.347,0,0,0,1.827-16.51q-.549-15.959-1.185-31.915a9.856,9.856,0,0,0-.276-1.468c-4.175,1.5-4.912,2.006-7.173,4.912-3.941.48-5.912-.816-6.772-4.464-.35-1.487-.681-2.978-1.2-5.274a27.568,27.568,0,0,1,3.014-4.017c10.9-10.566,21.759-21.171,34.329-29.837a100.279,100.279,0,0,0,9.211-7.765c4.755-4.207,9.523-8.4,14.141-12.759,6.137-5.788,12.032-11.839,18.919-16.78a21.879,21.879,0,0,0,1.658-1.492m70.25,173.753c-.253-6.991-.493-13.465-.719-19.939-.144-4.148-.023-8.322-.456-12.438a109.819,109.819,0,0,1,.058-22.539,40.383,40.383,0,0,0,.192-5.443q-.564-16.314-1.259-32.623a6.36,6.36,0,0,0-1.054-3.54c-2.6-3.223-5.4-6.3-8.2-9.354-3.679-4.015-7.487-7.912-11.139-11.951-4.6-5.093-9.069-10.308-13.667-15.4a46.526,46.526,0,0,0-4.289-3.945q-6.627-5.7-13.3-11.344c-2.568-2.18-5.174-4.317-7.727-6.514-1.051-.905-2.01-1.919-3.121-2.99-2.115,1.894-4.05,3.609-5.965,5.345-5.478,4.969-10.85,10.061-16.452,14.886-5.3,4.567-10.9,8.787-16.262,13.293-4.067,3.42-7.888,7.132-11.945,10.564-4.748,4.016-9.607,7.9-14.475,11.776a4.126,4.126,0,0,0-1.711,4.7,66.075,66.075,0,0,1,1.561,9.978c.4,5.539,1.5,11.084.237,16.664a26.591,26.591,0,0,0-.82,5.352c-.122,7.252-.12,14.506-.128,21.759-.008,7.785.113,15.571.009,23.355-.087,6.472-.23,12.955-.714,19.406a10.137,10.137,0,0,0,3.178,8.029l8.157,1.5c1.116-1.786.121-5.555,3.447-5.634-.122-8.087-.24-15.865-.354-23.642-.015-1.039,0-2.079-.019-3.118-.132-8.536-.625-17.087-.309-25.607.361-9.711-.416-19.437.982-29.149,1.359-9.436,5.723-16.576,14.081-21.088,3.864-2.086,7.981-3.7,11.976-5.545,6.3-2.909,12.831-4.8,19.861-4.6,4.154.119,8.31.179,12.465.2,9.262.058,17.311,3.779,25.108,8.263a7.763,7.763,0,0,1,1.486,1.25c2.953,2.9,5.944,5.76,8.81,8.743a19.363,19.363,0,0,1,2.7,3.778,40.59,40.59,0,0,1,5.2,15.708c.709,5.944,1.453,11.823.738,17.819a30.414,30.414,0,0,0-.064,6.6c.415,4.121,1.157,8.209,1.622,12.327.291,2.574.355,5.176.465,7.768.308,7.254.817,14.511.772,21.764a28.478,28.478,0,0,0,1.411,8.811l5.529,1.188C321.7,278.689,323.245,277.294,325.818,276.746ZM217.775,241.26c0-2.374-.133-4.3.029-6.2.284-3.334.167-6.858,1.255-9.936,2.39-6.76,6.444-12.84,10.867-18.314a75.244,75.244,0,0,1,21.168-18.177c1.221-.7,2.446-1.387,3.642-2.064.095-1.254.129-2.287.258-3.309.311-2.463,1.671-3.716,3.744-3.51,1.915.191,2.928,1.537,2.864,3.891-.034,1.247-.151,2.491-.227,3.681,2.323.841,4.287,1.475,6.191,2.255a96.153,96.153,0,0,1,13.987,7.592c7.132,4.417,12.871,9.982,16.522,17.6,1.063,2.217,3.26,4.472,3.1,6.573-.344,4.625,2.066,8.34,2.846,12.533.23,1.235.574,2.449.885,3.751l2.553-.22c-.11-2.281-.326-4.337-.284-6.387.11-5.45.3-10.887-.765-16.289-.678-3.427-1.32-6.879-1.668-10.35-.636-6.352-2.426-12.131-7.169-16.691-.652-.628-1.207-1.358-1.8-2.044-4.261-4.916-9.767-7.835-15.748-10.131-6.339-2.433-12.973-2.249-19.554-2.683-8.728-.575-17.407-.35-25.657,2.875-10.742,4.2-17.271,12.07-19.139,23.521-.854,5.234-1.144,10.559-2,15.791a88.778,88.778,0,0,0-.1,25.337Zm-57.484,21.478c0-8.79.112-17.083-.047-25.371A102.372,102.372,0,0,0,159.2,224.6c-.79-5.435-6.8-11.509-11.773-12.155a30.133,30.133,0,0,0-12.659,1.194c-5.818,1.747-8.653,6.185-10.553,11.485a19.037,19.037,0,0,0-.587,2.632c4.461,4.108,9.273,7.39,10.6,13.435.079.361.451.652.561,1.014.668,2.2,1.639,4.378,1.875,6.629.566,5.387.764,10.811,1.163,16.217a5.776,5.776,0,0,0,.714,1.638c4.558-4,6.636-3.65,9.6,1.341.441.743,1.012,1.409,1.467,2.036l5.966-.961C156.784,266.7,156.965,263.624,160.291,262.738Zm104.29-156.777c-1.519.244-3.911-.036-5.38,1a105.346,105.346,0,0,0-10.4,8.757c-4.878,4.474-9.4,9.366-14.472,13.593-8.663,7.215-17.293,14.489-26.553,20.965a53.418,53.418,0,0,0-6.07,5.457c-4.121,3.952-8.161,7.988-12.294,11.928-3.641,3.472-7.361,6.86-11.271,10.494l3.383,3.455c1.014-1.1,1.748-1.824,2.407-2.615,4-4.8,8.039-9.54,13.555-12.736a19.852,19.852,0,0,0,2.358-2.032c2.405-1.972,4.74-4.043,7.259-5.858a166.3,166.3,0,0,0,19.381-15.62c6.777-6.617,13.748-13.044,20.826-19.339,4.241-3.772,8.847-7.133,13.217-10.621,1.913-.628,3,.616,4.2,1.589Q271.691,120,278.67,125.6a21.242,21.242,0,0,1,2.119,1.709c5.207,5.436,10.873,10.526,15.426,16.468,4.076,5.32,8.986,9.737,13.647,14.358,7.208,7.148,14.342,14.267,20.134,22.648a21.626,21.626,0,0,0,3.336,3.143l6.263-2.8c-3.3-3.572-6.121-6.769-9.1-9.81-5.628-5.748-11.434-11.322-17-17.125-6.47-6.741-12.751-13.665-19.154-20.472a18.323,18.323,0,0,0-3.263-2.771c-6.588-4.316-11.58-10.382-17.273-15.675C270.861,112.546,268.139,109.574,264.581,105.961Zm.155,166.825c.716,3.352,1.324,6.2,1.961,9.182l3.19-1.514,4.164,1.794c3.438-1.532,5.893-1.407,9.754.317a3.434,3.434,0,0,0,2.083.446,5.984,5.984,0,0,1,7,2.022c2.144-1.734,3.829-4.9,6.706-1.719,2.8-1.356,7.726-1.509,11.059-.3-.491-5.464-.968-10.774-1.461-16.254l-2.887-.686c-.082,1.576-.182,2.842-.2,4.108-.037,1.945-.032,3.892-.023,5.837.006,1.311-.469,2.346-1.812,2.627-1.552.324-2.49-.615-2.91-1.963-.415-1.329-.606-2.728-1-4.57-1.46,0-2.847-.006-4.233,0-5.188.025-10.376.033-15.564.094a30.465,30.465,0,0,0-5.429.326c-2.308.45-4.509.871-6.863.109C267.306,272.332,266.118,272.707,264.736,272.786Zm-41.964-.534c-1.6,2.766-.3,5.142.27,7.754,4.037.174,3.163,3.705,3.923,5.725l7.393.44,2.52-3.75,5.352,2.347c3.556.558,3.922-4.142,7.268-4.263l3.325,2.629h6.244c.161-3.38.316-6.644.486-10.223ZM72.6,261.894c2.362-1.024,2.441-1,3.472-3.859.527-1.464,1.152-2.843,2.857-2.639,3.492.416,5.52-1.675,7.807-4.2.4-6.385.811-13.009-1.989-19.3-1.124-.109-1.76-.176-2.4-.232-6.525-.578-8.921,2.093-10.008,7.74-1.2,6.208-2.255,12.443-3.344,18.5Zm196.3,5.74c0-1.3-.007-2.186,0-3.068.058-6.227-.3-12.494.28-18.672.859-9.11-.685-18.126-.375-27.191a10.718,10.718,0,0,0-.127-1.159c-.434-5.538-.893-11.074-1.278-16.615-.115-1.661-.017-3.336-.017-5.111l-5.139-2.674c.317,3.518.676,6.186.776,8.863.335,8.931.573,17.866.857,26.8.235,7.376.524,14.751.711,22.129.115,4.531.06,9.065.135,13.6a26.689,26.689,0,0,0,.418,3.1Zm-22.383-67.911v66.993l5.6.843c-.387-5.217-.947-10.086-1.065-14.966-.216-8.934-.172-17.875-.233-26.812-.006-.909.042-1.819.01-2.726-.2-5.7-.345-11.406-.658-17.1-.15-2.734-.625-5.451-1.017-8.713Zm34.741,5.081c0,1.574,0,2.719,0,3.864.042,10.637.114,21.274.119,31.911,0,7.534-.1,15.067-.112,22.6a18.429,18.429,0,0,0,.448,2.9h5.221c0-2.014.09-3.805-.015-5.585-.671-11.4-1.488-22.782-2.039-34.182-.269-5.548-1.452-11.067-.548-16.671C284.675,207.487,283.432,206.07,281.253,204.8Zm-9.42-6.616c0,3.631-.16,6.35.028,9.045.652,9.3,1.61,18.58,2.083,27.886.288,5.682-.141,11.4-.17,17.1-.022,4.534.064,9.069.141,13.6.006.329.331.653.626,1.2l1.8-.532c.232-21.66.46-43.042.692-64.708Zm-107.424,18.32c.739,3.031,1.8,5.732,1.979,8.491.291,4.379.074,8.8-.06,13.2-.244,8.019-.59,16.035-.865,24.053-.011.344.272.7.448,1.12l3.96.857c.252-5.142.462-9.9.728-14.644.1-1.8.37-3.593.5-5.394.521-7.373.844-14.732-1.349-21.946C168.9,219.465,167.363,217.416,164.409,216.508Zm94.3,51.531a10.337,10.337,0,0,0,.311-1.557c-.029-7.392-.049-14.784-.126-22.176-.044-4.28-.126-8.563-.3-12.84-.389-9.832-.871-19.661-1.252-29.493-.114-2.951-.018-5.909-.018-9.443l-3.477,1.788c0,1.99-.095,3.677.016,5.351.462,6.972,1.339,13.937,1.411,20.911.14,13.606.271,27.2,1.169,40.786a44.02,44.02,0,0,0,.646,5.4C257.177,267.207,258,267.5,258.709,268.039Zm-30.671-1.691c0-7.347.618-14.263-.2-21.005a126.249,126.249,0,0,1-1-15.821c0-1.037-.149-2.074-.26-3.493-3.1,3.337-4.694,6.523-3.624,10.6a9.558,9.558,0,0,1,.04,2.712c-.29,7.763-.609,15.525-.876,23.289-.046,1.354.11,2.716.185,4.361Zm7.308.182c-.23-18.647-.456-36.984-.687-55.693-2.481,3.138-4.157,6.189-3.856,10.073a36.807,36.807,0,0,1,.179,6.589c-.944,9.092,1.838,18,1.178,27.076-.129,1.779.15,3.585.183,5.379.037,2.043.008,4.086.008,6.355ZM122.781,234.97a50.578,50.578,0,0,1,.6,6.083c-.1,5.7-.4,11.4-.591,17.106-.028.832.091,1.669.16,2.8l10.872-6.183C133.556,246.223,128.642,240.461,122.781,234.97Zm117.256,32.218c1.067-.751,1.938-1.039,2.054-1.512a14.36,14.36,0,0,0,.234-3.477c-.038-7.265-.168-14.53-.146-21.794.037-11.556.173-23.111.249-34.666a18.3,18.3,0,0,0-.345-2.3l-2.927,2.72C239.452,226.674,239.74,246.6,240.037,267.188Zm48.511-55.529c1.176,17.937,2.309,35.243,3.454,52.548a8.977,8.977,0,0,0,.3,1.483.511.511,0,0,0,.245.292c.1.05.244.011.646.011,1.213-1.3.655-3.055.627-4.613-.225-12.587-.654-25.171-.734-37.758C293.055,219.2,291.526,215.615,288.548,211.659Zm77.669,69.406c-1.04-15.453-2.055-30.535-3.08-45.617-.007-.105-.144-.217-.245-.3a1.83,1.83,0,0,0-.37-.164,1.8,1.8,0,0,0-1.861,1.984c-.014,1.426,0,2.859.118,4.279.452,5.28,1.021,10.551,1.417,15.834q.509,6.789.71,13.6c.059,1.931-.282,3.87-.366,5.809-.065,1.5-.013,3-.013,4.849ZM297.76,231.984l-.875.028a14.476,14.476,0,0,0-.089,1.857c.2,2.693.591,5.381.642,8.076.1,5.174-.026,10.351.018,15.526.02,2.325.132,4.659.376,6.97.171,1.617,1.12,2.172,3.041,1.215A246.122,246.122,0,0,0,297.76,231.984ZM133.635,259.51l-9.237,5.066c3.088.417,4.83,2.314,6.49,4.334,1.153,1.4,2.422,1.707,3.581.859Zm79.681,17.075,4.719,4.331c-.311-5.366-.595-10.343-.905-15.317-.014-.217-.267-.418-.54-.82l-2.171.759Q213.825,271.484,213.316,276.585Zm.672-30.366c.2,4.382.4,8.563.6,13.016l2.635-.528c.063-4.347,1.167-8.493.216-12.941Zm91-3.43c.35,3.694.582,6.922.979,10.129.383,3.094-.627,6.35.773,9.447,1.935-.332,1.826-1.517,1.768-2.688-.265-5.3-.515-10.6-.806-15.9-.019-.335-.343-.653-.609-1.13ZM92.046,233.253c.18,3.2.345,6.24.525,9.283.174,2.933-.664,5.974.585,9.26,1.963-2.925,2.4-9.42,1.329-15.015C94.2,235.292,94.075,233.711,92.046,233.253Z"/><path d="M307.909,348.493c.11,1.041.387,2.813.472,4.593.292,6.093.569,12.187.748,18.284.106,3.63.019,7.266.019,10.717,5.1,4.536,5.735,7.545,1.884,10.194l-3.619-2.964c-4.371-.306-9.459.494-13.046-3.763-1.817.825-3.366,1.482-4.863,2.24-.421.213-.689.727-1.263,1.366a22,22,0,0,0,2.11.926c2.466.777,5.015,1.342,7.395,2.322a8.143,8.143,0,0,1,3.666,2.746,89.667,89.667,0,0,1,5.618,10.116c1.432,3.029,2.455,6.152,4.663,8.875,1.983,2.447,3.075,5.616,4.573,8.459a8.128,8.128,0,0,0,.682.936l2.8-1.836c3.139.081,4.188,2.508,5.6,4.591,1.563-1.441,3.035-2.8,4.82-4.44l3.274,3.208c1.569-.523,3.374-2.433,5.385-.468,1.194,1.168,1.1,2.542-.118,4.2-3.369-.644-6.061,4.715-10.085,1.257-1.293.935-2.458,2.4-3.771,2.546-1.207.137-2.575-1.14-4.227-1.974l-3.409,1.5c-.273,2.127-.541,4.207-.865,6.725,2.5,2.518,3.23,6,2.674,9.993-.372,2.678-.09,5.44-.276,8.152a12,12,0,0,0,1.843,8.036c3.172,4.817.765,9.864-4.878,11.27-.983.246-2,.373-3.363.623,0,1.324.1,2.6-.019,3.851-.333,3.538-2.182,5.45-5.7,5.738a27.277,27.277,0,0,1-5.834-.078,9.679,9.679,0,0,0-5.626.887,24.759,24.759,0,0,1-17.455,1.6A10.191,10.191,0,0,1,274,486.369a11.334,11.334,0,0,1-1.629-2.591c-5.038,3.849-7.583,3.8-12.8-.152-.514-.389-1.009-.8-1.718-1.37-.72.453-1.428.949-2.181,1.363-2.7,1.484-4.415.648-4.964-2.4-.13-.718-.227-1.443-.366-2.343-3.158.353-3.969,3.486-6.389,4.643-2.783-1.457.5-5.21-2.792-6.741-.765.759-1.711,1.577-2.515,2.517-3.774,4.414-5.692,4.688-10.565,1.426-.422-.282-.856-.546-1.252-.8-3.528,2.789-3.627,2.792-7.6.213-2.256.871-4.4.249-5.483-1.988-.86-1.779-1-3.908-1.486-6.015-2.012.328-3.047,1.581-3.756,3.416-.717,1.857-.838,1.81-3.169,1.383-.938-1.377.224-4.147-2.9-4.482-.092,1.133-.179,2.223-.3,3.774-3.9.477-7.663-.611-11.706-.468v2.831c-3.093-.89-3.992-2.059-4.976-6.188a17.846,17.846,0,0,0,3.039-11.577,12.992,12.992,0,0,1,3.8-10.255,8.362,8.362,0,0,0,1.6-1.7A26.324,26.324,0,0,1,206.1,437.459a44.24,44.24,0,0,1,7.383-19.079l-3.6-.221c-1.444,2.212-3.437,3.331-6.525,1.433.463,2.047.762,3.364,1.044,4.613a1.662,1.662,0,0,1-2.761-.55c-1.553-2.828-2.993-5.731-1.856-9.049,2.5-1.048,3.464,1.771,5.833,1.769.042-1.357.112-2.728.122-4.1.012-1.529.31-2.92,1.984-3.4,1.506-.428,2.44.476,3.161,1.675a12.627,12.627,0,0,0,.954,1.088c.064-1.712.177-2.9.142-4.087-.216-7.235,2.094-10.583,8.981-13.133a23.416,23.416,0,0,0,3.774-1.927c1.6-.953,3.135-2.014,4.732-3.051-1.9-3.164-5.221-1.113-7.934-1.773l-3.073,3.75-2.611-5.726c.871-3.266,3.471-2.159,5.2-2.724l3.481-5.1a10.291,10.291,0,0,0-.021-2.188c-1.719-9.556-1.33-19.108-.212-28.691a30.5,30.5,0,0,0-.76-11.984,8.929,8.929,0,0,1,1.576-8.081,7.05,7.05,0,0,0,1.347-5.786c-.629-3.7,1-7.179,2.381-10.457,4-9.485,11.638-13.954,21.6-15.556,9.733-1.565,19.507-1.365,29.144-.515,13.166,1.16,23,8.168,27.4,20.936,1.73,5.022,1.511,10.73,2.059,16.138a35.1,35.1,0,0,1,.068,6.2C308.874,341.088,308.4,344.269,307.909,348.493ZM271.158,479.211c0-1.34-.007-1.977,0-2.613.063-5.672,2.623-8.52,8.292-9.256a16.605,16.605,0,0,0,3.063-.534,10.491,10.491,0,0,1,11.133,2.4,12.731,12.731,0,0,0,10.668,3.481c2.092-.3,4.325.371,7.042.661l5.577-1.888a3.961,3.961,0,0,0-1.311-4.327c-1.306-1.064-2.52-2.241-3.787-3.353a38.655,38.655,0,0,1-8.707-10.329c-2.608-4.709-5.386-9.643-11.966-9.7a4.529,4.529,0,0,1-2.172-.8,15.028,15.028,0,0,1-2.031-2.1c4.988-.384,9.205-.294,12.712,2.067,3.84,2.585,7.686,5.337,10.31,9.374a41.205,41.205,0,0,0,3.449,3.967,21.135,21.135,0,0,0,.317-2.955,32.9,32.9,0,0,1-.444-4.244c.229-3.462-1.327-5.819-3.835-8.052-3.774-3.36-7.342-6.969-8.836-12.083a6.632,6.632,0,0,0-4.186-4.755,3.535,3.535,0,0,1-2.392-4.036,12.882,12.882,0,0,0,3.042,1.516c3.916.683,6.309,3.289,8.58,6.226,1.4,1.808,3.088,3.388,4.647,5.07l.751-.409c-.439-3.482-.4-6.955-2.649-10.184a27.26,27.26,0,0,1-4.283-8.627c-1.331-5.34-3.924-10.113-5.892-15.157a5.253,5.253,0,0,0-2.549-2.223,13.294,13.294,0,0,0-12.724-.011,9.408,9.408,0,0,1-9.956-.459c-.885-.537-1.926-.836-2.763-1.432-4.913-3.493-10.4-3.621-15.985-2.594a35.732,35.732,0,0,0-8.923,2.5c-4.091,1.953-8.255,1.927-12.549,1.764a4.5,4.5,0,0,0-2.908.57c-2.305,2.093-5.114,2.91-7.938,3.906-5.249,1.85-7.677,7.8-5.388,13.174,2.228-1.29,4.6-2.806,6.366.332a9.71,9.71,0,0,1,6.293.111c-2.812,3.108-5.448,5.605-9.041,6.589-5.155,1.411-7.3,5.475-9.152,9.813a26.039,26.039,0,0,0-1,4.8l6.946-.794c-1.192.926-1.637,1.337-2.142,1.653a38.253,38.253,0,0,0-5.261,3.292,39.941,39.941,0,0,0-8.484,10.068,23.819,23.819,0,0,1-4.346,5.4,10.749,10.749,0,0,0-3.7,7.45,13.178,13.178,0,0,1-.977,3.7c-.621,1.654-1.4,3.249-2.161,4.993,3.007,1.573,6.265,2.366,8.839,1.226s4.677-.69,6.667-.3a40.406,40.406,0,0,1,4.748-3.271c3.3-1.633,5.524-.455,6.3,3.073.243,1.1.562,2.176.765,2.951l4.588.309c2.074-3.078,2.877-3.172,5.439-.561,1.17,1.194,2.375,2.355,3.247,3.218l4.972-.572c4.784-3.809,5.585-3.806,9.2.085,5.536-3.7,6.292-3.756,10.375-.6,2.487-1.04,4.567.031,6.554,1.727,1.233,1.052,2.653,1.886,4.193,2.96C267.022,479.094,268.477,477.99,271.158,479.211Zm-5.979-96.83c2.486-2.645,4.786-1.591,6.862.016,4.762-4.026,5.281-4.072,8.694-.759,3.208-1.4,5.951-.8,7.64,3.045a17.342,17.342,0,0,0,3.126-1.776c2.846-2.565,2.8-2.6,5.573-.227a8.7,8.7,0,0,0,.952.67l5.454-1.788c-.192-2.592-.437-5.294-.585-8-.263-4.789-.435-9.582-.709-14.37-.2-3.452,1.015-6.949-.52-10.389a3.594,3.594,0,0,1,.44-2.945,8.643,8.643,0,0,0,1.221-5.582c-.27-6.225-.848-12.4-1.726-18.59-1.858-13.088-12.613-20.789-24.715-22.048-9.712-1.009-19.42.558-28.961,2.348-9.652,1.811-15.179,8.177-17.59,17.844,3.446,3.486,2.337,6.889-.134,10.454a9.384,9.384,0,0,0-1.28,4.73c-.206,4.407.022,8.838-.263,13.238a5.505,5.505,0,0,0,1.944,5.123c4.631,3.936,9.18,7.969,13.939,12.119l4.252-.31,3.688-6.577.564.21c-.317,2.914-.634,5.828-.937,8.615l3.5,4.946c-3.968,1.825-4.87-2.552-8.023-3.326.317,2.574.589,4.787.857,6.972,3.188.933,5.347,2.284,4.572,5.867-.131.606.516,1.38.767,1.989-2.74,3.136-4.539,3.461-8.788,1.626-.366-.929-.778-1.972-1.3-3.3-1.492,1.038-2.713,1.971-4.019,2.766-.855.52-1.884,1.244-2.742,1.137-.882-.111-1.651-1.122-2.624-1.856-.8,1.647-1.572,3.237-2.444,5.031,6.948.782,13.736.963,20.458-.832,6.053-1.617,12.051-1.1,18.02.452a59.669,59.669,0,0,0,6.385,1.667,13.074,13.074,0,0,0,4.524-.448c.363-.079.531-1.055,1.044-2.176l-4.548,1.229-3.369-2.889c-1.769.768-3.434,1.313-5.2,0-.525-.39-1.442-.259-2.181-.355-1.784-.232-3.579-.4-5.35-.7-1.581-.272-3.136-.694-5.2-1.162-.873-1.213-1.775-2.849.6-4.792Zm14.179,103.555c1.164-.286,2.281-.627,3.423-.823,1.274-.217,2.595-.189,3.851-.47a30.935,30.935,0,0,0,6.323-1.749c2.861-1.332,3.281-3.1,2.261-5.941-2.284-1.375-4.224-2.633-6.253-3.724a6.291,6.291,0,0,0-3.166-1,35.848,35.848,0,0,0-6.482,1.234c-.926.252-2.274.925-2.433,1.631a16.537,16.537,0,0,0-.29,5.726C276.836,482.643,276.779,484.841,279.358,485.936ZM230.525,376.055l9.183-8.549-10.875-9.544C229.666,364.478,228.86,370.144,230.525,376.055Zm12.979-4.989c-2.937,1.015-8.069,5.8-10.039,9.124l4.98,1.191,6.955-2.67c-.32-1.086-.719-2.29-1.023-3.517C244.042,373.837,243.8,372.459,243.5,371.066Zm57.424,106.7v3.5h5.782C307.19,477.454,306.767,477.2,300.928,477.763Z"/><path d="M466.785,409.553c.113.064.224.181.339.185,5.418.188,8.858,3.741,12.364,7.215,2.579,2.556,5.208,5.062,7.842,7.561a10.585,10.585,0,0,0,2.421,1.949c4.362,2.142,7.965,5.2,11.571,8.437,3.494,3.136,6.5,6.5,7.825,10.915,1.491,4.964,4.937,7.681,9.24,9.81a19.051,19.051,0,0,1,2.33,1.6c-1.65,3.012-4.72,4.737-7.364,4.535-1.108-.085-2.492-.329-3.3.194a6.932,6.932,0,0,1-7.714.169,4.162,4.162,0,0,0-1.393-.23c-.237.34-.481.533-.513.757-.513,3.556-1.906,6.29-5.66,7.582-1.328.457-2.28,2.036-3.375,3.131a6.494,6.494,0,0,1-5.984,2.067,5.109,5.109,0,0,1-4.254-2.963,22.147,22.147,0,0,0-1.26-2.1,7.591,7.591,0,0,0-1.622,1.286c-1.5,2.2-3.449,2.441-5.815,1.67a5.968,5.968,0,0,0-2.58-.077c-2.6.368-5.137.584-7.446-1.518l-3.678,3.475c-3.633.431-6.882.924-10.15,1.15a10.851,10.851,0,0,1-3.764-.723c-1.219-.376-2.369-.975-3.764-1.568-1.538,2.43-2.582,5.2-6.157,5.133-2.723-.054-5.464.53-7.839-1.415-3.906,2.049-7.717,2.79-11.323-.185-1.9,1.415-3.623,2.765-5.416,4.017a5.536,5.536,0,0,1-6.21.272c-2.735-1.407-5.649-2.464-7.5-3.252-3.623.476-6.262.943-8.92,1.133-2.195.157-4.424-.159-6.619-.006-3.615.25-6.377-.883-7.984-4.548-2.207.364-4.361.658-6.489,1.082-6,1.2-11.612-.2-17.017-2.6-2.868-1.277-3.348-6.441-.835-8.707,2.684-2.419,5.51-4.693,8.391-6.875a4.022,4.022,0,0,1,2.875-.7c3.556.718,7.07,1.651,10.586,2.555a7.676,7.676,0,0,1,4.546,3.44c.914,1.395,1.787,2.816,2.814,4.441l2.294-1.589a12.628,12.628,0,0,1,1.537-12.626c2.662-.142,2.844-.006,3,2.4.184,2.825.355,5.651.511,8.126.581.49.776.8.973.8,4.678.051,7.889,2.392,10.643,6.051a14.458,14.458,0,0,0,6.976,4.712c2.669.932,4.481.151,6.279-1.632,3.926-3.892,5.3-3.978,10.044-.825.746.5,1.551.9,2.461,1.423l3.913-2.915c2.635,1.043,4.92,1.834,7.094,2.861a13.1,13.1,0,0,1,2.556,2.159c1.683-1.049,1.1-2.751,1.218-4.194.271-3.243,1.607-4.054,4.634-2.715,1.183.524,2.351,1.082,3.534,1.606.47.209.963.369,1.373.523,6.358-1.684,6.565-1.7,10.239-.9,2.5-1.442,4.948-2.854,7.4-4.253.085-.049.244.034.7.112.423.961.92,2.094,1.487,3.383l7.765,1.307c1.459-1.782,2.921-3.57,4.4-5.382,4.078-2.016,4.743,2.274,6.963,3.987a8.641,8.641,0,0,0,1.926-1.243c1.8-2.021,3.3-4.191,6.56-4.219,1.477-.012,1.961-1.821,2.151-3.328.715-5.674,1.014-5.831,6.043-3.413.934.449,1.865.905,3.116,1.512l4.679-2.761c-1.827-2.844-3.245-5.608-5.186-7.934a113.935,113.935,0,0,0-8.356-8.659c-2.223-2.153-4.558-4.208-6.978-6.137a7.258,7.258,0,0,0-6.582-1.554,8.3,8.3,0,0,1-2.317.228c-6.738-.223-13.473-.557-20.212-.682a59.469,59.469,0,0,0-6.938.644c-1.361.135-2.758.632-4.384-.491.521-.544.851-1.215,1.288-1.294,3.3-.6,6.633-1.568,9.937-1.5,6.555.13,12.878-1.366,19.311-2.052a26.173,26.173,0,0,0,3.129-.787,56.018,56.018,0,0,0-11.8-8.778,3.235,3.235,0,0,0-1.5-.334c-4.184.1-7.928-1.4-11.438-3.4-3.287-1.877-6.623-1.941-10.164-1.208a21.7,21.7,0,0,1-4.991.6c-8.685-.268-17.367-.658-26.38-1.019a10.519,10.519,0,0,1,5.655-1.922c5.049-.334,10.1-.679,15.157-.824a17.046,17.046,0,0,0,7.874-1.729,35.349,35.349,0,0,1,5.393-1.9c.983-1.861.045-3-1.146-4.159-1.483-1.435-2.773-3.083-4.337-4.415a8.181,8.181,0,0,0-3.62-1.943,31.048,31.048,0,0,0-8.086-.189,40.062,40.062,0,0,1-10.762-1,21.351,21.351,0,0,0-12.908,1.344,18.078,18.078,0,0,1-7.151,1.441,124.014,124.014,0,0,1-14.73-1.006c-4.431-.578-8.464.543-12.542,1.854-.8.257-1.625.434-2.878.763.46-2.728,2.3-3.571,3.982-4.162a41.041,41.041,0,0,1,12.463-2.827c5.176-.152,10.353-.525,15.507-1.024a58.16,58.16,0,0,0,6.889-1.455v-8.706a8.71,8.71,0,0,0-4.564,3.926c-2.754,4.283-6.3,5.194-10.841,2.8-.575-.3-1.148-.608-1.916-1.015-3.263.568-6.8,1.532-9.821-1.8-1.072,1.749-2.034,3.317-3.134,5.11-2.83-1.912-5.128-.557-7.5.456-3.342,1.429-4.468.662-4.508-3.029-.015-1.379.428-2.87-1.541-3.968-.115,1.147-.2,2.084-.3,3.019-.328,2.954-1.727,3.777-4.536,2.622-.957-.393-1.867-.9-2.878-1.4l-4.47,1.1c-.872,1.15.343,3.4-1.967,3.74-1.92-1.631-3.018-3.648-4.394-8.211l2.444-2.119a2.02,2.02,0,0,0,.059-.67c-2.244-9.816-2.276-19.832-2.517-29.807-.109-4.525.619-9.064.743-13.6.142-5.186.2-10.385-.034-15.564-.12-2.691-.99-5.342-1.43-8.026-.569-3.477-.333-3.976,2.85-5.4,2.006-.9,4.107-1.586,6.177-2.336,2.8-1.013,5.569-2.107,8.416-2.951a23.022,23.022,0,0,1,6.085-1.141c11.294-.167,22.591-.194,33.886-.226,5.7-.016,11.4.083,17.1.082,2.626,0,3.917.784,4.3,3.471,1.213,8.578,3.1,17.04,2.883,25.839-.225,9.064.468,18.149.647,27.227.113,5.707.021,11.419.021,16.559,1.411,1.905,2.4,3.24,3.373,4.555,5.634.236,5.634.236,7.369,4.94l3.21,2.472c-1.06,3.187-3.019,1.494-4.63,1.42-1.884-.086-3.776-.066-4.134-2.725-2.481.931-4.442,1.194-6.392-.65-.88-.833-2.672-.7-3.92-.978l-6.446,4.139c3.894.873,7.812,1.82,11.765,2.589a12.313,12.313,0,0,0,3.062-.327c3.355-.257,6.709-.555,10.069-.7,2.495-.106,4.456,1.115,6.175,2.855,1.546,1.565,3.122,3.116,4.813,4.519,2.536,2.1,3.3,4.862,3.178,7.962a12.389,12.389,0,0,0,8.484,4.308ZM426.142,378.3c-.388-6.451-.748-12.265-1.085-18.081-.579-9.965-1.447-19.924-1.615-29.9a104.312,104.312,0,0,0-3-22.7,303.419,303.419,0,0,0-31.5.006c-6.854.28-13.725.165-20.588.254a10.319,10.319,0,0,0-1.767.321c0,4.186-.228,8.193.044,12.164.708,10.34,1.9,20.653,2.393,31,.406,8.531.083,17.1.083,25.668,2.033,2.8,5.263,4.821,5.224,8.96h5.7c.42-1.087.773-2.186,1.262-3.223a2.808,2.808,0,0,1,4.155-1.49,12,12,0,0,1,1.6,1.105c1.575,1.085,3.122,1.355,4.455-.34,1.415-1.8,3.115-1.53,4.9-.789.823.341,1.629.725,2.656,1.185,2.174-1.389,4.269-2.908,6.532-4.112a16.862,16.862,0,0,1,5.392-1.974c3.55-.5,4.672.758,4.579,4.382-.041,1.61-.007,3.222-.007,5.134C421.106,385.362,422.713,380.509,426.142,378.3Zm-64.027,4.526c2.591-4.247,2.588-4.247,2.314-8.355-.051-.774-.1-1.55-.11-2.326-.086-7.507-.123-15.016-.271-22.522a45.058,45.058,0,0,0-.65-5.784c-.923-6.146-2.1-12.263-1.748-18.532.05-.9-.211-1.806-.211-2.709,0-2.437-.028-4.88.123-7.31.125-2.008.49-4,.875-6.976l-8.877,5.073c0,3.591.085,6.817-.026,10.036-.093,2.7-.706,5.408-.575,8.088.308,6.332.959,12.647,1.4,18.974q.5,7.152.813,14.315c.219,4.879.34,9.762.516,14.974C358.743,378.616,359.485,382.225,362.115,382.822Zm10.333,86.341c-2.233-4.562-5.689-6.329-13.13-7.011-2.727,2.3-5.3,4.474-8.016,6.765C357.389,472.254,367.344,472.3,372.448,469.163Zm19.759,4.855c-2.4-1.031-4.138-1.365-5.288-2.368a5.17,5.17,0,0,0-5.075-1.051c-.915,1.3-2.2,2.421-2.17,4.654C383.7,474.823,387.659,475.945,392.207,474.018Z"/><path d="M81.9,410.314c2.144-.552,3.46-1.011,4.814-1.219a41.639,41.639,0,0,1,20.973,2.288,10.3,10.3,0,0,0,6.084.532,18.281,18.281,0,0,1,10.337.837c4.781,1.656,9.438,3.434,13.447,6.787,3.525,2.949,7.234,5.928,12.587,5.8,1.176-1.773,2.7-3.757,5.554-3.311,2.817-4.853,5.945-9.226,10.849-11.8-.78-4.928-6.262-11.027-10.636-11.283a24.272,24.272,0,0,0-8.782,1.179,15.763,15.763,0,0,1-11.359-.612,13.076,13.076,0,0,1-2.139-.935c-5.1-3.252-11.062-3.594-16.722-4.86a10.285,10.285,0,0,0-7.87,1.4,6.965,6.965,0,0,1-4.78,1.19c-2.832-.313-5.673-.579-8.48-1.046A8.767,8.767,0,0,1,93.3,394a2.294,2.294,0,0,1,2.564-2.305,34.5,34.5,0,0,1,6.2.123c4.008.6,7.608-.777,11.528-1.683-1.432-1.256-1.432-1.256-9.827.57l-1.8-2.208c-4.627,2.163-6.971-1.75-9.981-3.787l-5.345,5.967,2.981,2.214a18.051,18.051,0,0,1-3.334.49c-3.6-.246-6.9.218-9.934,2.491a8.691,8.691,0,0,1-4.365,1.291,17.177,17.177,0,0,0-11.95,5.706c-2.015,2.238-4.838,3-7.671,3.432-2.476.378-4.621.9-6.533,2.87-1.076,1.106-3.269,1.126-5.294,1.737-.862,3.546-3.071,6.654-5.637,9.625a9.034,9.034,0,0,1-5.494,3.286,63.929,63.929,0,0,0-7.48,2,9.79,9.79,0,0,0-5.756,4.939c-1.432,2.615-2.953,5.184-4.491,7.739a26.807,26.807,0,0,1-1.971,2.472c-.579-1.044-1.291-1.746-1.284-2.439a20.99,20.99,0,0,1,.676-4.182c2.085-9.561,7.794-15.246,17.663-16.481,5.036-.63,8.46-3.55,11.006-7.66a3.275,3.275,0,0,0-.433-.805c-1.308-1.2-3.263-1.895-3.4-4.013a13.855,13.855,0,0,1,1.348-7.949,5.092,5.092,0,0,1,4.514-2.608c1.675-.056,3.348-.172,5.256-.274,1.716-4.381,5.3-6.135,9.663-6.784a7.056,7.056,0,0,0,2.565-.882,8.059,8.059,0,0,1,8.068-.583c2.508-3.064,2.823-3.1,5.626-.924.709.551,1.456,1.052,2.244,1.617l4.718-3.758c0-3.949-.065-8.347.022-12.742.062-3.112.329-6.219.508-9.328a2.68,2.68,0,0,1,.123-1.153c1.785-2.894.966-5.986.745-9.032a143.2,143.2,0,0,1,2.095-34.121,8.357,8.357,0,0,0,.05-2.289,9.15,9.15,0,0,0-.516-1.721A9.034,9.034,0,0,1,85.9,307.4c6.7-3.394,13.469-6.671,20.153-10.1,2.648-1.361,5.069-3.171,7.733-4.5,3.462-1.721,7.033-3.235,10.62-4.682a10.231,10.231,0,0,1,4.166-.822c3.228.151,6.454.52,9.653.988a5.716,5.716,0,0,1,2.734,1.4c4.674,4.105,9.392,8.169,13.865,12.486,2.786,2.689,5.153,5.81,7.735,8.713,1.206,1.355,2.421,2.712,3.73,3.966a11.858,11.858,0,0,1,4,8.57c.133,7.257.095,14.521.36,21.773.221,6.073.919,12.13,1.129,18.2.17,4.915-.03,9.845-.151,14.766-.05,2.019-.726,4.052.169,6.063,4.572-1.671,12.012.248,15.543,4.625-1.257,2.5-2.241,3.051-4.694,2.815q-3.759-.361-7.534-.543c-.461-.023-.943.351-1.413.544-3.062,1.259-3.449,1.147-5.543-1.453-.889-1.1-1.829-2.166-2.934-3.469-2.886,2.481-7.068,2.689-9.157,6.428,1.706.829,3.72,1.321,5.046,2.553a64.12,64.12,0,0,1,7.561,8.307c1.74,2.308,1.095,5.127.677,7.888-.437,2.888-1.866,4.515-4.345,5.9a80.143,80.143,0,0,0-7.775,5.6l1.946,3.476a12.515,12.515,0,0,1-.551,2.745,4.5,4.5,0,0,1-1.712,2.306c-1.279.622-2.149-.338-2.7-1.5a1.161,1.161,0,0,0-.316-.364l-3.043,3.238c-1.29-1.19-2.291-2.115-3.539-3.268a22.911,22.911,0,0,0-1.032,5.909,5.107,5.107,0,0,1-2.122,3.92c-1.009.779-1.517,2.2-2.51,3.748l-2.145.548c-2.553,3.715-3.263,4.234-11.016,8.012-1.916,5.458-3.187,6.624-6.937,6.1,1.983-6.407,7.831-9.66,11.82-14.494a41.1,41.1,0,0,1-1.041-4.208c-.18-1.258-.34-2.646,1.034-3.5,1.34-.829,2.515-.255,3.592.537.819.6,1.544,1.335,2.67,2.325.528-2.479.935-4.845,3.616-5.332l.992-6.007c-2.047-1.113-4-2.3-6.069-3.261a55.046,55.046,0,0,0-5.466-2.017c-3.8-1.292-7.553-2.809-11.445-3.72a31.433,31.433,0,0,0-8.118-.41,10.288,10.288,0,0,1-7.573-2.357c-5.956-5.165-13.106-5.562-20.483-4.927a13.17,13.17,0,0,1-1.547.091A8.906,8.906,0,0,1,81.9,410.314Zm23.373-24.636c3.175-.773,6.047-1.572,8.966-2.128a9.465,9.465,0,0,1,3.376.3c1.359.255,2.675.75,4.037.978,1.917.32,3.573,1.011,4.17,2.99a2.325,2.325,0,0,0,2.778,1.893c.694-.808,1.579-1.739,2.351-2.755,2.9-3.818,2.9-3.821,7.126-1.192.857.532,1.783.953,2.543,1.353,4.413-2.343,4.647-2.274,5.393-4.8,1.247-4.221,4.183-6.74,7.817-8.733.894-.491,1.748-1.055,2.516-1.522v-10.4c-3.336-3.473-4.121-4.651-3.829-7.184a11.9,11.9,0,0,1,1.567-5.14c1.68-2.514,1.447-4.991,1.266-7.782-.359-5.536-1.776-11.078-.611-16.64.644-3.078-.379-5.252-2.68-7.161-5.891-4.883-11.678-9.892-17.609-14.725-2.613-2.129-5.485-3.92-7.308-6.9a4.287,4.287,0,0,0-5.43-1.858,28.244,28.244,0,0,0-5.88,2.873c-4.785,3.08-9.286,6.639-14.228,9.424-4.828,2.722-10.065,4.715-15.111,7.053a5.909,5.909,0,0,0-1.112.73c.216,5.985.665,11.527.546,17.057-.12,5.563-.814,11.114-1.231,16.672a14,14,0,0,0-.082,3.882c.7,3.237,1.12,6.365-.8,9.371-.243.381-.112,1.017-.109,1.535q.051,9.548.129,19.1a26.277,26.277,0,0,0,.326,2.64c1.295-.755,2.266-1.339,3.254-1.893,3.1-1.741,5.369-1.459,8.141.8a40.5,40.5,0,0,0,3.653,2.421C102.719,384.452,102.719,384.452,105.268,385.678Zm53.222-30.8c3.493,1.82,3.326,4.985,3.321,8.371-.006,4.522.551,9.05.984,13.564a3.939,3.939,0,0,0,3.476,3.742,8.669,8.669,0,0,0,.233-1.686c-.221-2.842-.639-5.676-.71-8.52-.106-4.266,0-8.537.052-12.805.024-2.065.541-4.22.108-6.174a88.227,88.227,0,0,1-1.638-18.173c-.045-3.857-.147-7.713-.231-11.9l-4.176.4c.6,6.42,1.161,12.463,1.73,18.506.4,4.283,1,8.579-2.3,12.194C158.872,352.913,158.836,353.816,158.49,354.877Zm.621-38.538c-5.068-8.966-14.037-14.221-19.888-22.344l-7.3-.515a8.2,8.2,0,0,0,3.1,2.9,65.262,65.262,0,0,1,6.934,4.245c4.309,3.453,9.187,6.306,12.128,11.3a18.06,18.06,0,0,0,3.532,3.6A6.748,6.748,0,0,0,159.111,316.339Zm-2.157,61.619c-4.068,1.917-6.441,4.667-7.41,8.946,3.138-.536,6.408,1.294,9.333-1.252C158.248,383.134,157.635,380.682,156.954,377.958ZM62.477,392.451c-.267-.162-.513-.436-.683-.4-3.1.741-6.195,1.517-9.287,2.3-.372.094-.886.137-1.065.392a5.417,5.417,0,0,0-1.317,2.46c-.03,1.015.6,2.049,1.045,3.376a29.524,29.524,0,0,0,3.751-2.033C57.436,396.632,59.851,394.584,62.477,392.451Zm-17.022,6.871c-5.747.075-6.316.607-5.211,4.668,2.17,1.3,4.249,1.118,5.913-.752C47.307,401.945,46.665,400.6,45.455,399.322Zm93.639-5.913.453-.635-6.044-4.958-1.238,2.879Z"/><path d="M479.612,284.5c2.631-.738,4.965-1.455,7.332-2.043,2.986-.742,3.84-.213,5.1,2.577.571,1.264,1.136,2.794,2.18,3.529a8.365,8.365,0,0,1,3.978,6.96c5.2.776,11.022.232,13.777,6.641l-2.286,1.553-2.774-4.134c-2.248-.267-4.68-.5-7.094-.862-1.251-.186-3.136-.184-3.594-.949-2.342-3.918-7.857-4.087-9.469-8.952-1.521.439-2.709.9-3.939,1.115-2.3.41-4.643.86-6.585-1.1-1.64-1.652-2.914-3.351-1.591-5.827a3.467,3.467,0,0,0,.151-1.353l-4.576-2.827-5.7-1.532c-5.841,3.074-10.809.486-14.292-7.783-6.4.457-6.766.135-6.71-6.1-3.441-.831-6.169,3-9.924,1.339-3.092-1.367-6.59-1.815-10.632-2.857-3,1.914-6.416.393-9.676-1.573-1.287-.777-2.585-1.914-1.4-4.02,2.676-.531,4.479,2.312,7.522,2.03l2.675-1.82c.418-.04.717-.163.921-.073,2.212.975,4.366,2.1,6.624,2.95,2.12.8,4.345,1.316,7.357,2.2l7.314-2.152c.2-1.744.415-3.63.629-5.515.408-3.586,1.464-4.6,4.808-5.653a24.353,24.353,0,0,1,9.588-.757,13.049,13.049,0,0,1,12.06,12.511,115.965,115.965,0,0,0,1.581,13.116c.266,1.468,1.4,3.49,2.622,3.932,2.955,1.071,3.59,3.06,3.6,5.717A10.36,10.36,0,0,0,479.612,284.5Zm-24.33-31.936c.732,4.7,1.078,8.8-.066,13.027-.9,3.331,2.166,7.136,5.952,8.307.567-.957.946-2.205,1.787-2.845a8.04,8.04,0,0,1,2.882-.936c0-3.336-.193-6.56.047-9.752.326-4.335-.535-5.923-4.724-6.963A58.282,58.282,0,0,0,455.282,252.562Zm-6.453-.13v12.4l3.215-1.118C452.415,255.049,452.139,253.939,448.829,252.432Z"/><path d="M99.441,466.211c1-2.794.848-5.679,3.47-7.093,1.983-1.068,3.242-.565,6.125,2.607,1.464-.921,2.835-2.164,4.442-2.7,2.039-.68,3.285,1.051,4.614,2.578,3.257-.889,6.545-1.291,9.361,1.226-.9,3.056-1,3.082-5.58,1.7-5.237,2.308-5.237,2.308-8.093-1.5-.848,1.677-1.639,3.244-2.386,4.724-3.349.378-3.349.378-6.787-3.393-.238.977-.395,1.765-.623,2.533-1.115,3.763-3.749,4.869-7.16,2.985a17.193,17.193,0,0,1-1.789-1.28c-4.368.223-4.451.173-5.916-3.587-3.174-.008-5.11,4.288-9.161,2.58.061-1.222.127-2.523.2-3.912-3.052.668-3.557,5.342-7.038,4.2l-2.658,3.168c-4.015-1.006-5.342-4.611-7.915-6.381a16.662,16.662,0,0,0-3.857-.512,14.092,14.092,0,0,0-5.131,1.255,14.028,14.028,0,0,1-8.222,1.386c-4.458-.336-8.647-.915-12.488-3.463a14.927,14.927,0,0,0-5.46-1.979c-4.456-.824-7.559-3.9-11.047-6.31-1.947-1.345-1.842-2.028-.167-4.985.549.906.873,2.1,1.648,2.608,3.138,2.051,6.274,4.07,10.147,4.722,3.823.644,7.523,2.065,11.353,2.606a96.052,96.052,0,0,0,14.33,1c1.817-.018,3.62-1.562,5.377-2.661,3.483-.194,5.355,2.871,8.176,4.655.888-2.6,1.434-5.457,4.728-5.562,2.682-.086,3.06,2.368,3.988,4.318,2.543-.325,4.355-3.231,7.889-1.629L85.32,461.8c.385-.092.764-.156,1.126-.274,1.835-.6,3.64-1.314,5.507-1.781a3.1,3.1,0,0,1,3.337,1.473C96.494,462.82,97.847,464.31,99.441,466.211Z"/><path d="M383.211,434.561v7.845c-1.126.824-2.153.7-2.607-.45a6.456,6.456,0,0,1-.212-3.034,15.127,15.127,0,0,1,.842-2.769l-3.594-1.239-8.192,1.5c-.611.577.436,3.258-2.611,3.082-.892-2.89-1.822-5.9-2.74-8.878,1.828-2.533,2.2-2.628,4.186-1.242a14.616,14.616,0,0,0,3.6,1.955,37.365,37.365,0,0,0-6.967-13.044c-3.228-4.038-3.216-8.317-1.307-12.767a12.187,12.187,0,0,1,2.209-2.709c2.422.868,2.268,2.5,2.071,4.034a13.831,13.831,0,0,0,2.3,9.528c1.87,3,2.822,6.565,4.3,10.192,2.72-.215,4.233,1.639,5.478,4.1C380.629,431.977,381.867,432.988,383.211,434.561Z"/><path d="M466.894,409.664c-1.064-1.746-2.183-3.463-3.176-5.249-.736-1.323-.958-2.746.26-3.951,1.311-1.3,2.8-1.112,4.294-.31.913.489,1.812,1,2.91,1.613a19.128,19.128,0,0,1,2.483-1.622,15.265,15.265,0,0,1,2.763-.683l3.282,5.774c1.39-.523,2.879-1.627,4.039-1.35.935.223,1.471,2.115,2.353,3.539.51-.349,1.224-.763,1.853-1.281,2.34-1.928,4.2-2.5,5.554-1.444,2.043,1.6,1.38,3.679.8,5.71-.312,1.085-.572,2.184-.9,3.472,1.125.2,1.992.374,2.864.513a3.4,3.4,0,0,1,2.773,2.411c.512,1.336.664,2.6-.659,3.465-1.463.954-2.4.086-3.131-1.18a7.283,7.283,0,0,0-.666-.857c-5.438-1.139-5.9-1.7-5.451-6.486a27.723,27.723,0,0,1-5.651,1.374c-.8.037-1.668-1.394-2.726-2.359-4.782,1.4-3.265-3.927-5.454-5.749l-4.689,1.817-1.1,2.722h-2.723Z"/><path d="M205.025,339.52c-5.44,4.851-6.043,4.905-9.9.849-2.115,2.183-4.261,1.567-5.953-.161l-5.5,4.7c-1.043-1.711-3.069-3.086-2.869-6.151l4.1,1.032c1.168-1.577-.583-4.007,2.025-5.6l4.325,1.965c1.792-.893,1.775-4.128,4.6-4.05,2.239.25,2.747,2.4,4.081,4.074,2.181-.65,4.394-2.507,6.808-1.188a11.125,11.125,0,0,1,3.064,3.25c.864,1.033,2.885.066,3.323,2.015C209.217,342.411,207.527,342.281,205.025,339.52Z"/><path d="M47.181,358.942c-2.133,3.149-4.541,2.718-6.892,1.408-1.11.941-2,2.139-3.164,2.552-1.1.388-2.486-.053-3.875-.137.3,1.5.561,2.823.8,4.147.012.066-.169.166-.26.251-3.472-1.816-4.935-5.368-3.456-8.92.789.206,1.632.374,2.438.652.72.25,1.4.622,2.063.926,1.031-1.566,1.679-3.535,3.011-4.279,1.177-.657,3.116.051,4.882.167,3.1-4.729,3.834-4.9,7.786-1.437,1.038-.571,2.108-1.231,3.238-1.766a4.652,4.652,0,0,1,5.109.6c1.517,1.154,1.836,2.286.976,3.648-.947,1.5-2.166,1.691-3.615.684a7.962,7.962,0,0,0-1.1-.522C52.937,358.973,50.81,361.356,47.181,358.942Z"/><path d="M433.223,437.679c-4.389,2.642-8.916,1.335-13.352-.182-2.39-.818-2.962-4.035-1.351-6.211a7.219,7.219,0,0,1,8.144-2.763c2.854.773,5.619,1.877,8.7,1.565a5.425,5.425,0,0,1,2.9.892A3.881,3.881,0,0,1,440.2,435.6a3.952,3.952,0,0,1-4.2,2.725A19.263,19.263,0,0,1,433.223,437.679Zm-4.243-3.109c-4.223-3.032-5.437-2.934-7.572,0Z"/><path d="M339.464,405.7l-12.408,1.524-2.627-3.1c-1.16,2.746-4.613,3.348-4.7,7-2.971-1.97-3.857-4.645-4.649-7.276-.35-1.162,1.114-2.163,2.315-1.736a5.7,5.7,0,0,1,1.252.867c.4.286.8.573,1.507,1.079a20.7,20.7,0,0,1,1.021-3.456,5.652,5.652,0,0,1,2.011-2.539c1.289-.661,2.471.159,3.305,1.291.454.616.885,1.249,1.476,2.088,1.934-1.14,3.851-2.068,5.876-.035.574.576,1.952.308,2.941.522C339,402.408,339.507,403.136,339.464,405.7Z"/><path d="M447.979,353.8l3.407,2.161c.307-.917.548-1.592.761-2.277,1.049-3.375,3.12-3.856,5.618-1.282.448.463.781,1.037,1.223,1.507s.939.859,1.512,1.373c3.679-1.045,7.414-2.065,9.849,2.217-1.769,2.192-1.769,2.192-5.9-.952-2.521,1.488-5.172,4-8.073.185-1.669,1.75-2.652,4.275-5.519,3.639-.473,1.048-.867,1.919-1.294,2.864-3.413-1.179-2.725-4.288-3.523-6.562C445.636,355.51,446.018,354.336,447.979,353.8Z"/><path d="M320.816,333.775c-2.336-2.508-2.336-2.508-.577-6.03l5.78,1.181c.528-.249,1.764-.9,3.05-1.427,2.082-.858,2.833-.292,3.417,2.653-2.712.868-5.1,2.669-8.3,2.328C323.118,332.367,321.938,333.315,320.816,333.775Z"/><path d="M115.441,433.076c.448-.175.937-.565,1.338-.49,3.522.663,7.069,1.259,10.523,2.194,1.673.453,1.626.843,1.485,3.3-1.814.954-3.108-.571-4.623-1.026-1.479-.444-2.985-.806-4.451-1.29-1.513-.5-2.991-1.1-4.485-1.663Z"/><path d="M90.392,370.239a9.269,9.269,0,0,1,1.325-2.082,3.678,3.678,0,0,1,5.223-.221,4.832,4.832,0,0,1,.736,6,3.1,3.1,0,0,1-4.154.736A5.989,5.989,0,0,1,90.392,370.239Z"/><path class="cls-1" d="M524.571,4.092V520.377H4V4.092H524.571m4-4H0V524.377H528.571V.092Z"/><path class="cls-2" d="M525.268,521.463H4V3.873H525.268ZM34,491.463H495.268V33.873H34Z"/></g></svg>