<svg xmlns="http://www.w3.org/2000/svg" viewBox="0 0 528.571 518.793"><defs><style>.cls-1{fill:#616060;}.cls-2{fill:#8d8989;}</style></defs><title>icon</title><g id="Layer_14" data-name="Layer 14"><path class="cls-1" d="M524.572,4.04V520.326H4V4.04H524.572m4-4H0V524.326H528.571V.04Z"/><path class="cls-2" d="M525.267,521.412H4V3.821H525.267ZM34,491.412H495.267V33.821H34Z"/><path d="M260.245,242.114c-9.211-10.668-17.483-20.428-25.96-30.008-5.98-6.758-10.734-13.524-7.672-23.449,1.352-4.383-4.894-10.411-9.63-10.355-2.558.03-5.132.364-7.671.178-8.548-.628-14.394-7.425-12.6-15.741a54.634,54.634,0,0,1,6.444-17.091,134.1,134.1,0,0,1,61.134-53.039A49.579,49.579,0,0,1,281.3,88.65c10.939-.582,16.6,6.126,15.2,16.979a63.386,63.386,0,0,1-2.127,8.136c3.607,5.629,7.77,9.532,15.463,8.524,5.827-.763,9.79,3.579,13.394,7.767q26.072,30.3,52.225,60.532c11.222,12.991,22.408,26.013,33.717,38.928,5.318,6.074,8.889,12.4,6.2,20.916-1.7,5.4,4.58,6.828,5.369,10.861,4.243-.193,7.8-.646,11.332-.458,9.057.482,14.835,7.074,13.3,16.016a44.962,44.962,0,0,1-5.34,15.064c-15.095,25.47-36.543,43.944-63.688,55.635a46.958,46.958,0,0,1-14.857,3.406c-11.737.876-18.211-7.121-15.594-18.615.509-2.234,1.245-4.416,1.955-6.895-1.471-1.631-3.1-3.229-4.48-5.023a6.146,6.146,0,0,0-6.566-2.6c-7.225,1.1-12.893-2.058-17.538-7.444-9.515-11.033-19.078-22.023-29.1-33.578-8.661,7.433-16.972,14.526-25.24,21.669C214.328,342.2,163.565,385.74,113.253,429.8c-12.53,10.973-30.606,9.487-38.157-5.823-4.692-9.516-2.275-19.988,6.542-27.7,16.4-14.337,32.942-28.5,49.427-42.736q62.542-54,125.086-108.006C257.3,244.547,258.476,243.592,260.245,242.114Zm45.517-112.883a38.421,38.421,0,0,0-4.286,1.191c-28.858,10.489-50.663,29.364-65.783,55.942-4.588,8.064-3.832,12.063,2.485,19.386q42.392,49.143,84.86,98.219c6.611,7.64,9.477,8.6,18.748,5.022,27.765-10.709,49.059-29.144,63.916-54.877,5.052-8.75,4.426-12.53-2.039-20.035q-27.572-32.006-55.2-63.964c-9.871-11.436-19.709-22.9-29.634-34.288C315.808,132.358,312.794,128.673,305.762,129.231ZM245.667,264.08c-1.687,1.381-2.689,2.164-3.65,2.994Q169.668,329.53,97.328,392c-4.066,3.512-8.253,6.9-12.123,10.62-4.555,4.376-6.353,9.636-4.6,16.04,2.749,10.039,16.1,16.186,27.858,5.931C159.574,380.016,211,335.81,262.291,291.444a42.227,42.227,0,0,0,3.581-4.026ZM286.6,111.485a23.027,23.027,0,0,0,1.56-2.8c1.252-3.647,2.931-7.518-.175-10.872-2.935-3.169-6.991-3.039-10.767-1.849-5.581,1.758-11.315,3.364-16.5,5.993a130.2,130.2,0,0,0-43.99,36.429c-4.359,5.58-7.731,11.991-11.092,18.27-2.074,3.874-3.279,8.613-.493,12.428,3.016,4.129,7.835,2.6,12.091,1.844.439-.078.8-.595,1.461-1.116.1-7.573,4.34-13.019,10.046-17.852q19.039-16.125,37.745-32.642C272.243,114.237,278.2,110.107,286.6,111.485Zm67.752,216.95c-.605,2.479-1.114,4.176-1.426,5.908-1.228,6.84,1.083,10.032,7.942,9.409a47.712,47.712,0,0,0,15.5-3.819,129.322,129.322,0,0,0,55.992-48.748,47.8,47.8,0,0,0,5.53-13.371c1.843-7.01-1.822-10.788-9.111-10.016a35.2,35.2,0,0,0-5.489,1.536c-.027,8.838-5.273,14.438-11.6,19.7q-18.323,15.222-36.063,31.135C369.638,325.557,363.265,329.146,354.355,328.435Zm-5.814-14.051c5.412,7.3,12.035,9.017,17.91,4.115q22.937-19.139,45.237-39.03c6.458-5.77,5.747-12.648-1.128-18.917C395.324,284.432,374.76,302.236,348.541,314.384ZM293.682,125.058c-6.291-7.92-11.836-8.838-19.091-3.166-4.421,3.456-8.575,7.257-12.825,10.931-10.241,8.851-20.592,17.58-30.658,26.626-7.114,6.392-6.89,12.824.449,19.429C246.724,154.594,267.889,137.141,293.682,125.058ZM264.808,247.3,251.1,259.512l20.633,23.759,13.727-11.933Z"/><path d="M365.329,461.608c-10.9,2.956-21.38,1.512-31.508-.761a130.514,130.514,0,0,1-26.7-9.159c-9.692-4.552-15.241-12.345-14.277-24.014a185.2,185.2,0,0,0,.05-23.806c-.43-9.262,3.909-15.625,11.216-20.434,10.721-7.057,22.827-10.252,35.339-11.828a223.669,223.669,0,0,1,23.724-1.47,9.056,9.056,0,0,0,7.659-3.915c10.113-12.708,23.157-21.576,37.937-27.936,2.294-.987,5.166-.632,7.771-.9a46.91,46.91,0,0,1,.13,7.181c-.416,3.25-1.333,6.436-2.218,10.487,5.427,2.15,10.653,4,15.661,6.319,1.847.856,3.18,2.82,4.748,4.279-1.554,1.509-2.9,3.347-4.7,4.464-5.4,3.354-10.964,6.426-16.219,9.465.276,1.341.214,2.071.49,2.237,10.325,6.215,14.673,15.227,13.091,27.208a62.087,62.087,0,0,0-.051,8.05l1.635.212c1.239-7.174,2.51-14.342,3.691-21.525.247-1.5-.108-3.145.313-4.577.4-1.364,1.3-3.43,2.25-3.586a5.938,5.938,0,0,1,4.56,1.567c3.523,3.659,6.7,7.646,10.5,12.075,3.4-2.821,6.392-5.519,9.63-7.871,1.325-.962,3.849-2.1,4.668-1.519a6.869,6.869,0,0,1,2.437,4.964c-.028,22.443-4.578,43.72-17.308,62.642-21.37,31.767-62.071,29.16-81.7,5.378C367.344,463.853,366.476,462.916,365.329,461.608Zm94.015-57.5-9.433,6.117-1.647,1.075L440,400.374c-4.484,20.807-10.038,39.923-27.783,53.155,7.549,4.807,15.713,5.7,24.192,5.726a8.611,8.611,0,0,0,8.11-4.527,92.865,92.865,0,0,0,14.712-50.744l.472-.235ZM407.79,346.857c-35.916,15.232-51.567,51.669-47.049,76.742a49.3,49.3,0,0,1,6.649.07c1.882.256,5.052.854,5.233,1.775.371,1.89-.618,4.224-1.536,6.141a43.877,43.877,0,0,1-3.838,5.674l9.7,11.325-6.231,7.325C384.5,479.7,419.284,480.634,431.905,467c-5.358-1.388-11.215-1.813-15.92-4.365-8.5-4.611-16.525-6.634-25.963-2.852-4.539,1.819-6.431-1.067-4.487-5.952,1.093-2.748,2.468-5.385,3.611-7.844-12.66-10.547-12.6-10.5-3.428-23.312a14.667,14.667,0,0,0,2.617-6.764c1.728-17.49,9.333-31.731,23.071-42.658,3.127-2.488,6.488-4.682,10.247-7.373-1.658-.757-2.761-1.311-3.9-1.774-10.913-4.435-10.913-4.43-9.5-16.09C408.281,347.8,408.079,347.553,407.79,346.857Zm-107.881,68c0,4.075.394,7.118-.068,10.024-1.942,12.2,4.885,18.65,14.83,23.04,11.865,5.239,24.468,7.093,37.293,8.209,7.1.618,11.445-2.525,14.9-7.937-8.371-10.167-8.371-10.167-5.332-17.354C340.037,430.5,319.192,427.885,299.909,414.853Zm6.538-4.594c13.494-15.185,31.721-17.694,50.4-19.373L362.789,377c-7.331.44-13.612.5-19.81,1.255-13.021,1.577-25.85,4.151-36.625,12.293C298.26,396.666,298.225,402.053,306.447,410.259Zm45.763,13.2c.655-8.848,1.243-16.8,1.873-25.31-15.316,2.087-29.892,3.567-41.3,16.1C325.752,420.714,338.517,422.416,352.21,423.458Zm33.82,10.683c4.172,3.284,7.779,4.99,9.506,7.836,1.433,2.361.653,6.066.918,10.164,6.084-3.116,11.866-5.733,17.282-8.965,3.8-2.266,6.614-5.761,6.753-10.527.161-5.534.037-11.076.037-16.255-9.307,3.67-18.325,6.935-27.055,10.842C390.794,428.434,388.905,431.392,386.03,434.141Zm21.285-47.327c-2.564,4.006-4.955,7.742-7.3,11.4l14.117,11.431C424.177,401.932,422.263,394.269,407.315,386.814Zm-10.107,18.439c-.705,5.272-1.214,9.074-1.9,14.163L408.3,413.8Z"/></g></svg>