<svg xmlns="http://www.w3.org/2000/svg" viewBox="0 0 528.571 518.793"><defs><style>.cls-1{fill:#fff;}.cls-1,.cls-3{fill-rule:evenodd;}.cls-2,.cls-3{fill:#161717;}.cls-4{fill:#616060;}.cls-5{fill:#8d8989;}.cls-6{fill:none;}</style></defs><title>icon</title><g id="Layer_42" data-name="Layer 42"><path class="cls-1" d="M331.776,269.659c-3.77-7.1-14.221-9.886-20.5-3.609-7.57-12.805-23.074-20.137-37.9-9.983-3.511,2.4-7.03,6.634-6.469,11.275a51.893,51.893,0,0,0,2.958,12.3,10.186,10.186,0,0,0-1.4,3.268,28.347,28.347,0,0,0,.982,15.977c-.659,6.489-1.454,15.521,5.1,16.864,1.262,8.461.552,16.027,7.6,17.208-.4,1.632,9.831-.267,8.989,1.092a12.161,12.161,0,0,0-11.568,6.129c-4.314,7.008-8.088,12.087-11.352,16.507-.2-.124-.4-.272-.6-.383-1.894-6.863-6.965-11.891-16.659-14.059.272-1.393.514-2.732.68-3.93a11.168,11.168,0,0,0,5.333-5.088c4.408-8.407,11.055-24.991,7.234-35.012.5-.719-.446.735,0,0,.331-.506-.229-3.685.064-4.217,6.881-12.515,3.239-25.142-4.62-33.379-5.725-13.855-16.125-26.121-27.064-29.041-14.931-3.986-23.873,3.71-26.725,14.319-8.874,4.828-15.032,14.441-11.309,27.094,1.968,6.681,6.137,15.262,12.015,21.437-.591,14.03,7.293,29.066,18.9,37.936-.289-3.995,13.715,2.376,13.715,2.746.013,1.916-13.8,2.214-13.97,4.067-2.176.306-4.356.616-6.52.9-8.912.849-17.829.743-26.856.705a4.1,4.1,0,0,0-4.2,4.4,108.669,108.669,0,0,1-15.814-5.822,70.514,70.514,0,0,1-15.071-9.426c-4.752-3.957-5.521-8.9-3.6-12.117,5.653.917,11.616.221,15.645-3.337a3.5,3.5,0,0,0,1.169-3.022,4.4,4.4,0,0,0,3.213-2.707q.547-1.357,1.088-2.72c.8-2.006-.863-5.045-3.039-5.351a38.51,38.51,0,0,0-8.7-.361c-6.29-2.231-15.228-1.2-20.064,1.058-7.969,3.719-5.5,9.154.62,12.84-1.211,3.421-1,7.735,1.377,12.822,10.8,23.1,47.333,31.026,70.216,30.6a3.991,3.991,0,0,0,3.927-2.617,11.2,11.2,0,0,0,2.29,7.068c-2.265,11.245-2.987,22.061,5.356,33.69a14.416,14.416,0,0,0,1.219,1.334,10.848,10.848,0,0,0-2.031,3.774c-.2.272-.442.578-.553.765a148.16,148.16,0,0,0-17.357,47.176c-2.448,13.15,11.6,21.3,21.82,12.7,4.679-3.936-.425,16.244,2.737,11.441,5.993,6.171,8.687,17.069,12.478,8.62,2.155,4,31.23-7.957,34.978-4.268,10.6,10.43,19.155-21.955,11.692-34.876-19-32.9-10.523-53.482,5.338-79.985,1.5-.7,2.75-1.492,4.072-2.262,2.9,6.838,2.865,14.862,5.448,21.849,3.081,8.335,6.379,15.722,13.222,21.647,4.22,3.655,10.4-2.474,6.154-6.155-6.77-5.865-10.111-14-12.528-22.461-1.926-6.737-2.054-13.647-5.041-19.988,9.745-8.79,12.329-20.422,11.424-33.351.1-.042.186-.111.289-.157a10.96,10.96,0,0,0,8.823-1.627C344.913,308.394,350.956,280.53,331.776,269.659Z"/><path class="cls-1" d="M375.867,259.658c-1.968,9.652-7.137,18.947-7.532,28.9A248.908,248.908,0,0,0,369.7,324.6c.17,1.615.1,3.2.136,4.8a4.845,4.845,0,0,0-6.639,3.77c-.693,5.512-.952,11.033-1.156,16.554a4.3,4.3,0,0,0-4.671,2.962c-4.412,14.361-4.539,28.859-4.5,43.768-.323,1.811-.587,3.621-.99,5.423a30.67,30.67,0,0,1-5.271,10.735c-10.659,10.082-16.209,25.849-21.33,39.084-1.53,3.945,3.341,6.341,6.391,4.913a23.861,23.861,0,0,0,6.864-4.488c2.818-2.338,1.156-5.7-1.517-6.817a120.253,120.253,0,0,1,6.962-15.113,4.065,4.065,0,0,0,.539-.374,133.613,133.613,0,0,0,12.649-15.029,3.544,3.544,0,0,0,.361-3.5,24.279,24.279,0,0,0,1.164-2.431,77.055,77.055,0,0,0,2.487-9.818,3.6,3.6,0,0,0,.233-.518,149.752,149.752,0,0,1,4.655-15.259,4.314,4.314,0,0,0,.76-.518,109.959,109.959,0,0,0,5.237,23.393c1.5,4.394,9.027,3.986,8.546-1.157-.144-1.555-.268-2.8-.391-3.935a3.784,3.784,0,0,0,.391-2.049c-.034-.391-.128-.764-.17-1.156h.013c-.013-.034-.013-.068-.026-.093a113.073,113.073,0,0,0-5.69-25.632c-.162-3.677-.192-7.4-.111-11.2a3.975,3.975,0,0,0-.234-1.325,88.383,88.383,0,0,0,4.216-21.242c.63-11.569-1.368-22.988-1.806-34.554-.582-15.329,4.522-27.37,7.459-41.819C385.373,256.492,376.984,254.159,375.867,259.658Z"/><path class="cls-2" d="M40.383,478.775a1.262,1.262,0,0,1-1.7-.187,1.236,1.236,0,0,1,.213-1.734s5.966-4.948,31.178-1.871c17.107,2.126,38.548,1.921,49.947,1.343,2.5-.119,4.488-.237,5.869-.323.672-.051,1.063,1.429,1.084.9v-.05a7.365,7.365,0,0,1,.187-2.194l.051-.051a7.358,7.358,0,0,1,1.177-2.7,5.222,5.222,0,0,1,2.78-2.176,6.617,6.617,0,0,1,3.536-.068c3.608.9,6.366,1.615,7.854,2.057.446-2.108,1.755-5.576,5.092-3.842a71.969,71.969,0,0,1-4.692-10.523c-.825-2.754-.731-4.862,1.1-5.44,3.145-.952,9.065,6.478,13.554,12.053,1.64,2.041,3.077,3.842,3.973,4.811v-1.666c.026-2.567.026-5.456,1.981-6.289,1.581-.7,3.935.51,6.638,1.853,3,1.546,6.541,3.332,8.071,2.26a10.283,10.283,0,0,0,2.406-2.5c1.181-1.614,1.921-2.584,5.189-2.261.094,0,.094.069.094,0a10.531,10.531,0,0,0-.71-3.128,8.038,8.038,0,0,1-.633-3.91c.327-1.088,1.058-1.6,2.533-1.224,2.983.833,9.133,5.253,13.188,8.211,1.134.833,2.125,1.531,2.758,1.972a21.152,21.152,0,0,1,4.492,4.489,1.285,1.285,0,0,1,.446.526c.392.9.226,1.395-.573,1.785-.9.375-1.216-.068-1.768-.765a17.421,17.421,0,0,0-3.961-4.045c-.71-.443-1.675-1.157-2.831-1.99-3.655-2.685-9.1-6.579-11.858-7.684.107.527.332,1.225.553,1.921a11.308,11.308,0,0,1,.8,4.1c-.153,1.48-.9,2.313-2.758,2.125-1.921-.2-2.346.374-3,1.343a12.774,12.774,0,0,1-2.924,2.958c-2.711,2.04-6.979-.136-10.634-2.005-2.146-1.072-4.033-2.041-4.526-1.837-.506.239-.506,2.3-.506,4.1-.038,1.666-.059,3.061-.6,3.893-.646.9-1.483,1.105-2.665.272a45.031,45.031,0,0,1-5.066-5.763c-4.033-5.083-9.384-11.73-10.952-11.22a7.807,7.807,0,0,0,.51,2.363c1.092,3.588,3.935,8.908,5.644,12.24a13.506,13.506,0,0,1,1.589,3.452c0,.9-.374,1.359-1.271,1.359-.637,0-.871-.255-1.249-.781h0a13.274,13.274,0,0,0-3.205-2.806c-1.568-.9-1.98,2.754-2.018,3.264a.782.782,0,0,1-.06.255,1.243,1.243,0,0,1-1.509.833s-3.43-1.088-9.074-2.431a3.468,3.468,0,0,0-2.171,0,2.782,2.782,0,0,0-1.577,1.207,5.963,5.963,0,0,0-.825,1.921v.068a9.537,9.537,0,0,0-.225,1.224,1.689,1.689,0,0,1,.06.187v.2c0,.833-1.156,1.343-3.264,1.529-1.4.119-3.456.255-5.955.392-11.539.492-33.133.7-50.38-1.343-24.213-2.959-29.377,1.343-29.4,1.343Z"/><path class="cls-2" d="M482.687,486.08c-.09.07-37.62,2.83-48.28.91-7.65-1.42-9.9-3.4-11.15-4.42a3.64,3.64,0,0,0-1.66-1.11,40.867,40.867,0,0,0-5,.14c-4.39.25-10.99.71-15.83.06-2.2-.3-4.35-.64-6.44-.96-5.38-.89-10.03-1.6-12.14-1.02-.74.25-1.12.32-1.21.25a3.871,3.871,0,0,1,.09-2.11,4.012,4.012,0,0,0-.07-2.04,4.233,4.233,0,0,0-1.44-2.19,5.835,5.835,0,0,0-2.37-1.02,7.372,7.372,0,0,0-3.56.19c-.57.18-.99.32-1.38.44-.63.19-.95.39-.99.32-.44-.13.67-.32,1.19-1.78a40.179,40.179,0,0,1,2.08-4.56c1.19-2.31,2.18-4.23,1.34-5.18-.73-.84-2.27-.33-5.22,2.24-1.66,1.46-3.36,3.13-5,4.73-3.77,3.6-7.27,7-8.67,7-.07,0-.1-.39-.1-1.22,0-4.1,5.28-12.75,8.68-18.33,1.89-3.08,3.3-5.39,2.82-6.29a1.189,1.189,0,0,0-1.86-.49c-.99.49-3.97,3.26-7.69,6.71-5.32,4.93-12.17,11.27-16.21,13.98-2.98,1.92-4.58,2.04-5.51,1.41-.96-.72-1.37-2.32-1.67-3.59a1.952,1.952,0,0,0-2.63-1.68,16.569,16.569,0,0,0-4.25,2.63,16.757,16.757,0,0,1-3.94,2.64.22.22,0,0,1-.13.06c-.11,0,.09-.06.06-.2a5.658,5.658,0,0,1-.17-1.92,29.294,29.294,0,0,1,1.16-6.42c.05-.13.09-.25.13-.36.35-.97.07-1.55-.73-1.87-1.25-.48-6.01,3.38-10.08,6.78-.24.19-.47.39-.7.58-1.79,1.54-3.39,2.89-4.29,3.53-2.69,1.99-6.73,1.94-6.73,1.94a1.162,1.162,0,0,0-1.21,1.14,1.244,1.244,0,0,0,1.19,1.28s4.87.08,8.2-2.42c.9-.66,2.56-2.06,4.42-3.6l1.41-1.18,5.57-4.65c-.07.31-.14.63-.2.96a28.163,28.163,0,0,0-.56,4.24,8.1,8.1,0,0,0,.26,2.68,2.4,2.4,0,0,0,2.01,1.93,5.138,5.138,0,0,0,1.25-.19,20.937,20.937,0,0,0,4.59-3.03,15.657,15.657,0,0,1,3.07-2.05c.38,1.61.99,3.6,2.56,4.69,1.66,1.2,4.23,1.34,8.24-1.29,4.22-2.74,11.18-9.22,16.56-14.22.96-.9,1.85-1.73,2.69-2.5-3.53,5.77-8.75,14.47-8.75,19.1,0,2.56.94,3.63,2.54,3.63,2.37,0,6.21-3.7,10.35-7.68,1.66-1.6,3.35-3.26,4.96-4.68.09-.05.16-.13.26-.18-.07.05-.1.18-.17.25a38.344,38.344,0,0,0-2.24,4.88c-1.09,3.13-1.06,4.42.32,4.86a4.175,4.175,0,0,0,2.54-.32c.41-.12.89-.31,1.28-.44a5.369,5.369,0,0,1,2.43-.14,4.043,4.043,0,0,1,1.34.58,1.933,1.933,0,0,1,.62.9,1.979,1.979,0,0,1,.03.95c-.39,1.87-.29,3.22.38,4.05.76.95,1.99,1.16,3.82.63,1.6-.49,5.99.27,11.04,1.04,2.13.32,4.33.69,6.51.96,5.09.7,11.82.26,16.31,0a39.3,39.3,0,0,1,4.3-.18c.09.05.31.24.63.49,1.38,1.22,3.97,3.54,12.31,5,10.98,2.06,48.76-.83,48.89-.83a1.24,1.24,0,0,0,1.12-1.28A1.283,1.283,0,0,0,482.687,486.08Zm-108.63-22.49c.15.19-.13.46-.56.9C373.847,463.85,373.887,463.47,374.057,463.59Z"/><path class="cls-3" d="M62.917,280.5c-2.6.31-4.03,5.34-4.03,5.34l-1.6-2.33c-1.6-2.38-9.69-3.43-7.23,3.46,1.37,3.79,17.19,20.16,16.74,4.76C66.6,286.26,65.517,280.19,62.917,280.5Zm-.85,15.45s-5.69-2.55-8.12-6.49,1.98-3.83,4.04-1.66c2.04,2.18,4.99,3.63,4.99,2.49s.44-4.71.91-3.57C64.327,287.86,64.407,296.71,62.067,295.95Z"/><path class="cls-3" d="M96.857,265.22c-3.08-4.66-6.49,2.38-6.49,2.38s.2.37-3.07-1.4c-3.25-1.75-7.58.57-4.5,7.72,3.07,7.1,13.11,10.78,13.11,10.78S99.937,269.88,96.857,265.22ZM94,281.17c-.32-.04-5.94-2.38-8.56-7.1s-1.11-7.97,1.92-5.07c3.01,2.9,5.59,6.06,6.14,5.19.54-.89.96-6.07.96-6.07S97.307,276,94,281.17Z"/><path class="cls-3" d="M95.6,320.33c-5.13-2.69-8,6.02-8,6.02,0-.04-.11-.53-4.28-3.57-4.4-3.23-13.63,3.36-7.93,12.28,5.7,8.86,17.77,12.54,17.77,12.54C96.707,345.88,100.7,322.97,95.6,320.33Zm-.86,14.58a20.375,20.375,0,0,1-3.49,8.02s-9.57-4.72-13.3-10.21c-3.7-5.54,2.51-8.4,4.53-6.31,2.03,2.01,6.85,7.87,7.02,7.71s-.76-6.18,2.06-8.02C94.357,324.18,95.807,329.92,94.737,334.91Z"/><path class="cls-3" d="M338.139,214.331a11.567,11.567,0,0,1-2.266-6.337c0-3.476,2.737-2.609,2.959-1.746.225.828.284,1.189.284,1.189s1.968-1.661,2.346.447c.379,2.138-3.136,4.951-3.323,6.447Z"/><path class="cls-3" d="M357.294,219.865a10.1,10.1,0,0,1-.638-7.225c1.216-4.059,4.067-3.336,4.42-2.278a4.5,4.5,0,0,1-.025,2.324s2.512-.743,3.5.285c.978,1.058-5.764,5.615-7.259,6.894Z"/><path class="cls-3" d="M351.007,227.28c-1.46-2.83-4.42,1.74-4.42,1.74a7.783,7.783,0,0,0-.93-2.65c-.8-1.57-3.92-3.11-3.88,2.53a11.675,11.675,0,0,0,3.03,8.25l-.25.51.84,1.33s.49-.14,2.07-2.23C349.057,234.69,352.467,230.12,351.007,227.28Zm-.8,1.62c-.34,1.13-1.87,6.44-4.89,7.61,0,0-2.84-3.58-2.62-6.95.23-3.33,1.63-4.08,2.38-2.52.78,1.52,1.22,5.39,1.5,5.69a.805.805,0,0,0,.7.23s-.46-3.09.99-4.45C349.687,227.15,350.537,227.74,350.207,228.9Z"/><path class="cls-3" d="M231.327,356.18a2.071,2.071,0,0,1-1.03-1.55,13.673,13.673,0,0,0,.04-1.8,21.926,21.926,0,0,1,.28-5.24,34.733,34.733,0,0,0,.31-5.24c-.07-.72-.73,1.89-1,2.29-.32.39-.84-2.42-1.18-3.26-.32-.83-1.18-.91-.77.63s.99,6.32.72,7.11a20.766,20.766,0,0,1-1.13,2.96c-.27.6-.76,1.12-2.21,1.25-1.5.14-3.13-.13-3.1.26.02.37.71.35,2.94.89s6.04,1.97,6.04,1.97C231.427,356.52,231.777,356.39,231.327,356.18Zm0,0a2.071,2.071,0,0,1-1.03-1.55,13.673,13.673,0,0,0,.04-1.8,21.926,21.926,0,0,1,.28-5.24,34.733,34.733,0,0,0,.31-5.24c-.07-.72-.73,1.89-1,2.29-.32.39-.84-2.42-1.18-3.26-.32-.83-1.18-.91-.77.63s.99,6.32.72,7.11a20.766,20.766,0,0,1-1.13,2.96c-.27.6-.76,1.12-2.21,1.25-1.5.14-3.13-.13-3.1.26.02.37.71.35,2.94.89s6.04,1.97,6.04,1.97C231.427,356.52,231.777,356.39,231.327,356.18Zm-62.17-50.06a2.274,2.274,0,0,0-2.2-1.7c-.22.02-.22.34.57,1.15.8.84.86,2.79-.43,3.38-1.32.61-2.58.49-2.58-1.18a4.06,4.06,0,0,1,1.36-3.06c.36-.27.46-.95-.27-.85,0,0-1.81.26-2.27,2.92a2.954,2.954,0,0,0,3.76,3.52A3.5,3.5,0,0,0,169.157,306.12Zm0,0a2.274,2.274,0,0,0-2.2-1.7c-.22.02-.22.34.57,1.15.8.84.86,2.79-.43,3.38-1.32.61-2.58.49-2.58-1.18a4.06,4.06,0,0,1,1.36-3.06c.36-.27.46-.95-.27-.85,0,0-1.81.26-2.27,2.92a2.954,2.954,0,0,0,3.76,3.52A3.5,3.5,0,0,0,169.157,306.12Zm138.28.05c-.69.13-2.04.7-2.18.34-.16-.37,1.31-1.68,1.31-1.75.04-.07-2.22.81-2.22.81a6.77,6.77,0,0,0-5.23-1.52c-3.05.48-4.77,2.09-4.37,2.31a2.457,2.457,0,0,0,1.4.07c5.44-1.96,8.65,1.93,9.06,1.85a19.4,19.4,0,0,0,3.04-1.75C308.737,306.18,308.127,306.05,307.437,306.17Zm-23.69,16.84c-1.3-.28-4.91-3.79-5.07-4.01-.56-.36-.86.59-.32,1.33s3.89,4.62,5.46,4.92c1.54.33,5.54-1.38,6.36-2.04a32.676,32.676,0,0,0,2.67-2.81,10.124,10.124,0,0,0-3.35,1.18C287.487,322.61,285.057,323.3,283.747,323.01Zm.73,4.56a1.387,1.387,0,0,1-1.5-.33c-.51.9.84,1.31,1.86,1.1,1-.23,1.67-.83,1.59-1.04C286.327,327.12,285.467,327.27,284.477,327.57Zm-.8-11.97c.52-.07-2.04-.8-2.93-1.37-.91-.57-.98-1.55-1.08-2.95a36.471,36.471,0,0,0-.54-4.4,14.515,14.515,0,0,1-.67,3.59c-.5,1.04-.95,2.96-.05,4.11C279.337,315.74,283.187,315.69,283.677,315.6Zm-2.93-1.37c-.91-.57-.98-1.55-1.08-2.95a36.471,36.471,0,0,0-.54-4.4,14.515,14.515,0,0,1-.67,3.59c-.5,1.04-.95,2.96-.05,4.11.93,1.16,4.78,1.11,5.27,1.02C284.2,315.53,281.637,314.8,280.747,314.23Zm8.75,7.35c-2.01,1.03-4.44,1.72-5.75,1.43s-4.91-3.79-5.07-4.01c-.56-.36-.86.59-.32,1.33s3.89,4.62,5.46,4.92c1.54.33,5.54-1.38,6.36-2.04a32.676,32.676,0,0,0,2.67-2.81A10.124,10.124,0,0,0,289.5,321.58Zm-5.02,5.99a1.387,1.387,0,0,1-1.5-.33c-.51.9.84,1.31,1.86,1.1,1-.23,1.67-.83,1.59-1.04C286.327,327.12,285.467,327.27,284.477,327.57Zm22.96-21.4c-.69.13-2.04.7-2.18.34-.16-.37,1.31-1.68,1.31-1.75.04-.07-2.22.81-2.22.81a6.77,6.77,0,0,0-5.23-1.52c-3.05.48-4.77,2.09-4.37,2.31a2.457,2.457,0,0,0,1.4.07c5.44-1.96,8.65,1.93,9.06,1.85a19.4,19.4,0,0,0,3.04-1.75C308.737,306.18,308.127,306.05,307.437,306.17Zm-51.71-16.12c.28-.14-.36-.91-4.1-1.07-3.7-.16-6.4-.13-9.52,3.24-3.13,3.35-2.15,4.82-2.1,5.01C246.457,290.46,255.457,290.19,255.727,290.05Zm-4.16,7.87c-2.2.25-4.39,1.14-4.98,2.11a1.534,1.534,0,0,0,.09,1.83,5.37,5.37,0,0,0,2.44,1.72,2.8,2.8,0,0,0,3.24-1.65c.23-1,.25-.95.97-1.52.68-.56,2.68-1.83,2.68-1.83a1.736,1.736,0,0,0-.69-.09C254.717,298.47,253.737,297.68,251.567,297.92Zm-1.22,3.49c-.27.35-1.77.4-1.68-.19a1.3,1.3,0,0,1,1.09-.62C250.437,300.6,250.587,301.07,250.347,301.41Zm2.31,16.29c-.39-.13-.22.57-.28.78a20.17,20.17,0,0,1-3.6,2.62c-2.1,1.4-5.1,3.78-8.44,3.54s-4.34-2.25-5.32-2.09c-.96.14-1.15,1.65-.74,1.7a8.094,8.094,0,0,1,1.15.24c2.2,2.56,7.85,2.43,7.85,2.43s.67.65,1.14,1.16a1.941,1.941,0,0,0,2.66,0c1.18-.87,3.85-3.15,4.17-4.04s1.22-3,1.41-3.35c.22-.31,1.03-1.13,1.22-1.4S253.057,317.87,252.657,317.7Zm-3.77,7.9a4.559,4.559,0,0,1-3.61.78,10.663,10.663,0,0,0,2.93-1.79c1.37-1.11,1.52-1.25,1.87-1.5.31-.25.42-.48.42-.37A5.241,5.241,0,0,1,248.887,325.6Zm-9.83-7.06a5.6,5.6,0,0,0,1.69-.91,9.65,9.65,0,0,1-2.9-.03c-.68-.32-2.06-5.24-2.39-5.69,0,0,.17,4.76.22,5.94C235.727,319,237.647,319.16,239.057,318.54ZM224.2,302.38c-.56.12-1.69-.6-3.59-.79a8.759,8.759,0,0,0-5.41,1.52c-.79.72.16,1.45.2,1.51a5.713,5.713,0,0,1,1.47,1.39c.61.81,2.26,1.47,2.88.95a31.809,31.809,0,0,0,2.11-2.84C222.507,303.34,224.767,302.3,224.2,302.38Zm-5.36,2.43c-.13.27-1.72.61-1.7-.49a2.786,2.786,0,0,1,1.33-.28C219.107,304.05,219,304.56,218.837,304.81Zm1.89-8.07a8.9,8.9,0,0,0,2.16-.2c.43-.14.45-.7-1.06-1.72-1.5-.99-5.62-2.36-8.83-.68a10.6,10.6,0,0,0-4.56,5.11C217.437,294.55,220.427,296.72,220.727,296.74Zm17.12,20.86c-.68-.32-2.06-5.24-2.39-5.69,0,0,.17,4.76.22,5.94.05,1.15,1.97,1.31,3.38.69a5.6,5.6,0,0,0,1.69-.91A9.65,9.65,0,0,1,237.847,317.6Zm14.81.1c-.39-.13-.22.57-.28.78a20.17,20.17,0,0,1-3.6,2.62c-2.1,1.4-5.1,3.78-8.44,3.54s-4.34-2.25-5.32-2.09c-.96.14-1.15,1.65-.74,1.7a8.094,8.094,0,0,1,1.15.24c2.2,2.56,7.85,2.43,7.85,2.43s.67.65,1.14,1.16a1.941,1.941,0,0,0,2.66,0c1.18-.87,3.85-3.15,4.17-4.04s1.22-3,1.41-3.35c.22-.31,1.03-1.13,1.22-1.4S253.057,317.87,252.657,317.7Zm-3.77,7.9a4.559,4.559,0,0,1-3.61.78,10.663,10.663,0,0,0,2.93-1.79c1.37-1.11,1.52-1.25,1.87-1.5.31-.25.42-.48.42-.37A5.241,5.241,0,0,1,248.887,325.6Zm2.74-36.62c-3.7-.16-6.4-.13-9.52,3.24-3.13,3.35-2.15,4.82-2.1,5.01,6.45-6.77,15.45-7.04,15.72-7.18S255.367,289.14,251.627,288.98Zm3.69,9.51c-.6-.02-1.58-.81-3.75-.57-2.2.25-4.39,1.14-4.98,2.11a1.534,1.534,0,0,0,.09,1.83,5.37,5.37,0,0,0,2.44,1.72,2.8,2.8,0,0,0,3.24-1.65c.23-1,.25-.95.97-1.52.68-.56,2.68-1.83,2.68-1.83A1.736,1.736,0,0,0,255.317,298.49Zm-4.97,2.92c-.27.35-1.77.4-1.68-.19a1.3,1.3,0,0,1,1.09-.62C250.437,300.6,250.587,301.07,250.347,301.41Zm-26.15.97c-.56.12-1.69-.6-3.59-.79a8.759,8.759,0,0,0-5.41,1.52c-.79.72.16,1.45.2,1.51a5.713,5.713,0,0,1,1.47,1.39c.61.81,2.26,1.47,2.88.95a31.809,31.809,0,0,0,2.11-2.84C222.507,303.34,224.767,302.3,224.2,302.38Zm-5.36,2.43c-.13.27-1.72.61-1.7-.49a2.786,2.786,0,0,1,1.33-.28C219.107,304.05,219,304.56,218.837,304.81Zm2.99-9.99c-1.5-.99-5.62-2.36-8.83-.68a10.6,10.6,0,0,0-4.56,5.11c9-4.7,11.99-2.53,12.29-2.51a8.9,8.9,0,0,0,2.16-.2C223.317,296.4,223.337,295.84,221.827,294.82Zm129.01-21.95c-8.87-19.67-33.54-31.89-50.93-29.22s-26.05,8.2-26.05,8.2.3-1.45-1.13-4.56-5.78-5.34-5.78-5.34a16.732,16.732,0,0,1,11.46,3.9,57.5,57.5,0,0,1-3.26-5.21c-3.05-5.14-12.04-6.54-12.04-6.54s.72-.61,2.31-2.24a20.406,20.406,0,0,0,2.8-4.39,62.228,62.228,0,0,1-7.98,3.32c-5.41,2.07-7.38,2.59-7.38,2.59s-1.18-3.78-7.09-7.38c-5.93-3.61-14.62-4.83-21.5-4.24a15.073,15.073,0,0,1-11.16-3.55,14.126,14.126,0,0,0,4.78,8.01c-5.55,1.02-11.55,4.53-15.57,7.56-4.01,3.01-10.71,1.72-10.71,1.72,2.16,2.47,6.02,2.9,6.02,2.9a7.389,7.389,0,0,0-1.01.72c-.73.57-2.81,3.6-6.3,6.22s-10.25.3-10.25.3c2.97,5.05,9.54,5.79,9.54,5.79s-2.46.07-5.95,5.76c-3.36,5.52-5.47,15.78-5.6,16.42,4.99-10.11,9.51-9.82,9.51-9.82s-2.68,3.83-2.14,12.14a32.04,32.04,0,0,0,4.08,13.87c-1.72-7.67,2.83-11.97,2.83-11.97-.93,10.93,6.13,18.83,6.13,18.83a24.358,24.358,0,0,1-.16-7.88s.03.43.57,3.26a44.13,44.13,0,0,0,2.98,7.85s-1.53-.29-1.82-.09-1.39,2.33.56,6.71c1.97,4.38,6.97,4.18,6.97,4.18s.32.09,1.5,1.5,4.38,9.2,9.91,14.02c5.54,4.85,18.45,8.74,20.2,8.9,1.77.15.98,1.02.98,1.02a3.611,3.611,0,0,0-2.67.9c-1.26,1.14-3.21,3.31-3.21,3.31a20.749,20.749,0,0,1-2.38-1.16c-.97-.58-3.03-1.8-3.03-1.8s.32.56-4.55.96a18.32,18.32,0,0,0-8.49,3.04s-.97.33-6.34-.09-11.07.42-12.28.22c-1.23-.17-8.06-2.33-8.97-2.69s-1.02-1.47-3.21-1.34-2.11.08-2.9-.47c-.79-.57-2.01-1.87-2.18-1.4-.13.47-.76,2.83-.76,2.83a28.472,28.472,0,0,1-3.77-1.11c-2.61-.91-13.07-6.69-15.45-8.42s-3.62-3.9-2.83-5.63c.74-1.74,4.53-3.54,6.84-4.12,2.36-.6,3.35-.8,4.16-1.81.76-1.05-.84-1.77-.84-1.77a8.228,8.228,0,0,1,1.92-.02,38.563,38.563,0,0,0,5.51-.14c1.74-.18,1.5-1.19,1.52-2.99,0-1.77.33-12.22.25-13.05-.1-.84-.52-.96-5.1-1.34-4.54-.39-14.31-.14-14.31-.14s-.04-.47-.12-.94a2.552,2.552,0,0,0-2.14-1.57,90.522,90.522,0,0,0-11.22.24c-2.63.47-4.35,1.28-5.59,3.04-1.25,1.79-.26,2.52-.26,2.52s-3.96,1.24-4.25,3.08,1.3,4.16,3.06,6.89c1.73,2.77,3.1,8.27,3.28,9.59.18,1.36.29,3.17,3.17,6.57a22.392,22.392,0,0,0,9.1,5.85c.77.06,3.75,2.2,11.11,7.65a94.005,94.005,0,0,0,13.64,8.26c.32.28.82,1.59,1.45,2.1s1.3-.09,1.77.02c.5.12,1.41,1.58,2.22,1.84.79.25,2.19-.32,2.83-.55s1.15,0,1.97.71a3.794,3.794,0,0,0,2.18.98,5.122,5.122,0,0,0,.54-1.25c0-.07.49.06,1.43.34a65.954,65.954,0,0,0,9.79.67c3.54-.03,12.3.14,13.99.86a59.79,59.79,0,0,0,8.87,2.18c1.72.25,1.32,1.19,1.42,4.8.12,3.57-1.78,12.23-1.85,14.66s-1.25,19.1-1.29,19.66a7.632,7.632,0,0,1-1.09,1.96s-.08.37.96,1.7c1.04,1.27,3.79,4.49,3.95,4.57a13.19,13.19,0,0,0-1.24,3.11c-.89,2.7-2.2,8.45-4.66,15.28-2.49,6.81-1.52,12.91-2.18,13.3a7.71,7.71,0,0,0-3.48,3.7c-.98,2.3-2.4,9.53-2.74,11.36s-1.43,3.06-1.45,4.15-.25,5.78-.25,5.78a13.572,13.572,0,0,0-1.24,1.24c-.79.85-.66,1.12-.75,2.04-.04.42-.11,1.38-.2,2.49-.06.65-.13,1.36-.21,2.04-.09.73-.19,1.43-.31,2.03-.45,2.13-1.36,8.09-1.36,8.09a5.593,5.593,0,0,0-.95,2.27,1.624,1.624,0,0,0,1.47,1.76c.69.14,4.66.87,7.09,1.21,2.39.31,6.35-.29,6.96-.87a1.449,1.449,0,0,0,.12-1.92c-.34-.39-.44-2.89-.66-5.68-.27-2.78-1.5-2.77-1.68-3.06-.15-.3.64-1.41.96-2.85s.23-4.52,1.24-6.48c1.03-1.94,1.79-3.42,1.2-3.96a8.656,8.656,0,0,0-2.9-.78,3,3,0,0,1,.19-1.26c.22-.58.81-1.5,1.31-2.91a1.335,1.335,0,0,0-.95-1.78s.26-.82.9-2.26c.64-1.46,2.09-5.26,3.46-6.77a12.158,12.158,0,0,1,3.67-2.43s1.21-3.84,4.55-11.37a94.458,94.458,0,0,1,8.02-14.25,4.252,4.252,0,0,0,.65.41c.31.14.97.36,1.09.08s-.16-.61.18-1c.34-.37,3.96-3.5,4.06-3.52-2.36,8.01-1.82,22.34-1.82,22.34a12.793,12.793,0,0,0-2.98,4.91c-.83,2.79.1,7.45.3,8.25a3.522,3.522,0,0,1-.57,3.16,2.247,2.247,0,0,0-.56,2.58c.32.65.86,1.14.1,2.28a2.273,2.273,0,0,0,.27,2.93c.54.35,1.05,1.58.68,1.73s-1.23.12-1.15.87c.06.76-.48,5.74-.39,7.41.07,1.65-.8,7.84-.82,7.96a7.461,7.461,0,0,1-.91,2.17c-.64,1.21-.85,2.33.42,2.7,1.22.4,5.43,1.14,6.08.79s1.66-1.06,2.79-.05c1.14.96,5.75,1.75,7.29,2.24,1.51.53,5.22.29,5.49-.32a31.258,31.258,0,0,0,1.16-4.81c.14-1.3-1.9-2.13-3.94-3.03-2.04-.88-6.77-4.66-6.77-4.66a22.217,22.217,0,0,1,.42-2.38c.29-1.43,2.31-3.91,2.83-4.5.49-.6,1.17-1.28.17-2.43-.99-1.18-5.75-1.76-5.75-1.76a9.041,9.041,0,0,1,.02-2.58,16.1,16.1,0,0,1,1.8-6.46c.88-1.38.22-1.46-.18-2.23-.46-.78-.39-.61.86-4.67,1.26-4.08,4.63-7.62,4.63-8.25a41.357,41.357,0,0,1-.38-10.11c.43-6.48,2.81-17.26,2.81-17.26s5.64-5.91,5.88-6.59-.41-5.48-1.63-11.07c-1.22-5.61-.18-22.93-.04-23.31s1.06.49,2.53,2.75a39.952,39.952,0,0,0,5.25,5.64s-1.85,8.9-2.98,16.18a143.383,143.383,0,0,0-1.36,16.22s-.05-.06-.39.03-.61.93-.12,1.07a5.67,5.67,0,0,0,1.37.17s-.29,3.23-.26,6.29c.02,3.08-.2,17.26-.2,17.26s1.7,7.44,3.47,14.21c1.77,6.75,1.65,17.02,1.15,19.36s-.36,6.07-3.17,10.97a18.44,18.44,0,0,1-6.3,6.97c-.67.51-1.72,1.83-.62,2.9s2.91,1.38,6.74-.4a29.559,29.559,0,0,0,6.92-4.8l.32,5.43h1.9s-.45-6.24-.45-7.57a37.811,37.811,0,0,0-.24-6.38c-.42-1.61-.08-5.62.42-10.03.51-4.38,2.45-21.74,2.45-21.74s1.94.85,5.39,5.85c3.39,5.01,5.24,11.76,6.78,16.06,1.54,4.36-.18,8.37-1.81,14.1-1.65,5.74-3.12,5.78-3.2,6.56-.15.76,1.08,1.41,1.46,1.41s6.68-3.96,8.53-7.05,1.45-7.96,1.45-7.96,4.33,3.55,4.43,3.57c.12.03,1.64-1.28,1.25-1.7-.36-.41-3.32-3.66-3.78-5.75s-2.3-3.4-3.53-5.22c-1.27-1.83-1.59-5.18-4.5-16.57-2.95-11.39-10.48-13.45-11.38-14.52a8.55,8.55,0,0,1-1.01-6.95c.91-2.31,3.54-8.77,3.54-8.77s.86.39,1.25.08c.4-.36.3-1.15-.07-1.87-.37-.7-.2-1.58.91-3.48,1.08-1.87,4.88-5.68,9.25-10.95s2.68-9.68,1.67-11.15a6.111,6.111,0,0,1-.69-4.83,3.113,3.113,0,0,0-.98-2.97c-.23-.18.29-2.38.39-3.49.03-1.13-1.45-1.7-1.45-1.7a2.812,2.812,0,0,0,.27-1.72c-.19-.99-2.14-1.92-2.14-2.54,0-.59-.9-.86-.9-.86a42.218,42.218,0,0,0,4.89-3.66c2.18-1.95,6.5-6.55,6.59-6.67s.2.45.29,1.7c.13,1.25.82,2.96,1.75,7.57s2.19,13.43,2.19,13.43.49.37,2.44,3.98c1.96,3.64,7.57,14.91,8.6,16.21,1.04,1.27.59,2.09,1.07,3.92s.31,6.12.51,6.74c.24.61.96.47,1.96-1.45a18.252,18.252,0,0,0,1.44-5.39c.05-.12.96.44,1.82,1.6s5.43,5.98,6.61,6.61c1.13.61,3.35,1.96,2.53.89a29.467,29.467,0,0,1-2.31-4.39s3.13,1.44,3.8,1.92c.64.46,1.74.51,1.41-.1-.36-.65-2.55-3.52-4.03-4.32a46.147,46.147,0,0,1-6.29-4.9,15.526,15.526,0,0,0-3.33-2.38,48.942,48.942,0,0,1-2.67-4.25c-2.29-3.84-4.09-11.06-5.22-14.08-1.1-3.01-3.37-5.77-3.27-8.08.1-2.34,0-19.71.81-24.44s-3.18-6.24-4.99-7.47c-1.8-1.25-1.16-3.54-.67-4.73a68.349,68.349,0,0,1,4.21-7.05,25.969,25.969,0,0,1,7.11-3.75,38.677,38.677,0,0,0,9.51-5.38s.13.43-1.63,3.61c-1.74,3.2-6.81,5.08-6.81,5.08,4.37,2.08,9.8.47,9.8.47a20.382,20.382,0,0,1-14.13,7.25c10.29,1.32,15.48-2.05,15.75-2.23-1.88,2.48-6.35,4.76-6.35,4.76a17.678,17.678,0,0,0,11.6-5.11,15.044,15.044,0,0,1-9.3,7.97c5.73-.3,11.53-2.95,18-11.1S359.757,292.54,350.837,272.87Zm-203.81,24.12s4.39-.29,5.83-.29c1.47,0,1.7.39,1.7.39s-2.49,1.22-3.52,1.67a17.756,17.756,0,0,1-3.07.76,4,4,0,0,0,3.19.67c1.5-.52,2.18-.81,2.32-.81.12,0,11.36.7,15.2.41,3.88-.32,5.8.06,5.75.47-.09.4-.61,5.34-.81,7.48s.67,5.36.32,5.69a35.791,35.791,0,0,1-8.56,1.13c-2.9-.03-14.76.7-16.88.57-2.16-.14-5.16.09-6.14-2.97a34.248,34.248,0,0,1-1.09-7.69S148.577,302.16,147.027,296.99Zm-6.39,1.08a44.683,44.683,0,0,1,5.16-.82c-.5.2-6.81,3.03-6.91,3.08C138.887,300.33,140.477,298.24,140.637,298.07Zm36.67,49.62c-.16-.03-12.79-7.75-17.43-11.15s-7.61-5.38-9.33-5.64-8.29-4.09-9.05-7.54c-.79-3.45-1.38-9.05-3.96-13.14a29.135,29.135,0,0,1-2.39-4.3c-.24-1.01,1.62-2.17,4.57-4.06a52.53,52.53,0,0,1,5.38-2.93c.25-.24.53.83-1.63,2.39a7.71,7.71,0,0,1-3.1,1.67s-.86.64-.88.89a4.682,4.682,0,0,1,.27,2.6c-.32,1.5.18,7.76.95,8.91.82,1.18,1.38,2.13,4.53,1.82a73.692,73.692,0,0,1,8.68.12c1.05,0,.71.54.64.71-.09.18-.74.18-.86.18s-3.39-.7-5.25.91a3.034,3.034,0,0,0-.86,3.99c.43.88.82,1.35,1.13.91.3-.48-1.08-2.34.5-3.63,1.63-1.27,3.81-1,4.7-1.13a2.165,2.165,0,0,1,1.5.28,6.993,6.993,0,0,1,6.34-1.98s-4.25,2.05-5.53,4.7c-1.3,2.66-.17,5.24,3.45,8.22a46.935,46.935,0,0,0,12.45,7.08c3.12,1.12,6.95,2.71,6.95,2.71S177.467,347.69,177.307,347.69Zm148.16-90.03c9.49,5.73,11.66,11.21,11.66,11.32-.1-.12-15.54-13.2-29.39-17.34C308.027,251.69,315.8,251.82,325.467,257.66Zm-35.7.44a123.944,123.944,0,0,0-8.87,11.49s-.27-.89,2.81-5.96C286.667,258.76,289.557,258.13,289.767,258.1Zm-12.04,8.95c.02-.16.23-1.15,2.38-4.79,2.14-3.67,3.51-3.83,3.51-3.83S278.637,267.42,277.727,267.05Zm-8.91-6.7c2.39-6.9,10.31-9.68,13.63-10.64,3.29-.94,3.71-.54,3.71-.54s-11.64,2.81-14.68,9.89a86.874,86.874,0,0,0-4.7,16.21A47.408,47.408,0,0,1,268.817,260.35Zm-7.85-11.27a33.162,33.162,0,0,1,0,9.53s-.62-11.14-5.73-17.09C255.407,241.54,260.167,244.33,260.967,249.08Zm-3.24,3.35a12.005,12.005,0,0,1-1.13,7.59c0-.11-.5-12.29-2.52-14.92A12.906,12.906,0,0,1,257.727,252.43Zm-4.71,4.35c-.05.16.25,9.87-6.41,12.34a35.071,35.071,0,0,0,4.32-7.34C252.7,257.66,253.057,256.6,253.017,256.78Zm-2.65-12.79s2.38,15.19-13.78,25.71C236.587,269.7,247.267,259.47,250.367,243.99Zm-28.27,7.04c5.15-6.18,10.05-7.26,10.05-7.26a103.146,103.146,0,0,0-16.04,16.74C216.2,259.94,216.987,257.21,222.1,251.03Zm-14.6-2.43s-1.06-.9,3.39-5.38c4.47-4.46,8.9-4.6,8.9-4.6S211.327,243.02,207.5,248.6Zm22.96,1.46c-.41.47-9.49,10.99-11.96,14.89a36.506,36.506,0,0,1,4.51-8.08A23.521,23.521,0,0,1,230.457,250.06Zm-11.7,19.76c.6-.96,8.73-5.12,8.73-5.12s-7.52,10.37-12.69,10.32C214.9,274.81,218.167,270.76,218.757,269.82Zm4.33-5.25c.05-.16,5.37-5.82,8.63-10.33,3.28-4.48,4.09-5.21,4.05-5.09S224.907,264.33,223.087,264.57Zm12.25-10.46a30.123,30.123,0,0,1,6.85-6.31c-.25.45-8.38,14.87-14.64,15.25C227.617,262.96,231.7,258.52,235.337,254.11Zm5.84,1.04c4.12-5.55,4.46-6.25,4.42-5.98-.05.3-6.07,16-15.22,18.79C230.377,267.96,237.057,260.69,241.177,255.15Zm-19.44-23.27c10.67-1.41,23.38,2.58,26.06,3.48-3.45-1.07-23.72-6.63-41.86,4.28C205.937,239.64,209.737,233.49,221.737,231.88Zm-13.63,24.92c3.49-6.34,7.31-8.55,7.55-8.68-.29.45-9.67,14.74-11.63,21.99A35.287,35.287,0,0,1,208.107,256.8Zm-6.15,49.09c-2.02-2.76-.46-4.55,0-4.43.42.08,4.6,7.24,4.62,7.27A6.348,6.348,0,0,1,201.957,305.89Zm35.69,32.89c1.11-.79,1.43-.75,1.51-.49a35.823,35.823,0,0,0,3.9,5.24,16.114,16.114,0,0,1,1.72,1.54,21.654,21.654,0,0,0-1.04,5.32s-5.47-6.66-6.57-8.51C236.087,340.04,236.537,339.59,237.647,338.78Zm12.29,1.16a18.872,18.872,0,0,1-3.7,4.52c-.22.2-2.29-1.05-4.16-3.88,0,0-.47-.27-.15-1.28.3-1.01,1.04-1.09,1.13-1.92.11-.82.59-1.09.68-.69.09.44.63,1.79,1.1,1.39s.62-.93.91-1.22c.29-.27.12-.98.39-.93.25.05.22.85.32,1.26.1.38.35.38.4,0,.09-.41.25-.84.43-.84s.16.91.25,1.03.89-.05,1.83-1.04a2.62,2.62,0,0,0,.83-2.09c.05-.18.69-.22.69.32A9.778,9.778,0,0,1,249.937,339.94Zm2.18-.08a8.274,8.274,0,0,0,1.3-2.48,2.159,2.159,0,0,1,.91,1.95c-.18,1.17-1.95,7.2-3.22,8.01,0,0-1.62-3.13-1.9-3.4C248.887,343.67,251.207,340.97,252.117,339.86Zm-67.32,9.3a2.835,2.835,0,0,1-2.49,2.31c-.59-.04-.67-.13-.67-.13a22.868,22.868,0,0,0,1.16-3.74c.24-1.4,1.08-4.07.69-5.15a3.893,3.893,0,0,0-.98-1.68c0,.09-1.56,8.39-3.21,7.83,0,0,.68-1,1.02-4.28.36-3.25,1.22-4.28,1.22-4.9a11.186,11.186,0,0,1,.07-1.21s.65-.13,1.09.89a3.513,3.513,0,0,0,.42.91s.25-.59,1.91-.71c1.65-.09,1.58.25,1.51,1.77A57.194,57.194,0,0,1,184.8,349.16Zm29.56,133.85c-2.49.24-6.5-.21-7.67-.94a1.376,1.376,0,0,1-.82-1.07c-.02-.73,1.2-.47,1.95-.03a14.467,14.467,0,0,0,6.68,1.19c2.76-.21,4.48-.39,4.48-.39A16.666,16.666,0,0,1,214.357,483.01Zm4.25-3.08c-.14.55-4.66,1.07-6.2.78-1.59-.27-5.34-.78-5.5-1.51.07,0,1.15-4.16,1.47-5.97s1.18-4.74,1.38-6.56c.21-1.77.71-3.38.84-3.18a9.005,9.005,0,0,1,.83,4.46c-.27,1.71-1.44,3.57-1.15,5.03.3,1.44,1.99,1.46,3.09,1.03,1.08-.4,4.07-1.12,4.61.62A16.247,16.247,0,0,1,218.607,479.93Zm-1.49-8.18a11.8,11.8,0,0,1,.16-2.77c.27-1.66,1.24-2.09,1.24-1.8S218.067,471.31,217.117,471.75Zm2.99-11.54a25.856,25.856,0,0,1-2.36,4.79c-.83,1.01-1.35.79-1.35.79s-.64,2.65-1.04,3.7a5.536,5.536,0,0,0-.41,2.89,6.224,6.224,0,0,1-1.99.41c-.42-.07.61-3.21.65-4.59a9,9,0,0,0-.26-3.3c-.26-.32-1.8-3.11-1.08-4.21.71-1.13,3.84-.99,5.87-1.02C220.187,459.62,220.107,460.06,220.107,460.21Zm8.05-27.15c-1.43,3.84-2.24,5.1-2.32,5.92a10.365,10.365,0,0,0-.1,1.17s-3.48.68-6.14,6.82c-2.61,6.12-2.14,6.66-2.14,6.66a1.593,1.593,0,0,1,.29,1.34,5.669,5.669,0,0,0-.56,1.77,2.717,2.717,0,0,1-.66,1.72,16.487,16.487,0,0,0-2.89.02,7.6,7.6,0,0,1-1.11.24c.11-.08.55-.38.55-.62,0-.29-.71-2.05.15-3.21a6.791,6.791,0,0,1,2.67-1.85,4.11,4.11,0,0,1-.9-2.52c.17-1.12,1.67-1.65,1.82-1.92.17-.26-1.26-1.48.59-5.24,1.87-3.72,4.42-5.61,5.36-5.76-.02-.1-.51-4.69,2.04-12.8a51.728,51.728,0,0,1,7.88-14.66l5.43,4.08S229.567,429.25,228.157,433.06Zm12.93-20.21a4.991,4.991,0,0,0-1.02,1.1,86.138,86.138,0,0,0-7.36-5.78,10.8,10.8,0,0,1-3.64-3.91c-.13-.41.32-9.89.54-13.9.2-3.98.86-5.82.41-6.14s-1.49.37-1.76.22c-.3-.2-.18-7.14.95-11.08s2.67-7.76,2.57-7.76c-.08,0-1.44.71-2.05.99-.61.3-.79-.11-.71-1.17a24.91,24.91,0,0,1,1.18-4.33,5.507,5.507,0,0,1,.45-1.06s1.05.05,1.18.05c.14-.02.19-.98-3.96-2.72s-10.98-3.21-11.94-3.51a2.738,2.738,0,0,1-1.48-1.14s-21.46-.11-25.53-1.28c-.19.12-.81.86-1.23.95-.36.1-.67-.66-1.17-.91a1.13,1.13,0,0,0-.92-.04,38.071,38.071,0,0,0,1.69-5.34c.4-2.17.72-5.98.72-5.98a42.108,42.108,0,0,0,6.25,1.94c2.42.45,6.03.8,7.4,1.95,1.39,1.16,1.97,1.3,2.83,1.32a4.022,4.022,0,0,1,1.2.19,2.724,2.724,0,0,1-1.15-.87c-.41-.61-.8-1.53-1.05-1.79-.27-.25,3.98-.16,6.44-.18a34.99,34.99,0,0,0,7.06-.5c1.77-.46,2.05-1.33,5.41-1.76,3.37-.46,5.88-.99,6.33-1.07.48-.07.91-.16.91-.16s1.87,1.79,3.51,1.97a13.4,13.4,0,0,0,2.24.14s6.17,8.19,8.15,9.72c1.96,1.48,2.23,1.28,2.14.85a13.785,13.785,0,0,1-.22-3.22,16.466,16.466,0,0,1,.54-2.38l1.07.81s.94,11.92.6,15.57c-.31,3.64.05,13.76-.08,16.16s-.1,14.77-.07,16.16.15,6.89.66,8.49c.51,1.56.56,3.82-.51,4.55C246.627,408.72,242.007,412,241.087,412.85Zm6.95,68.07c-1.45-.87-1.85-1.48-2.76-1.53-.1-.04-1.54.69-2.31.85a4.517,4.517,0,0,1-2.58-.24c-.5-.29.04-1.6.27-1.67a25.283,25.283,0,0,0,4.62.21c1.83-.27,3.15-.5,3.15-.5s1.33,1.64,2.5,2.81a18.338,18.338,0,0,0,1.51,1.43A18.055,18.055,0,0,1,248.037,480.92Zm10.82-2.76a.554.554,0,0,1,.18.62c-.11.37-1.41,3.91-4.37,2.34a11.281,11.281,0,0,1-4.37-4.23s-2.26,0-3.91-.04c-1.66,0-5.39-.22-5.39-.22.66-1.36.84-13.68,1.47-15.08.61-1.42,2.63-.44,2.47.17-.16.63-.86,2.42-1.38,4.78-.5,2.38,1.03,4.73,2.44,5.13,1.45.41,2.45-.96,3.37-.17C250.3,472.31,258.857,478.16,258.857,478.16Zm-8.96-16.61c2.12.24,2.71.67,1.99,1.98s-4.03,5.01-4.33,5.96c-.16,0-1.52-.46-1.86-2.7s1.43-4.54,1.41-5.27c-.04-.73.02-.66.02-.66A6.144,6.144,0,0,0,249.9,461.55Zm3.47-35.48a27.321,27.321,0,0,0,.2,7.98c.08.47.24.98.12.93a52.408,52.408,0,0,0-5.06,8.66c-1.58,3.67-.73,5.32-.35,5.52a1.278,1.278,0,0,0,.49.22,12.25,12.25,0,0,0-2,6.07c-.18,3.62.14,4.17.14,4.17s-.77-.45-1.07-.21a4.8,4.8,0,0,0-.7.82s-.82-.55-.87-1.04c-.03-.49-.03-.68-.03-.68s-.82.27-.78-1.1a3.617,3.617,0,0,1,.98-2.55,1.775,1.775,0,0,0,.47-.63,2.15,2.15,0,0,1-1.17-1.3c-.23-.88,1.34-1.71,1.34-1.8s-1.08-2.31-.35-7.22c.73-4.93,1.27-5.58,1.95-6a3.879,3.879,0,0,1,1.18-.5s-1.5-13.87,4.14-26.18c-.03.09,1.65,1.58,2.24,1.35.56-.23,2.13-3.64,2.13-3.64S253.877,422.38,253.367,426.07Zm10.04-66.77c-2.44-3.3-2.22-4.83-2.43-5.71s-.67-1.3-.72-.71.59,10.75-.09,16.45c-.72,5.7-.18,18.41.12,21.6s1.64,9.34,1.64,9.34-3.62,3.99-5.38,6.03c-1.82,2.08-2.96,4.34-3.08,4.27a19.149,19.149,0,0,1-3.08-2.84c-.83-1.16-1.27-4.33-1.4-6.87-.14-2.51-.41-14.53-.48-15.66s-.01-20.01.16-24.23c.2-4.23-.32-11.66-.39-13.55a4.4,4.4,0,0,1,.35-2.48,7.911,7.911,0,0,1,1.72,2.99c.22,1.33.22,1.49.22,1.49s.05.61.14.61c.08-.03,1.04-.3,2.86-3.62a39.775,39.775,0,0,0,2.91-7.8,37.147,37.147,0,0,1-3.19-3.32c-.14-.4-1.05-.4-1.05-.4s.49-2.68.57-3.24c.09-.59.93-.45,1.75-.88.85-.4.58-.23,3.71-5.52,1.14-1.95,2.09-3.74,2.9-5.31-.6,1.01-5.89,7.65-5.36,6.24-1.2,1.49-2.16,2.71-2.29,2.95-.37.68-.59,1.54-1.06,1-.49-.55-.81-.84-.83-.3s-.1,1.55-.4,1.37c-.3-.16-1.06-1.13-1.06-.41s0,1.47-.41,1.18-.84-1.53-.87-.8c0,.7.18,2.08-.54,2.17s-1.28-1.47-1.33-.98c-.02.45.25,1.7-.25,1.48a2.314,2.314,0,0,1-.8-.65c-.05-.07-.81-.54-.69.13s.54,1.9.27,1.99-1.45-2.31-1.75-2.22c-.32.1-.42,1.34-.42,1.8,0,.48-2.14-.66-2.68-1.03-.54-.34-9.55-2.69-15.52-5.49s-9.89-7.88-12.56-12.34-5.19-13.68-5.27-13.71c0,0-2.22-8.97-2.68-11.21-.49-2.26,2.95-6.56,6.93-10.14s4.71-4.03,4.68-3.82a26.3,26.3,0,0,1-3.66,5.99c-2.13,2.52-2.38,3.04-2.24,3.17s5.04-3.26,8.19-5.49c3.02-2.2,6.35-4.73,6.55-4.88-.18.3-3.76,6.26-6.06,8.09-2.37,1.88-5.69,4.59-5.69,4.59s3.62-.36,10.49-4.05a54.362,54.362,0,0,0,11.84-8.84,27.328,27.328,0,0,1-4.81,8.39,28.049,28.049,0,0,1-6.23,5.39s2.91.97,10.41-3.42a47.772,47.772,0,0,0,11.52-9.15,22.589,22.589,0,0,1-3.13,6.91,23.114,23.114,0,0,1-3.82,4.59s2.2-.34,8.49-4.53a26.225,26.225,0,0,0,8.83-9.7,15.876,15.876,0,0,1-1.5,5.5,21.231,21.231,0,0,0-1.72,4.34,17.558,17.558,0,0,0,5.61-5.66,14.874,14.874,0,0,0,2.46-6.9s.49,9.51.56,12.31a27.333,27.333,0,0,0,.99,6.2c0-.22.27-3.3.71-3.53.44-.2.08,12.83.08,15.73s-.4,7.93-1.36,10.71c-.98,2.78-5.48,10.32-6.83,12.96-.06.12-.11.22-.14.29,2.23-2.73,5.26-6.35,5.41-6.35.01,0,0,.02-.01.05a40.937,40.937,0,0,1,3.29-5.87,6.913,6.913,0,0,0,1.73-3c-.03-.21,0-6,.63-7.5s2.12-2.89,2.27-2.67c.13.25.58,5.96,1.28,8.22.71,2.29,2.02,4.91-.02,7.34a25.351,25.351,0,0,1-5.73,4.79,9.387,9.387,0,0,1-1.15.59,13.488,13.488,0,0,0,5.43-.55c2.22-.88,2.83-1.15,2.83-1.15s-1.88,2.96-3.73,3.89a36.15,36.15,0,0,1-4.47,1.72,8.289,8.289,0,0,0,5.01.28c2.59-.63,3.79-1.04,3.93-1.08a9.72,9.72,0,0,1-4.22,3.95,19.71,19.71,0,0,1-3.9,1.27,10.363,10.363,0,0,0,4.64,1.07,16.238,16.238,0,0,0,8.22-3.02,6.561,6.561,0,0,1-2.02,4.51,26.279,26.279,0,0,1-3.44,3.06,11.959,11.959,0,0,0,4.8-1.55c2.18-1.35,2.45-2.02,2.45-2.02a9.284,9.284,0,0,0,7.28,3.9c4.75.01,12.79-2.06,12.79-2.06a9.292,9.292,0,0,1-5.41,5.27c-4.21,1.63-12.51,5.21-16.34,7.09-3.8,1.89-4.44,3.02-4.59,2.87-.17-.15-4.82-6.74-8.53-8.87a18.573,18.573,0,0,0-7.39-2.35s4.78,8.21,6.94,11.04c2.14,2.81,6.87,12.63,6.87,12.63l.29,7.13S265.847,362.62,263.407,359.3Zm23.91-14.09s-3,1.78-3.52,2.18c-.5.42-1-.67-1.33-1.01l-.57-.52s2.81-1.29,7.42-3.12a25.442,25.442,0,0,1,6.66-1.97s1.08-1.2,2.48-2.63c1.43-1.42,1.87-2.37,1.87-3.32.02-.93,1.13-1.04,1.72-.12.57.95.49,5.41-.1,7.18s-5.38,4.37-6.7,5.46a14.289,14.289,0,0,1-8.05,2.44c-2.63-.27-2.86-.93-2.63-1.11.18-.16,1.17-.91,2.04-1.72C287.417,346.11,287.687,345.45,287.317,345.21Zm-16.8,5.95s-.03,6.04-.12,6.04a42.7,42.7,0,0,1-5.05-8.53,38.393,38.393,0,0,0-5.17-8.23c.21.05,2.72.74,6.13,4.09,3.55,3.48,5.19,4.89,5.41,5.13C271.9,349.89,270.517,351.16,270.517,351.16Zm-8,135.08a15.849,15.849,0,0,0,5.75-5.8,38.977,38.977,0,0,0,2.94-6.66l1.86.37S271.747,484.78,262.517,486.24Zm11.86-52.75a23.256,23.256,0,0,1,1.57,14.31,162.168,162.168,0,0,0-2.09,17.66c-.24,3.05-.95,6.67-.95,6.67l-.77-.17s.71-10.95.3-16.17a117.242,117.242,0,0,0-3.4-18.61c-1.04-3.15-1.08-9.2-1.27-13.38-.15-4.19-.4-11.89,1-14.05.18,0,6.11,1.4,7.65,1.94,1.54.5.18,4.35.12,5.31s-1.77,9.91-2.16,11.86C274.017,430.8,273.657,432.06,274.377,433.49Zm17.09,45.78a26.442,26.442,0,0,0,1.48-5.93,48.575,48.575,0,0,0,.54-5.14l.94-.34S295.527,477.47,291.467,479.27Zm-10.3-45.75c3.67,2.01,8.61,9.44,9.57,16.59a92.452,92.452,0,0,0,3.24,14.18l-.86,1.53s-3.37-13.04-7.5-18.29c-4.18-5.24-5.31-5.85-5.31-5.85s-3.84-8.04-3.12-11.58C277.477,430.12,277.477,431.51,281.167,433.52Zm7.11-53.61a27.069,27.069,0,0,0,1.57-2.5c.56-1.11.87-1.24.78-.58C290.587,377.46,289.317,380.42,288.277,379.91Zm4.48,1.67a11.419,11.419,0,0,1-.23,2.69c-.27.96-1.08,1.62-1.17,1.51a3.084,3.084,0,0,1-.09-2.03A13.765,13.765,0,0,1,292.757,381.58Zm-.45-3.59c0,.12-.73,2.39-1.23,3.74-.54,1.36-1.72,2.98-2.03,2.51a21.062,21.062,0,0,1,1.49-4.22A8.218,8.218,0,0,1,292.307,377.99Zm-2.53-5.87c.59.11,1.13.98,1.23,1.62.12.64-.2.67-.6.56-.41-.07-1.07-.46-1.64-.64a1.3,1.3,0,0,1-.79-1.59A10.89,10.89,0,0,1,289.777,372.12Zm-2.54-9.53c-.49,1.65-1.32,1.95-2.51,1.28-1.2-.63-4.64-4.57-7.63-6.76-2.96-2.19-3.65-.93-3.46-.49.18.42,2.66,0,5.81,3.81,3.17,3.81,4.03,7.47,3.59,19.07s-.15,20.16-3.37,24.59a58.892,58.892,0,0,0-3.93,5.78s-5.3-1.31-7.15-1.49c-1.88-.21-2.77-.26-2.79-.31-.02-.07.37-.71,1.13-3.23a43.307,43.307,0,0,0,1.66-9.42c.38-4.38,1.41-9.21,2.29-14.79.87-5.61,1.28-7.73,1.49-10.02a7.015,7.015,0,0,0-.89-4.03s.46-.9.46-.91c.08-.21.27-11.15.13-12.68-.13-1.56,3.44-3.51,5.3-4.61a33.9,33.9,0,0,1,3.9-1.97s.63,1.82.67,2.14c.05.35-2.98,2.54-3.7,3.88s-.64,1.81-.64,1.81a33.327,33.327,0,0,1,2.88-2.56c1.51-1.17,2.24-1.79,2.24-1.79s2.14,1.4,2.93,2.03a18.779,18.779,0,0,0,3.99,1.43S287.687,360.92,287.237,362.59Zm18.28-18.62a2.821,2.821,0,0,0,1.36.98,4.056,4.056,0,0,1,2.36,4.87c-.77,3.57-1.13,15.19-.7,21.28a54.989,54.989,0,0,0,1.36,9.57,10.14,10.14,0,0,1,.49-1.28c.11,0,.94.93,1.5,3.41a75.965,75.965,0,0,0,5.29,13.81,15.134,15.134,0,0,0,4.87,5.51,14.124,14.124,0,0,1,4.39,5.17,47.814,47.814,0,0,1,2.06,4.59c-.07-.1-3.84-4.15-4.87-5.58-.99-1.43-1.8-2.36-2.22-2.9-.42-.51-1.17.27-1.26.64-.07.39-.82,4.39-1,5.29-.22.93-.64,1.05-.64.51,0-.51.32-5.85-.47-6.92s-2.78-6.09-5.09-10.4c-2.36-4.32-5.54-11.06-6.49-12.04-.96-1.03-.98-1.08-.98-1.08s-2.15-24.16-4.73-26.07a27.323,27.323,0,0,0,.07,3.48c.1.96.07,1.25-.22,1.55a8.252,8.252,0,0,1-4.82,1.18c-2.41-.15-2.88-2.25-2.36-3.99.49-1.71,3.61-5.92,5.18-7.44s5.07-4.44,5.47-4.81C304.487,342.96,305.157,343.44,305.517,343.97Zm19.9-24.2a8.93,8.93,0,0,1-4.97,2.41,8.57,8.57,0,0,0-2.68,1.77c-.74.98-3.32,3.86-15.44,7.21-12.08,3.34-18.55,2.57-20.18,1.8-1.61-.77-4.87-10.39-6.05-13.12a121.576,121.576,0,0,1-5.07-15.6c-.74-3.69.05-5.04.28-5.04.19,0,1.92-.49,2.87.59.93,1.08,1.06.4,2.02,1.31.94.9,1.8,1.2,1.67.66a9.136,9.136,0,0,0-3.03-3.69c-1.64-1.08-1.59-.98-1.4-2.18a16.216,16.216,0,0,1,.3-1.75,17.439,17.439,0,0,0-1.26,1.96c-.29.56-1.17.25-1.27-.44a16.818,16.818,0,0,0-.45-2.17,18.132,18.132,0,0,1-.45,2.14c-.21.47-.59-.73-.68-1.64s-.32-3.72,1.04-4.37c1.32-.66,4.62.16,6.02,1.08,1.27.85,1.86,1.29,1.96,1.36a8.054,8.054,0,0,0-8.21-4.46l.3-5.47s1.16,1.54,1.13,1.35a4.824,4.824,0,0,0,.34-2.51,10.027,10.027,0,0,1,1.58-8.62s-.4,14.12,7.09,18.78c0,0-5.41-5.29-2.02-14.35,0,0,.81,7.27,3.96,9.69,0,0-2.02-11.88,3.69-17.29,0,0-1.79,12.21.9,17.92a17.755,17.755,0,0,1,1.82-10.16s-1.32,10.46,3.32,15.97c-.2-.51-3.33-8.86,3.87-16.83,0,0-.32,8.26,1.19,10.62,0,0-.68-4.83,4.81-9.96,0,0-.93,9.82,2.7,16.77,0,0-4.44-2.74-9.24,1.27a17.625,17.625,0,0,1,8.51.63c3.88,1.53,3.67,3.15,3.4,3.52-.26.34-1.25,1.98-1.3,2.08a7.513,7.513,0,0,1,1.98-1.39,4.814,4.814,0,0,1,1.33-.18s-.24-.83-.1-1.02c.13-.15,1.75-.81,2.89-4.61a37.97,37.97,0,0,0,1.35-5.64,14.012,14.012,0,0,1,.86,7.86c-.9,3.88-2.35,5.09-2.35,5.09a6.19,6.19,0,0,0,5.18-3.67c1.6-3.07,1.47-4.64,1.38-5.09a22.543,22.543,0,0,1,.82,7.26c-.31,3.54-.41,4.65-.41,4.65a8.8,8.8,0,0,0,1.77-2.77,9.928,9.928,0,0,0,.2-1.54s1.25,6.11.61,8.96c-.61,2.74-2.09,6.96-2.18,7.22a17.255,17.255,0,0,0,3.81-3.05,8.354,8.354,0,0,0,1.91-4.01S327.567,317.63,325.417,319.77Zm-10.7-55.73s4.03,1.05,11.47,8.35c7.45,7.34,8.04,11.55,8.04,11.55S322.047,268.18,314.717,264.04Zm16.07,34.7c-.13-.45-6.31-17.22-9.14-21.24-.18-.19-.27-.3-.28-.37.09.11.18.23.28.37.83.9,3.42,3.44,6.06,9.75C330.877,294.87,330.927,299.23,330.787,298.74Zm5.45,18.81c0-.47-.61-24.18-6.61-34.56,0,0,6.99,7.35,8.04,17.13C338.657,309.9,336.237,318.04,336.237,317.55Zm-34.11-63.83s8.28-.65,22.3,10.57c14.01,11.25,14.05,20.01,14.05,20.01S329.017,264.79,302.127,253.72Zm5.31,52.45c-.69.13-2.04.7-2.18.34-.16-.37,1.31-1.68,1.31-1.75.04-.07-2.22.81-2.22.81a6.77,6.77,0,0,0-5.23-1.52c-3.05.48-4.77,2.09-4.37,2.31a2.457,2.457,0,0,0,1.4.07c5.44-1.96,8.65,1.93,9.06,1.85a19.4,19.4,0,0,0,3.04-1.75C308.737,306.18,308.127,306.05,307.437,306.17Zm-23.69,16.84c-1.3-.28-4.91-3.79-5.07-4.01-.56-.36-.86.59-.32,1.33s3.89,4.62,5.46,4.92c1.54.33,5.54-1.38,6.36-2.04a32.676,32.676,0,0,0,2.67-2.81,10.124,10.124,0,0,0-3.35,1.18C287.487,322.61,285.057,323.3,283.747,323.01Zm.73,4.56a1.387,1.387,0,0,1-1.5-.33c-.51.9.84,1.31,1.86,1.1,1-.23,1.67-.83,1.59-1.04C286.327,327.12,285.467,327.27,284.477,327.57Zm-.8-11.97c.52-.07-2.04-.8-2.93-1.37-.91-.57-.98-1.55-1.08-2.95a36.471,36.471,0,0,0-.54-4.4,14.515,14.515,0,0,1-.67,3.59c-.5,1.04-.95,2.96-.05,4.11C279.337,315.74,283.187,315.69,283.677,315.6Zm-15.46-88.13c.03-.04.05-.06.05-.07S268.237,227.42,268.217,227.47Zm-12.49,62.58c.28-.14-.36-.91-4.1-1.07-3.7-.16-6.4-.13-9.52,3.24-3.13,3.35-2.15,4.82-2.1,5.01C246.457,290.46,255.457,290.19,255.727,290.05Zm-.41,8.44c-.6-.02-1.58-.81-3.75-.57-2.2.25-4.39,1.14-4.98,2.11a1.534,1.534,0,0,0,.09,1.83,5.37,5.37,0,0,0,2.44,1.72,2.8,2.8,0,0,0,3.24-1.65c.23-1,.25-.95.97-1.52.68-.56,2.68-1.83,2.68-1.83A1.736,1.736,0,0,0,255.317,298.49Zm-4.97,2.92c-.27.35-1.77.4-1.68-.19a1.3,1.3,0,0,1,1.09-.62C250.437,300.6,250.587,301.07,250.347,301.41Zm2.31,16.29c-.39-.13-.22.57-.28.78a20.17,20.17,0,0,1-3.6,2.62c-2.1,1.4-5.1,3.78-8.44,3.54s-4.34-2.25-5.32-2.09c-.96.14-1.15,1.65-.74,1.7a8.094,8.094,0,0,1,1.15.24c2.2,2.56,7.85,2.43,7.85,2.43s.67.65,1.14,1.16a1.941,1.941,0,0,0,2.66,0c1.18-.87,3.85-3.15,4.17-4.04s1.22-3,1.41-3.35c.22-.31,1.03-1.13,1.22-1.4S253.057,317.87,252.657,317.7Zm-3.77,7.9a4.559,4.559,0,0,1-3.61.78,10.663,10.663,0,0,0,2.93-1.79c1.37-1.11,1.52-1.25,1.87-1.5.31-.25.42-.48.42-.37A5.241,5.241,0,0,1,248.887,325.6Zm-9.83-7.06a5.6,5.6,0,0,0,1.69-.91,9.65,9.65,0,0,1-2.9-.03c-.68-.32-2.06-5.24-2.39-5.69,0,0,.17,4.76.22,5.94C235.727,319,237.647,319.16,239.057,318.54Zm-7.73,37.64a2.071,2.071,0,0,1-1.03-1.55,13.673,13.673,0,0,0,.04-1.8,21.926,21.926,0,0,1,.28-5.24,34.733,34.733,0,0,0,.31-5.24c-.07-.72-.73,1.89-1,2.29-.32.39-.84-2.42-1.18-3.26-.32-.83-1.18-.91-.77.63s.99,6.32.72,7.11a20.766,20.766,0,0,1-1.13,2.96c-.27.6-.76,1.12-2.21,1.25-1.5.14-3.13-.13-3.1.26.02.37.71.35,2.94.89s6.04,1.97,6.04,1.97C231.427,356.52,231.777,356.39,231.327,356.18Zm-7.13-53.8c-.56.12-1.69-.6-3.59-.79a8.759,8.759,0,0,0-5.41,1.52c-.79.72.16,1.45.2,1.51a5.713,5.713,0,0,1,1.47,1.39c.61.81,2.26,1.47,2.88.95a31.809,31.809,0,0,0,2.11-2.84C222.507,303.34,224.767,302.3,224.2,302.38Zm-5.36,2.43c-.13.27-1.72.61-1.7-.49a2.786,2.786,0,0,1,1.33-.28C219.107,304.05,219,304.56,218.837,304.81Zm1.89-8.07a8.9,8.9,0,0,0,2.16-.2c.43-.14.45-.7-1.06-1.72-1.5-.99-5.62-2.36-8.83-.68a10.6,10.6,0,0,0-4.56,5.11C217.437,294.55,220.427,296.72,220.727,296.74ZM167.1,310.3a3.5,3.5,0,0,0,2.06-4.18,2.274,2.274,0,0,0-2.2-1.7c-.22.02-.22.34.57,1.15.8.84.86,2.79-.43,3.38-1.32.61-2.58.49-2.58-1.18a4.06,4.06,0,0,1,1.36-3.06c.36-.27.46-.95-.27-.85,0,0-1.81.26-2.27,2.92A2.954,2.954,0,0,0,167.1,310.3Z"/><path class="cls-2" d="M272.887,213.48c-133.11-75.01-256.84,85.58-66.93,238.57.43-1.39.97-3.16,1.39-4.47C21.037,296.52,146.537,144.2,271.8,217.87l1.09.64,1.11-.64c116.13-68.3,226.38,57.98,109.41,187.44-.39.42-.77.85-1.16,1.27s-.78.85-1.17,1.27v.03c-.46.5-.9.99-1.39,1.5l-.02-.02c-.2.21-.39.42-.6.63l.02.02c-.96,1.02-1.91,2-2.85,2.99l-.01-.01c-.2.21-.4.41-.6.62l.02.02c-1,1.04-1.99,2.02-2.99,3.06a.3.3,0,0,1,.04-.08c-.64.65-1.28,1.3-1.93,1.95l-.01.02-.18.18c-.61.61-1.23,1.22-1.86,1.84v.02c-.41.4-.82.79-1.23,1.19l-.1.1a406.565,406.565,0,0,1-40.09,34.42q-.375.3-.75.57a3.063,3.063,0,0,1-.29.21q-2.445,1.845-4.87,3.59h.02c-1.45,1.04-2.71,1.96-3.76,2.72.02-.03.03-.05.05-.08-1,.71-1.99,1.41-2.98,2.09a8.463,8.463,0,0,0-.71.5c-.09.06-.18.12-.26.17a.077.077,0,0,1-.03.01l.01.01,1.13,1.69,1.31,1.94c.33-.22.65-.44.98-.67q2.715-1.83,5.37-3.69c1.01-.7,2.02-1.41,3.02-2.13C533.037,315.96,412.827,134.63,272.887,213.48Z"/><path class="cls-4" d="M524.571,4.034V520.319H4V4.034H524.571m4-4H0V524.319H528.571V.034Z"/><path class="cls-5" d="M525.267,521.405H4V3.815H525.267ZM34,491.405H495.267V33.815H34Z"/><path class="cls-6" d="M311.937,467.35c.59-.41,1.19-.81,1.79-1.23,0,0,.01,0,.02-.02.08-.05.17-.11.26-.17.23-.16.47-.33.71-.5.99-.68,1.98-1.38,2.98-2.09q1.845-1.29,3.69-2.64,2.43-1.74,4.87-3.59a3.063,3.063,0,0,0,.29-.21q.375-.27.75-.57a406.565,406.565,0,0,0,40.09-34.42l.1-.1c.41-.4.82-.81,1.23-1.21.63-.62,1.25-1.23,1.86-1.84v-.01c.06-.06.12-.12.18-.17l.01-.02c.65-.65,1.29-1.3,1.93-1.95.99-1,1.97-2,2.93-3,.2-.21.4-.41.6-.62.96-1,1.91-2,2.84-3,.21-.21.4-.42.6-.63.47-.51.94-1.01,1.41-1.51.39-.42.78-.85,1.17-1.27s.77-.85,1.16-1.27"/></g></svg>