<svg xmlns="http://www.w3.org/2000/svg" viewBox="0 0 528.571 518.793"><defs><style>.cls-1{fill:#616060;}.cls-2{fill:#8d8989;}</style></defs><title>icon</title><g id="Layer_15" data-name="Layer 15"><path d="M495.105,77.419c11.222,16.08,22.291,31.943,33.466,47.957-8.064,5.631-16.028,11.2-24,16.757Q469.78,166.4,435.007,190.7c-2.123,1.487-3.866,3.505-5.9,5.131-11.847,9.466-25.581,14.62-40.4,16.742-7.092,1.016-14.382.566-21.539,1.239a150.019,150.019,0,0,0-15.113,2.644c-10.142,2.016-20.381,3.688-30.361,6.331-8.567,2.269-16.83,5.687-25.222,8.613a46.6,46.6,0,0,0-4.785,1.827c-2.221,1.061-4.244.712-5.5-1.228a27.786,27.786,0,0,1-3.875-7.8c-.88-3.413.768-5.654,3.835-7.508,21.841-13.208,45.239-23.313,68.187-34.316,1.616-.775,4.011-1.127,3.685-3.648-.314-2.43-2.751-2.135-4.423-2.827-7.259-3-14.463-1.687-21.568.429-2.037.606-3.706,2.35-5.678,3.29-4.38,2.089-8.905,3.879-13.257,6.024-3.3,1.624-6.445,3.561-9.6,5.452-1.557.932-1.978,2.263-1.484,4.167.347,1.339-.1,2.884-.219,4.786l-4.711-2.295c.392-.664.771-1.233,1.079-1.838,1.827-3.6,4.275-7.043,5.29-10.864,1.209-4.551,3.484-6.908,7.941-8.349,6.063-1.96,11.046-5.924,15.594-10.413a4.9,4.9,0,0,1,3.695-1.3c8.3,1.536,16.542,3.337,24.815,5a17.992,17.992,0,0,0,4.792.5,3.566,3.566,0,0,0,2.69-1.523,3.441,3.441,0,0,0-.908-2.969c-3.2-3.033-6.506-5.98-9.936-8.756-4.969-4.023-10.036-7.929-15.154-11.761a53.171,53.171,0,0,0-5.58-3.265c-2.3-1.316-4.289-.958-6.474.588-11.1,7.857-22.1,15.884-33.523,23.251-7.913,5.1-11.629,11.922-11.723,21.1-.02,1.96-.371,3.916-.591,6.087-7.984-.013-15.688.973-23.35,4.4.5-5.863,1.061-11.375,1.411-16.9.574-9.066,4.88-15.8,11.912-21.428,8.157-6.527,15.762-13.741,23.714-20.53,10.448-8.92,22.771-12.937,36.285-11.64,16.833,1.616,33.573,4.2,50.349,6.4,13.742,1.8,27.471,3.7,41.224,5.4a5.426,5.426,0,0,0,3.558-1.434q21.925-18.459,43.744-37.048C476.866,92.88,485.8,85.306,495.105,77.419Z"/><path d="M298.392,204.024c-5.107,2.877-9.712,5.67-14.5,8.106a11.691,11.691,0,0,0-6.6,8.933c-1.117,6.171,3.137,14.733,8.93,17.012a9.357,9.357,0,0,0,5.934.146c7.323-2.461,14.522-5.29,21.769-7.975,1.084-.4,2.184-.757,3.394-1.175,2.357,10.705.3,20.558-4.349,30.021-5.27,10.735-12.807,19.782-21.233,28.129-13.127,13-27.917,23.865-43.649,33.474a3.6,3.6,0,0,1-3.1.15C224.074,308,204.6,293.382,189.256,273.931c-6.694-8.486-12.12-17.718-14.009-28.56-3.826-21.959,8.509-40.544,30.2-45.6,9.52-2.22,18.948-2.018,28.077,1.83A25.61,25.61,0,0,1,244,209.465c1.553,1.991,3.086,2.185,4.445.405,5.305-6.952,12.827-9.751,20.99-10.948A45.726,45.726,0,0,1,298.392,204.024Z"/><path d="M41.707,333.864V287.811h3.436c28.04,0,56.081.034,84.121-.046a64.409,64.409,0,0,0,10.441-1.01,36.431,36.431,0,0,1,27.758,6.166c9.36,6.55,18.267,13.753,27.307,20.755,7.052,5.462,13.8,11.348,21.081,16.474,4.591,3.231,9.919,5.417,14.927,8.052,2.07,1.089,4.176,2.109,6.25,3.189,2.882,1.5,4.032,3.578,3.369,6.015a5.6,5.6,0,0,1-6.073,4.3c-5.394-.33-10.769-1.016-16.164-1.24a16.7,16.7,0,0,1-8.672-3.141c-8.819-5.762-17.716-11.4-26.58-17.094-1.475-.946-3.033-2.071-4.507-.2-1.3,1.645-.211,3.006.924,4.273,8.114,9.059,16.009,18.328,24.431,27.091,3.3,3.438,7.737,5.815,11.764,8.514a4.407,4.407,0,0,0,3.06.323c12.5-2.7,24.708-1.451,36.691,2.686,2,.691,3.294.448,4.562-1.43a12.177,12.177,0,0,1,3.708-3.069,80.241,80.241,0,0,1,23.149-10.089c1.7-.43,2.767-1.078,2.8-3.01a2.9,2.9,0,0,1,.9-1.838c6.522-6.1,13.787-10.989,22.516-13.359a11.849,11.849,0,0,1,3.751-.286,9.562,9.562,0,0,1,2.44.824,9.333,9.333,0,0,1-1.169,2.244q-10.37,11.038-20.823,22c-4.717,4.97-9.486,9.891-14.151,14.909a21.406,21.406,0,0,1-16.541,7.154q-32.324-.119-64.647,0a43.9,43.9,0,0,1-31.126-12.112c-16.493-15.227-33.12-30.31-49.6-45.551a8.211,8.211,0,0,0-6.994-2.434c-17.826,1.828-35.665,3.539-53.5,5.268C54.368,332.73,48.182,333.271,41.707,333.864Z"/><path d="M349.716,162.794c-2.426-.386-4.849-.8-7.279-1.154-4.435-.656-8.86-1.5-13.321-1.8a6.743,6.743,0,0,0-4.7,1.917A45.3,45.3,0,0,1,303.9,174.19c-2.451.713-3.452,1.714-3.817,4.532-.784,6.054-3.738,11.384-7.45,16.225a1.9,1.9,0,0,1-1.555.557c-2.272-.443-4.517-1.031-7.033-1.629.522-4.523.879-8.989,1.6-13.4a11.938,11.938,0,0,1,5.354-7.82q17.913-12.529,35.891-24.967c.761-.525,2.169-1.006,2.822-.657,7.493,4,13.787,9.615,20.3,14.933Z"/><path d="M296.228,331.151c-2.963,2.154-5.984,4.236-8.868,6.493-1.548,1.211-3.3,2.49-4.18,4.152-1.352,2.568-3.567,3.2-5.94,4.041-11.2,3.948-21.683,9.106-29.833,18.129a3.759,3.759,0,0,1-2.721.923c-2.582-.172-5.145-.622-8.554-1.073a37.442,37.442,0,0,1,4.289-3.995,81.048,81.048,0,0,1,24-10.7c1.645-.44,2.784-.984,2.9-2.935a3.8,3.8,0,0,1,1.178-2.265c6.294-5.944,13.42-10.556,21.817-12.921a32.048,32.048,0,0,1,5.748-.575Z"/><path d="M251.913,365.954c4.461-3.152,8.643-6.847,13.453-9.318,5.944-3.055,12.441-5.021,18.623-7.637,1.1-.463,1.9-1.742,2.693-2.757.516-.659.59-1.715,1.172-2.265,6.359-6.008,13.55-10.67,22.052-13.037a15.943,15.943,0,0,1,4.541-.32,2.4,2.4,0,0,1,1.821.849c.2.363-.275,1.39-.738,1.761a9.48,9.48,0,0,1-3.1,1.8c-11.047,3.232-20.685,8.606-27.847,17.887a4.16,4.16,0,0,1-1.92,1.255c-9.255,3.068-18.144,6.8-25.892,12.944-.931.738-2.952.1-4.468.1Z"/><path d="M281.671,328c-1.094.843-2.172,1.707-3.285,2.524-4.485,3.293-9.565,6.029-13.286,10.029a23.471,23.471,0,0,1-9.833,6.252c-3.536,1.276-6.939,2.921-10.6,4.488.388-1.986.751-3.852,1.161-5.951.863-.133,1.9-.336,2.94-.443,1.742-.178,2.841-.855,2.9-2.84a3.3,3.3,0,0,1,1.016-2.044c6.626-6.273,14.061-11.223,23.068-13.333,1.769-.415,3.719-.06,5.585-.06Z"/><path d="M307.453,198.992c-.822-3.482.421-5.466,3.429-6.772,5.933-2.578,12.034-4.925,17.575-8.2a37.536,37.536,0,0,1,14.345-4.815,34.316,34.316,0,0,1,4.627-.033l.087.887Z"/><path d="M209.894,358.92l21.735,3.777-.141.73c-4.3.595-8.6,1.2-12.9,1.773a2.182,2.182,0,0,1-1.308-.086c-2.627-1.625-5.213-3.314-7.812-4.983Z"/><path class="cls-1" d="M524.571,4.054V520.339H4V4.054H524.571m4-4H0V524.339H528.571V.054Z"/><path class="cls-2" d="M525.268,521.425H4V3.835H525.268ZM34,491.425H495.268V33.835H34Z"/></g></svg>