<?xml version="1.0" encoding="utf-8"?>
<!-- Generator: Adobe Illustrator 24.0.1, SVG Export Plug-In . SVG Version: 6.00 Build 0)  -->
<svg version="1.1" xmlns="http://www.w3.org/2000/svg" xmlns:xlink="http://www.w3.org/1999/xlink" x="0px" y="0px"
	 viewBox="0 0 528.57 523.81" style="enable-background:new 0 0 528.57 523.81;" xml:space="preserve">
<style type="text/css">
	.st0{fill:#616060;}
	.st1{fill:#8D8989;}
	.st2{fill:#FFFFFF;}
</style>
<g id="Layer_1">
	<g>
		<path d="M472.03,413.67c1.27,4.82,2.89,9.34,6.77,12.89c1.42,1.3,2.37,3.59,2.65,5.55c0.59,4.14,1.99,7.86,4.03,11.44
			c1.67,2.93,3.37,5.85,4.84,8.88c2.04,4.2,0.13,7.76-4.43,8.07c-16.43,1.13-32.86,2.53-49.32,3.1c-23.92,0.83-47.87,1.56-71.8,1.38
			c-27.54-0.21-55.07-1.33-82.6-2.31c-9.63-0.34-19.23-1.46-28.85-2.2c-1.93-0.15-3.33-1.11-3.93-2.87
			c-0.63-1.83-0.23-3.66,1.3-4.92c1.07-0.88,2.31-1.69,3.61-2.11c10.27-3.29,19.33-8.89,28.29-14.69c0.74-0.48,1.48-1.7,1.44-2.54
			c-0.45-9.8-1.04-19.58-1.61-29.37c-0.26-4.56-0.56-9.13-0.88-14.45c2.62,1.76,4.68,3.02,6.59,4.47c1.93,1.46,3.71,3.11,5.55,4.68
			c0.19-0.12,0.38-0.25,0.57-0.37c-1.6-3.27-2.79-6.86-4.93-9.72c-2.18-2.91-5.31-5.12-8.49-8.06c-0.57-9.73-1.12-20.31-1.85-30.87
			c-0.2-2.9,0.6-5.15,2.62-7.19c10.23-10.38,22.39-17.98,35.66-23.62c8.9-3.78,18.22-6.7,27.55-9.33c4.72-1.33,7.79-3.71,10.42-7.74
			c7.24-11.05,8.15-22.08,1.14-33.51c-0.13-0.21-0.15-0.49-0.11-0.35c3.89-0.19,7.73-0.15,11.49-0.66c2.04-0.28,3.51,0.17,5.22,1.11
			c4.89,2.69,9.89,5.15,15.8,4.18c0.93-0.15,2.11,0.08,2.93,0.56c3.7,2.2,7.22,4.72,10.99,6.81c6.14,3.4,12.73,5.61,19.8,6.58
			c0.77,7.99,3.43,15.36,6.15,22.7c6.43,17.33,12.93,34.64,19.35,51.97c0.85,2.3,1.46,4.68,2.22,7.11c-1.22,0.27-1.95,0.44-2.7,0.61
			c-0.03,0.33-0.11,0.57-0.06,0.78c1.39,5.38,2.74,10.77,4.25,16.11c0.23,0.82,1.09,1.62,1.87,2.09c2.92,1.8,6.09,3.26,8.87,5.25
			c3,2.15,5.44,5.1,5.22,9.02c-0.36,6.36-2.94,11.9-8.62,15.09c-5.16,2.91-10.02,4.18-15.42-0.97c-4.22-4.03-9.35-7.09-13.96-10.73
			c-1.76-1.39-3.52-2.98-4.7-4.85c-3.36-5.28-6.51-10.71-9.56-16.18c-1.11-1.99-2-3.4-4.53-1.95c-0.97,0.56-2.28,0.51-3.41,0.83
			c-2.36,0.67-3.73-0.08-4.7-2.45c-3.15-7.67-6.56-15.24-9.73-22.91c-0.66-1.61-1.63-2.2-3.2-2.57c-4.44-1.03-8.68-0.58-12.87,1.14
			c-9.28,3.8-18.59,7.55-27.9,11.29c-7.31,2.93-5.21,4.02-11.1-1.99c-3.82-3.91-7.68-5.64-12.97-4.84
			c-5.14,0.77-10.32,1.28-15.92,1.95c1.01,2.36,1.67,4.1,2.49,5.77c3.02,6.12,4.66,12.57,3.59,19.35
			c-0.66,4.22-2.09,8.32-3.25,12.46c-2.84,10.11-3.6,20.51-4.27,30.91c-0.12,1.88,0.37,3.9,0.99,5.71c1.63,4.77,4.52,9.17,3.72,14.6
			c50.09-2.25,99.85-1.8,150.2,1.94c0-4.72,0.33-9.36-0.09-13.93c-0.44-4.84-2.23-9.26-6.22-12.51c-1.37-1.11-2.5-2.5-3.79-3.81
			c12.07-2.23,15.73-5.57,17.82-15.81C470.88,409.68,471.5,411.66,472.03,413.67z M360.22,310.56c19.68,6.11,39.06,6.22,58.86,0.01
			c-0.9-2.79-1.72-5.35-2.58-8.03c-17.61,4.01-35.14,4.31-52.9,0.19C362.5,305.29,361.45,307.71,360.22,310.56z M443.65,376.13
			c-0.42-1.73-1-3.42-1.62-5.55c-5.13,1.36-10.15,2.68-15.3,4.05c1.8,5.64,3.48,10.91,5.16,16.19c0.19,0.6,0.48,1.19,0.53,1.8
			c0.42,4.93,3.55,6.97,8.01,7.6c2.92,0.42,5.85,0.78,9.29,1.23C447.58,392.53,445.63,384.33,443.65,376.13z M316.32,325.38
			c-0.51-0.54-2.53-0.2-3.49,0.35c-6.04,3.48-12.12,6.92-17.88,10.83c-3.72,2.52-6.92,5.82-10.38,8.79
			c3.44,3.16,6.53,5.99,9.61,8.82c-0.07,0.17-0.14,0.33-0.2,0.5c-0.09-0.62-0.17-1.24-0.28-1.85c-0.82-4.22,0.04-6.46,3.74-8.73
			c5.97-3.66,12.6-5.49,19.46-6.55c2.71-0.42,5.43-0.71,8.91-1.15C322.46,332.42,319.53,328.76,316.32,325.38z M394.75,288.27
			c0.17,2.11,0.32,4.09,0.51,6.46c3.21-0.52,6.23-1.01,9.58-1.55c-0.42-2.09-0.8-3.99-1.19-5.93
			C400.57,287.6,397.81,287.92,394.75,288.27z M381.92,288.3c-2.82-0.31-5.59-0.62-8.55-0.95c-0.37,1.97-0.71,3.78-1.13,6
			c3.03,0.46,5.98,0.91,9.12,1.39C381.56,292.48,381.73,290.48,381.92,288.3z"/>
		<path d="M284.9,237.5c5.35,0.92,10.7,1.84,15.96,2.75c4.01-7.32,9.72-12.21,17.39-14.63c1.53-0.48,2.07-1.14,2.43-2.58
			c2.59-10.57,9.17-17.38,19.62-20.42c3.55-1.03,3.65-0.94,5.5,2.43c-11.6,3.06-19.58,10.42-19.54,18.22
			c3.45-2.6,6.76-5.21,10.2-7.63c2.42-1.71,4.94-3.34,7.58-4.67c2.93-1.47,5.92-3.39,9.47-1.61c0.25,0.13,0.62,0.03,0.93,0.03
			c5.51,0.06,9.5-3.37,14.07-5.79c-0.57-0.74-0.94-1.25-1.35-1.72c-2.26-2.65-2.26-2.65-5.46-1.08c-1.41,0.69-2.78,1.45-4.23,2.03
			c-2.59,1.04-4.95,0.59-6.8-1.57c-1.12-1.3-2.34-2.63-3.05-4.15c-1.35-2.88-3.15-4.43-6.46-3.35c-0.08,0.03-0.24-0.15-0.49-0.32
			c0.06-0.85,0.17-1.78,0.19-2.71c0.06-3.37,1.44-7-1.93-9.71c-0.33-0.26-0.46-0.82-0.58-1.27c-0.59-2.08-1.16-4.18-1.83-6.61
			c-1.34,1.18-2.58,2.27-4.15,3.66c0-1.71-0.07-3.1,0.01-4.48c0.67-12.15,11.73-22.53,22.67-25c10.46-2.36,19.65,1.92,24.67,11.4
			c2.33,4.4,3.18,9.16,3.28,14.06c0.16,7.76,5.89,15.52,13.34,17.79c1.79,0.55,3.62,1,5.47,1.34c6.31,1.16,12.73,1.86,18.93,3.45
			c8.63,2.21,14.94,7.49,17.91,16.13c1.93,5.61,1.57,11.26-0.23,16.87c-0.42,1.3-0.96,2.92-0.53,4.06
			c3.13,8.34,4.05,16.96,3.01,25.69c-0.78,6.58-2.33,13.07-3.58,19.6c-0.49,2.55-2.17,3.72-4.72,3.55c-3.2-0.21-6.42-0.34-9.6-0.8
			c-10.82-1.57-20.11-6.55-28.65-12.92c1.64-3.94,3.19-7.67,4.84-11.61c8.3,2.4,16.75,4.79,25.98,4.36
			c-6.93-7.29-15.7-9.05-25.02-10.03c1.51-5.38-1.25-7.88-5.43-9.75c-3.79-1.69-7.41-3.75-11.06-5.73
			c-0.67-0.37-1.37-1.02-1.66-1.71c-6.21-14.82-27.65-17.81-37.69-5.22c-4.05,5.08-6.27,10.96-6.16,17.4
			c0.05,3.01-1.21,4.67-3.17,6.29c-7.78,6.4-16.18,11.9-25.11,16.53c-1.93,1-4.35,1.52-6.54,1.52c-9.93-0.03-18.29-4.15-25.53-10.14
			c2.24-4.18,4.36-8.15,6.41-11.98c4.71,1.68,9.59,3.42,14.65,5.22c0.56-2.07,0.8-3.64,1.41-5.04c0.75-1.73,0.01-2.41-1.45-2.94
			c-4.05-1.46-8.1-2.9-12.11-4.47c-0.9-0.35-1.58-1.24-2.37-1.88C284.51,238.08,284.71,237.79,284.9,237.5z M313.79,230.05
			c-5.08,3.17-7.1,7.86-6.52,14.38c2.91-4.55,6.43-7.81,11.07-9.25c4.08-1.26,8.36-2,12.6-2.56c3.61-0.48,3.35,0.11,4-4.63
			C327.65,227.23,320.45,225.89,313.79,230.05z M383.23,182.75c-0.47,0.31-0.97,0.64-1.48,0.96c-0.53,0.33-1.06,0.64-1.59,0.96
			c4.06,14.73,16.15,19.53,28.94,13.54C398.53,196.2,388.64,193.3,383.23,182.75z M417.31,224.9c-5.06,1.64-8.85,7.23-9.27,13.62
			c-0.02,0.23-0.01,0.47-0.02,0.7c-0.21,7.91,0.51,8.62,8.72,8.18C413.87,239.73,415.33,232.32,417.31,224.9z M405.18,207.91
			c8.62-0.23,16.9-3.91,25.87-1.04C423.38,194.98,410.46,200.38,405.18,207.91z M430.07,235.99c-0.52,2.85-0.94,5.14-1.34,7.43
			c-0.09,0.54,0.03,1.13-0.15,1.63c-1.58,4.51,0.37,7.87,3.66,11.03C434.65,249.19,435.09,242.68,430.07,235.99z"/>
		<path d="M252.15,207.08c4.66,5.43,4.85,8.39,0.93,13.9c-0.56-1.61-0.97-3.2-1.66-4.66c-1.76-3.78-4.36-6.48-8.91-6.53
			c-2.65-0.03-4.69,1.27-6.33,3.13c-3.95,4.5-6.53,9.81-8.03,15.53c-1.66,6.33,1.59,12.14,8.23,15.41c3.83,1.89,7.85,2.49,12.1,1.47
			c0.91-0.22,2.16,0.05,2.99,0.55c5.52,3.29,11.04,6.58,16.4,10.12c2.21,1.46,3.62,1.09,5.11-0.82c2.87-3.68,5.29-7.56,6-12.3
			c0.32-2.15-0.4-3.57-2.37-4.57c-2.79-1.42-5.48-3.03-8.24-4.53c-1.13-0.62-1.61-1.22-1.31-2.74c1.16-5.82-0.13-11.57-1.77-17.04
			C263.67,208.45,257.49,205.58,252.15,207.08z"/>
		<path d="M377.48,237.24c0.32,0.84,1.15,1.66,1.96,2.1c4.1,2.28,8.26,4.49,12.44,6.63c1.97,1.01,3.26,2.34,2.42,4.63
			c-1.78,4.82-3.58,9.65-5.63,14.36c-0.79,1.81-2.67,2.44-4.62,1.65c-3.91-1.59-7.81-3.21-11.63-4.99c-1.59-0.74-2.98-0.94-4.7-0.46
			c-5.83,1.61-11.5,0.92-16.88-1.8c-3.76-1.9-6.28-4.79-7.01-9.1c-1.02-5.99,1.09-11.26,3.7-16.39c2.82-5.53,7.75-7.66,12.89-7.96
			C368.43,225.85,374.91,230.43,377.48,237.24z M366.21,235.38c-1.36-3.28-4.14-4.4-7.29-4.81
			C361.35,232.18,363.78,233.78,366.21,235.38z"/>
	</g>
	<g>
		<path d="M42,426.92c2.09,10.24,5.76,13.58,17.82,15.81c-1.29,1.31-2.42,2.7-3.79,3.81c-3.99,3.24-5.78,7.67-6.22,12.51
			c-0.42,4.57-0.09,9.2-0.09,13.93c50.35-3.75,100.11-4.19,150.2-1.94c-0.79-5.43,2.1-9.83,3.72-14.6c0.62-1.81,1.11-3.83,0.99-5.71
			c-0.67-10.4-1.43-20.8-4.27-30.91c-1.16-4.13-2.59-8.24-3.25-12.46c-1.06-6.78,0.57-13.23,3.59-19.35
			c0.82-1.66,1.48-3.41,2.49-5.77c-5.59-0.67-10.78-1.18-15.92-1.95c-5.3-0.8-9.15,0.94-12.97,4.84c-5.89,6.02-3.79,4.93-11.1,1.99
			c-9.31-3.73-18.61-7.49-27.9-11.29c-4.19-1.72-8.43-2.17-12.87-1.14c-1.57,0.37-2.53,0.96-3.2,2.57
			c-3.17,7.67-6.58,15.23-9.73,22.91c-0.97,2.37-2.33,3.11-4.7,2.45c-1.13-0.32-2.43-0.27-3.41-0.83c-2.53-1.45-3.42-0.05-4.53,1.95
			c-3.05,5.47-6.2,10.89-9.56,16.18c-1.19,1.87-2.94,3.46-4.7,4.85c-4.61,3.64-9.74,6.7-13.96,10.73
			c-5.4,5.15-10.26,3.88-15.42,0.97c-5.67-3.19-8.26-8.74-8.62-15.09c-0.22-3.92,2.22-6.86,5.22-9.02c2.78-1.99,5.94-3.45,8.87-5.25
			c0.77-0.48,1.63-1.28,1.87-2.09c1.51-5.34,2.86-10.73,4.25-16.11c0.05-0.21-0.03-0.45-0.06-0.78c-0.75-0.17-1.49-0.33-2.7-0.61
			c0.75-2.44,1.37-4.82,2.22-7.11c6.43-17.33,12.92-34.64,19.35-51.97c2.72-7.34,5.38-14.71,6.15-22.7
			c7.07-0.98,13.67-3.18,19.8-6.58c3.76-2.09,7.28-4.61,10.99-6.81c0.81-0.48,2-0.72,2.93-0.56c5.91,0.97,10.91-1.49,15.8-4.18
			c1.72-0.94,3.19-1.39,5.22-1.11c3.76,0.51,7.6,0.47,11.49,0.66c0.04-0.14,0.02,0.14-0.11,0.35c-7.01,11.43-6.1,22.46,1.14,33.51
			c2.64,4.03,5.7,6.4,10.42,7.74c9.32,2.63,18.64,5.55,27.55,9.33c13.27,5.64,25.43,13.24,35.66,23.62c2.01,2.04,2.82,4.3,2.62,7.19
			c-0.73,10.56-1.28,21.14-1.85,30.87c-3.18,2.94-6.31,5.14-8.49,8.06c-2.15,2.87-3.33,6.45-4.93,9.72
			c0.19,0.12,0.38,0.25,0.57,0.37c1.84-1.57,3.62-3.22,5.55-4.68c1.91-1.45,3.97-2.7,6.59-4.47c-0.33,5.32-0.62,9.88-0.88,14.45
			c-0.57,9.79-1.16,19.58-1.61,29.37c-0.04,0.84,0.7,2.06,1.44,2.54c8.96,5.79,18.02,11.39,28.29,14.69
			c1.3,0.42,2.54,1.23,3.61,2.11c1.54,1.26,1.93,3.09,1.3,4.92c-0.61,1.76-2,2.73-3.93,2.87c-9.62,0.74-19.22,1.86-28.85,2.2
			c-27.53,0.98-55.06,2.1-82.6,2.31c-23.93,0.18-47.88-0.55-71.8-1.38c-16.46-0.57-32.88-1.97-49.32-3.1
			c-4.55-0.31-6.46-3.87-4.43-8.07c1.47-3.03,3.17-5.95,4.84-8.88c2.04-3.57,3.45-7.3,4.03-11.44c0.28-1.96,1.23-4.25,2.65-5.55
			c3.88-3.55,5.5-8.08,6.77-12.89C40.79,430.91,41.42,428.92,42,426.92z M148.69,321.97c-17.76,4.12-35.29,3.82-52.9-0.19
			c-0.86,2.68-1.68,5.24-2.58,8.03c19.81,6.21,39.18,6.1,58.86-0.01C150.85,326.96,149.8,324.53,148.69,321.97z M62.59,420.7
			c3.44-0.45,6.37-0.81,9.29-1.23c4.46-0.64,7.59-2.68,8.01-7.6c0.05-0.61,0.34-1.2,0.53-1.8c1.68-5.27,3.36-10.55,5.16-16.19
			c-5.16-1.36-10.18-2.69-15.3-4.05c-0.63,2.13-1.2,3.82-1.62,5.55C66.66,403.57,64.72,411.78,62.59,420.7z M186.49,355.63
			c3.48,0.45,6.2,0.74,8.91,1.15c6.86,1.06,13.49,2.88,19.46,6.55c3.7,2.27,4.56,4.51,3.74,8.73c-0.12,0.61-0.19,1.23-0.28,1.85
			c-0.07-0.17-0.14-0.33-0.2-0.5c3.08-2.83,6.17-5.66,9.61-8.82c-3.46-2.97-6.66-6.27-10.38-8.79c-5.76-3.91-11.85-7.34-17.88-10.83
			c-0.96-0.55-2.98-0.88-3.49-0.35C192.76,348.01,189.84,351.67,186.49,355.63z M108.64,306.49c-0.39,1.94-0.77,3.84-1.19,5.93
			c3.36,0.54,6.37,1.03,9.58,1.55c0.19-2.37,0.35-4.35,0.51-6.46C114.49,307.16,111.72,306.85,108.64,306.49z M130.93,313.99
			c3.13-0.48,6.09-0.93,9.12-1.39c-0.42-2.22-0.76-4.03-1.13-6c-2.96,0.33-5.73,0.64-8.55,0.95
			C130.56,309.73,130.73,311.73,130.93,313.99z"/>
		<path d="M227.98,257.61c-0.78,0.64-1.47,1.52-2.37,1.88c-4,1.58-8.06,3.01-12.11,4.47c-1.46,0.53-2.2,1.21-1.45,2.94
			c0.61,1.41,0.85,2.97,1.41,5.04c5.06-1.8,9.94-3.54,14.65-5.22c2.05,3.83,4.17,7.8,6.41,11.98c-7.24,5.99-15.6,10.11-25.53,10.14
			c-2.19,0.01-4.61-0.51-6.54-1.52c-8.93-4.63-17.33-10.13-25.11-16.53c-1.97-1.62-3.23-3.28-3.17-6.29
			c0.12-6.43-2.11-12.31-6.16-17.4c-10.04-12.59-31.48-9.6-37.69,5.22c-0.29,0.69-0.99,1.35-1.66,1.71
			c-3.65,1.98-7.28,4.04-11.06,5.73c-4.19,1.87-6.95,4.37-5.43,9.75c-9.32,0.98-18.1,2.74-25.02,10.03
			c9.23,0.43,17.68-1.96,25.98-4.36c1.64,3.95,3.2,7.68,4.84,11.61c-8.54,6.38-17.83,11.35-28.65,12.92
			c-3.17,0.46-6.39,0.59-9.6,0.8c-2.55,0.17-4.23-1-4.72-3.55c-1.25-6.52-2.8-13.02-3.58-19.6c-1.04-8.73-0.12-17.35,3.01-25.69
			c0.42-1.13-0.12-2.76-0.53-4.06c-1.8-5.62-2.16-11.27-0.23-16.87c2.97-8.64,9.28-13.93,17.91-16.13
			c6.2-1.58,12.62-2.29,18.93-3.45c1.84-0.34,3.67-0.79,5.47-1.34c7.45-2.28,13.19-10.03,13.34-17.79c0.1-4.9,0.95-9.66,3.28-14.06
			c5.02-9.48,14.2-13.75,24.67-11.4c10.94,2.46,22,12.84,22.67,25c0.08,1.38,0.01,2.77,0.01,4.48c-1.57-1.39-2.82-2.48-4.15-3.66
			c-0.67,2.44-1.23,4.53-1.83,6.61c-0.13,0.45-0.26,1.01-0.58,1.27c-3.37,2.71-1.99,6.34-1.93,9.71c0.02,0.93,0.13,1.85,0.19,2.71
			c-0.25,0.17-0.4,0.35-0.49,0.32c-3.3-1.08-5.1,0.47-6.46,3.35c-0.72,1.53-1.93,2.85-3.05,4.15c-1.85,2.16-4.21,2.6-6.8,1.57
			c-1.45-0.58-2.83-1.35-4.23-2.03c-3.2-1.57-3.21-1.58-5.46,1.08c-0.4,0.48-0.77,0.99-1.35,1.72c4.57,2.42,8.56,5.84,14.07,5.79
			c0.31,0,0.68,0.09,0.93-0.03c3.55-1.79,6.54,0.13,9.47,1.61c2.64,1.33,5.16,2.96,7.58,4.67c3.44,2.42,6.74,5.03,10.2,7.63
			c0.04-7.8-7.94-15.16-19.54-18.22c1.84-3.37,1.95-3.47,5.5-2.43c10.44,3.04,17.03,9.85,19.62,20.42c0.35,1.44,0.9,2.1,2.43,2.58
			c7.67,2.42,13.38,7.31,17.39,14.63c5.25-0.91,10.61-1.83,15.96-2.75C227.59,257.03,227.78,257.32,227.98,257.61z M177.36,247.24
			c0.65,4.74,0.39,4.15,4,4.63c4.24,0.56,8.52,1.29,12.6,2.56c4.64,1.44,8.16,4.7,11.07,9.25c0.58-6.52-1.44-11.21-6.52-14.38
			C191.85,245.14,184.65,246.47,177.36,247.24z M103.2,217.45c12.79,6,24.88,1.19,28.94-13.54c-0.53-0.32-1.07-0.63-1.59-0.96
			c-0.51-0.32-1.01-0.65-1.48-0.96C123.66,212.55,113.77,215.45,103.2,217.45z M95.55,266.65c8.21,0.44,8.93-0.27,8.72-8.18
			c-0.01-0.23,0-0.47-0.02-0.7c-0.42-6.39-4.2-11.99-9.27-13.62C96.97,251.56,98.42,258.97,95.55,266.65z M81.24,226.11
			c8.97-2.87,17.25,0.82,25.87,1.04C101.84,219.62,88.92,214.22,81.24,226.11z M80.05,275.32c3.29-3.16,5.24-6.52,3.66-11.03
			c-0.17-0.5-0.05-1.09-0.15-1.63c-0.4-2.29-0.82-4.57-1.34-7.43C77.2,261.93,77.64,268.44,80.05,275.32z"/>
		<path d="M260.15,226.32c-4.66,5.43-4.85,8.39-0.93,13.9c0.56-1.61,0.97-3.2,1.66-4.66c1.76-3.78,4.36-6.48,8.91-6.53
			c2.65-0.03,4.69,1.27,6.33,3.13c3.95,4.5,6.53,9.81,8.03,15.53c1.66,6.33-1.59,12.14-8.23,15.41c-3.83,1.89-7.85,2.49-12.1,1.47
			c-0.91-0.22-2.16,0.05-2.99,0.55c-5.52,3.29-11.04,6.58-16.4,10.12c-2.21,1.46-3.62,1.09-5.11-0.82c-2.87-3.68-5.29-7.56-6-12.3
			c-0.32-2.15,0.4-3.57,2.37-4.57c2.79-1.42,5.48-3.03,8.24-4.53c1.13-0.62,1.61-1.22,1.31-2.74c-1.16-5.82,0.13-11.57,1.77-17.04
			C248.63,227.7,254.8,224.83,260.15,226.32z"/>
		<path d="M151.89,245.14c5.14,0.3,10.06,2.43,12.89,7.96c2.62,5.12,4.72,10.4,3.7,16.39c-0.73,4.31-3.25,7.2-7.01,9.1
			c-5.38,2.72-11.05,3.4-16.88,1.8c-1.72-0.47-3.11-0.28-4.7,0.46c-3.82,1.79-7.72,3.4-11.63,4.99c-1.95,0.8-3.83,0.16-4.62-1.65
			c-2.06-4.71-3.86-9.53-5.63-14.36c-0.84-2.29,0.45-3.62,2.42-4.63c4.18-2.14,8.33-4.34,12.44-6.63c0.8-0.45,1.64-1.27,1.96-2.1
			C137.39,249.67,143.86,245.1,151.89,245.14z M153.38,249.82c-3.15,0.41-5.93,1.53-7.29,4.81
			C148.52,253.03,150.95,251.42,153.38,249.82z"/>
	</g>
	<g>
		<g>
			<g>
				<path class="st0" d="M524.58,4v516.29H4V4H524.58 M528.58,0H0v524.29h528.57V0L528.58,0z"/>
			</g>
		</g>
		<g>
			<g>
				<path class="st1" d="M525.27,521.37H4V3.78h521.27V521.37z M34,491.37h461.27V33.78H34V491.37z"/>
			</g>
		</g>
	</g>
</g>
<g id="Layer_17">
</g>
</svg>
