<?xml version="1.0" encoding="utf-8"?>
<!-- Generator: Adobe Illustrator 24.0.1, SVG Export Plug-In . SVG Version: 6.00 Build 0)  -->
<svg version="1.1" xmlns="http://www.w3.org/2000/svg" xmlns:xlink="http://www.w3.org/1999/xlink" x="0px" y="0px"
	 viewBox="0 0 528.57 523.62" style="enable-background:new 0 0 528.57 523.62;" xml:space="preserve">
<style type="text/css">
	.st0{display:none;fill:#FDFEFE;}
	.st1{fill:#616060;}
	.st2{fill:#8D8989;}
	.st3{display:none;}
	.st4{display:inline;}
	.st5{fill:#636464;}
	.st6{fill:#808080;}
	.st7{fill:#B4B3B4;}
	.st8{fill:#333333;}
	.st9{fill:none;}
	.st10{fill:none;stroke:#000000;stroke-width:5;stroke-miterlimit:10;}
	.st11{fill:#050606;}
	.st12{fill:#FFFFFF;}
	.st13{opacity:0.1;}
	.st14{fill:#ECECEC;}
	.st15{fill:#1F191A;}
	.st16{fill:#E2E5E5;}
	.st17{fill:#181818;}
	.st18{fill:#F0F1F1;}
	.st19{fill:#1D191A;}
	.st20{fill:#E5E6E6;}
	.st21{fill:#070808;}
	.st22{display:inline;fill:none;stroke:#8D8989;stroke-width:30;stroke-miterlimit:10;}
	.st23{fill-rule:evenodd;clip-rule:evenodd;fill:#050606;}
	.st24{fill:none;stroke:#000000;stroke-width:4;stroke-linecap:round;stroke-linejoin:round;stroke-miterlimit:10;}
	.st25{fill:#010101;}
	.st26{fill-rule:evenodd;clip-rule:evenodd;fill:#FFFFFF;}
	.st27{fill:#161717;}
	.st28{fill-rule:evenodd;clip-rule:evenodd;fill:#161717;}
</style>
<g id="Layer_1">
	<rect x="-5570.83" y="-404.14" class="st0" width="13577.14" height="3065.14"/>
</g>
<g id="Layer_2">
</g>
<g id="Layer_3">
</g>
<g id="Layer_4">
</g>
<g id="Layer_5">
</g>
<g id="Layer_6">
</g>
<g id="Layer_7">
</g>
<g id="Layer_8">
</g>
<g id="Layer_9">
</g>
<g id="Layer_10">
</g>
<g id="Layer_11">
</g>
<g id="Layer_12">
</g>
<g id="Layer_13">
</g>
<g id="Layer_14">
</g>
<g id="Layer_15">
</g>
<g id="Layer_16">
	<g>
		<g>
			<g>
				<path d="M507.51,499.69l-152.13-0.19l0.04-2.54c0.09-5.69,0.71-11.4,1.84-16.96c1.09-5.32,2.64-10.53,4.64-15.58
					c-0.16-1.83-0.38-4.27-0.62-7.14c-1.73-20.55-3.89-46.13-4.31-69.99c-0.41-23.29-0.74-41.68,3.38-65.51
					c2.66-15.38,6.75-30.6,12.15-45.28c-1.13-1.89-3.06-4.33-5.71-4.8c-0.46-0.08-1.4-0.25-5.79,1.53
					c-4.02,1.63-8.03,3.72-13.11,6.37c-1.16,0.6-2.38,1.24-3.66,1.9c-2.54,1.31-5.17,2.67-8.57,2.17c-2.43-0.36-4.68-1.57-6.67-3.58
					l-0.18-0.18l-8.88-13.66l-5.62-2.25l-2.76-6.68c-2.95-1.14-5.68-2.85-7.98-4.99c-2.12-1.97-3.86-4.29-5.19-6.88l-1.05-2.06
					l1.97-1.21c0.95-0.58,2.29-1.64,3.24-3.37c0.38-0.7,0.67-1.44,0.85-2.21L286,219.98l1.26-12.94h-14.87l6.91-4.58
					c3.32-2.2,6.29-4.79,8.83-7.69c2.28-2.61,3.78-4.98,4.67-6.39c0.65-1.03,1.27-2.08,1.86-3.15c-4.31-0.07-8.15-1.8-10.48-4.89
					c-1.32-1.76-2.11-3.95-2.29-6.34l-0.2-2.65l22.54-0.26c2.86-2.1,5.82-4.14,8.81-6.07c7.56-4.88,15.38-9.92,24.19-13.05
					c14.46-5.13,31.89-5.38,41.96-3.45l0.25,0.05c1.96,0.38,6.56,1.28,12.33,0.19c2.54-0.48,5.02-1.3,7.4-2.43l2.78-1.33l0.73,2.99
					c0.4,1.64,0.39,3.23-0.02,4.73c-0.78,2.8-2.68,4.31-4.7,5.9c-0.26,0.2-0.53,0.42-0.8,0.64c-1.54,1.24-3.04,2.6-4.49,4.07
					c4.38,4.98,8.01,10.51,10.81,16.48c4.58,9.77,6.85,20.75,6.57,31.73l-0.2,7.75l-4.37-6.41c-0.69-1-1.3-1.88-1.85-2.65
					c0.83,6.23,0.49,14.63-1.01,25.46c2.07,2.89,4.07,5.87,5.96,8.88c1.44,2.29,2.84,4.65,4.18,7.01c3.66-2.42,7.49-3.87,11.47-4.33
					c6.42-0.75,16.12,2.06,43.36,27.44c6.29,5.85,15.77,15.56,34.66,34.89l0.1,0.1c4.37,4.48,7.47,7.68,9.78,10.06
					c4.43,4.58,5.92,6.12,8.03,7.99c0.64,0.56,1.97,1.92,4.91,4.9c4.02,4.08,5.67,5.85,5.97,8.66c0.34,3.23-1.41,5.73-2.07,6.66
					c-2.2,3.13-3.9,7.13-6.05,12.18c-4.74,11.15-11.9,28-32.06,54.9c-5.83,7.78-12.06,15.48-18.55,22.89
					c13.62,12.06,23.64,26.31,29.82,42.39c2.03,5.27,3.63,10.78,4.78,16.36L507.51,499.69z M360.5,494.51l140.84,0.17
					c-1.02-4.28-2.32-8.49-3.88-12.56c-6.16-16.04-16.36-30.18-30.31-42.04l-1.94-1.65l1.69-1.91c6.99-7.9,13.71-16.13,19.96-24.47
					c19.79-26.41,26.81-42.93,31.46-53.85c2.26-5.33,4.05-9.53,6.52-13.04c0.48-0.68,1.38-1.96,1.23-3.32
					c-0.1-0.98-0.91-1.99-4.56-5.69c-2.68-2.72-4.15-4.21-4.66-4.66c-2.25-2-3.78-3.57-8.3-8.25c-2.31-2.38-5.4-5.58-9.76-10.05
					l-0.1-0.1c-18.84-19.28-28.29-28.96-34.49-34.73c-29.31-27.3-36.62-26.45-39.38-26.13c-6.24,0.73-12.2,4.6-17.7,11.51
					l-4.08-2.88l4.83-7.76c-1.13-1.97-2.31-3.93-3.51-5.85c-2.01-3.2-4.15-6.37-6.36-9.43l-0.59-0.82l0.14-1
					c1.89-13.22,2.03-22.89,0.42-28.76l-0.04-0.16c-0.58-2.1-1.47-5.28,0.93-6.54c1.7-0.9,3.22-0.33,5.92,2.9
					c-0.71-7.49-2.68-14.81-5.83-21.51c-2.9-6.2-6.78-11.89-11.51-16.92l-1.59-1.69l1.57-1.71c2.09-2.29,4.32-4.39,6.61-6.24
					c0.29-0.23,0.57-0.45,0.84-0.67c1.18-0.93,1.96-1.57,2.45-2.23c-1.51,0.51-3.05,0.91-4.6,1.2c-6.72,1.27-12.16,0.2-14.21-0.2
					l-0.23-0.05c-9.73-1.87-26.37-1.36-39.34,3.25c-8.27,2.94-15.5,7.6-23.16,12.54c-3.13,2.02-6.22,4.16-9.19,6.36l-0.65,0.48
					l-18.37,0.21c0.18,0.38,0.39,0.73,0.64,1.06c1.93,2.56,6.01,3.54,10.15,2.43l5.1-1.36l-2.18,4.81
					c-1.22,2.69-2.64,5.33-4.23,7.84c-0.91,1.43-2.6,4.1-5.13,7c-1.22,1.4-2.53,2.73-3.92,3.99h4.79l-1.55,16l17.5,16.69l-0.13,1.22
					c-0.2,1.86-0.75,3.62-1.64,5.24c-0.78,1.43-1.81,2.71-3.04,3.78c0.88,1.35,1.91,2.58,3.09,3.68c2.05,1.91,4.56,3.4,7.25,4.3
					l1.08,0.36l2.81,6.8l5.14,2.05l9.46,14.55c1.17,1.13,2.4,1.79,3.68,1.98c1.72,0.26,3.15-0.43,5.54-1.66
					c1.28-0.66,2.49-1.29,3.65-1.9c5.2-2.71,9.3-4.85,13.54-6.57c4.79-1.94,6.76-2.14,8.55-1.82c3.88,0.69,7.35,3.66,9.79,8.36
					l0.51,0.99l-0.39,1.04c-5.5,14.72-9.64,30.01-12.31,45.47c-4.04,23.37-3.72,41.55-3.31,64.57c0.41,23.09,2.46,47.86,4.16,68.05
					c0.81-1.53,1.66-3.05,2.56-4.54l4.39,2.38L366.27,467c-1.76,4.55-3.13,9.23-4.1,14C361.26,485.44,360.7,489.97,360.5,494.51z"/>
			</g>
		</g>
		<g>
			<g>
				<path d="M375.78,247.06c-0.21,0-0.43-0.02-0.65-0.06c-2.39-0.41-3.01-2.48-3.94-5.61c-0.43-1.45-1.03-3.44-1.94-6
					c-1.99-5.6-2.92-6.54-3.17-6.7c0.01,0.02-0.29,0.06-0.87,0.52l-3.24-3.8c2.46-2.25,6.64-7.05,7.08-13.92
					c0.39-6.05-2.06-13.91-5.69-14.6c-2.9-0.56-6.9,3.76-8.73,6.61c-5.1,7.96-2.01,18.14-0.42,22.22c0.21,0.49,0.42,0.98,0.62,1.48
					l-4.58,1.99c-0.21-0.45-0.46-1.04-0.73-1.73c-1.26-2.97-2.58-5.93-3.92-8.83c-2.45-5.28-5.09-10.53-7.87-15.68l-0.16,17.66
					l-4.42-5.83c-5.33-7.02-11.42-13.46-18.1-19.16c-5.12-4.36-10.65-8.33-16.43-11.8l2.57-4.29c6.02,3.61,11.77,7.74,17.11,12.28
					c5.17,4.41,10,9.24,14.42,14.43l0.2-21.82l4.58,7.85c3.38,5.8,6.59,11.77,9.58,17.81c0.43-3.11,1.45-6.29,3.37-9.29
					c1.09-1.71,6.88-10.15,13.87-8.82c7.42,1.42,10.2,12.67,9.74,19.83c-0.35,5.44-2.52,9.79-4.83,12.96
					c1.8,1.43,3.11,4.33,4.75,8.93c0.96,2.68,1.57,4.75,2.02,6.25c0.12,0.41,0.24,0.82,0.36,1.19c0.77-1.01,1.72-2.68,2.34-4.53
					c0.63-1.88,0.75-3.5,0.84-4.8c0.13-1.78,0.29-4.01,2.47-4.86c2.02-0.79,2.88-0.09,8.47,4.46l0.46,0.37
					c2.79,2.27,3.27,2.65,4.02,3c1.48,0.68,3.21,0.91,5.11,0.7l0.55,4.97c-2.82,0.31-5.42-0.07-7.74-1.12
					c-1.36-0.62-2.08-1.21-5.11-3.67l-0.46-0.37c-1-0.81-2.01-1.64-2.85-2.3c-0.12,1.4-0.33,3.17-1.03,5.23
					C383.3,238.61,380.38,247.06,375.78,247.06z"/>
			</g>
		</g>
		<g>
			<g>
				<polygon points="365.71,222.14 360.72,221.81 361.11,215.8 356.32,214.75 356.29,204.32 361.29,204.3 361.31,210.72 
					366.39,211.83 				"/>
			</g>
		</g>
		<g>
			<g>
				<path d="M303.56,235.97c-0.02-1.88-0.21-3.75-0.58-5.58c-0.76-3.84-1.94-5.86-3.29-8.2c-0.91-1.57-1.85-3.19-2.69-5.39
					c-3.37-8.84-1.4-17.46-0.22-22.61c0.88-3.84,2.23-7.58,4.01-11.11l4.46,2.25c-1.6,3.17-2.81,6.53-3.6,9.98
					c-1.12,4.9-2.81,12.3,0.02,19.72c0.7,1.83,1.5,3.2,2.34,4.66c1.45,2.5,2.95,5.08,3.87,9.73c0.42,2.13,0.65,4.32,0.68,6.51
					L303.56,235.97z"/>
			</g>
		</g>
		<g>
			<g>
				<path d="M302.83,221.27c-0.62,0-1.25-0.03-1.9-0.1l0.5-4.98c2.54,0.25,4.6-0.17,6.14-1.25c1.42-1.01,2.94-4.71,4.52-11.01
					c0.87-3.46,1.58-7.02,2.1-10.58l4.95,0.73c-0.55,3.73-1.29,7.45-2.2,11.06c-2.61,10.4-4.71,12.61-6.48,13.86
					C308.36,220.52,305.8,221.27,302.83,221.27z"/>
			</g>
		</g>
		<g>
			<g>
				<path d="M313.92,230.34c-0.58,0-1.14-0.18-1.6-0.52l0,0c-0.6-0.44-1.26-1.3-1.03-2.85c0.62-4.08,0.63-4.16,0.79-4.56
					c1.18-2.96,4.12-5.58,6.12-6.17c1.39-0.41,2.35,0.07,2.8,0.39c2.31,1.65,0.99,5.22-0.53,7.92c-1.36,2.44-4.02,5.32-5.92,5.73
					C314.33,230.32,314.12,230.34,313.92,230.34z"/>
			</g>
		</g>
		<g>
			<g>
				<path d="M339.52,274.95c-0.94,0-1.89-0.14-2.87-0.48c-2.04-0.71-3-1.85-4.59-3.75c-0.36-0.42-0.76-0.91-1.24-1.46
					c-2.53-2.93-4.33-4.62-5.65-5.85c-1.97-1.85-3.28-3.07-3.55-5.65v0c-0.36-3.39,1.29-6.81,4.91-10.17c4.41-4.08,11-5.6,16.4-3.76
					c3.65,1.24,6.02,4.28,10.31,9.79c3.21,4.13,5.15,6.62,4.72,9.69c-0.68,4.9-5.91,7.23-10.97,9.47
					C344.6,273.85,342.12,274.95,339.52,274.95z M326.6,257.22c0.07,0.65,0.19,0.83,2,2.53c1.32,1.24,3.31,3.1,6.02,6.23
					c0.5,0.58,0.92,1.08,1.29,1.52c1.43,1.71,1.71,2,2.39,2.24c1.73,0.6,3.66-0.19,6.68-1.54c3.63-1.61,7.75-3.44,8.04-5.59
					c0.14-0.98-1.56-3.16-3.71-5.92c-3.83-4.92-5.75-7.38-7.98-8.14c-3.66-1.24-8.35-0.13-11.4,2.69
					C327.54,253.48,326.41,255.48,326.6,257.22L326.6,257.22z"/>
			</g>
		</g>
		<g>
			<g>
				<path d="M327.99,262.13l-3.03-3.98c0.97-0.74,2.32-1.78,3.92-3.03c5.35-4.18,6.42-5.25,7.36-6.3c1.02-1.15,1.96-2.4,2.8-3.73
					l4.23,2.66c-0.98,1.57-2.09,3.04-3.3,4.4c-1.31,1.47-2.78,2.82-8.01,6.91C330.34,260.33,328.98,261.38,327.99,262.13z"/>
			</g>
		</g>
		<g>
			<g>
				<path d="M336.36,268.74l-4.95-0.69c0.35-2.52,0.71-5.06,1.08-7.61c0.43-2.99,0.87-5.97,1.32-8.92l4.94,0.75
					c-0.44,2.95-0.88,5.91-1.31,8.89C337.07,263.7,336.71,266.22,336.36,268.74z"/>
			</g>
		</g>
		<g>
			<g>
				<path d="M366.06,320.36l-4.36-2.45c2.54-4.5,5.28-8.87,8.16-12.98c1.68-2.4,3.07-4.24,4.29-5.87c2.26-3,3.89-5.17,5.76-8.74
					c2.1-4.02,3.11-7.16,3.84-9.45c0.17-0.55,0.33-1.05,0.49-1.5c3.27-9.55,11.09-18.61,23.24-26.94l2.83,4.12
					c-11.24,7.71-18.42,15.93-21.33,24.44c-0.15,0.43-0.3,0.89-0.46,1.41c-0.79,2.47-1.87,5.84-4.17,10.24
					c-2.06,3.94-3.89,6.36-6.2,9.43c-1.2,1.59-2.56,3.4-4.19,5.73C371.18,311.77,368.52,316,366.06,320.36z"/>
			</g>
		</g>
		<g>
			<g>
				<path d="M317.89,384.21l-1.72-4.7c2.13-0.78,4.07-1.86,5.76-3.2c5.33-4.22,6.81-10.01,8.7-17.35c0.27-1.05,0.55-2.13,0.84-3.22
					c3.15-11.72,7.9-29.43,16.83-40.83c0.22-0.28,0.46-0.59,0.72-0.91c1.85-2.3,4.37-5.45,6.2-10.38c0.7-1.89,1.02-3.29,1.32-4.63
					c0.4-1.78,0.79-3.46,1.92-5.6c2.34-4.41,6.44-7.94,12.18-10.5l2.03,4.57c-4.7,2.09-7.99,4.87-9.8,8.27
					c-0.82,1.55-1.09,2.73-1.46,4.36c-0.33,1.43-0.7,3.06-1.51,5.26c-2.11,5.69-5.04,9.35-6.99,11.77c-0.24,0.3-0.47,0.59-0.68,0.86
					c-8.3,10.6-12.89,27.72-15.94,39.04c-0.29,1.08-0.56,2.14-0.83,3.17c-2.03,7.92-3.79,14.75-10.44,20.02
					C322.93,381.91,320.52,383.25,317.89,384.21z"/>
			</g>
		</g>
		<g>
			<g>
				<path d="M321.06,459.16c-2.85,0-5.67-0.67-7.78-2.66c-2.27-2.15-2.74-4.96-2.89-5.88c-1.25-7.45-8.73-17.67-17.4-29.51
					c-3.19-4.35-6.48-8.85-9.71-13.55c-7.37-10.72-14.27-22.32-20.49-34.47l-0.92-1.79l37.81-31.15l1.47,2.59
					c4.53,8.02,8.9,16.27,12.98,24.51c5.66,11.44,10.96,23.24,15.74,35.09l-4.64,1.87c-4.74-11.73-9.98-23.41-15.58-34.74
					c-3.6-7.28-7.43-14.55-11.39-21.67l-30.09,24.79c5.88,11.31,12.35,22.11,19.24,32.13c3.19,4.64,6.46,9.11,9.63,13.43
					c9.04,12.35,16.85,23.02,18.28,31.57c0.11,0.69,0.36,2.15,1.4,3.14c2.7,2.56,9.72,0.83,13.78-0.95
					c3.26-1.43,7.53-4.24,14.5-14.21c5.26-7.51,9.67-15.8,13.11-24.62l4.66,1.82c-3.59,9.19-8.19,17.83-13.67,25.67
					c-7.68,10.98-12.69,14.21-16.59,15.92C331.11,457.1,326.05,459.16,321.06,459.16z"/>
			</g>
		</g>
		<g>
			<g>
				<path d="M468.1,344.39c-6.34,0-13.87-1.08-21.7-4.54c-16.56-7.34-24.33-20.86-26.9-26.33l4.53-2.13
					c2.33,4.96,9.38,17.23,24.4,23.89c14.71,6.52,28.29,3.72,33.44,2.22l1.4,4.8C480.33,343.15,474.9,344.39,468.1,344.39z"/>
			</g>
		</g>
		<g>
			<g>
				<path d="M466.67,440.06c-3.03-2.51-6.04-5.11-8.93-7.75c-7.42-6.77-14.49-14.08-21.02-21.75l-0.73-0.85l0.15-1.11
					c1.82-13.32,5.94-24.9,12.23-34.4c0.53-0.8,1.1-1.62,1.7-2.49c3.64-5.25,8.16-11.79,8.77-20.87c0.19-2.79,0-5.63-0.57-8.44
					l4.9-0.99c0.65,3.25,0.87,6.53,0.66,9.76c-0.7,10.45-5.87,17.92-9.65,23.38c-0.58,0.84-1.13,1.64-1.64,2.41
					c-5.7,8.61-9.5,19.1-11.29,31.21c6.19,7.2,12.87,14.07,19.85,20.44c2.83,2.58,5.77,5.13,8.74,7.59L466.67,440.06z"/>
			</g>
		</g>
		<g>
			<g>
				<path d="M439.16,410.53c-2.02,1.94-4.62,3.48-7.65,3.97c-1.5,0.24-3.09,0.18-4.48,0c-1.41-0.17-2.55-0.27-3.35,0.02
					c-0.39,0.13-0.87,0.38-1.12,0.61c-0.27,0.22-0.31,0.36-0.87,1.19c-0.27,0.39-0.67,0.83-1.11,1.17
					c-0.44,0.34-0.88,0.58-1.35,0.77c-0.23,0.1-0.46,0.2-0.7,0.28l-0.73,0.17c-0.5,0.13-0.96,0.11-1.44,0.14
					c-1.89-0.03-3.41-0.61-4.76-1.14c-1.32-0.53-2.59-1.15-3.4-1.35c-0.1-0.03-0.2-0.06-0.25-0.05c-0.04,0-0.15-0.04-0.15-0.03
					c-0.01,0.01-0.03-0.02-0.03-0.03c0.02,0.01,0.03-0.01,0.03-0.04c0.02-0.06-0.25,0.11-0.39,0.51c-0.31,0.79-0.38,1.98-0.14,2.97
					c0.06,0.25,0.14,0.48,0.23,0.7c0.12,0.2,0.23,0.42,0.37,0.62c0.31,0.39,0.7,0.77,1.19,1.09c0.97,0.62,2.2,1.06,3.48,1.28
					c2.57,0.48,5.31,0.28,7.95-0.18c2.65-0.48,5.25-1.28,7.76-2.29l0.44,2.09c-2.96,0.51-5.84,1.38-8.34,2.76
					c-2.48,1.36-4.64,3.19-5.96,5.36c-0.33,0.54-0.6,1.11-0.9,1.79c-0.3,0.68-0.63,1.44-1.01,2.2c-0.77,1.53-1.71,2.98-2.72,4.28
					c-1,1.31-2.15,2.56-2.87,3.54c-0.36,0.48-0.55,0.87-0.59,1.09c-0.02,0.11-0.03,0.2-0.03,0.32c0.01,0.12,0.04,0.29,0.1,0.47
					c0.12,0.36,0.35,0.77,0.59,1.05c0.23,0.31,0.51,0.39,0.32,0.35c-0.03-0.01-0.05,0-0.09,0c-0.05-0.01-0.1,0-0.15,0.02
					c-0.13,0.02-0.24,0.08-0.3,0.12c-0.1,0.06,0.02,0.04,0.18-0.17c0.33-0.35,0.74-0.95,1.13-1.55c1.63-2.47,3.24-5.19,4.97-7.76
					c0.85-1.3,1.71-2.59,2.67-3.88c0.48-0.65,0.98-1.3,1.6-1.96c0.63-0.68,1.4-1.21,2.12-1.64c2.99-1.78,6.42-2.14,9.52-1.72
					l0.01,0.5c-3.04,0.49-5.91,1.55-7.99,3.39c-0.53,0.47-0.95,0.93-1.3,1.46c-0.36,0.53-0.71,1.17-1.06,1.82l-2.05,4.08
					c-1.37,2.78-2.71,5.48-4.23,8.31c-0.41,0.72-0.82,1.43-1.47,2.27c-0.32,0.4-0.77,0.91-1.53,1.37c-0.39,0.24-0.87,0.42-1.38,0.52
					c-0.24,0.04-0.48,0.06-0.73,0.07c-0.23,0-0.44-0.02-0.66-0.04c-1.73-0.28-2.77-1.17-3.56-2c-0.79-0.87-1.33-1.83-1.71-2.93
					c-0.18-0.55-0.31-1.15-0.36-1.8c-0.04-0.65,0.02-1.34,0.19-1.98c0.34-1.29,0.99-2.24,1.55-2.98c1.18-1.46,2.21-2.41,3.13-3.52
					c0.93-1.09,1.74-2.2,2.45-3.39c0.35-0.6,0.68-1.23,1.05-1.95c0.37-0.71,0.81-1.5,1.34-2.25c1.08-1.51,2.36-2.7,3.76-3.74
					c1.43-0.98,2.95-1.79,4.53-2.35c3.15-1.15,6.4-1.54,9.57-1.67l10.13-0.42l-9.69,2.51c-2.7,0.7-5.42,1.32-8.18,1.75
					c-2.76,0.41-5.55,0.74-8.44,0.56c-1.44-0.09-2.93-0.3-4.4-0.95c-0.73-0.31-1.45-0.75-2.11-1.34c-0.31-0.3-0.6-0.66-0.89-1
					c-0.25-0.37-0.47-0.76-0.65-1.15c-0.69-1.59-0.97-3.26-0.6-5.13c0.21-0.91,0.62-2.03,1.76-2.9c0.3-0.19,0.62-0.37,0.94-0.51
					c0.32-0.12,0.64-0.18,0.97-0.24c0.34-0.07,0.58-0.03,0.88-0.04c0.3,0,0.54,0.03,0.77,0.08c0.98,0.15,1.69,0.43,2.41,0.69
					c0.68,0.26,1.32,0.54,1.91,0.78c1.19,0.48,2.3,0.89,3.16,0.9c0.2-0.01,0.43,0.03,0.6-0.02c0.09-0.02,0.19-0.03,0.28-0.03
					l0.26-0.09c0.18-0.04,0.35-0.13,0.46-0.2c0.11-0.07,0.19-0.12,0.33-0.29l0.66-0.85c0.31-0.38,0.73-0.77,1.16-1.05
					c0.86-0.57,1.68-0.87,2.61-1.07c0.92-0.19,1.85-0.15,2.65-0.03c0.81,0.12,1.5,0.31,2.16,0.48c1.3,0.34,2.46,0.62,3.7,0.65
					c2.47,0.09,5.06-0.68,7.55-1.82L439.16,410.53z"/>
			</g>
		</g>
		<g>
			<g>
				<path d="M408.2,449.61c-0.34,1.06-0.49,2.04-0.42,2.88c0.07,0.85,0.33,1.53,0.69,2.2c0.36,0.65,0.87,1.24,1.25,1.49
					c0.19,0.12,0.29,0.13,0.26,0.13c-0.03,0.02,0.03,0.1,0.3,0.04c0.52-0.1,1.43-0.59,2.22-1.18c0.82-0.6,1.59-1.35,2.22-2.18
					c1.27-1.68,2.14-3.63,2.68-5.68c0.52-2.06,0.99-4.04,1.65-6.03c0.31-1.01,0.62-2.07,1.08-3.17c0.45-1.1,1.12-2.26,2.01-3.26
					c1.8-1.96,4.13-3.19,6.51-3.68c2.38-0.47,4.73-0.35,6.9,0.4l0.02,0.5c-2.05,0.95-3.93,1.75-5.51,2.79
					c-1.58,1-2.88,2.19-3.85,3.44c-0.48,0.62-0.9,1.29-1.37,2.09c-0.45,0.8-0.93,1.71-1.42,2.66c-0.5,0.95-0.97,1.94-1.6,2.86
					c-0.59,0.94-1.3,1.81-2,2.67c-1.43,1.71-2.76,3.38-3.75,5.28c-0.51,0.95-0.92,1.97-1.41,3.03c-0.53,1.04-1.05,2.18-2.38,3.13
					c-0.64,0.47-1.65,0.86-2.74,0.76c-1.09-0.07-1.98-0.58-2.6-1.11c-1.27-1.1-1.87-2.41-2.18-3.75c-0.3-1.34-0.19-2.85,0.4-4.06
					c0.6-1.21,1.53-2.13,2.67-2.59L408.2,449.61z"/>
			</g>
		</g>
		<g>
			<g>
				<path d="M411.69,458.95c-0.18,0.53-0.36,1.03-0.45,1.48c-0.12,0.42-0.05,0.9,0.11,0.81c0.04-0.02,0.04-0.07,0.07-0.12
					c0.01-0.05,0.01-0.09,0.05-0.11c0-0.03,0.05-0.03,0.09-0.03l0.16,0c0.26,0.02,0.63,0.05,1.03,0.05c0.8,0,1.69-0.07,2.55-0.17
					c0.87-0.12,1.73-0.23,2.59-0.31c0.85-0.09,1.74-0.15,2.65-0.42c0.91-0.25,1.81-0.69,2.58-1.31c1.56-1.24,2.67-2.99,3.62-4.85
					c0.48-0.93,0.94-1.88,1.46-2.76c0.49-0.9,1.05-1.71,1.49-2.52c0.46-0.81,0.79-1.58,1.04-2.32c0.24-0.77,0.41-1.44,0.56-2.33
					c0.1-0.45,0.17-1.19,0.59-2.09c0.41-0.87,0.98-1.55,1.65-2.06c1.34-1.04,2.76-1.3,3.99-1.39c2.48-0.05,4.59,0.57,6.55,1.65
					l-0.06,0.5c-2.1,0.61-4.13,1-5.69,1.73c-0.76,0.35-1.35,0.79-1.53,1.13c-0.05,0.08-0.08,0.17-0.1,0.24
					c-0.04,0.07-0.03,0.13-0.03,0.17c0.02,0.06-0.03,0.34-0.08,0.91c-0.12,1.13-0.46,2.46-1.02,3.59c-0.55,1.15-1.27,2.14-2,3.01
					c-1.42,1.77-3.03,3.04-4.72,4.32c-1.69,1.28-3.2,2.68-4.61,4.27c-0.72,0.79-1.4,1.65-2.24,2.48c-0.83,0.82-1.83,1.6-2.94,2.08
					c-1.11,0.49-2.28,0.72-3.45,0.74c-1.18,0.03-2.35-0.07-3.57-0.44c-0.6-0.18-1.23-0.44-1.88-0.88c-0.16-0.12-0.32-0.23-0.49-0.39
					c-0.16-0.15-0.32-0.31-0.48-0.54c-0.3-0.39-0.55-1.04-0.51-1.59c0.09-1.13,0.68-1.61,1.12-2.03c0.49-0.39,1-0.66,1.54-0.85
					L411.69,458.95z"/>
			</g>
		</g>
		<g>
			<g>
				<path d="M426.01,457.13c1.06,0.36,2.07,0.6,2.92,0.62c0.88,0.01,1.82-0.06,2.63-0.23c0.39-0.1,0.84-0.18,1.12-0.33
					c0.16-0.05,0.31-0.11,0.45-0.2c0.14-0.07,0.29-0.14,0.43-0.25c0.55-0.38,1.15-0.89,1.89-1.51c1.48-1.24,3.41-2.69,5.14-4.06
					c0.87-0.7,1.74-1.39,2.7-2.01c0.95-0.63,2-1.25,3.18-1.65c1.17-0.41,2.39-0.62,3.47-0.73c1.08-0.13,2.05-0.16,2.94-0.31
					c1.78-0.3,3.41-0.95,5.09-1.66c1.67-0.7,3.32-1.58,4.99-2.63c1.7-1.03,3.33-2.3,5.22-3.55l0.41,0.28
					c-0.5,2.24-1.54,4.29-2.93,6.15c-1.41,1.84-3.24,3.46-5.4,4.58c-2.14,1.12-4.66,1.62-7.11,1.56c-1.22-0.02-2.38-0.16-3.4-0.4
					c-1.03-0.21-1.94-0.49-2.87-0.58c-1.83-0.21-3.87,0.62-5.19,2.14c-1.41,1.49-1.82,3.62-3.08,5.6c-0.63,0.98-1.56,1.98-2.86,2.65
					c-1.29,0.7-2.84,0.93-4.08,0.81c-1.31-0.11-2.49-0.47-3.63-1.13c-1.14-0.72-1.94-1.67-2.39-2.79L426.01,457.13z"/>
			</g>
		</g>
		<g>
			<g>
				<path d="M294.86,348.9l-4.97-0.52c0.34-3.25,0-6.28-0.99-9.03c-2.78-7.69-10.23-12.2-14.23-14.63c-1.45-0.88-2.32-1.3-3.03-1.63
					c-1.04-0.5-1.85-0.89-3.14-2.06c-5.55-5.05-6.68-12.34-7.29-16.26c-0.64-4.11-0.53-7.26-0.46-9.34
					c0.01-0.22,0.02-0.46,0.02-0.69c-1.32,1.07-3.21,3.24-4.27,5.91c-0.84,2.12-1.06,4.45-0.66,6.93c0.21,1.31,0.71,4.38,2.98,6.44
					c0.36,0.32,0.56,0.45,0.82,0.61c0.39,0.24,0.92,0.57,1.49,1.26c2.24,2.73,2.04,7.01-0.63,13.08l-4.58-2.01
					c2.53-5.77,1.67-7.51,1.34-7.9c-0.11-0.11-0.18-0.14-0.26-0.19c-0.34-0.21-0.86-0.53-1.55-1.16c-3.56-3.24-4.28-7.67-4.55-9.34
					c-0.55-3.38-0.23-6.6,0.95-9.57c1.63-4.12,5.1-8.14,8.07-9.35c1.61-0.66,2.83-0.41,3.57-0.08c2.44,1.08,2.35,3.58,2.26,6.23
					c-0.07,2.01-0.16,4.76,0.41,8.4c0.55,3.54,1.47,9.47,5.71,13.33c0.75,0.68,1.05,0.82,1.94,1.25c0.76,0.36,1.8,0.86,3.46,1.87
					c4.21,2.55,12.97,7.86,16.35,17.21C294.85,341.11,295.27,344.9,294.86,348.9z"/>
			</g>
		</g>
		<g>
			<g>
				<path d="M246.22,332.82c-6.95-0.73-12.53-1.31-16.13-1.67l-0.71-0.07c-14.16-1.44-18.93-1.93-21.63-6.53
					c-1.6-2.73-2.31-7-0.08-9.95c2.9-3.83,8.39-2.79,15.98-1.34c3.74,0.71,7.99,1.52,12.94,2.04c6.49,0.67,13.09,0.71,19.6,0.12
					l0.46,4.98c-6.84,0.63-13.76,0.59-20.57-0.12c-5.16-0.54-9.71-1.4-13.36-2.1c-5.38-1.02-10.03-1.91-11.06-0.56
					c-0.72,0.96-0.37,3.09,0.4,4.4c1.36,2.31,5.09,2.79,17.83,4.09l0.71,0.07c3.61,0.37,9.19,0.94,16.15,1.67L246.22,332.82z"/>
			</g>
		</g>
		<g>
			<g>
				<path d="M244.25,355.2l-10.83-11.67l-0.11-0.78c-0.29-2.12-0.28-5.37,1.4-8.79c1.05-2.14,2.63-4.04,4.56-5.48l2.99,4.01
					c-0.91,0.68-2.17,1.86-3.06,3.67c-0.97,1.98-1.08,3.89-1.01,5.17l7.61,8.2l11.77-3.52l0.31-8.4c-1.07-0.06-2.38,0.05-3.77,0.59
					c-2.85,1.13-4.23,3.41-4.69,4.34l-4.48-2.22c0.72-1.45,2.87-5.01,7.33-6.78c3.77-1.49,7.17-0.92,8.86-0.44l1.89,0.53
					l-0.59,16.13L244.25,355.2z"/>
			</g>
		</g>
		<g>
			<g>
				<polygon points="242.47,360.31 236.77,348.08 241.3,345.97 245.6,355.17 257.79,354.67 263.31,347.05 263.51,344.92 
					258.47,338.94 262.29,335.72 268.68,343.3 268.16,348.88 260.41,359.56 				"/>
			</g>
		</g>
		<g>
			<g>
				<polygon points="252.46,370.68 243.09,359.29 246.95,356.11 253.72,364.35 265.02,358.35 265.41,350.84 264.24,349.97 
					267.23,345.96 270.54,348.44 269.86,361.44 				"/>
			</g>
		</g>
		<g>
			<g>
				<path d="M266.85,370.43c-1.25-0.95-2.49-1.94-3.69-2.93c-0.92-0.76-1.8-1.51-2.66-2.26l3.29-3.76c0.82,0.72,1.67,1.44,2.54,2.16
					c1.15,0.95,2.35,1.9,3.54,2.81L266.85,370.43z"/>
			</g>
		</g>
		<g>
			<g>
				<path d="M177.02,353.89c4.07,5.64,7.09,12.04,9.2,18.75c1.01,3.32,2,6.63,2.64,10.19c0.65,3.54,0.78,7.32,0.26,10.97l-0.22,1.36
					l-0.25,1.3c-0.18,0.88-0.37,1.77-0.61,2.66c-0.48,1.77-1.1,3.53-1.89,5.22c-1.59,3.37-3.87,6.46-6.72,8.84
					c-2.82,2.41-6.11,4.1-9.49,5.23c-1.71,0.53-3.42,0.97-5.16,1.23c-1.72,0.3-3.5,0.34-5.22,0.43c6.58-2.12,12.8-5.08,17.18-9.76
					c2.19-2.3,3.88-4.99,5.07-7.9c1.21-2.9,1.87-6.05,2.36-9.32c0.47-3.15,0.42-6.32,0.01-9.56c-0.4-3.23-1.13-6.58-1.76-9.94
					C181.15,366.98,179.22,360.47,177.02,353.89z"/>
			</g>
		</g>
		<g>
			<g>
				<path d="M197.66,410.87l-3.98-0.38c0.94-9.98,0.47-19.68-1.4-28.82c-0.99-4.8-2.14-8.49-3.37-12.41
					c-1.52-4.85-3.09-9.87-4.41-17.3c-1.16-6.56-1.81-13.26-1.93-19.9l-16.25-12.2l2.4-3.2l17.83,13.39l0.01,0.99
					c0.07,6.75,0.7,13.56,1.88,20.24c1.27,7.18,2.81,12.07,4.29,16.8c1.2,3.83,2.45,7.8,3.47,12.8
					C198.15,390.39,198.64,400.49,197.66,410.87z"/>
			</g>
		</g>
		<g>
			<g>
				<path d="M181.23,453.05c-3.29,0-6.43-0.91-8.6-3.04c-2.18-2.14-3.69-5.68-2.19-8.01c0.22-0.34,0.48-0.63,0.77-0.86
					c-0.68-0.57-1.24-1.27-1.56-2.15c-0.76-2.06,0-4.72,1.63-6.39c-0.74-1-1.22-2.1-1.27-3.3c-0.13-2.93,2.31-4.99,2.8-5.37
					c0.72-0.56,1.54-0.99,2.46-1.27c-0.79-1.16-1.55-2.81-1.37-4.75c0.29-3.17,2.92-5.73,7.82-7.6c0.92-0.35,9.19-3.32,15.2,1.26
					c6.55,4.99,5.34,14.91,4.54,21.47c-0.32,2.6-0.88,4.89-1.66,6.8c-0.71,1.75-2.89,7.07-8.22,10.33
					C188.66,451.95,184.85,453.05,181.23,453.05z M173.79,444.2c-0.02,0.4,0.52,1.86,1.64,2.95c3.03,2.98,9.84,2.18,14.05-0.4
					c4.21-2.58,5.95-6.83,6.61-8.44c0.65-1.58,1.12-3.52,1.39-5.76c0.73-5.99,1.74-14.2-2.99-17.8c-4.36-3.33-11.06-0.82-11.35-0.71
					c-4.18,1.6-5.17,3.19-5.27,4.23c-0.14,1.57,1.49,3.08,1.51,3.09c0.51,0.47,1.11,0.79,1.69,1.03c0.88,0.13,1.8,0.33,2.76,0.59
					l0.09,0.02c0.4,0.06,0.93,0.23,1.35,0.79l0.53,0.7l-0.3,1.71l-0.75,0.48c-0.56,0.36-1.09,0.35-1.53,0.27l0,0
					c-1.13-0.12-2.17-0.34-3.11-0.66c-2.66-0.34-4.09,0.19-4.86,0.79c-0.42,0.33-1.3,1.27-1.26,2.04c0.03,0.56,0.44,1.18,1.08,1.79
					c4.16-0.19,8.88,3.57,9.79,4.5c1.11,1.14,0.95,2.12,0.62,2.75c-0.51,0.96-1.47,1.29-2.87,0.98c-1.18-0.26-5.22-1.58-8.41-3.81
					c-0.63,0.59-1.01,1.72-0.8,2.28c0.39,1.06,3.38,1.74,4.51,1.99c1.2,0.27,3.2,0.72,2.88,2.72c-0.31,1.96-2.32,1.82-3.53,1.74
					C176.54,444.01,174.43,443.87,173.79,444.2z"/>
			</g>
		</g>
		<g>
			<g>
				<path d="M169.9,440.31c-1.27-1.43-4.18-5.39-3.85-11.09c0.32-5.45,3.42-8.98,4.74-10.24l2.76,2.89
					c-0.98,0.93-3.28,3.54-3.51,7.58c-0.25,4.34,2.12,7.39,2.85,8.22L169.9,440.31z"/>
			</g>
		</g>
		<g>
			<g>
				<path d="M34.63,500.46l-0.1-1.92c-0.49-9.83,0.38-19.67,2.56-29.24c2.5-10.94,6.68-21.39,12.43-31.07l3.44,2.04
					c-5.54,9.32-9.56,19.38-11.96,29.91c-1.96,8.59-2.81,17.41-2.54,26.23l124.92-1.39l2.35-64.7l4,0.15l-2.49,68.51L34.63,500.46z"
					/>
			</g>
		</g>
		<g>
			<g>
				<path d="M117.79,452.2l-1.83-0.07c-5.84-0.22-11.73-0.88-17.5-1.94c-9.07-1.67-14.21-3.71-18.35-5.34
					c-4.4-1.74-7.87-3.11-14.4-3.48c-3.02-0.17-5.59-0.06-7.86,0.04c-5.1,0.22-9.12,0.39-13.53-2.8c-4.23-3.06-6.47-7.63-7.55-9.82
					c-1.35-2.74-3.58-8.35-3.31-15.07c0.29-7.45,3.53-12.87,5.89-16.83l0.37-0.61c3.19-5.37,3.8-7.06,4.82-9.86
					c1.32-3.63,3.13-8.61,11.14-23.99c7.94-15.24,12.31-23.63,18.21-30.29c5.05-5.7,10.87-10.76,17.31-15.05l2.22,3.33
					c-6.15,4.09-11.71,8.93-16.53,14.37c-5.35,6.04-9.28,13.4-17.66,29.49c-7.89,15.15-9.65,19.99-10.93,23.51
					c-1.06,2.92-1.76,4.85-5.14,10.54l-0.37,0.62c-2.26,3.79-5.08,8.5-5.33,14.94c-0.23,5.84,1.72,10.74,2.9,13.15
					c1.01,2.05,2.89,5.87,6.31,8.35c3.28,2.37,6.19,2.25,11.01,2.05c2.36-0.1,5.04-0.21,8.25-0.03c7.17,0.4,11.1,1.95,15.64,3.75
					c4.18,1.65,8.92,3.53,17.61,5.13c4.99,0.92,10.06,1.52,15.11,1.8l5.56-43.13c-2.57-1.21-5.21-2.35-7.88-3.38
					c-6.02-2.32-9.04-3.49-12.46-3.95c-3.78-0.51-8.27,0.14-18.08,1.67c-2.78,0.43-5.57,0.91-8.31,1.42l-0.74-3.93
					c2.78-0.52,5.61-1.01,8.43-1.45c9.49-1.48,14.72-2.29,19.23-1.68c3.88,0.52,7.05,1.75,13.37,4.18c3.22,1.24,6.41,2.63,9.48,4.13
					l1.29,0.63L117.79,452.2z"/>
			</g>
		</g>
		<g>
			<g>
				<path d="M93.24,397.09l-2.99-2.66c4.66-5.24,9.06-10.82,13.06-16.58c4.48-6.46,8.57-13.29,12.15-20.3l3.56,1.82
					c-3.66,7.17-7.84,14.16-12.42,20.77C102.5,386.03,98.01,391.73,93.24,397.09z"/>
			</g>
		</g>
		<g>
			<g>
				<path d="M123.15,410.29l-2.58-3.05c2.69-2.28,5.41-4.65,8.07-7.04l1.62-1.47c2.92-2.65,3.71-3.36,5.46-3.72
					c3.03-0.61,5.09,0.75,7.09,2.07c1.73,1.15,3.52,2.33,6.45,2.83c2.38,0.41,4.33,0.15,5.75-0.04c1.52-0.2,3.61-0.47,4.37,1.44
					c0.24,0.6,0.37,1.6-0.41,2.94c-1.29,2.21-4.69,4.83-8.47,5.34c-2.04,0.28-3.79-0.09-5.33-0.42c-1.99-0.42-3.19-0.63-4.58,0.06
					c-0.47,0.23-0.91,0.54-1.3,0.91l-2.75-2.9c0.69-0.65,1.46-1.19,2.29-1.6c2.7-1.33,5.08-0.82,7.18-0.38
					c1.34,0.28,2.61,0.55,3.96,0.37c1.46-0.2,2.77-0.87,3.76-1.59c-1.41,0.12-3.14,0.15-5.15-0.19c-3.76-0.64-6.1-2.19-7.99-3.44
					c-1.86-1.23-2.73-1.76-4.09-1.49c-0.62,0.13-0.92,0.36-3.57,2.76l-1.63,1.48C128.62,405.59,125.87,407.99,123.15,410.29z"/>
			</g>
		</g>
		<g>
			<g>
				<path d="M136.08,442.19c-0.63,0-1.36-0.01-2.23-0.04c-5.38-0.16-7.82-0.24-9.29-0.59l-0.11-0.03c-0.77-0.19-2.57-0.62-4.77-0.3
					c-0.47,0.07-0.94,0.17-1.4,0.3l-1.1-3.85c0.63-0.18,1.27-0.32,1.91-0.41c2.98-0.44,5.4,0.15,6.31,0.37l0.11,0.03
					c1.06,0.26,3.84,0.34,8.46,0.48c3.64,0.11,4.56-0.04,5.82-0.26c1.14-0.19,2.55-0.43,5.99-0.55c0.57-0.02,1.49-0.05,2.03-0.55
					c0.22-0.2,0.3-0.39,0.56-1.15c0.11-0.3,0.22-0.63,0.37-0.99c0.57-1.42,1.07-2.07,1.55-2.69c0.35-0.45,0.71-0.92,1.24-1.9
					c1.13-2.1,2.01-3.77,1.83-5.69c-0.04-0.48-0.14-0.79-0.25-1.15c-0.2-0.66-0.45-1.49-0.16-2.72c0.37-1.6,1.29-2.42,2.03-3.07
					c0.4-0.35,0.74-0.65,1.05-1.11c0.71-1.02,1.47-3.1,0.67-4.68c-0.67-1.32-2.46-2.17-4.46-2.11l-0.11-4c0.1,0,0.2,0,0.3,0
					c3.44,0,6.5,1.67,7.84,4.3c1.5,2.96,0.61,6.54-0.95,8.77c-0.59,0.85-1.2,1.39-1.68,1.82c-0.59,0.52-0.71,0.65-0.79,0.99
					c-0.04,0.19-0.04,0.19,0.09,0.66c0.13,0.44,0.32,1.05,0.4,1.93c0.29,3.12-1.02,5.57-2.29,7.94c-0.68,1.27-1.19,1.93-1.6,2.46
					c-0.4,0.52-0.64,0.83-1,1.73c-0.12,0.3-0.22,0.58-0.31,0.83c-0.32,0.92-0.66,1.88-1.63,2.77c-1.63,1.5-3.7,1.57-4.58,1.6
					c-3.19,0.11-4.41,0.32-5.48,0.5C139.32,442.03,138.38,442.19,136.08,442.19z"/>
			</g>
		</g>
		<g>
			<g>
				<path d="M120.7,341.79l-11.1-4.48c-3.02-1.22-13.13-6.07-16.53-17.38c-0.56-1.86-0.89-3.79-1-5.75
					c-0.96,0.68-2.05,1.31-3.27,1.83c-10.34,4.43-20.15-2.99-20.57-3.31l-10.46-8.06l12.68,3.68c2.18,0.63,6.43,1.39,10.34-0.65
					c5.11-2.67,7.92-9.1,7.31-16.05c-1.97,1.45-4.35,2.72-7.06,3.16c-3.96,0.64-8.15-0.54-12.46-3.52l-12.4-8.56l14.5,4.1
					c1.85,0.52,4.68,0.95,7.66,0.02c3.01-0.94,7.14-3.61,9.75-11c1.48-4.2,1.23-7.78,1.08-9.91l-0.02-0.33
					c-0.89-13.13,2.24-31.96,11.23-44.43c6.11-8.48,13.89-12.47,17.63-14.39c17.92-9.2,37.25-6.94,49.36-1.75
					c4.87,2.09,12.79,6.44,18.47,9.84c1.27,0.76,2.39,1.45,3.42,2.08c3.79,2.32,6.08,3.73,9.58,4.87c4.79,1.56,9.98,2.01,15.42,1.33
					l7.13-0.89l-5.04,5.13c-2.26,2.3-6.13,5.29-11.68,6.43c-0.75,0.16-1.51,0.27-2.27,0.35c0.8,1.19,1.48,2.45,2.03,3.77
					c4.1,9.74-0.14,19.16-2.16,22.75c-1.89,3.39-4.56,6.44-7.76,8.89c1.14,9.35,0.41,18.45-2.19,27.08
					c-2.31,7.67-4.7,15.6-12.25,20.61c-5.69,3.78-11.42,3.82-21.81,3.89c-11.53,0.07-20.15-2.38-24.29-3.85
					c-2.1-0.75-4.17-1.6-6.19-2.55c1.37,2.57,3.04,4.67,5.01,6.27c0.55,0.45,1.07,0.81,1.52,1.13c1.41,1,3.16,2.24,2.7,4.43
					c-0.16,0.75-0.67,1.81-2.2,2.59c-3.47,1.76-11.39,1.76-17.65-1.07c-3.65-1.64-6.37-4.03-8.37-6.41
					c-0.21,1.06-0.31,2.26-0.19,3.56c0.36,4.19,2.72,7.01,3.72,8.03L120.7,341.79z M100.62,294.11l-3.06,13.81
					c-0.79,3.59-0.69,7.24,0.31,10.58c1.23,4.1,3.63,7.18,6.1,9.42c-0.16-0.72-0.27-1.47-0.34-2.27c-0.42-4.89,1.3-8.71,2.36-10.55
					l2.18-3.79l2.16,3.81c1.52,2.69,4.3,6.33,8.89,8.4c3.97,1.79,8.25,2.01,10.91,1.73c-0.16-0.12-0.32-0.25-0.48-0.38
					c-4.17-3.38-7.22-8.39-9.08-14.89l-1.75-6.13l5.45,3.31c3.59,2.18,7.42,4,11.38,5.4c3.83,1.36,11.88,3.62,22.58,3.56
					c10.04-0.06,14.63-0.09,19.08-3.05c6.05-4.02,8.08-10.76,10.23-17.89c2.53-8.38,3.14-17.27,1.83-26.42l-0.22-1.53l1.27-0.88
					c3.13-2.16,5.72-4.97,7.49-8.13c1.65-2.96,5.15-10.67,1.91-18.38c-1.03-2.45-2.62-4.64-4.73-6.51l-6.55-5.8l8.63,1.47
					c2.18,0.37,4.37,0.34,6.49-0.1c0.78-0.16,1.52-0.37,2.22-0.62c-2.95-0.26-5.82-0.83-8.58-1.73c-4.07-1.32-6.68-2.93-10.65-5.36
					c-1.01-0.62-2.12-1.3-3.37-2.05c-5.54-3.31-13.22-7.54-17.88-9.53c-13.91-5.96-31.61-5.33-45.1,1.6
					c-3.39,1.74-10.45,5.37-15.85,12.87c-8.26,11.46-11.12,28.94-10.29,41.17l0.02,0.32c0.17,2.36,0.47,6.75-1.35,11.92
					c-0.66,1.88-1.41,3.51-2.23,4.95c0.9-0.68,2.09-1.1,3.33,0.01c1.74,1.56,0.74,3.23-1.24,5.81c2,9.97-1.91,19.86-9.55,23.85
					c-0.2,0.1-0.39,0.2-0.59,0.29c1.41-0.07,2.86-0.36,4.3-0.98c3.11-1.33,5.07-3.66,6.17-5.38L100.62,294.11z"/>
			</g>
		</g>
		<g>
			<g>
				<path d="M121.44,311.65c-4.25-6.27-7.53-12.33-9.76-18l-0.12-0.3c-0.77-1.98-1.74-4.45-3.89-5.47
					c-0.82-0.39-1.37-0.37-2.29-0.33c-1.07,0.05-2.41,0.1-4.11-0.55c-5.49-2.11-9.1-9.25-7.9-15.59
					c0.98-5.13,5.01-10.66,10.58-10.82c1.23-0.04,2.36,0.19,3.37,0.56l0.13-1.26c0.09-2.55,0.39-4.77,0.7-6.48l4.95,0.71l-0.66,6.14
					c-0.14,4.6,0.47,10.39,3.2,16.15c-0.06-0.51-0.12-1.02-0.17-1.54c-1.58-15.24-0.12-23.69,4.36-25.12
					c1.83-0.58,3.65,0.05,5.37,1.29c-0.01-0.24-0.01-0.49-0.02-0.73c-0.08-4.42,0.46-8.85,1.6-13.16l1.81-6.84l5.41,12.1
					c0.7-6.79,3.08-12.35,5.21-16.14l4.53-8.03l0.15,9.22c0.04,2.61,0.54,5.13,1.49,7.47c0.17,0.41,4.21,10.16,14.3,12.62
					c2.26,0.55,4.58,0.69,6.94,0.42c-0.36-0.94-0.68-1.88-0.96-2.84c-1.16-3.91-1.72-7.98-1.66-12.11l0.36-23.74l4.6,23.29
					c0.67,3.38,1.97,6.24,3.88,8.5c3.8,4.5,10.04,6.86,12.54,7.66c1.11,0.36,2.1,0.61,2.98,0.83c2.48,0.63,4.82,1.22,5.99,3.72
					c0.82,1.76,0.5,3.34,0.2,4.88c-0.21,1.02-0.44,2.18-0.5,3.81c-0.06,1.65,0.08,3.32,0.42,4.95l-4.9,1
					c-0.41-2.02-0.59-4.09-0.51-6.14c0.07-2.03,0.37-3.53,0.59-4.62c0.22-1.09,0.29-1.52,0.18-1.77c-0.16-0.34-1.13-0.6-2.69-0.99
					c-0.9-0.23-2.02-0.51-3.28-0.92c-2.98-0.96-8.09-2.99-12.29-6.63c0.26,0.65,0.54,1.29,0.85,1.92l1.31,2.75l-2.95,0.75
					c-4.16,1.05-8.28,1.1-12.27,0.12c-12.34-3.01-17.23-14.32-17.75-15.6c-0.11-0.28-0.22-0.56-0.32-0.85
					c-1.12,3.55-1.85,7.76-1.56,12.43c0.19,3.01,0.79,6.01,1.78,8.91l-4.65,1.83l-5.72-12.79c-0.09,1.29-0.13,2.58-0.11,3.88
					c0.04,2.49,0.31,4.99,0.79,7.45l2.06,10.56l-6.51-8.57c-3.16-4.16-4.75-4.95-5.18-5.09c-1.3,1.39-2,9.16-0.9,19.78
					c0.43,4.14,1.21,8.27,2.32,12.27l2.51,9.09l-6.68-6.65c-2.54-2.53-4.7-5.37-6.4-8.45c-2.51-4.54-3.8-9.14-4.37-13.36l-0.09-0.08
					c-0.83-0.75-2.17-1.64-3.62-1.59c-2.96,0.08-5.28,3.98-5.8,6.76c-0.81,4.28,1.9,8.89,4.78,9.99c0.74,0.28,1.28,0.26,2.11,0.22
					c1.14-0.05,2.7-0.11,4.65,0.81c3.94,1.88,5.48,5.81,6.4,8.17l0.11,0.29c2.1,5.33,5.21,11.06,9.25,17.03L121.44,311.65z
					 M121.44,254.47L121.44,254.47z"/>
			</g>
		</g>
		<g>
			<g>
				<path d="M154.43,315.79c-2.32,0-3.79-0.25-5.28-1.45c-3.81-3.07-2.92-8.99-2.81-9.66c1-5.97,6.52-10.95,15.53-14.02
					c8.43-2.88,14.06-2.6,16.76,0.82c2.71,3.44,1.03,8.34-0.2,11.92c-1.05,3.08-3.01,8.81-8.44,11.48c-1.22,0.6-1.77,0.61-5.36,0.68
					c-1.63,0.03-3.99,0.07-7.5,0.18l-0.29,0.01C155.94,315.77,155.14,315.79,154.43,315.79z M171.6,293.67
					c-1.69,0-4.26,0.4-8.12,1.72c-7.19,2.45-11.53,6.05-12.21,10.12c-0.2,1.19-0.21,3.95,1.02,4.93c0.46,0.37,1.25,0.39,4.41,0.29
					l0.29-0.01c3.54-0.1,5.92-0.15,7.56-0.18c1.68-0.03,2.89-0.05,3.16-0.12c0.01-0.01,0.05-0.03,0.09-0.05
					c3.57-1.75,4.98-5.88,5.91-8.61c0.81-2.35,2.02-5.91,1-7.21C174.52,294.35,173.8,293.67,171.6,293.67z"/>
			</g>
		</g>
		<g>
			<g>
				<path d="M170.32,302.08c-0.93,0-1.85-0.06-2.77-0.18c-5.36-0.7-9.23-3.21-11.53-5.19l3.26-3.79c1.79,1.54,4.78,3.48,8.91,4.02
					c2.43,0.32,4.97,0.08,7.34-0.68l1.53,4.76C174.89,301.73,172.59,302.08,170.32,302.08z"/>
			</g>
		</g>
		<g>
			<g>
				<path d="M169.57,310.85c-0.8-1.67-1.6-3.35-2.4-5.03c-0.78-1.64-1.55-3.27-2.31-4.9l4.53-2.13c0.76,1.62,1.53,3.25,2.3,4.88
					c0.8,1.68,1.6,3.35,2.39,5.01L169.57,310.85z"/>
			</g>
		</g>
		<g>
			<g>
				<polygon points="180.85,288.17 177.73,284.26 183.04,280.02 180.71,274.79 185.28,272.76 189.17,281.52 				"/>
			</g>
		</g>
		<g>
			<g>
				<path d="M153.94,265.83c1.71-1.22,3.1-1.55,4.36-1.6c1.26-0.03,2.32,0.34,3.2,0.97c0.87,0.63,1.56,1.53,1.93,2.73
					c0.35,1.21,0.47,2.64-0.17,4.65c-2,0.65-3.3,0.78-4.42,0.74c-1.1-0.05-1.93-0.34-2.62-0.84c-0.68-0.51-1.22-1.2-1.61-2.24
					C154.24,269.19,153.95,267.92,153.94,265.83z"/>
			</g>
		</g>
		<g>
			<g>
				<path d="M192.46,268.24c0.41,2.06,0.14,3.47-0.33,4.63c-0.49,1.16-1.27,1.98-2.2,2.52c-0.94,0.54-2.04,0.79-3.28,0.63
					c-1.25-0.18-2.6-0.66-4.17-2.06c0.23-2.09,0.65-3.33,1.14-4.33c0.5-0.99,1.1-1.62,1.84-2.05c0.74-0.41,1.6-0.62,2.7-0.54
					C189.27,267.13,190.55,267.39,192.46,268.24z"/>
			</g>
		</g>
		<g>
			<g>
				<path d="M152.84,253.63l5.16,0.88c1.42,0.23,2.59,0.39,3.76,0.55l3.74,0.5c1.41,0.17,2.98,0.3,5.18,0.48
					c-0.47,2.18-1.94,3.79-3.74,4.83c-1.82,1.04-4.04,1.43-6.15,1.12c-2.12-0.31-4.15-1.28-5.58-2.77
					C153.77,257.76,152.77,255.86,152.84,253.63z"/>
			</g>
		</g>
		<g>
			<g>
				<path d="M180.31,254.91c1.73-0.06,2.81,0.01,3.73,0.11c0.91,0.11,1.55,0.3,2.13,0.59c0.57,0.3,1.06,0.72,1.62,1.4
					c0.58,0.68,1.23,1.51,2.25,2.93c-0.89,1.5-2.15,2.18-3.44,2.45c-1.29,0.25-2.61,0-3.72-0.59c-1.11-0.59-2.02-1.53-2.53-2.71
					C179.86,257.91,179.68,256.53,180.31,254.91z"/>
			</g>
		</g>
		<g>
			<g>
				<path d="M148.78,354.78c-5.29,0-11.13-2.17-14.99-5.56c-1.64-1.44-2.47-2.67-4.1-5.13c-1.46-2.19-3.67-5.5-7.9-11.12
					c-0.71-0.95-1.3-1.72-1.69-2.22l3.97-3.04c0.39,0.51,0.99,1.3,1.72,2.26c4.32,5.74,6.58,9.12,8.07,11.35
					c1.52,2.28,2.09,3.14,3.24,4.14c4.96,4.35,13.99,5.7,17.25,2.58c2.85-2.72,2.19-9.55,1.7-11.95c-0.22-1.06-0.5-1.88-0.79-2.74
					c-0.46-1.36-0.99-2.9-1.22-5.32c-0.32-3.2,0-6.47,0.94-9.73l4.8,1.39c-0.76,2.64-1.02,5.28-0.77,7.85
					c0.18,1.84,0.55,2.93,0.98,4.2c0.31,0.93,0.67,1.98,0.95,3.34c0.24,1.16,2.17,11.5-3.15,16.57
					C155.52,353.83,152.27,354.78,148.78,354.78z"/>
			</g>
		</g>
		<g>
			<g>
				<path d="M191.31,325.3c-1.91,0-3.99-0.45-5.64-1.71c-0.12-0.09-0.23-0.18-0.34-0.27c-0.11,0.4-0.24,0.89-0.37,1.49l-4.89-1.04
					c0.67-3.15,1.74-6.41,4.58-6.63c1.76-0.14,2.79,1.09,3.35,1.75c0.23,0.28,0.45,0.54,0.7,0.73c0.79,0.6,2.32,0.84,3.79,0.59
					c1.05-0.18,1.68-0.54,1.91-0.74c-0.15-0.53-0.93-1.69-1.52-2.56c-0.9-1.33-2.01-2.99-2.94-5.01
					c-2.66-5.76-2.96-12.71-0.91-20.64l4.84,1.25c-1.75,6.79-1.55,12.61,0.61,17.29c0.76,1.66,1.71,3.07,2.55,4.31
					c1.61,2.39,3.27,4.86,1.89,7.56c-0.83,1.62-2.59,2.8-4.97,3.34C193.15,325.19,192.25,325.3,191.31,325.3z"/>
			</g>
		</g>
	</g>
	<g>
		<g>
			<g>
				<path class="st1" d="M524.57,4.03v516.29H4V4.03H524.57 M528.57,0.03H0v524.29h528.57V0.03L528.57,0.03z"/>
			</g>
		</g>
		<g>
			<g>
				<path class="st2" d="M525.27,521.4H4V3.81h521.27V521.4z M34,491.4h461.27V33.81H34V491.4z"/>
			</g>
		</g>
	</g>
</g>
<g id="Layer_17">
</g>
<g id="Layer_18">
</g>
<g id="Layer_19">
</g>
<g id="Layer_20">
</g>
<g id="Layer_21">
</g>
<g id="Layer_22">
</g>
<g id="Layer_23">
</g>
<g id="Layer_24">
</g>
<g id="Layer_25">
</g>
<g id="Layer_26">
</g>
<g id="Layer_27">
</g>
<g id="Layer_28">
</g>
<g id="Layer_29">
</g>
<g id="Layer_30">
</g>
<g id="Layer_31">
</g>
<g id="Layer_32">
</g>
<g id="Layer_33">
</g>
<g id="Layer_34">
</g>
<g id="Layer_35">
</g>
<g id="Layer_36">
</g>
<g id="Layer_37">
</g>
<g id="Layer_38">
</g>
<g id="Layer_39">
</g>
<g id="Layer_40">
</g>
<g id="Layer_41">
</g>
<g id="Layer_42">
</g>
</svg>
