<svg xmlns="http://www.w3.org/2000/svg" viewBox="0 0 528.571 513.879"><defs><style>.cls-1{fill:none;}.cls-2{fill:#616060;}.cls-3{fill:#8d8989;}</style></defs><title>icon</title><g id="Layer_18" data-name="Layer 18"><path d="M384.483,284.147c-.579-.364-1.485-.911-2.625-1.512-7.789-4.108-10.043-3.011-16.483-5.347-3.346-1.214-6.444-3.1-9.753-4.442a4.175,4.175,0,0,0-3.152.41c-5.623,3.186-11.283,4.024-16.771.035a25.544,25.544,0,0,1-4.886-5.483c-4.97-6.581-9.834-13.241-14.761-19.854a10.731,10.731,0,0,1-1.389-10.636c3.444-9.737,16.6-17.267,26.771-15.428A10.6,10.6,0,0,1,348,225.915c5.7,7.04,11.511,14,17.014,21.2,1.582,2.067,2.267,4.82,3.132,6.743,3.554.8,7.017,1.391,10.369,2.369,5.217,1.523,10.409,3.171,15.5,5.074,1.276.478,2.085,2.157,3.165,3.228a5.618,5.618,0,0,0,2.015,1.583,73.452,73.452,0,0,0,7.438,1.777c3.279.6,6.5,1.147,9.051,3.643.656.642,1.975.552,2.795,1.092,1.272.839,2.971,1.722,3.409,2.967a3.851,3.851,0,0,0,3.125,2.8q26.307,6.741,52.594,13.563,19.128,4.938,38.263,9.847c.621.159,1.514.371,1.92.07,2.255-1.668,3.926-.349,5.787.782a20.909,20.909,0,0,0,5.16,2.458c6.065,1.664,12.223,2.993,18.264,4.735a5.7,5.7,0,0,1,3.3,3c1.177,3.071-.963,5.564-4.2,4.955-3.748-.705-7.431-1.773-11.112-2.8-1.225-.34-1.831-.115-2.355,1.075-4.245,9.64-11.572,16.528-20.319,21.935-14.688,9.079-30.6,15.552-46.9,21.069-11.262,3.814-22.669,7.2-34,10.82-.275.088-1.144,1.547-2.038,1.358-.925-.2-1.368-1.921-1.6-3.568l63.777-23.855a51.326,51.326,0,0,0,17.721-7.6A52.234,52.234,0,0,0,527.4,314.623l-15.385-5.842a129.576,129.576,0,0,1-12.171,5.988,122.374,122.374,0,0,1-19.425,6.573c-15.282,3.421-29.609-1.465-39.873-4.966-12.647-4.314-21.576-9.935-39.434-21.178C394.129,290.805,388.449,286.929,384.483,284.147Zm15.787-6.053c.608-1.36,1.345-2.811-.843-3.414q-4.517-1.243-9.087-2.286a6.2,6.2,0,0,0-1.964.2l-.064.682c.752.288,1.486.637,2.257.852,2.6.727,5.254,1.308,7.814,2.162.769.257,1.3,1.225,1.943,1.865l-12.493-3.88-.287.9c3.854,2.409,8.677,2.157,12.832,4.325Zm-107.408-6.878.47-.446m98.794,10.556q-.217.4-.437.795c.62.533,1.2,1.113,1.864,1.593,5.633,4.1,11.111,8.438,16.953,12.216,16.505,10.673,34,18.924,53.928,20.808,14.017,1.326,27.664-.092,40.763-5.494a38.346,38.346,0,0,0,4.212-2.445c-1.127-.419-1.648-.668-2.2-.809-8.958-2.3-17.927-4.566-26.879-6.893q-28.342-7.365-56.682-14.747c-1.054-.273-2.574-.5-3.295.035a5.622,5.622,0,0,1-5.3.711,5.851,5.851,0,0,0-2.214-.4c-4.428.671-8.552-.335-12.585-2.037C397.563,283.518,394.839,282.435,392.126,281.326Zm-67.184-52.715c1.422,2.08,2.55,3.869,3.815,5.555,5,6.66,9.994,13.321,15.089,19.906,1.27,1.641,1,2.63-.4,4.032-2.266,2.282-4.2,4.885-6.37,7.272-1.259,1.388-.75,2.36.387,3.439,2.781,2.64,8.236,3.124,12.475.964-2.562-2.393-3.96-5.188-3.07-9.077l2.357,6.325c-.873-4.754.88-8.493,3.983-11.7,3.4-3.509,7.5-3.338,11.8-1.394-.546-5.39-4.131-7.994-8.672-6.417-2.629.914-5.047,2.419-7.6,3.563a8.412,8.412,0,0,1-2.237.341l-.141-.8c3.371-3.443,7.692-5.157,12.239-6.5-5.133-.238-9.279,2-13.259,5.247l-1.767-2.676,13.376-5.592a13.469,13.469,0,0,0-1.39-.117c-4.243.131-7.832,1.976-11.3,4.221-.468.3-1.293.058-1.952.066.254-.552.362-1.392.788-1.611,2.613-1.34,5.273-2.6,7.973-3.757a21.086,21.086,0,0,1,3.392-.846c-.436-.607-.778-.719-1.057-.632-3.778,1.186-7.54,2.425-11.326,3.585a14.273,14.273,0,0,1-2.509.311l-.178-.969c2.031-1.012,4.02-2.126,6.106-3.007,2.026-.855,4.151-1.472,6.233-2.194l-.305-.8a31.52,31.52,0,0,0-13.019,5.195l-1.776-1.973,13.317-5.428c-5.513-.379-9.757,2.484-14.453,3.644,3.094-3.943,7.9-4.291,12.023-6.1-4.28.224-8.458.684-11.963,3.585-.439.364-1.268.258-1.916.37.193-.633.193-1.6.611-1.84a55.7,55.7,0,0,1,6.338-3.139,37.491,37.491,0,0,1,4.664-1.284c-4.416-.8-8.138.936-11.854,2.775a7.8,7.8,0,0,1-2.322.36,6.8,6.8,0,0,1,1.2-2.18,14.46,14.46,0,0,1,3.5-2.068c1.8-.765,3.69-1.325,5.542-1.972C335.367,223.488,330.339,225.67,324.942,228.611Zm56.256,33.6-.117.4c-2.9-.931-5.816-1.833-8.707-2.8-5.257-1.759-6.349-1.343-8.491,3.78a13.155,13.155,0,0,0-1.018,4.67,3.017,3.017,0,0,0,1.533,2.3c3.865,1.539,7.817,2.863,11.752,4.22,1.867.644,3.766,1.2,6.078,1.925-.626-6.5.917-11.376,7.9-13.552-6.29,4.515-8.833,11.689-5.328,15-.687-6.885,1.233-12.119,8.471-14.164-5.141-3.132-22.117-7.527-24.567-6.34Zm165.367,52.718,1.213-.97c-.683-.593-1.278-1.528-2.062-1.73q-33.056-8.532-66.145-16.935c-18.844-4.827-37.668-9.729-56.53-14.481-1.4-.353-3.751-2.4-4.325-.174-.606,2.349,2.489,1.865,3.986,2.263q24.38,6.489,48.817,12.764,29.115,7.524,58.25,14.972C535.2,312.03,540.626,313.41,546.565,314.927Zm-54.107,2.124a4.351,4.351,0,0,0-.749.006,96.524,96.524,0,0,1-49.292-3.483,156.714,156.714,0,0,1-43.1-23.384c-2.934-2.2-5.89-4.379-8.836-6.567a2.126,2.126,0,0,0,.818,1.6,162.168,162.168,0,0,0,36.881,24c13.971,6.663,28.694,10.576,44.268,10.695C479.251,319.97,486.016,319.48,492.458,317.051ZM363.651,258.222c-3.475-.332-6.222,2.271-7.126,7.018-.64,3.357.36,5.2,2.869,5.883C360.805,266.846,362.21,262.587,363.651,258.222Zm-39.832-28.143c-4.6,3.249-7.724,9.823-6.5,13.747,2.387-2.831,4.72-5.676,7.14-8.445C326.62,232.907,326.6,232.42,323.819,230.079Zm39.546,40.889-.8,1.077a12.088,12.088,0,0,0,2.779,2.2c3.633,1.421,7.349,2.628,11.037,3.908,2.416.838,4.837,1.661,7.256,2.492l.384-.975C377.77,275.319,370,274.448,363.365,270.968Zm47.846.956c-2.846-1.942-4.807-.076-6.506,3.365-1.69,3.423-.73,7.438,1.9,8.695C405.858,279.137,407.778,275.322,411.211,271.924Zm-49.317-16.587c-3.469-1.353-7.309.443-9.512,4.447-1.764,3.206-1.467,6.186.781,7.836C354.5,259.742,355.724,258.015,361.894,255.337Zm39.415,15.718c-3.949.031-7.56-3.617-11.614-.5a77.318,77.318,0,0,0,9.169,3.031C400.574,274.065,401.439,273.409,401.309,271.055Zm10.01,13.667c-1.8-4.642-.087-8.185,2.784-11.553-3.051-.093-5.541,2.445-6.227,5.848C407.292,281.915,408.08,283.381,411.319,284.722Zm103.345,49.4c6.223-2.529,16.8-15.634,15.933-19.771-2.279,3.445-4.369,7.178-7.021,10.456C520.825,328.205,517.529,331.165,514.664,334.12Zm-98.118-49.187c-.754-3.727-.481-6.869,2.516-9.718-3.311.293-5.087,1.85-5.471,4.364C413.264,281.716,414,283.491,416.546,284.933ZM328,256.366l7.339-6.008-.388-.4-2.619,1.988-.2-.25L337,246.547C333.38,247.359,327.853,254.66,328,256.366Zm7.689,11.656c.987,5.1,9.637,6.908,14.554,2.816C344.545,272.467,339.587,272.755,335.685,268.022Zm-4.323-5.431.9.769,8.821-10.572-1.045-.843Zm72.156,8.236q.14-.6.28-1.21c-4.067-.619-7.759-2.925-12.037-2.6l-.19.839Zm-70.871-29.884-.66-.549a34.833,34.833,0,0,0-8.971,10.717l.519.433Zm-3.2,18.383.808.7,8.965-9.952-.993-.848ZM334.883,244l-1.084-.92-9.257,10.8.761.652Zm69.787,27.605c-2.927,1.423-4.02,7.785-1.954,10.254C403.339,278.592,403.987,275.19,404.67,271.607Zm-76-35.373c-2.518-.083-8.95,7.215-8.707,9.692Zm14.507,19.287c-2.781.608-8.242,6.767-8.941,9.981Zm-12.674-16.934-.922-.816q-3.974,4.392-7.948,8.785l.736.673Z"/><path d="M494.149,373.741c-.184,0-.375-.007-.559-.007l-16.092-.265c.007-.048.007-.089.013-.137-1.369-.027-2.746-.061-4.116-.088a1.8,1.8,0,0,1-.416.3,1.52,1.52,0,0,1-.191.088,1.85,1.85,0,0,1-.443.13q10.542.153,21.082.286c.17-.068.34-.143.511-.211.075-.034.156-.061.232-.1Zm-23.569-.088c0-.014-.007-.034-.007-.048s-.007-.054-.013-.082c-.014-.115-.035-.225-.048-.34l-9.747-.2.1.45H447.631q11.7.163,23.4.32C470.887,373.721,470.737,373.694,470.58,373.653Zm-23.624-.28a.471.471,0,0,1-.02-.075c-1-.006-1.983-.013-2.972-.027a.249.249,0,0,1,.007.068.087.087,0,0,1,.007.041l2.992.041A.12.12,0,0,1,446.956,373.373Zm-9.671-.163v.075c.892.02,1.792.027,2.692.041.007-.007,0-.021,0-.028v-.061C439.077,373.23,438.177,373.217,437.285,373.21Zm-5.753-.055v.055c.832.013,1.67.027,2.508.034v-.061C433.2,373.176,432.364,373.162,431.532,373.155Zm-11.839-.109c1.363.021,2.733.041,4.1.055v-.014Zm-115.542-43.71a56.371,56.371,0,0,0,1.056,6.3A6.76,6.76,0,0,0,304.151,329.336Z"/><path d="M519.088,374.171q-5.388-.1-10.775-.191h-.3q-6.911-.123-13.842-.239c-.076.035-.157.062-.232.1-.171.068-.341.143-.511.211q13,.184,26.016.355C519.279,374.26,519.191,374.171,519.088,374.171Zm-196.132-10.2a2.263,2.263,0,0,0-.2-1.118,2.3,2.3,0,0,0-1.022-1.023c-.028-.027-.061-.047-.1-.081.443,1.67.893,3.333,1.336,5C323,366.36,322.874,365.753,322.956,363.968Zm95.115,9.058v.007c.266,0,.538.007.811.007C418.609,373.033,418.337,373.033,418.071,373.026Zm-5.432-.075c-.934-.007-1.861-.021-2.788-.034v.041l2.794.02A.045.045,0,0,0,412.639,372.951Zm-5.794-.075q-6.1-.082-12.2-.171c-.014.034-.021.075-.034.11q6.123.051,12.254.115C406.859,372.91,406.852,372.9,406.845,372.876Zm-19.275-.266c-.988-.007-1.97-.02-2.952-.041.014.048.028.1.042.15.988.014,1.976.02,2.971.027C387.611,372.7,387.59,372.658,387.57,372.61Zm-27.093-.368v.252l2.454.021v-.239C362.113,372.269,361.3,372.255,360.477,372.242Z"/><path d="M519.443,374.4q-13-.174-26.016-.355-10.542-.134-21.082-.286a3.713,3.713,0,0,1-1.315-.014q-11.706-.163-23.4-.32h-.661v-.007l-2.992-.041v.007h-3.994a.182.182,0,0,0-.007-.061c-.9-.014-1.8-.021-2.692-.041v.02h-3.238a.185.185,0,0,0-.007-.061c-.838-.007-1.676-.021-2.508-.034v.007a.225.225,0,0,0-.007.068H423.83c-.013-.055-.02-.1-.027-.15a.327.327,0,0,1-.007-.034c-1.37-.014-2.74-.034-4.1-.055-.273,0-.545,0-.811-.006s-.545-.007-.811-.007v.047c0,.1-.007.191-.014.293h-5.344c-.027-.115-.04-.231-.061-.347,0-.014-.007-.034-.007-.048l-2.794-.02V373c-.007.108-.021.224-.027.34h-2.8c-.047-.116-.095-.238-.15-.368a.1.1,0,0,0-.014-.041q-6.134-.061-12.254-.115c.013-.035.02-.076.034-.11-1.322-.013-2.645-.034-3.967-.054-.948-.007-1.888-.02-2.829-.034a.626.626,0,0,1-.027.129c0,.014-.007.021-.007.034a2,2,0,0,1-.068.219c-.034-.069-.068-.15-.1-.219,0-.013-.007-.02-.014-.034-.995-.007-1.983-.013-2.971-.027,0,.007.006.02.006.027.062.246.116.484.171.737-.593-.2-1.07-.218-1.145-.4-.048-.116-.1-.231-.143-.347,0-.007-.007-.014-.007-.021-.021-.054-.041-.1-.062-.156q-2.76-.031-5.507-.076-4.242-.05-8.485-.115c-.845-.007-1.684-.021-2.522-.034,0,.075-.007.149-.007.225v.013c-.007.1-.007.211-.014.313h-4.014v-.367l-2.454-.021v.184H349.81c-.007-.095-.013-.184-.013-.279v-.007l-.021-.293c-.872-.014-1.745-.021-2.61-.034-.716-.014-1.432-.021-2.141-.034-.892-.007-1.792-.021-2.685-.034,0,.109-.007.218-.014.327,0,.061-.006.123-.006.184a11.389,11.389,0,0,0-1.179-.191c-.621-.007-4.758-.136-15.1-.5h-2.189v-.075q-3.4-.123-7.619-.273c-13.216,2.4-26.051,4.73-38.9,7.055-.43-2.775,2-17.5,3.619-22.4,9.194-5.861,17.6-6.106,26.186.58-1.3-.116-2.283-.239-3.271-.28-3.736-.136-7.47-.347-11.206-.313a9.148,9.148,0,0,0-5.684,1.99c-1.6,1.275-1.833,2.727-.818,4.226.92,1.356,1.609,1.3,3.027-.586-.682-.116-1.077-.184-1.5-.252a1.735,1.735,0,0,1,1.234-2.72,14.924,14.924,0,0,1,4.709-.906c5.255.306,10.51.75,15.738,1.4,3.947.484,7.368,2.549,10.8,4.416a3.4,3.4,0,0,1,1.248,2.011,11.155,11.155,0,0,1,.047,2.686,5.633,5.633,0,0,1-1.615-.021c-5.16-1.8-10.381-1.574-15.608-.47-7.314,1.554-14.614,3.19-21.907,4.846a24.538,24.538,0,0,0-3.223,1.206l.081.654a9.841,9.841,0,0,0,2.011-.02c3.66-.77,7.293-1.67,10.96-2.406,5.248-1.056,10.51-2.024,15.778-2.985a11.472,11.472,0,0,1,2.154-.021c-1.772.668-3.667,1.377-5.555,2.113-.2.075-.327.341-.77.818,1.077-.116,1.827-.136,2.543-.293,2.317-.518,4.628-1.049,6.925-1.656a8.43,8.43,0,0,1,5.023.218c2.76-1,4.539-2.358,4.709-3.483a.719.719,0,0,0,.007-.123c-.443-1.669-.893-3.332-1.336-5-.2-.171-.463-.389-.756-.648v.034a45.139,45.139,0,0,1-16.835-9.862c-.382-2.311-.893-4.806-1.166-7.321a8.34,8.34,0,0,1,.457-3.223c.443-1.459,1.166-2.829,1.636-4.288.088-.265.163-.538.231-.8a56.371,56.371,0,0,1-1.056-6.3,7.312,7.312,0,0,0-.627-.688,18.337,18.337,0,0,1-1.738-2.2,9.352,9.352,0,0,1-1.854-7.456c.852-4.764,1.765-9.529,2.494-14.313.437-2.856.607-5.753,1.043-8.752a25.445,25.445,0,0,1,2.849-20.093c-.129-4.948-.279-9.692-.347-14.436a6.307,6.307,0,0,1,.6-2.194,50.224,50.224,0,0,0,2.862-12.658,112.411,112.411,0,0,0,.491-21.142c-.552-6.2-3.013-11.512-8.261-15.131-4.969-3.429-9.985-6.81-15.186-9.87-6.89-4.055-13.972-7.77-20.972-11.635-.743-.408-1.485-.838-2.229-1.26a8.392,8.392,0,0,1,3.149-.832c1.691-.17,3.395-.259,5.078-.477,6.8-.859,10.585-4.478,11.451-11.314.831-6.53,2.767-12.773,4.7-19.017a28.611,28.611,0,0,1,2.235-4.559c.709-1.343,1.541-2.617,2.195-3.981,2.972-6.12,2.992-12.623,2.406-19.2-.054-.647-.252-1.54.075-1.9.8-.886-.859-.989-.6-1.33a17.313,17.313,0,0,1,1.827-2.889c2.256-2.277,2.324-4.976,1.745-7.846-.552-2.746-1.193-5.48-1.691-8.233a6.655,6.655,0,0,1,.014-3c1.732-5.439,4.2-10.728,2.924-16.692.689-.4,1.275-.736,1.854-1.077,2.979-1.745,4.042-4.491,2.522-7.552a12.833,12.833,0,0,0-3.429-4.335c-3.789-2.992-7.756-5.766-11.716-8.533A116.028,116.028,0,0,0,277.6,57.855c-13.046-7.15-27.128-8.868-41.577-6.441-15.3,2.563-26.779,10.8-33.6,24.994-3.824,7.947-5.405,16.453-5.855,25.184a167.162,167.162,0,0,0,1.009,27.018,58.425,58.425,0,0,0,4.471,17.742,2.825,2.825,0,0,1,.2.77c-1.819,2.133-3.455,3.96-4.982,5.882a4.013,4.013,0,0,1-2.706,1.575,11.653,11.653,0,0,0-4.641,1.86c-5.106,3.681-10.061,7.566-15.1,11.335a12.335,12.335,0,0,1-2.849,1.629q-5.6,2.136-11.26,4.116c-11.376,4.022-22.778,7.975-34.134,12.051a78.227,78.227,0,0,0-14.783,6.857C105.8,196.121,100.9,200.8,97.754,207.21a57.505,57.505,0,0,0-5.589,16.876c-.225,1.507-.43,2.986-1.725,4.117-3.039,2.651-4.723,6.148-6.032,9.9a109.468,109.468,0,0,1-4.362,11.417A88.875,88.875,0,0,0,71.9,275.989a61.137,61.137,0,0,1-4.86,17.367,80.356,80.356,0,0,0-5.507,17.216c-.586,2.829-1.057,5.691-1.854,8.465-2.256,7.846-4.539,15.684-7.048,23.447A46.6,46.6,0,0,0,50,355.938a10.311,10.311,0,0,1-.7,3.729c-2.14,5.118-2,10.3-.566,15.506.818,2.944,1.895,5.814,2.781,8.745a14.161,14.161,0,0,0,7.13,8.553c9.644,5.419,19.445,10.517,29.478,15.179.6.273,1.173.6,1.854.954-.45,2.727-1.009,5.3-1.274,7.914-.369,3.571-.8,7.1-2.72,10.237a4.59,4.59,0,0,0-.4.941c-1.888,5.636-3.851,11.259-5.644,16.93-3.994,12.65-7.688,25.389-10.476,38.373-.5,2.324-.845,4.676-1.226,7.027-.035.2.177.444.306.73.586-.123,1.145-.232,1.7-.348a370.628,370.628,0,0,1,12.194-45.257Q80.6,456.6,78.37,467.97c-1.466,7.545-2.965,15.084-3.906,22.711,1.554.334,1.929-.348,2.127-1.425.633-3.517,1.315-7.02,2.011-10.523q4.416-22.136,8.846-44.262c1.166-5.835,2.372-11.656,3.511-17.49.45-2.324.763-4.669,1.206-7.409,7.252,3.422,14.279,6.734,21.3,10.047-5.7-.314-11.1-2.249-17.067-2.808-1.077,5.882-2.25,11.525-3.115,17.217-.764,5.023.538,7.361,5.343,9.037,5.2,1.813,10.517,3.374,15.875,4.663a292.018,292.018,0,0,0,34.379,6.12c3.36.395,6.734.654,10.38,1.009.941,11.995,1.867,23.828,2.8,35.728h1.99c-.892-17.68-2.576-35.156-3.707-52.632a10.939,10.939,0,0,1,1.233-.4c12.01-2.3,24.04-4.525,36.042-6.89,17.749-3.5,35.47-7.116,53.212-10.647,15.4-3.067,30.848-5.971,46.218-9.208,4.969-1.043,9.385-.048,14,1.9q4.754,38.8,9.535,77.741h2.235q-4.692-38.666-9.33-76.842c4.232.164,8.124.321,12.336.484q4.55,38.217,9.072,76.269a7.331,7.331,0,0,0,1.2.157,4.687,4.687,0,0,0,1.036-.375q-5.827-48.992-11.676-98.168h69.651c-.013.007-.027.02-.041.027,1.384,0,2.767,0,4.151.007h2.631q2.751.011,5.5.007,2.719.009,5.439.006,9.591.021,19.18.028c1.343.007,2.686.007,4.035.007,1.623,0,3.251.006,4.88.006a.174.174,0,0,1-.047-.034q4.284.021,8.554.048h.783c20.189.116,40.207.225,60.307.334-.416,4.1-.764,7.825-1.179,11.546q-1.382,12.544-2.822,25.1-2.189,19.4-4.383,38.8-1.247,11.031-2.46,22.062a2.469,2.469,0,0,0,.238.8l1.7-.116c4.151-32.689,7.587-65.384,11.192-98.128,2.454-.149,4.7-.286,6.932-.415V374.614A3.287,3.287,0,0,1,519.443,374.4Zm-206.118.075v9.194c-12.248-.116-24.264,2.154-36.908,3.558-.1-2.3-.191-4.294-.293-6.448C288.611,378.669,300.879,376.591,313.325,374.478Zm-38.836,2.678c-.512,3.436-.5,6.9-1,10.558-7.667,1.3-15.267,2.583-22.874,3.878-.627-1.315-1.274-2.651-1.983-4.123a9.776,9.776,0,0,0,6.9.5,10.226,10.226,0,0,0,2.106-.866c3.339-2.024,3.694-5.493.7-8.008a48.287,48.287,0,0,0-5.282-3.551c-1.064-.689-2.195-1.282-3.545-2.059a483.338,483.338,0,0,0,28.518-79.772c6.359-2.331,12.493-4.574,18.914-6.925-.15.941-.253,1.8-.416,2.638-1.084,5.507-1.895,11.082-3.333,16.494-2.386,8.949-5.091,17.817-7.818,26.677C280.868,347.242,276.751,361.95,274.489,377.156Zm-62.945-6.121a17.138,17.138,0,0,0,2.74,1.841q13.415,7.1,26.861,14.109c1.207.627,2.481,1.111,3.729,1.649a4.655,4.655,0,0,1,3.046,3.1,9.8,9.8,0,0,1-1.533.593q-2.628.533-5.262.961a7.907,7.907,0,0,1-4.758-.306c-9.269-4.24-18.559-8.445-27.829-12.692-1-.463-1.874-1.172-2.842-1.7a14.749,14.749,0,0,0-1.67-.661c-1.035.873-.674,1.6-.116,2.14a18.308,18.308,0,0,0,3.095,2.638c5.275,3.265,10.612,6.428,15.922,9.645a24.789,24.789,0,0,1,4.5,3.326c-.859.082-1.725.109-2.57.245-2.351.389-4.723.695-7.02,1.281a5.518,5.518,0,0,1-4.587-.77c-4.26-2.651-8.547-5.255-12.814-7.885-.722-.437-1.431-.88-2.242-1.384-.423.389-.77.709-1.111,1.029.122.341.143.654.307.791,1.417,1.2,2.8,2.467,4.321,3.517,2.7,1.874,5.487,3.6,8.779,5.752-3.292.661-5.992,1.227-8.7,1.724-2.174.4-4.464,1.275-6.509.9s-3.729-2.256-5.732-3.108a16.368,16.368,0,0,0-5.371-1.247c-6.618-.388-13.25-.579-19.875-.859-.58-.027-1.152-.15-1.984-.266a23.561,23.561,0,0,1,.232-3.039,20.611,20.611,0,0,1,3.947-8.207,5.883,5.883,0,0,1,4.539-2.494,50,50,0,0,1,5.35.061,7.966,7.966,0,0,0,5.487-1.609c4.437-3.3,8.752-6.8,13.42-9.726,4.955-3.1,10.238-5.691,15.418-8.411,2.474-1.294,4.962-.62,7.388.362,4.969,2.01,9.965,3.939,14.9,6.018a148.94,148.94,0,0,1,20.29,10.115c1.922,1.179,4.137,2.127,4.908,4.689a3.944,3.944,0,0,1-3.593,2.693,10.762,10.762,0,0,1-6.174-1.187c-3.449-1.656-6.816-3.489-10.333-4.975-3.831-1.622-7.825-2.842-11.683-4.4-4.321-1.752-8.574-3.687-12.861-5.535-.743-.32-1.493-.627-2.14-.9C210.467,369.884,210.945,370.545,211.544,371.035Zm21.634,23.209c-2.89,1.567-3.872-1.152-5.453-2.3C229.47,392.676,231.208,393.412,233.178,394.244ZM185.569,408.5c-1.111.2-2.338.45-3.564.648-5.112.831-10.2,1.867-15.343,2.419-6.7.716-13.107,2.6-19.575,4.294-3.8,1-5.487.041-6.966-3.585a18.4,18.4,0,0,1-1.274-8.043c.79,0,1.608-.04,2.419.007a19.12,19.12,0,0,0,8.684-1.622c3.128-1.315,6.257-2.645,9.44-3.83a11.049,11.049,0,0,1,3.939-.757c7.218.136,14.436.409,21.654.614a9.2,9.2,0,0,1,5.344,2.242c-1.255.095-2.516.184-3.776.279C185.126,403.472,186.142,405.953,185.569,408.5Zm-16.6-28.947c-6.237,4.062-8.561,9.754-9.093,16.665-4.825,1.868-9.576,3.933-14.483,5.494-1.9.613-4.165.1-6.707.1.334-1.561.518-2.808.879-4.008A34.228,34.228,0,0,1,152.9,379.664a6.84,6.84,0,0,1,4.764-1.472C161.284,378.587,164.9,379.058,168.966,379.555Zm-9.508-4.137c.184-1.533,1-2.072,2.3-1.786,2.617.587,5.22,1.248,8.008,1.923C166.26,377.51,164.42,377.47,159.458,375.418Zm-3.5.818c-2.842.389-5.023,2.031-7.061,3.837-6.789,6.012-11.3,13.366-12.473,22.458-.559,4.3.634,8.432,2.229,12.419.157.388.354.756.538,1.138-.123.116-.252.232-.375.348-.334-.28-.817-.5-.968-.852a51.7,51.7,0,0,1-4.021-16.017,6.61,6.61,0,0,1,.5-2.713,41.7,41.7,0,0,1,13.516-18.519,27.272,27.272,0,0,1,5.3-2.985,4.644,4.644,0,0,1,4.076.123C156.568,375.882,156.281,376.2,155.961,376.236Zm-20.515,40.3c-.716.13-1.35.245-2.093.375-1.458-3.5-1.254-7.034-1.131-11.1C133.367,409.62,134.355,412.912,135.446,416.538Zm5.616,1.745a8.938,8.938,0,0,1-6.993,3.258c-.116-.654-.232-1.35-.375-2.161C136.3,418.992,138.662,418.637,141.062,418.283Zm-2.14,6.1c1.39.116,2.78.307,4.614.511-2.651,1.684-5.125,1.35-7.566.948-.9-.143-.893-.266-1.417-1.861C136.093,423.334,137.483,424.26,138.922,424.383Zm.879-1.826c1.936-2.393,5.03-3.994,9.31-4.853.1,2.855-1.452,4.668-4.11,4.832C143.318,422.638,141.621,422.557,139.8,422.557Zm30.528-46.035a27.72,27.72,0,0,1,7.981,2.127C175.005,379.61,172.176,378.84,170.329,376.522ZM258.4,204c8.186,30.678,10.708,61.363,2.427,92.443-.082-.811-.2-1.574-.239-2.338a229.648,229.648,0,0,0-5.507-38.039c-.968-4.308-2.038-8.595-2.87-12.93a54.722,54.722,0,0,1-.872-7.824c-.17-3.483-.184-6.973-.123-10.456a46.1,46.1,0,0,1,1.772-12.023c2.393,1.766,2.556,5.562,6.264,6.319C259.4,214,258.124,209.173,258.4,204Zm-2.276-.314c.183,3.47.279,6.946.436,11.022-2.4-5.767-4.553-10.981-11.758-11.417,5.358-1.936,8.739-5.732,12.283-10.176C257.4,197,255.943,200.286,256.127,203.686Zm-4.86,5.521c-.968,5.214-1.847,9.952-2.8,15.09-2.625.362-5.61.771-8.377,1.146-2.018-5.392-3.94-10.538-5.916-15.813C238.712,204.245,247.586,204.068,251.267,209.207ZM237.649,227.4a6.549,6.549,0,0,1,.007,1.261c-.1,4.069-.464,8.158-.266,12.214.647,13.25,1.581,26.479,2.242,39.729.45,8.915.8,17.844.893,26.773.123,11.389-.047,22.778-.1,34.174-.007.573-.088,1.145-.13,1.718-9.344-47.084-19.268-94.011-31.85-140.331-.014-.041.068-.11.252-.375,3.333,5.494,6.618,10.9,10.006,16.474,4.73-2.243,8.561-5.357,12.854-8a16.946,16.946,0,0,1,1.159,1.676A53.792,53.792,0,0,1,237.649,227.4Zm2.481,21.79c-.321-6.611-1.138-13.23-.245-19.861.061-.5.129-1,.231-1.752,2.87-.252,5.712-.5,8.69-.77a10.72,10.72,0,0,1,.232,1.888c-.641,8.785,1.132,17.271,3.251,25.7a219.09,219.09,0,0,1,5.358,31.911c.5,5.071.838,10.169.933,15.268a35.658,35.658,0,0,1-.865,8.84c-3.449,14.374-7.068,28.708-10.674,43.048-.811,3.211-1.786,6.38-2.706,9.563a6.938,6.938,0,0,1-.572,1.084,105.855,105.855,0,0,1-1.036-17.285c.184-14.62.061-29.247-.055-43.874-.047-6.209-.286-12.411-.6-18.614C241.479,272.615,240.7,260.912,240.13,249.189Zm39.552,35.047c6.734-1.874,12.787-4.88,19.2-8.465-.463,3-.831,5.418-1.227,7.968-6.141,2.582-12.091,5.418-18.675,7.115C278.605,288.455,279.437,286.4,279.682,284.236Zm4.13,65.6c3.858-3.987,13.25-3.489,16.093.532C294.745,348.441,289.62,347.3,283.812,349.831Zm19.112-69.76c-1.731,3.108-2.017,6.4-1.915,9.856a106.859,106.859,0,0,1-2.113,22.036c-.361,2-.75,4.007-1.125,6.011a11.524,11.524,0,0,0,2.679,10.449c.572.627,1.05,1.343,1.615,1.97a5.047,5.047,0,0,1,.845,5.48,13.884,13.884,0,0,1-.981,2.344,9.606,9.606,0,0,0-.941,8.1A4.608,4.608,0,0,1,301,347.33c-4.716-4.532-10.7-3.381-16.46-4.048.313-1.146.559-2.113.852-3.068,2.924-9.59,6-19.132,8.731-28.769,1.636-5.794,2.7-11.751,4.09-17.619,1.547-6.5,2.371-13.189,5-19.446A6.369,6.369,0,0,1,302.924,280.071Zm1.22-64.171a19.406,19.406,0,0,1,3.449,10.51,114.25,114.25,0,0,1-1.588,27.864c.266-13.2.7-26.364-3.442-39.791A15.017,15.017,0,0,1,304.144,215.9Zm-38.318-24.489a11.458,11.458,0,0,1,1.131.491c3.108,1.758,6.243,3.462,9.3,5.3,6.843,4.131,13.638,8.343,20.468,12.487a6.662,6.662,0,0,1,2.808,3.5,55.843,55.843,0,0,1,3.551,14.845,179.413,179.413,0,0,1-.729,36.935c-.259,2.344-.58,4.689-.88,7.136-.715-.069-1.185-.109-1.274-.116-6.08,4.6-12.773,7.17-19.807,9.924,0-1.616-.041-2.774.007-3.933.341-8.581.9-17.162,1.009-25.743.136-10.974-.13-21.948-.116-32.921a6,6,0,0,0-2.727-5.4c-.347-.245-.668-.532-1.015-.777a3.1,3.1,0,0,1-1.295-3.769c.545-1.868.981-3.769,1.547-5.984-4.137-3.886-8.213-7.709-12.282-11.533C265.621,191.711,265.723,191.561,265.826,191.411Zm1.649,5.562c2.433,2.365,5.05,4.539,7.852,7.034-.723,2.494-1.466,5.078-2.3,7.961,1.336,1.227,2.7,2.6,4.192,3.824a4.089,4.089,0,0,1,1.717,3.23c.034,1.956.211,3.906.211,5.862,0,11.648.158,23.31-.108,34.958-.212,9.256-.416,18.56-2.372,27.666-1.6,7.463-3.279,14.947-5.453,22.26a521.955,521.955,0,0,1-17.776,49.674c-1.642,4-3.619,7.872-5.459,11.8a10.176,10.176,0,0,1-.777,1.166c-.873-.45-1.684-.873-2.645-1.371a18.714,18.714,0,0,1,.382-2.024c5.6-18.205,10.312-36.648,14.422-55.242,2.366-10.7,4.812-21.395,6.823-32.164a123.627,123.627,0,0,0,2.167-26.146,204.808,204.808,0,0,0-5.582-43.927c-.961-3.879-1.929-7.757-2.712-11.669-.661-3.34-.185-6.694.088-10.64C262.861,192.113,265.076,194.635,267.475,196.973Zm24.864-74.218a3.776,3.776,0,0,0-.627,3.095,40.448,40.448,0,0,1-.232,15.962,23.03,23.03,0,0,1-3.557,8.132,24.232,24.232,0,0,0-4,9.289c-1.118,5.406-2.257,10.811-3.293,16.229-.933,4.873-4.144,8.063-9.126,8.554-7.286.729-13.632-1.261-18.586-6.9a12.051,12.051,0,0,0-1.371-1.186c-1.206.831-.593,1.513-.2,2.119a16.056,16.056,0,0,0,8.56,6.5c.7.245,1.418.442,2.249.7-4.368,2.828-9.882,2.644-13.836,6.066,2.434.429,4.478-1.016,6.769-1.268-.362,4.117-6.094,9.774-11.424,11.185-2.31-2.277-4.778-4.6-7.136-7.034-7.327-7.586-14.886-14.975-21.306-23.372-2.985-3.912-5.685-8.056-8.309-12.221a13.371,13.371,0,0,1-2.106-8.39,2.44,2.44,0,0,1,.593-.272c3.449-.362,3.606-.5,3.858-3.974.082-1.09.014-2.195.014-3.435,6.134,4.805,9.617,5.044,12.125.954-.77-.832-1.459-.082-2.018.232a4.752,4.752,0,0,1-5.268-.3c-6.482-4.171-10.456-9.91-10.762-17.769a80.034,80.034,0,0,1,.381-8.649,6.461,6.461,0,0,1,.634-2.188c1.452-3.183,3.252-3.865,6.6-2.767a8.813,8.813,0,0,1,6.1,5.568c1.411,3.824,3.272,7.47,4.88,11.219a5.235,5.235,0,0,0,3.8,3.422c2.249.49,3.476-.212,3.823-2.481.464-3.027.927-6.06,1.145-9.113a14.484,14.484,0,0,1,5.726-10.926c1.812-1.418,3.51-2.971,5.3-4.41,3.039-2.447,4.164-5.391,2.869-9.242a18.235,18.235,0,0,1-1.111-7.245,20.593,20.593,0,0,1,3.871-1.132c6.769-.668,13.543-1.24,20.318-1.792,5.521-.45,10.79,1,16.106,2.147,1.779.388,3.633.429,5.828.675a33.647,33.647,0,0,1,2.733,9.248c1.022,5.515,1.929,11.049,2.876,16.57.055.32.055.647.089,1.1h-3.858c-1.527,0-3.06-.068-4.587.014a5.589,5.589,0,0,0-4.144,2.221,3.084,3.084,0,0,0-.682,3.054c1.466,5.153,2.863,10.319,4.287,15.479a15.419,15.419,0,0,1,.512,1.97c.511,3.38-1.2,5.275-4.7,5.248-4.11-3.947-8.745-4.076-9.8-.048,2.446-.368,4.9-1.745,7.258.157-.149.913-.292,1.8-.476,2.91,1.315-.334,2.392-.688,3.5-.872,5.507-.886,7.572-4.308,5.97-9.747-1.24-4.239-2.351-8.519-3.5-12.786a5.368,5.368,0,0,1-.061-.955c2.045.1,4.042.2,6.318.314a3.913,3.913,0,0,0,1.193-3.306c-1.173-1.506-2.842-1.1-4.26-1.356h7.157C294.241,119.824,293.362,121.338,292.339,122.755ZM286.3,79a10.678,10.678,0,0,1,5.678,4.71c-.273.49-.545.981-.845,1.519C289.511,83.135,287.956,81.131,286.3,79Zm8.6,18.88c-.839-3.136-1.724-6.448-2.713-10.156,1.1-.784,2.127-1.52,3.408-2.433.756.374.893,1.513.981,2.706A21.809,21.809,0,0,1,294.9,97.878Zm-94.236,35.04a150.755,150.755,0,0,1-1.527-33.834c.641-8.54,2.468-16.815,6.591-24.442A38.757,38.757,0,0,1,224.3,57.46c12.364-5.637,25.157-5.848,38.182-2.85,9.045,2.079,16.944,6.435,24.292,11.962,3.6,2.713,7.34,5.228,10.932,7.947a12.947,12.947,0,0,1,2.931,3.129c1.329,2,1.091,3.681-.423,5.037a4.376,4.376,0,0,1-5.623.061,32.7,32.7,0,0,1-2.515-2.535,10.052,10.052,0,0,0-7.674-3.469c-5.439.122-10.885.225-16.3.681a66.794,66.794,0,0,1-21.272-1.547c-1.9-.45-3.81-.893-5.732-1.247a10.082,10.082,0,0,0-2.079.048c-.027.265-.055.524-.082.783a10.256,10.256,0,0,0,1.275.62c8.54,2.918,17.258,4.445,26.336,3.524,5.33-.545,10.674-.961,15.922.784A8.851,8.851,0,0,1,288.44,86c-.627.341-1.192.641-1.772.954a2.853,2.853,0,0,1-.64-.484,13.336,13.336,0,0,0-10.4-5.616c-1.7-.129-3.4-.136-5.105-.163q-9.058-.133-18.117-.232c-.8-.014-1.6.034-2.781.068a2.427,2.427,0,0,0,2.549,1.432c4.84.177,9.686.327,14.525.531,3.476.15,6.959.307,10.421.62a5.636,5.636,0,0,1,4.465,2.072c-2.093-.429-3.987-.831-5.889-1.22-4.921-1-9.822-.45-14.722.164a41.105,41.105,0,0,1-12.957-.048,19.6,19.6,0,0,1-11.335-6.393c-.436-.484-.947-.9-1.568-1.479.1,3.64,4.574,7.613,10.381,9.488-.1.1-.177.245-.293.293-4.062,1.683-4.621,2.713-3.667,7.013.313,1.411.736,2.8,1.131,4.185a5.144,5.144,0,0,1-1.629,5.76c-1.615,1.376-3.21,2.794-4.887,4.1-4.45,3.442-7.327,7.715-7.695,13.509-.163,2.535-.593,5.064-.92,7.593-.075.579-.225,1.145-.368,1.819a2.637,2.637,0,0,1-3.04-1.758c-2.29-5.3-4.58-10.592-6.925-16-1.929-.8-3.939-1.7-6-2.467-3.373-1.241-6.372-.266-8.083,2.856a13.18,13.18,0,0,0-1.9,5.473,81.721,81.721,0,0,0,.436,11.682,13.278,13.278,0,0,0,3.545,8.057c2.882,2.951,2,6.134,1.356,9.569-1.711-.211-2.072-1.417-2.529-2.46A47.517,47.517,0,0,1,200.666,132.918Zm-2.474,22.724c1.152-1.657,2.345-3.286,3.715-5.194,1.56,9.59,7.109,16.665,12.861,23.419,6.823,8.009,14.239,15.52,21.4,23.235,1.609,1.725,3.251,3.422,4.955,5.208L219.6,216.221c-1-1.595-1.949-3.095-2.876-4.6-2.726-4.41-5.384-8.854-8.172-13.223a54.838,54.838,0,0,1-5.575-11.13c-2.188-6.161-4.342-12.33-6.707-18.423C194.389,164,195.35,159.717,198.192,155.642Zm-22.424,16.01a5.112,5.112,0,0,1,2.133-3.606c4.512-3.339,8.977-6.741,13.462-10.107.811-.607,1.615-1.309,2.876-.661-2.87,4.443-1.227,8.9.184,13.222,2,6.141,4.376,12.16,6.509,18.253,3.926,11.239,7.388,22.629,10.271,34.181,3.231,12.944,6.66,25.853,9.577,38.864,3.551,15.84,6.652,31.783,9.978,47.677,1.459,6.986,3.122,13.938,4.485,20.945,2.256,11.6,4.362,23.222,6.482,34.849a32.948,32.948,0,0,1,.266,4.1,4.118,4.118,0,0,1-4.185-2.263c-.818-1.588-1.575-3.21-2.284-4.846-10.9-25.294-20.679-51.037-30.637-76.712-9.712-25.035-19.725-49.947-29.608-74.92-.374-.94-.722-1.9-1.165-3.081,2.638-2.31,5.289-4.662,7.967-6.986,4.24-3.68,8.507-7.327,12.719-11.035a25.663,25.663,0,0,0,2.181-2.474c-1.336-.893-2.059-.054-2.713.463-2.869,2.257-5.7,4.574-8.52,6.905-1.3,1.077-2.542,2.229-3.864,3.4-3.769-2.14-7.45-4.239-11.328-6.441.327-1.132.586-2.181.927-3.21A91.587,91.587,0,0,0,175.768,171.652Zm-44.651,14.47c13.68-4.914,27.448-9.583,41.175-14.354.3-.1.606-.184,1.186-.355-1.057,7.218-3.435,13.843-5.712,20.884,3.953,2.277,7.947,4.581,12.167,7.02-2.986,2.727-5.726,5.221-8.534,7.791.736,1.874,1.411,3.606,2.092,5.33q16.777,42.6,33.568,85.2,11.156,28.227,22.472,56.394c1.459,3.626,3.183,7.15,4.771,10.721.191.43.293.893.518,1.582a8.664,8.664,0,0,1-1.206-.259c-4.812-1.929-9.658-3.79-14.429-5.821a12.5,12.5,0,0,0-10.817.306,99.717,99.717,0,0,0-23.807,15.166c-1.548,1.37-2.965,1.39-4.751.218.341-22.581,1.417-45.23,2.556-67.77-.525-.266-.743-.457-.975-.464a6.387,6.387,0,0,0-1.166.212c-1.54,22.424-2.147,44.834-2.651,67.524-1.826-.443-3.394-.749-4.921-1.206q-9.763-2.914-19.514-5.923a39.278,39.278,0,0,1-4.082-1.452,72.844,72.844,0,0,0-17.926-4.785c-2.856-.429-5.671-1.111-8.479-1.786a12.61,12.61,0,0,1-3.047-1.267c-1.949-1.063-3.346-2.5-3.448-4.962a31.541,31.541,0,0,0-.757-4.43,191.924,191.924,0,0,0,12.991-25.205c4.124-9.6,8.125-19.269,11.73-29.077,2.018-5.48,3.735-11.185,3.953-17.094a140.92,140.92,0,0,0-.327-14.79c-.457-6.788-1.049-13.57-1.854-20.325a128.887,128.887,0,0,0-8.458-33.52,30.508,30.508,0,0,0-7.109-11.076,16.557,16.557,0,0,0-10.013-4.573c-.668-.068-1.336-.184-2-.28-.041-.2-.082-.4-.123-.6C119.83,190.757,125.379,188.18,131.117,186.122ZM53.369,347.9a8.057,8.057,0,0,1,2.972-4.914c7.879-6.326,16.556-10.974,26.588-12.835a28.3,28.3,0,0,0,3.484-.763,10.625,10.625,0,0,0,2.01-1.186c-.62-1.622-1.813-1.676-2.869-1.745-4.915-.313-9.842-.538-14.757-.824-1.233-.075-2.46-.266-3.721-.409-.13-1.18-.225-2-.314-2.829-1.813.4-2.317,1.172-1.683,2.645a3.965,3.965,0,0,0,3.783,2.562c2.549.055,5.105.021,7.654.075a55.083,55.083,0,0,1,5.991.423c-6.993,1.145-16.079,4.914-26.295,12.18a3.021,3.021,0,0,1-.048-.968,252.238,252.238,0,0,0,7.947-29.8,77.1,77.1,0,0,1,4.655-14.272,78.666,78.666,0,0,0,5.692-20.829,79.323,79.323,0,0,1,6.686-21.879c1.847-4.1,3.857-8.213,5-12.528,3.789-14.34,18.491-18.764,28.313-16.712a27.638,27.638,0,0,0,3.292.218c-.614-.893-.825-1.554-1.207-1.684a17.6,17.6,0,0,0-4.171-1.049,28.725,28.725,0,0,0-16.93,3.687,7.138,7.138,0,0,1-.832.321,3.263,3.263,0,0,1-.1-.982c1.649-8.179,4.382-15.908,9.753-22.452a13.657,13.657,0,0,1,20.338-1.24,29.209,29.209,0,0,1,7.014,11.123,135.065,135.065,0,0,1,8.254,34.639q1.6,14.466,2.038,29.008c.15,5.3-1.281,10.265-2.549,15.281-2.276,9.024-6.128,17.483-9.753,26a256.218,256.218,0,0,1-14.4,29.561c-.177.293-.374.565-.668,1.008a19.784,19.784,0,0,0-9.071-8.588,14.184,14.184,0,0,0-7.382-1.676c-6.891.388-13.788.9-20.42,2.924-6.264,1.915-12.493,4.055-17.728,8.2-2.454,1.949-4.71,4.137-7.572,6.666C52.756,351.74,53.008,349.8,53.369,347.9Zm57.076,66.72a231.493,231.493,0,0,1-27.086-11.86c-7.9-3.966-15.642-8.247-23.508-12.281a10.554,10.554,0,0,1-5.821-6.694c-.838-2.931-1.833-5.827-2.719-8.751a7.452,7.452,0,0,1,.6-5.439,68.464,68.464,0,0,1,7.9-13.952,13.43,13.43,0,0,0,1.52-2.352,3.328,3.328,0,0,0,.13-2.12c-2.958,2-4.56,5-6.284,7.846-1.745,2.883-3.259,5.9-5.194,8.819a23.906,23.906,0,0,1,.286-3.129c.32-1.492.8-2.95,1.22-4.423a7.939,7.939,0,0,1,3.285-4.982,6.882,6.882,0,0,0,1.459-1.425c4.982-5.848,11.5-9.153,18.668-11.45a58.225,58.225,0,0,1,10.844-2.508c-4.1,1.567-8.546,3.012-12.765,4.948a22.177,22.177,0,0,0-11.008,10.919c-1.091,2.3-2.086,4.648-3.06,7a6.088,6.088,0,0,0-.2,1.642c.164.068.32.143.477.212a12.138,12.138,0,0,0,1.043-1.479c1.023-1.964,1.977-3.96,2.992-5.924a26.306,26.306,0,0,1,14.511-12.588c3.408-1.3,6.952-2.243,10.421-3.395,1.527-.511,3.047-1.07,4.526-1.717a12.128,12.128,0,0,1,10.6.068c.613.3,1.206.627,1.813.941a14.439,14.439,0,0,1,8.41,12.486c-.579-.354-1.022-.613-1.451-.9-10.115-6.768-21-9.364-32.975-6.113a17.273,17.273,0,0,0-8.929,5.65,88.78,88.78,0,0,0-11.328,16.924,21.207,21.207,0,0,0-.845,2.317c1.493.17,1.786-.763,2.222-1.424,1.772-2.706,3.415-5.494,5.268-8.139,1.9-2.712,3.961-5.316,6.019-7.92a14.586,14.586,0,0,1,9.481-5.486c4.464-.73,8.922-1.3,13.44-.464.5.089,1.009.143,1.507.259.313.075.613.239,1.486.58a43.328,43.328,0,0,0-15.6,3.789c-4.737,2.011-9.5,4.021-13.332,7.579.082.185.157.362.239.539a12.236,12.236,0,0,0,1.711-.552c3.994-1.895,7.927-3.933,11.975-5.7a40.526,40.526,0,0,1,12.466-3.524c2.011-.184,4.049-.034,6.073-.034.034.177.062.347.1.518a13.66,13.66,0,0,1-1.411.518c-6.393,1.67-12.425,4.117-17.592,8.342a33.052,33.052,0,0,0-3.265,3.218q-7.28,7.872-14.5,15.785c-1.063,1.166-2.038,2.413-3.115,3.7,1.323.8,1.841-.007,2.393-.593,5.146-5.425,10.524-10.66,15.356-16.358,5.684-6.72,13.018-10.278,21.272-12.221a23.129,23.129,0,0,1,7.607-.061,8.093,8.093,0,0,1,3.817,1.826c2.33,1.827,4.484,3.879,6.713,5.842-.027.129-.054.252-.082.382-1.6-.484-3.217-.948-4.812-1.466a26.555,26.555,0,0,1-2.869-1.063,20.107,20.107,0,0,0-16.379-.17c-4.089,1.649-8.008,3.714-11.961,5.677a9.353,9.353,0,0,0-1.881,1.738c.1.163.2.327.313.491a9.843,9.843,0,0,0,1.547-.416c3.62-1.677,7.218-3.422,10.858-5.057a38.173,38.173,0,0,1,4.334-1.5,14.694,14.694,0,0,1,10.231.348c2.6,1.049,5.262,1.929,7.927,2.808a30.813,30.813,0,0,0,10.8,1.615,44.894,44.894,0,0,1,14.559,2.229c-2.917,1.7-5.889,3.292-8.7,5.119-6.55,4.273-13.045,8.635-19.514,13.031a28.514,28.514,0,0,0-4.5,3.736,6.745,6.745,0,0,0-1.582,6.652c.11.416.634.722,1.384,1.533.095-1.4.211-2.14.184-2.869a5.767,5.767,0,0,1,2.454-5.064c1.152-.873,2.379-1.643,3.571-2.454,5.412-3.681,10.8-7.409,16.249-11.035,2.9-1.928,5.916-3.694,8.881-5.521a7.794,7.794,0,0,1,6.612-.872c3.653,1.084,7.347,2.052,11.021,3.087.116.035.191.253.361.491-5.555.028-9.678,2.863-13.42,6.51a47.211,47.211,0,0,0-10.79,15.042,37.215,37.215,0,0,0-2.331,23.467c.525,2.31.879,4.662,1.316,7-3.361-1.752-6.612-3.64-10.019-5.174C118.263,417.513,114.371,415.993,110.445,414.616Zm37.289,36.826a342.847,342.847,0,0,1-35.3-6.584,122.858,122.858,0,0,1-12.916-3.885c-3.755-1.329-4.553-2.611-3.994-6.584.689-4.942,1.752-9.835,2.692-14.961,1.561.279,2.877.5,4.192.763,4.914.968,9.856,1.82,14.729,2.972,4.785,1.131,9.495,2.583,14.232,3.9,1.145.313,2.276.688,3.421.988,5.623,1.465,10.374-.164,14.47-4.1a2.435,2.435,0,0,1,.382-.314c.061-.034.163-.013.354-.02.225,3.19.45,6.393.689,9.706.756.075,1.4.129,2.221.2.158,1.581.314,3.156.478,4.873h4.587c.381,4.663.743,9.188,1.138,14.109C155.1,452.137,151.408,451.9,147.734,451.442Zm7.689-15.343V433.53C203.59,424,251.649,414.5,299.911,404.951c.075.948.157,1.929.232,2.863C298,408.829,157.808,436.229,155.423,436.1Zm170.095-24.632c-8.26,1.486-15.587-1.54-23.064-4.239-.164-1.438-.327-2.931-.518-4.621a12.984,12.984,0,0,0-2.379.02c-13.318,2.747-26.616,5.582-39.941,8.288-10.912,2.222-21.851,4.287-32.77,6.448-9.672,1.915-19.323,3.912-29,5.793q-20.017,3.9-40.07,7.661c-1.493.287-3.019.4-5.01.655-.286-5.071-.551-9.87-.838-14.879,4.846-.907,9.413-1.813,14-2.6q25.1-4.356,50.219-8.642c16.324-2.768,32.641-5.576,49-8.146,10.987-1.731,22.022-3.175,33.057-4.573,8.193-1.043,16.439-.913,24.953-.647C323.951,398.517,324.735,404.985,325.518,411.467Zm192.023-21.333c-1,.054-1.915.149-2.822.143-10.721-.068-21.442-.185-32.157-.218-8.254-.021-16.508.1-24.762.088-.988,0-1.969-.007-2.958-.02-5.732-.041-11.471-.171-17.2-.178-5.691-.006-11.382.2-17.074.191-33.86-.095-67.722-.081-101.583-.4-14.879-.143-29.526,1.5-44.146,3.892-10.23,1.67-20.5,3.149-30.719,4.88-14.163,2.393-28.3,4.949-42.449,7.416-4.341.763-8.7,1.465-13.052,2.194-.75-1.778-.763-2-.286-4.355,9.446-.388,18.58-2.931,27.9-4.314,10.414-1.554,20.795-3.347,31.189-5.085,7.123-1.186,14.218-2.522,21.347-3.687,12.16-2,24.36-3.776,36.663-4.7a77.624,77.624,0,0,1,8.887.307c.846.034,1.7.095,2.543.1q20.039.062,40.077.116,52.866.174,105.734.368,20.765.072,41.535.15c3.913.013,7.825.088,11.737.15a15.236,15.236,0,0,1,1.6.218Z"/><path d="M393.125,407.228c.007-.007.02-.014.027-.021v-.013Z"/><path d="M281.529,153.059c-1.765,0-3.244-.021-4.723.006a10.21,10.21,0,0,0-3.006.212c-3.612,1.213-7.184,2.542-10.742,3.9a3.124,3.124,0,0,0-2.181,2.876c1.5-.674,2.161.075,2.863,1.016a33.428,33.428,0,0,0,3.149,3.66,10.9,10.9,0,0,0,9.59,3.047c4.314-.58,6.168-4.178,4.58-8.759C283.008,156.085,283.049,154.619,281.529,153.059Zm-2.869,4.934c-3.81.866-6.435.648-9.208-.709C272.826,156.63,275.722,157.5,278.66,157.993Zm.361,5.984a5.06,5.06,0,0,1-4.982,1.868,13.532,13.532,0,0,1-4.451-1.67c-2.113-1.268-3.51-3.312-5.337-5.589,3.115.15,5.112,2.14,7.579,2.42,2.4.266,4.833.2,7.266.279C280.009,162.205,279.744,163.112,279.021,163.977Z"/><path d="M215.845,128.187a5.8,5.8,0,0,1,.552-1.2,4.1,4.1,0,0,0,.184-5.173c-.634-1-1.015-2.161-1.7-3.122a33.2,33.2,0,0,0-3.647-4.546c-2.051-2.024-4.525-1.479-5.779,1.152a7.037,7.037,0,0,0-.723,2.678,66.18,66.18,0,0,0-.04,8.138c.565,6.81,6.188,9.461,12.077,10.149a7.52,7.52,0,0,0,2.106-.456C219.8,132.318,217.556,130.362,215.845,128.187Zm-.259,6.107a9.287,9.287,0,0,1-1.458-.443c-6.074-2.024-7.675-4.3-7.416-10.734.081-2.032.3-4.063.545-6.087a14.909,14.909,0,0,1,.675-2.338c2.2.7,3.115,1.663,5.6,5.766-2.61,1.957-3.326,3.149-3.428,5.876,1.54-1.261,2.195-3.435,4.942-3.79-.171,2.161-.709,4.185-.362,6.039.355,1.908,1.581,3.66,2.536,5.725A11.654,11.654,0,0,1,215.586,134.294Z"/><path d="M268.986,117.047l1.518,2.9c-2.2.656-2.427-1.517-3.889-2.038l.942,2.663c-3.037.14-5.9.61-8.541-1.751l-4.217,1.443c.939-2.232,1.274-2.354,11.643-4.617a14.519,14.519,0,0,0-7.041-.241c-2.261.521-4.477,1.238-6.713,1.869l-.306-.519c.415-.445.747-1.088,1.259-1.3,2.1-.873,4.221-2.132,6.408-2.306,6.382-.509,12.645.8,18.846,1.775.571,1.281.172,1.888-.88,2a32.829,32.829,0,0,1-3.307.113C272.929,117.058,271.15,117.047,268.986,117.047Z"/><path d="M232.343,170.483c-6.125-4.135-15.483-14.724-13.423-19.124.441.4,1.014.665,1.148,1.075,1.874,5.722,6.071,9.727,10.116,13.854a20.381,20.381,0,0,1,2.127,2.516C232.516,169.094,232.343,169.649,232.343,170.483Z"/><path d="M270.931,145.218l-1.069-2.053-1.632.65c-.605-1.5.117-2.74.546-3.923,1.079-2.978,2.847-4.5,4.874-4.251a21.28,21.28,0,0,0-2.224,4.381,20.311,20.311,0,0,0-.083,4.807Z"/><path d="M255.757,68.263c.888-.313,1.475-.73,2.007-.67a57.848,57.848,0,0,1,6.758,1.044,14.815,14.815,0,0,1,3.97,1.708,24.912,24.912,0,0,0,12.73,3.082c2.962.024,5.922.412,8.879.682.747.069,1.568.225,1.283,1.431-5.169-.1-10.333-.032-15.47-.376a18.213,18.213,0,0,1-6.312-1.838c-4.17-1.956-8.274-3.986-12.981-4.269C256.5,69.05,256.381,68.847,255.757,68.263Z"/><path class="cls-1" d="M318.26,370.354c.422.136.859.307,1.315.5-1.118.2-2.229.4-3.339.607-.614-.021-1.248-.048-1.895-.068A23.442,23.442,0,0,0,318.26,370.354Z"/><path class="cls-1" d="M321.906,350.254a6.871,6.871,0,0,1-.361,3c-.886,2.563-.709,5.057-.661,7.845-.177-.15-.361-.314-.559-.491a58.7,58.7,0,0,1-12.119-16.3,41.028,41.028,0,0,1-3-8.67Z"/><path class="cls-1" d="M325.982,354.582c-.736-.041-1.3-.075-2.2-.123.04-.831.074-1.649.115-2.467l2.079,1.82C325.982,354.057,325.982,354.309,325.982,354.582Z"/><rect class="cls-1" x="323.276" y="356.743" width="3.211" height="3.312"/><path class="cls-1" d="M323.855,362.475h2.679v9.338h-.49c-.7-.021-1.432-.048-2.189-.075Z"/><path class="cls-1" d="M329.043,365.938c2.9,2.044,5.4,3.8,8.376,5.9h-8.376Z"/><path class="cls-1" d="M360.477,372.494l-10.68-.1"/><path class="cls-1" d="M366.959,372.556l-4.028-.041"/><path class="cls-1" d="M384.66,372.719c-.375,0-.75-.007-1.118-.007"/><path class="cls-1" d="M409.851,372.958c-1-.014-1.99-.021-2.985-.028"/><path class="cls-1" d="M418.071,373.033c-1.813-.021-3.619-.034-5.426-.055"/><path class="cls-1" d="M431.532,373.155q-3.874-.03-7.736-.068"/><path class="cls-1" d="M437.285,373.21c-1.084-.007-2.168-.021-3.245-.027"/><path class="cls-1" d="M443.964,373.271c-1.329-.013-2.658-.02-3.987-.034"/><path d="M494.17,373.741h-.021q-10.581-.1-21.17-.2l-2.419-.021q-4.846-.051-9.693-.1h-.313q-6.808-.062-13.618-.13Z"/><path class="cls-1" d="M449.39,392.076q-4.254-.01-8.507-.014"/><path d="M395.067,392q-9.335-.01-18.655-.027Z"/><path d="M307.136,274.585c-.259.375-.538.79-.818,1.247Z"/><path class="cls-1" d="M472.345,373.762c-.443,0-.879-.007-1.315-.014"/><path class="cls-1" d="M447.631,373.428c-.225,0-.443-.007-.661-.007"/><path class="cls-1" d="M443.978,373.38c-1.336-.02-2.672-.034-4-.054"/><path class="cls-1" d="M437.285,373.285c-1.084-.007-2.168-.027-3.245-.041"/><path d="M431.532,373.21q-3.874-.051-7.736-.109Z"/><path d="M418.882,373.039c-.273-.006-.545-.006-.811-.013q-2.72-.031-5.432-.075c-.934-.007-1.861-.021-2.788-.034l-3.006-.041q-6.1-.082-12.2-.171Z"/><path class="cls-1" d="M366.966,372.331q-2.025-.021-4.035-.055c-.818-.007-1.636-.02-2.454-.034l-10.7-.143"/><path d="M322.976,366.748c.45,1.67.893,3.333,1.343,5L342.34,372Z"/><path class="cls-1" d="M383.48,372.556c.375.006.757.013,1.139.013.981.021,1.963.034,2.951.041.089.007.184.007.279.007"/><path class="cls-2" d="M524.571,4V520.285H4V4H524.571m4-4H0V524.285H528.571V0Z"/><path class="cls-3" d="M525.268,521.371H4V3.781H525.268ZM34,491.371H495.268V33.781H34Z"/></g></svg>