<?xml version="1.0" encoding="utf-8"?>
<!-- Generator: Adobe Illustrator 24.0.1, SVG Export Plug-In . SVG Version: 6.00 Build 0)  -->
<svg version="1.1" xmlns="http://www.w3.org/2000/svg" xmlns:xlink="http://www.w3.org/1999/xlink" x="0px" y="0px"
	 viewBox="0 0 528.57 517.12" style="enable-background:new 0 0 528.57 517.12;" xml:space="preserve">
<style type="text/css">
	.st0{display:none;fill:#FDFEFE;}
	.st1{fill:#616060;}
	.st2{fill:#8D8989;}
	.st3{display:none;}
	.st4{display:inline;}
	.st5{fill:#636464;}
	.st6{fill:#808080;}
	.st7{fill:#B4B3B4;}
	.st8{fill:#333333;}
	.st9{fill:none;}
	.st10{fill:none;stroke:#000000;stroke-width:5;stroke-miterlimit:10;}
	.st11{fill:#050606;}
	.st12{fill:#FFFFFF;}
	.st13{opacity:0.1;}
	.st14{fill:#ECECEC;}
	.st15{fill:#1F191A;}
	.st16{fill:#E2E5E5;}
	.st17{fill:#181818;}
	.st18{fill:#F0F1F1;}
	.st19{fill:#1D191A;}
	.st20{fill:#E5E6E6;}
	.st21{fill:#070808;}
	.st22{display:inline;fill:none;stroke:#8D8989;stroke-width:30;stroke-miterlimit:10;}
	.st23{fill-rule:evenodd;clip-rule:evenodd;fill:#050606;}
	.st24{fill:none;stroke:#000000;stroke-width:4;stroke-linecap:round;stroke-linejoin:round;stroke-miterlimit:10;}
	.st25{fill:#010101;}
	.st26{fill-rule:evenodd;clip-rule:evenodd;fill:#FFFFFF;}
	.st27{fill:#161717;}
	.st28{fill-rule:evenodd;clip-rule:evenodd;fill:#161717;}
</style>
<g id="Layer_1">
	<rect x="-9038.07" y="-404.36" class="st0" width="13577.14" height="3065.14"/>
</g>
<g id="Layer_2">
</g>
<g id="Layer_3">
</g>
<g id="Layer_4">
</g>
<g id="Layer_5">
</g>
<g id="Layer_6">
</g>
<g id="Layer_7">
</g>
<g id="Layer_8">
</g>
<g id="Layer_9">
</g>
<g id="Layer_10">
</g>
<g id="Layer_11">
</g>
<g id="Layer_12">
</g>
<g id="Layer_13">
</g>
<g id="Layer_14">
</g>
<g id="Layer_15">
</g>
<g id="Layer_16">
</g>
<g id="Layer_17">
</g>
<g id="Layer_18">
</g>
<g id="Layer_19">
	<g>
		<g>
			<g>
				<path class="st1" d="M524.57,4.07v516.29H4V4.07H524.57 M528.57,0.07H0v524.29h528.57V0.07L528.57,0.07z"/>
			</g>
		</g>
		<g>
			<g>
				<path class="st2" d="M525.27,521.45H4V3.86h521.27V521.45z M34,491.45h461.27V33.86H34V491.45z"/>
			</g>
		</g>
	</g>
	<g>
		<g>
			<g>
				<path d="M307.1,495.31c-0.7,0-1.39-0.29-1.88-0.85c-0.91-1.04-0.8-2.62,0.23-3.53c1.08-0.95,2.01-2.03,2.77-3.23
					c1.14-1.81,2.33-4.58,2.49-11.37c0.13-5.69-0.53-11.6-1.9-17.08c-1.26-5.03-2.56-10.23-4.87-15.23l-0.05-0.12
					c-0.41-0.89-1.17-2.53-1.65-4.87c-0.64-3.11-0.38-5.49-0.07-8.25l0.12-1.1c0.28-2.69,0.48-5.46,0.57-8.27l-4.52-2.76l0.93-2.02
					c0.8-1.74,1.57-3.52,2.29-5.28c2.15-5.27,3.99-10.75,5.47-16.31c0.35-1.33,1.73-2.13,3.06-1.77c1.33,0.35,2.13,1.72,1.77,3.06
					c-1.53,5.76-3.44,11.45-5.67,16.92c-0.47,1.15-0.96,2.3-1.46,3.45l3.21,1.96l-0.03,1.44c-0.08,3.43-0.29,6.83-0.64,10.12
					l-0.12,1.13c-0.29,2.63-0.48,4.36,0,6.69c0.36,1.77,0.95,3.02,1.29,3.77l0.06,0.12c2.51,5.42,3.87,10.85,5.18,16.11
					c1.48,5.91,2.19,12.28,2.05,18.41c-0.18,8.01-1.75,11.53-3.26,13.93c-1.01,1.6-2.26,3.06-3.7,4.32
					C308.28,495.1,307.69,495.31,307.1,495.31z"/>
			</g>
		</g>
		<g>
			<g>
				<path d="M313.7,421.33c-1.38,0-2.76-0.21-4.1-0.68c-1.77-0.62-3.41-1.64-4.88-3.03l-0.57-0.54L304,416.3
					c-1.54-7.68-1.99-13.6-1.37-18.1l0.02-0.13c0.13-0.91,0.46-3.33,0.05-6.42c-0.17-1.27-0.45-2.53-0.84-3.77l-7.52-5.12l5.65-1.25
					c1.24-0.27,2.49-0.39,3.74-0.34c3.26,0.13,5.21,1.31,7.28,2.55c1.16,0.7,2.36,1.43,4,2.09c1.28,0.52,3.96,1.01,8.81,1.91
					c2.44,0.45,4.91,0.85,7.36,1.18l1.59,0.22l0.46,1.54c0.93,3.09,1.26,6.27,0.97,9.44c-0.27,2.99-1.37,8.74-5.74,13.68
					C324.85,417.88,319.26,421.33,313.7,421.33z M308.74,414.5c0.79,0.64,1.63,1.12,2.5,1.43c5.24,1.82,11.1-2.77,13.47-5.45
					c3.42-3.87,4.29-8.44,4.5-10.82c0.18-2.02,0.05-4.04-0.38-6.03c-1.98-0.29-3.97-0.62-5.93-0.99c-5.51-1.02-8.03-1.48-9.78-2.19
					c-2-0.81-3.44-1.68-4.71-2.44c-0.58-0.35-1.09-0.66-1.58-0.92c0.37,1.28,0.64,2.58,0.81,3.89c0.5,3.77,0.1,6.68-0.05,7.77
					l-0.02,0.12C307.07,402.61,307.46,407.86,308.74,414.5z"/>
			</g>
		</g>
		<g>
			<g>
				<path d="M300.93,385.53c-0.15,0-0.29-0.01-0.44-0.04c-1.36-0.24-2.26-1.54-2.02-2.9c0.59-3.3,1.36-6.62,2.28-9.87
					c1.38-4.87,2.62-7.87,3.72-10.52c1.23-2.96,2.19-5.3,2.96-9.37c1.55-8.17,0.24-12.22-0.68-13.91c-0.78-1.43-1.85-2.71-3.17-3.8
					l-1.12-0.92l0.24-1.43c0.42-2.46,1.24-4.78,2.45-6.9c2.26-3.98,5.34-6.32,7.52-7.58c1.19-0.69,2.72-0.28,3.42,0.91
					c0.69,1.2,0.28,2.72-0.91,3.42c-1.65,0.95-3.97,2.72-5.68,5.72c-0.7,1.23-1.23,2.56-1.59,3.96c1.29,1.26,2.38,2.68,3.22,4.23
					c2.17,3.98,2.59,9.94,1.2,17.24c-0.87,4.57-1.97,7.25-3.26,10.35c-1.04,2.53-2.23,5.39-3.53,9.98
					c-0.88,3.09-1.61,6.24-2.17,9.39C303.17,384.68,302.12,385.53,300.93,385.53z"/>
			</g>
		</g>
		<g>
			<g>
				<path d="M311.32,496.53c-1.47,0-3.09-0.28-4.86-0.84c-1.32-0.42-2.04-1.82-1.63-3.14c0.42-1.32,1.82-2.04,3.14-1.63
					c1.75,0.56,4.12,1.01,5.5,0.04c0.29-0.21,0.38-0.34,0.74-0.94c0.42-0.69,0.99-1.64,2.17-2.94c1.14-1.26,1.92-1.83,2.75-2.44
					c0.69-0.5,1.41-1.03,2.6-2.14c1.15-1.08,2.9-2.72,2.89-3.15c-0.01-0.63-0.94-1.78-1.77-2.79c-0.42-0.51-0.68-0.76-0.96-1.01
					c-0.38-0.36-0.82-0.76-1.32-1.53c-1.59-2.47-1.51-5.16-1.48-6.3c0.15-5.22-0.77-13.75-1.7-18.19c-0.55-2.65-1.11-3.95-1.64-5.21
					c-0.68-1.6-1.33-3.11-1.63-6.4c-0.52-5.54,0.48-10.1,0.86-11.81c0.75-3.44,1.95-6.77,3.54-9.9c0.63-1.23,2.13-1.72,3.36-1.09
					c1.23,0.63,1.72,2.13,1.09,3.36c-1.4,2.74-2.44,5.67-3.11,8.7c-0.33,1.51-1.21,5.51-0.76,10.28c0.24,2.51,0.66,3.51,1.26,4.9
					c0.57,1.34,1.28,3.01,1.94,6.15c1,4.81,1.96,13.7,1.8,19.27c-0.03,0.94-0.07,2.36,0.68,3.53c0.15,0.23,0.23,0.3,0.51,0.57
					c0.34,0.31,0.8,0.74,1.44,1.52c1.41,1.73,2.87,3.52,2.9,5.9c0.03,2.62-1.76,4.3-4.47,6.85c-1.42,1.33-2.33,2-3.07,2.54
					c-0.72,0.53-1.2,0.88-2,1.75c-0.86,0.95-1.25,1.6-1.6,2.17c-0.46,0.76-0.98,1.62-2.13,2.44
					C314.96,496.03,313.27,496.53,311.32,496.53z"/>
			</g>
		</g>
		<g>
			<g>
				<path d="M316.22,479.76c-1.53,0-3.03-0.72-4.23-2.05c-0.93-1.02-0.85-2.6,0.17-3.53c1.02-0.93,2.6-0.85,3.53,0.17
					c0.21,0.23,0.38,0.34,0.48,0.39c0.12-0.07,0.33-0.22,0.71-0.52c0.98-0.8,1.88-1.77,2.68-2.88c0.8-1.12,2.37-1.38,3.49-0.57
					c1.12,0.81,1.38,2.37,0.57,3.49c-1.05,1.46-2.25,2.75-3.57,3.83c-1.17,0.96-2.23,1.61-3.6,1.67
					C316.37,479.76,316.3,479.76,316.22,479.76z"/>
			</g>
		</g>
		<g>
			<g>
				<path d="M336.27,438.28c-4.4,0-7.7-2.84-10.37-5.14c-3.49-3-6.3-6.79-8.37-11.25c-0.58-1.25-0.03-2.74,1.22-3.32
					c1.26-0.58,2.74-0.03,3.32,1.22c1.76,3.81,4.15,7.03,7.09,9.56c2.4,2.07,4.63,4.01,7.3,3.93c0.91-0.03,1.98-0.36,6.74-4.19
					c2.47-1.99,4.26-3.56,6-5.09c2.35-2.07,4.57-4.02,7.91-6.45c2.98-2.17,6.23-4.27,10.56-4.16c1.62,0.04,3.23,0.39,4.79,1.04
					c1.28,0.53,1.88,1.99,1.36,3.26c-0.53,1.28-1.99,1.88-3.26,1.36c-1-0.41-2.01-0.63-3.02-0.66c-2.52-0.07-4.5,1.02-7.48,3.2
					c-3.15,2.3-5.19,4.09-7.55,6.16c-1.69,1.49-3.61,3.18-6.16,5.23c-5.11,4.11-7.1,5.2-9.69,5.29
					C336.52,438.27,336.4,438.28,336.27,438.28z"/>
			</g>
		</g>
		<g>
			<g>
				<path d="M378.24,421.24c-1.35,0-2.68-0.42-3.58-0.71c-5.07-1.61-8.98-3.91-11.08-5.14c-1.45-0.85-3.74-2.19-6.65-3.85
					c-0.01-0.01-0.02-0.01-0.04-0.02c-0.93-0.31-1.63-1.17-1.7-2.21c-0.08-1.32,0.07-2.6,0.46-3.81c0.7-2.2,2.81-5.93,6.25-5.99
					c2.14-0.01,3.36,1.37,4.45,2.62c0.2,0.23,0.42,0.48,0.66,0.74c3.25,3.53,7,5.63,8.61,6.52c0.87,0.48,1.66,0.86,2.35,1.19
					c2.05,0.97,3.98,1.89,4.64,4.39c0.37,1.41,0.31,3.56-1.1,5C380.57,420.93,379.4,421.24,378.24,421.24z M360.26,407.68
					c2.53,1.45,4.53,2.62,5.78,3.35c2.14,1.25,5.6,3.28,10.14,4.73c0.75,0.24,1.25,0.37,1.59,0.43c-0.15-0.26-1.06-0.69-1.93-1.11
					c-0.73-0.35-1.63-0.78-2.64-1.34c-1.66-0.92-6.05-3.38-9.85-7.5c-0.27-0.29-0.51-0.56-0.73-0.82c-0.24-0.27-0.52-0.59-0.73-0.8
					c-0.41,0.34-1.09,1.23-1.46,2.38C360.36,407.23,360.3,407.45,360.26,407.68z"/>
			</g>
		</g>
		<g>
			<g>
				<path d="M336.98,426.74c-0.09,0-0.18,0-0.28-0.01c-2.62-0.2-3.49-2.72-4.59-5.91c-0.25-0.74-0.54-1.56-0.86-2.43
					c-1.05-2.81-2.34-5.58-3.83-8.24c-0.68-1.2-0.25-2.73,0.95-3.4c1.21-0.68,2.73-0.25,3.41,0.95c1.62,2.88,3.02,5.89,4.16,8.94
					c0.34,0.92,0.64,1.78,0.91,2.55c0.11,0.33,0.24,0.69,0.36,1.03c0.09-0.13,0.19-0.27,0.29-0.41c2.09-2.93,5.2-4.78,11.39-8.48
					c2.4-1.43,4.89-2.8,7.42-4.06c1.24-0.62,2.74-0.11,3.35,1.12c0.62,1.24,0.11,2.74-1.12,3.35c-2.41,1.2-4.8,2.51-7.09,3.87
					c-5.6,3.34-8.4,5.02-9.89,7.09c-0.3,0.42-0.55,0.81-0.77,1.16C340.01,425.09,338.96,426.74,336.98,426.74z"/>
			</g>
		</g>
		<g>
			<g>
				<path d="M331.47,393.88c-1.28,0-2.37-0.98-2.49-2.28c-0.1-1.12,0.56-2.13,1.55-2.53c-0.01-0.01-0.02-0.02-0.03-0.04
					c-0.13-0.16-0.25-0.32-0.36-0.48c-2.57-3.46-3.79-8.33-3.44-13.71c0.15-2.29,0.4-6.11,3.3-9.12c2.87-2.98,7.55-4.2,11.65-3.03
					c2.01,0.57,3.43,1.62,4.49,2.42c0.02-0.2,0.04-0.42,0.05-0.68c0.06-1.38,1.21-2.45,2.6-2.39c1.38,0.06,2.45,1.22,2.39,2.6
					c-0.05,1.15-0.19,4.64-2.79,5.85c-2.14,0.99-3.94-0.38-5.13-1.28c-0.88-0.67-1.79-1.36-2.98-1.7c-1.96-0.56-4.89-0.16-6.67,1.69
					c-1.63,1.7-1.79,4.17-1.91,5.98c-0.27,4.2,0.6,7.9,2.46,10.41l0.3,0.4c0.91,1.18,2.44,3.16,1.55,5.33
					c-0.62,1.51-2.07,2.37-4.32,2.57C331.62,393.88,331.54,393.88,331.47,393.88z"/>
			</g>
		</g>
		<g>
			<g>
				<path d="M377.33,389.53c-2.23,0-4.01-2.61-5.17-4.98c-0.83-1.69-1.09-2.98-1.28-3.91c-0.09-0.42-0.16-0.76-0.25-1.05
					c-0.34-1.01-1.59-1.71-7.23-4.52l-2.33-1.16c-5.8-2.88-8.2-4.07-11.25-6.17c-1.41-0.97-2.78-2.02-4.09-3.11
					c-1.06-0.89-1.2-2.46-0.31-3.52c0.89-1.06,2.46-1.2,3.52-0.31c1.19,0.99,2.44,1.95,3.72,2.83c2.75,1.9,4.9,2.96,10.63,5.81
					l2.33,1.16c2.58,1.28,4.48,2.23,5.9,3.09c-0.51-0.52-1.04-1.08-1.61-1.67c-1.68-1.75-2.93-3.08-3.91-4.12
					c-2.56-2.73-3.03-3.21-4.43-4.02c-0.51-0.3-1.03-0.56-1.58-0.85c-1.22-0.64-2.75-1.43-4.88-2.84c-1.51-1-2.85-1.99-4.77-3.53
					c-3.06-2.46-4.81-4.08-6.35-5.51c-1.15-1.07-2.15-1.99-3.48-3.06c-2.59-2.07-5.47-3.91-8.57-5.45
					c-1.24-0.61-1.74-2.11-1.13-3.35c0.61-1.24,2.11-1.74,3.35-1.13c3.42,1.7,6.61,3.73,9.48,6.02c1.47,1.18,2.58,2.21,3.75,3.29
					c1.48,1.37,3.16,2.92,6.08,5.28c1.79,1.44,3.02,2.35,4.39,3.26c1.92,1.27,3.25,1.96,4.43,2.58c0.62,0.32,1.19,0.62,1.77,0.95
					c2.08,1.2,2.96,2.14,5.58,4.92c0.96,1.03,2.2,2.34,3.87,4.07c4.77,4.95,7.17,7.44,9.3,9.36c1.23,1.11,2.35,2.07,3.32,2.89
					c3.43,2.93,5.32,4.54,4.21,6.9c-0.85,1.8-3.1,2.28-6.33,1.34c-1.56-0.45-2.78-1.19-3.72-1.89c-0.25,0.9-0.79,1.8-1.98,2.21
					C377.98,389.47,377.65,389.53,377.33,389.53z M385.82,387.3L385.82,387.3L385.82,387.3z M375.15,377.43
					c0.07,0.17,0.14,0.35,0.21,0.54c0.2,0.59,0.31,1.14,0.42,1.67c0.15,0.71,0.28,1.39,0.68,2.29c0.29-0.38,0.68-0.71,1.2-0.95
					c0.28-0.13,0.56-0.22,0.82-0.27C377.5,379.8,376.45,378.75,375.15,377.43z"/>
			</g>
		</g>
		<g>
			<g>
				<path d="M346.01,370.85c-1.28,0-2.38-0.98-2.49-2.29c-0.12-1.46-0.05-2.89,0.22-4.26c0.33-1.67,0.89-3.06,3.42-7.56
					c0.72-1.28,1.32-2.33,1.75-3.06c0.7-1.19,2.23-1.59,3.42-0.89c1.19,0.7,1.59,2.23,0.89,3.42c-0.42,0.71-1.01,1.74-1.71,2.98
					c-2.4,4.28-2.7,5.18-2.87,6.08c-0.18,0.91-0.23,1.88-0.14,2.87c0.12,1.38-0.9,2.59-2.28,2.7
					C346.15,370.85,346.08,370.85,346.01,370.85z"/>
			</g>
		</g>
		<g>
			<g>
				<path d="M325.94,345.71c-0.42,0-0.87-0.03-1.33-0.11c-3.54-0.57-6.64-3.31-7.37-6.52c-0.41-1.8,0.07-3.01,0.38-3.81
					c0.2-0.51,0.26-0.68,0.22-1.08c-0.09-0.74-0.49-1.17-1.53-2.12c-1.19-1.08-2.82-2.57-3.21-5.26c-0.18-1.26,0.18-2.65,0.96-5.69
					c0.71-2.74,1.17-4.54,2.75-5.99c0.61-0.56,1.08-0.8,1.54-1.03c0.35-0.18,0.78-0.4,1.59-0.94c0.84-0.57,1.45-0.97,1.91-1.42
					c0.69-0.67,0.87-1.23,1.16-2.07c0.34-1.04,0.81-2.45,2.28-3.72c2.02-1.74,5.19-2.65,7.09-0.91c1.38,1.27,1.1,2.93,0.95,3.82
					c-0.1,0.58-0.15,0.92-0.03,1.23c0.1,0.15,0.37,0.29,0.56,0.39c0.81,0.43,2.03,1.07,2.96,2.72c0.8,1.41,0.91,3.14,1.16,6.93
					c0.03,0.41,0.04,0.74,0.06,1.03c0.01,0.29,0.03,0.6,0.05,0.79c0.09,0.04,0.28,0.1,0.43,0.15c0.75,0.25,2,0.67,2.93,2.01
					c1.44,2.07,1.38,5.27-0.14,7.15c-1.29,1.58-3.09,1.78-4.4,1.79c0.31,0.85,0.57,1.95,0.43,3.3v0c-0.43,4.13-4.3,6.55-5.57,7.35
					C330.51,344.48,328.54,345.71,325.94,345.71z M328.24,310.08c-0.18,0.26-0.3,0.59-0.49,1.16c-0.36,1.09-0.85,2.58-2.42,4.09
					c-0.78,0.76-1.63,1.32-2.6,1.98c-1.06,0.71-1.69,1.03-2.11,1.25c-0.32,0.16-0.32,0.17-0.42,0.25c-0.45,0.41-0.71,1.3-1.29,3.56
					c-0.44,1.72-0.86,3.34-0.85,3.78c0.12,0.82,0.61,1.3,1.62,2.22c1.19,1.08,2.81,2.56,3.13,5.22c0.2,1.65-0.24,2.76-0.52,3.5
					c-0.21,0.54-0.23,0.59-0.16,0.89c0.28,1.24,1.75,2.44,3.28,2.68c1.41,0.23,2.58-0.5,3.7-1.21c0.84-0.53,3.07-1.92,3.25-3.63
					c0.06-0.56-0.12-1.02-0.42-1.72c-0.41-0.95-1.09-2.54-0.07-4.21c1.17-1.91,3.27-1.88,4.52-1.86c0.31,0,0.8,0.01,1.06-0.03
					c0.08-0.27,0.03-0.83-0.11-1.04c-0.04,0.01-0.25-0.07-0.42-0.13c-0.78-0.26-2.09-0.7-3.04-2.15c-0.71-1.07-0.76-1.99-0.83-3.27
					c-0.01-0.27-0.03-0.59-0.06-0.96c-0.15-2.24-0.28-4.34-0.52-4.81c-0.2-0.35-0.37-0.45-0.94-0.76c-0.81-0.43-2.16-1.14-2.88-3
					C328.39,311.26,328.28,310.64,328.24,310.08z M334.84,336.09L334.84,336.09L334.84,336.09z"/>
			</g>
		</g>
		<g>
			<g>
				<path d="M337.59,327.21c-0.42-0.34-1.06-0.52-1.75-0.45c-0.7,0.07-1.46,0.42-2.11,1.03c-0.14-0.87-0.04-1.89,0.42-2.88
					c0.46-0.99,1.26-1.92,2.38-2.59l1.46-0.88c1.67-1,3.83-0.47,4.84,1.2s0.47,3.83-1.2,4.84
					C340.32,328.27,338.71,328.11,337.59,327.21z"/>
			</g>
		</g>
		<g>
			<g>
				<path d="M340.63,343.39c-2.26,0-4.56-0.22-6.83-0.66c-1.36-0.26-2.24-1.57-1.98-2.93c0.26-1.36,1.57-2.24,2.93-1.98
					c2.03,0.39,4.09,0.58,6.11,0.57c2.83-0.02,3.9-0.09,4.7-0.73c0.38-0.3,0.83-0.79,1.48-2.71c1.27-3.79,1.6-7.97,1.01-12.78
					c-0.56-4.59-0.82-6.69-1.95-8.32c-1.88-2.71-5.22-4.39-9.66-4.86c-1.52-0.16-3.07-0.09-4.61,0.21
					c-1.35,0.27-2.67-0.61-2.94-1.97c-0.27-1.35,0.61-2.67,1.97-2.94c2.03-0.4,4.08-0.5,6.1-0.28c7.49,0.79,11.33,4.23,13.24,6.98
					c1.84,2.65,2.18,5.46,2.81,10.56c0.68,5.56,0.28,10.46-1.23,14.97c-0.83,2.47-1.73,3.93-3.1,5.03c-2.23,1.78-4.68,1.8-7.79,1.82
					C340.8,343.38,340.72,343.39,340.63,343.39z"/>
			</g>
		</g>
		<g>
			<g>
				<path d="M364.49,345.82c-1.18,0-2.1-0.72-2.74-2.15c-0.19-0.42-0.37-0.81-0.77-1.22c-0.68-0.69-1.42-0.8-2.91-0.97
					c-1.47-0.17-3.3-0.39-5.15-1.59c-1.96-1.27-3.43-3.33-4.38-6.11c-0.44-1.31,0.26-2.73,1.57-3.17c1.31-0.44,2.73,0.26,3.17,1.57
					c0.57,1.69,1.37,2.87,2.36,3.52c0.88,0.57,1.82,0.68,3.02,0.82c1.47,0.17,3.25,0.38,4.93,1.6c0.05-1.76-0.2-3.88-1.11-5.73
					c-0.32-0.64-0.65-1.12-1-1.62c-0.71-1.02-1.51-2.17-1.85-4.24c-0.29-1.77-0.06-3,0.11-3.9c0.14-0.77,0.14-0.85,0.05-1.07
					c-0.39-0.94-1.91-1.69-4.06-2.03c-1.27-0.19-2.61-0.05-3.88,0.43c-1.29,0.49-2.73-0.16-3.22-1.45
					c-0.49-1.29,0.16-2.73,1.46-3.22c2.07-0.78,4.29-1.03,6.4-0.7c4.02,0.62,6.83,2.41,7.92,5.05c0.68,1.63,0.43,2.95,0.25,3.92
					c-0.13,0.7-0.24,1.26-0.09,2.15c0.16,0.96,0.45,1.38,1.03,2.21c0.4,0.57,0.9,1.29,1.38,2.27c2.42,4.91,1.79,11.12,0.41,13.72
					c-0.74,1.39-1.74,1.8-2.45,1.9C364.77,345.81,364.63,345.82,364.49,345.82z"/>
			</g>
		</g>
		<g>
			<g>
				<path d="M364.3,342.24c-0.64-0.97-1.31-1.82-2.07-2.52c-0.37-0.36-0.75-0.68-1.16-0.95c-0.38-0.3-0.79-0.54-1.19-0.76
					c-0.41-0.21-0.87-0.33-1.32-0.4c-0.44-0.08-0.8-0.27-1.13-0.56c-0.33-0.3-0.67-0.66-1.03-1.12c-0.37-0.45-0.76-0.97-1.24-1.73
					l-0.01-0.01c-0.1-0.16-0.08-0.36,0.05-0.49c0.63-0.67,1.34-1.01,2.05-1.19c0.72-0.2,1.44-0.2,2.14-0.07
					c0.7,0.13,1.32,0.48,1.82,0.98c0.5,0.51,0.91,1.09,1.34,1.6c0.41,0.53,0.8,1.08,1.11,1.65c0.3,0.59,0.54,1.19,0.73,1.79
					c0.36,1.22,0.51,2.46,0.39,3.66c-0.01,0.15-0.14,0.25-0.29,0.24C364.41,342.35,364.34,342.3,364.3,342.24z"/>
			</g>
		</g>
		<g>
			<g>
				<path d="M315.77,324.9c-0.86,0-1.69-0.44-2.16-1.23c-1.67-2.82-3.3-5.75-4.86-8.71c-1.64-3.11-2.54-5.01-3.91-7.89
					c-0.95-1.99-2.12-4.47-3.94-8.18c-3.81-7.77-5.1-10.1-6.85-12.75c-1.44-2.19-3-4.31-4.63-6.3c-0.87-1.07-0.72-2.64,0.35-3.52
					c1.07-0.87,2.64-0.72,3.52,0.35c1.74,2.13,3.4,4.39,4.94,6.72c1.87,2.85,3.24,5.29,7.16,13.3c1.83,3.73,3.01,6.23,3.96,8.23
					c1.34,2.82,2.23,4.69,3.81,7.7c1.52,2.88,3.12,5.74,4.74,8.5c0.7,1.19,0.31,2.72-0.88,3.42
					C316.63,324.78,316.2,324.9,315.77,324.9z"/>
			</g>
		</g>
		<g>
			<g>
				<path d="M307.94,327.94c-0.92,0-1.8-0.5-2.24-1.38c-0.78-1.56-1.61-3.25-2.38-4.91c-4.79-10.17-7.19-15.27-8.49-19.61l-0.23-0.8
					c-0.65-2.25-1.22-4.19-2.87-6.04c-0.93-1.04-2.06-1.89-3.36-2.55c-1.24-0.62-1.74-2.12-1.12-3.35c0.62-1.24,2.12-1.74,3.35-1.12
					c1.87,0.94,3.5,2.18,4.85,3.68c2.41,2.69,3.22,5.5,3.94,7.97l0.23,0.77c1.18,3.98,3.54,8.97,8.22,18.9
					c0.76,1.62,1.57,3.27,2.33,4.79c0.62,1.23,0.12,2.74-1.11,3.36C308.7,327.85,308.31,327.94,307.94,327.94z"/>
			</g>
		</g>
		<g>
			<g>
				<path d="M259.86,335.5c-1.18,0-2.23-0.84-2.46-2.05c-0.25-1.36,0.65-2.66,2.01-2.91c3.26-0.6,6.06-1.9,8.33-3.87
					c0.32-0.28,1.07-0.93,4.37-5.52c2.79-3.88,4.11-5.99,5.08-7.54c1.11-1.77,1.77-2.84,3.48-4.66c0.94-1,1.72-1.73,2.41-2.37
					c1.21-1.13,2.09-1.95,3.26-3.72c1.41-2.13,2.06-3.83,1.93-5.05c-0.11-1.02-0.57-2-1.37-2.92c-0.91-1.04-0.8-2.62,0.24-3.53
					c1.04-0.91,2.62-0.8,3.53,0.24c1.47,1.68,2.36,3.64,2.58,5.67c0.17,1.56,0.07,4.12-2.74,8.35c-1.5,2.26-2.72,3.4-4.02,4.61
					c-0.66,0.62-1.35,1.26-2.17,2.14c-1.37,1.47-1.85,2.22-2.89,3.89c-0.95,1.51-2.37,3.79-5.25,7.8c-3.36,4.68-4.39,5.71-5.15,6.38
					c-2.95,2.56-6.55,4.24-10.7,5.01C260.17,335.49,260.02,335.5,259.86,335.5z"/>
			</g>
		</g>
		<g>
			<g>
				<path d="M258.34,326.3c-1.17,0-2.21-0.83-2.45-2.02c-0.27-1.35,0.61-2.67,1.97-2.94c1.97-0.39,3.74-1.14,5.28-2.23
					c0.94-0.67,1.27-1.09,2.15-2.2c0.54-0.68,1.28-1.62,2.41-2.89c1.97-2.23,3.38-3.56,4.52-4.62c1.51-1.42,2.27-2.13,3.22-3.94
					c0.51-0.97,1.1-2.33,1.86-4.05c0.3-0.68,0.55-1.26,0.77-1.77c0.91-2.14,1.42-3.32,2.58-4.69c1.1-1.31,2.47-2.37,4.07-3.17
					c1.23-0.62,2.74-0.12,3.35,1.12c0.62,1.23,0.12,2.74-1.12,3.35c-0.99,0.49-1.82,1.14-2.49,1.93c-0.65,0.77-0.93,1.39-1.8,3.42
					c-0.23,0.53-0.48,1.13-0.79,1.82c-0.79,1.8-1.42,3.23-2,4.35c-1.34,2.57-2.62,3.76-4.23,5.28c-1.06,0.99-2.38,2.23-4.19,4.28
					c-1.04,1.18-1.7,2.02-2.24,2.69c-0.99,1.25-1.65,2.08-3.17,3.17c-2.11,1.5-4.54,2.53-7.21,3.06
					C258.66,326.28,258.5,326.3,258.34,326.3z"/>
			</g>
		</g>
		<g>
			<g>
				<path d="M253.18,346.81c-0.04,0-0.08,0-0.12,0c-1.38-0.06-2.45-1.23-2.38-2.61c0.05-1,0.38-3.56,2.5-5.63
					c1.12-1.09,2.33-1.67,3.39-1.97c0.05-0.6,0.09-1.19,0.11-1.79c0.11-3.02-0.17-6.05-0.83-9.05c-0.55-0.05-1.09-0.09-1.64-0.12
					c-2.88-0.13-5.8,0.16-8.66,0.85c-1.34,0.33-2.69-0.5-3.02-1.84c-0.33-1.34,0.5-2.69,1.84-3.02c3.32-0.81,6.71-1.14,10.06-0.99
					c1.27,0.06,2.55,0.19,3.82,0.38l1.61,0.25l0.42,1.58c1.06,3.99,1.53,8.07,1.38,12.13c-0.05,1.38-0.17,2.78-0.36,4.15l-0.31,2.22
					l-2.24-0.06c-0.29-0.01-1.26,0.03-2.09,0.84c-0.87,0.85-0.99,1.97-1,2.29C255.61,345.76,254.51,346.81,253.18,346.81z"/>
			</g>
		</g>
		<g>
			<g>
				<path d="M237.67,389.53c-2.2,0-3.74-0.54-7.04-1.71c-2-0.71-4.75-1.68-8.88-2.98c-1.69-0.53-3.24-1.27-4.75-1.98
					c-1.52-0.72-2.95-1.4-4.4-1.82c-1.01-0.29-3-0.87-4.24-2.83c-1.16-1.83-1.3-4.24-0.42-7.16c0.37-1.24,0.95-2.4,1.72-3.44
					c0.82-1.11,2.38-1.35,3.49-0.54c1.11,0.82,1.35,2.38,0.54,3.49c-0.43,0.59-0.76,1.24-0.97,1.94c-0.62,2.05-0.27,2.84-0.15,3.03
					c0.23,0.36,0.85,0.55,1.35,0.69c1.91,0.55,3.59,1.35,5.21,2.12c1.41,0.67,2.75,1.3,4.11,1.73c4.21,1.33,7,2.31,9.04,3.03
					c3.7,1.31,4.37,1.52,6.19,1.39c2.57-0.19,4.21-0.36,5.43-1.56c1.35-1.33,1.43-3.24,1.46-7.43c0.01-1.49,0.02-3.18,0.13-5.09
					c0.31-5.53,1.16-8.31,1.98-11c0.68-2.21,1.31-4.31,1.61-8.12c0.47-6.02-0.26-12.33-2.17-18.75c-0.39-1.32,0.36-2.72,1.68-3.11
					c1.33-0.39,2.72,0.36,3.11,1.68c2.08,7.01,2.88,13.93,2.36,20.56c-0.34,4.36-1.09,6.82-1.82,9.19
					c-0.77,2.52-1.49,4.89-1.77,9.82c-0.1,1.78-0.11,3.41-0.13,4.85c-0.03,4.53-0.06,8.11-2.95,10.96
					c-2.59,2.54-5.77,2.77-8.58,2.97C238.43,389.52,238.04,389.53,237.67,389.53z"/>
			</g>
		</g>
		<g>
			<g>
				<path d="M211.36,421.35c-1.63,0-2.89-0.85-4.42-1.88c-0.58-0.39-1.28-0.86-2.15-1.4c-0.94-0.58-4.25-2.64-7.79-5.1
					c-0.52-0.36-2.12-1.47-2.4-3.48c-0.3-2.19,1.14-3.8,1.61-4.33c2.18-2.44,6.13-9.11,7.4-14.05c0.32-1.26,0.39-2.07,0.47-2.93
					c0.11-1.29,0.23-2.62,1.14-4.74c1.02-2.36,2.53-4.5,4.47-6.36c1-0.95,2.58-0.92,3.54,0.08c0.95,1,0.92,2.58-0.08,3.53
					c-1.46,1.4-2.58,2.99-3.34,4.73c-0.59,1.37-0.65,2.09-0.75,3.18c-0.08,0.93-0.18,2.08-0.6,3.74
					c-1.53,5.97-5.99,13.32-8.49,16.11c-0.11,0.12-0.19,0.22-0.25,0.3c0.06,0.04,0.11,0.08,0.14,0.1c3.53,2.45,6.91,4.55,7.55,4.94
					c0.95,0.59,1.7,1.09,2.33,1.52c0.67,0.45,1.43,0.96,1.68,1.02c0-0.02,0.41-0.22,1.25-1.09c1.57-1.61,2.39-3.2,2.99-4.35
					c0.17-0.32,0.32-0.61,0.46-0.86c1.77-3.14,4.99-5.45,9.58-6.89c1.31-0.41,2.72,0.32,3.13,1.64c0.41,1.32-0.32,2.72-1.64,3.13
					c-3.33,1.04-5.59,2.58-6.72,4.58c-0.12,0.2-0.24,0.44-0.37,0.7c-0.7,1.36-1.76,3.41-3.85,5.55c-1.79,1.84-2.93,2.28-3.73,2.46
					C212.11,421.31,211.72,421.35,211.36,421.35z"/>
			</g>
		</g>
		<g>
			<g>
				<path d="M235.31,425.9c-1.15,0-2.44-0.24-4.04-0.55c-0.63-0.12-1.33-0.25-2.13-0.39c-1.53-0.27-2.85-0.47-3.97-0.64
					c-4.06-0.61-6.75-1.02-7.77-3.79c-0.38-1.03-0.28-1.8-0.13-2.86l0.06-0.47c0.31-2.3,0.48-4.71,0.51-7.17
					c0.02-1.37,1.13-2.47,2.5-2.47c0.01,0,0.02,0,0.03,0c1.38,0.02,2.49,1.15,2.47,2.53c-0.03,2.66-0.22,5.27-0.55,7.77l-0.07,0.49
					c-0.02,0.12-0.03,0.22-0.05,0.32c0.68,0.24,2.23,0.47,3.74,0.7c1.16,0.17,2.51,0.38,4.09,0.66c0.82,0.14,1.55,0.28,2.19,0.4
					c2.56,0.48,3.24,0.57,3.57,0.33c0.13-0.1,0.49-0.36,1.1-2.23c1.12-3.46,1.16-6.39,1.19-8.74l0-0.4
					c0.08-6.05,0.6-10.67,1.09-15.14c0.28-2.53,0.64-5.06,1.07-7.52c0.23-1.36,1.53-2.27,2.89-2.04c1.36,0.24,2.27,1.53,2.04,2.89
					c-0.41,2.37-0.75,4.79-1.02,7.21c-0.48,4.36-0.98,8.85-1.06,14.66l0,0.39c-0.03,2.55-0.07,6.03-1.43,10.22
					c-0.79,2.44-1.6,3.76-2.88,4.71C237.63,425.61,236.55,425.9,235.31,425.9z"/>
			</g>
		</g>
		<g>
			<g>
				<path d="M176.62,441.13c-1.06,0-2.05-0.68-2.38-1.75c-0.41-1.32,0.32-2.72,1.64-3.13c1.16-0.36,2.22-0.9,3.16-1.6
					c1.26-0.94,1.88-1.85,3.25-3.85l0.22-0.32c3.93-5.74,5.58-8.11,7.08-9.34c0.38-0.31,0.65-0.51,1.17-0.89
					c0.6-0.44,1.58-1.15,3.62-2.7c1.61-1.23,2.2-1.73,2.5-2.52c0.21-0.55,0.26-1.2,0.16-1.91c-0.2-1.37,0.75-2.63,2.12-2.83
					c1.37-0.19,2.63,0.75,2.83,2.12c0.22,1.55,0.08,3.02-0.42,4.37c-0.83,2.22-2.37,3.39-4.15,4.75c-2.09,1.59-3.08,2.32-3.7,2.77
					c-0.42,0.31-0.64,0.47-0.94,0.72c-1.01,0.83-3.15,3.97-6.13,8.31l-0.22,0.32c-1.48,2.17-2.46,3.6-4.39,5.04
					c-1.39,1.04-2.96,1.83-4.65,2.36C177.12,441.09,176.87,441.13,176.62,441.13z"/>
			</g>
		</g>
		<g>
			<g>
				<path d="M181.48,446c-0.33,0-0.67-0.02-1.01-0.07c-0.56-0.08-1.12-0.22-1.65-0.42c-1.29-0.49-1.94-1.93-1.46-3.22
					c0.49-1.29,1.93-1.94,3.22-1.46c0.19,0.07,0.38,0.12,0.57,0.15c0.94,0.13,1.93-0.35,3.52-1.34c2.83-1.77,4.38-3.07,4.4-3.08
					c2.57-2.18,3.76-3.36,4.72-4.3c0.93-0.92,1.74-1.72,3.31-2.95c4.07-3.16,7.09-5.06,7.21-5.14l0.22-0.14
					c1.25-0.78,2.33-1.45,2.78-2.64c0.21-0.56,0.29-1.2,0.22-1.91c-0.13-1.37,0.87-2.6,2.25-2.73c1.38-0.13,2.6,0.87,2.73,2.25
					c0.14,1.49-0.03,2.89-0.52,4.18c-1.05,2.76-3.22,4.11-4.81,5.1l-0.21,0.13c-0.03,0.02-2.94,1.85-6.8,4.85
					c-1.33,1.04-1.97,1.67-2.86,2.55c-1.02,1.01-2.28,2.27-5.01,4.57c-0.07,0.06-1.81,1.52-4.97,3.5
					C185.59,444.96,183.72,446,181.48,446z"/>
			</g>
		</g>
		<g>
			<g>
				<path d="M227.48,478.37c-1.84,0-4.15-0.69-7.12-2.09c-1.86-0.88-2.7-1.44-3.45-1.93c-0.62-0.42-1.16-0.77-2.43-1.37
					c-1.34-0.63-2.5-1.05-3.52-1.43c-2.17-0.79-4.4-1.61-4.56-4.03c-0.1-1.52,0.83-2.42,1.28-2.85c0.18-0.17,0.33-0.32,0.49-0.53
					c0.67-0.87,0.75-1.9,0.86-4.15c0.04-0.77,0.08-1.62,0.16-2.56c0.09-1.07,0.38-2.72,1.02-6.35c1.48-8.49,2.23-12.75,4.86-17.1
					c0.14-0.23,0.28-0.46,0.43-0.7c0.79-1.25,1.68-2.68,2.14-4.7c0.06-0.26,0.11-0.53,0.18-0.85c0.12-0.62,0.28-1.39,0.55-2.52
					c0.31-1.31,0.66-2.62,1.04-3.89c0.4-1.32,1.79-2.07,3.11-1.68c1.32,0.4,2.07,1.79,1.68,3.11c-0.35,1.17-0.68,2.39-0.97,3.61
					c-0.25,1.05-0.39,1.77-0.51,2.34c-0.07,0.37-0.14,0.69-0.21,0.99c-0.65,2.85-1.88,4.81-2.78,6.24
					c-0.14,0.22-0.27,0.43-0.39,0.63c-2.14,3.55-2.83,7.5-4.21,15.37c-0.57,3.27-0.89,5.07-0.96,5.92
					c-0.08,0.87-0.11,1.66-0.15,2.37c-0.12,2.41-0.22,4.52-1.59,6.54c0.08,0.03,0.16,0.06,0.24,0.09c1.07,0.39,2.39,0.88,3.92,1.59
					c1.61,0.75,2.36,1.25,3.08,1.73c0.66,0.44,1.28,0.85,2.81,1.57c1.41,0.67,2.47,1.06,3.25,1.3c-0.54-0.32-1.12-0.7-1.72-1.16
					c-3.16-2.45-4.63-5.46-5.12-6.45c-0.38-0.79-1.28-2.63-1.62-4.93c-0.42-2.89,0.1-5.8,4.11-13.67c1.52-2.98,2.85-5.33,4.54-8.31
					l0.14-0.25c1.14-2.01,3.27-5.75,4.41-8.79c0.73-1.93,1.21-3.93,1.21-3.95c0.17-0.73,0.29-1.35,0.38-1.8
					c0.24-1.36,1.54-2.26,2.9-2.02c1.36,0.25,2.26,1.55,2.02,2.9c-0.09,0.52-0.23,1.23-0.43,2.07c-0.02,0.09-0.55,2.31-1.39,4.55
					c-1.28,3.41-3.53,7.37-4.74,9.5l-0.14,0.25c-1.66,2.92-2.97,5.23-4.44,8.11c-3.71,7.29-3.83,9.21-3.62,10.68
					c0.23,1.54,0.86,2.84,1.17,3.47c0.36,0.73,1.44,2.96,3.68,4.69c0.99,0.77,1.91,1.21,2.72,1.6c1.32,0.64,3.13,1.51,3.27,3.71
					c0.13,2.04-1.41,3.65-2.9,4.47C229.41,478.15,228.52,478.37,227.48,478.37z"/>
			</g>
		</g>
		<g>
			<g>
				<path d="M187.45,392.96c-0.92,0-1.78-0.19-2.54-0.58c-0.34-0.17-1.16-0.66-1.8-1.51c-0.38,0.17-0.77,0.33-1.19,0.47
					c-1.49,0.51-3.74,1.28-5.2-0.48c-0.43-0.51-0.89-1.43-0.67-2.84c0.37-2.39,2.8-6.17,6.23-8.37c2.04-1.3,4.41-2.02,6.94-2.1
					c0.66-0.82,1.49-1.88,2.44-3.12c1.87-2.43,3.18-4.25,4.24-5.72c1.64-2.27,2.83-3.91,4.66-5.88c1.91-2.06,4.07-3.98,6.41-5.7
					c2.51-3.52,4.83-7.11,6.91-10.7c0.52-0.9,0.86-1.51,1.21-2.14c0.48-0.87,0.98-1.78,1.98-3.49c3.79-6.47,5.6-8.88,6.75-10.26
					c1.44-1.72,3.03-3.33,4.72-4.81l3.92-3.42l0.22,5.2c0.04,0.99,0.29,1.84,0.74,2.54c0.71,1.12,2.03,1.97,3.51,2.28
					c1.27,0.26,2.49,0.08,3.33-0.5c1.34-0.92,1.87-2.89,2.1-3.73c0.26-0.95,0.35-1.94,0.28-2.96c-0.09-1.38,0.95-2.57,2.32-2.66
					c1.38-0.09,2.57,0.95,2.67,2.32c0.11,1.57-0.04,3.11-0.44,4.59c-0.34,1.25-1.23,4.59-4.1,6.56c-1.96,1.34-4.57,1.81-7.17,1.27
					c-2.83-0.58-5.29-2.22-6.73-4.5c-0.09-0.14-0.18-0.29-0.26-0.43c-0.44,0.47-0.87,0.96-1.29,1.45c-1.03,1.22-2.67,3.41-6.27,9.57
					c-0.97,1.66-1.46,2.54-1.93,3.38c-0.36,0.65-0.71,1.29-1.25,2.22c-2.22,3.84-4.71,7.69-7.41,11.44l-0.24,0.33l-0.33,0.24
					c-2.21,1.59-4.23,3.37-6.01,5.29c-1.62,1.75-2.68,3.21-4.28,5.41c-1.08,1.49-2.42,3.35-4.33,5.83
					c-0.39,0.51-0.76,0.99-1.11,1.43c1.03-0.71,2.2-1.15,3.13-1.51c0.27-0.1,0.54-0.21,0.79-0.31c1.44-0.6,1.9-1.14,3.25-2.74
					c1.25-1.48,2.96-3.51,6.31-6.57c1.75-1.6,2.63-2.27,3.41-2.87c0.63-0.48,1.17-0.9,2.16-1.8c3.59-3.28,6.8-7.29,9.55-11.93
					c0.7-1.19,2.24-1.58,3.42-0.88c1.19,0.7,1.58,2.24,0.88,3.42c-3,5.07-6.52,9.47-10.48,13.08c-1.15,1.05-1.83,1.57-2.49,2.08
					c-0.73,0.56-1.49,1.14-3.08,2.59c-3.11,2.84-4.7,4.73-5.86,6.1c-1.5,1.78-2.58,3.06-5.14,4.13c-0.29,0.12-0.6,0.24-0.93,0.36
					c-0.62,0.24-2.04,0.78-2.33,1.17c0.04,0.26,0.1,0.64,0.08,1.15c-0.1,3.14-2.68,5.75-5.06,7.15
					C190.51,392.48,188.91,392.96,187.45,392.96z M186.2,383.54c0.86,0,1.45,0.48,1.79,0.88c0.33,0.38,1.28,1.76-0.15,3.5
					c0.45-0.08,1.11-0.3,1.88-0.78c1.51-0.94,2.43-2.22,2.45-2.92c0-0.1-0.02-0.17-0.03-0.24c-0.06-0.38-0.16-1.01,0.05-1.87
					c0.04-0.16,0.08-0.32,0.13-0.47l-0.78,0.97l-1.28-0.07c-1.34-0.07-3.3,0.09-5.16,1.22C185.51,383.61,185.87,383.54,186.2,383.54
					z"/>
			</g>
		</g>
		<g>
			<g>
				<path d="M214.97,367.14c-0.65,0-1.29-0.25-1.78-0.75l-5.35-5.43c-0.97-0.98-0.96-2.57,0.03-3.54c0.98-0.97,2.57-0.96,3.54,0.03
					l5.35,5.43c0.97,0.98,0.96,2.57-0.03,3.54C216.24,366.9,215.61,367.14,214.97,367.14z"/>
			</g>
		</g>
		<g>
			<g>
				<path d="M245.47,325.99c-0.72,0-1.43-0.31-1.92-0.9c-0.88-1.06-0.74-2.64,0.32-3.52c1.38-1.15,2.68-2.42,3.86-3.76
					c1.38-1.57,2.1-2.42,2.15-2.99c0.06-0.57-0.25-1.44-0.94-3.35c-0.27-0.74-0.45-1.12-0.61-1.45c-0.25-0.52-0.5-1.06-0.66-2.06
					c-0.1-0.63-0.12-1.16-0.14-1.58c0-0.06-0.01-0.13-0.01-0.2c-0.16-0.07-0.33-0.16-0.51-0.26c-1.49-0.86-2.14-2.03-2.84-3.26
					c-0.26-0.47-0.57-1.01-0.99-1.67c-0.45-0.7-0.94-1.39-1.47-2.06c-0.86-1.08-0.67-2.65,0.41-3.51c1.08-0.86,2.66-0.67,3.51,0.41
					c0.63,0.8,1.22,1.63,1.76,2.47c0.48,0.75,0.83,1.38,1.13,1.91c0.59,1.05,0.72,1.23,0.97,1.38c0.11,0.06,0.19,0.09,0.26,0.11
					c0.36,0.13,1.03,0.38,1.67,1.13c1,1.16,1.06,2.42,1.1,3.34c0.02,0.34,0.03,0.67,0.08,1.02c0.05,0.29,0.06,0.31,0.24,0.7
					c0.18,0.37,0.44,0.93,0.79,1.89c0.87,2.4,1.39,3.84,1.21,5.56c-0.22,2.19-1.47,3.62-3.37,5.79c-1.35,1.54-2.84,2.99-4.42,4.31
					C246.6,325.8,246.03,325.99,245.47,325.99z"/>
			</g>
		</g>
		<g>
			<g>
				<path d="M230.68,328.8c-0.77,0-1.48-0.35-1.95-0.93c-1.7-0.59-3.36-1.33-4.93-2.22c-2.06-1.16-12.4-7.47-13.95-18.05
					c-0.2-1.38-0.68-4.6,0.91-7.8c0.6-1.2,1.2-1.84,2.2-2.89c0.27-0.28,0.58-0.61,0.95-1c1.62-1.75,2.35-2.71,2.94-3.49
					c0.55-0.72,1.02-1.35,1.87-2.17c2.36-2.29,5.36-3.96,8.7-4.83c8.7-2.26,15.83,2.67,17.81,4.23c1.57,1.25,6.57,5.57,4.7,8.82
					c-1.17,2.05-3.47,1.6-5,1.3c-1.23-0.24-2.76-0.54-3.49,0.06c-0.23,0.18-0.37,0.42-0.61,0.85c-0.44,0.77-1.18,2.07-2.91,2.61
					c-0.46,0.15-0.91,0.21-1.33,0.22c0.4,1.44,0.53,3.07-0.47,4.49c-0.27,0.38-0.6,0.71-0.97,0.98c0.02,0.08,0.03,0.16,0.04,0.25
					c0.38,2.35-0.18,5.02-2.32,5.67c-1.69,0.52-2.85-0.64-3.29-1.07c-0.13-0.13-0.27-0.28-0.47-0.43c-0.73-0.57-1.65-0.81-1.9-0.7
					c-0.22,0.1-0.56,0.57-0.58,0.96c0.11,0.12,0.31,0.3,0.48,0.45c0.72,0.65,1.81,1.64,2.93,3.47c1.37,2.23,2.1,4.57,2.41,5.57
					c0.27,0.86,0.5,1.74,0.69,2.63c0.29,1.35-0.58,2.68-1.93,2.96C231.03,328.78,230.85,328.8,230.68,328.8z M231.97,289.83
					c-1.06,0-2.17,0.13-3.31,0.42c-2.46,0.64-4.76,1.91-6.47,3.57c-0.58,0.56-0.88,0.96-1.37,1.61c-0.62,0.82-1.47,1.94-3.25,3.87
					c-0.38,0.42-0.71,0.76-0.99,1.05c-0.89,0.94-1.09,1.15-1.34,1.66c-0.89,1.79-0.6,3.78-0.44,4.85
					c1.24,8.45,10.42,13.83,11.46,14.42c0.05,0.03,0.11,0.06,0.17,0.09c-0.19-0.39-0.41-0.79-0.65-1.18
					c-0.75-1.22-1.43-1.84-2.04-2.39c-0.88-0.81-1.99-1.81-2.1-3.78c-0.14-2.39,1.31-4.86,3.46-5.86c1.2-0.56,2.49-0.59,3.69-0.33
					c-0.56-0.65-0.91-1.27-1-1.5l-2-5.06l5.14,1.78c0.07,0.02,0.14,0.05,0.22,0.1c-0.57-1.47-1.2-3.39,0.29-4.81
					c1.52-1.45,3.41-0.53,4.12-0.19c0.2,0.1,0.54,0.26,0.76,0.33c0.05-0.09,0.11-0.19,0.16-0.28c0.33-0.59,0.84-1.47,1.8-2.26
					c1.55-1.26,3.33-1.53,4.91-1.46c-0.33-0.3-0.68-0.61-1.06-0.92C240.86,292.58,236.93,289.83,231.97,289.83z"/>
			</g>
		</g>
		<g>
			<g>
				<path d="M155.11,406.83c-1.33,0-2.62-0.23-3.77-0.62c-3.77-1.3-5.46-3.8-6.22-5.67c-0.72-1.79-0.81-3.5-0.66-4.91
					c-0.67-0.17-1.33-0.4-1.96-0.69c-7.26-3.3-8.8-12.97-9.38-16.61c-0.5-3.14-0.93-5.85,0.46-8.93c1.88-4.14,5.62-5.9,7.69-6.58
					l1.51-0.5c0.21-0.25,0.43-0.49,0.66-0.72c3.26-3.31,7.37-3.64,9.12-3.78c6.4-0.52,10.68,2.07,13.14,4.33
					c5.53,5.08,5.83,11.94,5.79,13.93l-0.04,1.82l-1.58,0.47c0.46,1.29,0.76,2.64,0.89,4.01c0.35,3.76-0.7,6.56-1.09,7.62
					c-1.24,3.32-3.23,5.65-4.97,7.18c0.02,1.59-0.28,3.71-1.59,5.66C161.19,405.7,158.07,406.83,155.11,406.83z M151.38,391
					l-1.51,3.5c-0.22,0.5-0.87,2.29-0.11,4.16c0.53,1.32,1.62,2.27,3.21,2.82c1.58,0.54,4.6,0.64,6-1.44
					c0.85-1.27,0.79-2.82,0.67-3.64l-0.2-1.46l1.18-0.88c1.39-1.05,3.28-2.91,4.37-5.81c0.31-0.83,1.04-2.79,0.79-5.41
					c-0.16-1.67-0.69-3.32-1.55-4.76l-1.63-2.75l3.79-1.13c-0.26-2.15-1.14-5.66-4.08-8.36c-1.73-1.59-4.76-3.4-9.36-3.03
					c-1.5,0.12-4.01,0.32-5.96,2.31c-0.71,0.72-1.28,1.6-1.69,2.62l-1.89,4.69l-2.38-4.03c-1.06,0.62-2.23,1.6-2.9,3.08
					c-0.74,1.64-0.55,3.13-0.08,6.08c0.46,2.91,1.7,10.66,6.51,12.84c0.92,0.42,1.96,0.63,3,0.63L151.38,391z"/>
			</g>
		</g>
		<g>
			<g>
				<path d="M147.27,395.67c-1.02,0-1.98-0.63-2.35-1.64c-0.2-0.55-0.46-1.07-0.76-1.54c-0.4-0.62-0.72-0.91-1.2-1.35
					c-0.32-0.29-0.66-0.6-1.02-0.99c-2.62-2.81-3.6-5.42-2.93-7.77c0.59-2.06,2.35-3.64,4.29-3.85c0.61-0.07,1.17,0,1.66,0.15
					c0.08-0.93,0.24-1.98,0.59-3.11c0.22-0.7,0.78-1.7,3.42-6.31c1.36-2.38,1.87-3.28,3.3-3.73c2.06-0.65,3.61,0.47,5.11,1.55
					c0.39,0.28,0.81,0.58,1.28,0.9c0.04-0.08,0.08-0.16,0.12-0.23l0.72-1.22l1.43-0.02c1.32-0.01,4.74,1.56,6.61,4.59
					c0.9,1.46,1.4,3.14,1.48,4.98c0.06,1.38-1.01,2.55-2.38,2.61c-1.36,0.06-2.55-1.01-2.61-2.39c-0.01-0.15-0.02-0.29-0.03-0.44
					l-2.67-0.97c-1.11-0.4-2.2-0.89-3.25-1.45c-1.59-0.85-2.76-1.69-3.62-2.31c-0.18-0.13-0.38-0.27-0.57-0.4
					c-0.19,0.33-0.4,0.69-0.58,1.01c-1.54,2.7-2.77,4.84-3,5.36c-0.44,1.47-0.42,2.77-0.41,3.83c0.02,1.3,0.05,3.48-2.02,4.26
					c-1.87,0.7-3.27-0.66-3.87-1.24c-0.06-0.06-0.13-0.12-0.2-0.19c-0.01,0.04-0.17,0.89,1.78,2.99c0.26,0.28,0.5,0.5,0.73,0.71
					c0.6,0.55,1.28,1.16,2.03,2.33c0.51,0.78,0.93,1.64,1.26,2.53c0.48,1.3-0.19,2.73-1.49,3.21
					C147.85,395.62,147.55,395.67,147.27,395.67z"/>
			</g>
		</g>
		<g>
			<g>
				<path d="M172.96,442.8c-1.17,0-2.21-0.82-2.45-2.02c-0.91-4.57-1.07-8.62-0.48-12.02c0.04-0.24,0.09-0.48,0.13-0.73
					c0.25-1.31,0.48-2.54,0.11-4.05c-0.12-0.49-0.27-0.85-0.42-1.24c-0.33-0.84-0.75-1.88-0.49-3.33c0.5-2.85,2.94-4.3,4.55-5.26
					c2.36-1.4,4.09-1.76,5.25-2c-0.38-1.08-1.46-3.45-4.39-8.64c-3.04-5.37-3.75-6.08-4.74-6.51c-1.25-0.54-2.73-0.55-4.41-0.04
					c-1.32,0.4-2.72-0.35-3.12-1.67c-0.4-1.32,0.35-2.72,1.67-3.12c2.81-0.85,5.52-0.77,7.85,0.24c2.56,1.11,3.88,2.93,7.11,8.64
					c5.46,9.65,5.94,11.83,4.66,13.88c-0.99,1.58-2.5,1.89-3.6,2.12c-0.97,0.2-2.07,0.42-3.71,1.4c-0.78,0.46-2.08,1.24-2.18,1.83
					c0.01,0.1,0.13,0.4,0.21,0.61c0.18,0.45,0.43,1.07,0.63,1.89c0.64,2.57,0.24,4.66-0.05,6.19c-0.04,0.22-0.08,0.43-0.12,0.64
					c-0.48,2.8-0.33,6.23,0.46,10.21c0.27,1.35-0.61,2.67-1.97,2.94C173.28,442.79,173.12,442.8,172.96,442.8z"/>
			</g>
		</g>
		<g>
			<g>
				<path d="M175.12,443.3c-0.26,0-0.53-0.04-0.8-0.13c-1.31-0.44-2.01-1.86-1.57-3.17c0.68-2.01,1.45-4.05,2.29-6.04
					c0.96-2.29,1.75-3.93,2.39-5.24c0.99-2.03,1.48-3.06,1.68-4.52c0.3-2.29-0.29-4.85-1.75-7.58c-0.65-1.22-0.19-2.73,1.03-3.38
					c1.22-0.65,2.73-0.19,3.38,1.03c1.96,3.67,2.73,7.24,2.29,10.59c-0.3,2.27-1.07,3.86-2.14,6.05c-0.61,1.26-1.38,2.83-2.28,4.99
					c-0.79,1.89-1.52,3.81-2.16,5.71C177.13,442.64,176.16,443.3,175.12,443.3z"/>
			</g>
		</g>
		<g>
			<g>
				<path d="M171.84,423.34c-0.91,0-1.78-0.49-2.22-1.35c-0.88-1.7-1.51-3.51-1.87-5.38c-0.52-2.69-0.5-5.43,0.08-8.14
					c0.29-1.35,1.62-2.21,2.96-1.93c1.35,0.29,2.21,1.61,1.93,2.96c-0.43,2.06-0.46,4.13-0.06,6.16c0.27,1.41,0.75,2.76,1.4,4.04
					c0.63,1.23,0.15,2.73-1.07,3.37C172.62,423.26,172.23,423.34,171.84,423.34z"/>
			</g>
		</g>
		<g>
			<g>
				<path d="M171.89,440.61c-0.74,0-1.47-0.33-1.96-0.95c-0.55-0.7-1.18-1.24-1.88-1.63c-1.23-0.68-2.42-0.74-4.64-0.61
					c-3.44,0.2-5.41,0.54-6.72,0.76c-1.74,0.3-3,0.51-4.79-0.25c-2.21-0.95-3-2.45-3.58-3.54c-0.47-0.89-0.88-1.65-2.22-2.57
					c-1.74-1.18-4.77-2.36-8.04-2.12c-0.83,0.06-1.39,0.19-1.88,0.3c-0.88,0.21-2.35,0.55-3.71-0.62c-2.16-1.86-1.37-4.55-0.06-9
					c0.61-2.08,1.38-4.67,2.15-7.98c0.35-1.48,0.57-2.56,0.74-3.41c0.38-1.87,0.59-2.9,1.42-4.53c1.77-3.45,4.61-6.26,8.42-8.32
					c1.21-0.66,2.73-0.21,3.39,1.01c0.66,1.21,0.21,2.73-1,3.39c-2.91,1.58-5.05,3.67-6.36,6.21c-0.52,1.01-0.62,1.53-0.97,3.24
					c-0.18,0.88-0.41,2-0.77,3.55c-0.8,3.44-1.59,6.11-2.22,8.25c-0.32,1.1-0.65,2.21-0.86,3.07c0.39-0.06,0.83-0.12,1.34-0.16
					c3.88-0.28,8.06,0.83,11.22,2.97c2.37,1.61,3.21,3.2,3.83,4.35c0.46,0.87,0.57,1.05,1.14,1.29c0.38,0.16,0.42,0.18,1.97-0.08
					c1.42-0.24,3.55-0.61,7.27-0.82c2.54-0.15,4.85-0.16,7.35,1.23c1.28,0.71,2.41,1.69,3.38,2.9c0.86,1.08,0.67,2.66-0.41,3.51
					C172.98,440.43,172.43,440.61,171.89,440.61z M136.12,426.24L136.12,426.24L136.12,426.24z"/>
			</g>
		</g>
		<g>
			<g>
				<path d="M148.31,432.04c-0.04,0-0.08,0-0.13,0c-1.38-0.07-2.44-1.24-2.37-2.62s0.01-2.77-0.18-4.13
					c-0.66-4.72-2.38-8.45-5.11-11.07c-0.94-0.9-2-1.67-3.16-2.29c-1.21-0.66-1.67-2.17-1.01-3.39c0.65-1.21,2.17-1.67,3.39-1.01
					c1.56,0.84,2.99,1.88,4.25,3.09c3.57,3.42,5.79,8.13,6.61,13.99c0.23,1.67,0.31,3.38,0.22,5.07
					C150.74,431,149.64,432.04,148.31,432.04z"/>
			</g>
		</g>
		<g>
			<g>
				<path d="M150.67,437.56c-0.01,0-0.02,0-0.03,0c-1.74-0.02-3.48-0.2-5.18-0.54c-2.56-0.52-5.21-1.05-7.76-3.14
					c-1.41-1.15-2.57-2.61-3.46-4.32c-0.64-1.23-0.16-2.73,1.07-3.37c1.22-0.64,2.74-0.16,3.37,1.07c0.58,1.11,1.31,2.04,2.19,2.76
					c1.58,1.3,3.35,1.65,5.58,2.1c1.39,0.28,2.82,0.43,4.25,0.45c1.38,0.01,2.49,1.15,2.47,2.53
					C153.15,436.46,152.04,437.56,150.67,437.56z"/>
			</g>
		</g>
		<g>
			<g>
				<path d="M164.43,446.91c-2.09,0-3.34-0.68-4.44-1.29c-0.81-0.44-1.57-0.86-2.96-1.19c-0.78-0.18-1.01-0.18-2.28-0.15
					c-0.98,0.02-2.45,0.06-4.94,0c-6.55-0.14-8.12-0.59-9.48-1.89c-1.35-1.28-2.85-3.85-2.31-8.81c0.15-1.37,1.38-2.37,2.75-2.22
					c1.37,0.15,2.36,1.38,2.22,2.75c-0.28,2.61,0.22,4.11,0.78,4.64c0.23,0.12,1.31,0.42,6.15,0.52c2.38,0.05,3.78,0.02,4.72,0
					c1.43-0.03,2.15-0.05,3.55,0.28c2.04,0.48,3.3,1.17,4.21,1.67c0.9,0.49,1.23,0.68,2.07,0.67c0.96-0.01,1.86-0.29,2.53-0.61
					c-0.54-0.41-1.2-0.95-1.95-1.67c-0.74-0.71-1.45-1.48-2.1-2.29c-0.87-1.07-0.7-2.65,0.37-3.52c1.07-0.87,2.65-0.7,3.52,0.37
					c0.52,0.64,1.08,1.25,1.67,1.82c0.93,0.89,1.64,1.4,2.22,1.82c0.94,0.67,2.11,1.51,2.18,3.2c0.03,0.74-0.16,1.87-1.27,3.03
					c-1.59,1.68-4.46,2.81-7.13,2.83C164.47,446.91,164.45,446.91,164.43,446.91z"/>
			</g>
		</g>
		<g>
			<g>
				<path d="M165.15,469.99c-0.82,0-1.65-0.09-2.49-0.28c-1.11-0.25-4.07-0.9-5.92-3.67c-0.67-1-1.11-2.15-1.31-3.4
					c-2.7,0.2-5.75,0.01-8.94-0.99c-2.9-0.91-9.68-3.04-10.99-9.15c-0.74-3.47,0.49-7.36,3-9.45c2.67-2.23,6.68-2.19,13.39,0.12
					c5.68,1.96,11.18,4.88,16.37,8.69c1.44-1.16,3.14-2.58,5.24-4.34c0.55-0.46,1.04-0.88,1.49-1.26c2.18-1.86,3.62-3.09,6.2-4.4
					c3.22-1.63,7.63-3.88,12.1-1.77c3.09,1.46,6.06,5.03,5.74,9.05c-0.26,3.28-2.63,5.3-5.71,7.61c-5.26,3.94-9.97,6.42-16.81,9.61
					C171.85,468.53,168.5,469.99,165.15,469.99z M160.36,461.8c0.07,0.48,0.23,1,0.54,1.46c0.68,1.01,1.82,1.34,2.84,1.57
					c2.57,0.57,5.22-0.48,10.66-3.01c6.69-3.12,10.98-5.38,15.92-9.08c3.04-2.28,3.66-3.17,3.72-4c0.13-1.59-1.39-3.42-2.88-4.12
					c-2.26-1.06-5.15,0.41-7.7,1.7c-2.05,1.04-3.17,2-5.21,3.74c-0.46,0.39-0.96,0.82-1.52,1.29c-2.28,1.91-4.1,3.44-5.68,4.7
					c-0.09,0.29-0.23,0.56-0.43,0.81c-0.48,0.6-1.18,0.93-1.89,0.95c-1.39,1-2.62,1.76-3.91,2.37
					C164.02,460.57,162.45,461.24,160.36,461.8z M143.57,446.42c-0.8,0-1.46,0.14-1.87,0.48c-1.09,0.91-1.67,2.91-1.31,4.57
					c0.7,3.27,5.36,4.73,7.59,5.43c7,2.19,13.45-0.63,14.67-1.21c0.44-0.21,0.88-0.45,1.33-0.72c-4.39-3.06-8.99-5.42-13.72-7.05
					C148.41,447.27,145.57,446.42,143.57,446.42z"/>
			</g>
		</g>
		<g>
			<g>
				<path d="M147.21,469.92c-0.03,0-0.05,0-0.08,0c-6.42-0.2-11.19-2.96-11.86-6.89c-0.28-1.66-0.03-4.05,1.54-5.81
					c0.9-1.01,2.1-1.68,3.48-1.97c1.35-0.28,2.67,0.6,2.95,1.95c0.28,1.35-0.6,2.67-1.95,2.95c-0.22,0.04-0.53,0.15-0.75,0.39
					c-0.43,0.48-0.39,1.37-0.34,1.64c0.16,0.91,2.66,2.6,7.08,2.74c1.38,0.04,2.46,1.19,2.42,2.57
					C149.67,468.85,148.56,469.92,147.21,469.92z"/>
			</g>
		</g>
		<g>
			<g>
				<path d="M189.06,468.78c-0.79,0-1.56-0.37-2.05-1.06c-0.79-1.13-0.52-2.69,0.6-3.48c0.51-0.36,2.22-1.73,2.55-4.15
					c0.21-1.49-0.19-2.73-0.55-3.51c-0.58-1.25-0.04-2.74,1.21-3.32s2.74-0.04,3.32,1.21c0.65,1.39,1.35,3.61,0.97,6.31
					c-0.61,4.41-3.7,6.9-4.63,7.55C190.06,468.64,189.56,468.78,189.06,468.78z"/>
			</g>
		</g>
		<g>
			<g>
				<path d="M180.57,447.22c-0.37,0-0.75-0.08-1.1-0.26c-2.48-1.22-4.94-2.58-7.3-4.03c-2.59-1.59-5.14-3.34-7.57-5.19
					c-1.1-0.84-1.31-2.41-0.47-3.5c0.84-1.1,2.41-1.31,3.5-0.47c2.3,1.75,4.71,3.4,7.16,4.91c2.23,1.37,4.55,2.65,6.89,3.81
					c1.24,0.61,1.75,2.11,1.14,3.35C182.38,446.7,181.49,447.22,180.57,447.22z"/>
			</g>
		</g>
		<g>
			<g>
				<path d="M208.32,469.92C208.32,469.92,208.32,469.92,208.32,469.92l-178.89-0.57c-1.38,0-2.5-1.13-2.49-2.51
					c0-1.38,1.12-2.49,2.5-2.49c0,0,0,0,0.01,0l178.88,0.57c1.38,0,2.5,1.13,2.49,2.51C210.82,468.8,209.7,469.92,208.32,469.92z"/>
			</g>
		</g>
		<g>
			<g>
				<path d="M240.65,468.97h-17.33c-1.38,0-2.5-1.12-2.5-2.5s1.12-2.5,2.5-2.5h17.33c1.38,0,2.5,1.12,2.5,2.5
					S242.03,468.97,240.65,468.97z"/>
			</g>
		</g>
		<g>
			<g>
				<path d="M264.65,469.7h-16.99c-1.38,0-2.5-1.12-2.5-2.5s1.12-2.5,2.5-2.5h16.99c1.38,0,2.5,1.12,2.5,2.5
					S266.03,469.7,264.65,469.7z"/>
			</g>
		</g>
		<g>
			<g>
				<path d="M305.92,468.85h-31.46c-1.38,0-2.5-1.12-2.5-2.5s1.12-2.5,2.5-2.5h31.46c1.38,0,2.5,1.12,2.5,2.5
					S307.3,468.85,305.92,468.85z"/>
			</g>
		</g>
		<g>
			<g>
				<path d="M362.83,469.49h-33.55c-1.38,0-2.5-1.12-2.5-2.5s1.12-2.5,2.5-2.5h33.55c1.38,0,2.5,1.12,2.5,2.5
					S364.21,469.49,362.83,469.49z"/>
			</g>
		</g>
		<g>
			<g>
				<path d="M516.16,468.92H371.58c-1.38,0-2.5-1.12-2.5-2.5s1.12-2.5,2.5-2.5h144.58c1.38,0,2.5,1.12,2.5,2.5
					S517.54,468.92,516.16,468.92z"/>
			</g>
		</g>
		<g>
			<g>
				<path d="M286.09,303.41c-0.15,0-0.3-0.01-0.46-0.04c-1.36-0.25-2.25-1.56-2-2.91c1.83-9.89,3.15-20.02,3.92-30.13
					c1.4-18.46,0.62-32.65,0.25-39.46l-0.07-1.37c-1.21-22.97,0.06-49.1,3.79-77.67c0.18-1.37,1.44-2.33,2.8-2.16
					c1.37,0.18,2.33,1.43,2.16,2.8c-3.69,28.27-4.95,54.09-3.75,76.76l0.07,1.36c0.38,6.92,1.17,21.33-0.26,40.12
					c-0.78,10.28-2.12,20.6-3.99,30.66C288.32,302.57,287.27,303.41,286.09,303.41z"/>
			</g>
		</g>
		<g>
			<g>
				<path d="M287.62,302.51c-0.17,0-0.35-0.02-0.52-0.05c-1.35-0.29-2.21-1.61-1.93-2.97c0.85-3.99,1.39-8.09,1.61-12.17
					c0.47-8.71-0.57-15.52-1.53-20.49c-2.16-11.17-10.79-50.28-24.76-107.68c-0.33-1.34,0.5-2.69,1.84-3.02
					c1.35-0.33,2.69,0.5,3.02,1.84c13.99,57.48,22.65,96.7,24.81,107.91c1.01,5.25,2.11,12.46,1.61,21.71
					c-0.23,4.34-0.81,8.69-1.71,12.94C289.81,301.71,288.77,302.51,287.62,302.51z"/>
			</g>
		</g>
		<g>
			<g>
				<path d="M288.61,293.29c-0.13,0-0.25-0.01-0.38-0.03c-1.36-0.21-2.3-1.49-2.09-2.85c1.14-7.45,2.37-15.06,3.64-22.62
					c2.44-14.5,5.78-34.3,10.53-56.18c4.34-20.01,9.57-40.31,15.54-60.36c0.39-1.32,1.79-2.08,3.11-1.68
					c1.32,0.39,2.08,1.79,1.68,3.11c-5.93,19.92-11.13,40.11-15.44,59.99c-4.73,21.76-8.05,41.51-10.48,55.92
					c-1.27,7.57-2.5,15.15-3.64,22.58C290.89,292.4,289.82,293.29,288.61,293.29z"/>
			</g>
		</g>
		<g>
			<g>
				<path d="M327.88,154.5c-2.17,0-4.3-0.38-6.37-1.13c-6.06-2.21-9.39-6.85-10.84-9.43c-0.68-1.2-0.25-2.73,0.95-3.41
					c1.2-0.68,2.73-0.25,3.41,0.95c1.11,1.97,3.65,5.53,8.2,7.18c5.51,2.01,10.2-0.15,11.75-0.87c9.26-4.26,11.47-15.57,11.69-16.85
					c1.21-6.97-0.14-19.11-8.83-24.01c-5.29-2.99-10.95-1.97-13.86-1.1c-1.32,0.4-2.72-0.35-3.11-1.68
					c-0.4-1.32,0.35-2.72,1.68-3.11c3.66-1.1,10.84-2.36,17.75,1.54c10.24,5.78,13.03,19.2,11.29,29.22
					c-0.27,1.54-2.96,15.2-14.53,20.53C333.94,153.78,330.87,154.5,327.88,154.5z"/>
			</g>
		</g>
		<g>
			<g>
				<path d="M296.57,153.75c-1.79,0-3.73-0.26-5.72-0.94v0c-7.29-2.48-10.7-8.89-12.53-12.33c-5.01-9.4-5.66-20.78-1.73-30.44
					c3.34-8.22,9.17-14.47,16.41-17.59c9.2-3.96,22.46-4.2,29.85,4.66c7.58,9.08,4.14,21.95,2.29,28.87
					c-3.39,12.68-9.9,21.47-18.82,25.43C304.66,152.15,301.04,153.75,296.57,153.75z M292.46,148.08c5.11,1.74,9.82-0.35,11.83-1.24
					c7.5-3.32,13.04-10.98,16.02-22.15c1.73-6.46,4.62-17.28-1.3-24.37c-6.14-7.35-17.73-5.99-24.03-3.27
					c-8.13,3.51-12.11,10.83-13.76,14.88c-3.38,8.3-2.81,18.1,1.51,26.2C284.34,141.17,287.05,146.24,292.46,148.08L292.46,148.08z"
					/>
			</g>
		</g>
		<g>
			<g>
				<path d="M262.34,161.73c-1.81,0-3.25-0.7-3.96-1.97c-0.55-0.98-0.6-2.15-0.16-3.4c-0.24,0.02-0.49,0.03-0.73,0.03
					c-8.14,0-15.82-12.59-16.7-14.08c-1.75-2.97-6.41-10.84-4.9-21.17c0.48-3.32,2.86-14.59,13.12-20.24
					c8.15-4.48,18.34-3.89,25.35,1.48c2.37,1.81,4.37,4.15,5.92,6.93c0.67,1.21,0.24,2.73-0.96,3.4c-1.2,0.67-2.73,0.24-3.4-0.96
					c-1.22-2.18-2.76-3.99-4.59-5.39c-5.47-4.18-13.47-4.61-19.91-1.07c-8.24,4.53-10.18,13.83-10.58,16.58
					c-1.25,8.58,2.61,15.12,4.26,17.91c3.56,6.02,9.31,12,12.71,11.6l0.17-0.02c1.03-0.14,3.44-0.46,5.98,0.85
					c1.84,0.95,4.76,3.31,4,6.16c-0.55,2.07-2.77,3.06-4.66,3.3C262.96,161.71,262.64,161.73,262.34,161.73z"/>
			</g>
		</g>
		<g>
			<g>
				<path d="M261.48,157.72c-1.32,0-2.42-1.04-2.5-2.37c-0.07-1.38,0.99-2.55,2.37-2.63c2.59-0.14,7.6-0.96,12.02-4.93
					c2.23-2,4.04-4.6,5.25-7.5c0.53-1.28,1.99-1.88,3.27-1.35c1.28,0.53,1.88,1.99,1.35,3.27c-1.49,3.59-3.74,6.8-6.52,9.3
					c-5.57,5.01-11.85,6.04-15.1,6.21C261.57,157.72,261.53,157.72,261.48,157.72z"/>
			</g>
		</g>
		<g>
			<g>
				<path d="M293.17,158.71c-0.05,0-0.1,0-0.15,0c-2.55-0.04-4.42-1.07-4.98-2.76c-0.71-2.1,0.76-4.45,4.12-6.61l1.47-0.95
					l1.39,1.06c2.79,2.13,3.96,4.52,3.21,6.54C297.58,157.7,295.7,158.71,293.17,158.71z"/>
			</g>
		</g>
		<g>
			<g>
				<path d="M320.05,155.73c-0.6,0-1.32-0.11-2.17-0.4c-1.21-0.41-4.03-1.62-3.99-4.12c0.02-0.96,0.49-1.87,1.33-2.55
					c1.11-0.89,2.67-1.28,4.08-1l0,0c1.63,0.32,3.06,1.57,3.71,3.24c0.52,1.33,0.43,2.63-0.25,3.56
					C322.38,155.01,321.57,155.73,320.05,155.73z M318.36,152.57c0.01,0,0.02,0,0.02,0h0c0.07-0.05,0.49-0.51,0.52-1.25
					c-0.06,0.06-0.11,0.13-0.16,0.2C318.44,151.92,318.36,152.33,318.36,152.57z"/>
			</g>
		</g>
		<g>
			<g>
				<path d="M410.12,223.22c-0.19,0-0.39-0.02-0.61-0.06c-2.31-0.43-2.83-2.95-3.21-4.79c-0.04-0.2-0.08-0.38-0.1-0.56
					c-0.61,0.48-1.23,0.95-1.88,1.4c-1.13,0.79-2.69,0.52-3.48-0.62c-0.79-1.13-0.52-2.69,0.62-3.48c0.49-0.34,0.97-0.7,1.44-1.06
					c-1.6-0.44-3.35-1.2-3.85-3.22c-0.66-2.67,1.76-5.68,4.38-6.58c0.84-0.29,1.57-0.33,2.18-0.29c0-0.01,0-0.03,0-0.04
					c-0.07-1.01-0.17-2.27,0.07-3.68c0.49-2.86,2.23-5.48,5.17-7.78l2.85-2.23l1.08,3.46c2.03,6.52,2.11,8.74,2.06,9.39
					c-0.1,1.16-0.38,2.17-0.8,3.13c3.46-0.1,7.04,0.79,9.19,2.4c1.54,1.16,1.97,2.43,2.05,3.29c0.13,1.33-0.42,2.69-1.59,3.92
					c-1.47,1.55-4.2,3.06-7,2.93c-1.57-0.07-2.59-0.63-3.26-1c-0.08-0.04-0.17-0.09-0.25-0.13c-0.46,0.31-1.16,1.74-1.44,2.31
					C413.07,221.25,412.1,223.22,410.12,223.22z M410.87,213.43c0.15,0.44,0.21,0.84,0.23,1.19c0.78-0.92,1.79-1.69,3.14-1.97
					c1.67-0.35,2.86,0.3,3.57,0.69c0.48,0.26,0.69,0.37,1.09,0.39c1.18,0.05,2.48-0.71,3.09-1.31c-1.22-0.75-4.44-1.65-7.65-1.03
					c-0.55,0.1-1.09,0.26-1.62,0.45c-0.21,0.08-0.42,0.13-0.63,0.15C411.7,212.49,411.29,212.97,410.87,213.43z M404.52,209.3
					c0.2,0.05,0.4,0.1,0.57,0.14c0.63,0.15,1.37,0.33,2.12,0.6c0.3-0.34,0.6-0.68,0.88-1.03c-0.98,0.32-1.88,0.13-2.37,0.02
					c-0.44-0.09-0.52-0.1-0.66-0.05C404.88,209.04,404.69,209.16,404.52,209.3z M411.21,199.41c-0.3,0.55-0.5,1.11-0.6,1.67
					c-0.14,0.81-0.08,1.66-0.02,2.47c0.05,0.63,0.1,1.37,0.02,2.1c0.78-1.15,1.13-1.95,1.23-2.93
					C411.84,202.52,411.77,201.61,411.21,199.41z M411.86,202.64c0,0,0,0.02-0.01,0.07C411.85,202.68,411.86,202.66,411.86,202.64
					L411.86,202.64z"/>
			</g>
		</g>
		<g>
			<g>
				<path d="M175.49,231.8c-0.19,0-0.39-0.02-0.61-0.06c-2.3-0.43-2.82-2.94-3.2-4.77c-0.04-0.2-0.08-0.39-0.11-0.57
					c-0.61,0.48-1.23,0.95-1.88,1.4c-1.13,0.79-2.69,0.52-3.48-0.62c-0.79-1.13-0.52-2.69,0.62-3.48c0.49-0.34,0.97-0.7,1.44-1.06
					c-1.6-0.44-3.35-1.2-3.85-3.22c-0.66-2.67,1.76-5.68,4.37-6.58c0.84-0.29,1.58-0.33,2.18-0.29c0-0.01,0-0.03,0-0.04
					c-0.07-1.01-0.17-2.27,0.07-3.68c0.49-2.86,2.22-5.48,5.17-7.78l2.85-2.23l1.08,3.46c2.03,6.52,2.11,8.74,2.06,9.39
					c-0.1,1.17-0.38,2.17-0.8,3.13c3.46-0.1,7.04,0.79,9.19,2.4c1.54,1.16,1.97,2.43,2.05,3.29c0.13,1.33-0.42,2.69-1.59,3.92
					c-1.47,1.55-4.2,3.05-7,2.93c-1.57-0.07-2.59-0.63-3.26-1c-0.08-0.04-0.17-0.09-0.25-0.13c-0.46,0.31-1.16,1.74-1.44,2.31
					C178.44,229.83,177.48,231.8,175.49,231.8z M176.24,222.02c0.15,0.44,0.21,0.83,0.23,1.19c0.78-0.92,1.79-1.69,3.14-1.97
					c1.67-0.35,2.86,0.3,3.57,0.69c0.48,0.26,0.7,0.37,1.1,0.39c1.19,0.05,2.48-0.71,3.09-1.31c-1.22-0.75-4.44-1.65-7.65-1.03
					c-0.55,0.1-1.09,0.26-1.62,0.45c-0.21,0.08-0.42,0.13-0.63,0.15C177.07,221.07,176.67,221.55,176.24,222.02z M169.89,217.88
					c0.2,0.05,0.4,0.1,0.57,0.14c0.63,0.15,1.37,0.33,2.12,0.6c0.3-0.34,0.6-0.68,0.89-1.03c-0.97,0.32-1.88,0.13-2.37,0.02
					c-0.44-0.09-0.52-0.1-0.66-0.05C170.25,217.62,170.06,217.74,169.89,217.88z M176.59,208c-0.3,0.55-0.5,1.11-0.6,1.67
					c-0.14,0.81-0.08,1.66-0.02,2.48c0.05,0.63,0.1,1.37,0.02,2.1c0.78-1.15,1.13-1.95,1.23-2.93
					C177.21,211.11,177.14,210.19,176.59,208z M177.23,211.22c0,0,0,0.02-0.01,0.07C177.23,211.27,177.23,211.24,177.23,211.22z"/>
			</g>
		</g>
	</g>
</g>
<g id="Layer_20">
</g>
<g id="Layer_21">
</g>
<g id="Layer_22">
</g>
<g id="Layer_23">
</g>
<g id="Layer_24">
</g>
<g id="Layer_25">
</g>
<g id="Layer_26">
</g>
<g id="Layer_27">
</g>
<g id="Layer_28">
</g>
<g id="Layer_29">
</g>
<g id="Layer_30">
</g>
<g id="Layer_31">
</g>
<g id="Layer_32">
</g>
<g id="Layer_33">
</g>
<g id="Layer_34">
</g>
<g id="Layer_35">
</g>
<g id="Layer_36">
</g>
<g id="Layer_37">
</g>
<g id="Layer_38">
</g>
<g id="Layer_39">
</g>
<g id="Layer_40">
</g>
<g id="Layer_41">
</g>
<g id="Layer_42">
</g>
</svg>
