<svg xmlns="http://www.w3.org/2000/svg" viewBox="0 0 528.571 512.357"><defs><style>.cls-1{fill:#616060;}.cls-2{fill:#8d8989;}.cls-3{fill:#ececec;}.cls-4{fill:#050606;}.cls-5{fill:#1f191a;}.cls-6{fill:#e2e5e5;}.cls-7{fill:#181818;}.cls-8{fill:#f0f1f1;}.cls-9{fill:#1d191a;}.cls-10{fill:#e5e6e6;}</style></defs><title>icon</title><g id="Layer_20" data-name="Layer 20"><path class="cls-1" d="M524.571,4.084V520.37H4V4.084H524.571m4-4H0V524.37H528.571V.084Z"/><path class="cls-2" d="M525.267,521.455H4V3.865H525.267ZM34,491.455H495.267V33.865H34Z"/><path class="cls-3" d="M239.4,255.576c-.347,1.3,4.869,2.228,5.738,2.228s8.17-1.117,10.433-1.3,9.037-.185,11.471,0a24.174,24.174,0,0,0,8.344-.926c1.91-.746,4-2.045,5.735-.376a9.9,9.9,0,0,0,3.652,2.231s-9.038-42.326-6.779-80.939-1.737-48.08-4-51.422c-10.431-.37-26.772,0-26.772,0a7.011,7.011,0,0,0-2.954,4.456c-.522,2.969-.349,30.816.173,37.684s.871,38.613,0,47.895S239.751,254.274,239.4,255.576Z"/><path class="cls-4" d="M241.834,108.364c.8,1.36,2.262,1.112,2.435,3.527s1.391,10.21,2.954,13.179l-.348,4.268s5.042,5.2,7.128,7.056a59.963,59.963,0,0,0,6.257,4.456s5.565-4.085,10.083-7.612,3.825-5.2,3.825-6.681a3.381,3.381,0,0,0-.695-2.23c.695-2.226,1.215-7.983,2.262-9.1a38.685,38.685,0,0,0,5.04-6.31,19.073,19.073,0,0,0,1.39-8.911c-.346-1.484-1.563-.744-1.044-1.672a10.389,10.389,0,0,0,.7-5.011c-.171-1.858.175-1.3,1.219-5.2s-.175-4.639-.871-8.539a13.872,13.872,0,0,0-4.691-7.795c-1.22-.928,0-2.415,0-2.415a3.892,3.892,0,0,1-2.786-1.3,2.021,2.021,0,0,1,.178-2.6,7.9,7.9,0,0,1-2.261,1.3c-.871.185-4-2.971-5.041-3.712s-.348.928-1.392.928a29.676,29.676,0,0,0-6.258-.187c-2.784.37-7.128,3.712-8.346,4.455s-1.217-.558-1.737-.558,0,1.3-1.044,1.86-5.389,5.754-6.779,7.609-1.215,11.139-.871,15.224,1.217,3.339.175,4.456S241.276,107.421,241.834,108.364Z"/><path class="cls-5" d="M219.427,203.971a1.74,1.74,0,0,1,.329-.375S219.629,203.728,219.427,203.971Z"/><path class="cls-4" d="M192.116,250.562c.868,2.6-.522,6.869.173,8.726s3.132,7.61,3.825,10.208.869,7.612,2.608,9.469a6.563,6.563,0,0,0,4.487,1.8s.034-7.552,2.813-10.15a43.182,43.182,0,0,0,3.825-3.9s-5.736,10.025-4.692,11.882,5.211,9.489,6.872,11.375c0,0,.209,5.247.209,5.988a65.253,65.253,0,0,1-.474,10.112c-.7,5.384-.871,24.5-.522,30.443s2.259,18,2.259,25.99-.347,23.019,1.39,25.805-2.607,6.31-2.432,10.951.695,34.158.695,39.354,3.477,20.05,2.781,21.722-1.741,6.866-.87,8.909c0,0-8.344,2.042-8.171,4.643s1.391,10.025,2.26,11.878c0,0-1.564,4.27-3.13,5.2s-4,.929-4,3.71-2.259,2.971-.87,3.156c0,0-2.784,1.487,23.644,1.487,0,0,2.608-1.3,3.65-.744a6.136,6.136,0,0,0,3.825.929h3.652a25.646,25.646,0,0,0-1.044-7.98s7.645-3.9,6.43-15.224c-1.739-4.828-4.693-2.413-1.388-12.067,0,0,7.3-88.921,7.3-100.06.7-4.641,2.782-6.5,3.3-13.55,0,0,3.3-35.83,4.693-38.613,0,0,.522-4.641,4.345,12.253s6.433,18.375,6.782,38.983a57.741,57.741,0,0,0,2.259,8.353c1.218,2.969.347,13,2.262,19.492s2.605,8.353,3.3,11.7-.868,4.27-1.217,6.5.7,3.712.7,7.795-.349,7.426.346,9.1-.173,3.344-.346,5.942-3.306,25.805-2.435,28.959,1.737,4.643,7.824,10.581c0,0-.871,2.415-1.742,4.643a28.73,28.73,0,0,0-1.561,7.239c-.174,2.043-1.393,4.641.695,6.869s1.217,3.527,1.217,4.085-2.959,3.154-1.564,4.082,25.555,0,25.555,0a33.814,33.814,0,0,0,0-4.27c-.176-1.111-2.437-8.167-2.781-10.393a6.527,6.527,0,0,0,2.083-4.27c0-2.413-1.564-2.786-1.042-4.271s3.824-.558,7.475-24.135-2.432-48.821-3.651-66.458-2.086-77.409-2.26-93.932c0,0,4.521-7.239,7.3-10.023s0-12.067,0-14.665,4.172,2.413,5.562,5.011c.869,1.624,4.3,1.826,5.5,3.154l.52.837s8.146-8.911,9.19-11.7,3.13-8.632,4.694-10.581,0-13.922.522-20.606-.785-9.745-1.826-13.364-5.476-19.492-5.736-24.226S316.761,161.27,316.5,157.929s-3.387-5.57-3.127-7.518-1.3-4.735-1.3-4.735-30.511-9.467-32.594-11.974-3.652-4.176-3.652-4.176.784,8.911.784,13.645-1.828,84.649,7.562,113.61c0,0-2.871-3.621-4.954-3.9s-5.738,3.063-10.432,2.507a67.044,67.044,0,0,0-16.691.556c-4.689.837-11.471-.556-11.471-.556s4.432-26.454,4.954-44.553,0-49.009-.782-62.1-.173-17.914.7-22.182c0,0-2.086,4.641-3.13,5.2s-23.988,7.053-31.29,10.21c0,0-2.954.183-2.954,1.3a24.232,24.232,0,0,1-1.391,7.054c-.871,1.857-4.867,13.367-4.172,16.15s.869,4.641-.522,8.538-3.3,20.423-4.347,25.064-2.779,14.478-4,18.007,0,13.552-1.217,17.077.348,4.641.173,6.127S191.245,247.964,192.116,250.562Zm111.606-45.576a37.573,37.573,0,0,1,6.606,6.963c0,.676.748,6.207,2.086,13.179,1.289,6.722-.087,4.985.175,6.871.342,2.492,1.4,1.1,1.3,8.353-.019,1.621-5.474,10.86-5.474,10.86l-2.959,7.982a225.1,225.1,0,0,1-3.562-23.856C300.332,220.3,303.077,204.512,303.722,204.986ZM215.063,221.7c1.566-1.393,0-3.9,0-3.9.216-8.143,3.339-12.582,4.364-13.826.2-.243.329-.375.329-.375a1.74,1.74,0,0,0-.329.375c-1.747,2.589.589,11.437.589,13.547,0,2.228-1.826,11.695-2.083,15.039s-3.13,8.632-3.13,8.632-2.348-3.623-2.086-5.014a72.819,72.819,0,0,0,1.042-8.355C213.759,225.871,213.5,223.088,215.063,221.7Z"/><path class="cls-4" d="M205.1,271.254c-.688.968-3.248,4.04-2.815,8.221,0,0,3.614,5.4,3.794,5.557s5.437,4.413,5.437,4.413-5.22-17.563-1.669-22.733A63,63,0,0,0,205.1,271.254Z"/><path class="cls-4" d="M309.163,280.057a73.971,73.971,0,0,0,6.806-4.3c.292-.442-3.021-11.379-7.47-10.98a14.021,14.021,0,0,0,.082,4c.375,1.821,1.371,7.236,1,9.144S309.038,280.057,309.163,280.057Z"/><path class="cls-6" d="M252.786,151.43c.346.559,1.566,2.228,1.566,2.228l.346-2.783c.173-5.943,1.566-8.353,1.566-8.353a7.76,7.76,0,0,0-2.088,3.154c-1.042,2.413-5.04,6.5-5.04,6.5s-2.086-7.982-2.781-9.467-1.042-13.181-1.042-13.181c-1.566,2.969-.7,17.079-.524,22.278s3.479,34.528,3.822,30.257.525-15.965-.343-19.306-2.435-10.023-1.045-9.652,6.607,2.783,5.563,1.669S252.439,150.875,252.786,151.43Z"/><path class="cls-6" d="M261.788,141.973c-.18-.118-.31-.194-.31-.194C261.6,141.836,261.678,141.911,261.788,141.973Z"/><path class="cls-6" d="M261.87,153.055s1.824-1.67,2.608-2.365,2.475,1.39,3,1.39,4.3-.276,4.694-.974,1.042-.835,2.348-.695,1.3,11.555,1.3,11.555.26-13.088.392-17.962a58.043,58.043,0,0,0-.392-8.632c0,5.432-1.434,7.8-2.478,9.469s-2.476,6.823-3.128,6.683-3.127-3.2-3.127-3.2a18.487,18.487,0,0,0-3.414-4.773,6.1,6.1,0,0,1,1.066,4.773C264.478,149.573,261.87,153.055,261.87,153.055Z"/><path class="cls-6" d="M261.788,141.973a12.065,12.065,0,0,1,1.884,1.576A6.039,6.039,0,0,0,261.788,141.973Z"/><path class="cls-4" d="M250.264,179.788c-1.044,9.467-1.431,23.389-2.737,41.767s-1.564,23.392-1.564,23.392,7.039,9.327,9.909,9.188,9.125-6.405,9.91-7.518,1.171-59.171.652-67.387-4.826-20.883-4.694-24.087.13-1.53.13-1.53,3.26-4.735,3.26-5.988-.652-6.125-5.608-5.846a4,4,0,0,0-3.258.743c-1.049.746-1.174,7.609-1.566,10.393s.262,1.949.262,2.367.39,4.037-.654,5.709S251.308,170.319,250.264,179.788Z"/><path class="cls-3" d="M209.553,267.335,211.3,260.9s-19.595,14.764-9.226,19.734A14.735,14.735,0,0,1,209.553,267.335Z"/><path class="cls-7" d="M221.669,207.123c0-5.385,8.519-14.851,8.519-14.851s.52-14.666-.176-15.965-2.6,10.58-4.171,13.737-5.041,12.25-5.041,12.25-1.566-8.168-2.781-17.261-5.737-33.417-5.737-33.417c.522,7.427,6.779,51.607,6.779,51.607a42.564,42.564,0,0,0,2.608,13Z"/><path class="cls-7" d="M310.5,150.875c.046-.929-4.52,29.144-6.608,38.613s-5.563-1.487-6.431-.929,3.652,11.51,4.347,14.108-.524,20.421-.524,20.421,1.739-17.823,2.435-18.1,3.825,5.478,5.042,5.478-5.389-6.683-4.521-11.511S310.328,154.216,310.5,150.875Z"/><path class="cls-3" d="M315.977,275.924l3.587-1.809c-2.2-13.824-11.8-16.22-13.172-13.809l2.107,4.474C314.124,265.406,315.977,275.924,315.977,275.924Z"/><path class="cls-7" d="M284.773,257.431s-34.567-.648-44.156-2.043l-.13.188-.782,5.937s23.859.838,28.552.838,17.474-.559,17.474-.559Z"/><path class="cls-3" d="M266.953,262.072c1.3-.838,0-4.456,0-4.456s-9.644-.835-10.429,0,.26,4.456.26,4.456S265.652,262.906,266.953,262.072Z"/><path class="cls-7" d="M226.365,293.258l-.106-.053C225.653,294.242,226.365,293.258,226.365,293.258Z"/><path class="cls-7" d="M226.014,294.093c.522.279,10.6-17.729,13.039-31.836,0,0-3.389,13.739-8,22.184s-3.649,6.868-4.607,8.447c-.082.132-.132.221-.19.317l.106.053s-.712.984-.106-.053c-1.092-.536-17.24-8.764-16.706-25.87a22.187,22.187,0,0,0,5.163,16.92C221.409,291.865,225.494,293.816,226.014,294.093Z"/><path class="cls-7" d="M294.507,293.91s-6.779-24.691-8.343-30.819c0,0,4,24.136,7.823,31.933,0,0,4.692-1.114,7.475-4.179A64.388,64.388,0,0,1,294.507,293.91Z"/><path class="cls-7" d="M223.668,480.382c.782.277,9.91.835,12.255,3.621s-3.389,4.455-4.953,5.846,3.912,1.674,3.912,1.674-.522,1.112,2.345-1.953,4.434-9.746,4.085-13.271-2.781-4.828-2.781-5.942-.262-2.228,1.3-7.518,1.3-22.278,2.346-30.631,3.912-48.73,4.434-58.755,2.6-16.15,3.909-21.438,1.829-21.722,1.829-21.722c2.345-6.962.522-16.429,2.867-18.284,3.65,2.877,10.692,40.838,10.692,40.838a52.355,52.355,0,0,0,2.694,18.751c1.131,3.715,1.477,10.211,2,16.892s3.652,11.694,3.565,14.3-1.217,4.083-.695,7.7,1.3,16.708,1.3,16.708,1.3-7.517.524-10.024-.262-10.026.26-8.911,4.172,12.531,2.086,4.455-1.566-8.909-1.566-14.757-1.824-7.8-1.824-7.8,1.824-5.567,3.912-8.352,2.87-3.621.782-4.456-4.432,4.456-5.476,5.567-2.086-11.971-2.87-13.085-.52-8.355,1.3-13.088,2.868-3.062,1.566-5.011-4.172,4.174-6-3.9-5.735-26.731-7.823-33.417c-1.153-3.692-1.588-11.466-1.7-16.65-.548,5.9-2.449,12.95-3.772,14.146-3.387,3.063-3.652,3.342-3.387,4.177s-1.569,31.744-2.348,34.251-3.912,13.922-4.172,16.985-.26,15.034-.784,16.988c-.234.877-2.163.339-3.83-.361,2.853,3.3,3.079,12.226,3.31,15.394.26,3.621-2.348,32.3-2.868,33.973s-4.433,22.557-2.61,23.389-2.086,8.355-2.87,13.925S222.886,480.1,223.668,480.382Z"/><path class="cls-7" d="M239.655,383.955a3.664,3.664,0,0,0-1.386-1.035C235.979,382,237.622,383.1,239.655,383.955Z"/><path class="cls-7" d="M258.088,293.816c-.115-2.74-.231-.24-.14,3.953A29.476,29.476,0,0,0,258.088,293.816Z"/><path class="cls-3" d="M95.2,240.769c-2.2,6.825-1.222,13.408-2.683,15.117s.242,1.462.242,1.462,11.706,1.464,16.824,1.464,14.384-1.464,17.31-1.952a9.575,9.575,0,0,0,4.147-1.464s-6.1-30.965-4.878-43.156,10-51.2,14.874-61.931a184.377,184.377,0,0,0,7.8-19.5c.245-.976-2.926-4.875-4.873-5.121s-19.022,18.286-24.993,9.143c0,0-1.585,4.022-1.342,5.729s-8.777,28.284-10.972,38.281S97.4,233.942,95.2,240.769Z"/><path class="cls-5" d="M108.678,75.3c.092.3.228.129,0,0Z"/><path class="cls-4" d="M98.857,116.907c1.221.488,3.414,1.219,3.414,1.219a13.37,13.37,0,0,0,1.1,1.827c.486.611-.122,1.832.243,2.563s.851.851,1.462,1.219-.365.485,0,1.7a3.209,3.209,0,0,0,1.221,1.952c.731.731.611,2.318.611,3.9s.606,2.317,1.336,2.317,9.148.976,10.733,1.219.485,2.318,1.461,3.049,4.145,5.243,4.63,5.729,10.978-10.119,18.777-14.384a7.169,7.169,0,0,0,1.464-1.83c.488-.976-1.707-2.072-1.339-2.8s.243-2.56.608-3.294a39.369,39.369,0,0,1,2.195-4.875,20.2,20.2,0,0,0,2.315-6.948c.12-1.587,1.827-18.411-1.221-24.871s-5.607-8.777-12.557-12.679-9.386-.853-9.263-2.315-.123-1.587-.979-1.83-1.1-.608-1.461.609-.123,2.44-1.707,1.829-.731-1.1-2.561-.488-2.069-.731-3.411,1.1-.976,2.926-1.829,2.68-.609-1.584-2.438-1.218-3.049.73-3.049,2.437a1.906,1.906,0,0,0,.068.574c.228.129.092.3,0,0-.188-.106-.621-.161-1.529.16-2.44.85-3.049-.611-3.78,1.461s-2.075,2.2-2.805,1.462.976,4.147.976,4.147c.49,1.462-.851,3.414-.851,5.118s.851.734,2.315.491-.245.731-.245,2.438-2.438,8.534-2.2,10.972a8.3,8.3,0,0,1,1.219,3.169c0,1.218.242,1.949-1.219,4.875S97.641,116.419,98.857,116.907Z"/><path class="cls-4" d="M82.461,481.6c-1.647,2.195-3.842,4.022-6.217,4.205s-8.412.182-10.607.913-2.744,3.109-3.477,4.207.368,2.378.368,2.378h58.7s.551-7.133.551-9.328-1.464-2.558-1.83-4.753,1.464-1.644,1.279-4.39-1.1-2.195-.365-4.022,2.56-1.829,2.2-4.024-2.013-3.289-2.926-5.667,1.1-3.294,1.462-4.938.367-12.619.915-19.019,2.013-28.893,2.2-34.2.183-21.762.363-24.32,2.2-10.972,2.378-19.567.551-24.505.916-25.053.183-.914,2.743,10.056,7.864,44.438,8.412,55.958,4.57,23.592,4.388,28.71-5.669,28.527-4.57,32,6.216,5.3,7.5,7.133-1.647,14.264-.916,17.19,2.378,3.474,2.378,4.207-.551,4.022-.551,4.022h23.592c1.464,0,.913-2.012.73-3.657s-1.646-3.293-1.827-4.755.363-4.2,0-6.948-.916-3.842-2.012-6.95,2.193.365,4.205-6.22,4.57-21.759,4.39-31.45-2.743-24.5-4.756-33.1-2.377-25.236-2.377-39.682-2.013-44.07-2.013-51.934.186-8.595-.362-13.165,1.279-5.121,2.925-7.5,5.852-10.607,5.852-10.607,2.623,2.682,3.657,2.377,2.926-7.5,4.935-11.155,3.111-11.338,5.854-17.372,4.753-6.948,5.121-8.96.363-8.412,3.289-13.168,1.281-15.542.916-19.384-3.294-24.685-4.573-35.11-7.5-27.976-8.594-29.258-1.888-1.1-1.888-1.1c-4.878-.49-25.115-8.046-25.966-8.169a17.5,17.5,0,0,0-3.171.245l-.121-.976c-3.291-.853-7.926-7.193-7.926-7.193l.611.853c.242,2.561-8.29,19.628-12.8,33.771s-6.582,28.162-10,47.544,4.145,44.863,3.291,45.351-6.705.611-10.607,1.342a108.535,108.535,0,0,1-16.581.976,31.846,31.846,0,0,1-8.289-1.707c1.706-4.513,7.07-36.451,8.779-46.573s7.8-39.132,9.751-47.178,4.388-13.288,4.876-16.091.976-5.854.976-5.854c-.671.733-5.366,1.647-8.657,3.108s-15.545,6.768-17.738,8.047-1.644,2.012-1.644,5.854-1.464,19.2-2.38,24.32-1.462,6.217-2.741,12.8-.551,11.52-.368,15.91-.913,3.109-2.375,5.486-.368,8.23-.733,12.435-2.924,5.3-2.013,9.142-1.644,4.756-1.827,8.778.548,16.275-.182,21.031S75.7,271.124,75.51,273.5a30.851,30.851,0,0,0,.366,6.217c.183,1.465-1.462,2.561-1.462,3.84s-.182,6.036,2.378,8.049,3.839-2.013,3.839-2.013.916.18,1.1,9.509.913,33.465,2.192,45.716,8.96,52.667,9.509,58.884-.18,24.32-1.279,31.271-4.022,25.781-4.388,27.063a16.093,16.093,0,0,0-.365,6.948c.548,2.743,0,4.207-1.1,7.13S84.105,479.409,82.461,481.6Z"/><path class="cls-4" d="M163.653,293.158s3.108-1.827,3.749-2.1,2.835.455,3.841-.641,1.1-2.285,1.918-3.932,3.293-8.592,3.384-8.867-10.057-7.864-11.248-8.96c0,0-2.468,4.753-2.833,7.133s-1.006,3.654-.641,5.666.275,2.471.731,5.762S163.653,293.158,163.653,293.158Z"/><path class="cls-6" d="M113.731,159.94a4.173,4.173,0,0,0,.075,1.284C113.806,160.163,113.786,159.56,113.731,159.94Z"/><path class="cls-6" d="M134.63,165.439c-1.282,4.463-2.516,8.953-2.613,10.047C131.939,176.362,133.248,171.331,134.63,165.439Z"/><path class="cls-6" d="M137.32,156.284c1.1-3.657,7.5-17.92,7.5-17.92a34.627,34.627,0,0,1-4.2,3.839c-1.832,1.281-8.963,9.691-9.876,10.241s-.366.731-1.83-1.281a58.123,58.123,0,0,1-3.842-7.558s-2.923,1.524-3.839,2.072a10.056,10.056,0,0,0-3.108,4.573c-.549,1.829-4.022,5.3-4.022,5.3-.366.914-2.376,9.691-3.84,15.36a18.467,18.467,0,0,0,.731,10.79s2.378-10.059,2.561-11.7c.127-1.156.255-6.272.257-8.775a4.173,4.173,0,0,1-.075-1.284c.055-.38.075.223.075,1.284.24,1.3.9,2.789,1.569,2.924.917.182,1.282-6.948,2.195-8.412s1.645-2.561,2.378-2.926,5.669-.183,5.669-.183.914,2.375,1.279,3.657,2.928-1.462,5.121-2.561,4.022-3.839,5.486-4.572c.826-.411-1.084,8.662-2.873,16.288C135.708,161.687,136.82,157.956,137.32,156.284Z"/><path class="cls-4" d="M111.781,180.786c-.73,3.9-12.922,62.176-11.946,64.128s3.412,8.532,5.121,8.532,9.751-7.316,10.482-9.754,8.532-59.492,9.754-69.976-.489-15.848.245-17.312,2.192-4.388,2.683-5.607-2.683-6.1-2.683-6.1-3.049,0-4.21.976l-.5.333c-2.195,1.464-2.365,5.764-2.12,7.956s-1.219,4.635-1.219,7.316S112.512,176.887,111.781,180.786Z"/><path class="cls-7" d="M128.728,255.641s-23.286,3.414-35.477.611L92.274,261s29.992,1.71,37.553-.973Z"/><path class="cls-3" d="M113.458,259.878a15.8,15.8,0,0,0,0-2.1c-.092-.456-12.529-.183-13.169-.091,0,0-.273,2.013.275,2.1S111.994,260.241,113.458,259.878Z"/><path class="cls-7" d="M112.027,471.18c-2.683-1.707-6.1-2.926-8.292-1.707s7.316,3.656,10,5.608,2.438,6.826-.733,8.532-.486,2.2,2.685,4.633,5.607,1.464,5.852.243a27.491,27.491,0,0,0,0-6.337c-.245-1.83-1.221-1.462-1.587-2.926s1.342-3.171,1.279-4.39-.423-2.68-.365-4.022,1.892-1.829,2.2-4.024-1.522-3.9-2.253-4.631-2.2-1.221-.733-4.147,1.464-6.094,1.707-10.727,1.461-20.481,1.461-28.77,1.707-31.7,1.464-35.11.243-6.827,1.219-12.679,2.438-36.7,2.438-36.7a23.193,23.193,0,0,0-.731-6.7c-.973-4.386-1.949-4.386-5.363-9.266s-10.973-19.5-10.973-19.5c2.441,5.12,9.266,21.7,10.73,24.625s2.435,2.438,1.216,3.171-2.925-.976-3.411,1.7,2.926,3.657,4.875,7.8,0,6.34-.488,9.754-.731,14.141-1.707,16.09.731,9.023,0,10.973-.73,3.414-3.168,1.707-.976.488-2.683,3.168,1.707,5.609,2.923,8.778,3.659,5.366,3.416,6.1-.973,12.192-1.952,13.9-3.656,6.828-5.361,10,4.388-4.145,4.388-4.145c3.9-3.416.973,8.533.733,10.727s-1.464,17.313-2.926,22.676-.733,5.121-4.88,11.215-2.923,3.9-2.678,8.535,7.313,4.876,7.068,6.828S114.707,472.886,112.027,471.18Z"/><path class="cls-7" d="M139.333,359.266c-.974-2.926-2.193-8.047-5.607-13.9s-4.139-18.771-4.39-18.042c-2.926,8.534,4.145,23.649,5.366,29.991s3.169,15.6,3.169,21.7,1.707,13.653,2.68,19.262.488,14.872.488,18.286,1.953,11.948,1.222,16.824-3.171,21.945-3.416,25.113.488,2.255,2.194,5.121,3.172,2.192,4.879,2.683.487,2.438.73,3.9a29.783,29.783,0,0,1,0,6.582c-.243,1.71-.973,6.1-.733,8.292s2.378,4.207,2.378,4.207l-.551,4.022,3.3-.428a4.625,4.625,0,0,0,.974-3.656c-.245-2.438-.731-2.681-1.707-5.364s1.219-1.462,2.928-1.462-.245-2.44-1.709-3.414-.243-3.9-1.707-6.342.976-3.414,4.878-3.656.485-3.414-.976-4.388-5.121-.731-6.582-1.707-4.633-5.366-5.61-7.558.489-5.121.489-7.559,1.218-7.8,1.706-10.73,1.953-1.949,2.2,0,1.949,9.268,3.168,11.216-.243-13.165-1.7-15.848-.977-6.1-2.195-8.775-3.66-13.413-3.66-13.413,3.172,5.609,5.61,7.8-.246-7.316-.977-10.484-2.438-11.218-4.144-14.387-2.195-10-.977-8.534,6.343,9.022,7.8,5.609-8.534-10.239-7.8-13.653S140.309,362.191,139.333,359.266Z"/><path class="cls-7" d="M129.091,203.219a105.7,105.7,0,0,0-4.145,12.922s8.535-19.749,12.437-27.065,15.6-37.79,16.336-40.961-1.707-3.169-1.707-3.169l4.387-2.192s-.485-3.171-.73-6.463c0,0,0,5-.489,5.729s-6.094,2.681-6.094,2.681l3.411,1.221s-5.849,18.774-7.556,22.431S131.286,198.1,129.091,203.219Z"/><path class="cls-7" d="M104.468,150.8l6.337-3.168-7.558,2.68a45.1,45.1,0,0,1-2.195,7.316c-1.219,2.683-2.2,31.941-2.926,37.06s.488,27.8.488,27.8c.733-5.609.733-23.406.733-23.406C99.1,168.107,104.468,150.8,104.468,150.8Z"/><path class="cls-7" d="M88.13,248.328c1.707-4.39,2.2-4.147,3.656-9.023s1.465-6.825,1.95-11.215,1.464-4.878,2.195-10.484.491-2.195-.243-8.047a44.977,44.977,0,0,0-1.707-9.266c-1.219-4.875.486-5.12,0-9.75s-.976-9.266-2.437-17.558a60.863,60.863,0,0,1-.243-16.824c-4.147,5.609-.488,30.234-1.707,32.672a40.026,40.026,0,0,0-1.952,4.633,2.956,2.956,0,0,1,3.659,2.195,28.468,28.468,0,0,1,1.219,9.263c-.246,3.413-1.219,4.147-4.39,7.561s-.488,4.145.731,8.532,1.706,1.464,2.44,5.121-4.145,7.558-5.609,20.968-2.193,2.438-6.828,7.071,2.195,2.926,4.39,5.609a4.374,4.374,0,0,1,.538.836c.328-1.1.661-2.09.924-3.274C85.2,255.153,86.425,252.715,88.13,248.328Z"/><path class="cls-7" d="M82.969,264.146c1-1.207,1.467-2.245.823-3.524a26.081,26.081,0,0,0-.783,3.308C82.994,264.015,82.984,264.066,82.969,264.146Z"/><path class="cls-7" d="M76.914,279.048s3.66-6.34,4.633-10c.946-3.549.979-2.31,1.422-4.9-.7.851-1.652,1.787-2.641,2.956C77.643,270.27,76.914,279.048,76.914,279.048Z"/><path class="cls-7" d="M164.2,196.392c-3.412,1.952-2.924,5.609.49,4.144s7.313-7.313,8.778-5.363.73,3.9-.489,6.339a31.193,31.193,0,0,1-4.144,6.34c-1.952,2.438.731,4.145,1.707,8.044a36.269,36.269,0,0,1,1.219,10.487c-.246,2.192-1.95,3.657-3.657,5.606s.245,3.414.976,7.559-.976,8.289-1.954,10.972a10.487,10.487,0,0,0-.484,5.121s2.924-5.606,3.412-9.02.973-6.1.488-10,.973-3.9,1.7-5.849,1.464-3.174.979-5.854.485-3.169-.246-6.095.974-6.827,1.462-10.727,3.659-3.659,2.926-6.342.976-6.337,0-10.482-3.414-6.1-5.852-17.312,2.438-22.918,2.438-22.918l-2.438.731s-2.925,7.558-4.142,11.215,4.873,16.09,2.924,14.874a10.661,10.661,0,0,1-3.171-3.414s-1.705-3.9-2.436-5.609-1.952,1.219-2.683,3.414,2.926,3.9,6.583,6.825,2.437,2.441,2.683,4.148.973,4.875.488,7.316S167.615,194.442,164.2,196.392Z"/><path class="cls-3" d="M180.539,276.853s-10.669-11.579-14.692-12.312l-.55,3.474s11.463,10.667,13.292,13.227Z"/><path class="cls-7" d="M82.306,288.093c2.793-2.889,8.226-10.317,9.483-25.382C91.789,262.711,86.726,282.284,82.306,288.093Z"/><path class="cls-7" d="M80.631,289.594a4.52,4.52,0,0,0,1.675-1.5A12.817,12.817,0,0,1,80.631,289.594Z"/><path class="cls-7" d="M163.472,271.977c-.488,2.926-3.659,12.191-3.659,12.191-5.118,7.313-13.408,2.926-13.408,2.926-9.51-1.219-16.578-27.063-16.578-27.063.971,14.872,10.482,30.234,22.43,29.743S163.472,271.977,163.472,271.977Z"/><path class="cls-8" d="M400.437,164.212s-.839-4.859-1.174-6.868-4.357-10.557-5.192-11.561-23.623-9.046-29.993-7.875c0,0-2.513,0-2.678.67s16.253,18.1,21.949,32a62.49,62.49,0,0,1,3.852,32.837c-1,5.695-3.182,31.329-3.182,35.854s-1.007,19.77-1.007,22.783-.167,3.855.337,3.855,29.484,4.692,35.18,3.015c0,0,.5-7.2.67-10.722s1.509-15.581-1.844-20.1-6.531-2.344-6.531-8.712-7.709-25.129-7.709-31.664-3.683-25.8-4.187-29.152-1.509-5.863-1.674-7.707S400.437,164.212,400.437,164.212Z"/><path class="cls-4" d="M386.417,168.736c.115,2.011,3.687,14.185,4.582,18.542a80.558,80.558,0,0,1,1.229,9.048s3.8,49.143,4.357,49.925,12.731,10.612,13.847,10.612,4.914-6.813,4.914-6.813-19.656-74.836-20.775-78.521a30.776,30.776,0,0,1-1.114-8.379c0-.779-.56-6.812-1-7.26s-4.247-3.125-8.269-1.674c-2.6.938-2.459,4.023-2.234,5.586s1.9,2.791,2.9,4.578S386.307,166.725,386.417,168.736Z"/><path class="cls-4" d="M357.213,117.133c.669,3.018,1,2.179,2.511,4.692a9.914,9.914,0,0,1,1.676,5.529c.165,2.01,1,1.676,2.513,3.519s-.486,6.671.165,7.035c5.7,3.183,20.106,12.9,20.106,12.9s1,2.011,2.348,2.346,7.539-7.372,7.539-7.372l.166-1c.169-1,2.682-3.015,2.682-3.015a40.671,40.671,0,0,0,5.357-15.581c.17-1.844-.332-5.027-.165-5.866s1.509-8.376,1.844-10.387,0-4.355.669-4.857.5-1.844.839-3.183-.839-4.022-.839-4.022a9.271,9.271,0,0,0-1.674-2.848c-1.174-1.339-.335-.839-2.013-3.183s0,0-1.5-.839-1.174-.67-2.348-2.346-1.171-.837-2.847-1.506-1-.335-2.344-2.179-1.009-.5-3.352-1-2.681-.17-4.187-2.178-3.183-.335-5.362-.168-1.508,1-3.182.837-3.353.839-4.862,1.676-3.852,2.511-6.031,2.681-4.356,2.848-5.7,4.187-.334,3.687-.5,5.531a17.1,17.1,0,0,1-1.674,5.191c-.669,1.509.5,3.518.67,5.027s-.165,2.011-.67,3.854S356.539,114.12,357.213,117.133Z"/><path class="cls-4" d="M388.541,188.17A67.617,67.617,0,0,0,378.488,159.8c-1.452-2.57-12.621-17.427-13.96-18.431a14.309,14.309,0,0,1-2.683-3.128c-1.784-.11-6.141,5.026-7.035,6.033s-4.022.335-5.921,0-9.938-.112-15.414.447-4.912.445-8.264,4.02-1.452,20.218-1.229,26.694,2.793,4.246,4.692,10.5,2.123,3.907,3.237,9.381,1.564,5.7,2.793,9.493,3.018,6.59,4.582,9.718.11,5.473,0,8.152-2.459,10.277-3.018,11.951a48.71,48.71,0,0,1-2.121,4.582c-.337.779,1.227,4.914,1.117,6.588s-9.494,31.609-8.714,33.733,7.709,5.136,8.379,8.152,1.449,3.575,2.343,7.6,1.007,20.106,1.342,25.13,1.231,22,2.791,30.271a62.608,62.608,0,0,1,1.453,9.828c.56,4.8,0,13.18.56,18.427s-2.009,5.361-2.681,8.156-.669,4.914-1.116,9.381-.448,22.339.334,32.5,2.9,16.866,3.014,19.211a68.194,68.194,0,0,1-.67,8.711c-.335,3.351,3.127,12.062.894,14.3s-4.242,8.376-1.9,11.839a18.191,18.191,0,0,1,3.017,8.264c-.114.559-.674,1.341-.894,2.346s1,2.458,1.114,3.015,0,3.8,0,3.8H387.2l1.115-1.34s1.564.56,3.352,1.34,16.643.672,22.564-.111,10.832-2.233,11.5-3.35a1.188,1.188,0,0,0-.78-1.9c-.449.113-1.454-1.451-1.454-1.451-.782-4.02-9.383-2.121-14.074-2.011s-6.031-1.229-6.476-1.784-4.8-8.044-5.7-10.053,4.912-6.033,6.141-9.5-1.339-10.944-1.451-17.982,7.372-21.334,8.266-24.685,5.921-25.576,6.476-27.7.114-4.467.224-7.595a58.713,58.713,0,0,0-.224-9.606c-.445-5.139.784-8.376,1.231-10.832s1.562-8.6,2.121-13.4,1.117-11.4,1.789-17.984-.225-13.738-.56-18.1a28.779,28.779,0,0,1,.894-10.612c.89-3.238-.224-9.493-.224-10.385a1.649,1.649,0,0,1,2.123-1.677,29.588,29.588,0,0,0,8.264-.11c2.683-.449,1.34-4.022,1.34-4.022,0-8.379-1.23-12.4-1.674-15.414s-2.459-13.962-2.569-15.3-.445-4.465-.445-4.465.11-.447.89-.447.56-.45.335-1.229-1.9-6.925-2.791-9.5-1.451-15.3-1.676-17.31-.225-6.143-.225-6.143,5.476,1.451,6.815,1.676,2.234.892,6.478,1.674,4.354,1,7.372,0,4.58-1.007,7.485-5.026-.337-11.727-.115-13.4-.11-3.91-3.793-6.813c-2.848-2.444-10.167-12.956-11.059-14.185s-.782-2.013-1.341-3.687-4.917-7.82-5.476-11.17a16.715,16.715,0,0,0-3.013-6.478c-4.357-3.017-30.714-12.955-30.714-12.955.67,1.786,2.234,7.147,2.234,7.147-3.8-7.6-5.586-5.7-5.586-5.7a367.524,367.524,0,0,1,6.59,37.306c.436,4.155,2.271,12.529,4.21,20.7-.77-.436-1.142-1.117-1.389-1.179a29.019,29.019,0,0,1-4.609-2.137c-.67-.445-6.256-3.421-7.6-4.313a34.1,34.1,0,0,1-3.49-3.213A70.377,70.377,0,0,0,388.541,188.17Zm14.184,50.821a7.935,7.935,0,0,0,2.234-1.674,44.146,44.146,0,0,0,4.549-6.632c.826,3.229,1.371,5.291,1.371,5.291a93.78,93.78,0,0,1,7.26,32.5c-8.933,1.9-34.515-3.462-34.515-3.462.115-.559,1.007-21.781,1.229-24.685.152-1.933.447-6.831.7-11.8C391.2,232,402.725,238.991,402.725,238.991Z"/><path class="cls-8" d="M414.789,221.791s-4.354,7.819-9.83,15.526l3.352.445A21.042,21.042,0,0,0,414.789,221.791Z"/><path class="cls-8" d="M413.9,217.212s-.223-15.08-8.042-17.983H403.62s-.335,15.749,6.255,17.648Z"/><path class="cls-4" d="M388.623,204.591c3.1,3.434,12.314,8.126,12.314,8.126s5.155,2.385,5.655,2.47,3.393,1.8,3.9,1.13-.5-6.363-.5-6.363a13.745,13.745,0,0,0-5.279-9.72c-.669-.252-6.7-3.435-11.139-3.853s-14.157,0-14.157,0C380.249,197.973,385.525,201.156,388.623,204.591Z"/><path class="cls-4" d="M432.771,227.544s-16.92-5.361-17.677-5.783l-.335-.335a36.4,36.4,0,0,1-.334,5.446c-.335,1.089-1.592,5.111-2.094,5.613,0,0,5.529,2.177,7.79,1.927s5.783-3.685,7.122-4.355S432.771,227.544,432.771,227.544Z"/><path class="cls-9" d="M340.735,279.537c2.458-.225,35.3-1.119,39.986-2.906s2.628-10.722,2.628-10.722-.169,7.148-2.852,9.159-7.146,1.563-7.146,1.563c-43.338-.224-45.8,2.906-45.8,2.906h-1c1,1.339,8.824,6.7,8.379,8.152s5.136,10.612,5.806,11.5.449-1.564-.445-3.128-4.247-10.053-3.577-11.167,2.683,2.9,4.471,3.13-2.011-4.249-3.127-5.811S338.279,279.759,340.735,279.537Z"/><path class="cls-9" d="M401.944,289.809c1.116-2.9,4.469-11.836,4.469-11.836a49.3,49.3,0,0,1-2.683-5.361s1.788,4.242,1.563,5.361-2.457,4.244-2.457,4.914-1.34,3.125-2.009,4.691-1.114,2.012-.895,4.02-.219,6.925,0,8.489-2.678,6.7-3.347,8.936a23.63,23.63,0,0,1-.979,2.74,74.467,74.467,0,0,0,5.221-8.323C401.272,301.876,400.827,292.715,401.944,289.809Z"/><path class="cls-9" d="M379.827,482.369c-1.339,2.236-5.806,6.033-6.253,6.927a5.111,5.111,0,0,0,0,2.679s3.8,6.255,3.8,7.819c0,0-.667-7.595.447-8.934s8.714-4.469,11.617-6.031-8.489,1.562-8.489,1.562,4.242-10.053,5.586-10.5,11.167-.445,11.167-.445-11.167-1.788-10.5-4.022,5.137-6.03,6.7-8.711-.225-12.733-.894-16.531-5.807-14.744-6.476-17.647-2.908-12.733-1.344-15.636,13.405-42.445,14.075-45.125a2.535,2.535,0,0,0-4.467-2.234c-2.011,2.234-7.819,9.381-8.489,10.945s5.139-20.551,5.586-21.445,20.326-18.989,20.55-20.775-11.616,2.681-19.211,6.033-5.586-3.352-3.8-6.033,6.7-4.467,8.934-6.478-8.709.445-10.273-.894.445-6.478,1.564-7.148a38.532,38.532,0,0,0,3.944-5.1c-1.243,1.073-2.5,1.192-3.944,2.642-1.564,1.561-3.128,1.114-4.692,1.786s-8.044,1.786-7.374,2.011,5.361-.672,5.586.669-1.119,14.3-1.119,17.2-.67,10.05-.89,12.956.669,16.977,1.114,19.88-.22,2.906-.445,7.15-.224,4.469.221,6.7,0,8.711.894,12.508,0,4.692,0,8.264-2.234,11.617-1.564,14.522-.445,3.8.449,9.606.221,9.828.892,13.848a131.018,131.018,0,0,1,1.564,14.969c0,3.127-.672,5.583-.447,7.594a32.908,32.908,0,0,1-1.117,8.711A46.033,46.033,0,0,1,379.827,482.369Z"/><path class="cls-9" d="M395.606,311.763c-.672.986-1.351,1.963-2,2.885.1-.087.2-.165.3-.264A8.412,8.412,0,0,0,395.606,311.763Z"/><path class="cls-9" d="M422.718,298.97c.895.447,10.053-.224,10.053-.224a19.011,19.011,0,0,1-5.583-1.339c-2.458-1.117-2.906-5.809-4.692-10.051s-4.357-18.877-4.357-18.877c-.784.558-1.9,4.578-2.793,5.027s-.445,2.231.895,2.9,2.683,6.7,1.564,8.041a9.158,9.158,0,0,0-2.234,4.022c-.225,1.339,5.137-.442,5.137-.442s2.01,5.359,1.563,6.473S421.827,298.523,422.718,298.97Z"/><path class="cls-9" d="M366.761,222.183c1.674.834,5.192,2.009,7.035,2.678s8.425,2.814,11.754,3.669c0,0-18.789-7.521-20.3-8.191a7.006,7.006,0,0,1-2.68-2.011c-.837-.837-4.02-1.424-4.02-1.424s-3.855,1.759-3.183,1.759,2.513-.168,3.852-.168S365.085,221.343,366.761,222.183Z"/><path class="cls-9" d="M334.259,199.9c.67,1.339.5,4.022,1.842,3.852s.337-.837,1.841-1,1.679-.168,2.683.839,6.87,5.024,6.87,5.024-8.209-7.707-9.216-9.381-4.02-3.687-4.02-4.357-3.182-2.848-3.182-2.848,2.176,3.853,2.678,4.522S333.59,198.557,334.259,199.9Z"/><path class="cls-9" d="M360.061,174.267a45.5,45.5,0,0,1,5.526,7.035c1.007,1.507,5.7,7.54,6.366,8.209s2.013,3.183,1.843,1.844-2.513-3.518-3.517-4.692a17.729,17.729,0,0,1-3.518-6.535c-.839-3.015-1.676-3.852-3.517-7.2s-4.19-4.689-5.027-6.7a58.6,58.6,0,0,0-2.513-6.031c-1.174-2.178-6.368-7.037-7.709-8.209s-5.224-4.434-6.531-3.854c-1.509.669.5,3.854,1.841,4.859s10.388,10.387,11.392,11.726,2.516,4.357,2.179,6.033S358.047,172.423,360.061,174.267Z"/><path class="cls-9" d="M358.382,150.307l-4.187-4.692,3.353,5.529,5.7-.165-1.342,3.348c3.015,1.676,10.22,9.048,16.921,17.09s9.718,19.433,9.718,19.433-1-4.019-2.009-6.7-3.52-7.874-9.553-16.753a52.567,52.567,0,0,0-14.24-13.907,18.337,18.337,0,0,0,1.674-3.183C364.413,149.805,358.382,150.307,358.382,150.307Z"/><path class="cls-9" d="M401.106,157.846l1.509,3.52s4.188,3.183,5.362,4.018,2.513,6.2,3.517,10.387-1.339,18.6-2.178,21.782l-.67,2.346a70.114,70.114,0,0,0,3.685-25.467s-1.841-7.539-3.35-9.048a35.71,35.71,0,0,0-5.2-3.685l.672-.67Z"/><path class="cls-9" d="M425.064,194.872c-.334,2.346-1.341,6.536-1.341,6.536s1.846-6.87,2.515-8.379,3.183-3.518,5.027-4.692,3.852-3.852,3.183-4.187-5.362,2.681-6.033,4.187-2.511,3.353-1.842,2.348,4.522-13.74,2.679-19.1a48.113,48.113,0,0,1-1.17,11.562C426.738,188,425.4,192.527,425.064,194.872Z"/><path class="cls-9" d="M438.465,199.342c1.789-.282,2.8-1.844,1.846-1.844s-.223-1.286-3.24.837-5.054,3.657-5.054,3.657a84.059,84.059,0,0,1,8.851.475,7.857,7.857,0,0,1,4.917,2.011c2.063,1.564,3.852,3.463,4.131,2.4a3.413,3.413,0,0,0-2.96-3.685c-2.345-.392-11.337-1.731-12.229-1.676S436.681,199.619,438.465,199.342Z"/><path class="cls-9" d="M346.825,308.631c.5-1.172,5.527-8.544,6.2-10.218s4.357-15.079,5.531-17.592c0,0-3.687,6.868-4.022,11.392s-5.194,7.2-6.031,9.718-7.707,13.4-8.044,14.744S346.321,309.805,346.825,308.631Z"/><path class="cls-10" d="M383.624,265.017s8.1,1.729,10.613,1.562,7.2-3.35,6.03-4.19-5.191,0-9.044.337-6.7,0-5.026-.672-1.174-7.2.335-7.871,7.035-8.379,5.361-8.212-4.526,2.178-6.2,4.357c-1.055,1.371-.982-5.084-.78-10.062Z"/><path class="cls-10" d="M384.913,240.266l.275-5.352S385.028,237.335,384.913,240.266Z"/><path class="cls-10" d="M415.516,266.076c-1.344.5-13.07,1.677-8.713,2.514s11.726.334,11.726.334a10.431,10.431,0,0,0-.5-2.008c-.337-.84-1.508-10.388-1.508-10.892,0,0,.334,4.691-.335,3.852s-1.509-2.848-1.844-1.506,2.009,4.189,2.009,5.7S416.855,265.572,415.516,266.076Z"/></g></svg>