<svg xmlns="http://www.w3.org/2000/svg" viewBox="0 0 528.571 518.197"><defs><style>.cls-1{fill:#616060;}.cls-2{fill:#8d8989;}</style></defs><title>icon</title><g id="Layer_22" data-name="Layer 22"><path d="M462.855,457.369c-3.3-.863-5.628-3.086-7.953-5.423q-22.685-22.794-45.451-45.507-13.194-13.2-26.39-26.4c-4.585-4.592-4.578-10.689.036-15.21.831-.814,1.807-1.478,2.641-2.151l-10.151-10.123c-.786.565-1.72,1.242-2.66,1.909a107.816,107.816,0,0,1-143.741-16.944,115.144,115.144,0,0,1-13.218-18.665,3.5,3.5,0,0,0-2.032-1.555c-31.289-6.575-60.629-18.284-88.583-33.619a428.929,428.929,0,0,1-76.327-53.657,21.226,21.226,0,0,1-6.605-10.787v-4.807a21.365,21.365,0,0,1,6.731-10.92c27.983-24.418,58.341-45.293,91.741-61.616,34.4-16.813,70.408-27.972,108.843-30.379,3-.189,6-.414,9-.622h12.942a25.415,25.415,0,0,0,2.53.36,263.708,263.708,0,0,1,67.064,12.059c30.818,9.644,59.454,23.87,86.563,41.291A448.955,448.955,0,0,1,476.5,200.952c4.366,3.725,8.452,7.536,9.653,13.475v4.807c-1.193,5.142-4.335,8.858-8.269,12.255a437.721,437.721,0,0,1-57.754,42.358,4.449,4.449,0,0,0-2.346,3.754c-2.98,27.226-14.678,50.063-34.741,68.65a8.927,8.927,0,0,1-1.8.976c2.126,2.057,3.719,3.51,5.208,5.064,1.474,1.538,2.843,3.178,4.512,5.058,1.025-1.21,1.579-1.954,2.223-2.61,5.064-5.16,10.909-5.2,16.012-.1q35.888,35.877,71.782,71.747c2.252,2.247,4.352,4.516,5.171,7.689V437.4c-.834,3.224-2.922,5.574-5.275,7.792q-3.616,3.408-7.027,7.034c-2.177,2.311-4.513,4.316-7.665,5.142ZM210.974,308.976c-1.1-3.694-1.145-3.638-3.692-5.538-33.778-25.208-49.1-58.89-44-100.688,4.067-33.352,21.749-58.722,50.2-76.56,1.379-.864,2.8-1.662,4.2-2.491a2.579,2.579,0,0,0-1.528-.04c-10.867,2.932-21.917,5.322-32.563,8.912-49,16.523-91.733,43.7-130.4,77.637a9.8,9.8,0,0,0-2.367,3.237c-1.658,3.662-.662,7.358,2.642,10.283a420.55,420.55,0,0,0,56.18,41.982c27.619,17.232,56.781,31.068,88.215,39.857C202.109,306.754,206.4,307.791,210.974,308.976Zm-5.763-16.836c-8.236-42.435,2.085-79.23,35.181-107.586,33.062-28.327,71-32.8,111.535-18.237-16-27.694-50.6-51.209-93.335-47.226-41.067,3.827-75.216,32.829-85.8,73.591A97.069,97.069,0,0,0,205.211,292.14Zm213.643-26.5a9.107,9.107,0,0,0,.851-.434,424.059,424.059,0,0,0,55.416-41.5c4.626-4.1,4.539-9.778-.151-13.917a421.919,421.919,0,0,0-57.161-42.537c-23.916-14.806-49.023-27.1-75.842-35.733-6.251-2.013-12.591-3.75-18.89-5.614l-.212.476c.48.322.952.653,1.439.963a105.6,105.6,0,0,1,38.544,42.888,9.339,9.339,0,0,0,3.635,3.937c27.192,17.113,44.119,41.353,50.146,72.978C417.777,253.176,418.119,259.354,418.854,265.642Zm-7.222.6c.251-54.946-45.188-100.785-100.16-101.042-56.069-.261-101.959,44.646-102.266,100.076A101.352,101.352,0,0,0,310.132,367.619C366.067,367.84,411.375,322.588,411.632,266.242ZM466.61,422.8Q460,416.189,453.4,409.6,428.648,384.851,403.9,360.1c-2.193-2.193-3.105-2.2-5.356.036q-4.983,4.943-9.934,9.919c-1.828,1.838-1.8,2.985.056,4.845q30.957,30.96,61.92,61.914c.377.377.8.711,1.09.971Zm-9.293,20.839c1.758,1.729,3.528,3.523,5.36,5.251a2.474,2.474,0,0,0,3.778-.059q5.645-5.58,11.212-11.239a2.34,2.34,0,0,0,.173-3.481c-1.777-1.936-3.682-3.755-5.5-5.594C467.316,433.567,462.429,438.488,457.317,443.634Z"/><path d="M310.462,357.459a91.089,91.089,0,0,1-91.033-91.209c-.036-50.1,40.938-90.961,91.162-90.915,50.255.046,90.907,41.023,90.874,91.6C401.432,316.657,360.422,357.451,310.462,357.459ZM231.894,236.776c-.2.16-.328.216-.379.313a5.123,5.123,0,0,0-.274.683q-12.936,37.5,6.948,71.823a3.4,3.4,0,0,0,1.829,1.333,90.342,90.342,0,0,0,24.534,4.011c26.224.621,49.512-7.424,68.858-25.164,25.01-22.935,35.682-51.584,31.852-85.437a4.769,4.769,0,0,0-1.451-2.934q-27.468-22.271-62.691-18.722c-2.669.264-5.31.808-8.388,1.288,10.607,8.8,16.333,19.586,16.251,33.007s-5.6,24.344-16.2,32.53C273.941,264.054,245.191,259.705,231.894,236.776Zm15.743,85.271c15.5,19.011,46.709,34.279,81.109,26.595,36.541-8.162,57.1-37.522,62.2-58.435C345.776,312.551,298.567,325.43,247.637,322.047Zm53.81-106.933c-.452-11.112-6.086-20.951-17.27-27.469a3.587,3.587,0,0,0-2.707-.268c-19.367,7.266-34.151,19.943-44.511,37.835a3.949,3.949,0,0,0-.241,3.78c5.627,14.7,21.668,23.747,37.027,20.838C289.886,246.772,301.452,233.016,301.447,215.114ZM374.113,211c.324,41.68-16.757,73.616-51.249,96.464a2.246,2.246,0,0,0,.517.032,316.34,316.34,0,0,0,69.047-26.673,2.772,2.772,0,0,0,1.246-1.8,82.977,82.977,0,0,0-11.59-56.85C379.708,218.281,376.785,214.719,374.113,211Z"/><path class="cls-1" d="M524.571,4.017V520.3H4V4.017H524.571m4-4H0V524.3H528.571V.017Z"/><path class="cls-2" d="M525.268,521.388H4V3.8H525.268ZM34,491.388H495.268V33.8H34Z"/></g></svg>