<svg xmlns="http://www.w3.org/2000/svg" viewBox="0 0 528.571 518.197"><defs><style>.cls-1{fill:#231f20;}.cls-2{fill:#616060;}.cls-3{fill:#8d8989;}</style></defs><title>icon</title><g id="Layer_25" data-name="Layer 25"><rect class="cls-1" x="36.21" y="185.229" width="21.277" height="1.547"/><path class="cls-1" d="M77.657,264.2c-.122-8.133-.2-16.265-.281-24.4l-.125-12.2-.08-12.2-.158-24.4c-.067-8.133-.072-16.266-.095-24.4l.72.683-3.15.172-.725.039v-.728l-.016-8.124.728.706-15.528.527.713-.736.016,7.74v.75l-.753,0-1.714,0,.755-.756.032,9.5-.005,9.494-.009,18.99-.04,37.979-.171,37.979-.152,18.989-.079,9.5-.109,9.5-.138-9.5-.106-9.494-.207-18.989L56.7,242.844l-.151-37.979-.065-18.989-.033-9.5.005-9.5v-.757h.755l1.714,0-.752.751.015-7.74,0-.715.711-.021,15.53-.467.73-.022v.728l-.016,8.124-.726-.69,3.15-.159.721-.037v.719c-.014,8.133-.01,16.266-.068,24.4l-.13,24.4-.066,12.2-.112,12.2C77.837,247.934,77.769,256.067,77.657,264.2Z"/><polygon class="cls-1" points="50.606 186.501 49.915 305.537 49.445 186.5 50.606 186.501"/><polygon class="cls-1" points="45.645 186.004 44.954 305.04 44.484 186.003 45.645 186.004"/><polygon class="cls-1" points="71.284 166.828 70.593 285.863 70.124 166.826 71.284 166.828"/><polygon class="cls-1" points="64.213 166.33 63.522 307.305 63.053 166.329 64.213 166.33"/><polygon class="cls-1" points="41.313 185.589 40.622 304.625 40.152 185.588 41.313 185.589"/><polygon class="cls-1" points="61.073 158.788 59.535 158.618 60.008 154.369 62.704 151.672 63.198 145.092 66.092 141.402 70.126 145.436 70.403 151.203 73.251 154.325 73.781 158.155 72.249 158.367 71.784 155.013 68.885 151.834 68.609 146.107 66.232 143.731 64.706 145.677 64.204 152.36 61.485 155.079 61.073 158.788"/><polygon class="cls-1" points="65.444 142.041 66.218 108.74 66.991 142.041 65.444 142.041"/><polygon class="cls-1" points="81.415 193.242 80.641 255.911 79.868 193.242 81.415 193.242"/><polygon class="cls-1" points="84.952 193.906 84.178 256.574 83.404 193.906 84.952 193.906"/><polygon class="cls-1" points="89.594 193.906 88.82 256.574 88.046 193.906 89.594 193.906"/><polygon class="cls-1" points="97.753 180.013 93.323 183.756 93.572 183.211 93.02 257.68 92.137 183.214 92.133 182.891 92.386 182.668 96.743 178.841 97.753 180.013"/><polygon class="cls-1" points="98.27 179.121 97.662 258.674 96.723 179.124 98.27 179.121"/><polygon class="cls-1" points="97.502 178.062 102.158 182.527 102.384 182.743 102.383 183.043 102.083 260.222 100.955 183.05 101.179 183.566 96.441 179.189 97.502 178.062"/><polygon class="cls-1" points="106.725 199.985 105.952 262.653 105.178 199.985 106.725 199.985"/><polygon class="cls-1" points="105.179 200.303 104.555 188.921 89.642 188.695 89.594 194.327 88.046 194.314 88.108 187.124 106.022 187.396 106.724 200.219 105.179 200.303"/><polygon class="cls-1" points="96.64 178.487 97.414 147.207 98.187 178.487 96.64 178.487"/><polygon class="cls-1" points="106.264 236.99 109.98 237.606 110.575 237.705 110.557 238.27 109.82 262.1 109.221 238.266 109.798 238.93 106.054 238.523 106.264 236.99"/><path class="cls-1" d="M113.357,269.505c-.169-3.305-.287-6.61-.416-9.915s-.246-6.611-.347-9.917-.185-6.612-.279-9.918l-.226-9.918-.016-.724h.737c4.422-.009,8.842.041,13.264.059l.763,0,0,.769c-.021,4.845-.091,9.689-.134,14.534-.071,4.844-.135,9.689-.233,14.533l-.151,7.267-.187,7.266-.235,7.265-.119,3.633-.15,3.633-.094-3.635-.064-3.634-.124-7.268-.077-7.269-.04-7.267c-.025-4.845-.015-9.69-.012-14.535.031-4.845.034-9.69.087-14.535l.76.773c-4.421-.056-8.842-.08-13.263-.162l.721-.725.051,9.921c0,3.307.018,6.614,0,9.921s-.025,6.615-.07,9.923S113.433,266.2,113.357,269.505Z"/><polygon class="cls-1" points="116.921 230.358 116.894 310.4 115.374 230.373 116.921 230.358"/><polygon class="cls-1" points="119.583 230.221 119.556 310.263 118.036 230.235 119.583 230.221"/><polygon class="cls-1" points="122.484 230.083 122.457 310.124 120.937 230.097 122.484 230.083"/><rect class="cls-1" x="72.794" y="265.637" width="36.701" height="1.547"/><rect class="cls-1" x="72.794" y="271.826" width="36.701" height="1.547"/><rect class="cls-1" x="73.404" y="276.358" width="36.701" height="1.547"/><rect class="cls-1" x="73.404" y="280.89" width="36.701" height="1.547"/><rect class="cls-1" x="73.404" y="285.09" width="36.701" height="1.547"/><rect class="cls-1" x="73.404" y="290.174" width="36.701" height="1.547"/><rect class="cls-1" x="72.871" y="294.595" width="36.701" height="1.547"/><polygon class="cls-1" points="129.604 235.74 128.831 317.142 128.057 235.74 129.604 235.74"/><polygon class="cls-1" points="134.412 240.548 133.638 306.699 132.865 240.548 134.412 240.548"/><polygon class="cls-1" points="136.236 242.04 135.462 306.889 134.689 242.04 136.236 242.04"/><polygon class="cls-1" points="144.525 265.084 143.751 314.987 142.978 265.084 144.525 265.084"/><polygon class="cls-1" points="149.002 265.084 148.228 314.656 147.454 265.084 149.002 265.084"/><polygon class="cls-1" points="154.307 264.919 153.533 305.372 152.759 264.919 154.307 264.919"/><polygon class="cls-1" points="158.783 264.587 158.009 304.382 157.236 264.587 158.783 264.587"/><polygon class="cls-1" points="162.43 273.708 161.602 291.555 160.883 273.703 162.43 273.708"/><rect class="cls-1" x="142.95" y="263.979" width="15.722" height="1.547"/><rect class="cls-1" x="158.341" y="273.305" width="3.896" height="1.547" transform="translate(-1.936 1.142) rotate(-0.406)"/><path class="cls-1" d="M443.968,184.6H422.69"/><rect class="cls-1" x="422.69" y="183.823" width="21.277" height="1.547"/><path class="cls-1" d="M402.52,262.794c-.112-8.133-.179-16.266-.253-24.4l-.111-12.2L402.09,214l-.131-24.4c-.057-8.133-.053-16.266-.067-24.4v-.719l.721.036,3.15.16-.727.689-.015-8.124,0-.727.73.022,15.53.467.712.021v.715l.015,7.74-.751-.752,1.714,0,.755,0v.758l0,9.5-.033,9.494-.065,18.99-.151,37.978-.282,37.979L422.99,298.4l-.106,9.494-.137,9.5-.11-9.5-.079-9.5-.151-18.99-.171-37.979-.04-37.978-.01-18.99,0-9.5.033-9.494.755.756-1.714,0-.754,0,0-.75.015-7.74.713.736-15.528-.528.729-.706-.016,8.124,0,.729-.725-.04-3.149-.172.72-.682c-.023,8.133-.028,16.265-.095,24.4l-.159,24.4-.079,12.2-.125,12.2C402.719,246.528,402.642,254.661,402.52,262.794Z"/><polygon class="cls-1" points="430.732 185.093 430.262 304.131 429.572 185.095 430.732 185.093"/><polygon class="cls-1" points="435.693 184.596 435.223 303.633 434.533 184.597 435.693 184.596"/><polygon class="cls-1" points="410.054 165.42 409.584 284.457 408.893 165.421 410.054 165.42"/><polygon class="cls-1" points="417.125 164.923 416.655 305.899 415.964 164.924 417.125 164.923"/><polygon class="cls-1" points="440.025 184.182 439.556 303.219 438.865 184.183 440.025 184.182"/><polygon class="cls-1" points="419.104 157.382 418.692 153.673 415.973 150.954 415.472 144.271 413.945 142.324 411.568 144.701 411.293 150.428 408.393 153.607 407.929 156.961 406.396 156.749 406.926 152.919 409.774 149.797 410.052 144.03 414.085 139.996 416.98 143.686 417.473 150.266 420.17 152.962 420.642 157.211 419.104 157.382"/><polygon class="cls-1" points="413.186 140.635 413.96 107.333 414.733 140.635 413.186 140.635"/><polygon class="cls-1" points="400.31 191.836 399.536 254.505 398.763 191.836 400.31 191.836"/><polygon class="cls-1" points="396.773 192.499 395.999 255.168 395.226 192.499 396.773 192.499"/><polygon class="cls-1" points="392.131 192.499 391.357 255.168 390.584 192.499 392.131 192.499"/><polygon class="cls-1" points="383.435 177.434 387.792 181.262 388.045 181.484 388.041 181.808 387.157 256.273 386.605 181.804 386.855 182.35 382.425 178.607 383.435 177.434"/><polygon class="cls-1" points="383.455 177.718 382.515 257.268 381.907 177.715 383.455 177.718"/><polygon class="cls-1" points="383.736 177.782 378.998 182.16 379.223 181.644 378.094 258.815 377.795 181.636 377.794 181.337 378.019 181.12 382.676 176.656 383.736 177.782"/><polygon class="cls-1" points="374.999 198.578 374.226 261.247 373.452 198.578 374.999 198.578"/><polygon class="cls-1" points="374.998 198.897 373.453 198.812 374.156 185.989 392.069 185.718 392.131 192.907 390.584 192.92 390.535 187.289 375.622 187.515 374.998 198.897"/><polygon class="cls-1" points="381.99 177.081 382.764 145.801 383.538 177.081 381.99 177.081"/><polygon class="cls-1" points="374.124 237.117 370.379 237.524 370.956 236.86 370.357 260.694 369.62 236.864 369.603 236.298 370.198 236.2 373.913 235.584 374.124 237.117"/><path class="cls-1" d="M366.821,268.1c-.077-3.308-.1-6.616-.14-9.924s-.062-6.615-.071-9.922,0-6.615,0-9.922l.05-9.921.721.725c-4.42.082-8.842.106-13.262.162l.76-.772c.053,4.845.056,9.69.087,14.534,0,4.845.012,9.69-.012,14.535l-.041,7.268-.076,7.268-.125,7.269-.063,3.634-.095,3.634-.149-3.632-.119-3.633-.235-7.266-.187-7.266-.151-7.266c-.1-4.845-.163-9.689-.233-14.533-.043-4.845-.114-9.69-.134-14.534l0-.77.764,0c4.421-.018,8.842-.067,13.263-.059l.738,0-.017.723-.226,9.919c-.094,3.306-.166,6.612-.278,9.917s-.21,6.612-.347,9.917S366.989,264.794,366.821,268.1Z"/><polygon class="cls-1" points="364.803 228.966 363.284 308.994 363.256 228.952 364.803 228.966"/><polygon class="cls-1" points="362.142 228.829 360.622 308.856 360.594 228.814 362.142 228.829"/><polygon class="cls-1" points="359.24 228.691 357.721 308.718 357.693 228.676 359.24 228.691"/><rect class="cls-1" x="370.683" y="264.231" width="36.701" height="1.547"/><rect class="cls-1" x="370.683" y="270.419" width="36.701" height="1.547"/><rect class="cls-1" x="370.073" y="274.952" width="36.701" height="1.547"/><rect class="cls-1" x="370.073" y="279.484" width="36.701" height="1.547"/><rect class="cls-1" x="370.073" y="283.683" width="36.701" height="1.547"/><rect class="cls-1" x="370.073" y="288.767" width="36.701" height="1.547"/><rect class="cls-1" x="370.606" y="293.188" width="36.701" height="1.547"/><polygon class="cls-1" points="352.121 234.333 351.347 315.736 350.573 234.333 352.121 234.333"/><polygon class="cls-1" points="347.313 239.141 346.539 305.293 345.765 239.141 347.313 239.141"/><polygon class="cls-1" points="345.489 240.633 344.715 305.483 343.942 240.633 345.489 240.633"/><polygon class="cls-1" points="337.2 263.678 336.426 313.581 335.652 263.678 337.2 263.678"/><polygon class="cls-1" points="332.723 263.678 331.95 313.25 331.176 263.678 332.723 263.678"/><polygon class="cls-1" points="327.418 263.512 326.644 303.966 325.871 263.512 327.418 263.512"/><polygon class="cls-1" points="322.942 263.181 322.168 302.976 321.394 263.181 322.942 263.181"/><polygon class="cls-1" points="319.294 272.297 318.576 290.149 317.747 272.301 319.294 272.297"/><rect class="cls-1" x="321.505" y="262.573" width="15.722" height="1.547"/><rect class="cls-1" x="319.115" y="270.724" width="1.547" height="3.896" transform="translate(44.959 590.622) rotate(-89.594)"/><polygon class="cls-1" points="317.913 271.621 317.139 314.489 316.366 271.621 317.913 271.621"/><polygon class="cls-1" points="313.436 271.621 312.663 314.205 311.889 271.621 313.436 271.621"/><polygon class="cls-1" points="308.131 271.478 307.358 306.23 306.584 271.478 308.131 271.478"/><polygon class="cls-1" points="303.655 271.193 302.881 305.379 302.108 271.193 303.655 271.193"/><polygon class="cls-1" points="300.008 279.024 299.289 294.36 298.46 279.029 300.008 279.024"/><rect class="cls-1" x="302.218" y="270.562" width="15.722" height="1.547"/><rect class="cls-1" x="299.828" y="277.399" width="1.547" height="3.896" transform="translate(19.424 578.237) rotate(-89.65)"/><polygon class="cls-1" points="298.626 283.853 297.852 317.394 297.079 283.853 298.626 283.853"/><polygon class="cls-1" points="294.15 283.853 293.376 317.172 292.602 283.853 294.15 283.853"/><polygon class="cls-1" points="288.845 283.741 288.071 310.932 287.297 283.741 288.845 283.741"/><polygon class="cls-1" points="284.368 283.518 283.594 310.266 282.821 283.518 284.368 283.518"/><polygon class="cls-1" points="280.721 289.643 280.002 301.645 279.174 289.651 280.721 289.643"/><rect class="cls-1" x="282.931" y="282.856" width="15.722" height="1.547"/><rect class="cls-1" x="280.541" y="287.95" width="1.547" height="3.896" transform="translate(-9.916 569.832) rotate(-89.728)"/><polygon class="cls-1" points="276.659 294.234 275.885 321.453 275.112 294.234 276.659 294.234"/><polygon class="cls-1" points="272.183 294.234 271.409 321.273 270.635 294.234 272.183 294.234"/><polygon class="cls-1" points="266.877 294.143 266.104 316.209 265.33 294.143 266.877 294.143"/><polygon class="cls-1" points="262.401 293.962 261.627 315.669 260.854 293.962 262.401 293.962"/><polygon class="cls-1" points="258.754 298.932 258.035 308.672 257.206 298.94 258.754 298.932"/><rect class="cls-1" x="260.964" y="293.279" width="15.722" height="1.547"/><rect class="cls-1" x="258.574" y="297.192" width="1.547" height="3.896" transform="translate(-40.795 557.325) rotate(-89.778)"/><path class="cls-1" d="M528.548,249.285c-.113-8.133-.18-16.266-.254-24.4l-.111-12.2-.066-12.2-.131-24.4c-.057-8.133-.053-16.266-.067-24.4v-.719l.721.036,3.15.16-.726.689-.016-8.124,0-.727.731.022,15.529.467.712.021v.715l.016,7.74-.752-.752,1.714,0,.755,0v.758l0,9.5-.033,9.494-.065,18.99-.151,37.978-.282,37.978-.207,18.99-.107,9.494-.137,9.5-.11-9.5-.078-9.5-.152-18.99-.171-37.979-.04-37.979-.01-18.989,0-9.5.033-9.494.755.756-1.714,0-.753,0v-.75l.015-7.74.713.736-15.528-.528.729-.706-.016,8.124v.729l-.725-.04-3.15-.172.72-.682c-.023,8.132-.028,16.265-.1,24.4l-.158,24.4-.08,12.2-.125,12.2C528.746,233.019,528.669,241.152,528.548,249.285Z"/><polygon class="cls-1" points="526.337 178.327 525.563 240.996 524.79 178.327 526.337 178.327"/><polygon class="cls-1" points="522.8 178.99 522.027 241.659 521.253 178.99 522.8 178.99"/><polygon class="cls-1" points="518.158 178.99 517.385 241.659 516.611 178.99 518.158 178.99"/><polygon class="cls-1" points="509.462 163.925 513.819 167.753 514.072 167.975 514.068 168.298 513.185 242.764 512.633 168.295 512.882 168.84 508.452 165.097 509.462 163.925"/><polygon class="cls-1" points="509.482 164.209 508.542 243.759 507.935 164.206 509.482 164.209"/><polygon class="cls-1" points="509.763 164.273 505.025 168.651 505.25 168.135 504.122 245.306 503.822 168.127 503.821 167.827 504.047 167.611 508.703 163.147 509.763 164.273"/><polygon class="cls-1" points="501.027 185.069 500.253 247.738 499.479 185.069 501.027 185.069"/><polygon class="cls-1" points="501.026 185.388 499.481 185.303 500.183 172.48 518.096 172.209 518.158 179.398 516.611 179.411 516.562 173.78 501.649 174.006 501.026 185.388"/><polygon class="cls-1" points="508.018 163.572 508.791 132.292 509.565 163.572 508.018 163.572"/><polygon class="cls-1" points="500.151 223.608 496.406 224.014 496.984 223.351 496.385 247.185 495.647 223.354 495.63 222.789 496.225 222.691 499.941 222.075 500.151 223.608"/><path class="cls-1" d="M492.848,254.59c-.077-3.308-.1-6.616-.14-9.924s-.061-6.615-.071-9.922,0-6.615,0-9.922l.051-9.921.72.725c-4.42.082-8.841.106-13.262.162l.76-.772c.053,4.844.056,9.689.087,14.534,0,4.845.013,9.69-.012,14.535l-.041,7.268-.076,7.268-.125,7.269-.063,3.634-.095,3.634-.149-3.632-.119-3.633-.235-7.266-.187-7.266-.151-7.266c-.1-4.845-.162-9.689-.233-14.534-.043-4.844-.113-9.689-.134-14.534l0-.769.763,0c4.421-.018,8.842-.068,13.264-.059l.737,0-.017.723-.226,9.919c-.094,3.305-.166,6.612-.278,9.917s-.21,6.612-.347,9.917S493.016,251.285,492.848,254.59Z"/><polygon class="cls-1" points="490.831 215.457 489.311 295.485 489.283 215.443 490.831 215.457"/><polygon class="cls-1" points="488.169 215.32 486.649 295.347 486.622 215.305 488.169 215.32"/><polygon class="cls-1" points="485.268 215.182 483.748 295.209 483.72 215.167 485.268 215.182"/><rect class="cls-1" x="496.71" y="250.722" width="36.701" height="1.547"/><rect class="cls-1" x="496.71" y="256.91" width="36.701" height="1.547"/><rect class="cls-1" x="496.1" y="261.443" width="36.701" height="1.547"/><rect class="cls-1" x="496.1" y="265.975" width="36.701" height="1.547"/><rect class="cls-1" x="496.1" y="270.174" width="36.701" height="1.547"/><rect class="cls-1" x="496.1" y="275.258" width="36.701" height="1.547"/><rect class="cls-1" x="496.633" y="279.679" width="36.701" height="1.547"/><polygon class="cls-1" points="478.148 220.824 477.374 302.227 476.6 220.824 478.148 220.824"/><polygon class="cls-1" points="473.34 225.632 472.566 291.784 471.793 225.632 473.34 225.632"/><polygon class="cls-1" points="471.516 227.124 470.743 291.973 469.969 227.124 471.516 227.124"/><polygon class="cls-1" points="463.227 250.169 462.453 300.072 461.68 250.169 463.227 250.169"/><polygon class="cls-1" points="458.75 250.169 457.977 299.741 457.203 250.169 458.75 250.169"/><polygon class="cls-1" points="453.445 250.003 452.672 290.457 451.898 250.003 453.445 250.003"/><polygon class="cls-1" points="448.969 249.672 448.195 289.466 447.422 249.672 448.969 249.672"/><polygon class="cls-1" points="445.322 258.788 444.603 276.64 443.774 258.792 445.322 258.788"/><rect class="cls-1" x="447.532" y="249.064" width="15.722" height="1.547"/><rect class="cls-1" x="445.142" y="257.215" width="1.547" height="3.896" transform="translate(183.603 703.233) rotate(-89.594)"/><path class="cls-1" d="M52.913,332.374a30.4,30.4,0,0,0-15.845-12.288l.494-1.467a31.956,31.956,0,0,1,16.649,12.912Z"/><path class="cls-1" d="M51.744,341.051l-1.006-1.176a49.455,49.455,0,0,1,19.311-10.327c21.463-5.816,39.928,5.383,45.075,8.953l-.882,1.272c-5.009-3.475-22.969-14.371-43.788-8.732A47.928,47.928,0,0,0,51.744,341.051Z"/><path class="cls-1" d="M32.577,354.353l-.471-1.474a316.984,316.984,0,0,1,112.347-14.625l-.077,1.545a315.454,315.454,0,0,0-111.8,14.554Z"/><path class="cls-1" d="M33.351,376.605l-.03-1.547c26.564-.512,49.531-6.278,68.264-17.138,1.571-.911,3.28-1.954,5.09-3.058,10.506-6.41,24.893-15.188,46.205-19.578a124.708,124.708,0,0,1,17.683-2.335l.092,1.544a123.223,123.223,0,0,0-17.463,2.307c-21.048,4.335-35.3,13.033-45.711,19.383-1.817,1.109-3.534,2.156-5.12,3.076C83.4,370.251,60.18,376.088,33.351,376.605Z"/><path class="cls-1" d="M38.138,420.3l-.651-1.4a536.512,536.512,0,0,1,51.967-20.92c23.751-8.132,43.6-13.025,58.09-16.6,7.6-1.873,15.3-3.66,22.9-5.311l.329,1.512c-7.587,1.649-15.278,3.432-22.859,5.3-14.465,3.566-34.274,8.449-57.96,16.559A534.993,534.993,0,0,0,38.138,420.3Z"/><path class="cls-1" d="M429.506,367.948a185.358,185.358,0,0,1-46.216-5.625c-5.626-1.445-10.627-3.027-20.589-6.179-10.488-3.319-26.338-8.334-54.047-16.709-4.693-1.418-15.683-4.74-30.327-8.838-10.414-2.915-20.95-5.739-31.315-8.395l.384-1.5c10.376,2.659,20.923,5.486,31.348,8.4,14.659,4.1,25.66,7.427,30.357,8.847,27.72,8.378,43.575,13.395,54.067,16.714,9.935,3.144,14.922,4.722,20.507,6.156,28.522,7.325,60.31,7.434,94.481.324l.315,1.515A240.57,240.57,0,0,1,429.506,367.948Z"/><path class="cls-1" d="M428.366,346.277a131.592,131.592,0,0,1-29.139-3.18c-7.676-1.738-14.938-4.117-22.627-6.635-17.06-5.587-34.7-11.364-60.435-11.583a176.626,176.626,0,0,0-33.673,2.971l-.282-1.521a177.892,177.892,0,0,1,33.969-3c25.973.221,44.53,6.3,60.9,11.66,7.653,2.506,14.882,4.874,22.487,6.595,28.155,6.375,59.576,3.039,93.389-9.915l.553,1.445C470.638,341.88,448.831,346.276,428.366,346.277Z"/><path class="cls-1" d="M437.126,341.04c-10.491,0-19.156-2.029-29.667-4.491-2.421-.567-4.924-1.153-7.566-1.741a406.065,406.065,0,0,0-60.177-8.605l.106-1.543a407.7,407.7,0,0,1,60.407,8.637c2.65.59,5.158,1.177,7.583,1.745,12.449,2.916,22.283,5.218,35.627,4.208a94.525,94.525,0,0,0,36.836-10.856l.719,1.37a96.035,96.035,0,0,1-37.437,11.028C441.324,340.962,439.189,341.04,437.126,341.04Z"/><path class="cls-1" d="M407.44,356.779l-1.163-1.021a74.335,74.335,0,0,1,25.131-19.095c7.455-3.367,13.428-4.372,25.327-6.376,5.314-.895,11.926-2.009,20.44-3.626,6.825-1.3,13.679-2.69,20.372-4.141l.328,1.512c-6.706,1.454-13.573,2.85-20.412,4.149-8.529,1.62-15.15,2.735-20.471,3.631-12.136,2.044-17.675,2.977-24.947,6.262A72.791,72.791,0,0,0,407.44,356.779Z"/><path class="cls-1" d="M416.511,333.407l-.736-1.361a111.669,111.669,0,0,1,17.2-7.513,115.113,115.113,0,0,1,51.573-5.009l-.19,1.536A113.554,113.554,0,0,0,433.468,326,110.091,110.091,0,0,0,416.511,333.407Z"/><path class="cls-1" d="M13,464.2l-.781-1.336c26.459-15.451,51.88-22.346,75.553-20.5,3.417.268,6.864.717,10.512,1.193a167.714,167.714,0,0,0,73.926-5.142l.44,1.484A169.234,169.234,0,0,1,98.087,445.1c-3.628-.473-7.055-.92-10.432-1.184C64.3,442.086,39.184,448.913,13,464.2Z"/><path class="cls-1" d="M505.328,408.176a245.07,245.07,0,0,1-59.2-7.057c-23-5.728-40.412-13.8-55.772-20.921-21.132-9.8-39.379-18.257-64.873-17.354a115.513,115.513,0,0,0-42.49,9.938l-.623-1.417A117.063,117.063,0,0,1,325.429,361.3c25.856-.922,44.266,7.615,65.579,17.5,15.3,7.092,32.636,15.131,55.5,20.823a245.529,245.529,0,0,0,64.951,6.941l.035,1.547Q508.4,408.175,505.328,408.176Z"/><path class="cls-1" d="M247.13,360.541a4.683,4.683,0,0,1-2.686-.762c-1.266-.871-1.555-2.132-2.211-9.633l-.1-1.151c-.4-4.691-.646-7.523-2-8.164a1.313,1.313,0,0,0-.692-.113,2.89,2.89,0,0,1-1.26-.2c-2.277-.933-2.467-4.083-2.668-7.417-.06-.981-.121-2-.238-2.929-.365-2.905-1.119-4.34-2.49-6.945-.657-1.25-1.475-2.805-2.42-4.878-2.38-5.22-3.667-10.054-6.233-19.683-2.178-8.177-4.235-15.9-5.327-26.315-.869-8.288-.767-14.435.34-20.555,1.818-10.051,4.971-13.288,7.516-14.985a14.006,14.006,0,0,1,4.327-1.908,6.674,6.674,0,0,0-3.555-1.959l-.068-.018c-3.965-1.034-9.2-3.307-16-6.947l-.141-.075-.1-.125a26.532,26.532,0,0,0-3.946-4.028c-.268-.219-.524-.42-.766-.609-1.179-.922-2.2-1.719-2.41-3.1a3.222,3.222,0,0,1,.435-2.044c.13-.28.277-.6.439-1.009a11.007,11.007,0,0,0,.763-3.561,13.124,13.124,0,0,1,.893-4.144,7.821,7.821,0,0,1,.687-1.428,7.863,7.863,0,0,0,.643-1.318,20.4,20.4,0,0,0,1.357-5.922c.668-6.667,1.071-10.691.7-11.776a13.27,13.27,0,0,0-6.252-7.022c-5.831-2.983-11.834-.19-13.535.737a14.684,14.684,0,0,0-6.625,6.928c-2.893,6.553.151,14.047,1.153,16.187.29.619.609,1.224.946,1.864a19.606,19.606,0,0,1,2.773,8.7,18.361,18.361,0,0,1-.144,3.433l-1.533-.209a16.892,16.892,0,0,0,.132-3.144,18.07,18.07,0,0,0-2.6-8.061c-.332-.628-.674-1.278-.979-1.93-1.072-2.29-4.325-10.318-1.168-17.468a16.217,16.217,0,0,1,7.3-7.661c1.869-1.019,8.473-4.085,14.98-.756a14.885,14.885,0,0,1,7.011,7.9c.48,1.4.133,4.859-.625,12.429a21.83,21.83,0,0,1-1.461,6.346,9.439,9.439,0,0,1-.751,1.535,6.328,6.328,0,0,0-.571,1.19,11.658,11.658,0,0,0-.8,3.714,12.435,12.435,0,0,1-.865,4c-.179.456-.343.81-.475,1.094-.29.625-.364.8-.31,1.158.115.746.708,1.24,1.834,2.121.251.2.516.4.793.631a27.968,27.968,0,0,1,4.077,4.136c6.626,3.538,11.705,5.743,15.523,6.739l.066.017a7.993,7.993,0,0,1,4.586,2.754,8.362,8.362,0,0,1,1.319,5.779l-.007.08c-.28,3.482.445,6.887,1.213,10.492a58.4,58.4,0,0,1,1.218,7.175c1.655,19.453,2.566,30.168,4.38,35.286.221.624.462,1.273.721,1.969a100.921,100.921,0,0,1,3.165,9.693c.638,2.358.863,3.5,1.174,5.093.314,1.605.705,3.6,1.705,7.748,1.722,7.145,2.86,11.866,3.129,12.406l.138.236c.791,1.345,2.262,3.848,1.172,5.628A3.254,3.254,0,0,1,250.2,337c-.458.219-.652.328-.727.532-.137.367.257.952.911,1.876.21.3.436.616.667.966a23.954,23.954,0,0,1,3.314,8.435,13.742,13.742,0,0,1,.338,5.062,8.074,8.074,0,0,1-1.847,4.139A8.207,8.207,0,0,1,247.13,360.541Zm-7.548-21.372a2.665,2.665,0,0,1,1.21.263c2.161,1.021,2.418,4.008,2.883,9.431l.1,1.148c.6,6.867.883,8.037,1.547,8.494,1.548,1.067,4.716.3,6.394-1.542a6.576,6.576,0,0,0,1.469-3.376,11.844,11.844,0,0,0-.326-4.443,22.266,22.266,0,0,0-3.1-7.924c-.221-.334-.437-.64-.638-.923-.819-1.158-1.527-2.157-1.1-3.308a2.566,2.566,0,0,1,1.51-1.39,1.856,1.856,0,0,0,.876-.624c.6-.988-.605-3.047-1.186-4.036l-.15-.256c-.328-.567-1-3.326-3.288-12.807-1.007-4.178-1.4-6.194-1.719-7.814-.3-1.556-.525-2.681-1.149-4.986a99.674,99.674,0,0,0-3.121-9.558c-.262-.7-.506-1.36-.73-1.991-1.8-5.091-2.671-14.615-4.462-35.672a57.5,57.5,0,0,0-1.191-6.984c-.757-3.555-1.54-7.231-1.241-10.938l.007-.083a7.945,7.945,0,0,0-.37-3.556,12.588,12.588,0,0,0-4.3,1.8c-2.111,1.408-5.118,4.388-6.852,13.972-1.079,5.968-1.176,11.985-.323,20.119,1.079,10.3,3.121,17.96,5.283,26.076,2.544,9.548,3.82,14.339,6.146,19.441.927,2.033,1.7,3.5,2.382,4.8a19.162,19.162,0,0,1,2.655,7.472c.124.984.186,2.023.247,3.029.163,2.711.333,5.514,1.711,6.078a1.406,1.406,0,0,0,.645.087Z"/><path class="cls-1" d="M214.568,332.093A414.6,414.6,0,0,1,215.6,281.6c.548-6.694,1.27-13.465,2.145-20.126l1.535.2c-.873,6.636-1.592,13.382-2.138,20.05a412.915,412.915,0,0,0-1.023,50.3Z"/><path class="cls-1" d="M198.122,335.293a91.107,91.107,0,0,1-18.729-1.922,32.135,32.135,0,0,1-5.825-1.742,24.948,24.948,0,0,0-5-1.461l-.316-.065a13.244,13.244,0,0,1-6.438-2.756,12.746,12.746,0,0,1-2.727-3.437c-1.732-3.319-.848-6.67.489-11.741.375-1.422.8-3.033,1.211-4.817,1.983-8.586,2.979-12.895,2.745-17.135l-.014-.242a20.831,20.831,0,0,1,1.283-9.26,9.642,9.642,0,0,1,.818-1.665,5.964,5.964,0,0,0,.609-1.3c.483-1.347,1.134-4.466.078-10.21a51.883,51.883,0,0,0-1.418-5.56c-2.075-7.109-3.117-10.677-4.269-13.153a43.479,43.479,0,0,0-2.683-4.89,13.6,13.6,0,0,1-2.468-6.284,11.686,11.686,0,0,1,.849-6.961c1.978-3.966,6.168-5.407,7.957-6.023a13.8,13.8,0,0,1,4.245-.731c1.186-.076,2.81-.18,5.411-.52,2.306-.3,3.438-.535,4.436-.74.863-.177,1.609-.33,2.869-.477a41.374,41.374,0,0,1,11.4.449c.519.07,1.054.142,1.612.215,5.469.715,11.223,1.242,17.1,1.57l-.087,1.545c-5.916-.33-11.708-.861-17.216-1.581-.559-.073-1.1-.145-1.618-.215a39.621,39.621,0,0,0-11.013-.447c-1.194.14-1.909.287-2.738.457-1.024.21-2.185.448-4.546.758-2.652.347-4.306.453-5.513.53a12.312,12.312,0,0,0-3.841.65c-1.746.6-5.38,1.851-7.075,5.251a10.167,10.167,0,0,0-.7,6.081,12.219,12.219,0,0,0,2.25,5.661,45.514,45.514,0,0,1,2.768,5.049c1.2,2.583,2.254,6.189,4.351,13.373a53.133,53.133,0,0,1,1.455,5.714c.831,4.521.78,8.431-.143,11.011a7.436,7.436,0,0,1-.741,1.571,8.225,8.225,0,0,0-.705,1.438,19.393,19.393,0,0,0-1.176,8.6l.014.247c.246,4.46-.766,8.84-2.782,17.567-.417,1.809-.845,3.433-1.223,4.865-1.289,4.891-2.068,7.843-.613,10.632a11.355,11.355,0,0,0,2.358,2.974,11.775,11.775,0,0,0,5.748,2.418l.318.066a26.362,26.362,0,0,1,5.255,1.539,30.741,30.741,0,0,0,5.588,1.669A89.724,89.724,0,0,0,204.48,333.5a59.808,59.808,0,0,0,8.632-1.092c1.723-.365,2.851-.7,3.758-.966a12.8,12.8,0,0,1,4.133-.708,20.158,20.158,0,0,1,4.21.45c1.385.263,2.017.362,2.469-.036.871-.766.53-2.791.327-4l-.026-.154a78.778,78.778,0,0,1-.867-15.908l1.546.06a77.2,77.2,0,0,0,.847,15.593l.026.153c.273,1.626.686,4.084-.831,5.418-1.039.915-2.248.686-3.779.4a18.787,18.787,0,0,0-3.91-.424,11.424,11.424,0,0,0-3.707.645c-.932.275-2.093.618-3.875,1a61.812,61.812,0,0,1-8.832,1.12C202.372,335.22,200.2,335.293,198.122,335.293Z"/><path class="cls-1" d="M183.407,223.122l-1.017-1.166a19.636,19.636,0,0,0,3.861-4.58l.217-.355.416-.015c3.47-.127,6.987-.109,10.454.056,2.542.12,5.115.322,7.648.6l-.168,1.538c-2.5-.274-5.043-.473-7.553-.592-3.287-.155-6.62-.178-9.915-.069-.375.588-.781,1.162-1.212,1.709A21.328,21.328,0,0,1,183.407,223.122Z"/><path class="cls-1" d="M225.309,372.754l-1.526-.255a195.215,195.215,0,0,0,2.642-29.284c.049-3.49,0-7.03-.138-10.52l1.547-.062c.141,3.518.188,7.086.138,10.6A196.731,196.731,0,0,1,225.309,372.754Z"/><path class="cls-1" d="M242.723,472.848a23.105,23.105,0,0,1-4.455-.431,23.823,23.823,0,0,1-3.381-.959c-.473-.159-1.018-.342-1.682-.557-3.027-.978-6.2-1.855-9.428-2.606a12.683,12.683,0,0,1-2.518-.013,13.733,13.733,0,0,1-7.559-3.449l-.076-.077-1.518-1.772.006-.295c1.032-50.083,1.041-77.4.026-81.186l-.014-.051a6.669,6.669,0,0,1,.029-3.962c1.02-3.009,4.26-4.46,6.609-5.289,4.742-1.675,8.644-1.836,13.162-2.023,1.159-.048,2.358-.1,3.628-.175,9.728-.593,18.128-1.1,23.652-2.466l.155-.039c1.518-.378,4.677-1.164,7.6.352a7.045,7.045,0,0,1,1.195.789,5.037,5.037,0,0,0,1.246.764,5.624,5.624,0,0,0,2.913.428,17.283,17.283,0,0,1,3,.093,15.991,15.991,0,0,1,6.977,2.535,9.981,9.981,0,0,1,2.765,2.6,9.742,9.742,0,0,1,1.631,6.279c-.753,42.975-.747,66.375.019,71.529a17.6,17.6,0,0,1-.808,7.884c-.391,1.123-1.58,4.543-4.558,5.613a5.333,5.333,0,0,1-1.026.257c-5.52.841-11.1,1.895-16.5,2.914-5.339,1.009-10.86,2.051-16.328,2.889A29.948,29.948,0,0,1,242.723,472.848Zm-18.847-6.118.126.029c3.315.767,6.572,1.665,9.679,2.67.671.217,1.221.4,1.7.562a22.182,22.182,0,0,0,3.186.907,23.978,23.978,0,0,0,8.68,0c5.448-.835,10.956-1.875,16.282-2.881,5.412-1.022,11.008-2.079,16.551-2.923a3.9,3.9,0,0,0,.74-.184c2.282-.821,3.289-3.715,3.62-4.666a16.246,16.246,0,0,0,.739-7.145c-.79-5.316-.8-28.132-.036-71.806l0-.041a8.219,8.219,0,0,0-1.355-5.305,8.525,8.525,0,0,0-2.374-2.21,14.39,14.39,0,0,0-6.287-2.273,15.748,15.748,0,0,0-2.756-.083,7.093,7.093,0,0,1-3.6-.557,6.56,6.56,0,0,1-1.578-.962,5.413,5.413,0,0,0-.954-.634c-2.4-1.247-5.178-.556-6.512-.224l-.158.039c-5.661,1.4-14.125,1.911-23.927,2.508-1.287.078-2.493.128-3.66.177-4.393.182-8.188.339-12.711,1.936-2.044.721-4.855,1.955-5.659,4.326a5.164,5.164,0,0,0,0,3.056l.017.06c1.065,3.977,1.075,30.581.032,81.324l1.1,1.281a12.168,12.168,0,0,0,6.659,3.036,11.008,11.008,0,0,0,2.324,0Z"/><path class="cls-1" d="M222.246,467.307c-1.24-43.96-1.621-78.818-.928-84.768a12.445,12.445,0,0,1,3.045-7.28c.532-.565,1.644-1.5,5.132-3.1a27.165,27.165,0,0,1,10.533-2.437l.047,1.547a25.632,25.632,0,0,0-9.937,2.3,16.716,16.716,0,0,0-4.649,2.749,10.839,10.839,0,0,0-2.634,6.4c-.685,5.885-.3,40.651.938,84.545Z"/><path class="cls-1" d="M242.005,472.824a9.362,9.362,0,0,1-6.359-4.462A8.743,8.743,0,0,1,234.6,463.8l-.332-55.76c-1.458-14.248,0-24.3,2.093-27.948a14.745,14.745,0,0,1,4.813-5.146,11.974,11.974,0,0,1,3.856-1.422l25.191-3.511.213,1.532-25.155,3.506a10.417,10.417,0,0,0-3.326,1.232,13.453,13.453,0,0,0-4.251,4.58c-1.907,3.322-3.312,13.207-1.89,27.057l0,.074.331,55.835v.019a7.2,7.2,0,0,0,.851,3.773,7.783,7.783,0,0,0,5.292,3.686Z"/><path class="cls-1" d="M282.108,374.906q-3.831.628-7.682,1.117c-2.571.331-5.141.586-7.692.86-5.123.537-10.213,1.1-15.369,1.6l-.258.02a2.842,2.842,0,0,1-.362.008l-.48-.025c-.315-.015-.623-.029-.923-.031a9.409,9.409,0,0,0-1.74.124,5.944,5.944,0,0,0-2.971,1.4,7.947,7.947,0,0,0-1.972,2.8,12.4,12.4,0,0,0-.6,1.7c-.078.289-.169.6-.221.9l-.167.894c-.188,1.22-.316,2.489-.407,3.759-.117,1.265-.156,2.55-.237,3.825l-.149,3.842-.1,3.848c-.189,10.27-.1,20.556.055,30.838s.429,20.565.758,30.847l0-.021,2.162,4.637-2.259-4.591-.005-.009v-.012q-.818-15.408-1.407-30.831c-.377-10.283-.678-20.569-.706-30.871l.018-3.866.069-3.869c.054-1.293.066-2.581.158-3.879.067-1.3.167-2.592.343-3.916l.167-1.006c.054-.335.137-.644.22-.978a14.392,14.392,0,0,1,.643-1.95,9.8,9.8,0,0,1,2.376-3.5,7.9,7.9,0,0,1,3.874-1.933,11.325,11.325,0,0,1,2.1-.2c.343,0,.678,0,1.006.012l.483.015c.131,0,.019,0,.119-.008l.223-.022c5.071-.6,10.192-1.274,15.288-1.918,2.556-.329,5.1-.635,7.622-1.014s5.05-.8,7.562-1.263Z"/><path class="cls-1" d="M240.368,369.736l-.849-12.305a4.428,4.428,0,0,1,.535-2.345,4.55,4.55,0,0,1,2.733-2.132l.627,2.235a2.247,2.247,0,0,0-1.328,1.018,2.09,2.09,0,0,0-.25,1.1l.847,12.273Z"/><path class="cls-1" d="M257.261,369.237l-2.315-.16.849-12.305a2.074,2.074,0,0,0-.252-1.064,2.251,2.251,0,0,0-1.327-1.018l.625-2.235a4.549,4.549,0,0,1,2.734,2.132,4.41,4.41,0,0,1,.537,2.314Z"/><rect class="cls-1" x="243.08" y="359.773" width="2.321" height="10.233" transform="translate(-30.151 22.097) rotate(-4.879)"/><rect class="cls-1" x="249.069" y="362.817" width="10.031" height="2.321" transform="translate(-111.99 615.032) rotate(-89.524)"/><rect class="cls-1" x="241.348" y="358.113" width="2.925" height="2.321" transform="translate(-43.806 33.873) rotate(-7.322)"/><rect class="cls-1" x="251.7" y="356.783" width="4.873" height="2.321" transform="translate(-14.523 10.768) rotate(-2.36)"/><path class="cls-1" d="M174.754,162.129A218.7,218.7,0,0,1,223.7,150.123c4.18-.547,8.376-.94,12.559-1.309s8.354-.725,12.436-1.388a44.292,44.292,0,0,0,11.748-3.465,47.034,47.034,0,0,0,10.308-6.635c1.589-1.313,3.108-2.735,4.743-4.124a32.235,32.235,0,0,1,5.33-3.745,35.127,35.127,0,0,1,5.985-2.548,23.906,23.906,0,0,1,6.452-1.181c2.161-.106,4.271-.057,6.374-.024l6.293.111q6.285.077,12.571.035c4.193-.029,8.38-.146,12.586-.215,2.1-.034,4.212-.056,6.339.029a21.569,21.569,0,0,1,6.369,1.049,19.435,19.435,0,0,1,5.534,3.3,24.2,24.2,0,0,1,4.326,4.691,31.7,31.7,0,0,1,3.09,5.536,41.48,41.48,0,0,1,2.039,5.97,41.346,41.346,0,0,0-2.357-5.822,31.5,31.5,0,0,0-3.289-5.3,24.342,24.342,0,0,0-4.37-4.372,18.421,18.421,0,0,0-5.341-2.928,20.614,20.614,0,0,0-6.04-.8c-2.071-.021-4.16.063-6.254.159-4.188.2-8.393.378-12.6.506s-8.413.2-12.62.188l-6.3-.03c-2.094-.006-4.187-.024-6.219.1a22.577,22.577,0,0,0-5.893,1.118,33.056,33.056,0,0,0-5.577,2.4,30,30,0,0,0-4.941,3.509c-1.56,1.334-3.1,2.793-4.746,4.158a49.294,49.294,0,0,1-10.844,6.911,45.43,45.43,0,0,1-12.352,3.572c-4.218.628-8.428.918-12.612,1.244l-6.269.5-3.128.27-3.122.314A258.9,258.9,0,0,0,174.754,162.129Z"/><path class="cls-1" d="M290.288,183.334a76.4,76.4,0,0,1,12.876-7.705,68.452,68.452,0,0,1,7.006-2.815c1.195-.408,2.407-.763,3.628-1.085.608-.173,1.22-.324,1.836-.465s1.228-.294,1.846-.416c1.232-.266,2.471-.493,3.7-.716s2.455-.42,3.649-.669A18.331,18.331,0,0,0,331.419,167a21.14,21.14,0,0,0,5.047-4.931,52.141,52.141,0,0,0,3.9-6.2,37.218,37.218,0,0,1,2.06-3.26,17.087,17.087,0,0,1,2.685-2.954,13.061,13.061,0,0,1,3.443-2.224,7.953,7.953,0,0,1,2.1-.51,15.7,15.7,0,0,1,2-.076c1.285.02,2.516.086,3.757.119s2.473.059,3.709.061q3.711-.008,7.428-.176c1.241-.053,2.488-.125,3.759-.152a12.584,12.584,0,0,1,3.963.385,5.815,5.815,0,0,1,1.864,1.012,9.1,9.1,0,0,1,1.415,1.445,18.582,18.582,0,0,1,2.032,3.291,27.845,27.845,0,0,1,1.409,3.536,36.962,36.962,0,0,1,1,3.64,59.3,59.3,0,0,1,1.172,7.411q-.361-1.836-.811-3.65c-.29-1.21-.612-2.411-.982-3.595a34.612,34.612,0,0,0-2.8-6.815,17.912,17.912,0,0,0-2.045-2.963,5.531,5.531,0,0,0-2.692-1.854,12.02,12.02,0,0,0-3.464-.169c-1.22.071-2.461.186-3.709.285s-2.5.191-3.753.265-2.51.11-3.767.137-2.516.034-3.771.022-2.513-.045-3.722-.037a16.79,16.79,0,0,0-1.735.09,5.717,5.717,0,0,0-1.522.377,11.017,11.017,0,0,0-2.788,1.855,20.568,20.568,0,0,0-4.225,5.661,54.149,54.149,0,0,1-4.114,6.418c-.394.51-.823,1-1.233,1.5a8.9,8.9,0,0,1-.657.721l-.682.7a8.378,8.378,0,0,1-.722.672l-.747.651c-.249.217-.534.4-.8.593s-.534.4-.825.563a20.414,20.414,0,0,1-7.382,2.608c-2.5.454-4.963.734-7.393,1.165C308.091,174.243,298.849,178.223,290.288,183.334Z"/><path class="cls-1" d="M216.284,119.177a195.591,195.591,0,0,1,46.323-12.038c3.968-.545,7.953-.942,11.924-1.31,3.966-.384,7.927-.729,11.779-1.431a46.362,46.362,0,0,0,5.66-1.4c.458-.154.927-.28,1.377-.456l1.347-.533.674-.266.654-.313,1.307-.625a44.279,44.279,0,0,0,9.527-6.672c1.461-1.3,2.867-2.7,4.394-4.062a29.661,29.661,0,0,1,5-3.674,32.7,32.7,0,0,1,5.665-2.51,21.579,21.579,0,0,1,6.156-1.126c2.056-.094,4.058-.04,6.055,0l5.975.109q5.967.072,11.936.021c3.981-.029,7.957-.158,11.954-.222,2-.025,4-.056,6.034.067.507.03,1.017.087,1.525.129.509.074,1.019.139,1.527.238a14.206,14.206,0,0,1,1.51.383c.248.081.5.153.743.243l.72.3a5.8,5.8,0,0,1,.7.339l.685.364c.431.28.878.537,1.29.839s.833.593,1.222.923.787.648,1.15,1.006a24.238,24.238,0,0,1,3.852,4.681,32.588,32.588,0,0,1,2.732,5.365,44.124,44.124,0,0,1,1.8,5.716,37.861,37.861,0,0,0-5.063-10.722,24.549,24.549,0,0,0-3.92-4.372c-.361-.329-.762-.61-1.139-.918s-.8-.553-1.2-.833-.833-.494-1.248-.742l-.648-.311a5.159,5.159,0,0,0-.657-.286,15.912,15.912,0,0,0-5.642-1.015c-1.955-.057-3.94.035-5.926.123-3.974.19-7.968.384-11.961.512s-7.991.208-11.989.2l-5.988-.027c-1.989-.008-3.978-.032-5.9.085a22.94,22.94,0,0,0-2.829.332,20.662,20.662,0,0,0-2.736.722,30.508,30.508,0,0,0-5.247,2.352,27.437,27.437,0,0,0-4.6,3.421c-1.448,1.3-2.859,2.723-4.374,4.077a46.534,46.534,0,0,1-10.049,6.965,41.186,41.186,0,0,1-11.663,3.731c-4.009.673-8.01.962-11.984,1.293s-7.935.634-11.882,1.081A231.048,231.048,0,0,0,216.284,119.177Z"/><path class="cls-1" d="M162.871,253.9a129.946,129.946,0,0,1-15.751-4.945c-7.594-2.934-10.216-4.8-12.4-7.222a18.752,18.752,0,0,1-4.083-6.739,12.677,12.677,0,0,1-.371-6.5c.182-1.538.409-3.452.5-6.318.051-1.673.044-3.309.036-4.891-.018-3.827-.035-7.443.822-10.492a20.091,20.091,0,0,1,1.56-3.981,12.8,12.8,0,0,1,1.325-1.948,4.119,4.119,0,0,0,.782-1.263c.448-1.193.2-2.227-.243-4.1-.072-.306-.149-.631-.229-.979-.4-1.766-.678-3.558-1.226-7.128a26.511,26.511,0,0,1-.41-5.583,30.017,30.017,0,0,0-.311-5.324l-.057-.441c-.3-2.275-.6-4.626.917-5.75a3.95,3.95,0,0,1,1.315-.57c.388-.11.645-.191.691-.307a.746.746,0,0,0-.013-.315,4.131,4.131,0,0,1,.028-1.423c.114-.61.286-1.53,1.081-1.716.689-.16,1.157.356,1.533.881.039-.234.088-.5.154-.793.314-1.417.7-3.18,1.912-3.36.665-.1,1.114.326,1.861,1.031a9.5,9.5,0,0,1,.684.718,3.7,3.7,0,0,1,.519-.607c.414-.391.885-.834,1.461-.758.427.056,1.314.173,1.7,4.465a45.89,45.89,0,0,1-.148,8.765c-.076.7-.162,1.35-.241,1.947-.343,2.582-.469,3.867.391,4.872.7.82,1.806,1.225,2.127,1.045a2.118,2.118,0,0,0,.191-.765,10.2,10.2,0,0,1,.455-1.914c.015-.042,1.572-4.224,3.335-3.812a1.539,1.539,0,0,1,.993.948c.9,1.919,1.009,7.053-1.14,11.317a12.859,12.859,0,0,1-1.912,2.788,19.376,19.376,0,0,0-2.735,4.075,16.79,16.79,0,0,0-2.006,5.556,9.543,9.543,0,0,0,.03,2.715c.077.71.165,1.515.185,2.63.031,1.723.024,3.123.018,4.476-.01,2-.019,3.883.106,6.4.26,5.268.747,6.249,1.31,6.917a8.3,8.3,0,0,0,4.573,2.36,13.182,13.182,0,0,0,6.44-.018l.377,1.5a14.749,14.749,0,0,1-7.2.017,9.707,9.707,0,0,1-5.375-2.863c-.925-1.1-1.412-2.549-1.673-7.838-.126-2.559-.117-4.466-.108-6.484.007-1.345.013-2.735-.017-4.441-.019-1.045-.1-1.813-.176-2.49a11.009,11.009,0,0,1-.023-3.106,18.2,18.2,0,0,1,2.166-6.049,20.8,20.8,0,0,1,2.923-4.358,11.406,11.406,0,0,0,1.714-2.485c2.064-4.1,1.658-8.674,1.163-9.884a8.1,8.1,0,0,0-1.511,2.643,8.609,8.609,0,0,0-.386,1.639,2.273,2.273,0,0,1-.959,1.872c-1.2.675-3.041-.194-4.062-1.387-1.348-1.574-1.1-3.465-.75-6.082.078-.586.162-1.22.237-1.91.611-5.615.122-9.9-.322-11.266l-.09.085a2.363,2.363,0,0,0-.447.583,1.255,1.255,0,0,1-.922.727,1.431,1.431,0,0,1-1.289-.7,8.89,8.89,0,0,0-.671-.716c-.2-.19-.421-.4-.576-.525a9.6,9.6,0,0,0-.624,2.063c-.1.435-.156.807-.2,1.106-.116.726-.225,1.413-.925,1.58-.765.184-1.245-.521-1.63-1.087l0,0a2.662,2.662,0,0,0-.011.925,2.025,2.025,0,0,1-.083,1.079,2.254,2.254,0,0,1-1.707,1.229,2.665,2.665,0,0,0-.818.325c-.787.583-.53,2.561-.3,4.306l.058.446a31.543,31.543,0,0,1,.322,5.558,25.191,25.191,0,0,0,.394,5.309c.542,3.534.815,5.307,1.2,7.019.078.343.154.664.226.966.481,2.028.8,3.368.186,5a5.616,5.616,0,0,1-1.023,1.686,11.3,11.3,0,0,0-1.181,1.734,18.9,18.9,0,0,0-1.423,3.646c-.8,2.841-.781,6.351-.763,10.067.007,1.6.015,3.245-.037,4.945-.09,2.935-.321,4.886-.507,6.453-.287,2.417-.431,3.629.3,5.823a17.313,17.313,0,0,0,3.765,6.193c2.022,2.242,4.5,3.992,11.807,6.814a128.126,128.126,0,0,0,15.562,4.886ZM145,164.583Z"/><path class="cls-1" d="M187.868,455.231c-3.262,0-5.215-.2-6.729-1.156-3.486-2.2-3.28-7.432-2.994-14.674.053-1.352.108-2.75.146-4.237a49.3,49.3,0,0,0-.369-9.173c-.368-2.944-.872-6.977-1.123-19.639-.136-6.869-.09-10.772-.052-13.909.046-3.832.077-6.365-.278-11.586-.343-5.057-.725-7.9-1.254-11.841-.348-2.593-.742-5.531-1.23-9.842-1.049-9.28-1.832-18.871-2.325-28.508l1.546-.079c.491,9.605,1.271,19.165,2.317,28.413.486,4.3.879,7.225,1.226,9.81.532,3.968.917,6.835,1.264,11.943.358,5.282.328,7.839.281,11.709-.037,3.125-.084,7.015.052,13.859.25,12.581.748,16.568,1.112,19.478a50.531,50.531,0,0,1,.38,9.405c-.038,1.5-.094,2.9-.147,4.257-.275,6.975-.457,11.583,2.273,13.305,1.6,1.009,4.19.964,9.354.876,2.065-.036,2.873-.218,3.458-.779,1.36-1.306.824-4.115.623-5.172l-.018-.095c-.194-1.021-.192-1.286.013-1.773.722-1.719.825-9.807.305-24.04-.209-5.711-.4-9.3-.546-11.928-.238-4.393-.3-5.574.055-8.262l.067-.493c.241-1.767.807-5.9,1.088-11.382.116-2.271.142-3.95.159-5.061l.006-.383c.084-5.128.608-18.222,1.994-31.073l.01-.1a25.594,25.594,0,0,0-.328-8.936,7.918,7.918,0,0,0-1.032-2.138,10.072,10.072,0,0,1-1.805-5.146,9.946,9.946,0,0,1,.18-2.068l1.519.293a8.435,8.435,0,0,0-.152,1.746,8.554,8.554,0,0,0,1.585,4.38,9.093,9.093,0,0,1,1.215,2.593,27.353,27.353,0,0,1,.356,9.442l-.01.1c-1.379,12.8-1.9,25.829-1.985,30.932l-.006.381c-.017,1.123-.043,2.819-.161,5.117-.284,5.544-.856,9.726-1.1,11.512l-.066.488c-.338,2.544-.276,3.695-.044,7.974.143,2.629.338,6.23.547,11.956.8,21.79-.059,23.826-.425,24.7a.787.787,0,0,0-.036.092,5.025,5.025,0,0,0,.117.794l.018.093c.244,1.283.894,4.691-1.072,6.578-1.015.975-2.312,1.172-4.5,1.21C190.041,455.211,188.89,455.231,187.868,455.231Z"/><path class="cls-1" d="M161.062,249.736a57.461,57.461,0,0,1,1.613-18.111,56.855,56.855,0,0,1,2.017-6.331l1.445.555a55,55,0,0,0-1.962,6.158,55.9,55.9,0,0,0-1.569,17.624Z"/><path class="cls-1" d="M155.169,229.8a14.371,14.371,0,0,0-3.552.417,14.133,14.133,0,0,0-3.375,1.311,14.422,14.422,0,0,0-5.319,5.043,14.819,14.819,0,0,1,4.913-5.7,15.109,15.109,0,0,1,3.444-1.762,15.7,15.7,0,0,1,3.82-.853Z"/><path class="cls-1" d="M152.25,230.012a13.545,13.545,0,0,0-3.49-1.048,12.273,12.273,0,0,0-3.691-.035,9.273,9.273,0,0,0-.918.173,7.73,7.73,0,0,0-.906.247,10.394,10.394,0,0,0-1.754.707,12.416,12.416,0,0,0-3.107,2.244,12.633,12.633,0,0,1,2.862-2.66,10.983,10.983,0,0,1,1.737-.968,8.808,8.808,0,0,1,.927-.382c.312-.127.636-.21.959-.307a13.46,13.46,0,0,1,4.023-.463,15.2,15.2,0,0,1,4.046.684Z"/><path class="cls-1" d="M166.613,263.113a61.013,61.013,0,0,1,5.624,16.947,67.341,67.341,0,0,1,.9,8.881c.111,2.969.029,5.934.05,8.872a48.93,48.93,0,0,0,.887,8.743,55.743,55.743,0,0,0,2.381,8.485,67.518,67.518,0,0,0,3.577,8.078c1.371,2.613,2.891,5.146,4.508,7.618-1.67-2.436-3.247-4.938-4.678-7.527a67.686,67.686,0,0,1-3.769-8.033,56.215,56.215,0,0,1-2.588-8.5,49.683,49.683,0,0,1-1.091-8.842c-.086-2.968-.069-5.912-.243-8.844a66.08,66.08,0,0,0-1.072-8.716,59.619,59.619,0,0,0-5.857-16.448Z"/><path class="cls-1" d="M211.768,470.968c-1.174,0-3-.521-6.865-1.627-.941-.269-2.009-.574-3.225-.918-1.63-.46-3.288-.928-3.928-2.43a4.415,4.415,0,0,1,.622-3.948L198.4,462c.832-1.464,1.447-4.307,2.384-29.5.239-6.4.38-11.087.483-14.507.243-8.085.3-10.006.966-13.676l.04-.217a53.507,53.507,0,0,0,.57-16.958c-.085-.986-.181-2.1-.288-3.4-.371-4.5-.546-7.254-.675-9.267a50.767,50.767,0,0,0-.7-6.635,75.885,75.885,0,0,0-2.5-10.174l1.473-.474a77.366,77.366,0,0,1,2.554,10.383,52.184,52.184,0,0,1,.718,6.8c.127,2.007.3,4.755.672,9.239.107,1.3.2,2.413.288,3.4a54.981,54.981,0,0,1-.59,17.369l-.039.214c-.645,3.557-.7,5.456-.943,13.448-.1,3.422-.244,8.109-.482,14.517-.972,26.126-1.616,28.5-2.586,30.2l-.03.052a3.028,3.028,0,0,0-.54,2.57c.35.821,1.531,1.154,2.9,1.541,1.245.351,2.314.657,3.256.926,5.72,1.635,6.481,1.823,7.294,1.282a4.758,4.758,0,0,0,1.782-2.87l1.5.4a6.221,6.221,0,0,1-2.419,3.761A2.815,2.815,0,0,1,211.768,470.968Z"/><path class="cls-1" d="M193.044,461.855a15.492,15.492,0,0,1-2.006-.182c-.654-.087-1.4-.186-2.268-.241a19.82,19.82,0,0,0-3.825.124,4.014,4.014,0,0,1-3.333-.581,5.461,5.461,0,0,1-2.05-4.332,5.594,5.594,0,0,1,1.185-3.31l1.222.949a4.037,4.037,0,0,0-.86,2.382,3.867,3.867,0,0,0,1.432,3.074c.591.444.979.422,2.23.281a21.414,21.414,0,0,1,4.1-.131c.926.059,1.7.161,2.375.251,1.512.2,2.424.322,3.533-.227.313-.155,1.046-.519,1.2-1.1.136-.526-.244-1.145-.684-1.861a6.837,6.837,0,0,0-1.765-1.912l.925-1.241a8.422,8.422,0,0,1,2.159,2.343,3.959,3.959,0,0,1,.863,3.058,3.519,3.519,0,0,1-2.008,2.1A5.213,5.213,0,0,1,193.044,461.855Z"/><path class="cls-1" d="M190.767,478.109c-.412,0-.83-.021-1.254-.042-2.756-.136-4.667-1.178-7.087-2.5-2.568-1.4-3.313-2.3-3.7-3a5.426,5.426,0,0,1-.656-3.967,3.01,3.01,0,0,1,.784-1.415,6.905,6.905,0,0,0,1.024-1.5,16.5,16.5,0,0,0,1.226-3.13c.153-.515.288-1.039.4-1.559l1.513.325c-.12.559-.264,1.123-.429,1.675a18.082,18.082,0,0,1-1.343,3.417,8.412,8.412,0,0,1-1.225,1.786,1.516,1.516,0,0,0-.449.776,3.991,3.991,0,0,0,.5,2.829c.157.279.574,1.02,3.095,2.394,2.336,1.273,4.022,2.192,6.424,2.311,1.428.07,2.557.126,3.536-.565,1.664-1.173,1.784-3.682,1.829-4.627a8.038,8.038,0,0,0-.388-2.8,17.69,17.69,0,0,1-.647-3.52,21,21,0,0,1,.043-3.916l1.539.161a19.446,19.446,0,0,0-.04,3.627,16.4,16.4,0,0,0,.6,3.245,9.545,9.545,0,0,1,.439,3.28c-.049,1.041-.2,4.209-2.482,5.818A5.319,5.319,0,0,1,190.767,478.109Z"/><path class="cls-1" d="M201.624,485.534c-2.263,0-3.06-.547-3.464-1.027s-.641-1.1-.761-3.105a28.659,28.659,0,0,1,.174-5.552c.384-2.492.762-5.41,1.156-8.921l1.538.173c-.4,3.532-.778,6.471-1.165,8.984a27.7,27.7,0,0,0-.158,5.224c.111,1.857.313,2.1.4,2.2.127.151.992.87,5.552.19a22.973,22.973,0,0,0,3.594-.8,23.727,23.727,0,0,1,4-.861c.279-.038.544-.071.8-.1a19.8,19.8,0,0,0,3.118-.58,11.766,11.766,0,0,0,3.516-1.437,5.328,5.328,0,0,0,1.081-.9c.306-.309.725-.733,1.484-1.393.9-.783,1.66-1.36,2.214-1.781a6.756,6.756,0,0,1-1.626-.248c-1.266-.357-2.212-1.136-3.929-2.55-.6-.5-1.024-.881-1.4-1.22a9.889,9.889,0,0,0-1.823-1.407,11.755,11.755,0,0,0-1.866-.894l.542-1.449a13.282,13.282,0,0,1,2.114,1.013,11.354,11.354,0,0,1,2.074,1.593c.359.327.766.7,1.338,1.169,1.607,1.323,2.413,1.987,3.366,2.256a6.031,6.031,0,0,0,1.988.181c.56-.022,1.327-.052,1.594.668.3.8-.355,1.3-1.434,2.115-.538.409-1.275.969-2.141,1.722-.715.622-1.095,1-1.4,1.313a6.786,6.786,0,0,1-1.34,1.115,13.229,13.229,0,0,1-3.945,1.63,21.282,21.282,0,0,1-3.335.623c-.253.032-.512.065-.785.1a22.163,22.163,0,0,0-3.775.812,24.564,24.564,0,0,1-3.8.845A24.132,24.132,0,0,1,201.624,485.534Z"/><path class="cls-2" d="M524.571,4.028V520.313H4V4.028H524.571m4-4H0V524.313H528.571V.028Z"/><path class="cls-3" d="M525.268,521.4H4V3.809H525.268ZM34,491.4H495.268V33.809H34Z"/></g></svg>