<svg xmlns="http://www.w3.org/2000/svg" viewBox="0 0 528.571 518.197"><defs><style>.cls-1{fill:#616060;}.cls-2{fill:#8d8989;}.cls-3{fill:#ececec;}.cls-4{fill:#050606;}.cls-5{fill:#1f191a;}.cls-6{fill:#e2e5e5;}.cls-7{fill:#181818;}.cls-8{fill:#f0f1f1;}.cls-9{fill:#1d191a;}.cls-10{fill:#e5e6e6;}.cls-11{fill:#231f20;}</style></defs><title>icon</title><g id="Layer_24" data-name="Layer 24"><path class="cls-1" d="M524.571,4V520.285H4V4H524.571m4-4H0V524.285H528.571V0Z"/><path class="cls-2" d="M525.267,521.371H4V3.781H525.267ZM34,491.371H495.267V33.781H34Z"/><path class="cls-3" d="M293.078,228.406,268.688,252.8a.479.479,0,0,0-.119.01l-14.8-14.8c1.209-9.521,2.639-21.321,3.139-26.561.871-9.28.52-41.03,0-47.9s-.7-34.711-.18-37.681a6.1,6.1,0,0,1,.26-.99,6.53,6.53,0,0,1,.68-1.4.01.01,0,0,0,.01-.01c.07-.11.15-.219.22-.32a6.985,6.985,0,0,1,1.79-1.74s16.23-.369,26.66,0h.11a17.23,17.23,0,0,1,2.16,4.82c1.86,6.2,3.46,18.9,1.84,46.6C289.308,192.4,291.069,212.926,293.078,228.406Z"/><path class="cls-4" d="M254.3,104.7c.8,1.36,2.261,1.112,2.435,3.527s1.39,10.21,2.954,13.179l-.349,4.268s5.043,5.2,7.129,7.056a59.963,59.963,0,0,0,6.257,4.456s5.565-4.085,10.083-7.612,3.825-5.2,3.825-6.681a3.381,3.381,0,0,0-.695-2.23c.695-2.226,1.215-7.983,2.261-9.1a38.631,38.631,0,0,0,5.041-6.31,19.073,19.073,0,0,0,1.39-8.911c-.347-1.484-1.564-.744-1.044-1.672a10.391,10.391,0,0,0,.695-5.011c-.171-1.858.176-1.3,1.22-5.2s-.176-4.639-.871-8.539a13.872,13.872,0,0,0-4.691-7.8c-1.22-.928,0-2.415,0-2.415a3.891,3.891,0,0,1-2.786-1.3,2.02,2.02,0,0,1,.178-2.6,7.893,7.893,0,0,1-2.262,1.3c-.87.185-4-2.971-5.04-3.712s-.349.928-1.393.928a29.665,29.665,0,0,0-6.257-.187c-2.784.37-7.129,3.712-8.346,4.455s-1.217-.558-1.737-.558,0,1.3-1.044,1.86-5.389,5.754-6.78,7.609-1.215,11.139-.87,15.224,1.217,3.339.175,4.456S253.738,103.759,254.3,104.7Z"/><path class="cls-5" d="M231.889,200.309a1.688,1.688,0,0,1,.329-.375S232.09,200.066,231.889,200.309Z"/><path class="cls-4" d="M257.618,153.017v-.081c-.12-3.02-.24-5.679-.37-7.859a122.06,122.06,0,0,1-.179-15.881v-.01a45.75,45.75,0,0,1,.829-6.04c.02-.089.03-.17.05-.25,0,0-.1.22-.27.57a.01.01,0,0,1-.01.01c-.16.371-.4.871-.68,1.4-.689,1.34-1.59,2.911-2.169,3.221-1.04.549-23.991,7.049-31.29,10.21,0,0-2.96.179-2.96,1.29a24.176,24.176,0,0,1-1.391,7.059c-.87,1.861-4.859,13.371-4.17,16.151s.87,4.639-.52,8.54c-1.169,3.269-2.7,15.44-3.78,22.009-.09.48-.159.931-.24,1.35l17.2,17.2a22.124,22.124,0,0,1,3.9-11.19c.119-.159.23-.3.319-.409a2.636,2.636,0,0,0-.3.609v.03c-1.141,3.18.889,10.95.889,12.91a22.775,22.775,0,0,1-.26,2.6l22.74,22.74c1.28-9.25,2.78-21.929,3.071-32.02C258.468,192.116,258.178,168.166,257.618,153.017ZM347.3,239.356c-.061-1.6-.131-3.259-.161-4.859v-.011c-.06-2.13-.06-4.17.07-5.87a27.331,27.331,0,0,0-.76-9.74l-21.71,21.71c-1.61,3.15-3.86,6.961-3.86,6.961l-2.96,7.99s-.54-2.411-1.28-6.851l-16.49,16.49-.41.41-9.189,9.2L305.9,290.136c.18.441.371.861.55,1.23,0,0,.2-.05.53-.15l7.091,7.091c-.061-4.611-.111-8.431-.141-11.121,0,0,4.52-7.24,7.3-10.03a3.268,3.268,0,0,0,.611-.869c1.7-3.48-.611-11.421-.611-13.79,0-2.6,4.17,2.409,5.561,5.01a2.031,2.031,0,0,0,.48.579c0,.011.01.011.01.02,1.179,1.01,3.569,1.36,4.74,2.31a1.622,1.622,0,0,1,.27.24l.519.841s8.15-8.911,9.19-11.7c.65-1.74,1.71-4.671,2.8-7.111a.036.036,0,0,1,.009-.02,17.172,17.172,0,0,1,1.88-3.45c.591-.74.74-2.889.72-5.659v-.01C347.4,242.257,347.348,240.827,347.3,239.356Zm-18.341-85.089c-.26-3.341-3.389-5.571-3.13-7.52s-1.3-4.73-1.3-4.73-30.51-9.47-32.6-11.98c-1.51-1.821-2.76-3.2-3.31-3.811-.22-.24-.339-.36-.339-.36s.79,8.911.79,13.641c0,3.75-1.141,54.5,3.02,89.889l22.849-22.849c.49-3.371,1-5.4,1.24-5.22.29.21.57.44.851.659a.076.076,0,0,0,.04.041c.429.359.849.74,1.259,1.129l19.531-19.53C334.878,173.386,329.148,156.757,328.958,154.267Zm-82.55,120.219-38.049-38.05-3.761-3.76c-.529,2.621.66,3.64.5,4.94a44.588,44.588,0,0,0-.819,7.33,7.35,7.35,0,0,0,.3,1.95c.87,2.6-.52,6.871.17,8.73s3.13,7.61,3.83,10.21.87,7.61,2.61,9.471a6.494,6.494,0,0,0,4.41,1.79h.07s.04-7.55,2.81-10.151c1.4-1.3,2.35-2.27,2.96-2.919a.01.01,0,0,1,.01-.01c.321-.351.55-.6.68-.76l.01-.01a1.965,1.965,0,0,1,.161-.181c-.02.04-.061.1-.111.191a.564.564,0,0,0-.09.139l-.02.05a1.606,1.606,0,0,0-.15.28v.01c-1.27,2.291-5.19,9.63-4.31,11.2.94,1.67,4.411,8.02,6.3,10.65l.01.011c.21.289.4.519.56.71,0,0,.21,5.25.21,5.99,0,0,.091,1.829-.02,4.51l21.72-21.721.31-.3Zm-7.69,15.061c-.6,1.03.11.05.11.05Zm31.69,4.559c-.03.3-.06.6-.1.911l-1.68,1.689-44.15,44.141a176.683,176.683,0,0,1,1.48,17.989c0,7.991-.34,23.02,1.39,25.81s-2.61,6.31-2.43,10.951.7,34.16.7,39.349,3.471,20.051,2.78,21.73-1.75,6.861-.869,8.9c0,0-8.351,2.049-8.17,4.649s1.389,10.021,2.25,11.88c0,0-1.56,4.27-3.131,5.2s-3.99.929-3.99,3.71-2.26,2.969-.87,3.149c0,0-2.79,1.49,23.64,1.49,0,0,2.61-1.3,3.65-.74a6.241,6.241,0,0,0,3.83.92h3.65a26,26,0,0,0-.99-7.789c-.02-.061-.039-.131-.059-.191a8.705,8.705,0,0,0,1.46-1.02.259.259,0,0,1,.06-.049c2.119-1.77,5.629-5.931,4.96-13.651-.011-.17-.02-.339-.04-.5-1.311-3.639-3.321-3.16-2.811-6.839a29.673,29.673,0,0,1,1.42-5.231s.08-.98.221-2.759c.23-2.73.6-7.331,1.059-13.1,1.9-23.57,5.28-66.58,5.921-80.709v-.041c.059-1.5.1-2.669.1-3.449a27.815,27.815,0,0,1,1.591-5.541,26.835,26.835,0,0,0,1.439-5.54c0-.02.01-.03.01-.05.111-.74.19-1.54.26-2.42,0,0,.76-8.24,1.7-17.12.16-1.45.31-2.91.47-4.36.35-3.12.71-6.16,1.05-8.8.561-4.32,1.091-7.57,1.47-8.329,0,0,.44-3.881,3.431,8.349.019.071.039.151.059.22.26,1.1.55,2.32.861,3.681.919,4.069,1.77,7.239,2.529,10,1.75,6.319,3.06,10.489,3.75,18.279a.156.156,0,0,1,.011.07c.009.19.029.381.049.571.19,2.4.33,5.149.4,8.389a.076.076,0,0,0,.01.04c.01.53.02,1.081.029,1.64a57.363,57.363,0,0,0,2.261,8.35,7.2,7.2,0,0,1,.369,1.43c.01.03.01.06.02.09.651,4.03.21,12.341,1.87,17.97.09.29.17.581.241.851.909,3.05,1.529,5.01,2,6.639.429,1.47.739,2.69,1.059,4.21.53,2.53-.24,3.681-.8,5.05a6.585,6.585,0,0,0-.42,1.44c-.339,2.231.7,3.72.7,7.8s-.351,7.431.349,9.1-.169,3.339-.349,5.939-3.3,25.8-2.431,28.96,1.73,4.641,7.82,10.581c0,0-.87,2.409-1.74,4.639a28.468,28.468,0,0,0-1.56,7.24c-.179,2.04-1.39,4.641.69,6.871s1.221,3.53,1.221,4.08-2.961,3.159-1.56,4.089,25.549,0,25.549,0a34.223,34.223,0,0,0,0-4.27c-.17-1.119-2.44-8.17-2.779-10.4a6.513,6.513,0,0,0,2.079-4.271c0-2.41-1.559-2.78-1.039-4.27s3.819-.56,7.48-24.129-2.441-48.82-3.661-66.461c-.5-7.4-.95-22.23-1.31-38.17l-44.279-44.28"/><path class="cls-4" d="M217.562,267.592c-.688.968-3.248,4.04-2.815,8.221,0,0,3.614,5.4,3.794,5.557s5.437,4.413,5.437,4.413-5.22-17.563-1.67-22.733A63.015,63.015,0,0,0,217.562,267.592Z"/><path class="cls-4" d="M321.625,276.4a73.971,73.971,0,0,0,6.806-4.3c.291-.442-3.021-11.379-7.47-10.98a14.021,14.021,0,0,0,.082,4c.375,1.821,1.371,7.236,1,9.144S321.5,276.4,321.625,276.4Z"/><path class="cls-6" d="M265.247,147.768c.347.559,1.566,2.228,1.566,2.228l.347-2.783c.173-5.943,1.566-8.353,1.566-8.353a7.76,7.76,0,0,0-2.088,3.154c-1.042,2.413-5.04,6.5-5.04,6.5s-2.086-7.982-2.781-9.467-1.042-13.181-1.042-13.181c-1.566,2.969-.7,17.079-.525,22.278s3.479,34.528,3.823,30.257.525-15.965-.344-19.306-2.435-10.023-1.044-9.652,6.606,2.783,5.562,1.669S264.9,147.213,265.247,147.768Z"/><path class="cls-6" d="M274.25,138.311c-.181-.118-.31-.194-.31-.194C274.058,138.174,274.139,138.249,274.25,138.311Z"/><path class="cls-6" d="M274.332,149.393s1.823-1.67,2.608-2.365,2.475,1.39,3,1.39,4.3-.276,4.694-.974,1.042-.835,2.348-.695,1.3,11.555,1.3,11.555.26-13.088.392-17.962a58.043,58.043,0,0,0-.392-8.632c0,5.432-1.434,7.8-2.479,9.469s-2.475,6.823-3.127,6.683-3.127-3.2-3.127-3.2a18.511,18.511,0,0,0-3.414-4.773,6.092,6.092,0,0,1,1.065,4.773C276.94,145.911,274.332,149.393,274.332,149.393Z"/><path class="cls-6" d="M274.25,138.311a12.112,12.112,0,0,1,1.884,1.576A6.039,6.039,0,0,0,274.25,138.311Z"/><path class="cls-4" d="M262.726,176.126c-1.044,9.467-1.431,23.389-2.738,41.767s-1.563,23.392-1.563,23.392,7.039,9.327,9.909,9.188,9.125-6.405,9.91-7.518,1.171-59.171.651-67.387-4.826-20.883-4.693-24.087.13-1.53.13-1.53,3.259-4.735,3.259-5.988-.651-6.125-5.607-5.846a4,4,0,0,0-3.258.743c-1.049.746-1.174,7.609-1.566,10.393s.262,1.949.262,2.367.39,4.037-.654,5.709S263.77,166.657,262.726,176.126Z"/><path class="cls-3" d="M222.015,263.673l1.744-6.435S204.164,272,214.533,276.972A14.735,14.735,0,0,1,222.015,263.673Z"/><path class="cls-7" d="M234.131,203.461c0-5.385,8.519-14.851,8.519-14.851s.519-14.666-.176-15.965-2.606,10.58-4.172,13.737-5.04,12.25-5.04,12.25-1.566-8.168-2.781-17.261-5.738-33.417-5.738-33.417c.522,7.427,6.78,51.607,6.78,51.607a42.564,42.564,0,0,0,2.608,13Z"/><path class="cls-7" d="M318.918,202.566l-.82.82c-.38-.51-.73-.99-1.029-1.359a.076.076,0,0,1-.04-.041c-.381-.449-.681-.729-.851-.659-.23.089-.58,2.19-.95,4.93l-.83.829a47.136,47.136,0,0,0-.129-8.079c-.691-2.6-5.211-13.551-4.341-14.111s4.341,10.391,6.431.931c2.029-9.221,6.41-37.941,6.609-38.611-.179,3.341-5.39,43.25-6.26,48.071C316.289,197.6,317.589,200.336,318.918,202.566Z"/><path class="cls-3" d="M328.438,272.262l3.587-1.809c-2.2-13.824-11.8-16.22-13.171-13.809l2.107,4.474C326.586,261.744,328.438,272.262,328.438,272.262Z"/><path class="cls-7" d="M238.828,289.6s-.71.98-.11-.05Z"/><path class="cls-7" d="M234.529,286.956l-.46.46a60.845,60.845,0,0,1-6.891-6.819,22.2,22.2,0,0,1-5.159-16.921C221.638,275.646,229.438,283.267,234.529,286.956Z"/><path class="cls-7" d="M246.578,274.656c-.07.151-.12.29-.18.43l-.379.38c.139-.33.27-.65.389-.98Z"/><path class="cls-7" d="M313.928,287.186a16.113,16.113,0,0,1-6.95,4.03c-.33.1-.53.15-.53.15-.179-.369-.37-.789-.55-1.23-2.41-5.839-4.82-17.4-6.16-24.55l.41-.41c2.54,9.48,6.82,25.071,6.82,25.071A64.247,64.247,0,0,0,313.928,287.186Z"/><path class="cls-7" d="M252.116,380.293a3.661,3.661,0,0,0-1.385-1.035C248.44,378.342,250.083,379.439,252.116,380.293Z"/><path class="cls-3" d="M143.508,251.736a7.24,7.24,0,0,1-2.14.98,14.788,14.788,0,0,1-2.009.48c-2.281.381-8.391,1.351-13.4,1.76-1.429.121-2.77.19-3.909.19-2.331,0-6.02-.3-9.351-.629-3.359-.331-6.359-.69-7.22-.8l-.25-.03s-1.709.24-.25-1.46.49-8.29,2.69-15.12,9.26-51.94,11.45-61.93c1.08-4.9,3.79-13.77,6.241-21.74l.279.28.33.331,2.95,2.95.921.919L138,166.077l6.291,6.289,1.219,1.22c-3.16,13.13-5.979,27.15-6.79,34.14-.03.3-.06.581-.09.851-.039.42-.07.859-.1,1.319C137.819,222.847,143.508,251.736,143.508,251.736Z"/><path class="cls-3" d="M147.158,161.486c.04-.139.08-.27.131-.409-.061.23-.131.47-.2.7C147.109,161.676,147.138,161.586,147.158,161.486Z"/><path class="cls-3" d="M161.3,127.146c-.19.77-1.921,5.861-5.081,13.31l-10.629-10.629c5.2-3.441,9.869-7.921,10.839-7.8a2.818,2.818,0,0,1,.73.22,10.27,10.27,0,0,1,3.53,3.359A2.546,2.546,0,0,1,161.3,127.146Z"/><path class="cls-5" d="M121.14,71.636c.092.305.228.129,0,0Z"/><path class="cls-4" d="M161.549,105.807a20.147,20.147,0,0,1-2.321,6.95,38.3,38.3,0,0,0-2.189,4.879c-.371.73-.25,2.56-.611,3.29-.19.371.28.831.73,1.321.431.479.85,1,.611,1.479a7.125,7.125,0,0,1-1.461,1.831,62.655,62.655,0,0,0-8.789,6.2l-34.5-34.5c.119-2.821,2.2-8.771,2.2-10.341,0-1.71,1.71-2.69.25-2.44s-2.32,1.21-2.32-.49,1.34-3.659.85-5.12c0,0-1.7-4.88-.969-4.15s2.069.611,2.8-1.459,1.34-.611,3.781-1.46c.91-.321,1.339-.27,1.529-.161.09.3.23.131,0,0a2.132,2.132,0,0,1-.069-.57c0-1.71,1.22-2.069,3.049-2.44s1.59.971,2.44,1.221.491-.85,1.83-2.681,1.58-.49,3.411-1.1.98-.12,2.56.491,1.339-.611,1.71-1.831.609-.85,1.46-.61,1.1.36.979,1.83,2.311-1.59,9.261,2.311,9.51,6.219,12.559,12.679S161.668,104.226,161.549,105.807Z"/><path class="cls-4" d="M147.289,161.077c-.061.23-.131.47-.2.7.02-.1.049-.191.069-.291C147.2,161.347,147.238,161.216,147.289,161.077Z"/><path class="cls-4" d="M133.319,467.156c-.7,1.74.109,1.31.339,3.671.01.109.02.22.03.349v.06c.12,1.91-.78,2.19-1.159,2.99a1.492,1.492,0,0,0-.161.64,2.043,2.043,0,0,0,0,.421c.01.079.03.179.04.279.29,1.741,1.27,2.33,1.661,3.6,0,.02.009.05.009.07a3.2,3.2,0,0,1,.16,1.08c0,.461-.02,1.14-.06,1.92a.334.334,0,0,1-.01.1c-.03.691-.079,1.451-.129,2.211v.03c-.151,2.52-.351,5.069-.351,5.069H75.678l7.23-7.23c2.21-.129,4.53-.169,5.8-.27,2.37-.18,4.571-2.01,6.21-4.2s2.75-2.57,3.84-5.49c1.081-2.89,1.63-4.35,1.12-7.01l35.2-35.2.16-.161c-.11,1.38-.2,2.55-.27,3.421-.55,6.4-.55,17.369-.91,19.02s-2.38,2.559-1.469,4.929c.1.26.21.5.319.73.94,1.9,2.28,2.99,2.611,4.94C135.888,465.327,134.058,465.327,133.319,467.156Z"/><path class="cls-4" d="M189.279,429.666c.179,9.69-2.371,24.871-4.391,31.45s-5.3,3.11-4.2,6.22,1.64,4.211,2.01,6.951-.179,5.48,0,6.949,1.65,3.111,1.831,4.75.729,3.66-.73,3.66H160.208l.04-.28c.14-.819.51-3.14.51-3.74,0-.74-1.649-1.279-2.38-4.21-.43-1.72.411-6.74.9-10.95v-.07c.349-2.9.54-5.4.01-6.16v-.01a8.674,8.674,0,0,0-2.151-1.81h-.01a20.483,20.483,0,0,1-4.24-3.4c-.13-.181-.25-.341-.369-.48a5.367,5.367,0,0,1-.72-1.44c-1.1-3.481,4.379-26.881,4.569-32,.1-2.871-1.12-7.921-2.3-13.84l.839-.841.9-.9,3.36-3.361,23.621-23.619a92.047,92.047,0,0,0,1.74,14.029C186.539,405.166,189.1,419.976,189.279,429.666Z"/><path class="cls-4" d="M208.359,236.436c-.09.911-.151,1.65-.241,2.13-.31,1.681-1.77,2.6-3.839,6.38-.4.74-.831,1.591-1.281,2.581-2.74,6.039-3.84,13.72-5.86,17.369s-3.89,10.851-4.93,11.161a.785.785,0,0,1-.47-.03,8.847,8.847,0,0,1-2.78-1.95c-.25-.241-.409-.4-.409-.4s-.141.27-.371.73c-1.069,2.07-4.129,7.93-5.48,9.881-.859,1.24-1.76,1.98-2.359,3.04a6.989,6.989,0,0,0-.57,4.46c.55,4.569.369,5.3.369,13.159,0,5.381.94,20.95,1.53,34.87l-32.53,32.531c-1.49-10.181-3.3-20.881-4.7-27.82v-.01c-.31-1.581-.61-2.951-.869-4.091-1.591-6.8-2.121-9.25-2.391-10a.031.031,0,0,1-.01-.02c-.149-.42-.21-.25-.349-.04-.2.3-.4,5.29-.571,11.131v.06c-.139,4.73-.26,10.029-.34,13.859-.19,8.6-2.2,17.01-2.379,19.57-.081,1.111-.121,4.841-.161,9.13l-31.509,31.51a148.636,148.636,0,0,0,.029-15.589c-.54-6.21-8.22-46.631-9.5-58.881s-2.01-36.389-2.2-45.72-1.1-9.5-1.1-9.5-1.281,4.02-3.831,2.01c-2.57-2.01-2.38-6.77-2.38-8.05s1.641-2.379,1.461-3.839a30.976,30.976,0,0,1-.371-6.221c.19-2.37.74-1.279,1.47-6.029s0-17.01.18-21.03,2.741-4.941,1.83-8.78,1.641-4.94,2.01-9.141-.73-10.059.73-12.44,2.56-1.1,2.381-5.48-.911-9.33.369-15.909,1.82-7.68,2.74-12.8,2.38-20.479,2.38-24.32-.55-4.579,1.64-5.859c1.36-.79,6.571-3.131,11.13-5.141l2.991,2.99.529.53,7.011,7.01.279.28c-.47,1.561-.95,3.27-1.4,5.12-1.939,8.05-8.04,37.06-9.75,47.181s-7.07,42.06-8.78,46.569c.01,0,.03.011.04.011a32.8,32.8,0,0,0,6.98,1.609c.43.051.85.081,1.27.091,2.521.079,7.051-.05,11.01-.351h.061a53.113,53.113,0,0,0,5.509-.63c3.87-.719,9.64-.85,10.58-1.33a.077.077,0,0,1,.03-.01c.851-.49-6.7-25.959-3.29-45.35,2.35-13.369,4.07-24.19,6.391-34.26l1.219,1.22,5.351,5.35,1.389,1.391,30.18,30.18,2.83,2.829,19.34,19.34Z"/><path class="cls-4" d="M210.948,195.186l-46.26-46.26-1.4-1.389v-.01l-7.941-7.941c2.83-6.759,5.181-12.2,5.34-13.98a.968.968,0,0,0,.01-.29l-.49-.7c.74.981,4.821,6.26,7.8,7.04l.12.97a17.746,17.746,0,0,1,3.171-.24c.849.121,21.089,7.68,25.97,8.171,0,0,.789-.191,1.889,1.089s7.31,18.84,8.59,29.26c.71,5.83,1.94,14.9,2.96,22.45Q210.83,194.286,210.948,195.186Z"/><path class="cls-4" d="M176.114,289.5s3.109-1.827,3.75-2.1,2.835.456,3.841-.641,1.1-2.285,1.918-3.932,3.293-8.592,3.383-8.867-10.056-7.864-11.247-8.96c0,0-2.468,4.753-2.834,7.133s-1.006,3.654-.64,5.666.275,2.471.731,5.762S176.114,289.5,176.114,289.5Z"/><path class="cls-6" d="M126.193,156.278a4.173,4.173,0,0,0,.075,1.284C126.268,156.5,126.248,155.9,126.193,156.278Z"/><path class="cls-6" d="M125.968,154.047l2.95,2.95c-.32,1.9-.629,3.58-1.079,3.489-.671-.139-1.331-1.63-1.57-2.92,0-1.069-.021-1.67-.081-1.289a4.194,4.194,0,0,0,.081,1.289c0,2.5-.131,7.61-.261,8.77-.18,1.65-2.56,11.7-2.56,11.7a18.51,18.51,0,0,1-.73-10.79C123.8,163.077,125.168,157.216,125.968,154.047Z"/><path class="cls-6" d="M147.158,161.486c.04-.139.08-.27.131-.409-.061.23-.131.47-.2.7C147.109,161.676,147.138,161.586,147.158,161.486Z"/><path class="cls-6" d="M157.269,134.716c-.071.16-.941,2.111-2.081,4.71l-1.419-1.419A37.272,37.272,0,0,0,157.269,134.716Z"/><path class="cls-4" d="M129.839,157.916,138,166.077c-.07,1.239-.19,2.559-.35,3.98-1.22,10.48-9.02,67.54-9.75,69.97s-8.78,9.76-10.48,9.76-4.149-6.581-5.119-8.53,11.209-60.23,11.939-64.131C124.958,173.356,129.529,161.156,129.839,157.916Z"/><path class="cls-7" d="M141.19,251.979s-23.287,3.414-35.478.611l-.976,4.752s29.992,1.71,37.553-.973Z"/><path class="cls-3" d="M125.92,256.216a15.976,15.976,0,0,0,0-2.1c-.092-.456-12.529-.183-13.17-.091,0,0-.273,2.013.276,2.1S124.456,256.579,125.92,256.216Z"/><path class="cls-7" d="M135.519,463.126c-.3,2.2-2.131,2.681-2.2,4.03a25.222,25.222,0,0,0,.316,3.461c.021.171.04.354.053.559v.06c0,.861-.8,1.93-1.159,2.99a3.658,3.658,0,0,0-.161.64,2.043,2.043,0,0,0,0,.421.861.861,0,0,0,.04.279c.371,1.461,1.34,1.09,1.59,2.92.031.21.051.44.071.68,0,.02.009.05.009.07.08.9.11,2,.1,3a.334.334,0,0,1-.01.1,16.6,16.6,0,0,1-.129,2.211v.03a1.739,1.739,0,0,1-.041.25c-.25,1.22-2.679,2.2-5.85-.241s-5.849-2.93-2.69-4.63,3.42-6.59.73-8.54-12.19-4.389-9.99-5.609,5.61,0,8.29,1.71,5.121,2.929,5.36.98-6.829-2.2-7.069-6.831-1.46-2.44,2.679-8.54,3.42-5.849,4.881-11.21a71.258,71.258,0,0,0,1.43-8.359l3.309-3.31c-.33,5.719-.71,11.01-.84,13.379-.24,4.631-.24,7.8-1.709,10.721-1.25,2.5-.361,3.219.379,3.839a3.672,3.672,0,0,1,.361.311C134,459.226,135.828,460.936,135.519,463.126Z"/><path class="cls-7" d="M140.819,330.366s-.23,4.881-.571,11.131v.06c-.52,9.45-1.28,21.99-1.86,25.509-.98,5.85-1.47,9.261-1.22,12.681.05.739.01,2.409-.09,4.659l-2.549,2.55a19.635,19.635,0,0,1-2.49-4.29c-1.211-3.169-4.631-6.089-2.921-8.78s.25-4.879,2.681-3.17,2.439.25,3.169-1.7-.97-9.031,0-10.98,1.22-12.671,1.71-16.091,2.44-5.6.49-9.75-5.369-5.119-4.879-7.8,2.2-.98,3.409-1.71.25-.24-1.21-3.169c-1.469-2.911-8.26-19.42-10.709-24.581.449.861,7.649,14.74,10.949,19.46,3.41,4.881,4.39,4.881,5.361,9.27A22.986,22.986,0,0,1,140.819,330.366Z"/><path class="cls-7" d="M153.618,367.866l-3.509,3.51c-.531-5.7-1.971-12.65-2.941-17.72-.43-2.2-1.559-5.46-2.73-9.129v-.01c-1.43-4.47-2.919-9.561-3.26-14.091a.031.031,0,0,1-.01-.02,17.015,17.015,0,0,1,.631-6.74c.25-.73.98,12.19,4.389,18.04s4.631,10.97,5.611,13.9A66.262,66.262,0,0,1,153.618,367.866Z"/><path class="cls-7" d="M155.808,409.517l3.36-3.361c1,3.99,2.421,10,.43,8.21A26.982,26.982,0,0,1,155.808,409.517Z"/><path class="cls-7" d="M167.158,465.327c-3.9.239-6.339,1.22-4.879,3.649s.25,5.371,1.709,6.34,3.41,3.42,1.71,3.42-3.909-1.219-2.929,1.46,1.459,2.93,1.709,5.361a4.64,4.64,0,0,1-.98,3.659l-3.29.43.04-.28.51-3.74s-2.14-2.02-2.38-4.21.49-6.58.731-8.29a24.1,24.1,0,0,0,.17-2.66v-.07a25.156,25.156,0,0,0-.17-3.849,9.9,9.9,0,0,1,.18-2.311v-.01c.07-.729-.051-1.34-.911-1.58a10.06,10.06,0,0,0-1.24-.23h-.01c-1.21-.149-2.349-.31-3.63-2.46-.219-.37-.429-.679-.61-.939-.13-.181-.25-.341-.369-.48-.99-1.24-1.4-1.221-1.211-3.7.241-3.17,2.68-20.23,3.41-25.11.665-4.438-1.258-7.952-1.22-16.83,0-.458.007-.834.01-1.08l.561-.559.839-.841a81.1,81.1,0,0,0,2.74,9.56c1.22,2.68.73,6.09,2.191,8.771s2.93,17.8,1.71,15.85-2.931-9.261-3.171-11.221c-.24-1.94-1.71-2.92-2.19,0s-1.71,8.3-1.71,10.73-1.47,5.37-.49,7.56,4.15,6.591,5.61,7.56,5.12.73,6.58,1.71S171.058,465.077,167.158,465.327Z"/><path class="cls-7" d="M150.859,178.936l1.389,1.391c-.949,2.149-1.78,3.92-2.4,5.089-3.04,5.681-8.87,18.891-11.319,24.48-.6,1.381-1,2.29-1.1,2.52.08-.339.57-2.25,1.29-4.69a79.533,79.533,0,0,1,2.831-8.169C142.779,196.7,147.039,187.307,150.859,178.936Z"/><path class="cls-7" d="M166.178,144.456c-.139.61-.68,2.22-1.49,4.47l-1.4-1.389v-.01c.98-3.061,1.669-5.27,1.669-5.27l-3.409-1.22s5.609-1.94,6.089-2.681.49-5.73.49-5.73c.25,3.29.731,6.471.731,6.471l-4.381,2.19S166.908,141.287,166.178,144.456Z"/><path class="cls-7" d="M116.928,147.136s-5.359,17.31-5.12,48.28c0,0,0,17.79-.73,23.4,0,0-1.219-22.67-.489-27.789s1.71-34.381,2.93-37.061a46.12,46.12,0,0,0,2.189-7.32l2.111-.75.529.53Z"/><path class="cls-7" d="M100.591,244.666c1.707-4.39,2.2-4.147,3.657-9.023s1.464-6.825,1.95-11.215,1.464-4.878,2.2-10.484.49-2.195-.243-8.047a44.977,44.977,0,0,0-1.707-9.266c-1.219-4.875.486-5.12,0-9.75s-.976-9.266-2.438-17.558a60.886,60.886,0,0,1-.242-16.824c-4.148,5.609-.488,30.234-1.707,32.672A40.147,40.147,0,0,0,100.1,189.8a2.957,2.957,0,0,1,3.66,2.195,28.5,28.5,0,0,1,1.219,9.263c-.246,3.413-1.219,4.147-4.391,7.561s-.488,4.145.731,8.532,1.707,1.464,2.441,5.121-4.145,7.558-5.609,20.968-2.193,2.438-6.828,7.071,2.2,2.926,4.39,5.609a4.374,4.374,0,0,1,.538.836c.328-1.1.661-2.09.924-3.274C97.666,251.491,98.887,249.053,100.591,244.666Z"/><path class="cls-7" d="M95.431,260.484c1-1.207,1.466-2.245.823-3.524a26.081,26.081,0,0,0-.783,3.308C95.456,260.353,95.446,260.4,95.431,260.484Z"/><path class="cls-7" d="M89.376,275.386s3.66-6.34,4.633-10c.946-3.549.979-2.31,1.422-4.905-.7.851-1.652,1.787-2.641,2.956C90.105,266.608,89.376,275.386,89.376,275.386Z"/><path class="cls-7" d="M185.688,221.257c.48,2.679-.25,3.9-.98,5.849s-2.189,1.951-1.7,5.85a33.82,33.82,0,0,1-.489,10c-.49,3.42-3.41,9.02-3.41,9.02a10.5,10.5,0,0,1,.48-5.12c.98-2.68,2.69-6.829,1.95-10.97s-2.68-5.609-.97-7.559,3.409-3.411,3.659-5.611a36.52,36.52,0,0,0-1.22-10.48,12.5,12.5,0,0,0-.58-1.729l2.83,2.829a7.286,7.286,0,0,0,.18,1.83C186.168,218.086,185.2,218.577,185.688,221.257Z"/><path class="cls-7" d="M180.359,164.6c-.57-2.161-.9-4.131-.52-5.27,1.21-3.661,4.139-11.211,4.139-11.211l2.44-.74s-4.18,10.03-2.869,20.411Z"/><path class="cls-3" d="M193,273.191s-10.67-11.579-14.692-12.312l-.55,3.474s11.463,10.667,13.292,13.227Z"/><path class="cls-7" d="M94.768,284.431c2.793-2.889,8.226-10.317,9.483-25.382C104.251,259.049,99.187,278.622,94.768,284.431Z"/><path class="cls-7" d="M93.093,285.932a4.52,4.52,0,0,0,1.675-1.5A12.817,12.817,0,0,1,93.093,285.932Z"/><path class="cls-7" d="M175.934,268.315c-.488,2.926-3.659,12.191-3.659,12.191-5.118,7.313-13.408,2.926-13.408,2.926-9.51-1.219-16.578-27.063-16.578-27.063.971,14.872,10.481,30.234,22.43,29.744S175.934,268.315,175.934,268.315Z"/><path class="cls-8" d="M386.138,135.347l-6.65,6.65c-3.3-4.071-5.7-6.821-5.629-7.081.029-.139.18-.25.379-.339a7.661,7.661,0,0,1,2.3-.33C378.529,133.876,382.118,134.416,386.138,135.347Z"/><path class="cls-8" d="M431.658,254.537c-.16,3.52-.67,10.73-.67,10.73-.09.03-.189.049-.3.08-.169.029-.349.069-.55.1-7.25,1.1-33.849-3.2-34.33-3.2-.5,0-.33-.841-.33-3.851s1-18.27,1-22.79c0-1.6.27-5.87.68-10.96v-.119c.73-9.23,1.861-21.121,2.5-24.77.01-.071.03-.151.04-.23a51.615,51.615,0,0,0,.661-7,66.264,66.264,0,0,0-.29-8.311c-.02-.23-.05-.459-.071-.689a61.822,61.822,0,0,0-3.459-14.74l.51-.51,2.02-2.02,6.849-6.851,2.26-2.26c-.33-1.5-.639-2.819-.92-3.91,0,0,1.021-1.08,3.17,1.66l.911-.91c-.281-.889-.54-1.689-.73-2.2,0,0,.219.079.609.23a12.5,12.5,0,0,1,.5,1.589c0,.03.01.05.01.08.14.821.361,2.121.571,3.371,0,.009.009.02.009.029.06.4.13.8.2,1.171.22,1.28.39,2.29.39,2.29s-3.349-5.191-3.18-3.351,1.17,4.361,1.67,7.71,4.19,22.621,4.19,29.151a13.067,13.067,0,0,0,.15,1.849c.091.68.23,1.43.4,2.23.81,3.78,2.37,8.76,3.84,13.56a2.346,2.346,0,0,0,.081.25c1.529,5.071,2.949,9.93,3.2,12.91a8.689,8.689,0,0,1,.041.87c0,2.1.349,3.281.929,4.061,1.19,1.6,3.36,1.629,5.6,4.649C433.168,238.956,431.828,251.027,431.658,254.537Z"/><path class="cls-4" d="M427.808,246.386s-3.8,6.81-4.91,6.81-13.289-9.82-13.849-10.61c-.171-.239-.661-5.13-1.241-11.75-.71-7.93-1.55-18.35-2.18-26.3a1.971,1.971,0,0,1-.019-.24c-.54-6.731-.921-11.631-.921-11.631v-.05a78.763,78.763,0,0,0-1.23-9c-.78-3.819-3.619-13.65-4.389-17.359l6.849-6.851v.08a30.849,30.849,0,0,0,1.111,8.38c.429,1.411,3.58,13.3,7.31,27.411.3,1.119.6,2.26.9,3.4a.142.142,0,0,1,.02.06c0,.021.011.041.011.061,1.1,4.129,2.219,8.389,3.329,12.569,1.35,5.131,2.671,10.161,3.87,14.731.42,1.579.821,3.1,1.2,4.549.78,2.951,1.48,5.621,2.08,7.891v.01c.01.019.01.039.021.059C427.029,243.406,427.808,246.386,427.808,246.386Z"/><path class="cls-4" d="M417.928,98.226c-.339,1.34-.17,2.68-.839,3.18-.52.4-.441,1.921-.54,3.53L383.188,138.3c-2.57-1.631-4.98-3.121-6.649-4.05-.651-.361,1.349-5.19-.161-7.041s-2.349-1.5-2.519-3.51a9.937,9.937,0,0,0-1.671-5.53c-1.51-2.52-1.84-1.68-2.51-4.69s-.68-4.7-.17-6.54.84-2.339.67-3.85-1.339-3.52-.67-5.029a16.973,16.973,0,0,0,1.67-5.191c.17-1.839-.83-4.19.5-5.53s3.52-4.02,5.7-4.19,4.52-1.839,6.03-2.68,3.181-1.84,4.861-1.679,1.01-.661,3.189-.831,3.85-1.85,5.361.17c1.5,2,1.839,1.671,4.179,2.171s2.01-.841,3.361,1.01.67,1.509,2.339,2.179,1.68-.17,2.851,1.5.839,1.511,2.349,2.35-.17-1.509,1.5.84.84,1.841,2.01,3.18a9.218,9.218,0,0,1,1.681,2.85S418.258,96.886,417.928,98.226Z"/><path class="cls-4" d="M466.008,207.077c.22-1.681-.11-3.911-3.8-6.82-2.84-2.441-10.159-12.95-11.05-14.18s-.79-2.02-1.35-3.691-4.91-7.82-5.469-11.17a16.821,16.821,0,0,0-3.011-6.48c-3.6-2.489-22.23-9.709-28.59-12.15-.64-.239-1.16-.43-1.52-.569-.39-.151-.609-.23-.609-.23.19.51.449,1.31.73,2.2.329,1.011.669,2.15.96,3.071,0,.009.009.02.009.029.29.971.5,1.711.531,1.82-.111-.23-.23-.44-.331-.649a22.914,22.914,0,0,0-2.08-3.361c-2.149-2.74-3.17-1.66-3.17-1.66.281,1.091.59,2.41.92,3.91,2.04,9.25,4.81,25.131,5.67,33.391.13,1.27.4,2.919.75,4.849v.01c.191,1.02.41,2.121.64,3.28a.142.142,0,0,1,.02.06c0,.021.011.041.011.061.77,3.75,1.76,8.059,2.77,12.339a.392.392,0,0,0,.019.1,3.212,3.212,0,0,1-.36-.239c0-.011,0-.011-.01-.011-.52-.409-.81-.88-1.02-.929a29.625,29.625,0,0,1-4.61-2.131c-.539-.369-4.33-2.4-6.449-3.629-.491-.29-.891-.53-1.141-.691a32.231,32.231,0,0,1-3.49-3.21,73.128,73.128,0,0,0,.46-7.859,68.74,68.74,0,0,0-.44-8.03,66.016,66.016,0,0,0-3.949-16.23l-.51.51-2.341,2.339-.26.26-11.389,11.391-.351.349-29.8,29.8c.31,2.171-.57,4.04-.65,6.091-.11,2.689-2.459,10.28-3.02,11.959a28.781,28.781,0,0,1-1.59,3.51v.011c-.23.449-.42.819-.529,1.06-.211.47.289,2.159.69,3.8a11.593,11.593,0,0,1,.429,2.79,12.25,12.25,0,0,1-.32,1.4v.01c-.49,1.829-1.47,5.21-2.6,9.109a.036.036,0,0,0-.009.02c-2.721,9.4-6.28,21.841-5.791,23.19.49,1.33,3.38,3,5.64,4.8.03.02.06.05.09.071a12.779,12.779,0,0,1,1.75,1.659c.061.08.13.141.18.21a3.617,3.617,0,0,1,.72,1.411,17.391,17.391,0,0,0,.78,2.609.142.142,0,0,0,.02.06,29.892,29.892,0,0,1,1.55,4.93c.89,4.02,1,20.1,1.34,25.131.221,3.369.7,12.129,1.461,20.02l73.379,73.379c1.48-6.409,2.941-12.79,3.23-13.879.56-2.121.11-4.461.22-7.591a58.537,58.537,0,0,0-.22-9.609c-.45-5.141.78-8.371,1.23-10.83s1.56-8.6,2.12-13.4,1.12-11.4,1.791-17.991-.22-13.74-.561-18.089a28.964,28.964,0,0,1,.89-10.611c.89-3.24-.22-9.5-.22-10.389a1.655,1.655,0,0,1,2.121-1.681,29.252,29.252,0,0,0,8.27-.11c2.679-.449,1.339-4.02,1.339-4.02,0-8.379-1.23-12.39-1.68-15.409s-2.46-13.961-2.57-15.311-.44-4.459-.44-4.459.111-.45.89-.45.56-.451.33-1.23-1.889-6.921-2.79-9.491-1.45-15.3-1.67-17.309c-.03-.24-.05-.51-.08-.8-.15-2.141-.15-5.351-.15-5.351s5.48,1.46,6.821,1.681c.129.02.26.049.389.079a45.866,45.866,0,0,0,6.091,1.591c4.239.79,4.349,1.01,7.369,0s4.58-1,7.48-5.021S465.789,208.747,466.008,207.077Zm-58.2,23.759c4,2.441,7.38,4.491,7.38,4.491a7.834,7.834,0,0,0,2.23-1.671,43.677,43.677,0,0,0,4.55-6.629c.51,1.98.91,3.52,1.141,4.419.149.571.23.87.23.87.919,2.08,1.719,4.17,2.409,6.221v.01c.01.019.01.039.021.059a97.528,97.528,0,0,1,4.78,24.8v.01c.04.9.049,1.4.049,1.4-2.69.57-6.88.491-11.42.09h-.01c-6.76-.59-14.309-1.879-18.879-2.73a.508.508,0,0,0-.161-.03q-.42-.074-.809-.149c-.391-.071-.761-.141-1.1-.21-.23-.04-.449-.091-.649-.131-.161-.03-.321-.059-.46-.09-.371-.08-.661-.13-.84-.17-.121-.03-.18-.04-.18-.04l.009-.109c.05-.511.15-2.521.27-5.19l.151-3c.289-6.48.659-14.661.8-16.391.04-.48.079-1.149.139-1.96,0-.06.01-.109.01-.169.01-.181.02-.371.03-.551,0-.12.01-.239.021-.36.01-.069.01-.15.02-.23l.039-.72c.14-2.24.29-5.01.43-7.81C400.6,226.466,404.428,228.787,407.808,230.836Zm-30.82-93.13a14.131,14.131,0,0,1-2.68-3.129h-.07c-1.82.02-6.08,5.039-6.969,6.039s-4.021.33-5.921,0-9.94-.109-15.41.441-4.909.45-8.27,4.02-1.45,20.22-1.22,26.7c.2,5.919,2.371,4.559,4.19,9.07l23.32-23.32,2.85-2.851,7.31-7.31.94-.94,4.43-4.429.621-.621A36.547,36.547,0,0,0,376.988,137.706Zm60.43,353.73c-.45.121-1.46-1.45-1.46-1.45-.78-4.02-9.38-2.12-14.07-2.01s-6.029-1.229-6.48-1.78-4.8-8.05-5.69-10.06,4.91-6.03,6.141-9.49-1.34-10.95-1.451-17.98a20.306,20.306,0,0,1,.84-5.339l-15.08-15.08-6.22-6.22-40.109-40.111a5.066,5.066,0,0,0-.641,1.52c-.669,2.79-.669,4.911-1.12,9.38s-.44,22.34.34,32.5,2.9,16.87,3.01,19.211a66.26,66.26,0,0,1-.67,8.72c-.33,3.35,3.13,12.06.9,14.29s-4.25,8.379-1.9,11.839a18.265,18.265,0,0,1,3.021,8.27c-.121.56-.681,1.34-.9,2.34s1.01,2.46,1.12,3.021,0,3.8,0,3.8h42.66l1.121-1.341s1.56.561,3.349,1.341,16.641.669,22.57-.121,10.831-2.23,11.5-3.35A1.19,1.19,0,0,0,437.418,491.436Z"/><path class="cls-8" d="M427.251,218.129s-4.355,7.819-9.83,15.526l3.352.445A21.042,21.042,0,0,0,427.251,218.129Z"/><path class="cls-8" d="M426.357,213.55s-.223-15.08-8.042-17.983h-2.234s-.334,15.749,6.256,17.648Z"/><path class="cls-4" d="M401.085,200.929c3.1,3.434,12.314,8.126,12.314,8.126s5.155,2.385,5.654,2.47,3.394,1.8,3.9,1.13-.5-6.363-.5-6.363a13.745,13.745,0,0,0-5.279-9.72c-.669-.252-6.7-3.435-11.139-3.853s-14.157,0-14.157,0C392.711,194.311,397.987,197.494,401.085,200.929Z"/><path class="cls-4" d="M445.233,223.882s-16.92-5.361-17.677-5.783l-.335-.335a36.29,36.29,0,0,1-.335,5.446c-.334,1.089-1.591,5.111-2.093,5.613,0,0,5.528,2.177,7.789,1.927s5.783-3.685,7.123-4.355S445.233,223.882,445.233,223.882Z"/><path class="cls-9" d="M353.2,275.875c2.458-.225,35.3-1.119,39.986-2.906s2.628-10.722,2.628-10.722-.17,7.148-2.853,9.159-7.145,1.563-7.145,1.563c-43.338-.224-45.8,2.906-45.8,2.906h-1c1,1.339,8.824,6.7,8.379,8.152s5.136,10.612,5.806,11.5.449-1.564-.445-3.128-4.247-10.053-3.577-11.167,2.683,2.9,4.471,3.13-2.011-4.249-3.127-5.811S350.741,276.1,353.2,275.875Z"/><path class="cls-9" d="M414.405,286.147c1.117-2.9,4.47-11.836,4.47-11.836a49.4,49.4,0,0,1-2.684-5.361s1.789,4.242,1.564,5.361-2.458,4.244-2.458,4.914-1.339,3.125-2.008,4.691-1.115,2.012-.895,4.02-.22,6.925,0,8.489-2.678,6.7-3.348,8.936a23.264,23.264,0,0,1-.979,2.74,74.537,74.537,0,0,0,5.222-8.323C413.733,298.214,413.289,289.053,414.405,286.147Z"/><path class="cls-9" d="M393.408,482.726s11.391-3.129,8.49-1.56-10.5,4.69-11.619,6.03c-.99,1.2-.571,7.43-.471,8.71-.3-1.859-3.769-7.59-3.769-7.59a5.085,5.085,0,0,1,0-2.68c.439-.9,4.909-4.69,6.25-6.93a46.8,46.8,0,0,0,2.909-6.7,33.026,33.026,0,0,0,1.11-8.71c-.219-2.01.45-4.47.45-7.6a131.449,131.449,0,0,0-1.56-14.96c-.679-4.02,0-8.04-.9-13.85a25.253,25.253,0,0,1-.351-4.859l6.22,6.22c1.74,4.469,4.79,11.409,5.3,14.27.67,3.8,2.46,13.849.9,16.53s-6.04,6.48-6.71,8.72,10.5,4.02,10.5,4.02-9.83,0-11.16.439C397.648,472.676,393.408,482.726,393.408,482.726Z"/><path class="cls-9" d="M404.359,351.376c-.451.9-6.261,23.01-5.59,21.451s6.479-8.711,8.489-10.951a2.538,2.538,0,0,1,4.47,2.24c-.36,1.431-3.88,13.3-7.33,24.52l-10.23-10.23c.01-.75.06-1.72.131-3.129.23-4.24.9-4.24.449-7.151a197.812,197.812,0,0,1-1.12-19.879c.22-2.9.891-10.051.891-12.95s1.349-15.861,1.119-17.2-4.91-.451-5.58-.671,5.81-1.34,7.37-2.01,3.13-.23,4.69-1.79c1.451-1.45,2.7-1.569,3.951-2.64a38.715,38.715,0,0,1-3.951,5.1c-1.12.671-3.12,5.81-1.56,7.14s12.511-1.11,10.27.9-7.14,3.8-8.93,6.48-3.8,9.38,3.8,6.03,19.43-7.82,19.21-6.03S404.8,350.486,404.359,351.376Z"/><path class="cls-9" d="M408.067,308.1c-.672.986-1.35,1.963-2,2.885.1-.087.2-.165.3-.264A8.409,8.409,0,0,0,408.067,308.1Z"/><path class="cls-9" d="M435.18,295.308c.895.447,10.053-.224,10.053-.224a19.011,19.011,0,0,1-5.583-1.339c-2.459-1.117-2.906-5.809-4.692-10.051s-4.357-18.877-4.357-18.877c-.784.558-1.9,4.578-2.793,5.027s-.445,2.231.894,2.9,2.683,6.7,1.565,8.041a9.147,9.147,0,0,0-2.234,4.022c-.225,1.339,5.136-.442,5.136-.442s2.011,5.359,1.564,6.473S434.288,294.861,435.18,295.308Z"/><path class="cls-9" d="M379.223,218.521c1.674.834,5.191,2.009,7.035,2.678s8.425,2.814,11.754,3.669c0,0-18.789-7.521-20.3-8.191a7,7,0,0,1-2.68-2.011c-.837-.837-4.02-1.424-4.02-1.424S367.159,215,367.831,215s2.513-.168,3.852-.168S377.547,217.681,379.223,218.521Z"/><path class="cls-9" d="M366.808,154.676l-2.85,2.851c-3.08-3.24-7.31-7.541-8.189-8.2-1.341-1.011-3.351-4.191-1.841-4.861,1.3-.58,5.19,2.68,6.53,3.85A78.061,78.061,0,0,1,366.808,154.676Z"/><path class="cls-9" d="M384.418,185.847c-.27-.27-1.17-1.381-2.22-2.721l.351-.349c.069.07.129.149.189.22,1.01,1.179,3.351,3.359,3.52,4.7S385.089,186.517,384.418,185.847Z"/><path class="cls-9" d="M370.848,146.646s2.431-.2,4.21-.22l-.94.94-4.11.12-3.35-5.53Z"/><path class="cls-9" d="M400,183.527c.43,1.459.781,2.8.92,3.369-.129-.45-.41-1.389-.849-2.68a60.345,60.345,0,0,0-6.131-12.83l.26-.26a61.193,61.193,0,0,1,4.8,9.36C399.348,181.416,399.688,182.507,400,183.527Z"/><path class="cls-9" d="M413.568,154.184l1.509,3.52s4.187,3.183,5.361,4.018,2.513,6.2,3.518,10.387-1.339,18.6-2.179,21.782l-.669,2.346a70.114,70.114,0,0,0,3.685-25.467s-1.842-7.539-3.35-9.048a35.71,35.71,0,0,0-5.2-3.685l.672-.67Z"/><path class="cls-9" d="M437.526,191.21c-.335,2.346-1.341,6.536-1.341,6.536s1.846-6.87,2.515-8.379,3.183-3.518,5.027-4.692,3.852-3.852,3.182-4.187-5.361,2.681-6.033,4.187-2.511,3.353-1.841,2.348,4.522-13.74,2.678-19.1a48.088,48.088,0,0,1-1.169,11.562C439.2,184.341,437.861,188.865,437.526,191.21Z"/><path class="cls-9" d="M450.927,195.68c1.788-.282,2.795-1.844,1.846-1.844s-.223-1.286-3.24.837-5.054,3.657-5.054,3.657a84.071,84.071,0,0,1,8.851.475,7.854,7.854,0,0,1,4.916,2.011c2.064,1.564,3.853,3.463,4.132,2.4a3.413,3.413,0,0,0-2.96-3.685c-2.346-.392-11.337-1.731-12.229-1.676S449.143,195.957,450.927,195.68Z"/><path class="cls-9" d="M359.287,304.969c.5-1.172,5.526-8.544,6.2-10.218s4.357-15.079,5.531-17.592c0,0-3.687,6.868-4.022,11.392s-5.194,7.2-6.031,9.718-7.707,13.4-8.044,14.744S358.783,306.143,359.287,304.969Z"/><path class="cls-10" d="M396.086,261.355s8.1,1.729,10.613,1.562,7.2-3.35,6.03-4.19-5.191,0-9.044.337-6.7,0-5.026-.672-1.174-7.2.335-7.871,7.035-8.379,5.361-8.212-4.527,2.178-6.2,4.357c-1.054,1.371-.981-5.084-.779-10.062Z"/><path class="cls-10" d="M397.375,236.6l.275-5.352S397.49,233.673,397.375,236.6Z"/><path class="cls-10" d="M427.978,262.414c-1.344.5-13.071,1.677-8.714,2.514s11.727.334,11.727.334a10.431,10.431,0,0,0-.5-2.008c-.337-.84-1.509-10.388-1.509-10.892,0,0,.335,4.691-.334,3.852s-1.509-2.848-1.844-1.506,2.008,4.189,2.008,5.7S429.317,261.91,427.978,262.414Z"/><path class="cls-11" d="M149.889,152.347c.04-.14.08-.27.13-.41-.06.23-.13.47-.2.7C149.839,152.537,149.869,152.447,149.889,152.347Z"/><path class="cls-11" d="M309.709,282.077c-.33.1-.53.15-.53.15-.18-.37-.371-.79-.55-1.23Z"/><path class="cls-11" d="M413.159,145.757l-2.25,2.25c-.331-1.5-.64-2.82-.92-3.91C409.989,144.1,411.009,143.017,413.159,145.757Z"/><path class="cls-11" d="M415.469,143.447l-1.4,1.4c-.281-.89-.54-1.69-.73-2.2,0,0,.219.08.61.23C414.308,143.017,414.828,143.207,415.469,143.447Z"/></g></svg>