<?xml version="1.0" encoding="utf-8"?>
<!-- Generator: Adobe Illustrator 24.0.1, SVG Export Plug-In . SVG Version: 6.00 Build 0)  -->
<svg version="1.1" xmlns="http://www.w3.org/2000/svg" xmlns:xlink="http://www.w3.org/1999/xlink" x="0px" y="0px"
	 viewBox="0 0 528.57 524.29" style="enable-background:new 0 0 528.57 524.29;" xml:space="preserve">
<style type="text/css">
	.st0{display:none;fill:#FDFEFE;}
	.st1{fill:#616060;}
	.st2{fill:#8D8989;}
	.st3{display:none;}
	.st4{display:inline;}
	.st5{fill:#636464;}
	.st6{fill:#808080;}
	.st7{fill:#B4B3B4;}
	.st8{fill:#333333;}
	.st9{fill:none;}
	.st10{fill:none;stroke:#000000;stroke-width:5;stroke-miterlimit:10;}
	.st11{fill:#050606;}
	.st12{fill:#FFFFFF;}
	.st13{opacity:0.1;}
	.st14{fill:#ECECEC;}
	.st15{fill:#1F191A;}
	.st16{fill:#E2E5E5;}
	.st17{fill:#181818;}
	.st18{fill:#F0F1F1;}
	.st19{fill:#1D191A;}
	.st20{fill:#E5E6E6;}
	.st21{fill:#070808;}
	.st22{display:inline;fill:none;stroke:#8D8989;stroke-width:30;stroke-miterlimit:10;}
	.st23{fill-rule:evenodd;clip-rule:evenodd;fill:#050606;}
	.st24{fill:none;stroke:#000000;stroke-width:4;stroke-linecap:round;stroke-linejoin:round;stroke-miterlimit:10;}
	.st25{fill:#010101;}
	.st26{fill-rule:evenodd;clip-rule:evenodd;fill:#FFFFFF;}
	.st27{fill:#161717;}
	.st28{fill-rule:evenodd;clip-rule:evenodd;fill:#161717;}
</style>
<g id="Layer_1">
	<rect x="-4394.7" y="-1682.29" class="st0" width="13577.14" height="3065.14"/>
</g>
<g id="Layer_2">
</g>
<g id="Layer_3">
</g>
<g id="Layer_4">
</g>
<g id="Layer_5">
</g>
<g id="Layer_6">
</g>
<g id="Layer_7">
</g>
<g id="Layer_8">
</g>
<g id="Layer_9">
</g>
<g id="Layer_10">
</g>
<g id="Layer_11">
</g>
<g id="Layer_12">
</g>
<g id="Layer_13">
</g>
<g id="Layer_14">
</g>
<g id="Layer_15">
</g>
<g id="Layer_16">
</g>
<g id="Layer_17">
</g>
<g id="Layer_18">
</g>
<g id="Layer_19">
</g>
<g id="Layer_20">
</g>
<g id="Layer_21">
</g>
<g id="Layer_22">
</g>
<g id="Layer_23">
</g>
<g id="Layer_24">
</g>
<g id="Layer_25">
</g>
<g id="Layer_26">
	<g>
		<g>
			<g>
				<path class="st21" d="M426.04,210.25c-2.85-28.24-7.32-53.87-12.4-76.54c-5.36-0.93-12.67-2.79-20.61-6.78
					c-6.18-3.1-11.01-6.62-14.58-9.63c-8.38,0.21-16.77,0.41-25.15,0.62c-4.23,3.97-11.13,9.42-20.88,13.29
					c-5.8,2.29-11.11,3.43-15.39,4c-4.32,21.98-11.01,47.41-21.55,74.85c-7.22,18.77-15.1,35.52-22.91,50.16
					c0.36,0.81,2.85,6.13,8.81,7.8c3.77,1.05,6.96,0.1,8.21-0.34c9.99-16.43,20.22-36.13,29.01-59.11
					c4.01-10.47,7.3-20.55,10.03-30.11c0.7,16.25,0.64,34.45-0.82,54.23c-1.36,18.56-3.71,35.53-6.51,50.71h7.59
					c2.56,37.05,6.03,75.42,10.58,114.98c2.96,25.78,6.25,50.93,9.82,75.45l-3.39,12.67h9.16c0.49-4.57,0.99-9.13,1.49-13.7v12.89
					c-0.8,2.12-1.62,4.92-2.04,8.27c-0.36,2.94-0.31,5.52-0.13,7.59c9.23-0.18,18.44-0.36,27.66-0.54
					c-4.83-4.57-9.67-9.13-14.5-13.7c5.43-30.49,10.53-61.94,15.19-94.33c5.41-37.58,9.91-74.12,13.63-109.53h8.13
					c-1.39-13.9-2.55-28.28-3.46-43.11c-1.19-19.58-1.83-38.45-2.03-56.55c4.8,18.14,9,39,11.39,62.24
					c1.19,11.49,1.81,22.44,2.03,32.74c1.81,0.25,4.01,0.39,6.51,0.2c4.43-0.33,7.98-1.58,10.37-2.65
					C429.34,256.19,428.45,234.04,426.04,210.25z M362.66,351.47c-0.6,23.36-2.6,44.8-5.3,64c-0.37-18.07-0.28-37.08,0.41-56.95
					c0.73-20.71,2.05-40.45,3.8-59.12C362.64,315.41,363.14,332.82,362.66,351.47z"/>
			</g>
		</g>
		<g>
			<g>
				<path class="st21" d="M414.66,283.17c-0.24,4.41-0.47,8.81-0.71,13.22c-0.66-0.1-1.54-0.1-2.24,0.41c-1.55,1.15-1.38,4.33,0,5.9
					c2.4,2.72,8.17,0.22,8.44,0.1c3.98-1.78,5.69-5.46,6.2-6.71c-0.07-5.22-0.14-10.44-0.2-15.66
					C422.32,281.34,418.49,282.25,414.66,283.17z"/>
			</g>
		</g>
		<g>
			<g>
				<path class="st21" d="M358.32,113.55c5.63,0,11.25,0,16.88,0c0-3.22,0-6.44,0-9.66c1.34-2.18,3.19-5.27,5.29-9.05
					c3.76-6.8,4.41-8.79,4.78-10.27c0.87-3.43,1.88-7.44-0.2-11.19c-2.02-3.63-5.81-4.97-7.22-5.39c-0.58-1.55-1.74-3.98-4.07-6
					c-5.72-4.96-16.04-5.28-22.37-1.02c-3.24,2.18-4.52,4.95-9.05,6.2c-2.39,0.66-4.51,0.57-5.9,0.41
					c-0.03,1.19,0.05,4.94,2.75,8.24c1.37,1.68,2.92,2.63,3.97,3.15c-0.06,6.32,0.33,11.51,0.71,15.15
					c1.13,10.73,2.7,12.64,4.07,13.63c3.25,2.34,7.8,1.25,9.86,0.61C357.98,110.09,358.15,111.82,358.32,113.55z"/>
			</g>
		</g>
		<g>
			<g>
				<path class="st21" d="M198.86,173.62c-0.07,3.76-0.25,7.52-0.5,11.27c-0.24,3.76-0.61,7.5-0.99,11.25
					c-0.4,3.74-0.91,7.48-1.44,11.21c-0.51,3.74-1.24,7.43-1.86,11.15l-0.38-2.07c8.03,11.41,13.54,24.73,15.89,38.61
					c1.25,6.92,1.61,14.01,1.41,20.92c-0.29,6.76-0.28,13.35,0.03,20.05c0.64,13.36,2.47,26.84,4.68,40.23
					c0.54,3.35,1.11,6.7,1.72,10.04c0.59,3.33,1.28,6.63,2.07,9.92c0.78,3.29,1.65,6.56,2.56,9.81c0.43,1.64,0.96,3.24,1.46,4.86
					c0.49,1.62,1.01,3.23,1.55,4.83c2.13,6.42,4.54,12.74,7.2,18.94c2.6,6.23,5.52,12.32,8.5,18.36l2.33,4.48
					c0.77,1.5,1.51,3,2.34,4.47c1.63,2.94,3.19,5.92,4.89,8.81c3.3,5.85,6.79,11.58,10.49,17.13c3.71,5.53,7.68,10.86,12.04,15.69
					c2.18,2.41,4.46,4.72,6.88,6.8c2.42,2.09,4.96,3.96,7.66,5.69c10.86,6.94,23.35,11.25,36.26,12.97l38.13,5.1l-38.21,2.88
					c-8.16,0.62-16.4,0.13-24.38-1.59c-7.97-1.74-15.68-4.61-22.68-8.68l-2.62-1.53c-0.86-0.52-1.69-1.11-2.53-1.66
					c-1.7-1.08-3.29-2.32-4.89-3.55c-3.12-2.53-6.13-5.19-8.85-8.11c-5.46-5.81-10.15-12.31-13.69-19.35l0.69-0.41
					c4.5,6.36,9.68,12.17,15.49,17.18c5.76,5.06,12.18,9.26,18.98,12.52l1.27,0.62l1.31,0.54l2.61,1.08c1.75,0.69,3.54,1.26,5.3,1.9
					c3.58,1.12,7.24,1.97,10.93,2.55c7.37,1.22,14.91,1.36,22.3,0.49l-0.08,7.98c-14.04-1.39-28-5.92-39.97-13.76
					c-6.09-3.88-11.42-8.95-15.99-14.3c-4.63-5.35-8.58-11.11-12.26-16.96c-3.67-5.87-7.05-11.86-10.16-17.99
					c-3.16-6.1-6-12.36-8.66-18.67c-5.21-12.69-9.62-25.65-13.37-38.78c-0.98-3.27-1.83-6.57-2.71-9.87
					c-0.88-3.29-1.72-6.6-2.47-9.93c-1.58-6.65-2.77-13.35-4.27-19.98c-2.8-13.3-6.1-26.54-7.81-40.26
					c-0.41-3.43-0.74-6.88-0.92-10.33c-0.15-3.44-0.22-6.97-0.22-10.33c0.03-6.67-0.29-13.19-1.28-19.68
					c-0.5-3.24-1.17-6.44-1.99-9.61l-0.65-2.37l-0.71-2.35c-0.46-1.57-1-3.12-1.56-4.67c-2.26-6.17-5.18-12.09-8.58-17.76
					l-0.63-1.05l0.25-1.03l2.61-10.85c0.85-3.63,1.63-7.27,2.4-10.92c0.8-3.65,1.49-7.31,2.22-10.98l2.08-11.04L198.86,173.62z"/>
			</g>
		</g>
		<g>
			<g>
				<path class="st21" d="M205.38,309.44c0.94,21.29,1.63,42.57,2.39,63.83l1.19,31.89l0.61,15.94c0.19,5.3,0.53,10.48,1.36,15.6
					c1.55,10.23,5.23,20.02,10.86,28.69c5.54,8.7,13.01,16.17,21.71,21.76c1.09,0.69,2.18,1.4,3.33,2c1.13,0.63,2.26,1.27,3.45,1.79
					c1.18,0.54,2.34,1.12,3.53,1.64l3.63,1.41c4.9,1.74,10,2.95,15.19,3.59c5.19,0.68,10.48,0.76,15.74,0.37
					c5.26-0.4,10.52-1.26,15.66-2.67c-2.49,0.95-5.04,1.76-7.62,2.45c-2.59,0.65-5.22,1.21-7.88,1.6
					c-5.31,0.81-10.73,1.04-16.13,0.7c-5.4-0.37-10.77-1.37-15.99-2.92l-3.88-1.3c-1.27-0.49-2.51-1.06-3.77-1.58
					c-1.27-0.5-2.48-1.14-3.7-1.76c-1.23-0.59-2.41-1.29-3.59-1.98c-4.71-2.78-9.14-6.08-13.06-9.91
					c-3.96-3.8-7.51-8.01-10.56-12.58c-6.11-9.11-10.12-19.68-11.83-30.49c-0.84-5.41-1.15-10.87-1.3-16.21
					c-0.16-5.32-0.35-10.65-0.45-15.98c-0.18-10.65-0.39-21.31-0.36-31.96C203.86,352.03,204.25,330.72,205.38,309.44z"/>
			</g>
		</g>
		<g>
			<g>
				<path class="st21" d="M205.86,422.56c-0.27,11.63-0.28,23.13,0.59,34.54c0.42,5.7,1.04,11.37,1.89,16.99
					c0.44,2.8,0.87,5.64,1.49,8.31c0.59,2.68,1.36,5.22,2.54,7.35c1.14,2.14,2.76,3.86,4.79,5.01c1.95,1.19,4.32,1.67,6.98,1.83
					c2.65,0.16,5.48,0.02,8.35-0.1c2.87-0.14,5.79-0.28,8.71-0.34c11.69-0.26,23.4,0.62,34.81,2.9
					c-11.63,0.21-23.12,0.63-34.52,1.81l-8.6,0.91c-2.9,0.3-5.85,0.56-8.98,0.51c-1.57-0.03-3.19-0.17-4.84-0.55
					c-1.64-0.36-3.32-0.94-4.83-1.81c-3.03-1.67-5.53-4.32-7.12-7.28c-1.59-2.96-2.46-6.04-3.07-9c-0.6-2.99-0.99-5.88-1.33-8.8
					c-0.67-5.84-1-11.72-0.97-17.58C201.81,445.54,203.13,433.87,205.86,422.56z"/>
			</g>
		</g>
		<g>
			<g>
				<path class="st21" d="M195.68,274.27c-0.39,20.14-2.3,40.24-5.24,60.17c-1.43,9.97-3.29,19.9-5.48,29.72
					c-2.14,9.83-4.43,19.64-6.84,29.42c-4.77,19.54-10.15,39.05-18.42,57.56c-4.13,9.24-8.96,18.17-14.36,26.74
					c-5.42,8.56-11.28,16.85-17.77,24.65l-1.7-3.49c7.94-0.26,15.87-0.41,23.81-0.56c7.94-0.14,15.87-0.28,23.84-0.21
					c3.98,0.03,7.96,0.01,11.93,0.07l5.96,0.08l5.96,0.24c3.97,0.18,7.95,0.41,11.91,0.75c3.96,0.32,7.93,0.67,11.87,1.13l-0.03,0.4
					c-3.97-0.05-7.94-0.12-11.91-0.13l-11.89,0.03l-5.94,0.09l-5.94,0.25c-3.96,0.18-7.92,0.3-11.88,0.45l-23.78,0.9
					c-7.93,0.29-15.86,0.57-23.8,0.76l-4.7,0.11l3-3.6c6.37-7.66,12.41-15.61,17.87-23.96c5.46-8.35,10.44-17.02,14.97-25.92
					c4.53-8.91,8.44-18.15,11.71-27.62c3.26-9.48,5.8-19.21,7.85-29.04c2.04-9.83,3.64-19.75,5.3-29.66l4.99-29.68
					c1.6-9.9,3.06-19.82,4.43-29.77c1.37-9.95,2.6-19.91,3.87-29.9L195.68,274.27z"/>
			</g>
		</g>
		<g>
			<g>
				<path class="st21" d="M151.86,177.86c2.99,6.93,5.73,13.95,8.56,20.91c1.39,3.46,2.77,7.03,4.3,10.25
					c0.99,2.08,1.4,4.57,1.03,6.95c-0.17,1.18-0.51,2.32-0.97,3.38c-0.44,1.06-1.07,2.07-1.45,2.77c-1.72,3.13-3.31,6.6-5.53,10.04
					c-0.56,0.85-1.16,1.71-1.81,2.53c-0.41,0.67-0.91,1.25-1.28,1.97c-0.77,1.4-1.43,2.91-1.95,4.53
					c-2.09,6.49-2.48,13.85-2.47,21.12c0.02,1.83,0.03,3.66,0.1,5.51l0.09,2.79l0.12,2.73c0.19,3.62,0.6,7.16,1.28,10.69
					c0.69,3.53,1.7,7.12,2.57,10.84c0.89,3.71,1.65,7.49,2.21,11.27c2.34,15.12,2.24,30.41,0.91,45.45
					c-0.3,3.75-0.67,7.52-1.07,11.3c-0.27,1.88-0.49,3.76-0.73,5.64c-0.24,1.88-0.59,3.75-0.89,5.63
					c-1.24,7.5-2.91,14.94-5.03,22.27l-0.8,2.75l-0.87,2.73c-0.55,1.83-1.22,3.62-1.86,5.42c-0.62,1.81-1.36,3.58-2.03,5.37
					c-0.73,1.77-1.46,3.54-2.26,5.28c-1.56,3.5-3.23,6.97-5.07,10.35c-0.9,1.7-1.91,3.33-2.87,5c-0.99,1.65-1.88,3.35-2.97,4.94
					l-3.14,4.84c-1.04,1.62-2.22,3.14-3.33,4.71l-1.69,2.34c-0.56,0.78-1.19,1.51-1.78,2.27c-1.2,1.5-2.38,3.03-3.6,4.52
					c-4.94,5.91-10.32,11.45-16.01,16.62c-11.4,10.36-24.31,18.97-37.95,25.93l-2.13-6.6c5.54-0.55,11.12-0.75,16.69-0.54
					c5.55,0.25,11.13,0.94,16.52,2.06l15.91,3.43l15.92,3.34l-0.1,0.79c-5.43-0.3-10.85-0.66-16.27-1.19
					c-5.41-0.48-10.84-1.18-16.18-1.76c-5.31-0.61-10.56-0.85-15.84-0.66c-5.27,0.14-10.52,0.67-15.72,1.52l-19.05,3.13l16.91-9.73
					c6.4-3.68,12.59-7.7,18.51-12.07c5.93-4.35,11.63-9.02,17.02-14c5.41-4.97,10.54-10.22,15.42-15.71l3.54-4.21
					c0.58-0.71,1.2-1.4,1.75-2.12l1.67-2.19c1.1-1.47,2.27-2.89,3.32-4.4l3.16-4.52c1.09-1.48,2-3.09,3-4.63
					c0.96-1.56,1.99-3.1,2.91-4.69c1.85-3.17,3.6-6.4,5.25-9.71c3.31-6.59,6.26-13.39,8.91-20.32c5.24-13.88,8.97-28.44,10.31-43.37
					c0.77-7.45,1.23-14.92,0.8-22.37c-0.23-3.72-0.59-7.43-1.12-11.1c-0.57-3.67-1.31-7.32-2.19-10.92
					c-0.89-3.6-1.96-7.12-3.15-10.64c-1.19-3.5-2.54-7.07-3.57-10.87c-1.06-3.79-1.76-7.71-2.12-11.59l-0.24-2.9
					c-0.07-0.94-0.13-1.89-0.18-2.85c-0.1-1.91-0.19-3.83-0.19-5.76c-0.03-3.86,0.12-7.76,0.59-11.68
					c0.46-3.91,1.23-7.86,2.63-11.75c0.67-1.95,1.61-3.86,2.75-5.7c0.55-0.92,1.29-1.78,1.93-2.66c0.54-0.63,1.06-1.29,1.56-1.98
					c2.02-2.79,3.69-6.13,5.86-9.43c0.59-0.91,1-1.46,1.33-2.12c0.34-0.65,0.59-1.31,0.73-1.98c0.3-1.33,0.2-2.72-0.31-4.09
					c-1.36-3.72-2.35-7.3-3.43-10.94c-2.03-7.27-3.98-14.55-5.66-21.92L151.86,177.86z"/>
			</g>
		</g>
		<g>
			<g>
				<path class="st21" d="M269.51,266.05c0.81-0.27,1.63-0.54,2.44-0.81c3.07,1.72,6.15,3.43,9.22,5.15c0.14,3.3,0.27,6.6,0.41,9.9
					c-0.1,1.6-0.99,2.97-2.3,3.53c-0.98,0.41-1.91,0.24-2.31,0.14c0.04,0.84-0.06,1.82-0.68,2.58c-1.96,2.43-7.68,0.79-10.71-0.68
					c-1.77-0.86-5.4-2.62-6.91-6.37c-1.61-3.98,0.69-6.45,0.41-10.85c-0.3-4.63-3.22-7.92-8.27-12.88
					c-13.74-13.51-19.33-15.93-28.34-25.76c-3.36-3.67-6.83-7.49-10.3-13.42c-1.76-3-4.17-7.65-9.08-23.73
					c-1.66-5.43-3.77-12.71-5.97-21.42c-2.79,4.96-5.55,8.93-7.8,11.9c-1.91,2.53-4.18,5.5-7.73,8.95c-2.36,2.3-4.52,4.06-6.17,5.32
					c-5.42-4.81-11.02-10.29-16.61-16.51c-2.18-2.43-4.25-4.84-6.2-7.22c-0.33,1.56-1.64,7.72-2.47,11.39
					c-0.11,0.47-0.26,1.13-0.47,1.99c-0.4,1.59-0.77,2.83-1.29,4.72c-3.38,12.31-3.18,16.2-5.83,25.02
					c-0.87,2.9-2.61,7.12-6.1,15.56c-4.88,11.8-7.31,17.7-8.75,20.51c-4.29,8.42-8.75,15.11-6.24,19.12
					c0.57,0.91,1.61,1.86,2.3,3.93c0.15,0.45,1.19,3.71,0.14,6.37c-2.02,5.08-11.56,7.69-15.86,3.66c-2.06-1.93-2.79-5.26-2.17-8
					c0.97-4.3,4.72-4.82,8.14-10.03c1.49-2.27,2.14-4.61,3.39-9.22c2.13-7.85,3.19-11.78,5.42-20.2c2.94-11.1,4.41-16.65,6.64-21.83
					c1.83-4.24,3-6.1,4.2-10.44c1.43-5.17,1.47-8.7,1.76-14.24c0.84-15.88,1.92-13.21,2.31-24.95c0.34-10.25-0.42-14.3,2.85-17.49
					c0.95-0.93,3.49-1.9,8.54-3.8c9.38-3.53,10.79-3.48,13.15-5.56c3.88-3.42,5.99-8.77,4.61-10.3c-1-1.11-2.99,0.73-6.1-0.14
					c-5.2-1.45-7.05-8.65-7.19-9.22c-0.43-1.77-1.42-5.85,0.68-8.54c1.02-1.3,2.32-1.7,2.58-3.25c0.24-1.45-0.75-1.92-0.68-3.8
					c0.01-0.35,0.14-2.57,1.63-3.66c1.62-1.19,3.4,0.03,4.34-0.95c1-1.04-0.22-3.2-0.68-5.42c-1.2-5.9,3.16-11.36,3.53-11.8
					c5.03-6.11,13.95-5.35,16.27-5.15c2.6,0.22,10.01,0.85,13.42,6.24c1.56,2.46,1.4,6.02,1.08,13.15c-0.27,6.13-1.1,10-2.17,14.91
					c-1.57,7.17-2.59,8.52-3.8,9.36c-3.08,2.14-7.3,0.96-8.95,0.41c-0.11,2.03-0.05,5.73,1.63,9.9c0.72,1.79,2.25,5.59,5.83,8.41
					c5.18,4.07,8.49,1.23,14.37,5.42c4.06,2.89,6.04,6.78,6.64,8c1.64,3.31,2,6.2,2.17,7.46c2.08,15.84,4.12,14.59,6.24,32.68
					c0.81,6.93,0.99,11.2,4.2,16c1.95,2.92,3.9,4.35,5.97,6.1c11.11,9.43,9.94,14.81,24,29.83c2.8,2.99,4.5,4.55,8.41,8.95
					C264.36,259.51,267.49,263.43,269.51,266.05z"/>
			</g>
		</g>
		<g>
			<g>
				<path class="st21" d="M123.09,245.08c-2.31-0.64-4.48-1.61-6.45-2.88c-1.84-1.19-3.92-2.53-5.09-5.05
					c-1.47-3.15-0.67-6.24-0.4-7.25c0.35-1.34,0.29-1.77,0.14-3.03c-0.43-3.55-1.24-10.16,4.51-40.36
					c2.92-15.32,6.38-30.72,10.01-44.54c1.39-5.31,5.64-21.46,13.99-40.12c1.81-4.05,3.74-8.07,7.29-12.62
					c3.82-4.89,12.76-16.35,26.13-17.42c14.96-1.19,26.02,11.17,30.74,16.45c3.77,4.22,6.56,9.66,11.62,19.55
					c13.17,25.72,18.54,36.23,19.21,37.82c2.06,4.88,3.58,8.88,4.92,12.41c2.61,6.88,4.67,12.31,9.4,21.1
					c2.58,4.8,3.88,7.21,6,10.61c0.08,0.12,7.54,12.09,15.94,28.86c0.47,0.94,1.92,3.82,0.35,6.37c-1.35,2.2-3.8,2.39-5.42,2.53
					l-0.52,0.04c-3.79,0.36-7.16,1.87-8.68,3.13c-1.22,1.01-2.09,2.62-2.57,4.78l-5.85-1.31c0.78-3.5,2.34-6.22,4.61-8.1
					c2.78-2.29,7.47-4.05,11.93-4.47l0.6-0.05c0.09-0.01,0.19-0.01,0.29-0.02c-0.03-0.06-0.06-0.13-0.1-0.2
					c-8.27-16.5-15.58-28.25-15.66-28.36c-2.23-3.56-3.56-6.03-6.2-10.95c-4.91-9.14-7.14-15.01-9.72-21.81
					c-1.38-3.65-2.82-7.42-4.84-12.2c-0.62-1.46-7.55-15-19.03-37.43c-5.2-10.15-7.63-14.79-10.75-18.28
					c-4.48-5-13.79-15.42-25.8-14.47c-10.73,0.85-18.26,10.49-21.87,15.13c-3.14,4.02-4.88,7.68-6.54,11.38
					c-8.15,18.21-12.3,34.01-13.67,39.2c-3.6,13.68-7.03,28.94-9.92,44.14c-5.58,29.27-4.81,35.51-4.45,38.51
					c0.19,1.51,0.34,2.82-0.27,5.21c-0.16,0.62-0.54,2.07,0.02,3.27c0.42,0.91,1.33,1.53,2.9,2.54c1.46,0.94,3.08,1.66,4.81,2.14
					L123.09,245.08z"/>
			</g>
		</g>
		<g>
			<g>
				<path class="st21" d="M144.85,254.08c-3.64,0-7.17-0.67-10.53-1.99c-2.38-0.94-4.64-2.2-6.7-3.75l3.6-4.8
					c1.63,1.23,3.42,2.22,5.3,2.96c3.1,1.22,6.4,1.73,9.8,1.53l0.37,5.99C146.07,254.06,145.45,254.08,144.85,254.08z"/>
			</g>
		</g>
		<g>
			<g>
				<path class="st21" d="M197.66,92.45c3.48,5.43,6.3,11.16,8.98,16.94c1.31,2.9,2.57,5.83,3.74,8.79c1.2,2.95,2.27,5.95,3.19,9
					c1.83,6.11,3.06,12.42,4.97,18.48c1.89,6.07,4.19,12,6.72,17.84c1.24,2.93,2.55,5.84,3.74,8.77c1.21,2.93,2.34,5.88,3.51,8.82
					c2.32,5.88,4.79,11.67,7.05,17.56c1.13,2.95,2.25,5.9,3.33,8.87l1.65,4.45l1.61,4.47c2.13,5.97,4.28,11.94,6.14,18.09
					l-0.54,0.26c-3.7-5.26-6.91-10.8-9.92-16.44l-2.21-4.25l-2.09-4.31c-1.39-2.88-2.68-5.8-3.92-8.74
					c-2.46-5.89-4.52-11.96-6.44-18.05c-0.97-3.04-1.9-6.09-2.73-9.17c-0.85-3.07-1.54-6.19-2.3-9.28
					c-1.46-6.2-3.18-12.32-5.43-18.25c-2.25-5.93-5.29-11.58-7.84-17.38c-1.28-2.9-2.42-5.85-3.48-8.84
					c-1.08-2.98-2.11-5.97-3.1-8.98c-1.93-6.05-3.83-12.11-5.18-18.41L197.66,92.45z"/>
			</g>
		</g>
		<g>
			<g>
				<polygon class="st21" points="196.35,97.6 204.43,123.91 211.89,150.39 203,124.37 193.52,98.59 				"/>
			</g>
		</g>
		<g>
			<g>
				<path class="st21" d="M216.36,160.63c1.52,4.49,2.9,9.01,4.28,13.53l4.1,13.55c0.66,2.26,1.33,4.53,2.07,6.76
					c0.69,2.25,1.42,4.5,2.08,6.77c1.35,4.52,2.64,9.07,3.74,13.69c-1.89-4.34-3.59-8.76-5.22-13.21c-1.63-4.45-3.25-8.9-4.58-13.44
					c-1.34-4.54-2.6-9.11-3.68-13.72C218.04,169.96,217.08,165.32,216.36,160.63z"/>
			</g>
		</g>
		<g>
			<g>
				<path class="st21" d="M161.35,84.97c-1.65,5.27-3.31,10.48-4.84,15.71c-1.5,5.25-2.93,10.5-4.13,15.8
					c-1.26,5.29-2.31,10.63-3.28,16c-0.94,5.37-1.75,10.78-2.59,16.24c-0.4-5.51-0.24-11.05,0.27-16.55
					c0.23-2.76,0.64-5.49,1.06-8.23c0.47-2.73,1.01-5.44,1.62-8.14c0.67-2.69,1.34-5.37,2.15-8.02c0.84-2.64,1.67-5.27,2.68-7.85
					C156.26,94.78,158.56,89.74,161.35,84.97z"/>
			</g>
		</g>
		<g>
			<g>
				<path class="st21" d="M159.78,85.9c-5.38,8.08-9.94,16.73-13.57,25.77c-1.85,4.48-3.22,9.14-4.45,13.88
					c-1.22,4.74-2.27,9.53-3.24,14.34c-1.93,9.63-3.53,19.34-4.96,29.07c-1.41,9.73-2.6,19.51-3.57,29.3
					c0.64-9.82,1.5-19.64,2.58-29.43c1.1-9.79,2.37-19.56,3.98-29.3c0.81-4.87,1.71-9.73,2.78-14.56c1.08-4.82,2.32-9.68,4.07-14.37
					c3.39-9.35,7.75-18.37,13-26.86L159.78,85.9z"/>
			</g>
		</g>
		<g>
			<g>
				<path class="st21" d="M147.57,296.69c-0.37-0.86-1.3-1.07-4.57-2.23c-2.44-0.87-3-1.14-3.06-1.58c-0.08-0.64,0.98-0.94,2.3-2.33
					c0.85-0.9,2.38-2.87,1.93-3.56c-0.59-0.91-3.76,1.65-7.62,0.66c-2.55-0.65-4.82-2.7-4.63-3.1c0.07-0.13,0.39-0.08,0.71-0.05
					c2.09,0.16,5.01-0.81,5.44-2.34c0.28-1.01-0.43-2.52-1.52-2.95c-1.07-0.42-1.97,0.42-5.9,2.39c-3.48,1.76-3.76,1.6-3.82,1.53
					c-0.14-0.22,0.84-0.85,1.83-2.33c0.47-0.69,1.95-2.9,1.38-5.09c-0.1-0.4-0.33-1.21-1.02-1.53c-0.67-0.31-1.4,0-1.53,0.05
					c-1.06,0.47-1.36,1.59-1.98,3.06c-0.74,1.71-2.04,4.73-3.71,4.88c-0.74,0.07-0.94-0.48-1.94-0.91
					c-2.39-1.04-4.16,0.92-7.06,1.17c-3.27,0.28-6.81-1.75-8.6-4.12c-1.99-2.65-1.64-5.5-3.35-5.85c-0.86-0.18-1.85,0.36-2.29,1.06
					c-0.65,1.05-0.06,2.5,1.02,4.98c1.18,2.75,2.16,4.01,1.68,4.58c-0.4,0.47-1.49,0.12-1.58,0.09c-1.19-0.38-1.37-1.4-2.7-3.2
					c-0.9-1.22-1.94-2.58-3.62-3.1c-0.28-0.09-1.73-0.54-2.29,0.1c-0.49,0.57-0.07,1.77,0.36,2.49c1.51,2.54,5.04,2.37,5.09,3.56
					c0.01,0.37-0.33,0.55-1.63,1.63c-2.02,1.68-2,1.92-2.8,2.49c-3.07,2.22-5.98,0.49-7.21,2.39c-0.61,0.93-0.59,2.37,0.05,2.89
					c1.35,1.12,5.13-2.11,5.95-1.21c0.46,0.5-0.31,2.01-0.92,3.2c-0.64,1.26-1.06,1.63-1.52,2.39c-1.69,2.79-0.12,4.65-1.38,6.1
					c-1.72,1.99-5.69-0.29-6.92,1.47c-0.88,1.28,0.11,4.05,1.53,4.48c0.95,0.28,1.69-0.62,5.59-3.46c3.29-2.39,4.18-2.78,4.58-2.49
					c0.3,0.23,0.27,0.83-0.06,2.18c-1.12,4.74-2.96,7.01-2.23,7.89c0.33,0.4,1.03,0.28,2.33,0.05c3.83-0.68,6.34-2.73,6.61-2.39
					c0.11,0.13-0.17,0.59-0.71,1.17c-2.62,2.81-5.39,1.99-6.96,4.22c-0.88,1.24-1.17,3.13-0.41,3.91c0.54,0.57,1.5,0.46,1.88,0.41
					c3.78-0.47,5.59-5.66,6.71-5.23c0.62,0.23,0.04,1.79,0.91,4.06c0.74,1.91,2.25,3.64,2.8,3.41c1.11-0.46-1.62-8.96-1.02-9.15
					c0.23-0.08,0.81,1.08,1.17,1.93c1.64,3.89,1.14,7.34,1.78,7.42c0.36,0.06,0.44-1.07,1.52-1.93c1.4-1.1,3.75-1.21,4.38-0.26
					c0.49,0.76-0.21,2.02-0.3,2.18c-1.33,2.37-4.56,2.34-4.53,3.16c0.03,0.53,1.48,1.12,2.74,0.91c1.08-0.17,1.83-0.89,3.06-2.09
					c1.27-1.23,1.61-1.94,1.93-1.82c0.44,0.15,0.07,1.58,0.06,3.96c-0.01,2.74,0.46,4.63,0.86,6.21c0.53,2.13,0.88,3.51,1.62,3.61
					c0.83,0.11,1.95-1.39,2.19-2.89c0.25-1.56-0.57-2.21-1.22-4.53c-0.78-2.73-0.72-5.64-0.15-5.79c0.28-0.09,0.55,0.55,2.24,2.89
					c0.79,1.09,1.96,2.74,2.14,2.64c0.09-0.05-0.17-0.56-0.46-1.32c-0.74-1.95-1.03-3.94-0.82-4.01c0.19-0.07,0.4,1.5,1.77,2.7
					c1.88,1.62,4.35,1.18,4.63,1.12c0.57-0.11,1.1-0.23,1.27-0.62c0.28-0.65-0.75-1.38-1.78-3.2c-0.1-0.17-1.43-2.56-1.02-2.89
					c0.38-0.31,2.31,0.95,3.51,2.79c0.82,1.26,0.58,1.68,1.52,3.26c0.61,1.01,1.76,2.94,2.75,2.74c0.88-0.17,1.43-2,1.22-3.45
					c-0.12-0.84-0.48-1.42-0.81-1.94c-1.42-2.21-3.04-2.2-3.36-3.65c-0.28-1.24,0.6-2.59,0.97-2.54c0.31,0.04,0.13,1.1,0.76,2.39
					c0.07,0.14,1.3,2.59,2.9,2.44c1.35-0.13,2.49-2.05,2.24-3.51c-0.24-1.4-1.66-1.5-1.83-2.89c-0.16-1.38,0.86-2.92,2.24-3.56
					c1.38-0.64,2.74-0.21,3.26,0c1.45,0.58,1.92,1.73,2.24,1.58c0.43-0.21-0.52-2.33-1.07-5.44c-0.68-3.92,0.17-4.28-0.71-7.33
					c-0.55-1.9-1.32-3.22-0.82-3.65c0.32-0.28,0.85,0.05,2.14,0.46c1.78,0.56,4.28,1.36,5.3,0.41
					C147.74,298.38,147.87,297.39,147.57,296.69z M110.81,296.28c-0.21,1.34-0.05,1.47-0.21,1.74c-0.75,1.23-5.07-0.53-5.49,0.3
					c-0.34,0.66,2.23,2.01,1.93,3.65c-0.13,0.75-0.84,1.48-1.42,1.42c-1.07-0.09-1.33-2.83-2.33-2.85c-0.29,0-0.51,0.23-0.91,0.71
					c-1.79,2.15-1.95,3.08-2.54,3.16c-0.72,0.08-1.37-1.19-2.54-3.46c-1.41-2.74-1.21-3.43-1.12-3.65c0.47-1.21,2.05-1.5,1.94-2.04
					c-0.09-0.33-0.74-0.35-1.5-0.58c-2.07-0.64-3.64-2.48-3.39-2.98c0.31-0.63,3.49,0.83,4.18-0.2c0.42-0.65-0.6-1.56-0.1-2.54
					c0.33-0.67,0.96-0.55,2.03-1.32c1.52-1.09,1.58-2.27,2.14-2.24c1.23,0.07,1.78,5.84,2.34,5.8c0.42-0.04,0.27-3.28,1.11-3.46
					c0.62-0.12,0.96,1.56,2.65,2.24c1.13,0.46,1.94,0.09,2.14,0.51c0.37,0.79-2.3,2.38-1.94,3.26c0.34,0.79,2.85,0.13,3.26,1.11
					C111.11,295.1,110.98,295.19,110.81,296.28z M117.79,288.69c0.08-0.13,0.6-0.96,1.49-1.08c1.32-0.18,2.85,1.25,2.98,2.85
					c0.15,1.86-1.63,3.56-2.85,3.39C117.9,293.63,116.73,290.45,117.79,288.69z M123.47,318.04c-1.33,0.6-2.72,0.26-4.83-0.25
					c-1.96-0.48-3.79-0.92-4.01-1.98c-0.38-1.69,3.35-4.28,4.47-3.56c0.98,0.62-0.16,3.65,0.46,3.86c0.35,0.11,1.12-0.69,1.27-1.63
					c0.22-1.31-0.94-1.92-0.82-2.85c0.23-1.65,4.37-3.36,5.9-2.08C127.65,311,126.53,316.68,123.47,318.04z M129.04,297.91
					c-1.77-1.23-2.2-3.17-2.31-3.66c-0.2-0.99,0.02-1.96,0.47-3.91c0.09-0.38,0.22-0.87,0.63-1.1c0.49-0.28,1.14-0.02,1.49,0.13
					c2.89,1.24,4.33,1.87,5.01,2.85c1.03,1.47,2.05,4.41,0.55,5.96C133.45,299.65,130.63,299.01,129.04,297.91z M135.68,310.38
					c-1.53,1.53-4.37,1.38-5.15,0.28c-0.18-0.26-0.21-0.67-0.27-1.49c-0.12-1.67-0.18-2.5,0.13-3.12c0.73-1.46,3.53-2.59,5.29-1.22
					C137.37,306.14,137.11,308.97,135.68,310.38z"/>
			</g>
		</g>
		<g>
			<g>
				<path class="st21" d="M82.38,297.1c0.39,0.85-1.22,2.41-2.39,3.15c-0.59,0.37-2.06,1.3-2.9,0.71c-0.81-0.56-0.75-2.32,0-3.36
					C78.4,295.8,81.92,296.06,82.38,297.1z"/>
			</g>
		</g>
		<g>
			<g>
				<path class="st21" d="M85.13,297.66c-1.17-0.21-3.03,2.39-2.39,3.51c0.29,0.51,1.06,0.61,1.53,0.56
					c1.18-0.14,2.08-1.45,1.88-2.64C86.06,298.58,85.73,297.76,85.13,297.66z"/>
			</g>
		</g>
		<g>
			<g>
				<path class="st21" d="M87.11,309.76c-0.77,0-1.31,2.27-1.47,2.95c-0.33,1.38-0.54,2.29-0.05,2.8c0.81,0.84,3.24,0.26,3.71-0.97
					c0.21-0.53-0.15-1.29-0.86-2.8C87.81,310.42,87.49,309.76,87.11,309.76z"/>
			</g>
		</g>
		<g>
			<g>
				<path class="st21" d="M98.5,317.33c-0.08,0.02,0.7,1.7,0.1,3.56c-0.31,0.96-0.77,1.3-1.93,2.75c-1.68,2.1-2.73,3.9-2.64,3.97
					c0.15,0.11,3.59-4.65,4.47-4.17c0.87,0.47-1.97,5.21,0,7.63c0.76,0.93,2.18,1.46,2.85,1.02c0.65-0.43,0.48-1.72-0.81-7.22
					C100.54,324.86,98.75,317.27,98.5,317.33z"/>
			</g>
		</g>
		<g>
			<g>
				<path class="st21" d="M110.91,328.62c-0.54-0.31-2.64,2.48-3.15,3.15c-0.99,1.3-2.36,3.12-2.03,3.46
					c0.37,0.38,3.11-1.06,4.47-3.56C110.87,330.44,111.27,328.83,110.91,328.62z"/>
			</g>
		</g>
		<g>
			<g>
				<path class="st21" d="M120.77,335.74c-0.5,0.16-0.28,2.35,0.1,3.86c0.62,2.42,2.09,4.76,2.64,4.58c0.49-0.17,0.22-2.33-0.1-3.66
					C122.81,338.02,121.34,335.56,120.77,335.74z"/>
			</g>
		</g>
		<g>
			<g>
				<path class="st21" d="M122.7,329.74c0.06-0.44,1.19-0.91,2.14-0.51c1.03,0.43,1.42,1.7,1.12,2.03
					C125.47,331.81,122.61,330.49,122.7,329.74z"/>
			</g>
		</g>
		<g>
			<g>
				<path class="st21" d="M140.09,318.35c-1.04,0.57-0.73,2.67-0.2,2.85c0.6,0.2,2.19-1.86,1.73-2.64
					C141.38,318.15,140.59,318.08,140.09,318.35z"/>
			</g>
		</g>
		<g>
			<g>
				<path class="st21" d="M143.86,315.91c-1.09,0.46-1.84,1.66-1.65,2.62c0.36,1.83,4.18,2.82,5.31,1.55
					c0.65-0.73,0.45-2.24-0.3-3.2C146.48,315.95,145.1,315.38,143.86,315.91z"/>
			</g>
		</g>
	</g>
	<g>
		<g>
			<g>
				<path d="M326.17,382.75c-2.73-1.22-5.43-2.59-8.02-4.08c-2.81-1.61-5.56-3.4-8.19-5.32l2.95-4.04c2.47,1.81,5.07,3.5,7.73,5.02
					c2.45,1.4,4.99,2.7,7.57,3.85L326.17,382.75z"/>
			</g>
		</g>
		<g>
			<g>
				<path d="M287.32,116.98c5.57-1.71,11.29-1.91,16.46-0.84c-5.13,1.26-9.64,3.77-13.11,6.99L287.32,116.98z"/>
			</g>
		</g>
		<g>
			<g>
				<path d="M261.94,109.44c0.1-1.54,0.95-2.94,2.27-3.9c1.32-0.95,3.14-1.36,4.78-1.06c1.66,0.27,3.13,1.16,4.14,2.34
					c1.01,1.19,1.59,2.69,1.44,4.23c-1.34-0.76-2.39-1.34-3.4-1.77c-1.01-0.42-1.94-0.7-2.85-0.85c-0.91-0.16-1.77-0.19-2.79-0.05
					C264.5,108.53,263.36,108.9,261.94,109.44z"/>
			</g>
		</g>
		<g>
			<g>
				<path d="M427.48,209.92c-0.62,0-1.1-0.16-1.44-0.33c-6.36-3.21,4.33-27.03,4.44-27.27c3.8-8.21,9.14-15.69,15.85-22.23l3.1-3.03
					l0.29,4.32c0.71,10.6-1.08,20.46-5.34,29.29c-3.82,7.93-10.97,17.46-15.53,19.01C428.34,209.85,427.88,209.92,427.48,209.92z
					 M445.87,166.32c-4.85,5.36-8.8,11.29-11.76,17.68c-4.21,9.09-6.5,18.88-6.11,21.72c2.44-1.25,8.61-8.15,12.77-16.79
					C444.1,182.04,445.8,174.45,445.87,166.32z"/>
			</g>
		</g>
		<g>
			<g>
				<path d="M438.92,332.56l-2.42-2.8c-5.09-5.88-8.41-12.43-9.87-19.47c-2.75-13.22,1.37-27.08,5.28-31.61
					c1.16-1.35,2.38-2.01,3.65-1.93c7.75,0.44,7.61,30.3,7.6,30.6c-0.12,7.26-1.2,14.55-3.22,21.66L438.92,332.56z M435.26,280.88
					c-2.51,1.93-7.53,15.11-4.73,28.58c1.08,5.17,3.27,10.06,6.54,14.58c1.29-5.54,1.98-11.17,2.08-16.78
					C439.35,294.92,437.03,283.04,435.26,280.88z M435.57,280.7L435.57,280.7z"/>
			</g>
		</g>
		<g>
			<g>
				<path d="M416.81,427.76l1.35-3.23c3.32-7.95,9.68-18.31,21.15-22.53c4.81-1.77,16.07-4.04,18.23,0.77
					c2.04,4.54-6.72,11.38-12.13,15.05c-7.35,4.99-15.8,8.18-25.14,9.47L416.81,427.76z M450.74,403.87
					c-2.56,0-6.31,0.51-10.05,1.88c-8.6,3.17-14.02,10.42-17.3,16.95c7.27-1.46,13.91-4.21,19.77-8.19
					c6.24-4.24,10.58-8.68,10.7-10.13C453.5,404.07,452.36,403.87,450.74,403.87z"/>
			</g>
		</g>
		<g>
			<g>
				<path d="M467.42,109.05l-3.74-0.63c-12.09-2.03-22.78-6.64-31.76-13.68c-12.25-9.61-21.92-24.6-22.38-31.58
					c-0.11-1.71,0.28-3.04,1.18-3.96c6.06-6.2,30.33,13.8,30.57,14.01c10.3,8.63,18.56,19.53,24.53,32.41L467.42,109.05z M413.58,62
					c-1.33,2.66,6.65,18.48,20.8,29.59c7.48,5.87,16.23,9.94,26.06,12.13c-5.55-10.79-12.84-20.01-21.72-27.45
					C427.67,67.01,415.7,61.07,413.58,62z"/>
			</g>
		</g>
		<g>
			<g>
				<path d="M82.39,115.41c-0.81,0-1.36-0.31-1.7-0.6c-1.66-1.45-0.44-3.59,0.54-5.32c1.08-1.89,2.94-4.84,6.04-9.74
					c2-3.17,4.51-7.13,7.61-12.09c4.82-7.71,9.62-15.48,14.27-23.12l4.02-6.6l-0.31,7.72c-0.38,9.41-2.67,18.15-6.8,25.99
					c-7.03,13.34-18.88,22.92-23,23.69C82.82,115.39,82.6,115.41,82.39,115.41z M107.88,74.3c-3.17,5.15-6.38,10.34-9.61,15.49
					c-3.1,4.96-5.61,8.93-7.62,12.1c-1.92,3.03-3.48,5.5-4.62,7.36c4.38-3.23,11.49-9.96,16.49-19.46
					C105.06,84.98,106.85,79.8,107.88,74.3z"/>
			</g>
		</g>
		<g>
			<g>
				<path d="M76.87,257.6c-5,0-9.83-14.48-10.8-18.23c-2.86-11.11-1.68-23.21,3.51-35.97l2.1-5.15l1.66,5.31
					c3.96,12.65,6.3,25.36,6.95,37.78c0.56,10.8,0.3,15.44-2.81,16.19C77.27,257.58,77.07,257.6,76.87,257.6z M71.24,210.6
					c-3.07,9.83-3.51,19.15-1.29,27.77c1.68,6.54,4.65,12.33,6.35,14.47c0.44-2.72,0.13-8.77,0-11.3
					C75.76,231.37,74.07,220.99,71.24,210.6z"/>
			</g>
		</g>
		<g>
			<g>
				<path d="M65.32,431.77c-0.8,0-1.39-0.24-1.78-0.48c-6.47-3.95,7.71-30.67,7.85-30.94c6.47-11.98,15.44-22.57,26.66-31.47
					l3.77-2.99l-0.54,4.78c-1.52,13.47-5.65,25.86-12.28,36.81c-6.26,10.34-17.07,22.81-22.59,24.15
					C66.01,431.73,65.65,431.77,65.32,431.77z M96.59,375.29c-8.97,7.84-16.25,16.89-21.69,26.96c-6.11,11.32-9.54,22.59-9.16,25.44
					c2.96-0.96,12.44-10.07,19.83-22.28C91.07,396.34,94.76,386.23,96.59,375.29z"/>
			</g>
		</g>
	</g>
	<g class="st3">
		<g class="st4">
			<path class="st1" d="M644.23,5.35v516.29H123.66V5.35H644.23 M648.23,1.35H119.66v524.29h528.57V1.35L648.23,1.35z"/>
		</g>
		<rect x="138.66" y="20.13" class="st22" width="491.27" height="487.59"/>
	</g>
</g>
<g id="Layer_27">
	<g>
		<g>
			<g>
				<path class="st1" d="M524.57,4v516.29H4V4H524.57 M528.57,0H0v524.29h528.57V0L528.57,0z"/>
			</g>
		</g>
		<g>
			<g>
				<path class="st2" d="M525.27,521.37H4V3.78h521.27V521.37z M34,491.37h461.27V33.78H34V491.37z"/>
			</g>
		</g>
	</g>
</g>
<g id="Layer_28">
</g>
<g id="Layer_29">
</g>
<g id="Layer_30">
</g>
<g id="Layer_31">
</g>
<g id="Layer_32">
</g>
<g id="Layer_33">
</g>
<g id="Layer_34">
</g>
<g id="Layer_35">
</g>
<g id="Layer_36">
</g>
<g id="Layer_37">
</g>
<g id="Layer_38">
</g>
<g id="Layer_39">
</g>
<g id="Layer_40">
</g>
<g id="Layer_41">
</g>
<g id="Layer_42">
</g>
</svg>
