<svg xmlns="http://www.w3.org/2000/svg" viewBox="0 0 528.571 522.691"><defs><style>.cls-1{fill:#616060;}.cls-2{fill:#8d8989;}</style></defs><title>icon</title><g id="Layer_27" data-name="Layer 27"><path d="M203.894,85.016c7.219-21.281,31.044-26.264,46.048-15.244.616-.76,1.235-1.535,1.865-2.3a36.679,36.679,0,0,1,60.642,5.716c.691,1.263,1.4,1.833,2.887,1.622,6-.849,11.328.922,16.118,4.44a2.147,2.147,0,0,0,2.54.238,27.53,27.53,0,0,1,39.054,21.6c.1.757.252,1.509.4,2.388,8.776-1.607,16.335.585,22.242,7.244,5.892,6.642,7.2,14.43,4.933,22.945,12.911,7.787,15.934,19.325,12.527,33.395,1.087.429,2.193.837,3.277,1.3,11.641,4.934,16.7,14.31,15.933,25.978-1,15.225-12.032,26.431-25.153,27.982-3.713.438-5.855,1.9-8.178,4.674-7.16,8.562-16.587,11.83-27.662,10.421a3.238,3.238,0,0,0-2.1.579,30.115,30.115,0,0,1-25.236,5.345,2.63,2.63,0,0,0-2.558.611,30.219,30.219,0,0,1-34.629,2.954,2.685,2.685,0,0,0-1.762-.449c-4.445,1.25-8.863,2.6-13.135,3.873.6,2.546,1.241,5.5,2.026,8.413a1.946,1.946,0,0,0,1.357,1.082,54.032,54.032,0,0,1,16.4,5.409,3.6,3.6,0,0,0,1.865.384c6.264-.673,12.322-.418,18.125,2.583,1.626.841,3.842.527,5.784.773,5.952.754,11.8,2.022,17.019,5.067a28.559,28.559,0,0,1,6.9,5.56c4.64,5.231,4.473,11.7-.078,17.055a31.943,31.943,0,0,1-14.642,9.922,84.787,84.787,0,0,1-14.782,3.23c-2.877.38-5.907-.463-8.874-.689-5.932-.451-11.866-.9-17.805-1.249a27.5,27.5,0,0,0-4.167.383,4.389,4.389,0,0,0,.179.817c2.868,5.983,2.573,12.259,1.756,18.591-.144,1.115-.015,2.279-.265,3.362-.583,2.529-1.364,5.012-1.963,7.538a2.77,2.77,0,0,0,.176,2.029c3.016,4.022,4.161,8.683,4.644,13.53.246,2.476.07,4.994.095,7.493a3.358,3.358,0,0,0,.113,1.05c1.1,3.164,2.222,6.319,3.313,9.4,2.014.212,4.539.063,6.748.829,2.143.743,3.96,2.425,6.033,3.768l8.265-15.044,8.277-15.067.7.258-5.477,22.442,8.539-10.363.35.089-3.249,12.324.482.373c1.256-1.02,2.539-2.009,3.76-3.068,1.062-.921,1.935-1.85,3.617-1.917,1.04-.041,2.157-1.166,3.028-2.019,8.95-8.774,17.845-17.6,26.778-26.393q13.717-13.5,27.478-26.958a1.177,1.177,0,0,1,.891-.339c-.208.379-.395.769-.626,1.133-11.594,18.267-25.191,35.066-38.228,52.278-3.417,4.512-6.523,9.259-9.739,13.921a5.741,5.741,0,0,0-.85,2.31c7.319-2.589,13.614-6.9,20.18-10.851-1.421,2.022-2.9,4.008-4.251,6.074-2.975,4.537-5.856,9.135-8.848,13.661a4.767,4.767,0,0,0-.7,4.166c.937,3.663.906,3.77,4.851,3.864a26.225,26.225,0,0,0,12.655-3.383c8.644-4.445,17.222-9.019,25.828-13.538a2.7,2.7,0,0,1,1.636-.406q-.767.612-1.531,1.224c-6.657,5.337-13.494,10.47-19.9,16.1-3.267,2.872-5.817,6.581-8.553,10.022a19.6,19.6,0,0,0-1.877,3.822c1.619.911,3.067,1.607,4.39,2.49,5.309,3.545,7.82,8.687,8.221,14.928a29.352,29.352,0,0,1-2.109,13.662,2.455,2.455,0,0,0,.556,2.1c3.4,3.606,7.821,5.581,12.314,7.408a5.95,5.95,0,0,1,1.7.9c-6.141-.689-12.24-1.261-18.7-.234.68,1.74,1.158,3.327,1.893,4.784,3.884,7.69,9.807,13.745,15.872,19.692,3.438,3.371,6.77,6.851,10.149,10.282l-.269.347a5.451,5.451,0,0,1-.809-.4c-9.537-6.869-19.022-13.809-28.617-20.6-5.5-3.892-11.744-6.32-18.133-8.327a9.411,9.411,0,0,0-3.723-.14c-.314.033-.862,1.12-.731,1.55a92.627,92.627,0,0,0,3.188,9.429c1.209,2.842,2.863,5.494,4.314,8.233.207.39.379.8.746,1.577-3.14-1.659-5.863-3.2-8.68-4.559-3.54-1.7-7.153-3.255-10.745-4.851a8.245,8.245,0,0,0-1.544-.447c-3.681-.821-4.735.137-3.773,3.814.872,3.333,2.092,6.576,3.162,9.857.122.375.264.743.516,1.446l-9.676-6.574-.637.5,2.191,10.329L326,478.742c-2.282,2.211-4.639,4.371-6.81,6.7a3.065,3.065,0,0,0-.126,2.392c2.113,7.634,4.245,15.264,6.482,22.862,2.49,8.455,5.1,16.875,7.642,25.312a1.911,1.911,0,0,1-.094,1.445c-.541-.889-1.122-1.755-1.616-2.67q-11.584-21.484-23.117-43c-.76-1.423-1.454-1.758-3.049-1.329-7.694,2.066-14.946,1.1-21.29-3.954a16.692,16.692,0,0,1-4.5-5.246,6.033,6.033,0,0,0-5.738-3.77c-4.58,16.387-6.6,33.375-9.042,50.361-.257-2.316-.435-4.643-.784-6.945-2.007-13.248-4-26.5-6.131-39.728a44.471,44.471,0,0,0-2.12-7.363c-.612-1.766-1.294-2.039-2.556-.728-2.212,2.3-4.114,4.9-6.133,7.382-.289.355-.5.773-.91,1.411-.15-2.253-.281-4.224-.413-6.195l-.69-.237c-1.6,1.722-3.3,3.367-4.78,5.187-1.443,1.773-2.666,3.725-4.139,5.562.172-3.944.9-7.875-.417-12.237-5.641,5.117-8.067,11.724-11.513,17.726.562-3.461,1.124-6.922,1.663-10.237-3.055,1.549-5.9,3.072-8.82,4.43a9.92,9.92,0,0,1-3.615.926,5.706,5.706,0,0,0-4.529,2.662c-7.368,9.683-14.817,19.3-22.241,28.944a3.9,3.9,0,0,1-1.186,1.1L199.57,486.16c-1.448-.39-2.646-.666-3.815-1.036a21.294,21.294,0,0,1-11.837-8.76,1.738,1.738,0,0,0-2.585-.778,109.051,109.051,0,0,0-20.181,11.094c-.439.306-.87.625-1.317.918-.075.049-.215,0-.378-.01,1.775-2.38,3.663-4.647,5.256-7.106,2.948-4.553,5.733-9.213,8.553-13.848a1.589,1.589,0,0,0,.212-1.281c-1.325-2.444-2.735-4.841-4.22-7.429-17.286,5.709-33.724,13.755-49.8,22.859.39-.344.759-.715,1.173-1.028,7.143-5.392,14.364-10.684,21.39-16.225,1.9-1.495,3.19-3.75,4.789-5.632a24.041,24.041,0,0,1,2.3-2.462c2.941-2.615,5.966-5.135,8.881-7.778a9.241,9.241,0,0,0,3.157-5.8L129.058,445.1l-.121-.272c.489-.255.968-.53,1.468-.76,7.477-3.433,14.947-6.884,22.448-10.264,1.177-.531,1.464-1.022,1.251-2.4-.921-5.976-.963-11.9,2.387-17.311a16.208,16.208,0,0,1,6.685-6.045c.985-.491,1.144-.985.948-2.077-1.69-9.419-6.652-16.99-13.166-23.715a4.559,4.559,0,0,1-1.095-1.567c2.782,1.773,5.518,3.622,8.354,5.3,5.207,3.084,10.784,5.1,16.913,5.081,6.265-.02,7.788-2.438,4.416-7.622-6.111-9.395-12.356-18.715-18.908-27.805-5.892-8.174-12.269-16-18.43-23.976-.139-.18-.251-.381-.091-.916.961.769,1.953,1.5,2.877,2.312q18.717,16.4,37.414,32.818a42.7,42.7,0,0,0,12.984,7.763c3.21,1.235,3.829.694,3.344-2.77-.17-1.215-.537-2.4-.861-3.8l7.633,4.366.529-.283a41.788,41.788,0,0,0-.73-4.208,210.451,210.451,0,0,0-12.238-32.6,3.267,3.267,0,0,1-.356-1.923c1.831,2.252,3.649,4.515,5.5,6.753,5.695,6.9,11.248,13.932,17.17,20.635,2.939,3.327,6.535,6.081,9.9,9.017a17.674,17.674,0,0,0,3.028,1.681c.568-3.7-.912-6.743-1.088-10.064l7.032,9.112,2.017-2.4,1.536,2.1c1.281-1.6,2.434-2.909,2.538-5.135.3-6.307,2.574-12.088,5.58-17.567a3.9,3.9,0,0,0,.2-4.084c-2.318-4.74-3.026-9.9-3.281-15.1-.193-3.91-.038-7.837-.038-11.931-.326-.015-.833-.05-1.34-.062-5.534-.138-11.087-.03-16.6-.477a27.515,27.515,0,0,1-14.33-5.049,4.386,4.386,0,0,0-2.321-.619c-4.45-.173-8.8-.772-12.789-2.905a14.341,14.341,0,0,1-6.37-6.564,3.658,3.658,0,0,0-1.5-1.606c-8.142-4.134-7.977-16.009-1.5-20.886a25.868,25.868,0,0,1,9.892-4.387,6.24,6.24,0,0,0,2.12-.86c6.089-4.252,12.989-6.217,20.245-6.938,4.023-.4,8.1-.258,12.15-.371a4.849,4.849,0,0,0,1.76-.166A46.493,46.493,0,0,1,248.98,261c.343-3.556.683-7.085,1.047-10.859-1.089-.338-2.324-.719-3.558-1.1a24.03,24.03,0,0,1-9.706-5.151,1.8,1.8,0,0,0-1.558-.124,42.216,42.216,0,0,1-26.977,1.834,28.961,28.961,0,0,1-11.28-5.978,2.226,2.226,0,0,0-1.8-.464c-9.484,3.639-18.857,2.7-28.127-.7-7.3-2.68-13.128-7.242-16.871-14.183-.6-1.11-1.247-.935-2.19-.69a26.18,26.18,0,0,1-31.5-16.393,25.492,25.492,0,0,1,3.09-24.04,2.862,2.862,0,0,0,.091-3.739,22.441,22.441,0,0,1,10.375-32.524,2.438,2.438,0,0,0,1.812-2.717,29.714,29.714,0,0,1,29.753-30.224c1.4-.012,1.8-.383,1.874-1.787.779-14.89,11.046-26.284,25.823-28.563a28.234,28.234,0,0,1,13.6,1.208A8.7,8.7,0,0,0,203.894,85.016ZM363.956,203.5a19.69,19.69,0,0,1-8.262,8.423c8.519,2.719,19.145,1.028,24.414-5.807H367.135l-.085-.323,3.464-1.322-.04-.284-6.545-.662a5.988,5.988,0,0,1,1.361-.76c9.016-2.281,15.424-7.737,19.561-15.982.278-.554.575-1.1.862-1.647.328,4.441-1.437,8.143-3.734,11.668,7.285-6.725,10.487-14.882,8.706-24.858a22.509,22.509,0,0,1,4.713,13.579c2.712-12.155-1.382-21.64-11.424-28.846,3.532.494,6.352,2.293,9.132,4.4,1.5-4.548,1.84-8.774-.87-12.847a2.57,2.57,0,0,1,.992.534c4.118,3.73,5.494,8.387,3.915,13.621-.7,2.326.043,3.7,1.563,5.3,4.235-2.829,5-7.285,5.681-11.811,1.548,5.464.976,10.51-2.756,14.912a2.808,2.808,0,0,0-.734,3.015,25.263,25.263,0,0,1,.533,10.985,40.462,40.462,0,0,1-5.5,15.546c5.053-.844,8.89-3.624,12.769-6.383-1.912,6.214-6.144,10.087-12.2,12.15l.141.532,11.053-1.2a13.262,13.262,0,0,1-7.945,5.65c-3.03.874-4.6,2.7-6.266,5.095-3.726,5.355-9.316,7.828-15.889,9.27l5.238-6.628c-8.259,6.422-19.363,6.61-24.12,5.425,1.73-.525,3.257-.9,4.712-1.455a34.528,34.528,0,0,0,4.372-2.029c1.342-.744,2.578-1.677,3.861-2.527a1.364,1.364,0,0,0-1.013.006c-.342.1-.683.212-1.03.3-6.574,1.61-13,1.507-18.659-2.634-2.175-1.591-4.021-2.285-6.738-1.64-4.289,1.019-8.64.474-13.334-.905,3.751,5.346,9.245,6.115,14.607,7.535a26.469,26.469,0,0,1-6.654,2.149,50.689,50.689,0,0,1-6.976.071c5.1,4.506,11.257,5.016,17.981,3.791a16.457,16.457,0,0,1-5.058,3.166c-9.384,3.09-17.744.908-25.158-5.36-1.955-1.653-3.744-3.5-5.822-5.464,2.027,5.27,5.877,8.432,10.431,10.991-5.637-.019-10.416-2.305-15.162-4.785,3.332,7.857,10.5,8.677,17.769,9.645a18.8,18.8,0,0,1-5.07,2.14c-5.079,1.094-9.626-.718-14.073-2.9a4.161,4.161,0,0,0-1.807-.617c-4.3.176-8.162-.748-11.418-4.449.679,3.548,2.958,5.527,5.126,7.824a9.549,9.549,0,0,1-7.685-.769c0,2.243.011,4.2,0,6.167-.008,1.022.438,1.293,1.451,1.207a20.737,20.737,0,0,0,9.509-2.838,4.518,4.518,0,0,1,5.888.208,21.947,21.947,0,0,0,14,4.09,23.94,23.94,0,0,0,16.77-7.381,2.991,2.991,0,0,1,3.469-.827c9.018,2.8,17.2,1.2,24.368-5.022a3.139,3.139,0,0,1,3.088-.695,24.153,24.153,0,0,0,15.235-1.342,23.8,23.8,0,0,0,11.533-10.314c1.068-1.915,2.3-2.959,4.641-2.639a15.233,15.233,0,0,0,4.267-.294c8.144-1.241,13.871-5.792,17.909-13.255-6.276,5.463-11.955,8.242-15,7.452,10.038-6.992,14.409-13.14,14.258-20.055-2.608,4.3-7.259,8.4-9.95,8.651a26.178,26.178,0,0,0,6.239-14.061c.737-6.339-3.244-14.174-11.174-14.121a20.2,20.2,0,0,1-2.7-.353c7.4-20.949.2-32.9-21.764-35.938a11.725,11.725,0,0,1,3.714-.925c2.051.03,2.493-1.191,2.7-2.791a22,22,0,0,0-1.628-11.025c-.171-.439-.289-.9-.432-1.349,5.194,3.731,5.263,9.355,5.639,15.237a9.789,9.789,0,0,0,.665-1.079c2.992-7.588,1.015-20.2-11.733-23.624a32.622,32.622,0,0,0-13.121-.816c-1.329.187-2.018-.07-2-1.594a33.167,33.167,0,0,0-.339-3.915c-.7-6.617-2.5-12.8-8.483-16.572a24.81,24.81,0,0,0-15.7-3.951,12.519,12.519,0,0,0-7,2.609,18.922,18.922,0,0,1,1.508,10.509,6.349,6.349,0,0,1-.762-1.749c-1.066-3.364-2.641-6.55-5.432-8.684A21.574,21.574,0,0,0,314.062,80.8c-3.99.717-4.045.718-5.756-3.02-6.373-13.923-22.77-20.273-35.927-17.216-13.545,3.147-21.859,11.975-26.159,24.921-.371,1.119-.707,2.25-1.06,3.376a24.479,24.479,0,0,1,2.231-15.041c-14.785-9.756-35.427.144-37.881,14.367A22.564,22.564,0,0,1,221.091,77.3a4.486,4.486,0,0,1-1.107,1.275c-3.159,2.908-5.9,6.123-6.891,10.428a3.717,3.717,0,0,0,.442,2.779,21.875,21.875,0,0,1,4.309,10.83c.19,1.388.177,2.8.256,4.208l-.5.041c-.194-.667-.4-1.33-.579-2a21.537,21.537,0,0,0-5.613-9.612c-2.563-2.63-6.046-3.228-9.224-4.493a21.85,21.85,0,0,0-15.9-.314c-7.357,2.633-13.108,7.046-15.776,14.705-1.646,4.725-1.617,9.609-1.108,14.507.209,2.01.557,4.006.842,6.008l-.61.276a40.531,40.531,0,0,1-3-4.5,2.359,2.359,0,0,0-2.111-1.517,22.99,22.99,0,0,0-16.468,4.066c-7.891,5.694-11.238,13.5-10.164,23.171.348,3.131.419,3.195-2.635,4.04a18.357,18.357,0,0,0-8.605,4.878,12.154,12.154,0,0,0-3.417,6.2c4.024-6.825,10.436-9.12,17.533-9.511-.121-3.662-.5-7.11-.273-10.518a17.2,17.2,0,0,1,3.625-9.543c-2.237,8.67-2.589,17.155,1.842,24.911-3-.266-6.05-.858-9.067-.718a10.759,10.759,0,0,0-7.9,4.43c-3.592,4.528-4.132,9.656-2.917,15.462,3.395-3.353,7.392-4.3,11.662-4.487,2.47-.11,4.945-.181,7.405-.4a2.157,2.157,0,0,0,1.554-1.02,23.1,23.1,0,0,1,11.46-12.039,3.131,3.131,0,0,0,1.454-1.971c1.71-10.228,8.015-16.3,17.478-19.574a6.137,6.137,0,0,1,1.275-.161c-12.837,7.207-17.627,17.326-12.148,31.592a27.01,27.01,0,0,1-4.385-4.018c-.967-1.218-1.734-1.408-2.952-.6-.594.393-1.3.619-1.89,1.013a19.462,19.462,0,0,0-6.369,5.953c5.669-3.033,5.905-3.121,8.335-3.043a18.679,18.679,0,0,0-7.828,11.318,26.953,26.953,0,0,0,.529,13.916l-.842.669a9.9,9.9,0,0,0-.979-1.9,18.775,18.775,0,0,1-4.371-11.313c-.077-1.746-.85-2.315-2.238-2.145a31.4,31.4,0,0,0-6.434,1.272,52.416,52.416,0,0,0-6.131,3l-.522-.342,3.379-6.456c-4.031,3.449-6.031,8.227-6.233,13.808-.211,5.853,2.938,10.114,6.977,13.94a16.023,16.023,0,0,1-11.176-7.879c.5,9.633,6.577,14,15.248,15.99-5.848,1.082-10.792-.62-15.187-4.3,4.357,7.252,10.495,11.474,19.114,10.883,3.028-.207,6.015-1.316,8.967-2.193,1.185-.352,1.75-.172,2.171.952.46,1.226,1.086,2.39,1.541,3.617a20.242,20.242,0,0,0,9.909,11.078c6.3,3.349,13.121,4.157,20.116,3.923,2.046-.069,4.081-.444,6.21-.69-2.161-5.086-2.163-4.966-7.111-5.063-9.736-.19-17.627-3.765-22.4-12.741a8.282,8.282,0,0,1-.387-1.339c1.534,1.137,2.734,2.112,4.021,2.956a30.606,30.606,0,0,0,4.028,2.31,44.633,44.633,0,0,0,4.316,1.475l-5.566-6.182.389-.4c.385.229.777.445,1.153.688,9.029,5.827,18.626,7.665,29.009,4.2,4.718-1.574,8.513-4.241,10.807-8.772a5.315,5.315,0,0,0,.289-1.043,3.847,3.847,0,0,0-1.638.814,46.345,46.345,0,0,1-6.371,3.9,32.714,32.714,0,0,1-15.968,2.255,16.206,16.206,0,0,1-10.93-5.5,3.207,3.207,0,0,0-2.3-.824,22.51,22.51,0,0,1-13.087-3.539,39.313,39.313,0,0,1-11.242-10.631c-.253-.343-.429-.742-.857-1.5a8.716,8.716,0,0,1,1,.565,41.4,41.4,0,0,0,24.477,9.792c2.9.216,6.959-.8,8.865-2.215-12.245,2.806-20.953-2.928-23.628-8.063,3.267,3.169,7.022,3.905,11.1,3.745a17.028,17.028,0,0,1-7.9-6.7c-1.988-3.226-3.09-7.917-2.312-10.3,1.415,4.908,3.8,8.93,8.113,11.524a21.35,21.35,0,0,0,13.808,2.693,14.8,14.8,0,0,1-.208-8.956,79.2,79.2,0,0,0,4.28,8c1.8,2.644,4.6,4.19,7.879,5.379-7.793-7.833-6.961-18.465-4.683-22.88.921,3.48,1.707,7.261,2.936,10.891,1.494,4.414,4.632,8.3,6.816,9.094-.393-1.413-.782-2.815-1.162-4.181l7.163,5.823.294-.385c-.532-3.2-1.063-6.407-1.652-9.959.588.34.734.373.775.457.206.427.379.869.575,1.3,2.484,5.482,6.258,9.58,12.266,11.143a26.545,26.545,0,0,0,10.832.221,24.506,24.506,0,0,0,8.945-3.1,28.879,28.879,0,0,1-3.162-12.74c2.136,4.79,5.822,7.888,10.727,10.409-4.325-5.787-6.309-11.679-4.023-18.436a5.407,5.407,0,0,1,.684,1.774c1.731,7.245,6.016,12.134,13.145,14.543,6.078,2.054,12.221,1.713,18.386.741,2.955-.467,5.872-1.18,8.805-1.781-6.055,7.22-14.237,6.475-22.728,5.971,5.106,2.283,9.992,2.353,14.962,1.579,2.51-.39,5.033-1.143,7.531-1.072,5.974.17,10.921-1.688,14.03-6.863,5.4-8.994,5.368-18.178.155-27.312-.288-.5-.6-1-1.015-1.695,6.249-1.669,11.857-3.981,14.189-10.623-.464,6.256-3.108,11.036-9.114,13.592.533,1.1.965,1.986,1.429,2.943,4.062-1.38,6.59-4.354,9.2-7.842a10.252,10.252,0,0,1-.007,1.354,12.841,12.841,0,0,1-6.28,8.919c-.792.475-1.426.826-1.239,2.168.589,4.233.936,8.5,1.226,12.77a14.3,14.3,0,0,1-2.1,8.215c-1.184,2.029-2.654,3.892-4.051,5.907a19.755,19.755,0,0,0,15.385-1.827,19.941,19.941,0,0,1-13.576,7.74,23.186,23.186,0,0,0,16.919-2.684c4.9-2.883,9.438-6.125,12.152-11.962,1.01,4.556-.435,7.906-2.8,11.277,3.531-1,5.916-3.14,8.08-5.625l.545.362c-.25,1.662-.5,3.323-.754,5,5.435,2.059,14.307.346,16.8-3.266l-6.821.5-.129-.519a24.749,24.749,0,0,0,14.185-12.139c1.34,8.764-1.674,15.421-9.782,19.978,1.571-.151,2.7-.213,3.818-.374,4.615-.663,8.97-1.958,12.489-5.247A2.856,2.856,0,0,1,363.956,203.5ZM199.692,389.982l.142.684c.685-.117,1.706.015,2-.388,3.733-5.058,9.089-7.125,14.939-8.32a8.883,8.883,0,0,1,1.75-.015c-3.729,2.173-7.386,4.161-9.717,8.325,7.383-3.555,8.84-4.007,10.7-3.342-5.005,3.928-9.844,7.945-9.818,15.488-3.827-6.487-9.279-9.566-16.541-9.4-7.121.166-12.944,2.608-16.536,9.142,2.835-3.28,6.585-4.272,10.664-4.476a23.5,23.5,0,0,0-2.649,3.588c-2.248,4.679.3,13.226,4.639,16.091a14.988,14.988,0,0,0,10.24,2.359c2.983-.331,4.157-1.372,4.15-3.89a11.586,11.586,0,0,0-2.768-7.927q-.552-.627-1.1-1.258c3.646,1.652,5.516,4.777,7.123,8.331a2.321,2.321,0,0,0,.669-1.584c-1.045-7.394-4.666-12.907-11.731-15.863-.384-.161-.749-.367-1.124-.553a10.275,10.275,0,0,1,7.408,1.243c5.367,3.17,7.614,8.433,9.181,14.453a15.6,15.6,0,0,1,10.625-5.984,13.841,13.841,0,0,1,11.582,4.033,11.139,11.139,0,0,0-5.862-7.827,15.188,15.188,0,0,1,1.7-.315c5.5-.194,9.6,2.451,11.939,7.955.7,1.659,1.569,2.017,3.222,1.338a12.608,12.608,0,0,0-4.841-10.086,5.327,5.327,0,0,1,1.754.778,16,16,0,0,1,6.4,8.381,2.117,2.117,0,0,0,2.783,1.618c-1.581-6.074-5.693-11.174-11.022-12.813-9.711-2.987-18.79-2.426-26.057,5.921-.053-.228-.127-.356-.1-.448a6.874,6.874,0,0,1,.405-.984,17.181,17.181,0,0,1,11.583-9.1c1.77-.421,2.546-1.227,2.674-2.927.109-1.44.286-2.874.433-4.311a18.441,18.441,0,0,1,1.563,3.786c.337.881-.359,2.657,1.186,2.493,1.622-.172.988-1.9.941-2.948-.095-2.094-.436-4.177-.675-6.264a2.665,2.665,0,0,1,1.236,1.238c1.006,2.346,1.94,4.723,2.931,7.076a10.112,10.112,0,0,0,.8,1.323l.67-.259-.783-7.516a18.582,18.582,0,0,1,3.706,6.908c.183.589.442,1.372.9,1.617,1.874,1,3.841,1.815,5.856,2.737a10.071,10.071,0,0,0-.036-7.174l.581-.245c1.128,2.058,2.257,4.115,3.414,6.225a11.165,11.165,0,0,1,6.661-3.35c-2.3,1.884-4.548,3.724-5.007,6.9a8.808,8.808,0,0,0,2.152,7.668c2.5-1.562,4.892-2.981,7.188-4.539a3.366,3.366,0,0,0,.994-1.795c.8-2.719,1.472-5.474,2.293-8.185.183-.6.776-1.077,1.48-2.008,0,1.238.024,1.929,0,2.618a14.978,14.978,0,0,0,1.892,7.538c.645,1.263,1.4,1.861,2.793,1.126a15.309,15.309,0,0,1,1.508-.6,12.7,12.7,0,0,1-1.721-7.975c1.67,1.82,3.336,3.719,5.1,5.526a5.994,5.994,0,0,0,4.291,1.816,19.025,19.025,0,0,1,9.173,2.694,3.313,3.313,0,0,0,2.037.321,26.186,26.186,0,0,1,11.14.963,2.248,2.248,0,0,0,1.755-.313,7.369,7.369,0,0,0,2.811-8.253,45.545,45.545,0,0,0-2.234-5.367,13.341,13.341,0,0,1,6.788,8.29l.577-.2v-6.629l.39-.278,3.959,5.213a43.768,43.768,0,0,1,6.077-.93c2.432-.05,3.789-.873,4.148-3.388a9.054,9.054,0,0,1,1.294-3.12c.688-1.175.326-2.115-.7-2.5a10.568,10.568,0,0,0-4.416-.9,37.584,37.584,0,0,0-5.95,1.452c-.054-.068-.123-.115-.121-.159.016-.355.054-.708.071-1.062.2-3.973-1.381-7-5.008-8.7-2.234-1.041-4.819-1.713-7.065-.5-2.547,1.371-3.681,4.046-4.677,6.871,2.635.389,4.858,1.105,6.179,3.255-5.654-.834-9.988,1.186-13.848,5.71.3-1.752.535-3.1.819-4.739-3.1,1.2-5.033,3.515-7.274,5.445.832-3.795,3.206-6.469,6.381-8.76a9.675,9.675,0,0,0-9.642,3.039l-.455-.453c1.466-3.074,2.931-6.148,4.464-9.362l-3.267-1.473c4.094-.619,7.583-2.01,9.488-5.894,1.835-3.743,1.243-7.463-.7-11.3,8.345.361,9.8,6.541,11.57,12.451.53-5.071-1.036-9.206-5.213-12.174a16.744,16.744,0,0,0-8.236-3.148c-5.722-.543-10.969.348-14.984,4.916-2.137,2.432-3.326,5.2-2.636,8.544.577,2.8,1.281,5.5,4.449,7.233-6,.948-9.833,4.363-12.46,9.374l-.628-.45c1.029-2.335,2.059-4.67,3.128-7.094-5.436-2.151-10.776-2.2-16.034.8,2.286,4.256,1.367,8.766-2.186,10.916-.109-.542-.2-1.055-.318-1.562-.633-2.759-2.563-4.51-5.379-4.042-2.249.373-3.392-.573-4.842-1.91-6.588-6.075-14.372-7.284-22.839-5.166C209.352,380.969,203.607,384.1,199.692,389.982Zm105.9,80.338-.225.169c-.457-.6-.931-1.185-1.368-1.8-2.143-3.012-4.314-6.006-6.393-9.062-.815-1.2-1.512-1.366-2.9-.736-7.02,3.187-14.2,3.862-21.489.84-2.4-1-2.528-.96-3.788,1.408a10.57,10.57,0,0,0-1.061,2.453c-.758,3.241-1.514,6.487-2.089,9.764-.367,2.092-.413,4.241-.6,6.365a1.807,1.807,0,0,1-.6-1.2c-.275-2.966-.463-5.943-.814-8.9-.3-2.54-.705-5.075-1.218-7.581-.307-1.5-1.03-1.639-2.037-.476a25.658,25.658,0,0,0-1.694,2.471c-2.237-3.442-4.529-3.594-6.883-.53-.615.8-1.143,1.67-1.7,2.515-.366.552-.715,1.116-1.071,1.674-.348-1.156-.151-2.206-.4-3.133-.26-.953-.773-2.207-1.525-2.539-.6-.265-1.981.434-2.561,1.1a26.677,26.677,0,0,0-2.7,4.188c-.539.929-.948,1.934-1.491,3.064-.244-2.223-.376-4.18-.711-6.1-.122-.7-.656-1.816-1.128-1.886a25.625,25.625,0,0,0-6.793-.428c-2.921.362-5.807,2-8.636,1.836-3.284-.188-5.109,1.318-6.922,3.387-1.255,1.433-2.378,2.982-3.564,4.477-.3.372-.608.732-.913,1.1a66.3,66.3,0,0,1,1.963-6.523c.816-2.468,1.137-4.8-1.925-6.062-.315-.13-.521-.522-.835-.658a1.557,1.557,0,0,0-1.095-.156c-2.875,1.4-6.059,2.238-8.4,4.6-.408.411-.791.847-1.507,1.618.86-.108,1.147-.16,1.435-.177,5.4-.309,8.664,1.5,6.134,7.7-.113.276-.2.561-.319.836q-4.113,9.9-8.237,19.8c-.965,2.3-2,4.578-3.06,6.987,3.678-4.969,7.173-9.865,10.852-14.619,4.607-5.954,9.488-11.676,15.548-16.246,1.1-.827,2.323-1.484,3.609-2.3a4.981,4.981,0,0,1,.336,1.069c-.013.638-.082,1.274-.129,1.914,2.206-.5,2.783-.061,2.755,2.228-.015,1.128-.17,2.255-.248,3.207a57.792,57.792,0,0,1,4.594-4.334c2.32-1.78,4.129-1.084,4.938,1.763.365,1.283.484,2.636.759,4.211.811-1.033,1.432-1.891,2.124-2.687a17.831,17.831,0,0,1,2.357-2.437,5.3,5.3,0,0,1,2.632-1.293c.627-.039,1.313.887,1.813,1.263A42.979,42.979,0,0,1,252.883,469a3.59,3.59,0,0,1,5.275,1.315,14.189,14.189,0,0,1,1.969,4.74c1.424,7.967,2.677,15.965,3.966,23.956.251,1.558.39,3.134.565,4.57,1.782-7.928,3.352-15.94,5.446-23.813a72.62,72.62,0,0,1,4.868-12.432c1.291-2.708,2.6-2.8,5.125-1.272.123-.113.262-.222.379-.35,4.964-5.5,10.218-5.823,15.339-.46a44.157,44.157,0,0,1,6.846,9.326c7.15,13.193,14.032,26.532,21.013,39.816a3.3,3.3,0,0,1-.513-1.189c-2.612-9.469-5.29-18.922-7.8-28.418a23.892,23.892,0,0,1,.168-13.767c.921-2.8,2.558-3.4,4.858-1.562,3.111,2.487,5.969,5.29,8.917,7.977.609.555,1.14,1.2,1.929,2.033-.267-4.365.937-5.242,4.746-3.89.989.351,1.952.777,2.821,1.126-.577-2.2-1.293-4.339-1.68-6.537-.517-2.926,1.018-4.859,3.906-4.551a28.692,28.692,0,0,1,7.718,1.975c3.5,1.431,6.818,3.306,9.665,4.719-1.47-3.776-3.12-8.026-4.781-12.271-.127-.325-.253-.744-.513-.909-2.17-1.374-4.372-2.7-6.564-4.04l-.4.446,3.392,6.7c-2.321-.687-4.385-1.411-6.5-1.9-3.881-.895-5.224-.228-6.971,3.239-1.539-.841-3.039-2.3-4.985-.664,1.087,2.6,2.153,5.143,3.22,7.69l-.324.256-8.73-7.41-.364.366,3.676,8.566a.951.951,0,0,1-.886-.307c-3.794-4.923-8.1-9.125-14.1-11.414-2.955-1.127-3.987-.765-4.01,2.412-.013,1.851,0,3.7,0,5.828a57.737,57.737,0,0,0-8.29-12.124l-.628.3Zm-19.2-222.939c-.469-11.97.929-23.629,7.562-34.107l-2.036-1.44c-4.772,8.1-7.773,16.832-11.563,25.2.808-8.8,2.241-17.494,2.221-26.333-4.894,8.681-6.046,18.428-8.012,27.934l-.684-.116q.947-14.328,1.894-28.655l-.532-.09c-4.423,8.4-5.345,17.75-6.956,26.952a3.652,3.652,0,0,1-.4-1.5c-.492-6.3-.916-12.6-1.5-18.888-.151-1.618-.095-3.445-1.748-4.911-1.654,2.508-1.415,5.353-2.273,8.35-1.657-3.954-3.029-7.633-6.217-10.255,1.7,8.948,3.372,17.773,5.046,26.6l-.588.159a63.632,63.632,0,0,0-10.568-22,7.69,7.69,0,0,0,.432,2.44c3.22,8.276,4.758,16.942,6.034,25.673.423,2.9.688,5.634-.933,8.439-1.61,2.787-1.794,6.042-1.379,9.73,1.361-3.989,3.108-7.2,6.459-9.92a15.794,15.794,0,0,0-.342,1.64c-.177,2.479-.409,4.959-.46,7.442-.024,1.193.544,1.9,1.983,2.227,3.557.8,6.983,1.085,10.465-.353a24.215,24.215,0,0,1,4.187-.9c1.071-.229,2.136-.491,3.642-.839l-3.321-6.327c3.078,1.014,5.806,2.355,7.789,4.713,1.321,1.572,2.662,1.347,4.313.923-.951-6.542-4.973-10.15-11.131-11.832l.28-.7Zm-36.744,174.65c-1.453-4.078-4.128-5.62-8.517-4.9-.47.077-.938.175-1.4.295-8.094,2.107-14.548,6.182-17.435,14.539a2.864,2.864,0,0,1-.367.577c-1.024-4.874-1.567-9.679.8-14.775a43.828,43.828,0,0,0-6.62-.611,14.681,14.681,0,0,0-10.42,5.477l-.36-.38,3.143-4.6-.233-.389-6.532,3.856.057-.737c-1.5,1.059-2.943,2.2-4.507,3.157s-3.284,1.689-4.881,2.612a2.037,2.037,0,0,0-.958,1.276,9.99,9.99,0,0,0,7.934,10.584c1.594.291,3.237.305,5.035.461l-1.49,1.408c1.782,1.478,3.624,2.442,5.928,2.111,1.133-.163,1.9-.62,1.665-2a7.378,7.378,0,0,1,2.584-6.936c.2.874.354,1.678.573,2.464,1.532,5.5,4.78,9.245,10.626,10.321,1.387.255,2.2-.044,2.073-1.684a14.035,14.035,0,0,1,.2-2.326,16.034,16.034,0,0,1,2.432,3.269c1.032,1.64,5.869,3.537,7.622,2.957,4.448-1.472,7.1-4.526,7.6-9.2a60.774,60.774,0,0,0,.04-6.5c1.718,1.1,2.643,2.628,5.269,8.44a28.725,28.725,0,0,0,.889-6.059c-.032-7.459-2.957-10.824-10.406-12.044a5.4,5.4,0,0,0-3.212.478,53.734,53.734,0,0,0-5,3.4c-.333.232-.659.476-1.239.895C232.765,421.1,239.355,418.434,249.646,422.031Zm2.177-100.549.61.306a19.863,19.863,0,0,0,3.594,9.738,15.494,15.494,0,0,0,8.717,5.726c-2.09-2.534-3.664-6.057-2.692-8.192,3.733,6.395,9.212,9.684,16.634,8.675,7.622-1.035,11.229-6.632,13.829-13.739a40.178,40.178,0,0,1,1.171,4.047,38.417,38.417,0,0,1,.258,4.123c1.032-1.016,1.849-1.686,2.5-2.488,3.78-4.632,4.044-14.67.521-19.555a1.714,1.714,0,0,0-1.1-.739c-2.748,0-4.866-1.364-6.823-3.114l-3.654,9.019-.7.017-3.765-6.841-5.092,7.394-3.778-6.56a18.416,18.416,0,0,1-7.787,6.591v-7.284l-8.262,4.422-.405-.311c.269-1.312.458-2.648.832-3.93s.934-2.511,1.409-3.765c-8.207,2.4-12.423,11.244-10.75,21.191Zm51.411-45.216c1.711-.565,3.031-1.086,4.4-1.415a4.142,4.142,0,0,1,1.986.17,21.907,21.907,0,0,0,2.743,1c5.959.809,11.949,1.407,17.894,2.305,6.487.981,12.961,2.15,18.655,5.745,1.447.913,2.858,1.525,4.746.015.268,1.316.906,2.491.592,3.3a37.282,37.282,0,0,1-2.977,5.48,10.094,10.094,0,0,1-1.42,1.573c-2.155,2.287-4.276,4.609-6.492,6.835a18.352,18.352,0,0,1-2.611,1.858,36.828,36.828,0,0,0,16.366-9.861c3.227-3.285,3.182-6.123.188-9.641a31.342,31.342,0,0,0-10.517-7.589c-.07-.034-.193.039-.294.063l.4.869c-2.216,0-4.346.064-6.47-.015-3.646-.135-7.348-.174-10.044-3.27-.106-.122-.314-.154-.474-.229a28.688,28.688,0,0,0-14.561-2.919,10.031,10.031,0,0,1-5.326-1.058c-4.663-2.25-9.508-3.841-14.787-3.531a91.281,91.281,0,0,0-20.046,3.417,31.057,31.057,0,0,1-6.547,1.625,39.71,39.71,0,0,1-7.466-.677,48.284,48.284,0,0,0-20.023,1.183q-7.365,2.135-14.836,3.893a50.957,50.957,0,0,1-6.514.694c.134,1.857,1.307,2.287,2.673,2.524a40.6,40.6,0,0,0,23.124-2.645,5.3,5.3,0,0,1,2.545-.248c2.779.315,5.535.885,8.32,1.106a34.708,34.708,0,0,0,17.727-3.36,13.536,13.536,0,0,1,8.89-.961c2.5.542,4.993,1.176,7.519,1.576a4.845,4.845,0,0,0,3.024-.418,33.545,33.545,0,0,0,3.991-3.253c.531,1.927-.332,3.465-1.415,5.117,1.58-.186,3.306-.214,4.441-1.046,1.059-.778,1.49-2.411,2.22-3.705C304.336,272.2,304.675,273.973,303.234,276.266ZM280.379,435.22a16.444,16.444,0,0,0,9.2-2.216c3.645-2.273,4.919-5.228,3.952-8.648a10.511,10.511,0,0,0-5.06-6.446c-.474-.271-.961-.518-1.442-.776,6.24-2.074,11.291.351,16.256,4.086a11.437,11.437,0,0,0-.118-1.226c-1.506-6.324-9.28-10.5-15.273-7.84-5.823,2.586-9.909,6.934-11.26,13.427a9.328,9.328,0,0,1-.446,1.247,14.312,14.312,0,0,1,1.746-9.067c1.452-2.7,3.538-5.059,5.6-7.919l-9.041,5.953c1.676-4.859,5.623-7.3,9.928-9.487a17.434,17.434,0,0,0-16.49,2.787,30.041,30.041,0,0,0-7.363,9.132,1.846,1.846,0,0,0-.029,1.578c2.347,3.576,4.789,7.09,7.174,10.642,2.686,4,6.6,5.017,10.885,2.8.456-.236.917-.463,1.524-.77C280.212,433.44,280.283,434.2,280.379,435.22ZM203.686,226.857c4.739.915,9.471,1.442,14.227.5a17.7,17.7,0,0,0,11.9-7.767c-5.714,3.1-9.387,4.109-11.668,3.143a10.676,10.676,0,0,0,5.108-6.6c-2.033,2.1-4.492,3.872-7.31,3.742-3.685-.169-6.359,1.4-9.031,3.435a7.852,7.852,0,0,1-1.4.788c-3.527,1.674-7.06,3.336-10.681,5.045a21.545,21.545,0,0,0,11.746,9.721c9.975,3.649,19.812,2.628,29.484-1.218a2.718,2.718,0,0,1,3.025.371c2.674,1.871,5.49,3.551,8.325,5.175a18.06,18.06,0,0,0,3.6,1.072c-.826-6.139-1.587-11.794-2.392-17.781-6.078,5.608-9.264,7.56-12.822,7.422.3-.563,1.091-.694,1.444-1.156,1.913-2.5,3.787-5.038,5.538-7.653a6.174,6.174,0,0,0,.587-5.92c-6.56,9.477-15.279,16.247-19.833,15.331l3.306-4.456C218.124,233.377,210.4,233.379,203.686,226.857ZM336.725,411.784c.149-3.456-.28-6.6-2.5-9.211a4.921,4.921,0,0,0-2.286-1.568,19.124,19.124,0,0,0-16.638,3.088,12.622,12.622,0,0,0-4.563,6.039c4.867-4.37,7.22-5.86,9.421-6.031-5.212,4.9-6.5,6.743-6.006,9.059A18.505,18.505,0,0,1,321.555,408c-1.065,1.225-2.228,2.415-3.218,3.736-1.594,2.129-2.762,4.186-1.233,7.118,1.446,2.774,1.312,4.673.692,6.448a23.008,23.008,0,0,0-6.721-10.281,67.291,67.291,0,0,1,1.194,7.569c.119,2.48-.351,4.983-.4,7.48a2.181,2.181,0,0,0,1.007,1.721,29.692,29.692,0,0,0,6.3,1.881,16.322,16.322,0,0,0,8.093-.738c-3.048-1.364-4.67-3.319-4.858-6.431,2.271.725,4.322,1.537,6.447,2.027,4.819,1.112,8.152-.767,9.344-5.085.865-3.133-.158-6.806-2.315-8.3-2.6-1.806-4.78-1.561-8.124.915-.628.465-1.25.937-2.056,1.542C325.967,412.3,330.521,409.98,336.725,411.784Zm-105.248-41.4c-1.611,3.162-2.176,3.444-5.421,1.284a60.361,60.361,0,0,1-8.906-6.856c-4.946-4.843-9.555-10.03-13.63-14.358,1.134,3.317,2.747,7.6,4.048,11.985a64.2,64.2,0,0,1,2.017,9.4c.321,2.3-.645,3.014-2.856,2.4A49.39,49.39,0,0,1,202,372.41c-.037,4.591-1.306,5.6-5.957,4.582a26.455,26.455,0,0,1-11.487-5.554c-6.811-5.7-13.517-11.534-20.264-17.313-.408-.349-.8-.721-1.209-1.064-.362-.3-.747-.573-1.122-.858,8.679,12.284,18.837,23.535,23.781,37.916l9.639-.958c-1.981-2.77-3.824-5.348-5.845-8.172,2.834,1.244,5.1,3.5,8.379,2.83-.222-1.078-.391-1.9-.616-2.983a17.924,17.924,0,0,0,2.881,1.371,2.854,2.854,0,0,0,2.113-.153,41.38,41.38,0,0,1,13.583-6.208c.969-.256,1.265-.717,1-1.664-.33-1.18-.6-2.378-.932-3.726.355.164.552.2.656.313,2.221,2.447,4.661,4.467,8.237,4.339a1.434,1.434,0,0,1,.352.06l10.661,2.347c.12-.974.3-2.131.381-3.294a1.172,1.172,0,0,0-.452-.856C234.36,372.34,232.9,371.365,231.477,370.386Zm116.832,10.238c2.832,1.6,2.916,1.435,4.464-.777q9.942-14.208,20.06-28.291c3.81-5.3,7.776-10.493,11.671-15.734l-.339-.327a18.162,18.162,0,0,1-1.224,1.438q-16,15.363-32.041,30.683a20.355,20.355,0,0,1-4.076,2.826c-2.105,1.189-4.388,2.075-6.44,3.342a44.129,44.129,0,0,0-4.541,3.73c.258-2.593.477-4.784.718-7.2-1.783,1.567-3.294,3-4.928,4.269-.474.369-1.3.284-1.968.407a5.991,5.991,0,0,1-.145-1.85c.608-2.513,1.322-5,2-7.5l-.183-.077c-2.461,4.612-4.921,9.224-7.5,14.059,5.877-.926,7.392-.832,10.161.506,1.085.525,2.325,1.608,3.235,1.385,1.106-.271,1.938-1.656,2.89-2.557,1.253-1.187,2.506-2.371,4.053-3.834-.531,1.6-.9,2.712-1.27,3.825l.612.388c4.847-2.231,8.1-6.486,11.968-9.934Zm-80.446-7.312c.424-5.1,2.676-8.685,6.269-11.833l-7.03-1.329c3.126-1.79,6.694-.551,9.726-2.256a37.722,37.722,0,0,0-6.851-.955c-1.476-.081-3.134-.351-4.415.178-4.57,1.891-8.034,4.9-8.657,10.229-.085.731-.291,1.448-.474,2.333-5.007-2.969-9.911-4.276-14.425.161-2.6,2.557-3.027,8.013-1.3,10.687.9-2.821.85-6.057,3.69-8.593a38.21,38.21,0,0,0,.039,4.561,33.8,33.8,0,0,0,1.121,4.183c5.864-4.478,12.641-4.406,18.822-5.814v-6.652C265.606,370.006,266.568,371.416,267.863,373.312Zm46.107-92.147.106-.417c-8.417-1.219-16.84-2.4-25.249-3.672a32.123,32.123,0,0,0-16.977,1.652c-6.516,2.54-13.467,2.074-20.332,1.345-1.748-.185-3.717-.727-5.24-.167a51.255,51.255,0,0,1-24.83,2.538,19.125,19.125,0,0,0-11.993,2.5,12.781,12.781,0,0,0-6.036,6.788c1.733-.371,3.131-.4,3.905-1.985a3.4,3.4,0,0,1,1.812-1.359c1.834-.688,3.714-1.263,5.6-1.806,5.485-1.579,11.136-.821,16.711-1.142a39.377,39.377,0,0,0,14.409-3.136,3.663,3.663,0,0,1,2.191-.153c7.865,1.795,15.741,2.315,23.425-.568,3.678-1.379,7.173-3.086,11.258-2.686a13.909,13.909,0,0,0,2.448-.444,2.8,2.8,0,0,1,1.664.213c4.093,2.657,8.679,3.222,13.378,3.122C304.8,281.688,309.386,281.38,313.97,281.165Zm33.9,107.389a21.423,21.423,0,0,0-3.391-1.716,10.94,10.94,0,0,0-13.492,7.021c-1.049,3.1-1.048,3.1,1.759,4.425.269.127.528.276.79.418,3.6,1.941,5.741,5.078,7.277,8.748.207.5.816,1.2,1.2,1.177,2.094-.116,4.065-.733,5.009-2.837,2.653-5.909,2.011-11.589-3.972-15.245-.521-.318-1.037-.642-1.556-.964l.107-.647ZM300.76,426.4c.589,1.972,1.107,3.487,1.492,5.034,1.921,7.713-.315,14.339-6.238,18.561a21.918,21.918,0,0,1-12.786,3.906c-3.026.033-6.058-.378-9.087-.591l-.018-.653,5.514-2.222c-2.54-.465-5.183-.962-7.831-1.428a27.683,27.683,0,0,0-4.3-.619,6.533,6.533,0,0,0-2.27.9,8.707,8.707,0,0,0,1.314,1.941,25.749,25.749,0,0,0,22.327,6.01c8.48-1.606,13.948-7.056,17.242-14.846a3.463,3.463,0,0,0,.183-1.568A25.462,25.462,0,0,0,300.76,426.4Zm70.184-12.543c-.918,2.732-.81,2.915,1.19,4.24,5.98,3.959,8.628,9.479,7.656,16.649-1.38,10.177-9.557,15.519-19.408,12.71a2.449,2.449,0,0,0-1.654.03c-1.454.783-2.827,1.719-4.582,2.815,1.438.182,2.524.359,3.617.452,7.177.61,14.044-.323,20.26-4.253a7.084,7.084,0,0,0,2.053-1.934,22.262,22.262,0,0,0,2.189-21.95C380.262,417.71,376.219,414.948,370.944,413.854ZM161.75,454.684c2.97-3.177,6.55-5.652,8.8-9.514-1.9-.36-3.623-.572-5.275-1.039a1.366,1.366,0,0,0-1.935.88c-2.436,5.027-6.486,8.57-10.815,11.919a45.994,45.994,0,0,0-4.777,4.933l.338.183,30.239-10.091a9.038,9.038,0,0,1-1.756-1.523c-.869-1.235-1.847-1.231-3.081-.7-2.674,1.158-5.374,2.259-8.062,3.387C164.2,453.638,162.974,454.164,161.75,454.684ZM186.862,288.83l-.384.434c.5,1.033.769,2.338,1.565,3.041a33.541,33.541,0,0,0,5.482,3.866,4.428,4.428,0,0,1,2.235,2.268c1.414,3.419,4.214,5.054,7.8,5.523-3.561-2.509-7.11-4.985-5.549-10.153l-4.817-2.6.033-.549c4.183.01,6.652-2.715,8.976-5.5,3.133-3.748,7.333-5.117,11.9-5.816,2.5-.382,2.612-.489,2.476-3.1-.524,0-1.055-.029-1.581.007-.593.041-1.184.129-1.773.214-5.98.865-10.707,4.159-15.161,7.921C194.823,287.131,191.567,289.705,186.862,288.83ZM341.227,452.77a5.949,5.949,0,0,0-5.149.922c-5.383,3.867-11.374,4.166-17.557,2.619l-.052-.5h3.587c-3.562-.718-6.6-2.1-8.81-5.076l1.653.288-5.577-5.172v5.043l-3.682-3.208c-.146,3.775,5.07,8.743,11.1,10.9C326.282,461.986,335.959,459.747,341.227,452.77ZM208.665,447.8c.732,9.653,10.188,14.351,18.266,11.192l-1.882-2.2c3.2.6,5.97,1.34,8.786,1.6a61.337,61.337,0,0,0,8.734.054,21.855,21.855,0,0,0,10.812-3.339,15.456,15.456,0,0,0,5.849-6.823,71.849,71.849,0,0,1-6.483,4.418,49.9,49.9,0,0,1-6.022,2.206,22.539,22.539,0,0,1-14.372,1.044,12.582,12.582,0,0,0-7.844.283c-4.784,1.555-9.082.534-12.285-3.661C211.072,451.066,209.954,449.531,208.665,447.8Zm97.847-161.758c.272,2.048.55,3.8.724,5.57.107,1.085.627,1.477,1.649,1.287,4.96-.925,9.94-1.758,14.867-2.829a58.451,58.451,0,0,0,6.474-2.185A51.986,51.986,0,0,0,306.512,286.041ZM219.5,289.4l-.085.849c1.673.741,3.316,1.563,5.025,2.211,6.763,2.562,13.745,1.512,20.678,1.129a1.222,1.222,0,0,0,.8-.882c-.032-1.76-.188-3.517-.311-5.409-4.332.7-8.625,1.676-12.967,2.025S223.881,289.4,219.5,289.4ZM168.364,406.451c.866-.644,2.226-1.119,2.494-1.947a20.726,20.726,0,0,1,6.636-10.233c-5.125.544-9.572-.844-13.7-2.391C165.251,396.524,166.719,401.206,168.364,406.451Zm203.459,4.489c1.481-6.773,5.95-10.58,10.385-14.454-.188-.046-.314-.123-.391-.089-5.982,2.66-11.876,5.692-18.792,4.249a.79.79,0,0,0-.649.406.911.911,0,0,0,.159.8,5.694,5.694,0,0,0,1.167.805,13.223,13.223,0,0,1,6.133,6.731C370.053,409.958,370.94,410.276,371.823,410.94Zm-99.808-61.6c8.953,3,17.529,2.138,26.566.777-.743-1.858-1.306-3.337-1.924-4.791-.553-1.3-1.268-1.572-2.592-.692a21.655,21.655,0,0,1-11.282,4.079C279.347,348.841,275.916,349.11,272.015,349.343ZM283,481.268c5.34,6.163,14.769,8.844,22.192,5.309-.335-1.211-.958-1.543-2.237-1.092a17.122,17.122,0,0,1-9.349.315,16.6,16.6,0,0,1-2.483-.936l.046-.456c2.828-.274,5.826-.157,7.574-3a9.874,9.874,0,0,1-9.453-.545C286.918,479.4,285.092,480.549,283,481.268Zm-113.01-71.637c-9.024,1.388-14.856,11.424-12.141,20.729.094-.477.174-.88.254-1.284.046-.233.1-.466.14-.7,1.257-6.874,4.114-12.538,11.246-15.035a1.505,1.505,0,0,0,.743-1.125A16.535,16.535,0,0,0,169.993,409.631Zm127.49-106.012a2.235,2.235,0,0,0,2.669-1.658,26.259,26.259,0,0,0,1.465-12.288c-.454-3.9-.321-3.406-4.029-2.944-.049.006-.09.07-.105.083Zm52.189,81.088c1.632,1.949,3.661,4.214,5.512,6.614,4.17,5.407,1.863,14.17-4,16.37a8.879,8.879,0,0,0-1.318.765c5.843-1.08,10.149-5.242,9.707-12.227A12.742,12.742,0,0,0,349.672,384.707Zm34.861,81.085-7.614-12.812-1.881,1.222,1.523,2.878c-2.337-.891-4.524-2.544-6.794-.306,2.568,1.436,5.212,2.808,7.747,4.36S382.457,464.405,384.533,465.792ZM356.067,443.92c6.72-4.436,9.6-20.42,4.348-24.614C362.537,428.174,359.282,435.987,356.067,443.92ZM185.335,470.7a4.627,4.627,0,0,0,.193.718c2.9,6.238,8.012,9.534,14.558,10.846.428.086,1.009-.595,1.52-.92l-.181-.5c-5.857-.677-9.549-4.365-12.393-9.014C188,470.155,186.943,470.117,185.335,470.7Zm1.436-18.19c4.53,5.868,12.909,7.105,19.873,3.263,1.368-.754,1.621-1.682,1.227-3.177C200.806,456.831,193.792,458.458,186.771,452.514Zm174.676-46.689c-.931,1.028-.777,1.73.246,2.544a15.543,15.543,0,0,1,5.682,9.6c.277,1.479.414,2.983.629,4.579C371.017,417.05,367.748,408.744,361.447,405.825Zm-41.33-20.768a14.9,14.9,0,0,1,11.139.035c.581.209,1.461-.412,2.367-.7-2.453-2.7-6.456-3.808-12.3-1.54l-3.9-5.142-.085.172C318.247,380.228,319.156,382.575,320.117,385.057Zm-131.58,81.906c-6.405-1.473-11.365-4.743-14.613-10.533-.536,2.558,1.065,4.215,2.312,5.936C179.256,466.536,183.266,468.283,188.537,466.963Zm-11.8,1.223-5.517,8.825c3.327-1.784,6.21-3.307,9.068-4.876,1.186-.651,1.216-1.848.063-2.419C179.242,469.169,178.073,468.746,176.736,468.186Zm72.517-117.319c-2.726,3.761-3.435,7.981-3.748,12.392,3.387-.331,3.365-.332,3.137-3.421a18.831,18.831,0,0,1,.075-2.838C248.873,354.954,249.071,352.911,249.253,350.867Zm116.311,28.158-9.622,4.936c1.2,1.012,2.48,2.092,3.732,3.15ZM335.64,439.433c-1.286.85-3.08-.141-3.1,1.952a13.546,13.546,0,0,1-3.218,8.96C333.36,447.611,334.691,443.941,335.64,439.433ZM224.575,476.149c-3.321,2.789-4.78,3.613-7.482,4.577a14.518,14.518,0,0,0-2.982,1.98l.38.553a18.024,18.024,0,0,0,9.774-5.708C224.544,477.243,224.48,476.623,224.575,476.149Zm76.492-252.286.6-6.974h-3.189A7.878,7.878,0,0,0,301.067,223.863Zm41.7,208.663c4.225-2.06,5.758-4.831,5.366-8.811a31.493,31.493,0,0,1-3.609,4.909A4.563,4.563,0,0,0,342.769,432.526Zm-66.082,41.891c3.239,2.141,10.632,1.488,13.553-1.146C285.616,473.048,281.345,475.928,276.687,474.417ZM147.528,439.572l.074.3,9.41-1,.274-.6c-.795-.577-1.78-1.79-2.352-1.62C152.4,437.412,149.986,438.564,147.528,439.572Zm170.559,42.7a14.121,14.121,0,0,0,4.415-5.531c.143-.317-.135-.825-.218-1.245a3.973,3.973,0,0,0-1.049.6,15.386,15.386,0,0,1-2.192,2.534C317.7,479.554,317.241,480.538,318.087,482.276Zm63.092-32.8,5.558-.733-2.914-2.552Z"/><path d="M344.252,493.167A191.96,191.96,0,0,1,368.9,521.9c-1.18,0-2.026.07-2.856-.015-1.834-.187-3.659-.463-5.49-.684a4.686,4.686,0,0,1-4-2.963c-3.806-7.938-7.8-15.783-11.726-23.666C344.6,494.119,344.441,493.635,344.252,493.167Zm19.163,25.08c-3.51-4.633-6.935-9.153-10.359-13.674l-.471.349c1.73,3.255,3.542,6.47,5.164,9.778C358.854,516.953,360.215,518.611,363.415,518.247Z"/><path d="M225.455,516.76c3.481-8.774,7.008-17.663,10.534-26.553l.488.074a15.615,15.615,0,0,1,.286,2.737q-.6,8.9-1.341,17.781a1.769,1.769,0,0,1-.768,1.233C231.643,513.636,228.59,515.161,225.455,516.76Zm4.667-6.148.465.465c.755-.691,1.965-1.264,2.182-2.095.7-2.686,1.034-5.468,1.51-8.212l-.281-.076Z"/><path d="M358.536,484.708l14.03,8.9c-1.694.932-3.1,1.749-4.555,2.466a1.237,1.237,0,0,1-1.1-.242C363.611,492.711,359.918,489.879,358.536,484.708Z"/><path d="M293.439,509.891a2.671,2.671,0,0,1-.554.267c-4.237.345-4.293.323-4.737-3.787-.178-1.648-.212-3.312-.312-4.969l.431-.18Z"/><path d="M172.783,494.715l7.427-6.36.364.285c-1.09,2-1.9,4.265-3.388,5.907-.764.842-2.747.578-4.179.814Z"/><path d="M281.554,136.819a42.751,42.751,0,0,0-19.375-3.389c1.31-3.719,10.037-7.06,18.388-7.182-10.278-5.835-25.586.228-28.584,11.124,2.434-.428,4.945-1.03,7.491-1.272a13.422,13.422,0,0,1,7.794,1.672,28.778,28.778,0,0,0-4.913.622,25.013,25.013,0,0,0-5.5,2.417c-2.385,1.453-3.872,3.387-3.462,6.606a17.284,17.284,0,0,1-2.008,9.686,4.484,4.484,0,0,1-1.192,1.5c1.067-4.672.389-9.156-.8-13.63a2.679,2.679,0,0,0-2.322-2.175,48.122,48.122,0,0,1-6.1-2.391c-1.018,2.525-2.214,5.494-3.41,8.463l-.727.074-3.729-6.733L228.04,149.5l-3.929-6.617a18.782,18.782,0,0,1-7.612,6.644v-7.219l-8.357,4.43-.653-.41,2.085-8.037c-7.152,3.516-12.262,9.215-15.731,16.563a26.935,26.935,0,0,1,3.727-15.894c3.405-5.8,8.529-9.318,14.909-11.219a6.673,6.673,0,0,0,2.865-1.87,19.852,19.852,0,0,1,13.125-6.554c2.582-.262,5.213-.045,8.086-.045-2.639-4.5-3.8-8.921-1.222-13.718,1.145,4.607,3.3,8.345,8.205,10.421-2.755-7.255-2.526-14.042,1.018-20.726.186,1.526.322,3.06.568,4.577.542,3.356,1.6,6.488,4.2,8.872,1.86,1.7,2.186,1.644,4.135.069,5.343-4.319,11.583-5.94,18.338-5.926a5.32,5.32,0,0,1,1.043.346c-3.889,1.651-7.4,3.21-9.569,7.23,5.746-2.291,11.188-3.3,16.607-.587a15.727,15.727,0,0,1,7.062,6.744c-11.788-2.221-22.668-1.752-31.75,6.7a29.6,29.6,0,0,1,11.638-4.848c1.336-.289,2.728-.328,4.053-.654,4.724-1.162,8.492.752,12.007,3.585a20.784,20.784,0,0,1,7.117,10.612c-4.938-.536-9.646-1.239-14.328-.11l6.2,4.374Z"/><path d="M336.008,161.058a13.1,13.1,0,0,1,4.655,5.813c.655,1.582.922,3.321,1.479,4.949a9.147,9.147,0,0,0,1.412,1.9c2.117-7.192,2.479-13.44-3.167-18.718,3.8,1.237,6.367,3.744,8.342,7.556.47-5.677-1.921-9.854-4.6-13.983,4.975,2.4,7.545,6.752,9.549,11.964,4.408-4.989,4.588-10.731,3.983-16.5-.544-5.178-3.6-8.968-7.841-11.853-4.046-2.753-8.631-4.106-13.3-5.238,8.675-.171,16.38,2.036,22.1,9.134.068-2.692-1.843-5.84-6.968-11.524,5.668.8,11.964,9.081,13.655,18,1.629,8.6-1.791,15.6-7.345,22.319a13.469,13.469,0,0,0,7.991-5.21c1.764-2.531,3.107-5.355,4.664-8.1a12.309,12.309,0,0,1-.336,8.861,88.139,88.139,0,0,1-4.5,7.989c6.017,1.056,10.077,5.167,13.388,10.9a5.21,5.21,0,0,1-1.04-.444c-7.122-6.207-15-6.565-23.115-2.515a10.432,10.432,0,0,1-8.372.886c-8.14-2.289-15.627-.886-21.3,6.108-.1.128-.272.2-.775.144.569-1.35,1.038-2.753,1.724-4.04,1.989-3.726,4.936-6.247,9.241-6.874,1.225-.178,1.752-.681,1.956-2.022C337.961,167.39,337.259,164.447,336.008,161.058Z"/><path d="M327.228,120.283a83.131,83.131,0,0,0-8.76.631,14.535,14.535,0,0,0-5.956,2.234c-4.345,3.153-8.009,6.852-7.318,13a24.033,24.033,0,0,1-.354,5.5,4.237,4.237,0,0,1-1.114,2.051c-.31-4.861-1.022-9.509-3.458-13.8-2.521-4.44-6.552-6.718-11.645-8.451a16.81,16.81,0,0,1,9.237-1.722,5.907,5.907,0,0,1,1.934.3c2.14,1.009,3.741.044,5.539-1.046C312.639,114.56,321.433,115.118,327.228,120.283Z"/><path d="M186.41,158.529c-2.459-2.986-3.389-6.363-3.923-10.036-4.674-.461-8.483,1.3-12.182,4.15a30.012,30.012,0,0,1,.982-2.913c2.217-4.913,5.644-8.336,11.235-9.186a2.834,2.834,0,0,0,1.718-1.464c2.9-5.968,7.963-8.967,14.134-10.492a3.445,3.445,0,0,1,.885.092c-5.836,5.68-8.04,12.536-7.7,20.389-2.27-2.872-2.286-6.165-2.11-9.911a11.365,11.365,0,0,0-2.946,6.037,35.231,35.231,0,0,0-1.087,6.65A41.478,41.478,0,0,0,186.41,158.529Z"/><path d="M287.9,67.882c5.095-.033,9.073,2.193,12.425,5.753,3.315,3.521,5.094,7.842,6.474,12.462,5.713-2.3,11.325-1.982,16.939-.515-11.595.576-21.1,4.657-27.126,15.433a29.1,29.1,0,0,1,.514-3.078,22.239,22.239,0,0,1,4.451-8.48,3.59,3.59,0,0,0,.728-2.367c-.723-8.712-5.52-14.6-13.065-18.525C288.792,68.334,288.343,68.109,287.9,67.882Z"/><path d="M314.392,135.3v-4.637l-5.472,2.947c-.017-2.952,3.647-7.19,7.629-8.9,5.38-2.309,12.239-1.285,16.21,2.554l-7.445.461c.44,1.621.817,3.012,1.195,4.4l-.343.28c-1.445-.887-2.9-1.754-4.331-2.666-2.193-1.4-2.666-1.307-4.1.958-.891,1.408-1.754,2.835-2.64,4.246C315.044,135.029,314.9,135.051,314.392,135.3Z"/><path d="M373.443,125.39c-1.9-1.52-2.593-3.611-2.983-6.179l-5.964,2.368c.076-6.618,8.377-12.238,14.463-9.665-1.111,2.154-2.373,4.243-3.288,6.475S374.192,122.985,373.443,125.39Z"/><path d="M271.067,143.925a29.177,29.177,0,0,0-13.173,10.508c0-.86.014-1.277,0-1.693-.1-2.467-.224-4.934-.279-7.4-.011-.5.083-1.265.41-1.479C260.737,142.08,267.187,141.208,271.067,143.925Z"/><path d="M174.078,120.442a20.21,20.21,0,0,1,9.983-25.011A32.252,32.252,0,0,0,174.078,120.442Z"/><path d="M356.185,91.805a12.6,12.6,0,0,1,6.6,6.384,42.858,42.858,0,0,1,2.567,7.555c.645,2.542.21,3.032-2.656,4.148A24.392,24.392,0,0,0,356.185,91.805Z"/><path class="cls-1" d="M524.571,4.324V520.609H4V4.324H524.571m4-4H0V524.609H528.571V.324Z"/><path class="cls-2" d="M525.268,521.7H4V4.105H525.268ZM34,491.7H495.268V34.1H34Z"/></g></svg>