<?xml version="1.0" encoding="utf-8"?>
<!-- Generator: Adobe Illustrator 24.0.1, SVG Export Plug-In . SVG Version: 6.00 Build 0)  -->
<svg version="1.1" xmlns="http://www.w3.org/2000/svg" xmlns:xlink="http://www.w3.org/1999/xlink" x="0px" y="0px"
	 viewBox="0 0 528.57 523.42" style="enable-background:new 0 0 528.57 523.42;" xml:space="preserve">
<style type="text/css">
	.st0{display:none;fill:#FDFEFE;}
	.st1{fill:#616060;}
	.st2{fill:#8D8989;}
	.st3{display:none;}
	.st4{display:inline;}
	.st5{fill:#636464;}
	.st6{fill:#808080;}
	.st7{fill:#B4B3B4;}
	.st8{fill:#333333;}
	.st9{fill:none;}
	.st10{fill:none;stroke:#000000;stroke-width:5;stroke-miterlimit:10;}
	.st11{fill:#050606;}
	.st12{fill:#FFFFFF;}
	.st13{opacity:0.1;}
	.st14{fill:#ECECEC;}
	.st15{fill:#1F191A;}
	.st16{fill:#E2E5E5;}
	.st17{fill:#181818;}
	.st18{fill:#F0F1F1;}
	.st19{fill:#1D191A;}
	.st20{fill:#E5E6E6;}
	.st21{fill:#070808;}
	.st22{display:inline;fill:none;stroke:#8D8989;stroke-width:30;stroke-miterlimit:10;}
	.st23{fill-rule:evenodd;clip-rule:evenodd;fill:#050606;}
	.st24{fill:none;stroke:#000000;stroke-width:4;stroke-linecap:round;stroke-linejoin:round;stroke-miterlimit:10;}
	.st25{fill:#010101;}
	.st26{fill-rule:evenodd;clip-rule:evenodd;fill:#FFFFFF;}
	.st27{fill:#161717;}
	.st28{fill-rule:evenodd;clip-rule:evenodd;fill:#161717;}
</style>
<g id="Layer_1">
	<rect x="-9038.17" y="-1682.04" class="st0" width="13577.14" height="3065.14"/>
</g>
<g id="Layer_2">
</g>
<g id="Layer_3">
</g>
<g id="Layer_4">
</g>
<g id="Layer_5">
</g>
<g id="Layer_6">
</g>
<g id="Layer_7">
</g>
<g id="Layer_8">
</g>
<g id="Layer_9">
</g>
<g id="Layer_10">
</g>
<g id="Layer_11">
</g>
<g id="Layer_12">
</g>
<g id="Layer_13">
</g>
<g id="Layer_14">
</g>
<g id="Layer_15">
</g>
<g id="Layer_16">
</g>
<g id="Layer_17">
</g>
<g id="Layer_18">
</g>
<g id="Layer_19">
</g>
<g id="Layer_20">
</g>
<g id="Layer_21">
</g>
<g id="Layer_22">
</g>
<g id="Layer_23">
</g>
<g id="Layer_24">
</g>
<g id="Layer_25">
</g>
<g id="Layer_26">
</g>
<g id="Layer_27">
</g>
<g id="Layer_28">
</g>
<g id="Layer_29">
</g>
<g id="Layer_30">
	<g>
		<g>
			<path d="M402,355.52c9.75,7.83,19.06,14.13,26.96,21.86c28.63,28.04,56.76,56.59,85.14,84.88
				c10.08,10.04,16.48,21.59,13.63,36.19c-2.88,14.71-11.38,24.95-26.07,29.69c-15.52,5-28.36-0.01-39.26-10.72
				c-23.31-22.89-46.27-46.13-69.37-69.23c-5.55-5.54-11.45-10.78-16.57-16.69c-7.54-8.7-14.52-17.88-22.56-27.88
				c-43.89,27.84-92.95,36.01-145.08,20.62c-39.94-11.79-71.26-35.7-93.83-70.61c-46.59-72.06-32.43-163.86,27.33-218.95
				c62.93-58.01,157.61-61.32,224.57-7.34C431.98,179.83,452.7,276.91,402,355.52z M257.87,413.87
				c84.75,0.68,153.66-67.45,154.33-152.57c0.65-83.82-67.9-153.72-151.29-154.45c-84.69-0.74-154.54,66.51-155.63,151.41
				C104.18,344.08,172.44,413.19,257.87,413.87z M488.15,461.69c-16.01-15.83-30.85-30.46-45.65-45.15
				c-11.41-11.33-22.58-22.91-34.19-34.03c-9.4-8.99-20.59-8.7-28.7,0.09c-7.93,8.59-7.25,18.88,2.5,28.71
				c25.39,25.62,50.97,51.06,76.47,76.57c6.15,6.15,12.16,12.43,18.51,18.36c6.19,5.79,13.16,7.93,21.42,3.91
				c14.91-7.26,15.88-22.42,1.63-34.26c-4.33,4.11-8.63,8.36-13.12,12.4c-4.06,3.66-8.31,4.5-12.59,0.15
				c-4.23-4.31-3.57-8.52,0.22-12.6C478.73,471.44,482.93,467.14,488.15,461.69z"/>
		</g>
		<g>
			<path d="M175.72,260.77c0-13.06,0.25-26.13-0.1-39.18c-0.18-6.44,2.18-10.59,7.72-13.76c22.62-12.92,45.17-25.98,67.62-39.21
				c5.56-3.28,10.46-2.97,15.84,0.18c22.49,13.17,44.97,26.37,67.67,39.17c5.84,3.29,7.59,7.72,7.57,13.85
				c-0.09,25.69-0.15,51.38,0.04,77.06c0.05,6.86-2.55,11.39-8.51,14.78c-22.26,12.67-44.46,25.47-66.5,38.53
				c-5.98,3.55-10.85,3.41-16.85-0.2c-21.59-12.98-43.33-25.74-65.37-37.94c-7.19-3.97-9.56-8.91-9.25-16.72
				C176.08,285.17,175.72,272.96,175.72,260.77z M267.52,330.77c19.09-10.98,36.02-20.53,52.69-30.53c2.13-1.27,4.03-4.82,4.08-7.35
				c0.34-19.03,0.18-38.08,0.18-56.95c-2.03-0.25-3.08-0.74-3.67-0.4c-16.24,9.2-32.55,18.3-48.53,27.94
				c-2.39,1.44-4.49,5.47-4.55,8.34C267.33,290.52,267.52,309.23,267.52,330.77z M194.04,233.57c0,21.38-0.14,40.52,0.17,59.66
				c0.04,2.49,1.81,6.01,3.87,7.25c16.27,9.85,32.81,19.26,51.27,29.97c0-19.82-0.47-37.54,0.21-55.21
				c0.3-7.81-2.63-12.15-9.23-15.08c-2.72-1.21-5.28-2.77-8.63-4.54c-0.46,2.48-0.86,4.06-1.04,5.65
				c-1.01,8.85-4.35,13.59-9.63,12.59c-7.57-1.43-8.88-7.23-8.65-13.89c0.18-5.19,0.04-10.39,0.04-15.79
				C206.79,240.93,201.63,237.95,194.04,233.57z M258.87,250.1c18.3-10.64,36.39-21.16,55.83-32.47
				c-7.32-4.32-12.86-7.59-18.84-11.12c-18.24,10.65-36.32,21.21-55.72,32.55C247.43,243.35,252.97,246.62,258.87,250.1z
				 M221.92,228.57c18.17-10.57,36.13-21.02,55.88-32.5c-7.82-4.5-13.33-7.67-19.11-10.99c-18.35,10.69-36.42,21.22-55.83,32.53
				C210.29,221.88,215.85,225.08,221.92,228.57z"/>
		</g>
		<g>
			<path d="M256.45,393.42c-61.41,0.35-115.7-44.81-128.15-107c-14.19-70.9,31.01-147.09,114.37-158.05
				c39.79-5.24,75.78,6.45,105.9,33.94c1.6,1.46,3.14,3.01,4.62,4.6c3.54,3.79,3.72,7.88,0.23,11.63c-3.4,3.65-7.65,3.99-11.8,1.27
				c-2.16-1.42-3.9-3.47-5.89-5.17c-69.09-59.11-172.76-24.5-190.1,64.74c-12.31,63.39,27.51,119.35,87.08,133.48
				c61.34,14.54,121.75-22.98,137.8-83.93c5.96-22.63,4.4-44.75-3.08-66.68c-0.84-2.46-3.02-5.17-2.5-7.25
				c0.95-3.78,2.65-8.45,5.58-10.28c1.97-1.23,7.28,0.98,9.83,3.15c2.39,2.03,3.51,5.9,4.51,9.17c13.8,45.13,7.06,86.92-21.6,124.54
				C336.97,376.07,301.21,392.16,256.45,393.42z"/>
		</g>
	</g>
	<g>
		<g>
			<g>
				<path class="st1" d="M524.57,4.32v516.29H4V4.32H524.57 M528.57,0.32H0v524.29h528.57V0.32L528.57,0.32z"/>
			</g>
		</g>
		<g>
			<g>
				<path class="st2" d="M525.27,521.69H4V4.1h521.27V521.69z M34,491.69h461.27V34.1H34V491.69z"/>
			</g>
		</g>
	</g>
</g>
<g id="Layer_31">
</g>
<g id="Layer_32">
</g>
<g id="Layer_33">
</g>
<g id="Layer_34">
</g>
<g id="Layer_35">
</g>
<g id="Layer_36">
</g>
<g id="Layer_37">
</g>
<g id="Layer_38">
</g>
<g id="Layer_39">
</g>
<g id="Layer_40">
</g>
<g id="Layer_41">
</g>
<g id="Layer_42">
</g>
</svg>
