<svg xmlns="http://www.w3.org/2000/svg" viewBox="0 0 528.571 522.705"><defs><style>.cls-1,.cls-2{fill:none;stroke:#050606;stroke-miterlimit:10;stroke-width:10px;}.cls-2{stroke-dasharray:12;}.cls-3{fill:#050606;}.cls-4{fill:#616060;}.cls-5{fill:#8d8989;}</style></defs><title>icon</title><g id="Layer_31" data-name="Layer 31"><path class="cls-1" d="M147,248.7l-22,24,50.286,140.571,61.714-54,78,12,54-57.428,79.714,9.428-42-140.571-86.571-24.857L263.571,218.7l-24.857-5.143"/><path class="cls-1" d="M264.286,221.984q24.428,72.714,48.857,145.428"/><path class="cls-2" d="M137.036,297.555A295.848,295.848,0,0,0,198,321.127c30.36,8.022,47.117,12.45,63.429,4.714,11.481-5.445,12.376-12,37.714-49.714,19.816-29.5,29.944-44.4,40.714-51.858,12.08-8.368,33.46-17.485,71.143-12"/><path class="cls-3" d="M237.855,166.414c-2.746-19.921-16.62-40.424-38.571-47.43-17.639-5.63-32.98-.15-38.139,2-18.641,7.77-32.111,25.32-34.721,43.71-2,14.16,3.19,25.61,6.86,33.43,16.72,35.65,34.7,69.27,50.571,97.29l49.716-98.145A59.121,59.121,0,0,0,237.855,166.414ZM181,193.554a26.285,26.285,0,1,1,26.28-26.28A26.287,26.287,0,0,1,181,193.554Z"/><path class="cls-4" d="M524.571,4V520.285H4V4H524.571m4-4H0V524.285H528.571V0Z"/><path class="cls-5" d="M525.267,521.371H4V3.781H525.267ZM34,491.371H495.267V33.781H34Z"/></g></svg>