<svg xmlns="http://www.w3.org/2000/svg" viewBox="0 0 528.571 524.286"><defs><style>.cls-1{fill:#616060;}.cls-2{fill:#8d8989;}</style></defs><title>icon</title><g id="Layer_32" data-name="Layer 32"><path d="M35.783,298.844c5.953.035,11.624,1.515,17.223,3.365a11.717,11.717,0,0,1,1.89.676c1.52.814,2.886.511,4.446-.085,13.611-5.2,26.041-2.518,37.372,6.083,4.36,3.31,4.669,6.869,1.616,11.5a55.813,55.813,0,0,1,1.251,6.723,55.225,55.225,0,0,1-.36,6.934c1.958-.93,3.729-1.79,5.515-2.617q11.956-5.535,23.92-11.054a54.007,54.007,0,0,0,13.855-9.674,38.364,38.364,0,0,1,6.837-4.957c6.255-3.6,12.615-7.021,18.969-10.449a19.762,19.762,0,0,1,3.94-1.519,4,4,0,0,1,4.7,1.7,4.082,4.082,0,0,1-.127,4.835,13.61,13.61,0,0,1-3.169,3.079c-2.419,1.732-4.965,3.287-7.452,4.926-.671.442-1.317.924-2.068,1.453.69.818,1.286,1.469,1.818,2.167,1.384,1.815,1.808,3.726.51,5.791-.193.307-.488.709-.422,1,.534,2.348-.262,4.385-1.42,6.326a8.88,8.88,0,0,1-2.088,2.927,29.712,29.712,0,0,1-5.561,2.815,3.362,3.362,0,0,1-2.526-.071,3.1,3.1,0,0,0-3.513.3,8.422,8.422,0,0,1-2.859,1.208,41.415,41.415,0,0,0-14.332,6.029c-11.057,7.025-22.027,14.186-33.039,21.282a3.568,3.568,0,0,0-1.839,2.831c-.341,3.085-2.034,4.671-5.13,4.855-1.845.111-3.71-.119-5.567-.175-.873-.026-1.747,0-2.684,0a11.713,11.713,0,0,0,.687,10.078c3.07-1.356,6.08-2.61,9.027-4q14.948-7.046,29.849-14.189a19.333,19.333,0,0,0,3.75-2.387c9.219-7.45,19.744-12.41,30.838-16.3.983-.345,1.942-.78,2.946-1.034,2.425-.613,4.442.3,5.2,2.272.725,1.886-.079,3.79-2.292,4.956-3.283,1.731-6.626,3.348-10.278,5.182,2.219,2.282,1.918,4.554.609,7.03a16.406,16.406,0,0,0-1.045,4.238c-.687,3.208-3.147,4.28-5.934,4.962-2.434.595-4.911,1.052-7.3,1.786-8.766,2.693-15.857,8.422-23.5,13.14-5.765,3.558-11.479,7.2-17.21,10.808-.43.271-.818.608-1.423,1.062,5.5,7.626,11.5,14.853,15.093,23.981,3.74-2.865,7.218-5.511,10.678-8.183,9.132-7.052,18.339-14.012,27.333-21.237,2.628-2.111,4.689-4.946,6.923-7.525,1.9-2.193,3.688-4.485,5.5-6.753a30.232,30.232,0,0,1,7.818-6.911c5.445-3.366,10.771-6.925,16.223-10.28a39.18,39.18,0,0,1,6.015-2.879c1.713-.684,3.2-.007,4.389,1.346a3.432,3.432,0,0,1,.44,4.344,15.722,15.722,0,0,1-3.408,3.732c-2.4,1.885-4.974,3.535-7.467,5.3-.47.333-.9.728-1.467,1.2.5.417.876.744,1.266,1.055,2.7,2.153,3.106,3.488,2.064,6.775a2.5,2.5,0,0,0-.248,1.293c.77,2.491-.694,4.607-1.079,6.9a1.792,1.792,0,0,1-.246.614c-1.3,2.143-7.531,4.75-10.038,4.207a2.693,2.693,0,0,0-.418-.056,68.326,68.326,0,0,0-19.623,17.158A339.367,339.367,0,0,1,130.7,440.164a91.348,91.348,0,0,1-18.591,14.195c-.637.356-1.208.832-1.9,1.312,0,4.811.06,9.566-.013,14.319q-.175,11.382-.527,22.759a11.577,11.577,0,0,1-.823,2.9H105.63V464.006l-1.8-.6c-.133.864-.242,1.58-.352,2.3l-.473.036c-.156-1.366-.311-2.732-.518-4.544-.32.888-.511,1.42-.744,2.065H99.825c-.03-3.2-.154-6.371,0-9.525.028-.565,1.18-1.514,1.844-1.542,6.782-.288,11.68-4.449,16.726-8.145,8.457-6.192,15.5-13.924,22.542-21.608q2.5-2.722,4.958-5.477c8.236-9.2,12.389-13.765,14.456-16.292,2.6-3.179,10.793-13.408,15.366-16.09a28.679,28.679,0,0,1,3.292-1.726c1.571-.662,3.277-1.048,4.763-1.852a4.051,4.051,0,0,0,2.378-4.433c-13.841,6.923-17,7.324-17.49,6.563-1.052-1.631,9.169-10.152,12.24-12.713a144,144,0,0,1,14.224-10.457q-.152-.241-.3-.483c-2.369,1.331-4.834,2.518-7.088,4.022-5.379,3.588-10.948,6.982-15.878,11.123-3.359,2.821-5.869,6.695-8.576,10.237a56.756,56.756,0,0,1-10.725,10.667c-10.406,7.962-20.681,16.1-31.068,24.085-2.591,1.993-5.383,3.728-8.127,5.515a20.134,20.134,0,0,1-2.777,1.243,24.271,24.271,0,0,1-.527-3.087,15.426,15.426,0,0,0-2.7-7.945c-3.662-5.605-7.434-11.141-11.239-16.651a3.642,3.642,0,0,0-2.1-1.418c-10.026-1.808-19.484-5.408-28.938-9.032a9.61,9.61,0,0,0-.977-.221,13.549,13.549,0,0,0,1.1,1.524c9.06,9.149,14.72,20.293,18.98,32.265,3.941,11.072,6,22.559,7.548,34.157a231.053,231.053,0,0,1,1.761,38.1,27.35,27.35,0,0,1-1.038,5.428c-.1.426-.66.742-1.135,1.243-1.951-1.371-2.261-3.417-2.365-5.359-.25-4.681-.263-9.374-.4-14.062-.494-17.467-2.434-34.732-7.225-51.6a94.688,94.688,0,0,0-12.118-26.978c-1.411-2.112-2.537-4.516-4.281-6.365a97.309,97.309,0,0,0-8.8-8.352c-3.042-2.509-6.411-4.621-9.8-7.024.7,2.781,1.389,5.483,2.074,8.185l-.55.53a33.965,33.965,0,0,1-12.07-3.728V381.51l6.2,2.036a7.15,7.15,0,0,0-.751-1.686,5.049,5.049,0,0,1-1.162-4.509c.573-3.806.974-7.637,1.456-11.546l-5.74-3.956v-2.234l11.089,1.779,6.336-7.069c2.856,1.15,1.071,3.794,2.307,5.562l1.793-.131c.246-2.518.472-4.83.726-7.435l-2.509-1.078,2.59-1.383c.534-1.8.625-3.729,1.606-4.948,1.008-1.252,2.885-1.8,4.31-2.624-3.157-4.067-6.147-7.92-9.3-11.986h-5.57c-.041-.252-.083-.5-.124-.754l7.4-2.329A66.39,66.39,0,0,0,52.4,317.1l-13.323,3.3c.789,1.98,1.324,3.643,2.1,5.187,1.034,2.063,1.138,3.85-.543,5.687A16.876,16.876,0,0,0,36.4,343.385c.007.492-.4.989-.612,1.484ZM61.1,368.716l-5,10.506c3.609,2.444,30.513,11.89,34.833,12.186-.484-.549-.856-.978-1.236-1.4-3.694-4.1-7.379-8.2-9.092-13.629a16.4,16.4,0,0,1,.885-12.171c1.235-2.676,2.448-3.147,5.4-2.554,1.385.278,2.768.594,4.168.766,2.425.3,3.164-.309,3.734-2.66.362-1.5.857-2.957,1.378-4.726l-.955-1.186c.446-1.524,2.375-2.433,1.5-4.278-.692-1.459.009-2.391,1.134-3.211.806-.588,1.572-1.229,2.492-1.953a23.965,23.965,0,0,1-2.1-2.667,67.94,67.94,0,0,1-3.71-7.047,5.046,5.046,0,0,1-.14-3.682c1.477-3.109.331-5.92-.245-8.766-4.12-.265-6.9.919-8.342,5.068a20.268,20.268,0,0,1-7.9,9.741c-1.52,1.072-3,2.208-4.45,3.369-2.306,1.842-4.576,3.729-6.978,5.692.905,1.556,1.668,2.818,2.384,4.106a22.607,22.607,0,0,1,3.272,9.868c.235,4.774-1.963,7.392-6.713,8.074C63.938,368.373,62.464,368.541,61.1,368.716Zm88.642-45.3c3.226-2.288,6.027-4.591,6.027-4.592.366-.274.7-.585,1.1-.919-4.739-1.787-8.655.371-12.729,2.021,4.449-3.925,8.89-7.772,13.615-11.23,4.764-3.486,9.81-6.586,14.733-9.855-.079-.16-.157-.32-.236-.481a15.919,15.919,0,0,0-2.148.832c-4.934,2.762-9.789,5.671-14.786,8.312a46.951,46.951,0,0,0-11.5,8.737,43.666,43.666,0,0,1-12.882,8.725c-8.907,4.143-17.858,8.19-26.781,12.3-.9.414-1.736.967-2.788,1.561,1.016,1.319,1.849,2.354,2.631,3.426,1.741,2.389,1.431,4.144-1.054,5.811a23.74,23.74,0,0,1-2.186,1.2c.145,1.595.264,2.9.4,4.4C127.732,337.5,147,325.36,149.737,323.416Zm-53.186,67.3a10.553,10.553,0,0,0,1.109-.452c.643-.374,1.257-.8,1.9-1.167,12.93-7.429,24.618-17.013,38.775-22.324a20.534,20.534,0,0,0,3.378-2.062c-2.577.1-2.577.1-3.606-.859l6.871-10.61,2.842-.206c-.859-2.46-2.851-3.362-4.5-2.157-3.781,2.758-7.47,5.643-11.26,8.388a42.858,42.858,0,0,1-6.34,4.109C114.2,368.924,102.6,374.33,91.042,379.8c-.763.361-1.484.81-2.428,1.329ZM46.284,367.055l-1.01,7.113,6.4,2.741c1.4-2.973,2.76-5.847,4.279-9.063Zm116.652-23.778c-5.732,1.36-10.9,4.193-16.694,6.475C149.618,349.776,159.246,346.053,162.936,343.277Zm-18.182,15.946c5.415,0,6.561-.529,7.417-2.957l-6.6,1.291Zm9.034-34.44,1.606,2.073,3.762-1.916-.244-.64Zm30.981,59.555-4.994,1.985C181.63,387.6,182.917,387.089,184.769,384.338ZM156.96,320.609l.188.4,3.381-.586c.364-1,.665-1.838,1.056-2.917C159.839,318.681,158.4,319.645,156.96,320.609Zm-10.913,41.935.067.57c1.935.8,2.735.6,4.121-1.34Z"/><path d="M35.783,397.15c2.932,4.733,4.571,9.956,5.9,15.313,1.794,7.225,1.266,14.458.358,21.725a53.809,53.809,0,0,0-.253,6.9c.083,16.744.216,33.488.283,50.232.007,1.824-.3,3.65-.47,5.523l-3.491-.853c-.188-2.3-.538-4.844-.579-7.395-.228-14.286-.229-28.579-.629-42.86a158.49,158.49,0,0,1,.849-19.137,37.074,37.074,0,0,0-1.97-16.044Z"/><path d="M436.169,403.872a98.588,98.588,0,0,0-9.731,21.5c-3.889,12.111-4.8,24.623-4.946,37.24q-.183,15.4-.557,30.806a20.321,20.321,0,0,1-.762,3.148c-.312,1.626-.542,3.267-.84,5.107l-1.933-.3c-.461-3.9-1.236-7.784-1.319-11.681-.206-9.677-.1-19.36-.112-29.041,0-1.1,0-2.208,0-3.167-3.143-1.665-6.085-3.1-8.9-4.741-8.45-4.934-15.427-11.656-22.11-18.677-9.188-9.653-18.175-19.5-27.4-29.117-3.494-3.644-7.368-6.929-11.146-10.291a10.406,10.406,0,0,0-3.088-1.733c-2.683-1.064-5.414-2.007-8.489-3.132-3.758,2.089-6.979-.669-9.839-2.816-1.521-1.141-1.787-4-2.528-6.113-.356-1.017-.374-2.155-.762-3.155-.861-2.222-.732-4.216.956-6,.458-.483.911-.971,1.609-1.715-1.675-1.095-3.247-2.129-4.825-3.154-2.122-1.377-4.276-2.708-6.36-4.142a7.03,7.03,0,0,1-1.867-1.884,4.373,4.373,0,0,1-.137-4.86,4.005,4.005,0,0,1,4.523-1.651,19.954,19.954,0,0,1,4.164,1.578c7.012,3.617,14.014,7.256,20.959,11a21.4,21.4,0,0,1,4.254,3.221c4.531,4.2,8.732,8.8,13.531,12.661,7.128,5.732,14.643,10.983,22.023,16.4q12.063,8.852,24.185,17.62c1.131.82,2.363,1.5,3.874,2.451,1.77-3.218,3.433-6.243,5.237-9.526-1.365-.776-2.623-1.5-3.89-2.211q-16.175-9.048-32.358-18.08a27.729,27.729,0,0,0-9.948-3.776c-4.167-.534-6.166-4.471-5.919-8.811-1.856-2.325-2.329-4.921.011-7.624-2.4-1.215-4.586-2.3-6.749-3.432a27.854,27.854,0,0,1-3.272-1.913,3.759,3.759,0,0,1-1.4-4.726,3.683,3.683,0,0,1,4.035-2.149,14.235,14.235,0,0,1,3.435.92c4.637,1.835,9.229,3.787,13.874,5.6,5,1.955,8.557,5.864,12.576,9.147a16.479,16.479,0,0,1,2.578,2.469c2.622,3.334,6.167,5.255,9.949,6.937,7.751,3.45,15.448,7.022,23.172,10.534.669.305,1.368.544,2.186.866,2.77-3.545,5.5-7.043,8.363-10.706-2.03-1.008-4-1.856-5.844-2.923q-20-11.571-39.958-23.221c-1.93-1.124-3.829-2.3-5.727-3.478a38.353,38.353,0,0,0-12.466-4.692c-3.317-.707-6.533-1.89-10.23-2.99-1.49,1.183-3.424.631-5.346-.471a12.739,12.739,0,0,0-1.6-.785c-4.232-1.7-5.346-5.31-5.8-9.351a6.2,6.2,0,0,0-.415-2.14c-1.418-2.715-.885-5.014,1.257-7.067a7.178,7.178,0,0,0,.695-.862,2.419,2.419,0,0,0,.113-.52c-2.88-1.876-5.886-3.774-8.823-5.775a17.742,17.742,0,0,1-3.388-2.854,4.772,4.772,0,0,1-.428-5.809,4.1,4.1,0,0,1,5.21-1.276c3.444,1.385,6.85,2.9,10.147,4.609,4.295,2.219,8.534,4.563,12.67,7.064a58.891,58.891,0,0,1,8.554,5.991,44.815,44.815,0,0,0,14.249,8.592q13.824,5.1,27.646,10.212c.686.252,1.406.412,2.269.662,3.063-4.683,7.615-8.5,7.4-15.175a21.451,21.451,0,0,0-3.634.279c-7.541,1.931-14.591.452-21.4-2.907a10.662,10.662,0,0,0-1.433-.622c-3.158-1.019-5.31-2.778-4.676-6.6-2.722-1.58-2.866-4.19-2.7-7.105-1.763-.56-3.434-1.125-5.126-1.62-5.069-1.482-10.172-2.856-15.2-4.451a13.819,13.819,0,0,1-4.246-2.379,4.872,4.872,0,0,1-1.844-5.173,5.368,5.368,0,0,1,4.031-4.337,10.312,10.312,0,0,1,3.533-.3c8.06.862,16.109,1.821,24.164,2.726,3.031.34,6.067.641,9.1.923,4.885.454,8.985,3.02,13.334,4.916,3.119,1.36,6.235,2.724,9.187,4.014,15.392-6.755,30.754-10.515,46.426-2.81,3.691-2.319,7.14-4.766,10.845-6.734a29.34,29.34,0,0,1,12.25-3.008v49.939l-.332.042a7.3,7.3,0,0,1-.181-1.318,15.848,15.848,0,0,0-3.152-10.257c-.614-.842-1.152-1.741-1.789-2.564-2.212-2.855-2.228-5.878-.752-9.03a46.087,46.087,0,0,0,1.983-4.244c1.1-3.157-.231-4.665-3.46-3.916-2.953.685-5.863,1.552-8.65,2.3-1.231,3.5-2.347,6.656-3.438,9.817a4.338,4.338,0,0,0-.012,1.122l7.319,2.292-.136.726h-5.529l-8.549,12.224,5.026,2.468v4.684l2.417,1.683-2.1,1.659c1.812,1.166,1.984,2.827,1.982,4.675,0,2.934.856,3.745,3.826,4.13,3.771.489,7.41-.25,11.039-1.144,1.424-.351,2.87-.616,4.291-.916,1.626,3.567-2.069,4.079-3.177,6.182.953,4.954,2.926,9.917,1.772,15.343l1.684.756V383.7l-5.342,1.364-2.3,3.034.244.3,7.356-4.011v5.27c-2.241,1.184-4.581,2.645-7.094,3.693a14.446,14.446,0,0,0-7.536,6.86c-2.628,4.92-5.591,9.661-8.457,14.451a18.151,18.151,0,0,0-2.254,13.947c1.143,4.926,2.458,9.842,3.129,14.839a110.065,110.065,0,0,1,.738,14.476c.014,12.278-.153,24.556-.261,36.833-.007.8-.119,1.6-.181,2.379l-3.281.253c-1.045-2.561-1.139-5.679-1.163-8.774-.081-10.425-.2-20.852-.077-31.275a89.415,89.415,0,0,0-3.385-25.581c-2.172-7.667-.892-14.693,3.239-21.381,3.791-6.136,7.466-12.344,11.367-18.81l-9.662-8.743c-2.54,1.761-4.9,3.424-7.291,5.049q-11.724,7.976-23.473,15.911c-.423.286-.971,1.288-1.521.066a10.806,10.806,0,0,0,.875-1,41.185,41.185,0,0,1,9.365-10.111q7.89-5.852,15.79-11.687c1.115-.828,2.186-1.712,3.537-2.773-.981-1.709-1.492-3.695-2.772-4.64-5.317-3.925-8.313-9.179-9.854-15.442-.533-2.164-.472-4.085,1.563-5.563a4.164,4.164,0,0,0,1.446-1.952,23.518,23.518,0,0,0,1.224-5.332,2.661,2.661,0,0,0-1.608-2.037c-.626-.15-1.612.672-2.248,1.269a10.3,10.3,0,0,0-1.115,1.919,13.641,13.641,0,0,1-6.039,4.766c0-2.209-.019-3.907,0-5.605a8.276,8.276,0,0,0-2.2-6.133c-.82-.861-1.556-1.8-2.362-2.677-3.346-3.633-3.508-6.277-.693-10.351a14.961,14.961,0,0,0,1.985-3.463c.625-1.8-.494-2.914-2.346-2.5-3.832.861-7.653,1.768-11.983,2.773-1.133,2.37-2.482,5.194-3.876,8.113,3.782,1.577,7.329,2.7,9.468,6.05l-8.34-2.308-7.9,12.49,3.549,2.232c.291,2.288.5,3.965.711,5.6.552.466,1.079.913,1.756,1.487l-1.391.73c.126,2.1.357,3.916.316,5.73-.053,2.375.583,3.308,2.938,3.559a10.343,10.343,0,0,0,2.445-.1c3.244-.436,6.481-.93,9.725-1.368,2-.271,4.019-.479,6.029-.715l.207.593-6.134,4.563c.988,3.184,1.763,6.452,3.01,9.529,2.141,5.284,1.623,10.322-.726,15.324C439.075,397.85,437.613,400.856,436.169,403.872ZM315.7,358.9l-.264.536c3.361,1.994,6.808,3.858,10.059,6.017,3.277,2.177,6.426,4.561,9.5,7.012,2.968,2.363,6.391,4.248,8.633,7.433-1.989-.441-3.789-1.136-5.628-1.7-1.9-.586-3.843-1.072-4.878,1.067-3.113.451-4.464-1.928-6.513-3.631.628,2.925,1.458,3.739,4.3,4.744a27.645,27.645,0,0,1,5.588,2.17c3.578,2.25,8.6,3.716,11.72,6.128a30.416,30.416,0,0,1,7.215,8.048c2.978,2.827,5.919,5.436,8.651,8.247q12.06,12.408,23.98,24.951A118.107,118.107,0,0,0,409.2,448.065c2.191,1.416,4.59,2.511,7.13,3.881.208-1.4.347-2.272.466-3.149.562-4.126.987-8.276,1.7-12.374a107,107,0,0,1,11.489-32.241c2.809-5.239,5.892-10.38,7.2-16.277a15.308,15.308,0,0,0,.033-3.249l-.835-.213c-11.779,11.762-17.687,27.162-25.47,41.848a40.322,40.322,0,0,1-4.773-2.529q-13.678-9.657-27.252-19.462c-11.035-7.977-22.235-15.737-31.875-25.487a61.492,61.492,0,0,0-10.36-8.779c-5.7-3.632-11.815-6.6-17.775-9.816A32.16,32.16,0,0,0,315.7,358.9Zm32.16-28.79c.4,3.656,2.666,5.048,5.555,5.6a14.592,14.592,0,0,1,7.456,3.748c2.073,1.939,4.7,2.707,7.34,3.575,4.007,1.319,8.177,2.487,11.8,4.554,10.014,5.709,19.694,12,29.675,17.772,7.4,4.277,15.051,8.113,22.611,12.106a14.9,14.9,0,0,0,2.547.817l.564-.529c-.751-2.084-1.5-4.167-2.143-5.942a77.771,77.771,0,0,1-8.818-.063c-4.106-.489-6.229-3.234-6.234-7.369,0-1.189.291-2.5-.112-3.543a11.967,11.967,0,0,1-.84-7.593c-.942-.407-1.674-.76-2.431-1.044-11.006-4.12-21.988-8.307-33.036-12.314a46.837,46.837,0,0,1-15.3-9.384,37.321,37.321,0,0,0-5.684-4.656c-6.929-4.054-13.984-7.893-21.012-11.777a19.491,19.491,0,0,0-2.746-1.007c.079.462.053.655.134.726a6.152,6.152,0,0,0,1.058.8,152.819,152.819,0,0,1,24.832,17.269,22.249,22.249,0,0,1,2.3,2.6l-.409.417c-2.829-.993-5.483-2.707-8.547-2.369-2.217,2.3-3.2,2.335-5.526.3C349.952,331.98,349.017,331.14,347.86,330.113Zm74.29-4.723,2.328-4.6c-2.843-2.444-3.439-5.679-3.26-9.137l-3.933-1.016a22.834,22.834,0,0,0-2.7-1.954c-2.237-1.176-4.513-2.288-6.826-3.3-2.849-1.252-5.675-2.488-8.917-2.61-2.957-.111-5.893-.717-8.843-1.067-7.521-.889-15.041-1.782-22.57-2.6a8.262,8.262,0,0,0-2.433.458,2.739,2.739,0,0,0,1.527,3.7,18.076,18.076,0,0,0,3.335,1.241c5.587,1.542,11.169,3.109,16.788,4.526,4.756,1.2,9.575,2.146,14.339,3.317,4.244,1.043,5.626,3.448,4.717,8.248l-6.656.347a8.772,8.772,0,0,0,1.519,2.083c2.553,2.583,6.173,2.928,8.73,3.172a11.026,11.026,0,0,0,3.158.09c2.036-.3,4.083-.521,6.131-.724C419.683,325.454,420.8,325.452,422.15,325.39Zm-6.358,79.845,4.487-7.464c-.923-.464-1.569-.81-2.233-1.119-9.244-4.3-18.5-8.58-27.725-12.919a12.141,12.141,0,0,1-3.113-2.1c-4.383-4.136-8.689-8.355-13.046-12.519a21.281,21.281,0,0,0-2.139-1.563l-2.6,3c1.805.3,3.153.336,3.919,2.135a54.068,54.068,0,0,0,3.96,6.9c.6.981,1.375,1.857,2.065,2.774-1.589,1.661-3.043.306-4.552.47a60.378,60.378,0,0,0,6.206,3.856q15.489,8.436,31.009,16.814C413.191,404.121,414.424,404.606,415.792,405.235Zm69.031-37.87c-4.506-.361-9.058.135-13.295-2.352-.959,1.424-1.844,2.773-2.766,4.1a3.417,3.417,0,0,0-.207,3.553c2.437,6.063,7.345,9.891,12.217,13.991,2.028-2.774,3.96-5.389,5.849-8.033a2.057,2.057,0,0,0,.365-1.246A33.76,33.76,0,0,0,484.823,367.365ZM355.284,360.78l-.261.663c4.809,2.387,9.554,4.937,15.095,5.409Zm16.226,15.813a1.374,1.374,0,0,0-1.12-1.987c-1.854-.351-3.728-.592-5.675-.891C365.915,376.115,368.427,377.145,371.51,376.593Zm28.284-59.98.027-.543-7.628-1.049c-.2,1.489.223,2.051,1.254,2C395.564,316.917,397.679,316.753,399.794,316.613Zm-49.606,22.16-.149.31,4.3,2.757,1.447-1.3-.474-.7ZM328.7,383.511c3.734,2.946,3.791,2.956,4.953,1Zm40.7-15.026c-1.626-.223-3.125-.207-3.467,1.925C368.005,371.27,368.345,369.231,369.4,368.485Zm1.849,11.7-4.518-.438C368.589,381.747,369.378,381.827,371.249,380.188Zm-22.76-52.23,3.535,1.065.327-.528L350.7,326.5Z"/><path d="M329.4,499.852c0-.717.038-1.437-.009-2.151a13.786,13.786,0,0,0-1.093-3.133,67.215,67.215,0,0,1-2.455-9.664q-3.5-22.942-6.7-45.929c-1.245-8.989-2.1-18.033-3.32-27.026-.657-4.836-2.116-9.453-5.475-13.224-.189-.212-.424-.382-.853-.763-.269,1.708-.461,3.211-.749,4.7a21.9,21.9,0,0,1-9.059,13.862,72.34,72.34,0,0,1-6.324,4.2c-4.955,2.87-6.454,9.581-4.112,14.519a4.893,4.893,0,0,1,.221.88c-2.635-1.035-5.228-4.942-5.232-8.441a21.78,21.78,0,0,1,1.19-5.589c.766-2.784,1.856-5.5,2.424-8.315a8.731,8.731,0,0,0-3.062-9.054,70.19,70.19,0,0,0-9.165-5.86c-4.036-2.224-8.257-4.11-12.356-6.223-7.21-3.717-12.578-9.422-17.072-16.041-4.179-6.157-8.586-12.175-12.463-18.518a43.827,43.827,0,0,1-6.43-29.083,14.8,14.8,0,0,1,.381-1.586l.523-.056c.234.65.5,1.291.7,1.952,1.009,3.348,1.964,6.714,3.01,10.051a66.547,66.547,0,0,0,7.3,16.248c3.9,6.075,7.769,12.172,11.69,18.234,4.4,6.8,10.438,11.75,17.5,15.57,4.452,2.407,8.928,4.78,13.274,7.369,4.566,2.721,8.439,6.163,9.91,11.572.368,1.353.552,2.756.905,4.576,1.775-4.57,2.508-8.913,1.119-13.183-1.721-5.289-3.854-10.457-6.053-15.571-1.674-3.892-3.731-7.619-5.606-11.424a7.648,7.648,0,0,1-.332-1.086C288.56,374.254,300,396.783,299.3,406.6c3.1-6.17,3.71-12.253.569-18.046a105.463,105.463,0,0,0-9.31-13.872c-6.661-8.656-11.375-18.3-15.3-28.4-.071-.183-.009-.417.357-.848l18.342,26.229a37.836,37.836,0,0,0-7.784-17.855c-3.017-3.97-6.185-7.828-9.144-11.841-4.906-6.653-7.984-14.264-11.143-21.823a86.076,86.076,0,0,0-12.776-21.4c-3.066-3.754-4.64-3.827-7.673-.081a14.66,14.66,0,0,0-2.164,3.866,49.5,49.5,0,0,0-3.19,14.782c-.043.644-.122,1.287-.2,2.113-2.014-2.645-2.047-11.437-.22-18.114-2.21,1.557-4.674,6.4-5.723,12.556-.787,4.62-.948,9.347-1.428,14.449-3.257-7.768-3.921-15.3-.959-23.048a29.189,29.189,0,0,0-6.148,13.651c-2.176,12.754-4.385,25.513-6.037,38.34-.851,6.6.99,12.958,4.75,18.975-.419-5.268-3.064-9.989-1.513-15.656,3.733,6.764,8.124,12.7,7.547,20.473l7.909,3.976.608-.4a19.917,19.917,0,0,0-.845-3.67c-1.661-3.821-3.558-7.539-5.189-11.371-1.537-3.61-2.852-7.315-4.264-10.979l.435-.284a13.054,13.054,0,0,1,1.03,1.171c2.715,3.915,5.253,7.964,8.153,11.735a33.769,33.769,0,0,1,7.015,19.41,28.431,28.431,0,0,0,3.27,11.973,20.091,20.091,0,0,0,13.208,10.449c-2.431-3.1-5.124-6.12-7.336-9.462a19.045,19.045,0,0,1-3.111-11.519c3.205,5.285,5.972,10.909,10.933,14.681a180.3,180.3,0,0,0,15.277,9.993,18.458,18.458,0,0,0-2.537-10.183c-1.685-3.026-3.665-5.887-5.652-9.036a5.609,5.609,0,0,1,1.318.463c7.327,5.07,12.3,11.612,12.947,20.838.3,4.237-.688,8.28-1.812,12.3-.26.932-.56,1.852-.815,2.785-.9,3.3-1.815,6.6-.487,10.058l-.43.176A7.024,7.024,0,0,1,278.729,443a14.614,14.614,0,0,1-1.98-9.218,28.163,28.163,0,0,0,.289-4.67c-.2-4.155-3-7.413-7.43-8.524-1.387,6.225-5.574,9.747-11.732,11.223,3.2-3.493,6.447-6.941,6.027-12.547-10.909-2.517-18.865-8.586-22.384-19.459-10.264.289-18.985-2.729-25.809-10.058a23.993,23.993,0,0,0-19.723,18.587c-1.359,6.155-2,12.48-2.786,18.75-1.664,13.211-3.114,26.449-4.848,39.65-1.2,9.141-2.66,18.251-4.158,27.349a53.171,53.171,0,0,1-2.1,6.867c-1.6-.978-1.369-1.717-.5-2.5a9.863,9.863,0,0,1-1.381-6.274c.846-7.241,1.8-14.469,2.676-21.707,1.3-10.785,2.524-21.58,3.876-32.358,1.269-10.109,2.373-20.252,4.081-30.29,1.808-10.619,8.469-17.428,18.433-21.16,1.311-.491,2.6-1.047,4.071-1.644a16.665,16.665,0,0,0-.645-2c-5.01-10.549-4.715-21.345-1.35-32.215,1.45-4.687,3.564-9.183,4.814-13.915,1.764-6.682,2.88-13.532,4.506-20.254,1.633-6.747,4.388-12.978,9.574-17.854a17.854,17.854,0,0,1,10.255-5,4.043,4.043,0,0,0,1.661-.515c9.532-6.128,18.909-4.847,27.858,1.034,8.209,5.394,13.2,13.423,16.428,22.526,1.886,5.324,3.137,10.873,5,16.205,2.164,6.174,4.666,12.231,7.071,18.318a43.707,43.707,0,0,1,2.533,21.3A14.805,14.805,0,0,0,303.6,383a5.942,5.942,0,0,1,.383.549,32.291,32.291,0,0,0,8.818,10.57c5.3,4.246,7.282,10.6,8.148,17.153,1.45,10.988,2.674,22,4.058,33,1.375,10.923,2.83,21.836,4.251,32.753.594,4.572,1.514,9.132,1.671,13.718.1,3.024.336,6.258-1.015,9.183Zm-33.132-136.6a12.873,12.873,0,0,0-.308-2.166c-1.436-4.528-2.641-9.157-4.455-13.532a141.021,141.021,0,0,1-6.619-18.469c-1.758-6.775-3.633-13.522-7.425-19.537C273.9,303.9,269.55,299.1,263.344,296.3a17.585,17.585,0,0,0-10.055-1.665,9.254,9.254,0,0,0,.781.893c7.591,6.273,12.624,14.37,16.584,23.234,3.77,8.44,7.784,16.732,13.541,24.066C289.105,349.088,294.01,355.372,296.269,363.247Zm-74.646,23.71c2.2,4.15,14.064,8.714,18.306,7.411-.171-1.457-.348-2.966-.529-4.5a16.9,16.9,0,0,1-8.922-4.623,3.207,3.207,0,0,0-2.636-.663C225.72,385.183,223.7,386.136,221.623,386.957Zm1.3-6.052a31.49,31.49,0,0,1-6.486-13.037,42.775,42.775,0,0,1-.754-14.061c-2.98,10.089-2.59,19.834,2.885,29.347Z"/><path d="M214.46,503.236a13.156,13.156,0,0,1-.255-2.452c.457-4.961,1.217-9.908,1.391-14.877.122-3.464-.512-6.956-.851-10.432a19.067,19.067,0,0,0-.694-3.474c-2.706,11.648-3.9,23.612-7.466,35.4l-2.567-1.634.7-1.831,1.185,1.408.383-1.6-2.647-.652c.217-2.416.272-4.917.69-7.355,1.71-9.972,3.675-19.9,5.268-29.891,1.346-8.445,2.292-16.954,3.451-25.429.393-2.875.885-5.736,1.365-8.6a7.809,7.809,0,0,1,.5-1.381h.507c.321,2.586.7,5.166.954,7.758,1.326,13.323,2.567,26.655,3.949,39.973.791,7.615-.523,14.98-2.262,22.315C217.686,502.075,216.635,503.009,214.46,503.236Z"/><path d="M295.7,433.886c.433.4.655.512.728.687a5.4,5.4,0,0,1,.39,1.275q4.735,32.1,9.43,64.212a24.925,24.925,0,0,1,.02,3.447l-3.732.714c-2.87-11.336-4.2-22.85-6.283-34.3-1.981,5.809-2.509,16.507-1.469,23.7.536,3.7.674,7.473.858,11.218a3.057,3.057,0,0,1-1.264,2.054V505.5l-1.041-.132.436-1.815-1.257.361c-2.711-7.512-4.3-15.172-3.267-23.151,1.379-10.614,3-21.2,4.458-31.8.6-4.344,1.03-8.71,1.557-13.064C295.338,435.292,295.521,434.7,295.7,433.886Z"/><path class="cls-1" d="M524.571,3.678V519.963H4V3.678H524.571m4-4H0V523.963H528.571V-.322Z"/><path class="cls-2" d="M525.268,521.049H4V3.459H525.268ZM34,491.049H495.268V33.459H34Z"/><path d="M185.168,227.458A11.075,11.075,0,0,1,174.533,216.4a11.478,11.478,0,0,1,11.585-10.97c6.168.16,11.17,5.115,11.034,10.93A11.637,11.637,0,0,1,185.168,227.458Zm.475-5.257c3.414.029,6.175-2.4,6.23-5.481.061-3.422-2.608-5.96-6.251-5.943a6.024,6.024,0,0,0-5.906,5.646A5.81,5.81,0,0,0,185.643,222.2Z"/><path d="M105.026,236.5a7.92,7.92,0,0,1-7.831,7.671,7.761,7.761,0,1,1,.581-15.5A7.462,7.462,0,0,1,105.026,236.5Zm-7.685,3.019a3.451,3.451,0,0,0,3.549-3.4A3.785,3.785,0,0,0,97.43,233a3.71,3.71,0,0,0-3.529,3.255A3.52,3.52,0,0,0,97.341,239.516Z"/><path d="M337.033,210.258c-4.446.021-7.628-3.235-7.689-7.868a8.09,8.09,0,0,1,8-8.041c4.05-.081,7.87,3.825,7.826,8A8.191,8.191,0,0,1,337.033,210.258Zm3.922-7.75A3.625,3.625,0,0,0,337,198.775a4,4,0,0,0-3.669,4.139c.009,1.428,2.177,3.714,3.485,3.673A4.537,4.537,0,0,0,340.955,202.508Z"/><path d="M335.137,185.1a7.605,7.605,0,1,1-15.207.318c-.074-4.061,3.36-7.719,7.213-7.682C331.693,177.778,335.106,180.921,335.137,185.1Zm-7.512,3.391a3.744,3.744,0,0,0,3.533-3.308,4.006,4.006,0,0,0-3.565-3.583,3.861,3.861,0,0,0-3.4,3.489A3.728,3.728,0,0,0,327.625,188.489Z"/><path d="M433.294,217.938c-4.345-.123-7.451-3.29-7.278-7.42a7.419,7.419,0,0,1,7.685-7.128,7.566,7.566,0,0,1,6.984,7.64A7.266,7.266,0,0,1,433.294,217.938Zm3.5-7.61a3.8,3.8,0,0,0-3.584-3.239,3.645,3.645,0,0,0-3.174,3.394,3.411,3.411,0,0,0,3.716,3.238A3.2,3.2,0,0,0,436.8,210.328Z"/><path d="M453.5,228.4a7.114,7.114,0,0,1-7.357,7.14,6.94,6.94,0,0,1-7-6.976c.048-4.355,3.076-7.516,7.239-7.559A7.122,7.122,0,0,1,453.5,228.4Zm-7.118-3.165a3.819,3.819,0,0,0-3.481,3.1c-.105,1.29,1.773,3.686,2.94,3.751,1.664.093,3.965-1.915,4-3.485A3.659,3.659,0,0,0,446.382,225.231Z"/><path d="M214.731,179.376a6.631,6.631,0,1,1-.168-13.258,6.909,6.909,0,0,1,6.958,6.563A6.832,6.832,0,0,1,214.731,179.376Zm.009-9.352c-1.431.175-2.75.844-2.783,2.627a2.582,2.582,0,0,0,2.652,2.689c1.479.111,2.783-1.511,2.754-3.137S216.379,170.037,214.74,170.024Z"/><path d="M325.818,235.577a5.959,5.959,0,0,1-6.129-6.109,6.039,6.039,0,0,1,6.07-6.415,6.224,6.224,0,0,1,6.292,6.3A5.982,5.982,0,0,1,325.818,235.577Zm3.023-7.511c-2.758-1.344-4.41-1.268-4.926.375a2.827,2.827,0,0,0,1.107,2.531C327.677,232.113,327.735,229.473,328.841,228.066Z"/><path d="M91.572,258.094a6.135,6.135,0,0,1,6.282,6.253,6.3,6.3,0,0,1-6.618,6.185,6,6,0,0,1-6.061-5.961A6.468,6.468,0,0,1,91.572,258.094Zm.1,3.593-2.909,2.23c.867.894,1.856,2.6,2.573,2.491,1.054-.158,1.915-1.61,2.858-2.51Z"/><path d="M455.347,253.778a6.406,6.406,0,0,1-6.407,6.462,6.292,6.292,0,0,1-6.136-6.453,6.457,6.457,0,0,1,6.222-6.446A6.071,6.071,0,0,1,455.347,253.778Zm-5.975-3.491c-1.142,1.508-2.339,2.412-2.5,3.472a2.351,2.351,0,0,0,2.234,2.943c1.424.059,3.335-1.783,2.891-2.993C451.6,252.615,450.545,251.76,449.372,250.287Z"/><path d="M109.4,254.836a5.661,5.661,0,0,1,5.912-5.561,5.2,5.2,0,0,1,5.106,5.048,5.458,5.458,0,0,1-5.319,5.589C111.664,259.931,109.424,257.937,109.4,254.836Zm6.32,3.186c-.111.15.116-.054.215-.309a21.235,21.235,0,0,0,.767-2.251,2,2,0,0,0-2.473-2.544c-1.455.305-1.918,1.681-1.452,3.06Z"/><path d="M171.531,165.853c-2.45-.186-5.126-2.614-4.8-4.631.678-4.174,1.769-6.336,5.108-6.164a5.464,5.464,0,0,1,5.042,5.433C176.693,163.547,174.189,166.055,171.531,165.853Zm-.419-7.4c-.771,1.086-1.589,1.765-1.651,2.508-.036.425,1.225,1.4,1.776,1.316a2.487,2.487,0,0,0,1.473-1.769C172.793,160.046,171.9,159.408,171.112,158.454Z"/><path d="M72.165,256.556c-2.709-.05-4.169-1.356-4.179-3.738a4.272,4.272,0,0,1,8.54-.161C76.469,255.041,74.721,256.6,72.165,256.556Zm-.15-1.64.877-.026.213-3.171c-.71.068-1.726-.138-2.076.253C69.791,253.357,71.037,254.143,72.015,254.916Z"/><path d="M143.647,165.749a3.2,3.2,0,0,1-3.315-3.1,4.053,4.053,0,0,1,4.106-4.235,3.182,3.182,0,0,1,3.216,3.187A4.158,4.158,0,0,1,143.647,165.749Z"/><path d="M468.828,258.41a11.4,11.4,0,0,1-1.062-1.039c-.42-.5-.692-1.132-1.134-1.608-.919-.989-1.538-1.9-.494-3.242,1.119-1.437,2.6-2.266,4.183-1.519a4.776,4.776,0,0,1,2.442,2.942A3.8,3.8,0,0,1,468.828,258.41Z"/><path d="M226.022,179.346a3.4,3.4,0,0,1,3.529,3.425,3.939,3.939,0,0,1-3.595,3.768,3.434,3.434,0,0,1-3.617-3.58A3.675,3.675,0,0,1,226.022,179.346Z"/><path d="M168.174,202.387c.02-1.668,1.464-3.452,2.747-3a3.826,3.826,0,0,1,2.22,2.422c.265,1.646-.98,2.741-2.64,2.839A2.028,2.028,0,0,1,168.174,202.387Z"/><path d="M329.49,245.734c-.369,2.2-1.2,3.252-2.819,3.275a2.209,2.209,0,0,1-2.389-2.3c-.086-1.419,1.467-3.095,2.758-2.714A8.5,8.5,0,0,1,329.49,245.734Z"/><path d="M160.373,146.262c-1.459,1.141-2.338,2.355-3.12,2.295a3.209,3.209,0,0,1-2.178-2.133,1.942,1.942,0,0,1,2.2-2.352C158.166,144.2,158.939,145.2,160.373,146.262Z"/></g></svg>