<svg xmlns="http://www.w3.org/2000/svg" viewBox="0 0 528.571 524.286"><defs><style>.cls-1{fill:#616060;}.cls-2{fill:#8d8989;}.cls-3{stroke:#000;stroke-miterlimit:10;stroke-width:2px;}</style></defs><title>icon</title><g id="Layer_33" data-name="Layer 33"><path class="cls-1" d="M524.571,4V520.286H4V4H524.571m4-4H0V524.286H528.571V0Z"/><path class="cls-2" d="M525.267,521.371H4V3.781H525.267ZM34,491.371H495.267V33.781H34Z"/><path class="cls-3" d="M337.574,278.154q-4.242,4.715-8.483,9.43l.128.227c.807-.535,1.581-1.13,2.426-1.594,3.024-1.661,6.347-1.67,9.584-1.232,7.924,1.072,15.8,2.5,23.726,3.551,4.277.569,8.614.778,12.931.92,1.495.049,3.009-.612,4.521-.915a7.617,7.617,0,0,1,3.1-.105,42.526,42.526,0,0,1-17.637,10.484c3.281,4.809,6.5,9.6,9.8,14.346q15.438,22.194,30.94,44.345c4.429,6.308,10.294,10.652,17.394,13.915,20.978,9.639,41.731,19.771,62.571,29.711a.642.642,0,0,1,.211.125c.666.778,1.326,1.56,1.988,2.34a8.868,8.868,0,0,1-2.992-.289c-15.169-7.369-30.273-14.871-45.457-22.208-5.746-2.777-11.574-5.428-17.518-7.741a38.516,38.516,0,0,1-17.856-14.131C394.989,342.3,383.171,325.171,371.3,308.08c-1.636-2.355-2.9-5.137-5-6.957-2.4-2.084-5.3.3-7.967.571a56.285,56.285,0,0,1-23.246-2.314c-2.1-.67-4.263-1.13-6.345-1.838a46.879,46.879,0,0,1-4.387-2.053c5.671-4.614,12.254-3.146,17.874-5.153-7.429-.491-14.918-1.9-20.968,4.742-7.722,8.472-15.765,16.652-23.666,24.961-1.044,1.1-1.894,2.216-.007,3.341,2.393-2.888,5.756-3.572,9.191-3.544,6.307.052,12.613.363,18.916.652,5.382.246,10.219-1.534,15.312-3.739-9-1.806-17.648-3.537-26.294-5.284-1.157-.234-2.88-.239-2.458-1.932.211-.847,1.615-1.756,2.626-1.982,3.787-.844,7.241.365,10.592,2.112a38.49,38.49,0,0,0,18.795,4.788,20.643,20.643,0,0,0,2.739-.389l-30.665-8.587c1.015-3.105,3.506-3.4,5.695-3.858a22.423,22.423,0,0,1,12.043,1.184,41.265,41.265,0,0,0,22.188,1.7,13.159,13.159,0,0,1,2.605-.024l.127,1.213c-3.288.588-6.556,1.4-9.87,1.711-5.2.483-10.208-.809-15.2-2.2-4.542-1.269-9.142-2.642-14.63-.665,11.96,1.978,22.353,7.729,34.27,7.264-1.042,3.013-12.932,8.088-24.52,10.825,1.393,7.506-1.031,14.485-3.2,21.572,3.586-2.03,6.007-5.62,7.308-10.754a12.431,12.431,0,0,1,.541-2.135,5.514,5.514,0,0,1,1.133-1.253c.292.553.894,1.144.83,1.652a19.847,19.847,0,0,1-9.64,15.2c-1.285.788-2.551,1.606-3.825,2.411l.469.769c1.737-1.086,3.482-2.159,5.209-3.26,3.324-2.117,6.86-3.138,10.741-1.884a6.034,6.034,0,0,1,2.91,1.673,4.949,4.949,0,0,1,1.1,3.493,3.525,3.525,0,0,1-2.581,2.075,136.309,136.309,0,0,1-16.121.688c-13.3-.562-25.98-4.525-38.83-7.6-10.072-2.407-20.236-4.574-30.719-4.343a21.544,21.544,0,0,0-13.274,5.019c-4.156,3.34-4.325,8.569-.646,12.543.772.834,1.661,1.56,2.343,2.193,0-2.785-.35-5.676.076-8.449.773-5.036,4.171-8.054,8.622-8.281,4.368-.223,8.25,2.792,9.676,7.549a20.267,20.267,0,0,1-.422,12.552,6.854,6.854,0,0,1-5.274,4.658l-.153.687c6.019,1.684,12.034,3.382,18.058,5.05,7.921,2.193,15.964,4.022,23.741,6.642,7.218,2.431,12.618,7.76,17.929,13.061,7.554,7.541,15.473,14.623,24.745,20.094,7.723,4.556,16.077,7.566,24.9,7.26,16.8-.583,31.086,5.528,44.815,14.283,20.475,13.056,40.084,27.309,59.39,42a14.648,14.648,0,0,1,2.484,1.982c.4.472.31,1.348.441,2.043-.641-.081-1.446.058-1.9-.278-4.346-3.22-8.59-6.577-12.942-9.789-18.857-13.915-37.712-27.834-58.134-39.445-9.566-5.439-19.668-8.493-30.842-8.259-14.2.3-26.812-4.6-37.858-13.373-5.947-4.725-11.576-9.851-17.394-14.834-3.122,5.724-8.329,7.743-14.673,7.731q-45.04-.084-90.079-.11c-1.313,0-2.625-.017-3.937-.041-1.373-.024-2.6-.218-2.091-1.91h-2.924a8.3,8.3,0,0,1,.847-2.784c3.105-3.958,6.257-7.824,6.151-13.305-.01-.529,1.27-1.3,2.083-1.582,1.807-.624,3.755-.644,4.043-3.384.166-1.575,1.985-1.491,4.473.293l22.378-20.463c-4.945-4.818-3.8-9.793-.948-15.081,3.383-6.265,6.5-12.681,9.561-19.111a61.164,61.164,0,0,1,10.841-15.958c6.972-7.38,13.5-15.188,20.029-22.972a14.566,14.566,0,0,1,12.284-5.468c3.764.109,7.525.358,11.287.545l3.054.153c1.257-4.864,1.526-10,4.43-14.116l1.037.338c-.893,4.235-2.284,8.44-2.539,12.713-.259,4.354.6,8.775,1,13.525-2.172-1.906-2.172-1.906-3.228-9.34a11.991,11.991,0,0,0-.552,2.041,20.3,20.3,0,0,0-.254,5.128c1.213,7.174-2.184,12.244-7.1,16.818-2.2,2.05-4.107,4.426-6.115,6.682-.222.249-.234.686-.525,1.617a13.231,13.231,0,0,0,1.668-1.2c2.906-3.116,5.882-6.175,8.642-9.417a23.7,23.7,0,0,0,4.082-6.061c2.342-5.709,7.311-9.153,11.148-13.547,4.364-5,9.125-9.644,13.663-14.49a30.165,30.165,0,0,0,2.269-3.132,5.438,5.438,0,0,0,1.384-.779c2.667-2.774,5.262-5.617,7.941-8.379,1.748-1.8,2.915-3.651,1.919-6.325a8.237,8.237,0,0,1-.227-3.169c.377-7.933.8-15.865,1.18-23.351-.608.8-1.556,2.111-2.572,3.37-6.865,8.511-11.006,17.934-10,29.16.284,3.17.31,6.363.454,9.546-.63-.848-1.663-1.624-1.828-2.553-1.974-11.153-1.3-21.916,5.466-31.54,3.438-4.893,7.077-9.646,10.673-14.427a6.969,6.969,0,0,1,2.581-1.969c-3.017,11.067-5.235,22.052-1.388,33.2l.782.108a16.269,16.269,0,0,0,.51-3.325c-.195-3.845-.667-7.677-.8-11.523-.288-8.03,1.2-15.659,5.736-22.465q4.566-6.851,9.293-13.594a11.107,11.107,0,0,1,2.076-1.748c-.536,5.471-1.175,10.383-1.456,15.315-.284,4.994.063,9.967,2.189,14.709a27.037,27.037,0,0,0,2.021-10.966c-.338-5.856-.851-11.81-.163-17.589.788-6.611,4.672-12.144,8.575-17.46a2.467,2.467,0,0,1,.767-.588c.119-.069.311-.012,1.058-.012a27.169,27.169,0,0,1-1.192,3.056c-2.675,4.957-6.049,9.58-7.133,15.283a52.8,52.8,0,0,0-.016,16.916c2.357-2.356,2.075-2.561,2.728-6.941,1.894-12.706,4.564-25.326,13.588-35.136a133.537,133.537,0,0,1,16.593-14.569c4.1-3.185,8.846-5.529,13.259-8.318,2.348-1.484,4.414-3.588,6.934-4.591,7.038-2.8,12.42-8.118,18.855-11.795.928-.529,1.938-.915,3.129-1.469-4.409,6.913-9.133,13.183-12.607,20.083-3.506,6.966-5.773,14.555-8.092,22.216.9-.852,1.819-1.684,2.695-2.56,2.724-2.725,5.333-5.576,8.179-8.167,2.219-2.019,3.026-4.432,3.484-7.3a103.324,103.324,0,0,1,3.062-14.333c2.246-7.237,7.712-11.814,14.189-15.244a63.984,63.984,0,0,1,25.48-7.271,30.449,30.449,0,0,1,3.868.257c-3.508,5.664-7.776,9.923-11.921,14.255-4.092,4.277-8.377,8.371-12.208,12.97a23.215,23.215,0,0,0,2.631-2.01c5.238-5.282,11.364-9.352,17.692-13.167,1.468-.885,2.8-2,4.241-2.928a5.416,5.416,0,0,1,1.557-.429c.109.589.448,1.25.29,1.756-1.141,3.651-2.718,7.039-6.163,9.159a1.806,1.806,0,0,0-.825,1.19l4.977-2.357a47.54,47.54,0,0,1-10.135,22.813l4.517-3.514a7.51,7.51,0,0,1,.082,2.214c-3.072,9.044-7.885,16.675-17.576,19.693-6.681,2.08-13.5,3.714-20.287,5.451-5.421,1.387-10.845,2.8-16.332,3.878-4.351.852-8.577,1.826-12.244,4.455a1.731,1.731,0,0,0-.773,1.068q2.543-1.035,5.086-2.07c8.234-3.344,16.965-4.483,25.655-5.846,9.835-1.542,19.737-2.9,28.407-8.425a14.349,14.349,0,0,1,2.844-.964,11.925,11.925,0,0,1-.432,2.264c-7.363,16.294-19.248,27.323-37.06,31-5.411,1.116-11.027,1.334-16.567,1.7-5.476.366-10.973.451-16.463.558-1.772.035-3.788.233-5.274-.5-2.8-1.375-4.285.148-5.8,1.428H428.6l.081.164a91.509,91.509,0,0,1-9.313,1.22c-6.393.208-12.8.041-19.195.16a19.228,19.228,0,0,0-5.423,1.086l25.3,3.743c-12.075-.687-24.254-3.865-35.661,3.035,8.28-4.057,16.663-1.08,25-.264a61.791,61.791,0,0,1,7.918,1.484c-9.7-.418-19.351-2.748-29.111-.434a56.151,56.151,0,0,1,6.074.72,22.554,22.554,0,0,1,6.7,2.167c2.844,1.713,5.757,2.007,8.919,2.054a54.959,54.959,0,0,0,34.633-11.119,73.953,73.953,0,0,0,14.534-14.924c.8-1.059,1.755-2,2.639-3l.857.508a15.733,15.733,0,0,1-1.149,2.793,63.011,63.011,0,0,1-21.827,20.5c-2.268,1.3-4.629,2.429-7.213,3.775l3.246.288a9.245,9.245,0,0,1-1.139,1.91c-8.247,7.859-17.272,13.9-29.367,13.767a90.9,90.9,0,0,1-22.716-3.083,45.423,45.423,0,0,0-7.909-1.228c14.607,5.845,29.352,10.465,45.279,4.136l.439,1.177c-3.21,3.293-6.24,6.787-9.663,9.841-9.852,8.793-21.659,10.53-34.251,8.867-3.379-.446-6.722-1.208-10.059-1.93-4.819-1.042-13.972.827-17.242,3.779a30.279,30.279,0,0,1,4.264-.429c7.167.32,14.358.452,21.487,1.182,9.7.993,19.256,1.686,28.185-3.405a29.9,29.9,0,0,1,3.261-1.338,7.4,7.4,0,0,1-.468,1.814c-4.974,7.233-10.756,13.638-18.589,17.9-6.344,3.45-13.244,3.719-20.082,2.681-6.58-1-13.016-2.921-19.548-4.279a47.279,47.279,0,0,0-7.547-.814c-2.018-.087-3.344-.373-2.22-2.817.108-.233-.1-.611-.156-.918.43-.017.941.111,1.275-.077,8.717-4.9,16.875-1.459,25.064,1.556-3.942-.472-7.857-1.266-11.812-1.583-4.818-.387-9.2.489-11.2,1.643,3.324.5,6.891.918,10.411,1.587s6.964,1.608,10.454,2.384c6.908,1.537,13.817,2.688,20.782.23,5.856-2.066,14.918-9.217,17.262-13.7-10.494,3.147-20.1,2.031-30.335.6-5.018-.7-10.131-.718-15.2-1.045l-.036.655c12.359,1.039,16.144,3.245,18.632,4.839l-20.32-4.056.014.283L373.6,279.1l-.216.707a2.622,2.622,0,0,1-.9-.013c-8.16-3.235-16.485-5.781-25.3-6.489-.827-.066-1.577-1.082-2.447-1.718Zm29.808-43.51c-2.311.089-2.406-1.918-2.942-3.312-2.967-7.7-2.152-15.73-1.863-23.293-11.219,11.8-13.6,26.164-10.331,41.7,1.7-1.586,3.549-3.187,5.259-4.923,3.316-3.368,6.555-6.811,9.826-10.223l9.021-7.731c-1.009-3.058-1.8-5.447-2.509-7.609-.2,3.11-.424,6.48-.644,9.85l-.625-.057-1.524-3.7Zm-65.42,50.122-.614-.922c-3.262,0-6.525.046-9.786-.01a13.471,13.471,0,0,0-11.4,5.041c-5.775,7.016-11.718,13.9-17.706,20.735-3.438,3.925-7.624,7.183-9.945,12.07-3.068,6.459-6.332,12.825-9.733,19.678a35.024,35.024,0,0,1,15.763-2.5c5.3.293,8.277-3.458,7.745-8.8-.486-4.881-3.285-8.227-6.5-11.469-.45-.454-.49-1.314-.72-1.987.719.075,1.661-.117,2.122.268,3.128,2.609,5.7,5.676,6.71,9.736.441,1.78.571,3.638.928,6.037,2.367-2.469,4.466-4.611,6.494-6.818a2.211,2.211,0,0,0,.521-1.538c-.195-1.936.439-3.177,2.508-3.191-.38-3.811.965-4.541,5.788-3.639l1.54-4.627c-.3-.625-.77-1.579-1.223-2.54a23.978,23.978,0,0,1-2.215-14.043c.094-.625.9-1.145,1.368-1.714l.745.356c-.53,7.406.644,14.278,6.285,20.074C295.832,305.366,297.271,294.461,301.962,284.766ZM267.647,384.771c-.045.093-.343.736-.664,1.367-2.8,5.508-6.18,10.605-12.265,12.822-6.152,2.24-12.257-.908-11.978-8.016.2-5.052,2.046-9.551,4.04-14.043,1.115-2.512,2.252-5.013,3.739-8.321,1.133,1.622,2.148,2.514,2.454,3.6,1.766,6.315-1.1,12.5-6.989,15.636a2.515,2.515,0,0,0-1.033,1.473c-1.121,4.229,1.881,8.2,6.234,7.883a10.979,10.979,0,0,0,5.647-1.992c5.855-4.526,9.241-10.73,10.927-17.857a2.447,2.447,0,0,0-1.244-2.04c-6.089-1.7-12-3.757-16.97-7.351-8.042,6.95-15.85,13.688-23.635,20.451a2.566,2.566,0,0,0-.851,1.354c-.7,4.211-.682,4.211-4.932,4.335a3.135,3.135,0,0,0-.817.321c.4,2.907-1.438,3.164-3.71,3.133-4.07-.056-7.7,1.486-11.694,3.419h86.91c-1.178-1.339-2.17-2.4-3.084-3.526-.95-1.168-1.825-2.4-2.774-3.656-1.419,1.185-2.76,2.149-3.915,3.3a7.156,7.156,0,0,1-12.013-3.153C268.09,390.874,268.041,387.559,267.647,384.771ZM437.129,174.385l.5.6c3.339-1.1,5.916-4.476,10.611-3.259A64.756,64.756,0,0,0,419.155,192.8c6.587-1.713,13.706-3.5,20.787-5.424,8.131-2.208,16.3-4.318,24.318-6.882,6.336-2.025,9.688-7.318,12.538-12.641l-37.815,12.119.019.184,18.415-4.626.136.526-23.565,8.174.2.588,16.3-4.384a2.043,2.043,0,0,1-1.167.989q-7.014,2.487-14.038,4.944a42.431,42.431,0,0,1-5.057,1.72,3.83,3.83,0,0,1-2.547-.759c-.194-.127.14-1.532.576-2.075a23.7,23.7,0,0,1,12.4-8.352c7.126-1.971,14.163-4.265,21.288-6.243,12.3-3.414,17.474-12.925,21.28-24-10.255,3.632-20.411,6.528-29.55,11.891l13.939-4.772c-7.072,3.714-14.558,6.524-20.658,11.938l11.66-5.455.239.477ZM413.808,213.4l-.058-.253c-2.35-.206-4.729-.255-7.035-.692-.982-.186-1.811-1.182-2.709-1.81a12.688,12.688,0,0,1,2.241-2.362c5.606-3.476,11.982-3.057,18.36-3.595l-16.128,4.27.181.608,15.687-1.8.064.568-17.556,2.478c11.509,3.455,22.342-.035,33.248-2.2-1.32,2.135-3.3,2.886-9.895,4.133C443.794,214.458,467,199.014,471,185.831c-3.926,1.3-7.931,3.051-12.121,3.911-8.528,1.749-17.2,2.81-25.729,4.552-5.936,1.212-11.738,3.087-17.6,4.666l.151.619,14.936-2.223.1.419-15.1,4.191.03.35,13.719-.748c-6.278,1.2-12.589,2.014-18.847,3.121-5.758,1.019-9.191,5.4-12.738,9.805Zm-61.392,47.144a15,15,0,0,1,3.514-.275,108.485,108.485,0,0,1,11.444,2.423c8.623,2.568,17.321,3.488,26.112,1.39a38.428,38.428,0,0,0,20.82-13.051c-13.153,2.665-25.081-1.05-37.149-3.017l11.678,4.375a64.335,64.335,0,0,0-24.056-2.061,24.149,24.149,0,0,0-4.1,1.167l.176.681a26.673,26.673,0,0,1,20.447,1.787c-6.906-.867-13.716-1.245-20.608.656A14.129,14.129,0,0,0,352.416,260.546Zm35.067-46.429,1.052.783c2.858-3.143,5.776-6.234,8.537-9.459a7.051,7.051,0,0,0,1.667-3.423c.512-3.968.723-7.975,1.1-11.961.661-6.945,1.914-13.781,4.8-20.168,1.539-3.405,3.571-6.586,5.442-9.98a58.551,58.551,0,0,0-5.911,4.554c-3.125,3.086-6.594,6.051-8.884,9.714C387.626,186.436,387.343,200.275,387.483,214.117Zm54.434-52.735,36.737-35.527A71.278,71.278,0,0,0,456.8,133.19C446.638,138.715,440.54,150.161,441.917,161.382Zm36.682-31.77-.478-.472c-56.811,56.077-114.669,111.114-168.6,170.053Zm-40.254,13.6c-19.3,10.245-25.053,28.063-26.864,48,2.821-2.687,5.723-5.405,8.555-8.2a5.509,5.509,0,0,0,1.023-1.931c.863-2.2,1.708-4.416,2.5-6.644C427.464,163.536,430.667,152.31,438.345,143.21Zm-128.426,205.4a23.526,23.526,0,0,0,4.4,1.015,13.711,13.711,0,0,0,5.174-.629,3.373,3.373,0,0,0,1.472-2.891c-.471-2.675-.776-5.738-3.683-7.056a63.6,63.6,0,0,0-8.083-2.818c-1.39-.415-3.644-1.169-4.2-.565-2.1,2.268-4.544,1.174-6.819,1.329-1.287.088-1.879.46-2.191,1.706-.576,2.3-1.718,2.868-3.888,1.977a23.755,23.755,0,0,1-2.835-1.647l-4.882,3.642,23.188,5.746c.951-2.457,1.771-4.752,2.754-6.975.219-.5,1.015-.734,1.545-1.092.116.628.47,1.328.305,1.87C311.535,344.314,310.729,346.36,309.919,348.606Zm70.774-102.294c-.374-.124-1.453-.458-2.514-.84-1.754-.63-3.535-1.208-5.233-1.967-1.336-.6-1.658-1.921-.482-2.708,2.176-1.455,4.566-3.529,6.927-3.61,11.746-.407,23.511-.249,35.27-.29l.037-.384-8.082,1.906,5.923.409-.041.623H381.242a31.616,31.616,0,0,0,6.318,1.195c11.1,1.4,22.193,1.935,33.214-.575,3.962-.9,6.977-3.415,10.141-6.261-6.076.257-11.714.533-17.355.72-3.915.13-7.835.122-11.753.2-6.429.13-12.9-1.069-19.284.815-1.427.422-3.085.062-4.636.062l-.376-1.08c-4.555,4.307-9.111,8.613-13.305,12.577Zm20.165-44.278c1.811-1.91,3.059-3.406,4.492-4.695a12.515,12.515,0,0,0,4.028-7.581c1.324-7.379,2.887-14.736,4.818-21.978,1.564-5.866,4.888-10.935,8.841-15.577-6.958,4.236-12.461,9.825-15.83,17.236C402.629,179.51,401.681,190.342,400.858,202.034ZM259.741,357.366c-.234-1.739-.346-3.38-.692-4.97a7.464,7.464,0,0,0-7.358-6.035c-3.243-.064-5.371,1.767-6.472,5.569-1.594,5.506.7,10.822,5.9,13.685,3.455,1.9,6.828.566,7.867-3.251A40.49,40.49,0,0,0,259.741,357.366Zm-19.084,4.611-22.436,20.474c1.666,1.75,3.331,3.5,5.149,5.408l23.367-20.7Zm87.4-66.47c2.2.5,4.211,1.614,6.239-.257a3.49,3.49,0,0,1,2.1-.526c6.134-.2,12.269-.423,18.4-.462a39.565,39.565,0,0,1,5.978.921c-4.9,0-9.211-.047-13.523.013a48.06,48.06,0,0,0-13.02,1.948c10.228,2.783,19.983,4.24,30.03.862l-2.536-2.946c2.422.456,4.533,1.285,6.562,1.119,2.166-.179,4.254-1.3,6.81-2.15C359.074,293.136,343.54,291.019,328.059,295.507Zm52.06-72.993c3.845-3.288,5.5-6.719,5.157-11.564a78.166,78.166,0,0,1,2.826-25.465c.957-3.626,2.405-7.122,3.63-10.677l-.566-.375c-2.33,3.412-5.354,6.555-6.8,10.306-1.648,4.262-2.223,9.036-2.668,13.645C380.933,206.269,380.636,214.2,380.119,222.514ZM265.555,339.237c2.888.453,5.808.532,8.465,1.41,5.087,1.68,9.506,1.325,13.235-2.825.105-.117.178-.261,0,.006l-9.829-10.4Zm47.489-17.108,10.076,21.8c3.13-7.106,4.815-13.817,3.633-21.06Zm3.217,13.767c-1.664-4.333-3.31-8.657-5-12.964a1.927,1.927,0,0,0-.914-1c-2.239-.931-9.454,1.029-11.233,2.952,2,2.583,3.975,5.172,6.008,7.714a2.793,2.793,0,0,0,1.39.895C309.728,334.326,312.963,335.091,316.261,335.9Zm-33.554,56.561.694.188c1.465-2.1,3.314-4.045,4.307-6.352,1.656-3.847.418-5.888-3.566-6.982-1.1-.3-2.2-.591-3.3-.856-3.715-.89-6.855-.078-9.394,3.24C278.065,382.414,281.717,386.064,282.707,392.457Zm9.526,6.606c-1.82-3.065-2.472-5.09-2.184-8.393.408-4.693,3.976-6.873,8.145-4.737,5.439,2.786,8.659,7.009,7.578,13.618l.639.289,5-5.836a44.563,44.563,0,0,0-21.233-13.041c1.248,4.437-1,7.825-3.158,11.168Zm-.478-7.192c.532,4.072,3.086,6.508,8.075,7.52,3.067.623,5.026-1.388,3.624-4.214a23.114,23.114,0,0,0-5.109-6.331c-.958-.888-3.191-1.6-4.076-1.076C293.049,388.488,292.558,390.445,291.755,391.871Zm-21.539-3.736c.076,2.929.537,5.707,2.99,7.715a4.3,4.3,0,0,0,4.821.515,3.72,3.72,0,0,0,2.236-3.957,8.187,8.187,0,0,0-5.654-7.515C270.928,383.6,270.152,384.172,270.216,388.135Zm30.118-53.92c-6.764-4.8-10.842-12.9-19.585-15.168a4.471,4.471,0,0,0,1.048,2.06c3.89,4.081,7.873,8.076,11.7,12.21C295.507,335.481,297.722,335.364,300.334,334.215Zm-93.995,60.072a30.773,30.773,0,0,1,3.539-2.976c.625-.4,1.673-.135,2.529-.172-.317.8-.418,1.841-.993,2.337a49.69,49.69,0,0,1-4.5,3.166c2.194-.273,4.2-.9,6.249-1.252s4.376-.015,4.545-3.122c.021-.389.828-.735,1.42-1.225-1.6-1.556-3.067-3.092-4.658-4.491-.736-.648-1.9-1.62-2.535-1.414-1.686.545-3.9.608-4.117,3.361A33.1,33.1,0,0,1,206.339,394.287Zm173.02-199.41c-1.871,9.345-6.9,18.523-1.221,28.281ZM332.8,287.5c14.189.221,27.808,5.687,42.732,4.48-1.3-.274-1.994-.458-2.7-.563q-13.871-2.058-27.746-4.092C340.976,286.726,336.864,286.355,332.8,287.5Zm84.067-45.068H383.95C395.007,244.581,405.9,246.817,416.865,242.43ZM378.5,233.107l21.87-.726-.043-.68C393.1,230.392,385.81,228.135,378.5,233.107ZM302.279,289.3c-1.95,5.939-3.9,11.877-5.943,18.1C303.178,302.809,303.38,296.274,302.279,289.3Zm23.579,60.92.16.836c4.13-.236,8.263-.428,12.385-.754.665-.053,1.283-.7,1.923-1.079a8.342,8.342,0,0,0-1.748-1.765,8.081,8.081,0,0,0-2.587-.613C332,346.234,329.159,348.875,325.858,350.219Zm-23.564-39.526-.331-.293c-2.509,2.73-4.992,5.486-7.536,8.183-2.246,2.382-2.417,2.322-4.329-.245-.793-1.063-1.734-2.015-2.884-3.335-.012,3.428,8.759,13.323,13.318,15.441l-7.239-8.422ZM484.453,137.8l-.469-.681-17,11.48C474.717,147.76,479.914,143.256,484.453,137.8ZM292.87,338.79l.847-.648a7.005,7.005,0,0,0-.959-2.081q-6.237-6.409-12.608-12.687c-.324-.32-.967-.316-1.462-.462.013.579-.221,1.4.075,1.7C283.425,329.379,288.156,334.077,292.87,338.79Zm-45.915,44.437c3.92-2.687,4.986-6.125,3.448-9.378Zm98.6-115.073a42.392,42.392,0,0,1,4.978-3.3,18.2,18.2,0,0,1,4.856-1.367,43.536,43.536,0,0,1,4.963-.258C354.889,262.529,349.229,261.463,345.56,268.154ZM214.779,382l-.619.62,7.252,7.855.548-.474Zm54.486-.694,4.3-4.671-3.128-.43C270.069,377.79,269.719,379.322,269.265,381.3Zm54.688-69.449.312-.715-9.011-2.158-.185.762Z"/><path class="cls-3" d="M121.507,345.491h19.107q41.719.009,83.438.064A17.5,17.5,0,0,1,228.2,346.6c-.909,2.2-2.843,1.184-4.278,1.187q-51.073.094-102.148.024a6.777,6.777,0,0,0-5.665,2.306c-9.688,10.362-19.814,20.316-29.46,30.716a149.037,149.037,0,0,0-15.2,18.594c-6.028,9.088-5.339,19.886.845,27.5,5.158,6.349,12.221,9.23,20.149,9.9a131.529,131.529,0,0,0,13.716.048,4.174,4.174,0,0,0,2.9-.986,36.072,36.072,0,0,1,14.278-10.816,17.34,17.34,0,0,0-9.758-7.655c-.733-.222-1.268-1.1-1.895-1.677a6.634,6.634,0,0,1,2.484-.518c4.482.939,7.8,3.692,10.425,7.287a3.421,3.421,0,0,0,3.54,1.761,11.14,11.14,0,0,1,5.724.644,6.971,6.971,0,0,1,3,4.01c.592,1.97-.924,3.358-2.676,4.169-1.4.647-2.875,1.134-4.656,1.825.906,7.8,1.156,15.781-2.44,23.97a12.26,12.26,0,0,0,2.679-1.061c5.517-4.241,11.193-8.306,16.434-12.869,10.386-9.043,20.524-18.37,30.769-27.574.766-.689,1.568-1.336,2.354-2l-.365-.665q-1.545,0-3.09,0-12.923.021-25.844.041a6.915,6.915,0,0,1-1.957-.07,4.993,4.993,0,0,1-1.357-1.016c.462-.345.883-.887,1.4-.994a14.239,14.239,0,0,1,2.939-.184c9.762.05,19.525.148,29.287.13a4.708,4.708,0,0,0,2.784-1.1c2.5-2.124,4.833-4.435,7.283-6.616.933-.83,2.008-1.5,3.018-2.241l.88.643a8.915,8.915,0,0,1-1.268,2.475c-2.188,2.156-4.513,4.173-7.159,6.581,1.285.058,2.061.123,2.838.123q64.732.013,129.467.026a21.24,21.24,0,0,1,3.674.248c.481.086.868.7,1.3,1.073a5.085,5.085,0,0,1-1.479.871,13.279,13.279,0,0,1-2.454.049q-66.335.018-132.669-.017a8.612,8.612,0,0,0-6.373,2.595C166.447,429.768,152.539,442,138.692,454.3c-.538.478-1.063.972-1.665,1.523,3.517-.227,6.874-.685,10.213-.578a17.871,17.871,0,0,1,6.85,1.517c3.467,1.623,3.67,5.635.235,7.271a31.024,31.024,0,0,1-10.228,2.813,51.877,51.877,0,0,1-18.267-1.409,3.065,3.065,0,0,0-3.559,1.145,119.585,119.585,0,0,1-20.806,18.689A10.935,10.935,0,0,1,99.18,486.7a21.5,21.5,0,0,1-3.109.712,11.007,11.007,0,0,1,.435-3.224c2.695-5.8,7.581-9.588,12.615-13.152,3.525-2.5,7.225-4.746,11.148-7.3-5.433-1.991-10.279-4.335-13.476-9.008-3.352-4.9-3.005-9.985-.32-15.311-3.983,0-7.712.088-11.436-.02a34.583,34.583,0,0,1-18.155-5.23c-11.779-7.607-15.069-21.055-8.458-34.3,3.792-7.6,9.61-13.642,15.39-19.674,9.984-10.417,20.1-20.7,30.162-31.049.259-.267.491-.559,1.143-1.308-3.688,0-6.837,0-9.986,0-2.134,0-4.27.07-6.4-.029-.582-.028-1.141-.553-1.71-.849.555-.417,1.1-1.185,1.667-1.195,5.574-.106,11.151-.046,16.725-.143a4.574,4.574,0,0,0,2.818-.9c5.968-5.481,11.842-11.063,17.744-16.616l-.752-1.032c-1.517-.085-3.033-.2-4.551-.251-5.644-.192-11.388.237-16.911-.675-9.815-1.622-16.464-9.719-16.6-19.713-.218-15.994-.148-31.993-.178-47.991q-.118-62.026-.22-124.052c-.013-6.965-1.357-13.511-6.188-18.9a17.338,17.338,0,0,0-19.659-4.751c-.229.088-.468.3-.677.265-.781-.113-1.552-.3-2.327-.46.447-.58.823-1.582,1.354-1.673,3.592-.612,7.29-1.746,10.818-1.383,11.292,1.163,17.836,11.107,18.4,20.791.554,9.565.54,19.17.55,28.758q.074,72.857.083,145.715a30.128,30.128,0,0,0,1.326,8.669c2.538,8.262,8.963,12.832,18.405,13.173,5.9.213,11.813.1,17.72.075a3.252,3.252,0,0,0,2.047-.539c2.551-2.393,5-4.9,7.918-7.805-1.815-.09-3-.2-4.18-.2q-15.26.07-30.518.175a8.176,8.176,0,0,1-2.442-.11c-.557-.177-.955-.851-1.423-1.3.487-.324.965-.91,1.464-.928,2.622-.095,5.249-.046,7.874-.047,9.846,0,19.692.027,29.536-.068a4.573,4.573,0,0,0,2.921-1.25q28.788-29.48,57.472-59.062c13.881-14.3,27.844-28.517,41.557-42.974,6.344-6.689,11.951-14.075,13.834-23.4,1.849-9.151,1.7-18.134-4.691-25.862a27.227,27.227,0,0,0-38.635-3.41,34.053,34.053,0,0,0-11.948,21.892c-.012.081,0,.165-.011.246-.966,7.931-1.637,6.96,6.244,9.08a26.575,26.575,0,0,0,20.89-2.546,2.94,2.94,0,0,1,1.079-.559,15.454,15.454,0,0,1,2.173.135c-.3.65-.436,1.675-.925,1.887a60.94,60.94,0,0,1-9.527,3.687c-6.8,1.664-13.459.378-19.962-2.09.646,10.347,9.508,23.017,23.21,23.606,5.7.245,10.858-1.577,13.756-7.242.285-.558,1.131-.829,1.717-1.232.08.861.533,1.938.181,2.551a15.454,15.454,0,0,1-12.963,8.079c-13.794.961-23.928-8.7-27.269-20.258-.518-1.792-.673-3.686-1.121-5.5a3.8,3.8,0,0,0-1.088-2.032c-7.4-5.69-14.925-11.21-22.26-16.978a68.351,68.351,0,0,0-34.313-14.645,108.742,108.742,0,0,0-12.514-.585c-9.927-.08-19.855-.006-29.782-.068a7.657,7.657,0,0,1-2.4-.894c.8-.465,1.607-1.336,2.409-1.335,12.057.017,24.115.052,36.17.282,11.138.213,21.847,2.694,31.363,8.5,6.82,4.161,13,9.377,19.427,14.174,4.059,3.029,8.048,6.153,12.366,9.463.612-3.7.9-7.015,1.733-10.19,3.23-12.323,10.258-21.667,22.932-24.919,17.683-4.538,32.957,4.607,36.343,21.134a37.085,37.085,0,0,1-7.184,31.1c-6.3,8.133-13.463,15.639-20.582,23.1-15.344,16.077-30.9,31.953-46.378,47.9q-18.762,19.33-37.546,38.638c-.383.4-.744.812-1.485,1.624h3.012q37.659.006,75.319.056a9.832,9.832,0,0,1,2.911.98c-1.022.435-2.042,1.246-3.066,1.25q-38.766.138-77.532.079a6.314,6.314,0,0,0-5.287,2.24,52.5,52.5,0,0,1-5.769,4.945l.7,1.2h3.008q43.32.01,86.64.069c1.1,0,2.206.7,3.31,1.073a12.188,12.188,0,0,1-3.2.909q-44.3.063-88.609-.038a9.378,9.378,0,0,0-7.58,3.284c-4.779,5.058-10.067,9.635-15.146,14.41Zm5.905,89.89c-5.72,1.088-10.837,2.022-15.933,3.067a4.373,4.373,0,0,0-2.477,1.3,11.457,11.457,0,0,0,1.167,15.225,36.807,36.807,0,0,0,7.881,5.309c4.249,2.239,4.765,1.943,6.859-2.366a32.975,32.975,0,0,0,1.258-3.188c1.658-4.552,1.73-9.286,1.561-14.041C127.668,439.008,127.531,437.332,127.412,435.381Zm.643,26.966.2,1.1c1.447.281,2.882.671,4.341.823,6.007.627,12.059,1.217,17.874-.938,1.491-.552,2.621-2.078,3.916-3.156-1.577-.849-3.12-2.332-4.739-2.419a45.089,45.089,0,0,0-11.674.554C134.534,459.037,131.35,460.954,128.055,462.347ZM126.814,433a42.1,42.1,0,0,0-1.785-4.524,1.883,1.883,0,0,0-1.687-.71,29.025,29.025,0,0,0-11.159,8.217Zm2.469-.288a27.842,27.842,0,0,0,3.925-1.732c.714-.45,1.684-1.537,1.54-2.068a3.452,3.452,0,0,0-2.021-2.129,37.863,37.863,0,0,0-5.789-.7C127.807,428.538,128.5,430.5,129.283,432.708Zm-13.374,37.826-.47-.619c-6.082,3.554-11.765,7.578-15.933,13.383l.4.479Q107.909,477.156,115.909,470.534Z"/><path class="cls-3" d="M252.429,426.122q-33.7,0-67.4,0a9.053,9.053,0,0,1-1.959-.055c-.375-.085-.987-.631-.936-.8.133-.438.53-1.054.9-1.117a23.405,23.405,0,0,1,3.915-.311q66.666-.027,133.331-.024c.164,0,.357-.059.487.006.836.422,1.659.87,2.486,1.31a7.5,7.5,0,0,1-2.434.946Q286.623,426.156,252.429,426.122Z"/><path class="cls-3" d="M249.121,478.8h70.843a3.654,3.654,0,0,1,1.221.02c.8.307,1.552.739,2.323,1.12a7.951,7.951,0,0,1-2.454.988c-3.438.136-6.884.123-10.326.117q-49.319-.079-98.637-.168c-10.821-.012-21.643.083-32.464.127a6.112,6.112,0,0,1-1.714-.041c-1.029-.307-2.011-.769-3.013-1.167a9.947,9.947,0,0,1,2.885-.948q28.412-.091,56.823-.057h14.513Z"/><path class="cls-3" d="M244.529,469.442H181.773a11.754,11.754,0,0,1-2.451-.077c-.423-.092-1.028-.646-1.035-1a1.488,1.488,0,0,1,.951-1.091,16.865,16.865,0,0,1,3.182-.2q59.925.006,119.85.026c2.3,0,4.6-.115,6.888.015.724.041,1.413.71,2.119,1.091-.675.412-1.335,1.148-2.026,1.179-2.947.131-5.9.051-8.857.051H244.529Z"/><path class="cls-3" d="M323.541,440.135a14.971,14.971,0,0,1-3.172.7q-33.7.068-67.392.043-37.753.006-75.509-.034a20.952,20.952,0,0,1-4.381-.954c.972-2.116,2.882-1.079,4.3-1.082q54.355-.084,108.711-.011c11.56,0,23.119-.012,34.679.012a19.092,19.092,0,0,1,2.687.379Z"/><path class="cls-3" d="M175.486,457.358c.63-.534,1.2-1.393,1.9-1.533a21.641,21.641,0,0,1,4.168-.146q53.279.006,106.557.069c1.142,0,3.3.807,3.268,1.036-.254,2.151-2.091,1.261-3.289,1.263q-54.509.079-109.017.06H175.92Z"/><path class="cls-3" d="M241.007,501.368c-.96.052-1.919.151-2.878.152q-67.071.035-134.141.009c-1.162,0-2.861.86-3.43-1.169a14.209,14.209,0,0,1,3.432-.878q67.317-.06,134.634.013a10.122,10.122,0,0,1,2.687.772Z"/><path class="cls-3" d="M173.471,381.8c-7.385,0-14.769-.019-22.153.02a10.359,10.359,0,0,0-3.361.483c-.9.321-2.233,1.017-2.314,1.676a3.022,3.022,0,0,0,1.549,2.451c3.8,1.4,7.637,3.239,11.584,3.606,8.706.808,17.488.794,26.235,1.211a12.051,12.051,0,0,1,3.133,1.059c-1.016.418-2.041,1.218-3.046,1.194-8.6-.205-17.214-.332-25.787-.976-3.677-.276-7.33-1.532-10.869-2.715a11.52,11.52,0,0,1-4.357-3.063,3.258,3.258,0,0,1,.835-5.39,17.274,17.274,0,0,1,6.945-1.9c15.094-.173,30.192-.116,45.288-.064a6.97,6.97,0,0,1,2.368,1c-.807.45-1.609,1.281-2.422,1.291-7.875.1-15.752.059-23.628.059Z"/><path class="cls-3" d="M221.151,450.314H176.626a9.018,9.018,0,0,1-2.2-.062c-.516-.133-.931-.658-1.391-1.008.443-.4.839-1.047,1.339-1.141a18.691,18.691,0,0,1,3.426-.181q42.557-.029,85.112-.044a21.822,21.822,0,0,1,3.68.022,8.111,8.111,0,0,1,2.3,1.252c-.741.38-1.48,1.085-2.224,1.091-9.1.079-18.2.055-27.305.057h-18.2Z"/><path class="cls-3" d="M330.312,245.029c-1.541,3.084-3.169,6.127-4.6,9.262a77.78,77.78,0,0,0-3.973,9.716c-1,3.332-1.386,6.847-2.063,10.278-.645,3.272.872,6.891-1.574,9.9a32.826,32.826,0,0,1,.49-16.051c1.34-5.254,3.208-10.374,4.693-15.075-4.131,5.049-8.315,10.909-9.465,18.076-.909,5.667-.622,11.523-.936,17.292a5.858,5.858,0,0,1-.823,1.849c-.433-.539-1.172-1.034-1.255-1.622-2.444-17.157,3.785-31.1,16.009-42.774a17.049,17.049,0,0,1,2.48-1.666Z"/><path class="cls-3" d="M165.026,369.963q-21.269,0-42.539,0a6.015,6.015,0,0,1-1.708-.074c-.383-.117-.976-.649-.924-.865a1.625,1.625,0,0,1,.92-1.093,13.7,13.7,0,0,1,2.925-.22q42.168.006,84.337.078a7.053,7.053,0,0,1,2.382.993c-.787.388-1.573,1.11-2.362,1.114-14.343.068-28.687.05-43.031.05Z"/><path class="cls-3" d="M169.725,358.876q-21.52,0-43.041,0a4.393,4.393,0,0,1-1.7-.066,6.113,6.113,0,0,1-1.406-1.272c.487-.295.965-.824,1.464-.846,2.128-.093,4.262-.036,6.393-.036l81.414.016a3.154,3.154,0,0,1,1.217.033,11.059,11.059,0,0,1,1.6,1.072,5.156,5.156,0,0,1-1.437.971,9.032,9.032,0,0,1-2.2.09q-21.151,0-42.3,0Z"/><path class="cls-3" d="M226.644,491.589q-18.212,0-36.423,0a9.729,9.729,0,0,1-2.2-.073c-.448-.106-.8-.609-1.2-.934.366-.367.672-.918,1.111-1.059a7.3,7.3,0,0,1,2.184-.206q36.545-.037,73.09,0c1.177,0,2.352.795,3.528,1.219a12.812,12.812,0,0,1-3.42,1.011C251.091,491.618,238.867,491.59,226.644,491.589Z"/><path class="cls-3" d="M100.934,488.462c11.4,0,22.951,0,34.5,0q13.269,0,26.539-.021a4.425,4.425,0,0,1,1.7.109,6.733,6.733,0,0,1,1.468,1.213c-.5.307-.99.845-1.511.88-1.712.114-3.437.038-5.157.048q-27.4.166-54.8.336c-.492,0-.983,0-1.475,0C100.491,491.028,99.916,490.335,100.934,488.462Z"/><path class="cls-3" d="M192.332,337.988q-14.007,0-28.013,0a5.663,5.663,0,0,1-1.707-.05c-.423-.139-.729-.632-1.087-.968.37-.331.7-.88,1.117-.951a17.645,17.645,0,0,1,2.94-.118q27.4.01,54.8.073a12.706,12.706,0,0,1,3.365.982,12.979,12.979,0,0,1-3.4.992C211.008,338.026,201.67,337.991,192.332,337.988Z"/><path class="cls-3" d="M146.369,402.957c-2.946,0-5.894.054-8.836-.049-.531-.019-1.039-.684-1.558-1.05.472-.322.938-.917,1.416-.925,5.968-.11,11.937-.172,17.905-.122.573,0,1.138.835,1.708,1.282-.6.291-1.192.817-1.8.835-2.943.088-5.891.039-8.836.039Z"/><path class="cls-3" d="M317.062,458.448a40.262,40.262,0,0,1-4.4-.053c-.543-.06-1.019-.734-1.525-1.128.482-.329.953-.925,1.447-.944q4.521-.178,9.05-.095c.5.01.983.592,1.474.91-.467.436-.9,1.194-1.408,1.249A43.231,43.231,0,0,1,317.062,458.448Z"/><path class="cls-3" d="M368.264,254.959,355.2,259.744C357.341,255.953,363.213,253.992,368.264,254.959Z"/></g></svg>