<svg xmlns="http://www.w3.org/2000/svg" viewBox="0 0 528.571 524.286"><defs><style>.cls-1{fill:#616060;}.cls-2{fill:#8d8989;}</style></defs><title>icon</title><g id="Layer_34" data-name="Layer 34"><path d="M114.051,261.561c-9.221,8.04-20.4,10.707-31.842,12.654-13.564,2.309-27.148,4.67-39.753,10.435-6.479,2.965-12.554,6.816-18.806,10.276-.43.238-.8.584-1.223.836-1.125.668-2.511,1.248-3.2-.2-.407-.863-.279-2.691.339-3.2,2.459-2.029,5.256-3.641,7.81-5.565a3.351,3.351,0,0,0,1.392-2.418c-1.381-8.9,1.762-16.507,6.525-23.675a236.516,236.516,0,0,0,27.65-57.884c5.67-17.374,9.426-35.217,12.878-53.135,2.532-13.143,4.9-26.338,9.364-39.016,6.2-17.6,15.318-33.337,29.805-45.49,12.122-10.169,26.273-16.12,41.634-19.353a81.442,81.442,0,0,1,26.992-1.515,16.209,16.209,0,0,1,4.549.942c.814.362,1.23,1.619,1.825,2.474-1.014.624-2.14,1.921-3.023,1.772-14.174-2.384-27.883-.335-41.37,4.045-19.46,6.321-34.246,18.523-45.07,35.764-9.115,14.52-14.016,30.562-17.284,47.2-4.279,21.791-8.275,43.65-14.85,64.907a208.52,208.52,0,0,1-16.865,40.46c-.14.25-.215.537-.569,1.444,8.387-6.6,16.372-12.633,24.042-19.042a55.511,55.511,0,0,0,8.47-9.273c6.181-8.2,8.66-17.764,9.69-27.826a107.954,107.954,0,0,1,1.955-13.408c2.27-9.784,9.8-16.043,19.855-17.251,6.445-.774,12.9-1.593,19.265-2.842a31.04,31.04,0,0,0,18.074-10.917c9.841-11.836,19.423-23.889,29.006-35.937,4.648-5.845,9.346-11.557,16.671-14.2,2.315-.837,4.657-1.628,7.034-2.261,5.165-1.376,7.226-5.463,6.473-10.656-1.228-8.464-6.01-15.192-11.3-21.593-1.417-1.713-2.983-3.32-4.248-5.137-2.49-3.576-.994-6.523,3.356-6.745,6.129-.313,11.677,1.9,17.045,4.393,25.262,11.72,42.44,30.861,51.8,57.042,5.7,15.95,6.6,32.473,5.7,49.195-.064,1.2-.17,2.407-.294,4.129.932-.789,1.508-1.2,1.993-1.7,2.411-2.482,4.7-5.095,7.217-7.458,3.55-3.326,5.052-6.962,4.314-12.069-1.192-8.256,2.181-15.859,4.944-23.41A83.592,83.592,0,0,1,305.871,92a3.63,3.63,0,0,0,.695-2.818c-3.228-11.322,2.621-19.047,9.271-23.783,9.869-7.028,21.085-10.829,32.884-12.6,35.411-5.313,68.124,2.568,97.917,21.936,22.622,14.707,36.127,35.776,40.118,62.655,3.057,20.587-.038,40.409-8.27,59.361-4.48,10.313-9.823,20.252-14.8,30.349-.688,1.4-1.765,2.313-3.38,1.5-1.437-.722-1.605-2.027-.934-3.384,2.664-5.381,5.3-10.776,8.064-16.1,6.309-12.166,11.782-24.642,14.031-38.279,4.957-30.054-.755-57.16-22.468-79.676-10.992-11.4-24.29-19.361-38.946-25.08-17.574-6.858-35.749-10.808-54.711-10.322-13.889.357-27.4,2.706-39.793,9.312a55.816,55.816,0,0,0-11.1,8.095c-3.706,3.378-4.7,8.153-3.606,13.08,4.591-4.2,10.075-5.531,16-4.747,6.274.829,11.225,4.225,14.968,9.2a48.844,48.844,0,0,1,5.516,9.031c9.013,19.81,24.057,33.829,42.216,45.12a231.711,231.711,0,0,1,22.563,15.933c7.278,5.835,12.471,13.363,13.877,22.914a35.83,35.83,0,0,1-7.128,27.918A52.582,52.582,0,0,1,399.4,226.877a19.905,19.905,0,0,1-12.764,1.686c-3.306-.664-5.478.64-7.037,3.245a30.142,30.142,0,0,0-2.6,5.575c-4.293,12.391-13.117,20.226-24.963,25.071-1.468.6-3.18,1.4-4.117-.494-.99-2,.634-3.022,2.19-3.71,6.4-2.832,12.479-6.236,16.554-12.081a76.225,76.225,0,0,0,6.166-11.455c1.827-3.912,3.543-7.805,6.971-9.745-.764-3.08-2.024-5.87-2.024-8.659,0-4.969,2.986-8.394,7.369-10.516,1.916-.927,3.981-1.54,5.94-2.385a5.44,5.44,0,0,0,3.434-5.919c-1.243-8.914,1.8-13.8,10.5-16.221,2.6-.724,5.423-.639,7.97-.907-1.035-2.014-4.571-3.755-7.877-2.771a42.181,42.181,0,0,0-8.6,4.044c-1.914,1.089-3.505,2.73-5.323,4.007-5.2,3.656-10.791,5.561-16.878,2.423-5.816-3-8.385-8.329-8.688-14.567a76.317,76.317,0,0,1,.683-13.782c1.118-8.343-1.147-15.2-7.523-20.82-9.949-8.767-17.368-19.522-23.821-31-2.605-4.633-5.629-8.883-10.323-11.721-3.811-2.3-8.022-2.866-12.306-3.078-.693-.034-1.568.764-2.129,1.386-6.048,6.7-10.213,14.57-13.352,22.91a138.349,138.349,0,0,0-5.024,17.721c-.533,2.322-.131,4.934.2,7.364a10.312,10.312,0,0,1-2.837,9.089c-6.521,6.628-13.175,13.126-19.787,19.665-.7.693-1.5,1.283-2.2,1.979-2.13,2.124-2.214,3.625-.334,6.361,1.607-3.155,3.961-5.183,7.661-4.471,4.019.774,5.931,3.754,6.658,9.992,2.514-.187,5-.154,6.9,2a14.641,14.641,0,0,1,3.722,9.967c-.109,8.462-.4,16.947-1.208,25.366-1.03,10.722-2.644,21.386-4,32.077-.041.319-.005.648.541,1.044,1.582-10.475,3.142-20.954,4.761-31.423a62.582,62.582,0,0,1,1.574-7.971c1.06-3.637,3.591-5.667,6.4-5.594A6.883,6.883,0,0,1,306,216.217a50.224,50.224,0,0,1,1.232,12.2c-.464,10.19-1.422,20.358-2.181,30.535-.047.64-.08,1.282-.133,2.151.944.059,1.747.18,2.544.148,4.855-.2,9.744-.141,14.556-.715,8.791-1.049,15.119,2.372,19.2,9.985,4.587,8.556,8.869,17.274,13.421,25.848,3.277,6.175,6.867,12.185,10.156,18.354A53.829,53.829,0,0,1,370.91,334.9c.733,7.465-.565,14.31-7.739,18.985a24.167,24.167,0,0,0,19.168-.266c8.364-3.492,15.152-9.207,21.493-15.51,11.966-11.9,21.63-25.669,31.858-38.991,7.015-9.138,14.376-18.01,21.577-27.006.5-.621.939-1.286,1.479-2.031-5.009-2.12-9.76-4.157-14.543-6.119a2.785,2.785,0,0,0-1.882.018,23.812,23.812,0,0,1-28.111-9.055,39.032,39.032,0,0,1-6.627-27.911,6.047,6.047,0,0,1,1.261-3.4,10.737,10.737,0,0,1,4.737-3.011c2.2-.452,3.058,1.709,3.869,3.467,2.41,5.22,4.571,10.583,7.354,15.6,6.2,11.18,16.176,17.993,27.728,22.715,14.608,5.969,29.343,11.635,43.862,17.81,7.4,3.148,14.449,7.12,21.654,10.724a6.719,6.719,0,0,1,1.063.625c1.26.948,2.308,1.97,1.178,3.7-1.113,1.7-2.431,1.195-3.859.464-7.834-4.008-15.546-8.291-23.563-11.894-8.695-3.908-17.7-7.13-26.523-10.754a3.478,3.478,0,0,0-4.676,1.21c-9.676,12.291-19.54,24.436-29.067,36.841-9.287,12.094-18.437,24.279-29.811,34.556a67.883,67.883,0,0,1-16.681,11.36c-15.022,7.034-31.775,2.294-40.662-11.738-9.18-14.495-9.62-29.912-4.019-45.716.91-2.567,2.914-4.733,4.262-7.167a6.08,6.08,0,0,0,.192-2.382c-.717-.018-1.564-.3-2.131-.015-11.195,5.574-22.435,11.066-33.506,16.88-12.92,6.783-23.007,16.359-28.559,30.208-3.062,7.638-4.5,15.646-5.526,23.722-4.245,33.32-5.512,66.794-4.883,100.355.045,2.387.224,4.772.329,7.159.07,1.591-.533,2.931-2.193,3.045-1.7.117-2.4-1.124-2.436-2.757-.086-4.118-.353-8.238-.266-12.352q.661-31.5,1.483-63c.033-1.348.261-2.692.4-4.037l-.688-.15c-1.049,4.019-2.3,8-3.114,12.065a193.216,193.216,0,0,0-1.7,66.346c.094.649.346,1.457.075,1.939-.51.91-1.265,2.154-2.075,2.284a3,3,0,0,1-2.378-1.748,63.446,63.446,0,0,1-1.322-8.527,200.519,200.519,0,0,1,.739-49.031c1.488-10.112,3.255-20.142,7.618-29.49.855-1.832,2.2-3.432,3.235-5.188a5.675,5.675,0,0,0,.656-2.023c1.448-9.754,2.6-19.561,4.378-29.255a56.809,56.809,0,0,1,8.435-20.918c.21-.321.361-.681.786-1.5a5.113,5.113,0,0,0-.9.575c-6.018,8.039-11.839,16.235-18.107,24.074-4.089,5.115-5.72,10.922-6.933,17.13-4.605,23.57-9.383,47.106-14.113,70.652-1.02,5.08-2.111,10.146-3.166,15.22-.067.322.017.791-.173.953-.964.821-2.007,2.208-3,2.191-1.707-.03-1.972-1.637-1.641-3.2,1.332-6.273,2.7-12.539,3.963-18.825,4.565-22.715,9.289-45.4,13.528-68.175a47.674,47.674,0,0,1,9.171-20.92c7.7-10.057,15.334-20.221,22.143-30.884a97.773,97.773,0,0,0,14.833-42.748c1.487-14.068,2.694-28.166,3.872-42.264a30.894,30.894,0,0,0-.537-7.861c-.29-1.639-1.309-3.15-2-4.719l-1.109.076a28.766,28.766,0,0,0-1.721,4.9c-1.55,9.5-2.867,19.038-4.464,28.529-.679,4.036-1.792,8-2.831,11.97a4.85,4.85,0,0,1-1.571,2.721c-1.131.741-2.8,1.537-3.9,1.2a4.308,4.308,0,0,1-2.492-3.161,104.444,104.444,0,0,1,.661-12.544c1.528-14.478,3.27-28.935,4.7-43.422.32-3.232-.252-6.559-.5-9.836a5.088,5.088,0,0,0-.749-2.571c-.922-1.227-2.043-3.043-3.23-3.166-1.954-.2-2.321,1.933-2.552,3.6q-2.171,15.654-4.314,31.311c-1.307,9.455-2.637,18.907-3.933,28.364-.246,1.789-.976,3.041-3,2.757-1.954-.276-1.874-1.782-1.669-3.233,1.77-12.54,3.609-25.07,5.314-37.618,1.251-9.21,2.369-18.438,3.453-27.669a11.19,11.19,0,0,0-.282-4.647,4.728,4.728,0,0,0-2.482-2.879c-.717-.212-2.478,1.074-2.833,2.036a57.337,57.337,0,0,0-2.837,9.931c-3.073,17.67-5.99,35.367-8.944,53.057-.162.972-.1,1.981-.274,2.95-.291,1.64-.548,3.488-2.892,3.171-2.221-.3-2.052-2.082-1.849-3.644.657-5.057,1.281-10.122,2.131-15.148,2.316-13.692,4.742-27.365,7.116-41.048a13.984,13.984,0,0,0,.007-1.626c-1.475.92-2.96,1.36-3.608,2.348a30.412,30.412,0,0,0-3.958,7.554c-2.955,9.763-6.51,19.474-8.121,29.481-2.007,12.464-7.918,23.685-10.018,36.056-.554,3.258-2.766,6.252-4.326,9.312a4.262,4.262,0,0,1-1.859,1.919,10.982,10.982,0,0,1-3.1.408c-.089-1.123-.7-2.733-.183-3.292,4.034-4.345,4.961-9.848,6.405-15.263,1.6-6.015,3.793-11.873,5.69-17.812,1.871-5.857,2.682-11.737-.161-17.537a32.586,32.586,0,0,0-2.367-3.585l-.793.15a43.8,43.8,0,0,1-.921,5.149c-2.1,7-4.227,13.989-6.511,20.928-1.155,3.509-2.66,6.9-4.012,10.348a14.678,14.678,0,0,1-6.016,7.294,3.93,3.93,0,0,0-1.518,2.476c-2.3,14.772-1.052,29.377,2.28,43.862,1.05,4.564,2.069,9.142,3.329,13.651a21.519,21.519,0,0,1-.34,12.6c-12.979,41.6-25.545,83.323-40.1,124.41a46.174,46.174,0,0,1-2.056,5.8,3.693,3.693,0,0,1-2.7,1.839c-1.681-.088-1.756-1.632-1.488-3.043a3.411,3.411,0,0,1,.195-.963c2.424-4.471,1.064-8.677-1.148-12.642-3.243-5.814-6.475-11.664-10.19-17.177-7.23-10.729-8.933-22.62-7.327-34.986,1.225-9.425,3.369-18.747,5.479-28.03a11.186,11.186,0,0,0-1.285-8.917c-3.531-5.753-7.007-11.54-10.585-17.263-4.673-7.474-9.457-14.885-11.883-23.489a33.781,33.781,0,0,1-1.438-13.884c.636-4.688,2.474-8.308,7.237-9.717-1.149-6.15-2.751-12.159-3.3-18.262-.807-9-1.025-18.07-1.172-27.115-.074-4.6,1.725-8.534,6.322-10.713a3.489,3.489,0,0,0-.477-.915c-7.878-7.33-11.2-16.8-13.016-27.078a71.276,71.276,0,0,0-3.016-10.64,3.385,3.385,0,0,0-2.514-1.7,22.593,22.593,0,0,1-21.616-20.83c-.531-5.46-.173-10.71,3.6-15.141a6.744,6.744,0,0,1,7.8-2.076c2.67,1.022,5.008,4.172,5.062,6.769.033,1.574-.482,3.043-2.13,3.032-.824-.006-1.688-1.305-2.436-2.109-.311-.334-.257-1-.561-1.347-.669-.765-1.468-1.994-2.2-1.982a3.871,3.871,0,0,0-2.64,1.74c-2.235,3.547-2.384,7.509-1.472,11.454,1.656,7.164,4.832,13.193,12.734,15.092a13.518,13.518,0,0,0,4.88.385c2.466-.339,4.168.6,4.956,2.7,1.527,4.061,2.852,8.205,4.06,12.373.753,2.6,1.127,5.3,1.689,7.956,2.34,11.053,9.154,18.884,18.5,24.5,13.049,7.839,26.983,13.665,42.028,16.483,4.96.928,10.065,1.5,14.8-.779,1.87-.9,4.007-2.5,4.736-4.307,3.6-8.909,6.771-17.992,10.08-27.018a4.87,4.87,0,0,0,.01-1.145c-2.939,3.736-6.266,6.478-10.74,7.258-11,1.918-21.016,0-29.185-8.141-2.381-2.372-4.293-5.209-6.57-7.694a34.866,34.866,0,0,0-4.652-4.129c-1.437-1.091-1.68-2.343-.545-3.53.633-.662,2.107-1.319,2.778-1.022,5.931,2.633,11.9.937,17.764.143,7.233-.98,14.288-.074,21.388.854a30.444,30.444,0,0,1,5.58.967c2.678.885,5.24,2.121,8.376,3.426,4.036-1.651,5.2-1.051,9.874,6.1,2.39-8.287,4.921-16.093,6.378-24.222,1.524-8.5-.828-16.47-3.07-24.736-5.38.894-10.379-.479-15.264-2.675-2.589-1.164-3.372-.5-2.85,2.312.991,5.332,2.138,10.635,3.153,15.964.891,4.684-1.455,10.121-5.279,12.479-1.276.787-2.545,1.327-3.724-.121-1.245-1.528-.309-2.666.853-3.541,3.525-2.655,3.987-6.126,3.119-10.154-1.907-8.843-4.259-17.651-3.646-26.819.331-4.939,1-9.882,4.482-13.811a14.32,14.32,0,0,1,9.849-4.587c3.977-.329,8-.074,12.37-.074-.929-4.854-1.807-9.574-2.74-14.284a46.261,46.261,0,0,0-14.128-24.95c-5.9-5.607-11.885-11.132-18.105-16.948-1.279,6.693-6.188,8.939-11.859,10.367a28.768,28.768,0,0,0-15.768,10.473c-7.907,10-15.712,20.077-23.393,29.91,5.142-3.286,11.229-4.335,17.6-3.934,9.106.572,17.473,3.735,25.639,7.524,1.259.584,2.281,1.5,1.418,3.12-.917,1.728-2.241,1.437-3.8.9-6.119-2.121-12.189-4.46-18.438-6.1-7.654-2.016-14.985-.589-21.891,3.352-1.834,1.047-4.057,1.4-6.072,2.15a3.5,3.5,0,0,0-1.316,1.031,45.011,45.011,0,0,1-30.769,15.95,3.3,3.3,0,0,0-.819.409c3.078,3.3,5.372,6.947,6.01,11.411a48.784,48.784,0,0,1,.557,5.4c.052,1.639-.29,3.259-2.412,3.343-2.271.09-2.378-1.591-2.391-3.229-.039-4.742-.916-9.168-4.549-12.617a10.264,10.264,0,0,0-7.827-2.965c-8.511.321-15.11,6.037-16.707,15.081-.928,5.257-1.3,10.612-1.955,15.918-1.959,15.8-9.668,28.3-22.02,38.084-7.423,5.88-15.063,11.5-22.321,17.57a72.334,72.334,0,0,0-15.693,18.633c-2.973,5-4.533,10.329-3.57,16.54a22.293,22.293,0,0,0,2.15-.774c13.456-6.538,27.845-9.792,42.479-12.313a126.933,126.933,0,0,0,18.721-4.243,40.052,40.052,0,0,0,12.046-6.384c9.481-7.393,13.074-17.322,14.792-22.2,1.811-5.146,4.677-13.287,3.584-23.487-.528-4.927-2.153-11.947-.124-12.842a2.353,2.353,0,0,1,3.235,2.284c.217,3.234,1.877,6.131,2.122,11.317.761,16.129-8.232,33.244-8.232,33.244-2.377,4.369-5.457,8.355-8.175,12.452.534.427,2.014,1.036,2.295,2,.275.942-.6,2.274-1.093,3.376C110.851,280.18,99.144,288.7,84.706,294c-5.712,2.1-11.507,3.966-17.262,5.947-.45.155-.88.369-1.667.7,1.024.716,1.772,1.331,2.6,1.8,9.5,5.437,17.785,12.523,25.839,19.8,9.527,8.607,18.7,17.613,27.812,26.666a52.168,52.168,0,0,1,11.325,16.653c.416.98,1.068,2.047.969,3.006a3.723,3.723,0,0,1-1.625,2.614,2.775,2.775,0,0,1-2.573-.944c-6.21-15.886-19.35-25.979-31.1-37.173-9.482-9.032-19.366-17.635-30.419-24.766a40.629,40.629,0,0,1-4.181-2.621c-3.144-2.629-6.365-2.563-10.074-1.213-8.556,3.112-16.83,6.717-24.033,12.384a66.62,66.62,0,0,0-5.5,5.3c-1.056,1.048-2.062,2.491-3.692,1.067-1.559-1.362-.93-2.993.255-4.117a105.808,105.808,0,0,1,9.591-8.478c7.639-5.657,16.611-8.571,25.44-11.74,10.905-3.913,21.932-7.536,32.648-11.915a45.052,45.052,0,0,0,9.587-5.334c4.405-3.218,12.926-9.043,15.149-18.753C113.918,262.327,114,261.861,114.051,261.561Zm67.2,189.031a13.105,13.105,0,0,0,.707-1.583c2.376-7.172,4.8-14.329,7.08-21.532q14.755-46.609,29.464-93.235a17.5,17.5,0,0,0,.368-9.649q-3.156-13.442-5.781-27c-.727-3.747-.835-7.614-1.259-11.766-1.009.827-1.784,1.4-2.493,2.051a190.627,190.627,0,0,1-33.98,24.935,8.139,8.139,0,0,0-4.366,5.955c-.543,2.657-1.21,5.29-1.874,7.921-.4,1.569-1.189,2.848-3.088,2.412-1.84-.422-1.822-1.86-1.509-3.346.051-.241.131-.476.183-.717,4.705-21.449,14.283-40.7,26.537-58.733.59-.867,1.217-1.708,1.9-2.659-.518-.226-.8-.383-1.1-.475-13.672-4.152-26.814-9.512-38.923-17.193a3.382,3.382,0,0,0-4.084.112A6.277,6.277,0,0,0,146,251.4a136.722,136.722,0,0,0,6.8,52.541c6.126,17.985,11.778,36.06,15.8,54.649,2.224,10.271,5.223,20.373,7.572,30.62a211.6,211.6,0,0,1,4.838,40.123c.1,2.988-.609,4.885-2.245,4.739-2.9-.259-2.474-2.629-2.519-4.526a217.436,217.436,0,0,0-6.138-45.912c-.665-2.751-1.458-5.471-2.192-8.206-3.206,9.944-5.37,19.916-5.469,30.176-.076,7.8,1.119,15.459,5.162,22.338C172.093,435.574,176.736,443.114,181.249,450.592ZM201.138,50.286l-.334.911a8.277,8.277,0,0,0,.494.809c.451.585.912,1.165,1.4,1.722a64.085,64.085,0,0,1,12.348,20.057,22.73,22.73,0,0,0,4.808,7.856c5.278,5.424,11.015,10.4,16.472,15.651,7.6,7.321,13.542,15.714,15.889,26.209,1.237,5.532,2.081,11.152,3.31,16.686,1.131,5.094,1.274,10.039-.617,15.014-1.878,4.938-1.855,9.543,3.22,12.805.052.033.052.149.277.878l-5.657,2.6c1.188,5.488,2.426,11.205,3.577,16.515l7.808-3.359c-.649-1.134-1.442-2.373-2.094-3.683-2.213-4.448-1.562-7.964,2.071-11.331,1.087-1.006,2.325-1.862,3.324-2.944a4.476,4.476,0,0,0,1.282-2.45c.835-13.989,1.387-27.99-1.543-41.827Q256.992,74.345,212.211,54.03C208.681,52.427,204.837,51.517,201.138,50.286ZM316.258,88.35c7.335,1.266,13.643,4.145,18.161,10.13a65.208,65.208,0,0,1,5.256,8.048,106.974,106.974,0,0,0,22.27,28.766c7.895,7.106,10.522,15.726,8.784,26.052-.874,5.187-1.4,10.464.315,15.649,2.129,6.426,7.607,9.36,13.481,7.016a21.008,21.008,0,0,0,4.811-2.947c4.32-3.3,8.528-6.729,14.025-7.994s11.631.848,14.454,5.154c1.2,1.826,1.709,3.676.442,5.762a3.34,3.34,0,0,0-.265,2.319c1.03,4.059.485,8.036-.584,11.951a26.194,26.194,0,0,1-8.008,12.785c-.977.875-2.362,1.492-3.169.081a4.719,4.719,0,0,1,.011-3.3c.234-.784,1.153-1.354,1.741-2.042a21.856,21.856,0,0,0,5.6-16.593c-.172-2.047-1.161-3.554-3.153-3.908-4.027-.716-7.113,1.411-10.055,3.771-2.345,1.881-1.884,4.366-1.412,6.813a10.339,10.339,0,0,1-6.742,12.2,48.158,48.158,0,0,0-6.11,2.606,6.7,6.7,0,0,0-3.663,7.232,7.273,7.273,0,0,0,5.573,5.967,12.682,12.682,0,0,0,9.552-1.313,51.956,51.956,0,0,0,16.578-12.66c5.9-7.078,8.6-15.283,7.327-24.539-1.209-8.793-5.851-15.806-12.679-21.036-8.344-6.393-17.063-12.333-25.89-18.053-14.325-9.283-26.522-20.555-35-35.532-2.431-4.3-4.609-8.736-7.088-13-3.428-5.9-7.993-10.451-15.088-11.67A12.13,12.13,0,0,0,316.258,88.35ZM284.073,322.54a65.093,65.093,0,0,1,21.06-18.009c8.527-4.785,17.306-9.121,26-13.6,3.919-2.019,7.9-3.912,12.419-6.14-3.062-5.3-5.8-10.443-8.942-15.323a8.666,8.666,0,0,0-7.3-4.1c-7.641.037-15.281.351-23.122.559A122.086,122.086,0,0,1,284.073,322.54Zm64.658-26.611c-1.063,1.806-1.92,3.012-2.525,4.333a43.662,43.662,0,0,0-3.62,17.993c-.111,11.19,3.216,21.191,10.843,29.549,3.623,3.971,6.534,3.783,10.607-.914a8.6,8.6,0,0,0,1.169-2.153c1.881-4.2,1.387-8.5.53-12.82C363.113,318.71,355.467,307.9,348.731,295.929ZM212.892,265.153c-3.927,0-7.509.379-10.966-.118-2.862-.411-4.575.436-5.9,2.717-5.313,9.166-10.727,18.276-15.868,27.538-2.165,3.9-3.743,8.125-5.7,12.452a4.247,4.247,0,0,0,.941-.152,222.583,222.583,0,0,0,35.382-27.572,3.019,3.019,0,0,0,.994-1.6C212.192,274.171,212.505,269.913,212.892,265.153Zm15.86-100.43c2.82-1.4,4.887-.328,6.93.739,4.478,2.339,9.035,3.34,14.1.906-1.47-4.469-.787-8.857.714-13.19.429-1.239.754-2.514,1.183-3.753.661-1.91-.018-2.866-1.976-3.259a26.191,26.191,0,0,0-13.625.46,8.224,8.224,0,0,0-5.139,4.286C228.866,155.185,228.658,159.712,228.752,164.723ZM161.54,350.97c-3.265-16.76-8.5-32.833-14.827-48.912-2.555,1.656-3.7,3.671-3.572,6.044a63.333,63.333,0,0,0,1.318,10.955c1.759,7.549,5.755,14.115,9.852,20.591C156.705,343.432,159.129,347.2,161.54,350.97Zm251.5-125.115a7.979,7.979,0,0,0-.778,1.325,10.258,10.258,0,0,0-.3,1.7,36.475,36.475,0,0,0,4.18,20.012c3.066,6.039,7.745,10.247,14.483,11.64,2.175.45,4.521.071,6.789.071l.241-.649C425.049,251.945,418.3,239.666,413.043,225.855Zm-187.509-.809c-5.543-.426-11.192-.563-16.742-1.371-5.611-.818-11.124-2.3-16.792-3.516a11.7,11.7,0,0,0,.822,1.2,23.992,23.992,0,0,0,2.516,2.7c7.02,5.822,15.144,7.178,23.857,5.5A9.037,9.037,0,0,0,225.534,225.046Zm-30.33-9.61c.2.168.346.372.533.428,9.511,2.814,19.169,4.611,29.141,3.889a21.8,21.8,0,0,0,4.3-1.26C225.126,214.524,202.82,212.732,195.2,215.436Z"/><path d="M50.962,335.951c8.615.618,15.786,4.448,22.686,8.868,14.83,9.5,26.773,22.068,37.476,35.87,16.521,21.307,30.947,44.027,44.752,67.149,3.668,6.142,7.151,12.395,10.7,18.607a6.627,6.627,0,0,1,1.231,2.651,3.675,3.675,0,0,1-1.069,2.78c-.5.363-1.883-.178-2.681-.643-.562-.327-.823-1.193-1.184-1.837-16.824-29.967-35-59.073-55.958-86.344-10.8-14.054-23.208-26.528-38.5-35.811-4.735-2.873-9.657-5.485-15.273-5.959a22.678,22.678,0,0,0-7.154.918c-1.519.376-2.86.664-3.647-.847a2.424,2.424,0,0,1,1.321-3.509A69.949,69.949,0,0,1,50.962,335.951Z"/><path d="M489.062,346.872c4.942.266,9,1.076,11.519,5.129a8.009,8.009,0,0,1,1.009,2.479c.311,1.436-.077,2.912-1.67,3a3.429,3.429,0,0,1-2.73-1.65,5.764,5.764,0,0,0-5.97-3.94,34.875,34.875,0,0,0-10.787,1.9c-12.492,4.966-21.863,13.818-29.329,24.828-8.7,12.838-14.783,26.969-19.688,41.559-6.07,18.054-11.549,36.307-17.28,54.475-.148.468-.114,1.165-.425,1.379-.966.665-2.109,1.672-3.087,1.575-1.35-.134-1.765-1.478-1.335-2.914q2.154-7.2,4.233-14.421a578.12,578.12,0,0,1,18.815-55.782c5.472-13.579,12.056-26.55,21.883-37.545,8.082-9.043,17.632-16.056,29.608-19.174C485.728,347.28,487.709,347.1,489.062,346.872Z"/><path d="M307.487,464.779c-.906.743-1.726,1.931-2.737,2.125-1.529.3-2.263-.975-2.444-2.463-1.145-9.387-2.268-18.777-3.457-28.158-1.541-12.154-3.034-24.316-4.739-36.448-1.751-12.453-3.743-24.871-5.6-37.31-.244-1.636.219-3.061,2.1-3.286,1.84-.221,2.582.9,2.825,2.646,3.061,21.976,6.236,43.936,9.216,65.923,1.611,11.887,2.9,23.818,4.341,35.728.03.245.056.491.083.736Z"/><path d="M171.006,153.057c7.929,4.352,16.3,6.369,25.371,4.707.564-.1,1.141-.134,1.713-.182,1.724-.147,3.063.569,3.234,2.286.168,1.685-1.165,2.391-2.7,2.617-11.774,1.74-22.767-.238-32.779-6.888-3-1.99-3.041-3.488.029-5.485,6.469-4.209,13.187-7.763,21.261-7.422,5.747.242,11.695,5.193,12.568,10.785a3.725,3.725,0,0,1-1.533,2.881c-.422.3-1.8-.673-2.679-1.186-.3-.173-.4-.7-.571-1.069-2.888-6.062-6.673-8.086-13.128-6.321-3.813,1.042-7.412,2.869-11.107,4.344Z"/><path d="M329.793,155.042c-4.753-5.683-9.614-9.775-16.622-10.116-1.111-.054-2.549,1.223-3.373,2.254-.711.89-.825,2.292-1.092,3.493-.355,1.6-1.413,2.408-2.831,1.829a3.126,3.126,0,0,1-1.607-2.428c.58-6.9,3.363-10.844,11.105-9.708,8.3,1.219,14.427,6.108,18.9,13.047,1.631,2.527.667,4.421-2.642,5.536a45.449,45.449,0,0,1-21.69,1.8,52.867,52.867,0,0,1-6.032-1.251c-1.56-.429-3.107-1.205-2.45-3.272.628-1.977,2.26-1.713,3.893-1.494,4.782.644,9.565,1.5,14.369,1.68C322.832,156.525,325.979,155.6,329.793,155.042Z"/><path d="M313.87,129c11.315.03,21.035,4.34,30.092,10.564,1.265.869,2.458,1.887,1.306,3.642-1.21,1.842-2.618,1.081-4.067.289-4.176-2.285-8.246-4.817-12.589-6.727-8.3-3.649-16.968-3.461-25.7-1.739-1.709.337-3.958,1.176-4.52-1.36-.551-2.488,1.755-2.905,3.5-3.174C305.867,129.883,309.875,129.485,313.87,129Z"/><path d="M212.849,191.55c2.237.942,4.3,1.651,6.2,2.664,1.375.733,1.522,2.072.622,3.381a2.068,2.068,0,0,1-3.179.624,6.936,6.936,0,0,0-8.076.08c-1.4.888-2.959.875-3.552-.6a3.507,3.507,0,0,1,1.207-3.173A50.852,50.852,0,0,1,212.849,191.55Z"/><path class="cls-1" d="M524.571,4V520.286H4V4H524.571m4-4H0V524.286H528.571V0Z"/><path class="cls-2" d="M525.267,521.371H4V3.781H525.267ZM34,491.371H495.267V33.781H34Z"/></g></svg>