<svg xmlns="http://www.w3.org/2000/svg" viewBox="0 0 528.571 524.286"><defs><style>.cls-1{fill:#616060;}.cls-2{fill:#8d8989;}</style></defs><title>icon</title><g id="Layer_37" data-name="Layer 37"><path d="M230.239,376.8a26.412,26.412,0,0,0-10.671-13.114,27.1,27.1,0,0,0-16.427-4.018,1.476,1.476,0,0,1-1.444-.808,23.283,23.283,0,0,0-11.425-10.91,24.409,24.409,0,0,0-18.813,0,1.5,1.5,0,0,1-1.261-.041,1.459,1.459,0,0,1-.768-.987A34.2,34.2,0,0,0,157.905,327.9c-12.31-10.077-27.36-7.439-30.252-6.807a1.49,1.49,0,0,1-1.219-.267,1.448,1.448,0,0,1-.576-1.092c-.112-2.6-1.639-25.72-20.429-36.983-8.935-5.355-19.968-7.052-32.794-5.044A54.523,54.523,0,0,0,57.974,282.2a1.5,1.5,0,0,1-1.277,0,1.461,1.461,0,0,1-.8-.983,34.854,34.854,0,0,0-7.653-14.966,36.213,36.213,0,0,0-18.6-11.135l.7-2.828a39.219,39.219,0,0,1,20.133,12.063,37.677,37.677,0,0,1,7.85,14.494,57.384,57.384,0,0,1,13.835-4.006c13.538-2.119,25.243-.293,34.794,5.432,17.874,10.714,21.139,31.3,21.727,37.673,5.334-.856,19.344-1.9,31.1,7.724a36.931,36.931,0,0,1,12.121,19,27.255,27.255,0,0,1,19.556.624A26.172,26.172,0,0,1,203.892,356.7a30.06,30.06,0,0,1,17.264,4.525A29.35,29.35,0,0,1,233.014,375.8Z"/><path d="M127.374,386.609a1.473,1.473,0,0,1-1.444-1.157,7.68,7.68,0,0,0-11.332-5.1,1.5,1.5,0,0,1-1.367.041,1.461,1.461,0,0,1-.815-1.083c-.974-6.082-5.081-10.849-9.988-11.593a10.911,10.911,0,0,0-6.967,1.484,1.492,1.492,0,0,1-1.889-.345l-3.206-3.908a1.442,1.442,0,0,1-.278-.535c-3.221-11.759-12.239-20.615-22.974-22.562a28.781,28.781,0,0,0-18.674,3.332,1.5,1.5,0,0,1-1.506-.04,1.449,1.449,0,0,1-.687-1.321,25.71,25.71,0,0,0-3.593-14.716,26.322,26.322,0,0,0-10.781-9.875,1.444,1.444,0,0,1-.661-1.952,1.487,1.487,0,0,1,1.981-.651,28.864,28.864,0,0,1,12,10.994,28.539,28.539,0,0,1,4.041,13.9,31.183,31.183,0,0,1,18.414-2.533c11.755,2.132,21.62,11.681,25.207,24.366l2.25,2.741a13.465,13.465,0,0,1,7.771-1.255c5.74.87,10.426,5.679,12.083,12.2a10.874,10.874,0,0,1,7.3.1,11.03,11.03,0,0,1,6.563,7.709,1.456,1.456,0,0,1-1.143,1.723A1.508,1.508,0,0,1,127.374,386.609Z"/><path d="M92.781,367.033a1.483,1.483,0,0,1-1.063-.444,9.047,9.047,0,0,0-11.9-.9,1.49,1.49,0,0,1-2.069-.279,1.44,1.44,0,0,1,.284-2.038,12.245,12.245,0,0,1,8.5-2.346,12.054,12.054,0,0,1,7.319,3.539,1.439,1.439,0,0,1-.037,2.057A1.48,1.48,0,0,1,92.781,367.033Z"/><path d="M46.232,332.824a1.472,1.472,0,0,1-1.442-1.15,29.428,29.428,0,0,1,19.243-34.2,30.2,30.2,0,0,1,35.333,13.107,1.442,1.442,0,0,1-.518,1.993,1.49,1.49,0,0,1-2.023-.511,27.218,27.218,0,0,0-31.832-11.837,26.522,26.522,0,0,0-17.315,30.839,1.455,1.455,0,0,1-1.134,1.728A1.518,1.518,0,0,1,46.232,332.824Z"/><path d="M162.583,386.733a1.433,1.433,0,0,1-.226-.017,1.468,1.468,0,0,1-1.219-1.137,21.233,21.233,0,0,0-4.557-9.341c-.075-.087-7.564-8.709-16.278-7.235-2.651.446-7.219,1.981-8.2,4.2-.6,1.369-1.513,1.385-2,1.273a1.565,1.565,0,0,1-.967-.7c-.4-.666-.235-1.226.25-2.888.888-3.049,2.967-10.188.641-15.594-2.14-4.973-7.968-8.712-14.174-9.093a17.524,17.524,0,0,0-9.678,2.3,1.493,1.493,0,0,1-1.784-.238,1.438,1.438,0,0,1-.225-1.76,25.07,25.07,0,0,0,3.472-10.965,25.566,25.566,0,0,0-4.077-15.5,1.444,1.444,0,0,1,.452-2.009,1.491,1.491,0,0,1,2.039.446,28.465,28.465,0,0,1,4.531,17.263,27.629,27.629,0,0,1-2.019,8.528,19.929,19.929,0,0,1,7.473-.977c7.278.446,14.149,4.913,16.709,10.861,2.046,4.757,1.283,10.341.361,14.251a23.137,23.137,0,0,1,6.7-2.271c10.367-1.749,18.685,7.821,19.034,8.229a23.781,23.781,0,0,1,4.313,7.517,17.356,17.356,0,0,1,6.148-4.78c6.378-2.932,14.264-1.742,20.579,3.1a1.441,1.441,0,0,1,.259,2.042,1.492,1.492,0,0,1-2.073.255c-5.436-4.17-12.147-5.228-17.517-2.761A15.1,15.1,0,0,0,163.867,386,1.481,1.481,0,0,1,162.583,386.733Z"/><path d="M114.823,345.493a1.483,1.483,0,0,1-.894-.3,1.44,1.44,0,0,1-.279-2.039,16.977,16.977,0,0,1,5.8-4.781,17.641,17.641,0,0,1,11.075-1.461,1.457,1.457,0,0,1,1.168,1.706,1.475,1.475,0,0,1-1.731,1.151,14.624,14.624,0,0,0-9.177,1.2A14.014,14.014,0,0,0,116,344.92,1.479,1.479,0,0,1,114.823,345.493Z"/><path d="M160.812,352.623a1.477,1.477,0,0,1-1.361-.888,12.818,12.818,0,0,0-3.863-5.1c-5.473-4.3-12.775-2.295-13.589-2.052a1.48,1.48,0,0,1-1.84-.973,1.451,1.451,0,0,1,.986-1.813c1.577-.47,9.771-2.55,16.283,2.562a15.7,15.7,0,0,1,4.743,6.246,1.447,1.447,0,0,1-.785,1.907A1.493,1.493,0,0,1,160.812,352.623Z"/><path d="M165.851,364.575a1.5,1.5,0,0,1-.7-.174,1.446,1.446,0,0,1-.6-1.972,15.217,15.217,0,0,1,5.886-5.978,16.1,16.1,0,0,1,12.111-1.3,1.453,1.453,0,0,1,1.006,1.8,1.481,1.481,0,0,1-1.83.991,13.3,13.3,0,0,0-9.828,1.031,12.3,12.3,0,0,0-4.746,4.831A1.48,1.48,0,0,1,165.851,364.575Z"/><path d="M80.123,404.4a1.483,1.483,0,0,1-1.041-.423L51.4,376.869l-21.638,5.29a1.477,1.477,0,0,1-1.788-1.062,1.452,1.452,0,0,1,1.077-1.762L51.5,373.847a1.491,1.491,0,0,1,1.4.381l28.267,27.687a1.441,1.441,0,0,1,.006,2.058A1.482,1.482,0,0,1,80.123,404.4Z"/><path d="M155.3,436.5a1.483,1.483,0,0,1-.859-.272L82.375,385.31l-14.01,5.679a1.484,1.484,0,0,1-1.927-.792,1.448,1.448,0,0,1,.8-1.9l14.766-5.987a1.5,1.5,0,0,1,1.422.163l72.735,51.385a1.441,1.441,0,0,1,.34,2.03A1.481,1.481,0,0,1,155.3,436.5Z"/><path d="M125.349,414.837a1.454,1.454,0,0,1-.164-2.9L205.6,403a1.455,1.455,0,1,1,.332,2.891l-80.414,8.939A1.571,1.571,0,0,1,125.349,414.837Z"/><path d="M179.606,427.184a1.477,1.477,0,0,1-.5-.085l-24.024-8.436-19.2,3.179a1.476,1.476,0,0,1-1.7-1.193,1.458,1.458,0,0,1,1.212-1.676l19.576-3.243a1.5,1.5,0,0,1,.741.064l24.385,8.564a1.449,1.449,0,0,1,.9,1.859A1.475,1.475,0,0,1,179.606,427.184Z"/><path d="M52.466,283.591a1.471,1.471,0,0,1-1.448-1.177c-.437-2.215-3.119-13.491-13.026-17.975a20.718,20.718,0,0,0-8.091-1.8,1.455,1.455,0,1,1,.074-2.909,23.694,23.694,0,0,1,9.249,2.065c11.219,5.077,14.208,17.605,14.693,20.064a1.472,1.472,0,0,1-1.451,1.733Z"/><path d="M95.9,448.636a1.485,1.485,0,0,1-1-.382L43.016,401.425,29.682,397.7a1.453,1.453,0,0,1-1.017-1.8,1.48,1.48,0,0,1,1.824-1l13.67,3.824a1.489,1.489,0,0,1,.594.327L96.9,446.107a1.441,1.441,0,0,1,.092,2.056A1.481,1.481,0,0,1,95.9,448.636Z"/><path d="M119.359,451.3a1.5,1.5,0,0,1-.609-.129L81.033,434.34a1.446,1.446,0,0,1-.736-1.926,1.485,1.485,0,0,1,1.954-.725l37.718,16.827a1.447,1.447,0,0,1,.736,1.925A1.479,1.479,0,0,1,119.359,451.3Z"/><path d="M54.936,502.971a1.49,1.49,0,0,1-.95-.34L45.361,495.5l-14-9.82a1.442,1.442,0,0,1-.347-2.029,1.492,1.492,0,0,1,2.06-.341l14.049,9.853c.032.022.063.046.093.07l7.807,6.458c7.85-5.344,13.644-9.17,17.23-11.379.6-.37,1.916-1.179,3.556-2.416A44.517,44.517,0,0,0,82,480.21c10.305-11.2,21.643-23.867,21.757-23.994a1.465,1.465,0,0,1,.456-.343l19.175-9.292a1.49,1.49,0,0,1,1.846.451l9.721,13.178,10.347-4.845a1.5,1.5,0,0,1,.536-.137L149,455.02l20.1-23.9a1.478,1.478,0,0,1,.611-.431,51.657,51.657,0,0,0,16.675-10.124,50.223,50.223,0,0,0,5.349-5.695,1.3,1.3,0,0,1,.111-.124c1.882-1.864,5.049-5,8.992-8.861,4.353-4.266,7.918-7.725,10.935-10.652,8.866-8.6,12.912-12.531,18.345-18.837,3.529-4.1,6.968-8.429,10.222-12.879a1.488,1.488,0,0,1,2.061-.33,1.441,1.441,0,0,1,.335,2.031c-3.3,4.512-6.787,8.907-10.367,13.062-5.518,6.4-9.594,10.36-18.524,19.026-3.014,2.925-6.575,6.381-10.924,10.643-3.9,3.819-7.036,6.922-8.922,8.791a53.018,53.018,0,0,1-5.61,5.963,54.535,54.535,0,0,1-17.26,10.566l-20.259,24.09a1.482,1.482,0,0,1-1.039.523l-3.516.231-11.2,5.244a1.49,1.49,0,0,1-1.828-.459l-9.711-13.165-17.8,8.624c-1.544,1.723-12.012,13.393-21.59,23.807a47.342,47.342,0,0,1-6.588,6.041c-1.752,1.32-3.149,2.18-3.745,2.547-3.728,2.3-9.8,6.311-18.082,11.961A1.489,1.489,0,0,1,54.936,502.971Z"/><path d="M181.04,445.892a1.478,1.478,0,0,1-.625-.138,1.446,1.446,0,0,1-.711-1.935l14.165-29.787a1.486,1.486,0,0,1,1.964-.7,1.446,1.446,0,0,1,.71,1.935l-14.165,29.787A1.479,1.479,0,0,1,181.04,445.892Z"/><path d="M55,502.1a1.472,1.472,0,0,1-1.431-1.819c1.2-4.59,2.294-9.293,3.252-13.976,2.821-13.783,4.236-20.7,3.855-27.738A170.735,170.735,0,0,0,57.5,435.512l-.225-1.023c-1.028-4.656-1.594-7.221.269-7.967a1.928,1.928,0,0,1,1.555.071c1.559.708,3.36,3.63,4.136,5.932a16.8,16.8,0,0,1,.105,9.188,21.749,21.749,0,0,1-1.116,3.541c.59,3.96,1.154,8.617,1.4,13.157.4,7.4-1.039,14.444-3.909,28.468-.968,4.734-2.074,9.487-3.287,14.127A1.474,1.474,0,0,1,55,502.1Zm4.7-70.352c.153.753.321,1.511.456,2.123l.227,1.033c.008.036.24,1.115.579,2.91a11.486,11.486,0,0,0-.535-4.371A11.741,11.741,0,0,0,59.705,431.747Z"/><path d="M60.418,456.626a9.59,9.59,0,0,1-2.446-.307c-4.595-1.21-7.315-5.8-7.951-8.407-.325-1.333-.153-2.306.51-2.894,1.517-1.344,3.938.3,7.748,3.168a33.259,33.259,0,0,1,3.144,2.691,24.567,24.567,0,0,1,3.5-4.871c4.121-4.23,5.5-3.334,6.095-2.951a2.172,2.172,0,0,1,.943,1.615c.284,2.069-1.236,5.714-3.388,8.127a10.826,10.826,0,0,1-5.065,3.383A11.027,11.027,0,0,1,60.418,456.626Zm-7.229-8.466c.76,1.824,2.648,4.584,5.545,5.347a6.459,6.459,0,0,0,1.373.2,30.025,30.025,0,0,0-3.621-3.213C55.854,450.023,54.368,448.9,53.189,448.16Zm15.65-1.762a19.576,19.576,0,0,0-1.784,1.624,22.382,22.382,0,0,0-3.161,4.458h0c-.11.188-.219.378-.326.568a8.335,8.335,0,0,0,2.789-2.172A12.184,12.184,0,0,0,68.839,446.4Zm-6.225,5.355h0Z"/><path d="M60.418,470.044a9.59,9.59,0,0,1-2.446-.307c-4.595-1.21-7.315-5.8-7.951-8.407-.325-1.332-.153-2.306.51-2.894,1.517-1.343,3.938.3,7.748,3.168a33.259,33.259,0,0,1,3.144,2.691,24.6,24.6,0,0,1,3.5-4.871c4.121-4.23,5.5-3.334,6.095-2.951a2.172,2.172,0,0,1,.943,1.615c.284,2.069-1.236,5.715-3.388,8.127A10.819,10.819,0,0,1,63.51,469.6,11.027,11.027,0,0,1,60.418,470.044Zm-7.229-8.466c.76,1.824,2.648,4.584,5.545,5.347a6.459,6.459,0,0,0,1.373.2,30.025,30.025,0,0,0-3.621-3.213C55.854,463.441,54.368,462.322,53.189,461.578Zm15.65-1.762a19.576,19.576,0,0,0-1.784,1.624,22.382,22.382,0,0,0-3.161,4.458h0q-.165.282-.326.569a8.348,8.348,0,0,0,2.789-2.173A12.184,12.184,0,0,0,68.839,459.816Zm-6.945,4.947.72.408Z"/><path d="M58.523,485.4a9.922,9.922,0,0,1-3.3-.542c-4.476-1.581-6.8-6.377-7.216-9.028-.211-1.354.042-2.311.752-2.842,1.624-1.215,3.9.62,7.454,3.789a32.922,32.922,0,0,1,2.907,2.94,24.721,24.721,0,0,1,3.9-4.568c4.469-3.874,5.769-2.871,6.323-2.443a2.17,2.17,0,0,1,.805,1.687c.108,2.085-1.714,5.594-4.061,7.822a10.429,10.429,0,0,1-7.569,3.185Zm-7.374-9.064c.6,1.88,2.253,4.785,5.076,5.782a6.484,6.484,0,0,0,1.351.317,30.074,30.074,0,0,0-3.338-3.5C53.647,478.407,52.26,477.171,51.149,476.333Zm15.744-.475a19.772,19.772,0,0,0-1.916,1.472,22.509,22.509,0,0,0-3.524,4.184h0c-.125.178-.25.358-.372.54a8.378,8.378,0,0,0,2.962-1.937A12.227,12.227,0,0,0,66.893,475.858Zm-6.654,4.827h0Z"/><path d="M72.654,490.188a1.487,1.487,0,0,1-.741-.2A16.683,16.683,0,0,0,59.1,488.407a1.481,1.481,0,0,1-1.825-1,1.453,1.453,0,0,1,1.016-1.8A19.671,19.671,0,0,1,73.4,487.475a1.442,1.442,0,0,1,.535,1.989A1.481,1.481,0,0,1,72.654,490.188Z"/><path d="M65.02,488.213a1.478,1.478,0,0,1-1.372-.914,1.449,1.449,0,0,1,.822-1.892A21.5,21.5,0,0,0,68.95,483a22.144,22.144,0,0,0,5.83-6.17c.439-.649.856-1.266,1.232-1.848a5.741,5.741,0,0,1-.865-.353c-2.876-1.45-3.814-4.888-3.743-7.391.036-1.262.332-2.877,1.539-3.4,1.177-.513,2.035.231,3.915,1.859l.114.1a22.916,22.916,0,0,1,1.29-5.292,9.957,9.957,0,0,1-.739-2.544c-.667-4.445,2.6-7.872,3.612-8.816a1.493,1.493,0,0,1,2.087.06,1.44,1.44,0,0,1-.061,2.057,9.572,9.572,0,0,0-2.518,3.877c1.294-2.266,2.876-4.017,4.58-3.754A2.736,2.736,0,0,1,87.1,452.7a7.528,7.528,0,0,1,.707,5.678c-.819,2.886-3.819,5.586-6.6,4.883a3.742,3.742,0,0,1-.659-.233,12.778,12.778,0,0,0-.657,4.074,17.387,17.387,0,0,0,2.134-1.28c1.8-1.2,3.5-2.327,4.845-1.118a2.2,2.2,0,0,1,.691,1.753c-.029,1.795-1.6,4.5-3.573,6.167a11.884,11.884,0,0,1-4.582,2.421c-.6,1.062-1.356,2.183-2.173,3.39a25.125,25.125,0,0,1-6.573,6.926,24.468,24.468,0,0,1-5.1,2.744A1.492,1.492,0,0,1,65.02,488.213ZM74.356,467.4a7.1,7.1,0,0,0,.327,2.244,3.928,3.928,0,0,0,1.809,2.392,2.8,2.8,0,0,0,.988.283,2.437,2.437,0,0,0,.15-1.837,16.707,16.707,0,0,0-2.722-2.605C74.731,467.721,74.542,467.557,74.356,467.4Zm6.209,2.562a4.388,4.388,0,0,1,.14,1.422,10.45,10.45,0,0,0,1.369-.967,8.607,8.607,0,0,0,1.959-2.41l-.349.232A13.575,13.575,0,0,1,80.565,469.96Zm.959-9.772a.96.96,0,0,0,.421.259c.867.215,2.546-1.178,3.021-2.85a4.927,4.927,0,0,0-.24-3.136A17.881,17.881,0,0,0,81.524,460.188Z"/><path d="M245.215,273.8a2.809,2.809,0,0,1-2.494-1.1h0c-1.015-1.336-.369-2.759.315-4.265a23.507,23.507,0,0,0,1.343-3.523c.778-2.759.5-5.874-.048-12.08a87.919,87.919,0,0,0-2.491-12.612,6.253,6.253,0,0,0-1.514-3.2,5.126,5.126,0,0,0-1.672-1.045,8.446,8.446,0,0,1-2.621-1.689,7.784,7.784,0,0,1-1.879-3c-.13-.318-.271-.661-.449-1.039a9.79,9.79,0,0,0-2.561-3.332,29.841,29.841,0,0,1-2.691-2.852,16.628,16.628,0,0,1-2.883-4.8,17.17,17.17,0,0,0-2.591-4.468,75.814,75.814,0,0,0-5.452-5.85c-1.742-1.78-2.688-2.668-3.378-3.317a22.244,22.244,0,0,1-2.27-2.383c-.914-1.1-1.526-1.946-2.019-2.629a12.135,12.135,0,0,0-2.506-2.786,11.8,11.8,0,0,0-1.636-1.127,13.439,13.439,0,0,1-2.237-1.6c-2.276-1.973-4.241-3.677-4.214-6.263a6.591,6.591,0,0,1,2.413-4.733,5.913,5.913,0,0,1,4.472-1.56c3.233.385,4.7,3.885,5.323,5.379a8.568,8.568,0,0,1,.712,3.379,4.625,4.625,0,0,0,.312,1.764c.4,1.015,2.716,2.941,6.525,5.423,1.7,1.109,2.943,1.836,3.848,2.366,1.828,1.07,2.745,1.608,3.595,3.138a11.319,11.319,0,0,1,.868,2.094,6.261,6.261,0,0,0,1.25,2.414,7,7,0,0,0,1.955,1.562c.31.193.648.4,1.028.657a20.454,20.454,0,0,1,4.172,3.679,33.306,33.306,0,0,0,4.4,4.123,11.906,11.906,0,0,0,3.043,2.006,19.9,19.9,0,0,0,1.5-3.991l.3-.938c1.194-3.693,1.739-5.379,2.039-6.049,1.215-2.711,3.05-6.809,7.38-8.234a10.555,10.555,0,0,1,10.647,2.581,5.653,5.653,0,0,1,1.2,2.124,12.525,12.525,0,0,0,1.272,2.616,13.3,13.3,0,0,0,1.73,2.3,10.646,10.646,0,0,1,1.812,2.57,18.606,18.606,0,0,1,1.855,6c.07.474.125.95.162,1.428q.226-.12.447-.249c1.468-.846,2.465-1.716,5.335-4.658,1.343-1.376,2.258-2.348,2.944-3.078a18.741,18.741,0,0,1,3.246-3c.716-.511,1.2-.8,1.586-1.031a4.749,4.749,0,0,0,1.177-.887,7.986,7.986,0,0,0,1.654-2.519,11.979,11.979,0,0,1,1.63-2.7,8.423,8.423,0,0,1,2.435-1.921c.518-.331,1.2-.765,2.112-1.367,7.037-4.624,7.492-5.644,7.736-6.192a22.778,22.778,0,0,0,1.18-3.652c.152-.647.232-1.105.3-1.509a6.443,6.443,0,0,1,.568-1.957,7.965,7.965,0,0,1,4.494-3.709,1.491,1.491,0,0,1,1.667.4l4.641,5.322a1.439,1.439,0,0,1,.3,1.358,11,11,0,0,1-2.629,4.588,11.212,11.212,0,0,1-2.9,2.091c-.231.128-.463.255-.7.393-1.1.65-1.492,1.081-4.764,4.8l-.2.226c-6.728,7.652-7.171,8.1-8.157,8.954-.845.731-1.466,1.209-1.965,1.593a12.1,12.1,0,0,0-2.032,1.846,15.651,15.651,0,0,0-2.559,4.013c-.3.6-.632,1.275-1.051,2.04-1.58,2.881-4.408,6.168-10.042,12.718-1.735,2.016-2.386,2.715-2.7,3.051a2.371,2.371,0,0,0-.331.4c-2.759,4.007-3.207,8.026-3.885,16.017a43.377,43.377,0,0,0-.089,9.605,37.991,37.991,0,0,0,1.626,7.37,1.442,1.442,0,0,1-.252,1.356,1.5,1.5,0,0,1-1.288.54,58.527,58.527,0,0,0-8.145-.162c-2.091.1-4.869.416-8.033.9-2.893.443-5.077.87-6.833,1.214A26.135,26.135,0,0,1,245.215,273.8Zm-.016-2.9a25.284,25.284,0,0,0,3.842-.6c1.689-.33,4-.783,6.956-1.234,3.262-.5,6.144-.821,8.336-.93a61.734,61.734,0,0,1,6.41.014,40.8,40.8,0,0,1-1.136-5.876,45.684,45.684,0,0,1,.08-10.184c.643-7.582,1.068-12.592,4.384-17.408a4.933,4.933,0,0,1,.6-.737c.3-.323.924-.993,2.619-2.962,5.5-6.4,8.266-9.609,9.7-12.223.391-.713.7-1.333,1-1.934a18.456,18.456,0,0,1,2.988-4.65,14.9,14.9,0,0,1,2.439-2.225c.494-.38,1.053-.811,1.834-1.486.827-.717,1.314-1.212,7.874-8.674l.2-.225c3.337-3.8,3.938-4.48,5.472-5.39.261-.155.52-.3.779-.44a8.39,8.39,0,0,0,2.208-1.565,7.845,7.845,0,0,0,1.677-2.663l-3.368-3.862a4.4,4.4,0,0,0-1.99,1.848,3.738,3.738,0,0,0-.313,1.176c-.073.422-.165.947-.337,1.677a25.518,25.518,0,0,1-1.352,4.164c-.592,1.33-1.617,2.722-8.8,7.444-.928.61-1.617,1.05-2.142,1.386-1.346.861-1.428.922-1.748,1.312a9.206,9.206,0,0,0-1.251,2.1,10.75,10.75,0,0,1-2.216,3.321,7.633,7.633,0,0,1-1.757,1.34c-.36.215-.768.459-1.387.9a16.253,16.253,0,0,0-2.811,2.617c-.695.739-1.621,1.723-2.981,3.116-3.065,3.142-4.237,4.153-5.972,5.153a20.2,20.2,0,0,1-2.825,1.347,1.494,1.494,0,0,1-1.389-.168,1.447,1.447,0,0,1-.623-1.234,18,18,0,0,0-.186-3.214,15.9,15.9,0,0,0-1.562-5.1,7.79,7.79,0,0,0-1.385-1.955A16.245,16.245,0,0,1,265,210.136a15.266,15.266,0,0,1-1.526-3.143,2.893,2.893,0,0,0-.639-1.181,7.529,7.529,0,0,0-7.494-1.742c-3.091,1.018-4.549,4.273-5.614,6.649-.236.528-.873,2.5-1.927,5.757l-.3.935c-1.256,3.9-1.725,5.365-3.434,5.911-1.38.442-2.78-.176-5.767-2.535a35.97,35.97,0,0,1-4.748-4.442,17.534,17.534,0,0,0-3.636-3.221c-.351-.234-.664-.428-.95-.607a9.731,9.731,0,0,1-2.649-2.162,9.068,9.068,0,0,1-1.787-3.372,8.736,8.736,0,0,0-.651-1.6c-.449-.808-.754-1-2.513-2.033-.931-.545-2.206-1.292-3.968-2.439-5.9-3.844-7.177-5.595-7.65-6.8a7.36,7.36,0,0,1-.509-2.711,5.743,5.743,0,0,0-.492-2.373c-.391-.935-1.43-3.42-2.946-3.6a3.005,3.005,0,0,0-2.17.859,3.789,3.789,0,0,0-1.408,2.575c-.012,1.194,1.152,2.262,3.211,4.048a10.6,10.6,0,0,0,1.811,1.3,14.544,14.544,0,0,1,1.994,1.378,14.99,14.99,0,0,1,3.031,3.342c.49.679,1.046,1.449,1.9,2.469a19.282,19.282,0,0,0,2.025,2.123c.71.667,1.68,1.579,3.465,3.4a76.13,76.13,0,0,1,5.687,6.122,20.124,20.124,0,0,1,2.961,5.107,13.813,13.813,0,0,0,2.449,4.082,27.141,27.141,0,0,0,2.45,2.593,12.564,12.564,0,0,1,3.183,4.193c.2.428.362.814.51,1.175a5.069,5.069,0,0,0,1.213,2.02,5.553,5.553,0,0,0,1.788,1.121,7.873,7.873,0,0,1,2.525,1.632A9.006,9.006,0,0,1,244.7,239.5a88.6,88.6,0,0,1,2.572,13.08c.581,6.555.873,9.845-.048,13.113a26.535,26.535,0,0,1-1.493,3.931C245.534,270.055,245.3,270.572,245.2,270.893Z"/><path d="M237.2,233.62a1.524,1.524,0,0,1-.365-.044,1.455,1.455,0,0,1-1.068-1.769l2.742-10.643a1.48,1.48,0,0,1,1.795-1.052,1.454,1.454,0,0,1,1.068,1.769l-2.742,10.642A1.473,1.473,0,0,1,237.2,233.62Z"/><path d="M278.773,231.708a1.474,1.474,0,0,1-1.415-1.041l-2.6-8.6a1.452,1.452,0,0,1,1-1.81,1.481,1.481,0,0,1,1.836.981l2.6,8.6a1.452,1.452,0,0,1-1,1.81A1.5,1.5,0,0,1,278.773,231.708Z"/><path d="M260.96,246.411c-2.013,0-3.961-2.587-6.01-5.307-.128-.171-.264-.351-.4-.536a1.486,1.486,0,0,1-1.129,1.562c-1.321.367-1.865-.456-3-3.186a1.938,1.938,0,0,1-1.249-.021c-1.761-.585-4.271-3.958-5.588-6.747a19.328,19.328,0,0,1-1.781-9.222,1.477,1.477,0,0,1,2.95.13,16.491,16.491,0,0,0,1.509,7.865,18.5,18.5,0,0,0,2,3.267,1.482,1.482,0,0,1,1.047-1.8c1.363-.405,1.958.926,2.314,1.721.213.477.459,1.074.722,1.719.04-.022.082-.043.125-.062,1.614-.736,2.837.888,4.862,3.577a28.115,28.115,0,0,0,3.283,3.869l0-.006a6.827,6.827,0,0,1,2.053-3.459,5.382,5.382,0,0,1,2.121-1.181,3.086,3.086,0,0,0,1.114-.561,7.087,7.087,0,0,0,2.1-3.605c.213-.678.657-2.087,2.088-1.794a1.411,1.411,0,0,1,1.056.773,6.239,6.239,0,0,0,.4-2.1,5.3,5.3,0,0,0-.484-2.112,18.186,18.186,0,0,1-.946-3.29,20.816,20.816,0,0,1-.341-4.822,1.477,1.477,0,0,1,2.951.131,17.965,17.965,0,0,0,.293,4.157,15.485,15.485,0,0,0,.815,2.819,8.015,8.015,0,0,1,.665,3.129,9.286,9.286,0,0,1-3.164,6.9,1.912,1.912,0,0,1-1.772.333c-.054-.019-.106-.039-.156-.061a7.676,7.676,0,0,1-1.668,1.822,5.956,5.956,0,0,1-2.01,1.04,2.508,2.508,0,0,0-1.084.585,4.064,4.064,0,0,0-1.2,2.121,2.889,2.889,0,0,1-1.713,2.227A2.372,2.372,0,0,1,260.96,246.411Z"/><path d="M255.379,262.514a1.482,1.482,0,0,1-1.049-.432l-8.712-8.668a1.439,1.439,0,0,1,.01-2.057,1.492,1.492,0,0,1,2.088.009l8.712,8.669a1.439,1.439,0,0,1-.01,2.057A1.481,1.481,0,0,1,255.379,262.514Z"/><path d="M256.488,265.932a12.015,12.015,0,0,1-8.626-3.655,1.439,1.439,0,0,1,.036-2.057,1.492,1.492,0,0,1,2.088.035,9.174,9.174,0,0,0,4.684,2.581,9.077,9.077,0,0,0,3.66,0,1.478,1.478,0,0,1,1.744,1.132,1.455,1.455,0,0,1-1.148,1.719A12.231,12.231,0,0,1,256.488,265.932Z"/><path d="M246.431,365.9c-2.269,0-4.383-.395-5.211-2.108-.983-2.035.714-4.3,1.064-4.733a5.65,5.65,0,0,1,2.329-1.676,3.173,3.173,0,0,0,1.124-.7,4.407,4.407,0,0,0,.869-2.9,144.492,144.492,0,0,0-.752-16.094,26.6,26.6,0,0,1-.106-4.35c.067-2.05.179-5.48.1-14.142-.037-3.887-.055-5.838-.124-7.041a83.058,83.058,0,0,0-2.28-14.875c-.174-.761-.336-1.465-.475-2.119a68.4,68.4,0,0,1-.717-22.8,1.477,1.477,0,0,1,2.931.36,65.529,65.529,0,0,0,.676,21.846c.136.639.3,1.329.466,2.074a85.67,85.67,0,0,1,2.348,15.353c.072,1.272.091,3.246.128,7.178.084,8.722-.03,12.19-.1,14.262a23.71,23.71,0,0,0,.091,3.949,143.343,143.343,0,0,1,.764,16.546,7.07,7.07,0,0,1-1.663,4.748,5.917,5.917,0,0,1-2.055,1.357,2.861,2.861,0,0,0-1.243.841,2.61,2.61,0,0,0-.707,1.669c.294.454,2.12.554,5.428.3,2.5-.194,3.544-.294,4.1-.833,1.275-1.237,1.208-4.236.413-6.305a7.99,7.99,0,0,0-.359-.792,5.927,5.927,0,0,1-.643-1.848,8.615,8.615,0,0,1,1.082-5.552l.035-.065c1.183-2.229,1.212-6.42,1.251-12.221.011-1.6.022-3.335.058-5.216.2-10.378.293-15.587,1.283-21.816.138-.868.289-1.74.442-2.627a59.119,59.119,0,0,0,1.065-16.808c-.07-.783-.158-1.57-.262-2.352q-.076-.534-.152-1.07a1.459,1.459,0,0,1,1.252-1.639,1.475,1.475,0,0,1,1.671,1.224q.082.543.156,1.093c1.137,7.877,2.609,15.69,4.379,23.24.277,1.181,6.786,29.022,7.251,37.792.269,5.091.256,6.012.254,6.1-.011.435-.028.837-.044,1.219a15.583,15.583,0,0,0,.149,3.734c.31,1.76.47,2.556,1.006,2.994a3.5,3.5,0,0,0,2.7.46,2.3,2.3,0,0,0,1.512-.78c.121-.22-.219-.954-.579-1.731a22.183,22.183,0,0,1-1.448-3.816c-.625-2.334-.638-4.288-.426-8.059a113.85,113.85,0,0,1,1.258-11.977,31.434,31.434,0,0,0,.515-7.8,15.111,15.111,0,0,0-.95-4.683,44.005,44.005,0,0,1-1.945-8.025,97.137,97.137,0,0,1-1.285-15.306,47.863,47.863,0,0,1,.93-10.225,20.99,20.99,0,0,0,.353-7.908,28.273,28.273,0,0,0-3.777-10.206,1.443,1.443,0,0,1,.517-1.993,1.489,1.489,0,0,1,2.024.51,31.126,31.126,0,0,1,4.154,11.246,23.591,23.591,0,0,1-.364,8.863,44.825,44.825,0,0,0-.884,9.671,94.552,94.552,0,0,0,1.246,14.877,41.608,41.608,0,0,0,1.831,7.573,17.784,17.784,0,0,1,1.1,5.41,34.061,34.061,0,0,1-.54,8.424,111.28,111.28,0,0,0-1.23,11.709c-.219,3.884-.15,5.356.333,7.156a19.431,19.431,0,0,0,1.278,3.35c.674,1.454,1.311,2.828.492,4.324a5,5,0,0,1-3.548,2.253,6.325,6.325,0,0,1-5.148-1.076c-1.4-1.141-1.679-2.728-2.032-4.737a18.2,18.2,0,0,1-.19-4.352c.015-.367.031-.754.042-1.173,0-.027.009-.944-.252-5.874-.45-8.518-7.111-37-7.178-37.288q-.9-3.817-1.689-7.716c-.2,1.344-.419,2.623-.632,3.859-.151.875-.3,1.735-.435,2.59-.959,6.032-1.055,11.175-1.248,21.42-.036,1.869-.047,3.593-.058,5.181-.043,6.442-.072,10.7-1.587,13.551l-.042.078a5.885,5.885,0,0,0-.781,3.7,3.243,3.243,0,0,0,.379,1.049,10.85,10.85,0,0,1,.475,1.051c.937,2.443,1.417,6.964-1.1,9.409-1.346,1.3-3.075,1.439-5.941,1.661C248.548,365.812,247.473,365.9,246.431,365.9Z"/><path d="M253.9,284.672a9.794,9.794,0,0,0,2.474-1.213c.309-.221.558-.451.949-.748a4.171,4.171,0,0,1,.822-.493,2.833,2.833,0,0,1,1.443-.21,2.8,2.8,0,0,1,1.368.582,3.3,3.3,0,0,1,.719.852c.279.485.36.712.466.91a1.453,1.453,0,0,0,.71.591,5.522,5.522,0,0,0,1.427.352,2.648,2.648,0,0,1-1.36,1.076,2.748,2.748,0,0,1-2.053-.108,4.725,4.725,0,0,1-1.46-1.2c-.14-.15-.229-.223-.247-.207,0,.008.034.037.047.04s.1-.025.026-.012a2.224,2.224,0,0,0-.455.182,5.99,5.99,0,0,1-1.631.546A3.784,3.784,0,0,1,253.9,284.672Z"/><path d="M332.671,468.591a1.484,1.484,0,0,1-1.1-.487,231.9,231.9,0,0,1-34.814-50.537,1.441,1.441,0,0,1,.38-1.774,1.494,1.494,0,0,1,1.839-.032c12.928,9.779,18.086,12.71,20.123,13.551-.51-1.051-1.408-2.647-2.394-4.4-1.709-3.04-4.051-7.2-7.119-13.157-.849-1.647-1.559-3.055-2.087-4.11l-20.05-18.979a285.023,285.023,0,0,1-29.019,32.126c-3.627,3.435-6.534,5.993-9.9,8.956-3.047,2.682-6.5,5.723-11.383,10.186-9.023,8.248-17.862,16.735-26.274,25.226a1.492,1.492,0,0,1-2.088.024,1.439,1.439,0,0,1-.025-2.057c8.445-8.525,17.32-17.046,26.379-25.327,4.9-4.482,8.366-7.531,11.424-10.222,3.482-3.065,6.233-5.486,9.82-8.884A282.855,282.855,0,0,0,286.1,385.606a1.492,1.492,0,0,1,2.2-.171l21.432,20.287a1.452,1.452,0,0,1,.3.407c.534,1.069,1.28,2.551,2.186,4.307,3.043,5.906,5.37,10.044,7.069,13.065,3.111,5.533,3.948,7.021,2.645,8.382-1.348,1.406-3.776.434-7.259-1.593-2.943-1.713-7.061-4.508-12.28-8.332a228.952,228.952,0,0,0,31.38,44.209,1.44,1.44,0,0,1-.119,2.054A1.484,1.484,0,0,1,332.671,468.591Z"/><path d="M463.091,501.237c-4.024,0-6.891-2.839-11.524-7.425l-.629-.622c-11.855-11.718-15.858-14.761-19.886-16.823a38.921,38.921,0,0,0-7.436-2.882,1.489,1.489,0,0,1-.617-.344l-28.837-26.8-11.842-6.123-15.984,10.142a1.493,1.493,0,0,1-1.633-.023l-52.226-35.2a1.443,1.443,0,0,1-.385-2.023,1.49,1.49,0,0,1,2.053-.379l51.416,34.656,15.883-10.078a1.494,1.494,0,0,1,1.486-.065l12.784,6.61a1.5,1.5,0,0,1,.327.23l28.721,26.695a41.929,41.929,0,0,1,7.651,3c4.3,2.2,8.486,5.361,20.616,17.351l.631.624c4.833,4.784,6.914,6.72,9.757,6.558a7.971,7.971,0,0,0,4.791-2.246,1.491,1.491,0,0,1,2.085.1,1.44,1.44,0,0,1-.107,2.055,10.836,10.836,0,0,1-6.6,2.992C463.419,501.232,463.253,501.237,463.091,501.237Z"/><path d="M256.845,359.857a1.483,1.483,0,0,1-1.063-.446,1.441,1.441,0,0,1,.039-2.058l9.925-9.416a1.489,1.489,0,0,1,2.3.318l3.375,5.737a1.444,1.444,0,0,1-.537,1.989,1.488,1.488,0,0,1-2.018-.529l-2.43-4.131-8.569,8.129A1.481,1.481,0,0,1,256.845,359.857Z"/><path d="M368.616,447.222a1.483,1.483,0,0,1-.987-.373c-5.506-4.878-10.891-9.9-16-14.936-2.424-2.386-4.415-4.405-6.171-6.187a149.348,149.348,0,0,0-11.127-10.532,133.586,133.586,0,0,0-13.937-10.279,1.475,1.475,0,0,1-.425-.415L308.5,387.47l-20.567-12.553a1.487,1.487,0,0,1-.405-.365l-8.944-11.765a1.442,1.442,0,0,1,.3-2.037,1.492,1.492,0,0,1,2.068.292l8.777,11.545,20.6,12.577a1.46,1.46,0,0,1,.453.432l11.476,17.045a136.387,136.387,0,0,1,13.989,10.342A151.653,151.653,0,0,1,347.572,423.7c1.749,1.775,3.732,3.786,6.14,6.157,5.077,5,10.423,9.986,15.892,14.83a1.441,1.441,0,0,1,.111,2.055A1.487,1.487,0,0,1,368.616,447.222Z"/><path d="M410.721,412.925a1.483,1.483,0,0,1-.788-.226l-46.256-28.793L328.44,408.019a1.49,1.49,0,0,1-2.055-.366,1.441,1.441,0,0,1,.371-2.024l36.04-24.664a1.5,1.5,0,0,1,1.631-.035l47.083,29.309a1.442,1.442,0,0,1,.46,2.007A1.481,1.481,0,0,1,410.721,412.925Z"/><path d="M378.068,436.621a1.483,1.483,0,0,1-1.173-.57,1.441,1.441,0,0,1,.273-2.04L444,383.5a1.494,1.494,0,0,1,1.509-.17l12.277,5.487a1.447,1.447,0,0,1,.735,1.927,1.486,1.486,0,0,1-1.955.724l-11.471-5.128-66.126,49.98A1.482,1.482,0,0,1,378.068,436.621Z"/><path d="M436.416,411.552a1.483,1.483,0,0,1-1.057-.438,1.44,1.44,0,0,1,.025-2.058l52.147-50.137a1.492,1.492,0,0,1,2.088.025,1.441,1.441,0,0,1-.025,2.058l-52.147,50.137A1.482,1.482,0,0,1,436.416,411.552Z"/><path d="M464.9,418.412a1.483,1.483,0,0,1-1.175-.572A1.442,1.442,0,0,1,464,415.8l24.048-18.084a1.491,1.491,0,0,1,2.07.274,1.44,1.44,0,0,1-.278,2.039l-24.049,18.085A1.483,1.483,0,0,1,464.9,418.412Z"/><path d="M469.2,431.009a1.481,1.481,0,0,1-1.164-.559,1.44,1.44,0,0,1,.253-2.042l19.745-15.216a1.491,1.491,0,0,1,2.073.249,1.441,1.441,0,0,1-.253,2.043L470.107,430.7A1.486,1.486,0,0,1,469.2,431.009Z"/><path d="M399.078,438.991a1.481,1.481,0,0,1-1.029-.412,1.439,1.439,0,0,1-.03-2.057l43.033-43.652a1.491,1.491,0,0,1,2.088-.029,1.439,1.439,0,0,1,.03,2.057L400.137,438.55A1.486,1.486,0,0,1,399.078,438.991Z"/><path d="M455.021,504.842a1.474,1.474,0,0,1-1.41-1.025,135.05,135.05,0,0,1-6.395-37.314c-.169-7.4-.4-17.466,1.445-24.637a11.77,11.77,0,0,1-2.71-7.042,12.465,12.465,0,0,1,4.362-9.556,2.325,2.325,0,0,1,2.192-.443c1.433.531,1.4,2.05.947,6.255-.345,3.187-.579,5.344-.977,7.475q.393-.333.793-.653a36.951,36.951,0,0,1,5.143-3.443,1.488,1.488,0,0,1,2.011.555,1.443,1.443,0,0,1-.563,1.981,33.755,33.755,0,0,0-7.944,6.095,1.473,1.473,0,0,1-.6.378c-1.512,6.777-1.291,16.437-1.142,22.966a132.2,132.2,0,0,0,6.263,36.523,1.452,1.452,0,0,1-.974,1.82A1.508,1.508,0,0,1,455.021,504.842Zm-4.347-75.7a9.805,9.805,0,0,0-1.77,5.622,8,8,0,0,0,.7,3.071c.361-1.987.584-4.048.91-7.057C450.584,430.132,450.636,429.592,450.674,429.138Z"/><path d="M449.2,455.765a3.535,3.535,0,0,0-2.444-.443,15.97,15.97,0,0,1-5.153-4.6,16.427,16.427,0,0,1-2.856-11.349,1.458,1.458,0,0,1,.856-1.166,1.493,1.493,0,0,1,1.454.129,20.136,20.136,0,0,1,6.889,8,19.242,19.242,0,0,1,.914,2.33,13.293,13.293,0,0,1,6.426-3.875,12.923,12.923,0,0,1,4.221-.354,1.485,1.485,0,0,1,1.041.548,1.442,1.442,0,0,1,.3,1.123,10.876,10.876,0,0,1-1.68,4.381c-2.984,4.491-8.311,5.168-9.872,5.269Zm8.289-8.408a9.71,9.71,0,0,0-1.463.255,11.411,11.411,0,0,0-6.631,5.195l-.017.029c1.287-.125,5.211-.763,7.321-3.938A7.727,7.727,0,0,0,457.487,447.357Zm-15.835-4.78a13,13,0,0,0,2.361,6.466,12.834,12.834,0,0,0,2.557,2.654,16.373,16.373,0,0,0-1.306-4.134A16.745,16.745,0,0,0,441.652,442.577Z"/><path d="M449.494,468.8a1.489,1.489,0,0,1-.458-.072,16.126,16.126,0,0,1-6-3.46,16.519,16.519,0,0,1-5.159-10.531,1.445,1.445,0,0,1,.6-1.314,1.5,1.5,0,0,1,1.45-.168,20.323,20.323,0,0,1,8.41,6.442,19.343,19.343,0,0,1,1.379,2.094,13.185,13.185,0,0,1,5.482-5.091,12.889,12.889,0,0,1,4.058-1.2,1.5,1.5,0,0,1,1.133.325,1.447,1.447,0,0,1,.529,1.039,10.811,10.811,0,0,1-.732,4.627c-1.987,5-7.058,6.739-8.565,7.153a2.292,2.292,0,0,0-2.121.155Zm8.388-10.038a9.612,9.612,0,0,0-1.378.546,11.308,11.308,0,0,0-5.409,6.425l-.011.032c1.234-.383,4.941-1.8,6.346-5.334A7.724,7.724,0,0,0,457.882,458.761Zm-16.493-1.477a13.1,13.1,0,0,0,3.657,5.852,12.943,12.943,0,0,0,3.056,2.08,16.507,16.507,0,0,0-2.14-3.782A16.916,16.916,0,0,0,441.389,457.284Z"/><path d="M449.494,481.832a1.489,1.489,0,0,1-.458-.072,16.1,16.1,0,0,1-6-3.46,16.519,16.519,0,0,1-5.159-10.53,1.447,1.447,0,0,1,.6-1.315,1.492,1.492,0,0,1,1.45-.167,20.377,20.377,0,0,1,8.41,6.441,19.258,19.258,0,0,1,1.379,2.1,13.173,13.173,0,0,1,5.482-5.091,12.88,12.88,0,0,1,4.058-1.2,1.5,1.5,0,0,1,1.133.325,1.447,1.447,0,0,1,.529,1.039,10.811,10.811,0,0,1-.732,4.627c-1.987,5-7.058,6.739-8.565,7.153a2.292,2.292,0,0,0-2.121.155Zm8.388-10.037a9.607,9.607,0,0,0-1.378.545,11.308,11.308,0,0,0-5.409,6.425l-.011.032c1.234-.382,4.941-1.8,6.346-5.334A7.715,7.715,0,0,0,457.882,471.8Zm-16.493-1.477a13.1,13.1,0,0,0,3.657,5.851,12.913,12.913,0,0,0,3.056,2.08,16.479,16.479,0,0,0-2.14-3.781A16.883,16.883,0,0,0,441.389,470.318Z"/><path d="M450.654,503.046a1.185,1.185,0,0,1-.856-.362,1.152,1.152,0,0,1,.042-1.645,90.549,90.549,0,0,0,17.4-21.667c2.25-4.035,5.563-9.975,6.587-14.568a1.174,1.174,0,0,1-.3-.352,20.9,20.9,0,0,0-1.719-2.615,23.943,23.943,0,0,0-2.925-3.148,1.153,1.153,0,0,1-.073-1.645,1.193,1.193,0,0,1,1.669-.072,26.287,26.287,0,0,1,3.212,3.459q.394.515.759,1.044a49.75,49.75,0,0,1,1.749-5.344c1.04-2.857,1.564-3.791,2.7-3.8.507,0,1.254.251,1.943,1.407a7.128,7.128,0,0,1,.07,6.9,9.5,9.5,0,0,1-4.615,3.848c-.881,5.054-4.4,11.359-6.987,16a92.867,92.867,0,0,1-17.837,22.233A1.187,1.187,0,0,1,450.654,503.046Zm28.366-47.675c-.154.362-.351.858-.6,1.537-.713,1.96-1.2,3.308-1.555,4.63a5.976,5.976,0,0,0,1.968-2.014A4.865,4.865,0,0,0,479.02,455.371Z"/><path d="M473.41,473.493a1.893,1.893,0,0,0-1.915-.322c-1.278-.442-5.532-2.169-6.584-5.844a6,6,0,0,1,.04-3.419,1.183,1.183,0,0,1,1.393-.807,13.154,13.154,0,0,1,3.351,1.219,9.857,9.857,0,0,1,4.273,4.32,15.57,15.57,0,0,1,1.86-1.56,20.85,20.85,0,0,1,8.346-3.37,1.192,1.192,0,0,1,1.111.391,1.152,1.152,0,0,1,.214,1.144,11.982,11.982,0,0,1-6.218,6.607,17.382,17.382,0,0,1-5.734,1.633A1.059,1.059,0,0,1,473.41,473.493Zm-6.364-7.782a3.566,3.566,0,0,0,.139.984c.762,2.661,4.375,4.031,5.092,4.279.025.008.049.018.073.028a7.238,7.238,0,0,0-3.781-4.636A10.152,10.152,0,0,0,467.046,465.711Zm15.075.887a16.989,16.989,0,0,0-4.9,2.365,12.874,12.874,0,0,0-2.13,1.9,14.238,14.238,0,0,0,3.139-1.1A10.5,10.5,0,0,0,482.121,466.6Z"/><path d="M468.073,481.473c-.272,0-.544,0-.818-.017a2.372,2.372,0,0,0-1.953-.633c-1.15-.638-4.9-3.019-4.917-6.852a6.264,6.264,0,0,1,.97-3.314,1.188,1.188,0,0,1,1.46-.478,11.6,11.6,0,0,1,2.982,1.727,8.457,8.457,0,0,1,3.018,4.818,18.3,18.3,0,0,1,2.219-1.225,22.96,22.96,0,0,1,9.048-2.012,1.182,1.182,0,0,1,1.063.6,1.149,1.149,0,0,1-.055,1.208,14.083,14.083,0,0,1-7.8,5.437A18.381,18.381,0,0,1,468.073,481.473Zm9.173-5.407a19.171,19.171,0,0,0-5.2,1.538,15.494,15.494,0,0,0-2.538,1.481,15.594,15.594,0,0,0,3.106-.579A12.681,12.681,0,0,0,477.246,476.066Zm-14.31-3.26a3.644,3.644,0,0,0-.189,1.156c.011,2.642,3.1,4.49,3.714,4.833a1.174,1.174,0,0,1,.181.123c0-.021,0-.042,0-.063a6.073,6.073,0,0,0-2.35-5.153A8.562,8.562,0,0,0,462.936,472.806Z"/><path d="M463.739,489.766c-.271,0-.544-.006-.817-.017a1.18,1.18,0,0,1-.96-.556,1.193,1.193,0,0,1-.994-.077c-1.15-.639-4.9-3.021-4.917-6.852a6.274,6.274,0,0,1,.971-3.314,1.189,1.189,0,0,1,1.46-.478,11.561,11.561,0,0,1,2.982,1.727,8.457,8.457,0,0,1,3.018,4.818,18.225,18.225,0,0,1,2.219-1.225,22.956,22.956,0,0,1,9.048-2.012,1.188,1.188,0,0,1,1.063.6,1.151,1.151,0,0,1-.055,1.208,14.092,14.092,0,0,1-7.8,5.437A18.383,18.383,0,0,1,463.739,489.766Zm9.174-5.407a19.161,19.161,0,0,0-5.2,1.538,15.452,15.452,0,0,0-2.538,1.481,15.594,15.594,0,0,0,3.106-.579A12.689,12.689,0,0,0,472.913,484.359ZM458.6,481.1a3.67,3.67,0,0,0-.188,1.156c.01,2.642,3.1,4.49,3.714,4.833a1.224,1.224,0,0,1,.181.123c0-.021,0-.042,0-.063A6.071,6.071,0,0,0,459.961,482,8.5,8.5,0,0,0,458.6,481.1Z"/><path d="M30.091,59.76,131,180.615,27.38,62.009a1.728,1.728,0,0,1,.187-2.463,1.791,1.791,0,0,1,2.5.184Z"/><path d="M84.9,53.954,198.339,231,81.923,55.843a1.732,1.732,0,0,1,.512-2.418,1.788,1.788,0,0,1,2.453.5Z"/><path d="M59.521,79.3,198.339,265.922,56.679,81.384a1.728,1.728,0,0,1,.344-2.446,1.789,1.789,0,0,1,2.482.339Z"/><path d="M35.049,117.065l137.469,147.86L32.457,119.446a1.728,1.728,0,0,1,.066-2.469,1.792,1.792,0,0,1,2.5.065Z"/><path d="M22.559,167.145,79.87,203.064,20.736,170.139a1.733,1.733,0,0,1-.671-2.38,1.786,1.786,0,0,1,2.415-.661C22.505,167.112,22.535,167.129,22.559,167.145Z"/><path d="M27.281,182.72,177.075,297.851,25.128,185.494a1.729,1.729,0,0,1-.354-2.445,1.79,1.79,0,0,1,2.481-.349Z"/><path d="M16.573,200.126l117.468,81.262L14.572,203.009a1.731,1.731,0,0,1-.493-2.421,1.789,1.789,0,0,1,2.458-.486Z"/><path d="M24.564,233.483l168.712,98.79L22.782,236.5a1.732,1.732,0,0,1-.662-2.382,1.787,1.787,0,0,1,2.417-.652Z"/><path d="M103.122,46.458l56.233,87.761-59.2-85.847a1.731,1.731,0,0,1,.47-2.426,1.789,1.789,0,0,1,2.462.463Z"/><path d="M152.9,89.665l34.3,88.455L149.612,90.971a1.737,1.737,0,0,1,.937-2.29,1.784,1.784,0,0,1,2.325.924Z"/><path d="M191.454,48.5l29.667,128.123L188.01,49.323a1.743,1.743,0,0,1,1.276-2.125,1.773,1.773,0,0,1,2.157,1.258Z"/><path d="M231.494,57.249l8.359,120.871L227.962,57.536a1.772,1.772,0,0,1,3.528-.338Z"/><path d="M276.051,48.476l-7.34,151.1,3.8-151.223a1.772,1.772,0,0,1,3.543.087Z"/><path d="M311.472,41.186,287.444,188.6,307.967,40.673a1.772,1.772,0,0,1,3.511.473Z"/><path d="M346.378,48.811,317.82,161.159,342.928,48.014a1.772,1.772,0,0,1,2.11-1.333,1.746,1.746,0,0,1,1.352,2.079Z"/><path d="M409.556,46.131,307.188,267.918l99.131-223.21a1.784,1.784,0,0,1,2.334-.9,1.737,1.737,0,0,1,.913,2.3Z"/><path d="M452.033,46.233l-81.56,148.849L448.9,44.606a1.785,1.785,0,0,1,2.386-.756,1.735,1.735,0,0,1,.767,2.351Z"/><path d="M512.079,62.494l-184.133,217.4,181.4-219.618a1.79,1.79,0,0,1,2.493-.252,1.728,1.728,0,0,1,.256,2.456Z"/><path d="M494.25,143.431,363.385,270.911l128.349-129.94a1.791,1.791,0,0,1,2.506-.033,1.728,1.728,0,0,1,.034,2.469Z"/><path d="M491.075,187.455,377.055,276.9,488.834,184.75a1.789,1.789,0,0,1,2.5.219,1.728,1.728,0,0,1-.222,2.459Z"/><path d="M496.522,223.464,452.49,250.956l42.035-30.377a1.791,1.791,0,0,1,2.478.376,1.731,1.731,0,0,1-.381,2.442C496.59,223.419,496.555,223.443,496.522,223.464Z"/><path d="M504.611,235.445,366.929,324.291l135.708-91.747A1.789,1.789,0,0,1,505.1,233a1.73,1.73,0,0,1-.459,2.428Z"/><path class="cls-1" d="M524.571,4V520.286H4V4H524.571m4-4H0V524.286H528.571V0Z"/><path class="cls-2" d="M525.268,521.371H4V3.781H525.268ZM34,491.371H495.268V33.781H34Z"/></g></svg>