<svg xmlns="http://www.w3.org/2000/svg" viewBox="0 0 528.571 524.286"><defs><style>.cls-1{fill:none;stroke:#000;stroke-linecap:round;stroke-linejoin:round;stroke-width:4px;}.cls-2{fill:#616060;}.cls-3{fill:#8d8989;}</style></defs><title>icon</title><g id="Layer_38" data-name="Layer 38"><path class="cls-1" d="M56.445,351.465a69.231,69.231,0,0,1,1.991-26.779c.573-2.047,1.858-6.256,6.769-15.928,3.751-7.386,7.845-14.468,23.693-37.829,9.776-14.409,11.923-17.174,15.928-20.706,1.381-1.218,6.773-5.868,18.716-11.747a155,155,0,0,1,35.639-12.344"/><path class="cls-1" d="M113.719,275.774c6.764,24.308,4.572,41.706,1.328,53.093-3.8,13.328-10.351,23.038-7.7,38.493,1.749,10.191,7.118,20.655,11.681,20.441,3.135-.147,3.4-5.219,7.964-6.9,5.671-2.092,11,3.626,19.113,7.7,12.7,6.379,25.273,5.233,30.264,4.778,10.6-.967,29.042-5.888,32.121-17.255,1.16-4.283-.851-5.823-2.92-14.6-3.835-16.27-1.408-30,0-37.962.674-3.814,3.635-11.923,9.557-28.139,11.4-31.211,14.746-36.545,16.99-39.821,5.966-8.711,8.426-9.172,11.149-16.193,4.187-10.794.969-16.4,6.9-24.158,2.946-3.852,5.269-4.468,8.76-10.087,2.964-4.771,3.826-8.409,3.982-11.415a20.633,20.633,0,0,0-.265-4.513"/><path class="cls-1" d="M261.784,200.713a23.089,23.089,0,0,0,8.893-9.424c1.845-3.741,2.161-7.044,2.389-11.349.327-6.19.491-9.286-.8-11.547-4.376-7.69-19.077-5.965-20.707-5.774-.883.1-13.144,1.68-17.322,8.959a22.746,22.746,0,0,0-2.19,5.774c-.631,2.983-.162,4.184-.4,6.172-.39,3.295-2.787,5.826-7.566,10.752-5.409,5.576-6.511,5.172-8.959,8.959-1.731,2.678-1.8,3.839-3.783,5.774-2.3,2.244-3.984,2.416-7.168,4.38-3.69,2.277-4.929,4.206-6.968,5.973-2.9,2.514-7.912,5.122-17.123,5.177"/><path class="cls-1" d="M232.4,179c1.229-2.671,4.214-8.1,9.142-8.877,2.184-.346,5.689,1.623,12.609,5.575,7.9,4.512,9.92,6.315,11.283,7.7a33.4,33.4,0,0,1,5.176,6.836"/><path class="cls-1" d="M255.479,197.66a17.967,17.967,0,0,0-1.792-8.229c-3.521-7.051-10.93-8.9-10.353-10.619.463-1.379,5.591-1.228,9.556.332,1.273.5,7.042,2.962,6.9,6.5a4.131,4.131,0,0,1-1.062,2.455"/><path class="cls-1" d="M240.613,199.85a22.112,22.112,0,0,1,.929,24.291"/><path class="cls-1" d="M232.412,183.25c-1.024,1.158-1.292,1.466-1.29,1.469a29.239,29.239,0,0,1,3.219-3.352,18.875,18.875,0,0,1,5.641-3.318"/><path class="cls-1" d="M220.172,257.59a92.13,92.13,0,0,0-18.052,27.874"/><path class="cls-1" d="M116.042,387.337a154.8,154.8,0,0,0,4.314,97.227"/><path class="cls-1" d="M138.408,439.833a208.642,208.642,0,0,1,19.777,32.387q3.106,6.319,5.575,12.344"/><path class="cls-1" d="M198.3,387.9c1.335,15.553,3.181,31.924,5.674,49.012,2.335,16.006,5.034,31.242,7.964,45.66"/><path class="cls-1" d="M138.706,231.375c1.488-5.945,4.287-8.853,5.94-10.221,4.678-3.871,7.135-1.16,25.485-3.285,4.589-.531,9.108-1.242,13.439,1.394a14.029,14.029,0,0,1,4.049,3.783"/><path class="cls-1" d="M148.4,218.516c-1.219-2.041-3.188-5.206-5.848-8.91-8.842-12.31-12.811-13.16-16.227-19.91-3.69-7.291-4.868-17.783-.6-26.679,4.062-8.46,11.439-12.118,17.72-15.231,9.884-4.9,27.05-9.655,32.354-2.887a10.212,10.212,0,0,1,1.095,9.457c-1.94,4.923-6.878,3.886-10.155,9.059-2.584,4.081-3.528,11.069-.7,15.629,1.475,2.377,3.848,3.888,4.081,7.268.044.643.175,2.54-.9,3.285-1.634,1.136-4.188-1.716-5.774-.8-1.751,1.016-1.558,6.191.9,9.756,2.613,3.795,7.524,5.383,8.163,4.58.356-.448-.658-1.859-2.688-4.679a62.148,62.148,0,0,0-3.981-4.978"/><path class="cls-1" d="M170.206,203.832q.734,6.459,1.468,12.917"/><path class="cls-1" d="M181.331,217.421a12.756,12.756,0,0,1,2.837-3.136c2.236-1.757,3.712-1.648,5.176-2.588,4.525-2.906,4.213-12.8,2.19-13.539-.835-.307-1.365,1.167-3.484,1.394-1.919.205-4.474-.683-4.977-2.489a2.748,2.748,0,0,1,.4-2.29c1.219-1.5,3.645.154,5.475-1.294,1.585-1.254,1.5-3.843,1.493-4.181-.048-1.544-.68-1.768-.7-2.787-.054-3.224,6.21-4.521,6.072-6.77-.11-1.8-4.155-1.6-7.765-5.077-2.205-2.126-2.372-3.818-4.181-7.367a41.7,41.7,0,0,0-7.765-10.552"/><path class="cls-1" d="M172.321,175.361a7.6,7.6,0,0,1,1.394-6.836,7.212,7.212,0,0,1,4.911-2.323"/><path class="cls-1" d="M178.626,173.569q.93,2.256,1.858,4.513"/><path class="cls-1" d="M244.727,163.481c1.121-1.542,15.329-21.248,18.035-31.695a20.639,20.639,0,0,0,.747-6.2c-.181-4.85-2.1-7.415-3.584-11.15-3.328-8.374-2.759-18.307-.4-19.113,1.282-.438,3.171,1.786,3.982,2.986,3.384,5.006,1.38,11.96,1.195,11.946-.315-.023,1.381-20.336.73-23.494a4.832,4.832,0,0,1,.033-2.024c.131-.565.344-1.48,1-1.759.981-.418,2.352.866,2.92,1.56a5.031,5.031,0,0,1,.862,1.56"/><path class="cls-1" d="M268.553,107.468l2.655-26.746c.451-.618.814-.737,1.062-.73.6.017,1.27.758,2.19,3.584a35.3,35.3,0,0,1,1.593,8.163"/><path class="cls-1" d="M274,106.074a115.244,115.244,0,0,0,1.328-11.813,37.5,37.5,0,0,1,1.526-7.7c.737-2.48,1.269-3.411,1.991-3.517,1.221-.18,2.468,2.077,2.787,2.655,2,3.622,1.362,7.827.6,10.552"/><path class="cls-1" d="M285.311,124.391a121.064,121.064,0,0,0-.5-18.416c-.606-5.765-1.561-10.651.8-12.146a3.244,3.244,0,0,1,3.684.2c.859.869.34,2.267.2,5.077a47.751,47.751,0,0,0,.3,5.574c.159,2.633.39,7.664.7,18.218"/><path class="cls-1" d="M290.421,104.315c-.12-4.589,1.168-7.99,3.152-8.5a2.14,2.14,0,0,1,1.593.2c1.98,1.251.667,6.478,0,9.755a76.252,76.252,0,0,0-1.393,17.986,47.783,47.783,0,0,1,3.981-15c.437-.965,2.888-6.377,3.883-6.073,1.344.411-.784,11-.9,11.548-.983,4.825-3.318,14.031-4.977,21a11.38,11.38,0,0,0-.2,5.077c.6,2.978,2.4,4.833,3.982,6.571,4.036,4.435-2.245-1.738,8.562,10.552,2.344,2.666,5.294,5.975,8.76,9.756"/><path class="cls-1" d="M285.311,93.464a6.248,6.248,0,0,1,.232-4.048c1.193-2.732,4.584-4.326,5.641-3.517.66.5.206,1.787-.232,4.645a48.6,48.6,0,0,0-.564,7.865"/><path class="cls-1" d="M291.636,97.588a8.812,8.812,0,0,1,4.492-4.555c.575-.227,2.387-.944,3.153-.2.935.909-.232,3.466-.83,4.878a55.794,55.794,0,0,0-3.683,13.539"/><path class="cls-1" d="M297.555,171.047c-1.006-1.682-2.525-4.293-4.247-7.566-3.84-7.3-4.1-9.167-6.9-13.14-.334-.474-2.524-2.926-6.9-7.832-6.285-7.04-7.121-7.863-7.964-10.087-1.474-3.884-.361-5.159-2.406-8.18-1.355-2-3.285-3.571-2.837-5.425a2.36,2.36,0,0,1,.945-1.394c1.362-.86,3.416.392,3.883.7,1.7,1.111,2.278,2.665,3.086,4.28a29.854,29.854,0,0,0,4.654,6.72,99.556,99.556,0,0,1-3.609-20.856c-.095-1.509-.886-13.987,1.062-14.335.712-.127,1.542,1.413,2.057,2.389,2.61,4.942,2.174,9.667,2.19,12.477a30.385,30.385,0,0,0,4.248,14.8"/><path class="cls-1" d="M261.524,96.058a35.193,35.193,0,0,0-.537-5.978c-.478-2.684-1.089-4.254-.6-6.571.175-.826.6-2.807,1.725-3.052,1-.217,2.366.963,3.252,2.986"/><path class="cls-1" d="M259.635,85.99a7.208,7.208,0,0,0-2.447,2.912,10.436,10.436,0,0,0-.6,3.783c-.295,2.985-1.944,4.856-2.687,6.072-1.366,2.234-2.33,6.638-.188,16.249"/><path class="cls-1" d="M260.456,130.3a30.484,30.484,0,0,1-3.318-7.9c-.579-2.242-.737-3.985-2.19-5.973-1.178-1.611-3.169-3.33-4.048-2.853-.751.406-.411,2.256.132,5.508.849,5.081,1.491,9.3,1.659,10.552a30.9,30.9,0,0,1-.8,11.814"/><path class="cls-1" d="M278.392,142.31q-1.988,10.343-4.729,21.171-.554,2.175-1.128,4.314"/><path class="cls-1" d="M305.32,185.714a19.089,19.089,0,0,1-6.072-7.566c-.915-2.1-2.023-4.637-1.195-7.565a10.153,10.153,0,0,1,4.281-5.376,15.619,15.619,0,0,1,9.756-2.787"/><path class="cls-1" d="M252.459,133.251a45.309,45.309,0,0,1-10.519,8.595c-4.474,2.636-6.366,2.676-17.919,6.5-14.053,4.656-13.994,5.5-19.379,6.238-5.235.714-6.959.14-14.866,1.062a123.416,123.416,0,0,0-12.179,2.041"/><path class="cls-1" d="M196.462,179.592a73.514,73.514,0,0,0,12.792-2.339,71.784,71.784,0,0,0,18.417-7.765c5.567-3.36,8.254-6.094,15.829-9.557,1.874-.857,3.453-1.487,4.513-1.892"/><path class="cls-1" d="M235.038,145.031a12.87,12.87,0,0,0-1.327,6.372c.353,6.216,5.336,9.835,6.083,10.36"/><path class="cls-1" d="M223.266,149.1a17.388,17.388,0,0,0,1.12,12.02,16.947,16.947,0,0,0,5.873,6.6"/><path class="cls-1" d="M340.03,309.754a19.162,19.162,0,0,1-11.017-1.858c-8.167-4.237-10.006-13.51-10.486-15.928-1.024-5.164.472-5.661,1.062-15.663.313-5.3.766-14.046-1.725-23.627-1.873-7.2-3.1-5.98-4.912-12.609-3.235-11.822.863-14.95-1.327-28.936-1.23-7.856-2.662-7.753-3.982-17.256-1.3-9.394-1.9-14.18.664-18.516,4.156-7.015,13.475-8.787,17.521-9.557a34.4,34.4,0,0,1,10.353-.4c10.589,1.262,21.006,7.924,27.077,17.521,8.653,13.678,5.461,28.55,4.58,32.652-1.7,7.9-3.984,8.051-5.575,17.123a60.531,60.531,0,0,0,.8,24.29c3.172,13.283,7.613,11.5,8.363,20.109,1.124,12.91-8.776,17.947-17.521,36.635-.423.9-1.331,2.881-2.987,3.185-2.016.371-4.191-1.917-10.353-10.95-4.685-6.868-7.027-10.3-7.566-11.946-2.53-7.715-.184-15.328,1.991-20.109"/><path class="cls-1" d="M328.217,258.187a55.81,55.81,0,0,1,0,18.715,55.211,55.211,0,0,1-2.987,10.752"/><path class="cls-1" d="M347.928,256.793c.077,3.323.083,6.777,0,10.353-.117,5.026-.4,9.812-.8,14.336"/><path class="cls-1" d="M357.286,255.2c.346,3.842.8,9.316,1.194,15.928.64,10.642.474,13.1.2,15.132a42.412,42.412,0,0,1-6.172,16.724"/><path class="cls-1" d="M320.452,215.579q.01,8.688-.2,17.72-.148,6.258-.4,12.344"/><path class="cls-1" d="M338.371,197.66a44.8,44.8,0,0,1-2.389,31.657"/><path class="cls-1" d="M354.5,179.94a33.348,33.348,0,0,1,6.57,29.467"/><path class="cls-1" d="M306.863,194.923A101.756,101.756,0,0,0,303,207.814c-1.19,5.193-1.785,7.79-1.592,10.619.376,5.516,2.47,5.464,4.778,14.734.958,3.845,1.031,5.6,2.655,8.1a16.772,16.772,0,0,0,5.973,5.442"/><path class="cls-1" d="M316.918,252.264a25.37,25.37,0,0,0-5.675,3.135,25.882,25.882,0,0,0-7.466,8.661"/><path class="cls-1" d="M318.61,258.585a66.729,66.729,0,0,0-29.417,16.127c-3.427,3.276-15.742,15.793-19.512,35.042-3.333,17.023,1.845,29.974-5.575,37.829-1.229,1.3-5.313,5.119-6.371,11.149a17.69,17.69,0,0,0,0,5.973"/><path class="cls-1" d="M268.835,312.367a16.315,16.315,0,0,0-11.6.473,15.733,15.733,0,0,0-6.173,4.977c1.6,13.609.485,23.517-.9,30.164-1,4.8-1.593,9.436-2.788,18.715-.674,5.241-.937,7.993,0,11.548a22.01,22.01,0,0,0,7.168,11.15c1.883,1.536,4.243,3.459,7.565,3.584,2.993.112,5.581-1.279,7.965-3.186,7.724-6.18,10.88-15.845,16.724-30.263,1.505-3.714,3.791-9.228,6.769-15.928"/><path class="cls-1" d="M253.919,313.935c-.1-1.457-.272-3.554-.564-6.073a75.013,75.013,0,0,0-2.091-12.244c-1.833-6.529-3.108-5.557-3.285-8.96-.234-4.516,2.088-4.754,3.385-12.643.465-2.828.455-4.555,1.892-5.575,1.551-1.1,4.077-.87,5.774.2,2.441,1.539,3.022,4.725,3.484,4.579.424-.134-.571-2.662.5-3.584.831-.717,2.727-.306,3.883.7,1.792,1.554,1.672,4.412,2.09,4.38.355-.027.009-2.053,1.195-2.986a2.893,2.893,0,0,1,2.788-.2,4.056,4.056,0,0,1,2.09,2.886c.323,1.367-.16,1.874-1.593,6.073-1.262,3.7-1.556,5.262-2.986,5.874-.554.236-1.1.252-1.294.7-.349.783.591,2.4,1.692,2.688,2.354.614,5.873-4.742,7.466-8.86.637-1.646,2.038-5.267.6-6.471-.773-.646-2.091-.364-3.011-.049"/><path class="cls-1" d="M251.912,280.586a9,9,0,0,1,2.488-5.525c5.129-4.926,15.921-.459,15.978,1.443a4.006,4.006,0,0,1-1.4,2.168,5.18,5.18,0,0,1-.643.47c-2.041,1.24-6.663.889-7.018,1.892-.232.656,1.621,1.17,3.335,3.583a12.291,12.291,0,0,1,2.091,5.476,9.767,9.767,0,0,1,.049,2.837c-.181.011-1.627-6.81.4-10,.179-.282,1.011-1.524,2.016-3.36.315-.575.562-1.054.721-1.369"/><path class="cls-1" d="M293.673,345.592c4.155,4.574,9.106,11.615,9.324,20.441.115,4.641-1.147,7.012-3.185,15.131-1.507,6-2.42,12.142-4.248,24.423-3.373,22.675-1.8,23.157-4.778,29.733-2,4.408-3.881,6.784-2.92,9.822.492,1.556,2.53,5.819,17.255,8.23,8.183,1.339,21.138,3.3,38.228-1.859,15.363-4.635,15.549-9.433,35.572-15.4,6.372-1.9,8.011-1.9,9.822-3.982,5.058-5.8-.1-20.315-10.618-49.111-9.158-25.068-9.379-25.631-9.823-28.14-1.971-11.139.388-11.314,3.186-47.784,2.43-31.676.657-31.629,3.451-39.554,1.476-4.185,3.518-8.588,1.858-13.539-1.966-5.869-7.5-7.628-11.68-16.459a34.331,34.331,0,0,1-2.124-5.774"/><path class="cls-1" d="M343.083,374.13l16.061-15"/><path class="cls-1" d="M351.578,377.581q2.655-3.983,5.309-7.964"/><path class="cls-1" d="M290.935,449.472a141.472,141.472,0,0,0-7.416,33.8"/><path class="cls-1" d="M383.965,435.287a219.775,219.775,0,0,0-5.077,49.376"/><path class="cls-1" d="M352.109,484.663a29.841,29.841,0,0,1,12.543-7.764q.96-.291,1.892-.5"/><path class="cls-1" d="M296.41,135.392c15.62,9.051,26.851,10.88,34.461,10.7,2.863-.067,11.5-.566,17.389,4.646a14.745,14.745,0,0,1,4.114,5.84,16.564,16.564,0,0,1,0,10.752,18.162,18.162,0,0,1-1.194,2.92"/><path class="cls-1" d="M307.685,156.247c2.338.831,4.8,1.8,7.341,2.937a100.86,100.86,0,0,1,11.7,6.172"/><path class="cls-1" d="M346.136,148.814c12.816-4.325,16.91-3.5,18.118-1.725.661.97.23,1.889.5,5.176.415,5.1,1.65,5.32,2.09,9.259.829,7.422-2.778,13.642-3.584,15.032a25.8,25.8,0,0,1-1.791,2.687"/><path class="cls-1" d="M365.979,156.082c2.237,2.632,5.759,5.81,10.354,6.138.961.069,2.229.032,9.357-2.322,8.314-2.746,9.474-3.649,12.278-3.584,2.275.052,5.6.741,9.624,3.915"/><path class="cls-1" d="M366.942,189.2a35,35,0,0,1,16.724,1.095c2.3.767,3.55,1.495,7.964,3.285,5.112,2.073,9.361,3.5,12.145,4.38"/><path class="cls-1" d="M393.721,195.271a82.7,82.7,0,0,1,2.323,11.017c.541,3.834.473,5.27,1,9.291s1.129,8.687,2.456,12.411c1.92,5.392,4.717,7.021,10.552,13.472,8.809,9.74,13.214,14.61,13.738,19.512.518,4.845-.656,15.472-5.376,23.892-.494.882-1.294,2.217-.8,3.385,1.452,3.4,12.464,1.95,21.5.2"/><path class="cls-1" d="M409.35,134.346a96.064,96.064,0,0,0-1.393,18.616,69.923,69.923,0,0,0,3.484,21.4c2.093,6.133,3.2,9.228,6.072,10.651,5.3,2.625,12.266-1.976,18.318-5.973,4.1-2.708,10.924-7.215,11.05-12.344.02-.829-.1-3.2,1-3.683.673-.3,1.268.358,2.19.6,3.116.806,8.291-3.579,8.661-8.263.057-.719.2-2.572-.9-3.384-1.2-.888-3.584-.31-5.774,1.692"/><path class="cls-1" d="M407.326,120.741c-.313-6.833,2-10.8,3.186-12.477,5.732-8.126,17.462-8.707,23.892-9.026a82.177,82.177,0,0,1,11.946.531,32.147,32.147,0,0,1,6.371,1.062c7.469,2.713,10.745,11.218,11.946,14.335a33.34,33.34,0,0,1,2.124,13.805"/><path class="cls-1" d="M459.357,121.272a54.92,54.92,0,0,1,5.045,10.619c2.451,7.017,2.2,10.92,4.247,18.848a84.817,84.817,0,0,0,4.778,13.539"/><path class="cls-1" d="M436.527,110.388a13.388,13.388,0,0,1,11.15,0,12.69,12.69,0,0,1,5.575,5.575"/><path class="cls-1" d="M415.29,127.643c5.638-7.638,11.348-8.776,13.273-9.026,5.577-.723,10.835,1.928,20.176,6.637,2.468,1.245,4.468,2.378,5.84,3.186"/><path class="cls-1" d="M440.509,127.909c2.579.471,5.334,1.078,8.23,1.858a102.386,102.386,0,0,1,9.822,3.186"/><path class="cls-1" d="M411.839,139.855c4.925-2.475,9.23-1.958,10.353,0,.853,1.487-.221,3.644-.531,4.247"/><path class="cls-1" d="M433.342,144.633a10.8,10.8,0,0,1,10.353-2.124"/><path class="cls-1" d="M416.352,147.288c-.8-.186-2.378,1.791-2.058,3.451.089.457.384,1.22.93,1.327.67.132,1.372-.8,1.659-1.46C417.457,149.278,417.043,147.448,416.352,147.288Z"/><path class="cls-1" d="M435.333,150.108a2.359,2.359,0,0,0-3.053.5c-.422.591-.036.974,0,3.252.025,1.6-.158,1.984.2,2.389a2.3,2.3,0,0,0,2.854.067c.841-.67.738-1.907.531-4.38C435.754,150.621,435.568,150.309,435.333,150.108Z"/><path class="cls-1" d="M415.423,158.338a11.979,11.979,0,0,0,8.959,4.181"/><path class="cls-1" d="M413.531,164.908c1.167-1.176,5.867,4.52,12.544,4.082,4.4-.289,7.025-3.064,7.665-2.29.754.913-2.709,5.006-5.376,7.566-2.841,2.727-6.593,6.329-9.059,5.276-1.4-.6-1.094-2.143-3.086-7.367C414.333,167.229,412.893,165.553,413.531,164.908Z"/><path class="cls-1" d="M471.436,154.986a25.542,25.542,0,0,1,6.5,6.372c1.541,2.181,4.388,6.21,4.38,11.946a18.8,18.8,0,0,1-3.981,11.282"/><path class="cls-1" d="M450.116,164.062a13.711,13.711,0,0,0,6.587,6.454c3.669,1.5,5.71-.078,9.822,1.2,3.411,1.056,5.36,3.181,8.893,7.035,1.752,1.91,6.026,6.571,8.23,11.68,2.352,5.454,2.173,11.016-1.2,25.087a314.224,314.224,0,0,1-13.273,41.678c-3.151,8.1-5.9,14.639-7.7,18.848"/><path class="cls-1" d="M465.148,269.934a7.513,7.513,0,0,1,1.294,2.04,8.526,8.526,0,0,1,.349,5.127c-.848,4.429-3.152,4.87-4.513,9.557-.908,3.124-.048,3.492-.929,4.779-2.767,4.038-13.5,3.726-19.778-1.859a16.45,16.45,0,0,1-4.114-5.84c-1-2.415-.7-3.364.663-15.663.095-.853.288-2.611,1.46-3.185a2.476,2.476,0,0,1,1.859,0"/><path class="cls-1" d="M438.883,267.81a20.8,20.8,0,0,0,8.6,7.4c9.153,4.16,18-.306,19.213-.946"/><path class="cls-1" d="M443.2,271.576a29.166,29.166,0,0,1-.5-14.882c.754-3.1,1.695-4.494,3.285-8.761A84.025,84.025,0,0,0,449.967,233c1.933-10.518.35-13.143,2.588-22.9a70.9,70.9,0,0,1,2.688-8.959"/><path class="cls-1" d="M426.871,185.017a43.2,43.2,0,0,0,2.19,4.331c1.666,2.881,2.5,4.321,3.584,4.529,2.18.419,4.546-3.162,6.272-5.774a37.782,37.782,0,0,0,4.38-9.755c.676-2.088,1.117-3.854,1.394-5.077"/><path class="cls-1" d="M411.59,178.4c-.175,1.758-.391,4.118-.6,6.919-.257,3.492-.279,4.722.249,4.928.508.2,1.839-1.176,4.479-3.932.382-.4.693-.729.9-.946"/><path class="cls-1" d="M423.387,190.559a18.342,18.342,0,0,1,1.327,6.769c-.008,3.869-1.333,5.931-2.389,12.345-.282,1.713-.443,3.115-.531,3.982"/><path class="cls-1" d="M421.794,216.575c-.207,1.112-1.672,9.273-.133,15.131a23.573,23.573,0,0,0,1.593,4.248,20.524,20.524,0,0,0,3.053,4.38,109.927,109.927,0,0,1,7.168,9.291"/><path class="cls-1" d="M431.616,252.678c-1.721,6.347-1.023,10.69,0,13.539.645,1.8,1.519,3.274,2.92,7.035,1.129,3.029,1.873,5.584,2.331,7.3"/><path class="cls-1" d="M439.813,289.645c-3.178,22.116-5.7,31.334-7.566,35.24a21.9,21.9,0,0,0-2.19,7.666,23.792,23.792,0,0,0,.7,7.765,28.555,28.555,0,0,0,4.978,10.154c4.356,6.013,5.981,4.392,10.154,10.353a16.679,16.679,0,0,0,5.575,5.575c.679.387,3.3,1.879,3.982,1.194,1.828-1.821-12.1-16.988-10.254-18.914,1.122-1.171,7.747,2.9,11.946,5.475,6.332,3.888,9.79,7.035,13.539,5.874.678-.21,2.108-.653,2.389-1.693,1.185-4.385-19.707-13.452-19.611-13.638.04-.079,3.895,1.294,9.287,4.546,6.122,3.693,7.644,5.839,11.619,6.305,3.609.423,7.381-.757,7.466-1.892.1-1.3-4.69-1.993-13.838-5.873a78.085,78.085,0,0,1-9.258-4.579c-.151.268,14.676,7.175,21.7,7.665a5,5,0,0,0,4.082-1.095c.868-.892,1.373-2.461.8-3.285-.842-1.2-3.563-.208-6.272.1-8.1.92-14.522-4.506-14.534-4.479s5.858,4.276,12.344,2.887c2.633-.564,5.532-2.093,5.376-3.186-.285-1.987-10.243.5-20.806-4.778a89.559,89.559,0,0,1-8.96-5.774c-4.248-2.911-5.1-3.749-5.574-4.978-1.356-3.481,1.349-7.275,3.086-10.353,2.466-4.372,5.155-11.16,5.575-21.4"/><path class="cls-1" d="M117.834,308.626a27.516,27.516,0,0,0-10.818,3.451c-3.186,1.83-5.31,4.162-9.556,8.826-4.859,5.336-7.317,8.081-8.761,11.847a31.571,31.571,0,0,0-1.991,9.159c-.1,2.866.355,4.046-.1,6.271a13.835,13.835,0,0,1-4.381,7.267"/><path class="cls-1" d="M87.206,349.972a42.276,42.276,0,0,1,0,6.869c-.392,4.813-.653,8.006-2.788,10.652-2.044,2.533-4.775,3.284-8.76,4.38a28.346,28.346,0,0,1-12.046.7c-3.959-.675-7.268-1.238-9.855-3.883-3.681-3.762-3.065-8.84-1.891-18.516.187-1.543.572-3.783,2.289-4.878a4.12,4.12,0,0,1,1.81-.605"/><path class="cls-1" d="M53.857,350.37a25.661,25.661,0,0,0,8.86,5.476,33.933,33.933,0,0,0,12.344,1.592c1.6-.016,2.941-.111,3.882-.2"/><path class="cls-1" d="M58.983,372.371c-1.586,11.777-2.442,20.967-2.936,27.376-.245,3.174-.3,4.3-1,5.973-3.492,8.33-13.524,7.137-22.5,15.331-4.193,3.828-6,7.74-8.96,14.136-1.706,3.689-3.194,10.954-6.172,25.485-.666,3.252-.971,4.869-.2,5.376,1.938,1.273,10.341-4.661,11.349-11.946.347-2.507-.482-3.009-.547-8.273-.067-5.482.777-9.263.945-9.248.388.033-3.41,20.311,2.389,22.9a3.45,3.45,0,0,0,3.186-.2c2.1-1.435.78-5.477.8-12.045a38.373,38.373,0,0,1,1.394-10.752c-.106-.017-5.661,19.35.2,23.195.123.081,1.678,1.076,2.688.5,1.674-.957.423-5.413.1-9.059A26.851,26.851,0,0,1,43.4,434.988c.086.026-8.317,18.25-2.389,23.593,2.553,2.3,7.049,1.567,7.466,1.494,3.846-.678,7.193-3.61,6.769-4.878-.46-1.379-5.017.271-6.769-2.091-1.454-1.96-.105-5.5.995-7.367,1.781-3.013,3.813-3.149,7.068-6.371,1.8-1.784,2.761-3.346,4.679-6.471a73.894,73.894,0,0,0,7.765-17.62c.346-1.179.571-2.075.731-2.7a115.223,115.223,0,0,0,2.455-14.021c1.011-6.461,1.958-5.955,5.973-21.2.656-2.491,1.166-4.54,1.493-5.873"/><path class="cls-1" d="M141.262,117.025a26.9,26.9,0,0,0-1.095-5.973c-.685-2.251-4.491-13.678-15.829-17.654-1.327-.465-11.274-3.766-18.848,1.593-3.3,2.337-4.924,5.451-6.371,8.229-1.907,3.662-3.922,7.532-3.186,11.946.5,3.026,1.778,3.169,7.168,12.477,2.6,4.492,3.359,6.281,2.654,7.168-1.333,1.678-6.6-1.515-7.7,0-.922,1.27,1.472,5.314,4.778,7.964,3.745,3,6.7,2.64,7.433,4.778.417,1.21.141,3.269-3.451,6.9"/><path class="cls-1" d="M136.085,115.631l12.344,6.471-4.48,7.765"/><path class="cls-1" d="M146.637,127.278a44.452,44.452,0,0,1-3.019,19.678"/><path class="cls-1" d="M111.463,112.91a6.9,6.9,0,0,1,3.716-4.513,7.027,7.027,0,0,1,6.372.531"/><path class="cls-1" d="M124.205,118.087c-.777.161-1.474,3.918.266,5.043.529.343,1.452.551,1.858.133C127.3,122.264,125.1,117.9,124.205,118.087Z"/><path class="cls-1" d="M126.727,137.6c1.214-1.668,5.719,1.792,11.681-.132,1.924-.622,2.674-1.376,3.318-.929,1.5,1.041-.241,6.776-3.451,10.618-1.195,1.431-2.272,2.684-3.716,2.655-1.83-.037-3.1-2.106-5.177-5.575C127.132,140.471,126.007,138.588,126.727,137.6Z"/><path class="cls-1" d="M132.833,108.928a3.823,3.823,0,0,1,.8-3.318,3.743,3.743,0,0,1,2.788-1.195"/><path class="cls-1" d="M139.47,105.875a12.462,12.462,0,0,0,2.654-5.309c1.31-5.976-2.56-10.819-3.053-11.415-2.89-3.5-4.808-2.221-10.884-6.5-5.611-3.956-5.3-5.983-8.627-6.637-4.261-.838-9.083,1.639-11.814,4.115-1.863,1.689-2.079,2.768-4.513,4.513A22.454,22.454,0,0,1,97,87.558c-9.432,3.344-10.11,2.886-11.415,4.247-2.324,2.423-.978,4.707-2.124,10.884-1.58,8.522-5,8.794-6.106,15.265A25.4,25.4,0,0,0,82.527,137.2c5.456,6.789,11.557,5.836,14.07,12.743.864,2.375,1.245,5.518,3.849,6.9a6.751,6.751,0,0,0,4.646.4"/><path class="cls-1" d="M130.709,154.854a234.976,234.976,0,0,0-34.046,4.181c-8.763,1.731-15.928,3.146-24.489,6.371A116.6,116.6,0,0,0,35.141,188.7C17.071,205.45,23.906,209.75,5.674,226.132c-5.114,4.595-11.16,9.2-11.149,15.928.008,5.655,4.3,11.975,7.167,16.193,3.781,5.565,6.872,7.976,6.106,11.415-.639,2.87-3.371,3.8-3.451,7.168-.044,1.845.706,4.424,2.124,4.778,2.705.676,7.548-6.821,9.291-13.8a23.148,23.148,0,0,0,.8-7.7c-.484-6.535-3.611-7.863-2.92-11.68.556-3.071,3.468-5.145,9.292-9.291,6.113-4.353,6.846-3.392,10.087-6.372,4.326-3.977,3.787-6.394,8.495-12.211a45.532,45.532,0,0,1,8.761-8.23c4.414-3.257,16.336-10.846,20.441-7.433,1.989,1.655.814,4.789-1.062,16.459-2.836,17.639-1.423,18.385-3.717,25.485-2.941,9.1-6.269,10.986-11.68,20.441C44.817,283.771,40.239,292.1,42.84,299.4c.752,2.114,3.985,9.47,19.711,13.273"/><path class="cls-1" d="M44.7,304.71a58.7,58.7,0,0,0-5.177,13.8,63.374,63.374,0,0,0,.4,29.467c2.7,12.041-2.957,36.815-36.635,91.586"/><path class="cls-1" d="M73.767,236.883q-2.788,22.1-5.575,44.2"/><path class="cls-1" d="M10.453,222.448a15.053,15.053,0,0,0,.7,7.367c2.477,6.805,9.215,9.206,10.253,9.557"/><path class="cls-1" d="M6.222,226.729c.421,3.053.838,5.642,1.178,7.632.844,4.94,1.208,6.132,2.124,7.3a9.446,9.446,0,0,0,5.641,3.186"/><path class="cls-1" d="M9.059,239.073l5.309-2.721,9.093-14.468"/><path class="cls-1" d="M96.331,159.632A31.689,31.689,0,0,0,84.12,167.8a32.113,32.113,0,0,0-8.1,17.322"/><path class="cls-1" d="M141.262,208.71a166.476,166.476,0,0,0-8.064,16.327c-1.466,3.429-2.752,6.756-3.882,9.955"/><path class="cls-1" d="M559.571,313.338,456.238,295.983"/><path class="cls-1" d="M478.073,234.494a161.069,161.069,0,0,0,7.7,21.768c2.449,5.583,3.952,8.088,5.973,14.07,2.358,6.983,1.739,7.8,4.114,13.141,1.124,2.525,1.694,3.312,1.328,4.38-.928,2.7-5.942,1.628-18.318,3.716-5.251.886-9.6,1.966-17.388,2.522-.887.064-1.623.106-2.124.133"/><path class="cls-1" d="M494.134,290.773c-.048,1.365-.063,2.518-.067,3.385-.007,1.6-.011,3.281.133,5.442.064.968.141,1.769.2,2.323"/><path class="cls-1" d="M373.612,280.154c3.327.664,8.314,1.712,14.335,3.186,11.222,2.747,16.293,4.59,22.3,6.106a114.316,114.316,0,0,0,29.105,3.353"/><path class="cls-1" d="M226.875,267.611l13.339-9.756,56.213,9.69"/><path class="cls-1" d="M106.021,366.2,73.767,395.666"/><path class="cls-1" d="M72.273,403.53,110.4,411.1"/><path class="cls-1" d="M70.905,412.564l38.567,7.491"/><path class="cls-1" d="M73.236,413.817v69.42"/><path class="cls-1" d="M82.361,415.443l-.63,67.13"/><path class="cls-1" d="M94.938,417.932q4.81,22.165,9.623,44.333"/><path class="cls-1" d="M203.63,428.393,287.4,442.6"/><path class="cls-1" d="M204.708,435.983l84.983,15.431"/><path class="cls-1" d="M380.929,458.283l95.949,16.06"/><path class="cls-1" d="M380.083,467.01l89.1,15.563"/><path class="cls-2" d="M524.571,4V520.286H4V4H524.571m4-4H0V524.286H528.571V0Z"/><path class="cls-3" d="M525.267,521.371H4V3.781H525.267ZM34,491.371H495.267V33.781H34Z"/></g></svg>