<svg xmlns="http://www.w3.org/2000/svg" viewBox="0 0 525.26 521.37"><defs><style>.cls-1{fill:#616060;}.cls-2{fill:#8d8989;}</style></defs><title>icon</title><g id="Layer_39" data-name="Layer 39"><path d="M425.429,431.328l-349.045-.973c-3.976.159-7.187-.8-9.5-2.842a13.576,13.576,0,0,1-3.918-8.4c-1.185-9.93-.124-265.463.23-343.544a12.872,12.872,0,0,1,2.712-7.681c3.8-4.767,9.585-4.8,10.866-4.752l360.361.325.17.026A13.5,13.5,0,0,1,444.2,66.68a14.181,14.181,0,0,1,4.554,10.034l-.541,271.524-4.544-.009.541-271.465a9.505,9.505,0,0,0-3.019-6.678A8.929,8.929,0,0,0,436.774,68L76.661,67.68l-.055,0c-.468-.024-4.614-.136-7.145,3.042a8.265,8.265,0,0,0-1.724,4.912c-.727,160.728-1.178,335.257-.261,342.942a9.316,9.316,0,0,0,2.436,5.553c1.394,1.233,3.522,1.8,6.331,1.687l.1,0,349.1.974Z"/><path d="M362.145,403.9,100.36,402.215h-.013l-.011,0a16.627,16.627,0,0,1-9.715-6.752,16.519,16.519,0,0,0,9.762,6.557l-.024,0,261.778-2.659Z"/><rect x="416.85" y="176.892" width="4.544" height="109.508" transform="translate(-0.618 1.122) rotate(-0.153)"/><path d="M103.554,399.411l-.071,0A12.088,12.088,0,0,1,92.031,387.82l0-.089L91.27,102.18l.048-.232a14.3,14.3,0,0,1,12.2-11.311l.23-.018c95.366-2.871,191.99-2.744,287.188.378q8.439.276,16.859.584c1.155-.089,6.262-.231,9.639,3.8a10.943,10.943,0,0,1,2.477,6.568l1.028,22.6-4.54.206-1.028-22.613a6.391,6.391,0,0,0-1.419-3.837c-2.135-2.546-5.706-2.2-5.857-2.182l-.162.018-.162-.006q-8.481-.31-16.984-.589c-95.06-3.118-191.547-3.246-286.781-.382a9.937,9.937,0,0,0-5.7,2.883,9.813,9.813,0,0,0-2.5,4.614l.757,285.018a7.541,7.541,0,0,0,7.089,7.193l36.061-.323.041,4.544Z"/><polygon points="121.759 386.048 97.599 385.538 98.006 112.336 100.278 112.34 99.874 383.313 121.806 383.776 121.759 386.048"/><rect x="96.193" y="325.512" width="42.306" height="2.272" transform="translate(-209.909 442.291) rotate(-89.702)"/><path d="M131.954,304.248H114.208a11,11,0,0,0-10.982,10.982v25.319a10.99,10.99,0,0,0,10.982,10.982h17.746a11,11,0,0,0,10.982-10.982V315.23A11,11,0,0,0,131.954,304.248Zm7.195,36.3a7.2,7.2,0,0,1-7.195,7.2H114.208a7.2,7.2,0,0,1-7.195-7.2V315.23a7.207,7.207,0,0,1,7.195-7.195h17.746a7.207,7.207,0,0,1,7.195,7.195Z"/><rect x="109.461" y="317.546" width="3.787" height="10.306" transform="translate(-212.498 430.655) rotate(-89.398)"/><rect x="109.191" y="325.255" width="3.787" height="11.118" transform="translate(-220.265 440.29) rotate(-89.722)"/><rect x="94.895" y="168.19" width="42.306" height="2.272" transform="translate(-53.881 284.49) rotate(-89.702)"/><path d="M130.651,146.926H112.913a11,11,0,0,0-10.982,10.982v25.319a10.99,10.99,0,0,0,10.982,10.982h17.738a10.99,10.99,0,0,0,10.982-10.982V157.908A11,11,0,0,0,130.651,146.926Zm7.195,36.3a7.2,7.2,0,0,1-7.195,7.195H112.913a7.2,7.2,0,0,1-7.195-7.195V157.908a7.206,7.206,0,0,1,7.195-7.195h17.738a7.206,7.206,0,0,1,7.195,7.195Z"/><rect x="108.163" y="160.224" width="3.787" height="10.306" transform="translate(-56.465 273.695) rotate(-89.4)"/><rect x="107.892" y="167.933" width="3.787" height="11.117" transform="matrix(0.005, -1, 1, 0.005, -64.237, 282.434)"/><rect x="389.298" y="157.046" width="42.306" height="2.272" transform="translate(250.133 567.803) rotate(-89.702)"/><path d="M413.592,133.293H395.846a11,11,0,0,0-10.982,10.982v25.319a10.99,10.99,0,0,0,10.982,10.982h17.746a11,11,0,0,0,10.982-10.982V144.275A11,11,0,0,0,413.592,133.293Zm-17.746,43.5a7.2,7.2,0,0,1-7.195-7.195V144.275a7.207,7.207,0,0,1,7.195-7.195h17.746a7.211,7.211,0,0,1,7.195,7.195v25.319a7.206,7.206,0,0,1-7.195,7.195Z"/><rect x="414.549" y="156.978" width="3.787" height="10.307" transform="translate(249.957 576.852) rotate(-89.4)"/><rect x="414.819" y="148.458" width="3.787" height="11.117" transform="translate(260.674 569.976) rotate(-89.722)"/><path d="M124,147.977l-3.787-.031.217-27.049a7.7,7.7,0,0,1,1.613-4.964A8.137,8.137,0,0,1,127,113.249a36.119,36.119,0,0,1,10.607-.191c3.373.3,6.56.577,10.156-.457.379-.109.763-.232,1.162-.36a24.7,24.7,0,0,1,6.491-1.333,25.044,25.044,0,0,1,6.022.34c2.972.523,45.432.924,231.118-.073h.016a9.531,9.531,0,0,1,6.5,2.552,9.264,9.264,0,0,1,2.555,4.386l.049.189.738,15.613-3.782.178-.72-15.208a5.455,5.455,0,0,0-1.455-2.418,5.688,5.688,0,0,0-3.874-1.5h-.009c-151.4.814-227.2.822-231.736.025l-.082-.015a21.5,21.5,0,0,0-5.1-.284,20.834,20.834,0,0,0-5.575,1.16c-.436.139-.855.273-1.269.392-4.274,1.229-7.965.9-11.534.591a32.57,32.57,0,0,0-9.56.136,4.428,4.428,0,0,0-2.737,1.352,4.085,4.085,0,0,0-.766,2.581v.136Z"/><rect x="353.861" y="224.321" width="93.976" height="4.545" transform="translate(169.444 624.684) rotate(-89.31)"/><path d="M151.969,402.017l-.008-11.446c-.108-154.564-.186-266.239-.208-269.752a13.535,13.535,0,0,1,.454-3.629,14.906,14.906,0,0,1,3.9-6.607l3.242,3.184a10.43,10.43,0,0,0-2.753,4.592,9.022,9.022,0,0,0-.3,2.413c.022,3.544.1,115.224.208,269.8l.008,11.446Z"/><path d="M147.386,402.592l-.016-22.463c-.1-148.219-.179-255.31-.2-258.742a12.379,12.379,0,0,1,.417-3.329,13.779,13.779,0,0,1,3.615-6.1l1.621,1.591a11.543,11.543,0,0,0-3.04,5.1,10.168,10.168,0,0,0-.341,2.713c.023,3.456.1,110.549.2,258.772l.016,22.462Z"/><path d="M147.283,254.1a9.664,9.664,0,1,0,0,3.3,9.063,9.063,0,0,0,.144-1.643A9.232,9.232,0,0,0,147.283,254.1Zm-9.513,9.043a7.388,7.388,0,1,1,7.385-7.384A7.394,7.394,0,0,1,137.77,263.138Z"/><path d="M138.066,250.914a4.976,4.976,0,1,0,4.976,4.976A4.979,4.979,0,0,0,138.066,250.914Zm0,7.68a2.7,2.7,0,1,1,2.7-2.7A2.706,2.706,0,0,1,138.066,258.594Z"/><path d="M301.068,265.592a30.9,30.9,0,1,1,1.083-24.622,28.9,28.9,0,0,1,1.212,3.93c.8.076,1.6.167,2.394.258a32.024,32.024,0,0,0-1.1-3.931,33.182,33.182,0,1,0-1.386,25.039,32.3,32.3,0,0,0,1.432-3.53c-.743-.234-1.47-.454-2.174-.658A29.228,29.228,0,0,1,301.068,265.592Z"/><path d="M307.188,267.561a38.49,38.49,0,1,1,1.144-25.88,36.566,36.566,0,0,1,.992,3.977q1.2.181,2.385.386a40.782,40.782,0,1,0-2.393,22.3c.477-1.159.9-2.356,1.265-3.568-.72-.28-1.431-.537-2.136-.787A37.43,37.43,0,0,1,307.188,267.561Z"/><path d="M328.985,246.468a57.838,57.838,0,1,0-4.514,29.8q.795-1.784,1.454-3.636c-.674-.446-1.332-.871-1.961-1.257-.424,1.227-.9,2.439-1.416,3.62a55.538,55.538,0,1,1,4.052-29.28q.271,2.022.386,4.09,1.2.387,2.317.773Q329.224,248.5,328.985,246.468Z"/><path d="M336.839,249.429a65.4,65.4,0,1,0-70.7,68.77q2.67.228,5.4.227a65.332,65.332,0,0,0,59.151-37.512q.852-1.8,1.591-3.643c-1.06-.856-2.113-1.659-3.136-2.394q-.693,1.853-1.522,3.643a61.613,61.613,0,1,1,5.309-30.651c.121,1.371.189,2.749.205,4.143,1.386.538,2.65,1.076,3.794,1.591.008-.19.008-.387.008-.576C336.938,251.823,336.907,250.618,336.839,249.429Z"/><path d="M261.639,245.612c-.287.864-.128,2.484,2.25,5.325,4.059,4.847,10.118,5.733,18.5,6.952,3.075.447,6.551.955,10.293,1.712,1.953.4,5.536,1.2,9.853,2.477.7.2,1.431.424,2.174.658,1.212.387,2.461.8,3.741,1.258.7.25,1.416.507,2.136.787,1.757.659,3.552,1.394,5.332,2.2a69.12,69.12,0,0,1,8.051,4.393c.629.386,1.287.811,1.961,1.257q1.545,1.023,3.219,2.242c1.023.735,2.076,1.538,3.136,2.394a78.747,78.747,0,0,1,19.828,23.137c3.5,6.294,4.832,10.869,4.62,15.769-.083,1.977-.954,12.133-9.664,18.79a25.567,25.567,0,0,1-12.815,4.923c-3.59.349-9.96-.083-23.835-7.854a74.593,74.593,0,0,1-10.989-7.248,20.109,20.109,0,0,0-6.286-3.673c-7.438-2.855-19.2-4.537-24.282-.25a6.661,6.661,0,0,0-1.234,1.341,4.507,4.507,0,0,0-.417.712,8.043,8.043,0,0,0-.629,5.794c.674,2.287,2.273,3.15,6.143,5.044a69.279,69.279,0,0,1,8.7,4.892c.644.432,1.31.9,1.992,1.4.136.107.272.205.409.3v.008a46.134,46.134,0,0,1,5.37,4.665,38.588,38.588,0,0,0,6.8,5.522,52.572,52.572,0,0,0,5.241,3.06c1.3.681,2.779,1.461,4.915,2.741A110.483,110.483,0,0,1,320.5,366.732l2.878,2.363c21.26,17.465,31.363,25.758,37.338,30.28.5.386.977.734,1.425,1.068a50.637,50.637,0,0,0,8,5.013,47.549,47.549,0,0,0,17.359,5.469c5.718.856,12.194,1.833,25.2,7.3,9.361,3.931,14.579,7.028,22.486,11.724.235.136.47.28.7.417,1.272.757,2.605,1.552,4.029,2.393,2.7,1.583,5.741,3.347,9.331,5.355,15.352,8.626,31.628,16.738,48.358,24.1l-1.522,3.469c-16.057-7.066-31.688-14.814-46.5-23.047-.735-.4-1.462-.81-2.189-1.219-2.734-1.53-5.15-2.916-7.339-4.189-2.514-1.469-4.733-2.787-6.8-4.021l-.272-.159c-2.424-1.439-4.6-2.727-6.718-3.939-.273-.159-.553-.31-.826-.469-1.136-.636-2.265-1.25-3.416-1.863-3.181-1.682-6.559-3.287-10.792-5.067-12.565-5.279-18.791-6.211-24.289-7.044a58.19,58.19,0,0,1-26.509-10.77c-1.575-1.159-3.453-2.59-5.816-4.461-6.4-5.036-16.367-13.223-33.643-27.409l-2.878-2.363A106.95,106.95,0,0,0,304.2,359.6c-2.045-1.227-3.416-1.946-4.734-2.643a56.266,56.266,0,0,1-5.567-3.249,42.066,42.066,0,0,1-7.361-5.976,43.172,43.172,0,0,0-5.37-4.62,61.1,61.1,0,0,0-10.126-5.953c-4.022-1.976-6.93-3.4-8.1-7.377a11.681,11.681,0,0,1,1.552-9.724,10.666,10.666,0,0,1,1.636-1.856c5.309-4.771,15.276-4.279,23.229-2.242a47.158,47.158,0,0,1,5.127,1.621,23.493,23.493,0,0,1,7.271,4.234,71,71,0,0,0,10.5,6.915,89.848,89.848,0,0,0,10.209,5.006c1.432.576,2.7,1.022,3.818,1.363,4.377,1.341,6.566,1.129,7.581,1.03a22.084,22.084,0,0,0,10.86-4.15c.008-.008.016-.008.023-.015a19.232,19.232,0,0,0,3.711-3.742,23.4,23.4,0,0,0,4.476-12.2,18.132,18.132,0,0,0-.7-5.817,28.528,28.528,0,0,0-1.81-4.764c-.47-1.007-1.023-2.067-1.644-3.188a71.453,71.453,0,0,0-11.376-15.17q-1.635-1.671-3.272-3.166c-1.166-1.068-2.317-2.06-3.461-3-1.037-.856-2.067-1.652-3.067-2.394q-1.637-1.227-3.151-2.249c-.666-.455-1.3-.879-1.923-1.273a68.094,68.094,0,0,0-8.2-4.567c-1.681-.757-3.37-1.454-5.029-2.082-.719-.273-1.424-.538-2.128-.788-1.34-.47-2.651-.909-3.916-1.295-.757-.242-1.492-.462-2.2-.674-4.006-1.167-7.309-1.9-9.149-2.28-3.635-.735-7.059-1.234-10.08-1.674-8.862-1.295-15.868-2.31-20.851-8.27-2.81-3.355-3.8-6.362-2.946-8.952,1.59-4.795,8.755-5.613,11.1-5.885a23.754,23.754,0,0,1,12.6,2.181,134.447,134.447,0,0,1,20.411.258c.841.075,1.674.159,2.507.257,1.227.129,2.454.288,3.674.454.825.122,1.651.243,2.476.379q5.408.864,10.634,2.2,2.715.693,5.158,1.454c.817.243,1.613.5,2.385.75,1.394.462,2.712.932,3.946,1.4,1.409.523,2.712,1.053,3.908,1.56A80.264,80.264,0,0,1,344.4,253.1a87.388,87.388,0,0,1,12.277,8.3l.068.053a27.147,27.147,0,0,0,10.929,6.082,21.57,21.57,0,0,0,7.142.628c1.151-.03,2.461-.06,4.067-.045,6.127.068,13.209.144,19.162,2.1a21.712,21.712,0,0,1,4.521,2.022,16.281,16.281,0,0,1,4.378,3.719,16.5,16.5,0,0,1,3.181,6.46,18.5,18.5,0,0,1,2.151.1,18,18,0,0,1,4.718,1.174,21.065,21.065,0,0,1,4.552,2.506,30.586,30.586,0,0,1,6.067,5.885c6.157,7.6,7.1,16.753,7.8,23.441.128,1.242.25,2.416.394,3.461a45.484,45.484,0,0,0,7.884,19.654,72.408,72.408,0,0,0,4.529,5.953c5.044,6,11.194,11.739,17.73,17.844a125.239,125.239,0,0,0,58.621,30.477l-.81,3.7A129.108,129.108,0,0,1,463.366,365.2a235.555,235.555,0,0,1-17.033-16.965q-1.374-1.592-2.659-3.212c-5.975-7.543-10.262-15.647-11.618-25.531-.159-1.105-.28-2.31-.409-3.582-.681-6.567-1.53-14.731-6.975-21.449-1.659-2.037-6.044-7.453-12.8-8.18a12.7,12.7,0,0,0-2-.068c-.356.008-.7.03-1.06.068l-1.659.182-.106.008-.076-.417-.114-.666-.113-.674a13.506,13.506,0,0,0-2.734-6.37c-5.105-6.226-16.231-6.347-25.175-6.445-1.538-.015-2.81.015-3.931.038-1.06.03-2.015.053-2.954.03a21.58,21.58,0,0,1-5.279-.78c-.719-.2-1.439-.424-2.143-.682a31.476,31.476,0,0,1-10.263-6.195,83.429,83.429,0,0,0-11.709-7.907c-1.318-.735-3.2-1.719-5.627-2.8-1.144-.515-2.408-1.053-3.794-1.591-1.189-.477-2.47-.954-3.833-1.431q-1.113-.387-2.317-.773c-2-.651-4.166-1.28-6.484-1.878q-4.327-1.113-8.793-1.886-1.18-.2-2.385-.386c-1.182-.19-2.371-.349-3.567-.5-.8-.091-1.591-.182-2.394-.258a129.53,129.53,0,0,0-21.865-.378l-.5.03-.455-.212a19.758,19.758,0,0,0-10.966-2.045C263.389,243,261.95,244.673,261.639,245.612Z"/><path d="M281.562,340.691c0-1.079-.253-10.678-7.674-15.44a15.712,15.712,0,0,0-7.65-2.419l.136-2.268a17.948,17.948,0,0,1,8.741,2.775c8.432,5.41,8.715,16.138,8.719,17.344Z"/><path d="M323.336,336.212c-2.385-6.341-7.055-22.862,1.064-39.3a44.936,44.936,0,0,1,10.677-13.845l3,3.41a40.421,40.421,0,0,0-9.609,12.447c-7.33,14.84-3.06,29.9-.884,35.684Z"/><path d="M344.77,332.085a28.444,28.444,0,0,1,.187-17.658,27.2,27.2,0,0,1,5.369-9.087l3.4,3.017a22.688,22.688,0,0,0-4.477,7.574,23.859,23.859,0,0,0-.138,14.8Z"/><path d="M346.034,318.775a21.46,21.46,0,0,1-8.735-.5,22.418,22.418,0,0,1-7.455-3.636,21.253,21.253,0,0,0,7.752,1.383,18.008,18.008,0,0,0,7.219-1.624Z"/><path d="M347.031,311.841a21.264,21.264,0,0,1-6.452-6.84,20.662,20.662,0,0,1-2.728-8.486,19.5,19.5,0,0,0,4.533,7.105,17.828,17.828,0,0,0,6.736,4.186Z"/><path d="M366.01,268.063a102.98,102.98,0,0,0,11.024,6.8c.479.24.961.478,1.448.7s.97.41,1.513.672a6.434,6.434,0,0,1,2.634,2.28,6.858,6.858,0,0,1,1.027,3.223,11.934,11.934,0,0,1-.254,3.284,11.726,11.726,0,0,0-.121-3.234,6.3,6.3,0,0,0-1.265-2.828,5.486,5.486,0,0,0-2.466-1.68c-.462-.162-1.021-.3-1.547-.481s-1.052-.356-1.574-.546a104.969,104.969,0,0,1-11.99-5.6Z"/><path d="M387.946,274.957a19.122,19.122,0,0,1,6.239,3.22,17.325,17.325,0,0,1,4.544,5.487,18.539,18.539,0,0,1,1.385,3.32,26.911,26.911,0,0,0,1.167,3.211,63.262,63.262,0,0,0,3.084,6.163c2.246,4.037,4.714,7.967,7.207,11.884l7.534,11.752c-2.974-3.59-5.83-7.278-8.515-11.092-1.364-1.893-2.645-3.845-3.929-5.8-1.253-1.973-2.466-3.972-3.62-6.013a59.767,59.767,0,0,1-3.083-6.353,28.241,28.241,0,0,1-1.114-3.38,20.449,20.449,0,0,0-1.169-3.167A19.061,19.061,0,0,0,387.946,274.957Z"/><path d="M409.663,284.7a20.461,20.461,0,0,0,4.088,10.3,21.993,21.993,0,0,1-7.03-9.58Z"/><path d="M122.32,425.936a2.061,2.061,0,0,0-1.515-.667H66.494V445.34a12.082,12.082,0,0,0,12.065,12.065H110.8a12.082,12.082,0,0,0,12.065-12.065V427.322A2.046,2.046,0,0,0,122.32,425.936Zm-2.484,19.4a9.044,9.044,0,0,1-9.036,9.035H78.559a9.044,9.044,0,0,1-9.036-9.035V428.3h50.313Z"/><path d="M449.582,442.636l-9.664-9.876-2.083-2.136-1.946-.257-9.626-1.258-.826-.106-17.351-2.264-12.838-1.682V445.34a12.082,12.082,0,0,0,12.065,12.065h32.241a12.082,12.082,0,0,0,12.065-12.065v-.621Zm-10.028,11.739H407.313a9.044,9.044,0,0,1-9.036-9.035V428.511l21.434,2.8,13.27,1.735,3.423.447,3.65,3.733,8.513,8.71A9.042,9.042,0,0,1,439.554,454.375Z"/><path class="cls-1" d="M0,0V524.29H528.57V0ZM524.57,520.29H4V4H524.57Z"/><path class="cls-2" d="M3.99,3.78V521.37H525.26V3.78Zm491.27,30V491.37H33.99V33.78Z"/></g></svg>