<svg xmlns="http://www.w3.org/2000/svg" viewBox="0 0 528.571 524.286"><defs><style>.cls-1{fill:#616060;}.cls-2{fill:#8d8989;}</style></defs><title>icon</title><g id="Layer_40" data-name="Layer 40"><path d="M534.769,490.859c-1.424-6.332-2.861-12.661-4.261-19-.353-1.6-.585-3.222-1.028-4.841-1.277,7.914-2.889,15.7-6.536,22.895A24.642,24.642,0,0,1,520.673,494c-1.639,2.106-2.979,4.157-2.579,7.054a2.781,2.781,0,0,1-1.549,2.258,3.474,3.474,0,0,1-2.7-1.352c-2.391-3.619-4.409-7.488-6.856-11.066-4.651-6.8-9.488-13.474-14.292-20.169a21.126,21.126,0,0,0-2.415-2.378c-3.776,8.807-7.32,17.523-9.577,26.7a16.952,16.952,0,0,0-.14,4.137c.013,1.354.582,3.15-1.279,3.4-.681.091-1.975-1.446-2.346-2.473-2.416-6.685-4.7-13.42-6.938-20.168-1.362-4.108-2.566-8.268-4.025-13-1.13,4.045-1.931,7.63-3.136,11.074-2.547,7.278-5.3,14.483-7.982,21.716a3.032,3.032,0,0,1-.572,1.158c-1.318,1.248-2.544,2.969-4.113,3.4-.712.2-2.5-2.024-3.188-3.445-3.545-7.344-6.867-14.8-10.324-22.182-.864-1.845-1.942-3.59-3.071-5.655-1.04,5.879-1.849,11.337-3.016,16.716a66.749,66.749,0,0,1-3.118,9.916c-.4,1.042-1.986,2.57-2.637,2.4-2.065-.547-.9-2.306-.467-3.444a89.083,89.083,0,0,0,5.342-24.057c.066-.769.009-1.548.009-2.966a19.424,19.424,0,0,0-2.4,2.636c-2.925,4.922-5.591,10.007-8.706,14.8-1.806,2.781-4.314,5.1-6.446,7.679a4.561,4.561,0,0,0-.894,1.965c-.165.839.137,1.816-.167,2.57a2.892,2.892,0,0,1-1.7,1.537c-.338.092-1.434-.95-1.4-1.43.2-3.22-1.948-4.74-4.01-6.657-5.317-4.943-7.755-11.613-10.067-18.283-.651-1.879-1.153-3.809-1.834-6.087-.434.8-.764,1.33-1.017,1.893-1.955,4.352-3.774,8.771-5.877,13.05a24.557,24.557,0,0,1-8.2,9.947c-5.844,3.9-11.968,4.039-18.344,1.309a4.958,4.958,0,0,0-3.268.024c-2.124.732-4.089,1.942-6.228,2.611-.814.254-1.924-.439-2.9-.7.55-.769.934-1.837,1.681-2.249,1.951-1.076,4.062-1.865,5.784-2.626-4.688-7.041-9.191-13.913-13.81-20.706-3.164-4.652-6.879-8.8-12.3-10.888-7.388-2.844-14.286-1.849-20.032,3.693-3.863,3.726-7.268,7.934-10.755,12.032a2.6,2.6,0,0,0,.155,2.38c3.879,5.685,8.164,11.012,13.706,15.23.766.583,1.65,2.181,1.365,2.752-.824,1.649-2.357.824-3.264-.043q-5.437-5.2-10.645-10.643c-1.663-1.74-3.072-3.724-4.678-5.7-1.516,1.206-2.8,2.365-4.209,3.325-5.42,3.682-10.619,2.938-14.99-2.232-5.2-6.151-7.715-13.492-9.118-21.291-.211-1.173-.451-2.34-.7-3.626a15.246,15.246,0,0,0-9.437,6.4c-4.036,5.853-7.713,11.952-11.584,17.921-1.793,2.765-3.64,5.5-5.562,8.175a12.052,12.052,0,0,1-2.558,2.574c-3.119,2.335-6.068,1.8-7.237-1.9a80.61,80.61,0,0,1-3.538-15.649c-.6-5.665-.14-11.442-.143-17.17v-3.016l-.712-.367a19.1,19.1,0,0,0-2.716,2.805c-2.99,4.678-5.667,9.565-8.814,14.131-4.222,6.126-8.8,12.007-13.142,18.053a3.123,3.123,0,0,0-.43,2.478c.969,2.688,2.27,5.257,3.235,7.946.275.766-.167,1.79-.28,2.695-.915-.388-2.286-.525-2.663-1.21-1.413-2.562-2.5-5.3-3.747-8.062-.448.2-.754.332-1.053.477-3.694,1.786-4.987,1.378-6.653-2.446-1.49-3.419-2.719-6.95-4.185-10.38a37.4,37.4,0,0,0-3.049-6.02c-1.861-2.811-4.5-3.059-6.738-.566-2.78,3.1-5.289,6.436-7.92,9.668-4.719,5.8-9.929,11.012-17.314,13.269-6.982,2.133-14.072,1.568-21.146.376a83.2,83.2,0,0,1-23.812-8.141c-2.518,4.035-4.955,8.09-7.58,12.018-.493.739-1.735.978-2.631,1.447a18.245,18.245,0,0,1-1.192-2.8c-.228-.9.184-2.086-.248-2.81-6.671-11.18-13.434-22.307-20.185-33.439a6.944,6.944,0,0,0-.842-.9c-2.409,6.259-4.5,12.41-7.128,18.321-2.742,6.167-5.975,12.119-9.087,18.117-.273.526-1.606,1.123-1.809.947a4.125,4.125,0,0,1-1.3-2.183c-1.209-6.287-2.294-12.6-3.49-18.887a30.807,30.807,0,0,0-1.348-3.9,76.916,76.916,0,0,0-5.183,6.11q-4.925,7.19-9.458,14.642c-.749,1.238-.6,2.986-1.1,4.421a10.817,10.817,0,0,1-1.578,2.355c-.693-.551-1.644-.965-2.025-1.681a53.56,53.56,0,0,1-2.136-5.18c-1.353,2.687-2.41,5.143-3.774,7.414-2.261,3.765-5.447,4.041-8.16.565-4.931-6.319-7.745-13.7-10.137-21.263-.677-2.138-1.326-4.285-1.988-6.428V465.832c3.967-5.894,3.967-5.894.211-10.805a.875.875,0,0,0-.211-.145v-5.214l5.7,7.078a175.967,175.967,0,0,0,14.685-24.352A25.97,25.97,0,0,0,.859,439.762v-4.171c5.4-5.031,11.963-6.79,19.565-6.515-5.254-6.558-11.706-9.364-19.565-9.127V416.82C10.6,415.774,17.845,420.2,23.688,427.6c14.49-24.544,44.183-23.1,52.14-.583.759-4.24,2.154-7.986,1.948-11.642-.638-11.354,1.371-22.295,4.043-33.192,1.317-5.372,2.756-10.714,4.195-16.285-1.038-.068-1.8-.163-2.557-.16q-10.03.039-20.06.119a7.088,7.088,0,0,0-2.569.278,16.673,16.673,0,0,1-12.973.126c-.767,2.438-1.409,4.75-2.233,7-.526,1.432-.574,3.729-2.817,3.194-.513-.122-.766-2.884-.508-4.319a45.353,45.353,0,0,1,2.14-6.409H.859V362.6H33.152c-.244-3.248.213-3.713,3.28-3.134,3.13.59,6.228,1.346,9.773,2.125-.162-1.463-.209-2.642-.438-3.784-.477-2.379-1.193-4.721-1.5-7.118-.093-.724.838-1.579,1.3-2.375.617.55,1.58.991,1.79,1.667.944,3.033,1.673,6.134,2.532,9.407,4.006-1.046,8.19-2.674,9.666,3.215a16.4,16.4,0,0,1,3.28-1.322c1.509-.252,3.792-.827,4.475-.089,1.642,1.774,3.426,1.2,5.177,1.238,3.994.088,8-.117,11.985.065,2.154.1,3.01-.74,3.648-2.682q3.121-9.512,6.572-18.916c4.774-12.926,11.15-24.866,21.625-34.2a13.146,13.146,0,0,0,1.1-1.414H76.836c.71,2.872,1.531,5.7,2.038,8.588.129.732-.741,1.64-1.152,2.466-.648-.54-1.636-.958-1.883-1.643a49.937,49.937,0,0,1-1.993-7c-.4-1.964-1.341-2.3-3.244-2.283-3.067.034-6.14-.469-9.211-.741a10.252,10.252,0,0,0-1.753-.105c-4.307.378-8.608,1.092-12.917,1.134-15.286.146-30.575.067-45.862.073v-3.128c1.3-.051,2.6-.143,3.9-.144,15.206-.018,30.416.145,45.617-.138,4.206-.078,9.154.59,11.814-4.376.218-.408,1.26-.5,1.925-.521,2.134-.063,4.271-.023,6.613-.023-.118-1.63-.158-2.748-.287-3.856-.279-2.411-.726-4.811-.831-7.227-.029-.661.912-1.365,1.408-2.048a9.9,9.9,0,0,1,1.608,1.665,5.289,5.289,0,0,1,.311,1.775c.709,4.15,1.422,8.3,2.061,12.024,4,1.148,8.363-1.861,11.031,2.342h32.1a51.326,51.326,0,0,1-1.418-6.2c-.1-.982.316-2.655.981-2.957,1.636-.743,1.884.893,2.2,2.043.61,2.208,1.183,4.426,1.61,6.03,9.665-4.98,19.064-10.208,28.794-14.718,8.016-3.716,16.427-6.582,24.661-9.827,3.095-1.22,5.759-3.084,7.123-6.159a65.715,65.715,0,0,0,5.712-29.116c-.057-1.689-1.763-4.246-3.256-4.738-2.014-.664-4.573.2-6.873.561-2.8.443-5.567,1.382-8.37,1.485-2.622.1-5.265-.737-7.915-.95-4.587-.368-9.184-.7-13.782-.813-5.7-.137-11.4-.033-17.5-.033a60.384,60.384,0,0,1,2.037,6.319c.164.767-.594,1.732-.931,2.606-.746-.506-1.837-.848-2.172-1.55-.954-2-1.6-4.151-2.341-6.164h-8.079c.252,3.049.6,6.046.682,9.05.023.813-.762,1.649-1.177,2.474-.657-.671-1.758-1.264-1.892-2.027a50.846,50.846,0,0,1-.8-8.014c-.032-2.133-.773-2.865-2.914-2.845-9.21.086-18.421.009-27.631.059a13.382,13.382,0,0,0-5.145.578c-4.188,1.837-8.263,2.531-12.636-.108-1.163,3.067-2.128,5.835-3.29,8.517-.273.629-1.215.968-1.849,1.441-.4-.765-1.173-1.557-1.122-2.291a16.393,16.393,0,0,1,1.063-4c.455-1.343,1.028-2.646,1.648-4.216H61.061q-27.37,0-54.743,0c-1.82,0-3.639-.086-5.459-.133v-3.128q16.545.077,33.09.149c6.685.022,13.37,0,19.713,0l-.883-3.185a10.625,10.625,0,0,1,3.074-.271c3.034.633,6.024,1.478,9.537,2.37.214-2.932.437-5.567.582-8.207A17.437,17.437,0,0,1,65.9,221.3a9.5,9.5,0,0,1,1.347-2.383c.631.7,1.669,1.327,1.812,2.115a43.889,43.889,0,0,1,.392,5.951c.04.93.007,1.863.007,2.648l5.671,1.6a22.077,22.077,0,0,1,3.219-2.183c.7-.335,1.7-.036,2.559-.024a10.236,10.236,0,0,1-.64,2.69c-.266.5-1.12.68-1.711,1l.544.754h36.472c-.675-2.133-1.292-3.977-1.839-5.842a14.466,14.466,0,0,1-.849-3.77c-.007-.655.875-1.319,1.355-1.979.586.427,1.468.731,1.707,1.3,1.028,2.463,1.868,5,2.849,7.72.344-.165.622-.311.91-.434a10.407,10.407,0,0,0,5.241-5.943c.193-.545,1.217-1.294,1.593-1.167A2.5,2.5,0,0,1,128.07,225c.175,2.4.071,4.824.071,7.585,3.027-.9,5.617-1.785,8.273-2.381.816-.183,1.811.431,2.724.68l-.923,2.251,24.709.854c-.985-2.282-1.934-4.254-2.687-6.3-.548-1.49-2.273-3.5.12-4.475,2.28-.932,2.24,1.79,3.012,3.034.951,1.533,1.687,3.2,2.474,4.729l6.414-1.868c.1-1.82.113-4.054.413-6.25.1-.753.927-1.407,1.422-2.107.645.777,1.771,1.509,1.851,2.34.327,3.414.336,6.859.472,10.568l6.354-1c-.632-2.118-1.285-3.965-1.723-5.862a28.9,28.9,0,0,1-.9-5.631c-.244-8.922,8.114-14.114,16.12-9.986a41.227,41.227,0,0,1,5.059,3.626,39.837,39.837,0,0,0,4.007,2.88c3.982,2.2,7.631.906,9.842-3.056,1.85-3.313,4.045-6.432,5.979-9.7a8.027,8.027,0,0,0,1.037-3.143c.873-8.17,4.44-11.759,12.537-13,5.7-.872,11.222.163,16.828.779a92.988,92.988,0,0,0,15.506.708c5.3-.312,6.952-3.33,5.474-8.528-2.03-7.138-6.225-12.97-11.423-18.079-12.753-12.535-28.216-18.759-46.021-18.8-17.678-.038-34.616,11.16-40.353,26.371-3.623,9.6-3.087,19.411-.9,29.226.564,2.537,1.38,5.027,1.78,7.586.136.877-.648,1.9-1.012,2.852-.832-.561-2.2-.964-2.418-1.708-3.94-13.181-6.229-26.572-.765-39.789,6.485-15.686,19.135-24.64,35.346-27.238,22.807-3.654,42.5,3.742,58.521,20.405,5.149,5.354,9.432,11.357,11.151,18.823a11.775,11.775,0,0,1-1.144,9.017c-.75,1.306-.612,3.344-.349,4.963a102.711,102.711,0,0,0,2.4,11.178c.929,3.319.092,5.836-2.638,7.723-1.743,1.2-2.1,2.565-1.759,4.665.766,4.678,1.152,9.419,1.721,14.382a7.52,7.52,0,0,0,1.165.141c15.813.066,31.626.068,47.438.234,2.4.025,2.872-1,2.66-2.948-.27-2.5-.746-5-.779-7.5-.012-.934.971-1.883,1.5-2.825.593.79,1.515,1.5,1.716,2.385.557,2.43.813,4.928,1.058,6.543,3.525,1.129,6.485,2.134,9.484,3a6.058,6.058,0,0,0,2.993.216c2.1-.524,4.08-1.51,6.184-1.972,2.489-.547,3.1.319,2.139,2.947,7.186,0,14.291-.011,21.395.007,1.987,0,2.613-1.022,2.321-2.839l-1.035-6.426c-.206-1.282-.622-2.789,1.22-3.094s1.967,1.33,2.234,2.568c.438,2.028.784,4.076,1.134,5.934a12.05,12.05,0,0,1,3.516.057c2.283.752,3.091-.207,3.623-2.249a22.984,22.984,0,0,1,1.954-4.807c.32-.61,1.2-.925,1.829-1.374.4.854,1.239,1.793,1.1,2.546-.383,2.028-1.242,3.962-1.8,5.964a24.24,24.24,0,0,0-.436,3.21c2.976-1.07,5.632-2.038,8.3-2.974a4.873,4.873,0,0,1,2-.478,8.521,8.521,0,0,1,2.168.87,15.463,15.463,0,0,1-1.41,2.135c-.3.331-.914.376-2.055.8h33.237c-.91-.556-1.41-.691-1.593-1.009-.351-.61-.856-1.444-.67-1.958a2.092,2.092,0,0,1,1.8-.861c2.724.42,5.418,1.034,8.529,1.66.364-3.734.737-7.4,1.072-11.075.114-1.253-.237-3.036,1.682-2.739.707.109,1.639,1.877,1.636,2.886-.007,3.194-.407,6.387-.715,10.347,2.34-.446,4.634-.922,6.942-1.31,1.335-.224,2.694-.305,4.042-.451l-1.462,4.33a2.34,2.34,0,0,0,1.175.441c9.455.207,18.912.36,28.368.518a4.7,4.7,0,0,0,.821-.211c-.61-1.51-1.209-2.987-1.8-4.465a14.584,14.584,0,0,1-1.363-3.634c-.105-1,.541-2.073.854-3.114.768.638,1.8,1.13,2.253,1.944,1.164,2.087,2.071,4.317,3.1,6.534,3.945-2.557,7.08-1.164,10.249.794a4.151,4.151,0,0,0,2.892.4c2.433-.606,4.767-1.617,7.206-2.191.809-.191,1.817.456,2.733.72-.383.795-.766,1.589-1.123,2.328h28.617v3.128q-17.721.092-35.441.193a13.6,13.6,0,0,0-2.821.279c-2.4.527-4.8,1.72-7.157,1.616-7.433-.331-14.836-1.375-22.269-1.674a83.888,83.888,0,0,0-16.336.655c-3.761.591-7.286,2.3-11.32-.714a62.052,62.052,0,0,1-.076,6.947c-.116.951-1.05,1.8-1.613,2.7-.555-.918-1.49-1.8-1.59-2.764a67.01,67.01,0,0,1-.076-6.9H388.736A50.261,50.261,0,0,1,390.4,243c.121.858-.714,1.851-1.114,2.782-.707-.613-1.724-1.091-2.06-1.865a54.15,54.15,0,0,1-1.8-5.3,65.225,65.225,0,0,1-7.4-1.112c-1.413-.382-2.087-.142-2.633,1.106-1.044,2.385-2.037,4.8-3.263,7.092-.388.725-1.452,1.087-2.206,1.615-.289-.914-.93-1.887-.789-2.729a19.776,19.776,0,0,1,1.506-4.134c.487-1.171,1.052-2.31,1.77-3.869-5.966,0-11.507-.233-17.018.066-5.431.294-10.876-.672-16.326,1.627-2.958,1.247-6.874.222-10.647.222-.067,1-.211,2.618-.272,4.241-.062,1.648.1,3.318-.119,4.942-.1.764-.851,1.443-1.308,2.161-.642-.659-1.658-1.227-1.844-2a17.079,17.079,0,0,1-.22-4.4c.057-2.055.238-4.107.389-6.531h-51c.5,1.66,1.017,3.183,1.409,4.739.629,2.5.758,5.491-1.79,6.457-3.642,1.381-4.187,3.637-3.676,6.86a3.974,3.974,0,0,1-.157,1.023c-.618,5.055-1.391,10.1-1.8,15.168-.321,4.008-1.973,7.112-5.55,8.754a17.667,17.667,0,0,1-7.458,1.842,69.845,69.845,0,0,1-14.956-1.571,139.524,139.524,0,0,1-20.213-6.572c-9.38-3.906-15.378-11.174-17.823-21.076-1.33-5.386-5.072-7.634-9.786-8.954-.943,6.376-1.861,12.576-2.8,18.944.506-.356.922-.654,1.344-.944,4.672-3.2,9.146-2.408,12.3,2.335a29.28,29.28,0,0,1,3.222,5.93c2.7,7.32,4.921,14.824,7.864,22.037a71.563,71.563,0,0,0,7.28,13.385c3.086,4.489,8.08,5.492,13.082,4.245,9.075-2.261,16.854-7.217,24.2-12.85,1.929-1.479,2.158-3.438,1.195-5.6-.353-.793-.7-1.588-1.023-2.394-1.885-4.735.737-8.148,5.8-7.164a29.632,29.632,0,0,1,7.748,2.871c11.422,5.891,22.8,11.909,35.207,15.49,4.947,1.427,9.02,3.443,10.675,8.745.5,1.61,1.53,1.974,3.215,1.024,3.538-2,4.6-1.18,5.378,2.69,1.22,6.1,2.758,12.153,4.367,18.169.338,1.265,1.568,2.291,2.386,3.427l1.073-.515c-.225-1.4-.356-2.816-.69-4.186-1.667-6.824-3.418-13.629-5.076-20.456-.726-2.989-.118-3.9,2.758-4.727,7.171-2.07,14.347-4.121,21.5-6.245q28.063-8.334,56.116-16.709c4.038-1.2,4.56-.95,7.049,2.294,1.962,2.557,3.236,2.411,4.673-.461,3.224-6.442,6.449-12.884,9.766-19.278a5.434,5.434,0,0,1,2.261-2.308c3.1-1.473,5.276-.786,6.43,2.5,2.011,5.716,3.68,11.558,5.325,17.393.538,1.907,1.186,2.558,3.236,1.9,18.175-5.847,36.394-11.562,54.564-17.424,6.483-2.092,6.819-2.028,8.552,4.522,1.2,4.548.507,5.575-4.066,6.8q-20.6,5.51-41.152,11.17c-5.314,1.473-10.55,3.227-15.781,4.84.971,6.074.878,6.373-2.194,7.523-3.328,1.247-4.439.868-6.483-2.4.309,1.424.559,2.579.9,4.16,2.989-.668,5.821-1.359,8.679-1.917,1.669-.326,3.707-1.389,4.26,1.616.05.275,1.372.445,2.1.446,5.735.014,11.471.028,17.2-.073,2.648-.047,5.292-.351,8.42-.573-1.049-2.724-2.067-5-2.756-7.373-.222-.765.42-1.781.667-2.682.8.446,1.9.7,2.338,1.376a35.289,35.289,0,0,1,2.148,4.27l6.56,1.04c2.232-2.591,2.864-2.465,4.1.618,2.16,0,4.13-.043,6.08.132.093.008.012,1.947.012,3.3,2.852,0,5.958-.014,9.064,0q11.721.061,23.442.143v2.607c-3.553.125-7.105.337-10.658.357-9,.052-18,.017-27.076.017.095,1.313.317,3.014.307,4.715-.007,1.267.589,3.171-1.5,3.27-2.036.1-1.7-1.759-1.868-3.083-.187-1.514-.379-3.026-.529-4.215-4.623-.339-8.821-.86-13.024-.911-8.766-.105-17.536-.038-26.3.109-4.906.082-9.805.607-14.71.66-3.265.036-6.536-.4-9.8-.649-.981-.076-1.954-.257-2.932-.384q-2.188-.286-4.383-.563c-.29,4-.5,4.242-4.774,5.377-2.91.772-5.812,1.576-8.792,2.386a9.154,9.154,0,0,0,.275,1.493c1.745,4.5.188,7.967-3,11.267a86.286,86.286,0,0,1-17.728,13.989c-3.628,2.184-6.953,4.875-10.406,7.349a10.048,10.048,0,0,0-4.059,7.811c-.162,1.9-.226,3.816-.453,5.711-.233,1.946.485,2.555,2.459,2.525,7.294-.11,14.591-.049,21.887-.05h21.544c-.6-1.7-1.325-3.53-1.871-5.411-.424-1.457-2.02-3.425.113-4.339,2.3-.988,2.361,1.652,3.013,2.965.878,1.768,1.507,3.659,2.166,5.306a17.479,17.479,0,0,1,4.127-1.51,2.538,2.538,0,0,0,2.5-2.09,25.229,25.229,0,0,1,2.012-4.754c.288-.5,1.737-.95,2.04-.694a3.016,3.016,0,0,1,.862,2.258,6.746,6.746,0,0,1-1.093,2.328c-1.226,2.3-.87,4.274.955,5.868,2.143-.479,4.069-1,6.027-1.305a6.38,6.38,0,0,1,2.476.345c1.091.286,2.139.968,3.222,1,7.8.272,15.611.418,23.416.622,1.043.027,2.083.154,3.525.266-.722-.86-1.337-1.27-1.441-1.784a18.233,18.233,0,0,1-.144-3.056,9.537,9.537,0,0,1,2.684.738,8.17,8.17,0,0,1,1.725,1.743l7.5-1.3c-.13-2.652-.408-5.338-.3-8.01.033-.845,1.086-1.651,1.673-2.474a8.827,8.827,0,0,1,1.437,2.526c.634,3.528,1.072,7.09,1.6,10.735,3.347-1.2,5.994-2.3,8.732-3.06,1.073-.3,2.353.138,3.538.239l-1.119,2.948c.224,0,.742,0,1.26,0l34.9.067v3.129H488.65c1.031,3.026,1.792,5.221,2.525,7.424.479,1.441,1.01,3.174-.826,3.82-1.981.7-2-1.42-2.494-2.538-.766-1.742-1.305-3.583-1.926-5.387-.474-1.376-1.2-1.649-2.757-1.4a29.058,29.058,0,0,1-7.214.11c-5.761-.543-11.491-1.724-17.253-1.875-11.8-.308-23.638-.612-35.534,2.281.287,1.908.8,4.366.96,6.848.065,1.009-.628,2.067-.975,3.1-.747-.772-1.931-1.434-2.16-2.337-.76-3-1.176-6.094-1.8-9.59H373.522c.617,4.215,1.138,8.4,1.86,12.556,1.475,8.476,3.238,16.936,7.318,24.581,6.66,12.481,9.641,25.566,7.747,39.67-.838,6.237-2.142,12.313-5.471,17.782-3.994,6.561-9.606,10.752-17.477,10.166a43.67,43.67,0,0,1-13.538-3.252c-8.1-3.423-14.376-9.66-20.9-15.349-11.169-9.733-19.721-21.674-27.747-34.011a11.331,11.331,0,0,1-1.76-2.866,10.507,10.507,0,0,1,.149-3.249,18.294,18.294,0,0,1,3.015,1.25c.532.332.779,1.123,1.15,1.71,6.833,10.812,14.082,21.308,23.261,30.317,2.069,2.03,4.218,3.979,6.33,5.966-2.395-8.309-1.247-16.336.158-24.425.6-3.444.46-7.015.7-11.336-2.424,1.961-4.228,3.4-6,4.863-3.38,2.794-4.029,2.848-7.233-.178A106.9,106.9,0,0,1,304.6,392.938c-2.377-4.412-4.512-8.954-6.794-13.512l-11.321,3.458c1.724,4.47,1.555,8.278-2.42,11.2-.369.271-.374,1.076-.491,1.645-.465,2.271-.908,4.546-1.515,7.605,1.594,2.96,1.413,5.195-1.623,7.88a3.27,3.27,0,0,0-1.114,3.539c.711,4.34-.686,6.443-4.9,7.856-.9.3-1.839.513-2.755.782-7.081,2.079-14.373,2.175-21.666,2.432-9.2.323-18.1,2.03-26.186,6.742-13.8,8.039-27.552,16.168-41.4,24.122-12.273,7.048-24.647,13.938-38.175,18.382-9.546,3.135-19.2,4.735-29.127,1.594a2.177,2.177,0,0,0-1.89.585c-2.465,3.11-4.814,6.312-7.293,9.607a10.132,10.132,0,0,0,1.394.941,84.686,84.686,0,0,0,26.409,7.569c10.359,1.188,19.252-1.7,26.137-9.814,3.594-4.235,6.79-8.888,10.826-12.641a21.018,21.018,0,0,0,6.261-9.1c.894-2.749,2.544-5.515,5.865-5.547,3.042-.029,4.695,2.523,5.791,5,1.749,3.957,3.253,8.03,4.706,12.109,1.347,3.781,2.49,7.634,3.825,11.771a24.868,24.868,0,0,0,1.976-2.3c4.9-7.568,9.708-15.2,14.683-22.718a69.615,69.615,0,0,1,7.044-9.279,5.488,5.488,0,0,1,4.816-1.223c1.075.388,1.9,2.714,2.023,4.243.262,3.365.022,6.769-.043,10.157-.141,7.324.166,14.594,2.752,21.561a42.2,42.2,0,0,0,2.071,4c2.044-2.625,3.772-4.54,5.156-6.677,4.483-6.921,8.719-14,13.287-20.865a23.046,23.046,0,0,1,11.748-9.507c.827-.285,1.26-1.7,1.89-2.579.567-.793,1.155-1.57,1.734-2.354q.825,1.219,1.65,2.438c.5.733.877,1.971,1.509,2.116a26.142,26.142,0,0,1,14.069,8.9c3.554,4.118,6.879,8.434,10.476,12.875,2.5-3.033,4.944-6.06,7.447-9.041,10.637-12.664,25.108-13.477,36.535-1.61,3.8,3.951,6.625,8.874,9.743,13.456,3.063,4.5,5.638,9.384,10.406,12.529,1.595-1.039,3.119-2.021,4.633-3.02a159.138,159.138,0,0,0,26.99-22.844,7.8,7.8,0,0,0,1.975-3.541c1.186-5.492,1.768-11.141,3.3-16.528,2.717-9.589,6.7-18.58,14.019-25.777,10.647-10.476,32.928-12.039,44.062,2.026,1.483,1.873,2.9,3.794,4.45,5.817,6.655-9.813,14.873-17.506,27.192-18.141,12.28-.633,21.437,5.708,28.636,15.291,3.592-4.083,7.46-7.429,12.522-8.935,2.895-.861,5.918-1.3,8.883-1.924v3.65a24.847,24.847,0,0,0-18.887,9.667c7.215.012,13.434,1.5,18.887,5.453v3.65c-.823-.444-1.678-.838-2.463-1.341-4.525-2.9-9.546-4.123-15.26-4.637,4.178,6.067,8.108,11.824,12.093,17.543,1.822,2.614,3.75,5.153,5.63,7.727v7.3c-.846-1.493-1.6-3.049-2.554-4.47q-5.587-8.323-11.286-16.574c-2.49-3.612-5.054-7.173-7.813-11.079-3.723,5.8-7.129,11.214-10.675,16.54a2.973,2.973,0,0,0,.089,3.922,82.117,82.117,0,0,1,12.173,28.54c.984,4.358,1.708,8.775,2.55,13.165l.621.181c1.416-3.2,3.21-6.3,4.164-9.634,1.69-5.9,2.856-11.958,4.269-17.942.466-1.976.49-4.583,3.212-4.677,2.7-.093,2.732,2.593,3.193,4.386.86,3.34,1.39,6.766,2.057,10.156ZM386.19,292.207c2.36.316,5.226-.1,6.971,1.106,3.309,2.287,6.241,2.066,9.561.654a36.223,36.223,0,0,1,3.966-1.247c2.612-.77,5.23-1.521,8.054-2.341-1.1-2.177-1.619-4.948-3.043-5.54-1.518-.631-3.893.8-5.892,1.331-.5.134-1,.286-1.5.44l-18.089,5.632-9.186,2.485,5.814,3.829C382.5,295.27,384.109,293.594,386.19,292.207Zm-123.655,72.5c1.584-.435,3.178-.839,4.752-1.31,8.819-2.642,17.667-4.877,27.007-2.055-.381-1.392-.717-2.642-1.071-3.887a.578.578,0,0,0-.171-.251c-.723.8-1.316,2.063-2.2,2.325a5.424,5.424,0,0,1-6.631-2.839,27.339,27.339,0,0,1-2.1-5.031c-1.346-4.206-1.03-4.9,3.182-6.228,11.008-3.468,22.016-6.945,33.1-10.166,2.127-.618,4.587-.089,7.417-.089l.648-1.984c-2.066-.336-3.9-1.032-5.617-.807-1.916.252-3.685,1.462-5.582,2.047q-39.792,12.288-79.6,24.518c-.542.167-1.058.418-1.692.672.595,1.091,1.111,1.989,1.582,2.909,1.218,2.375,2.769,3.812,5.815,3.817,2.425,0,4.838,1.169,7.277,1.73,1.141.263,2.453.713,3.474.394,3.538-1.105,6.983-2.51,10.463-3.8ZM128.986,419.983c-2.024-7.537-3.952-14.644-5.838-21.762-1.744-6.578-1.659-6.392,4.6-8.554q33.707-11.651,67.308-23.607c1.634-.581,2.877-2.262,4.3-3.435,1.113-.92,2.082-2.194,3.358-2.7,3.862-1.543,7.874-2.707,11.757-4.2a11.952,11.952,0,0,0,3.621-2.388c3.141-2.873,5.775-6.55,11.216-6.1-.586-1.987-1.126-3.769-1.635-5.561-.649-2.286.021-3.825,2.389-4.672,4.192-1.5,4.17-1.559,3.927-6.141-.509-9.567,2.469-13.565,11.966-15.76,12.426-2.871,24.885-5.6,37.307-8.482,5.791-1.345,11.529-2.92,17.437-4.427-7.639-3.579-15.014-7.014-22.371-10.488-4.154-1.961-8.246-4.057-12.438-5.931-1.013-.453-2.312-.269-3.93-.42.68,1.833,1.062,2.977,1.525,4.087,1.794,4.307,1.477,6.93-2.166,9.949-7.272,6.027-15.3,10.94-24.419,13.578-8.788,2.541-15.944-.453-20.831-8.181a38.112,38.112,0,0,1-3.64-6.891c-2.73-7.309-5.113-14.748-7.873-22.046a61.608,61.608,0,0,0-4.854-10.025c-1.5-2.488-3.674-3.043-5.516-1.688-2.5,1.839-5.363,3.645-6.953,6.169-3.953,6.278-9.7,9.581-16.334,12.21-11.12,4.405-22.2,8.966-33.04,14.009a70.108,70.108,0,0,0-35.893,36.846A298.085,298.085,0,0,0,84.4,388.337c-1.215,5.588-1.94,11.282-2.89,16.927,6.572-14.3,12.668-28.669,19.079-42.9,4.059-9.008,8.2-18.021,13.022-26.632,4.207-7.515,10.266-13.509,19.254-15.121a77.632,77.632,0,0,1,12.174-.83c10.173-.195,12.973-4.1,9.542-13.735-1.1-3.1-2.534-6.079-3.737-9.144a4.316,4.316,0,0,1,2.209-5.936,77.679,77.679,0,0,1,9.887-4.611c5.137-1.791,10.35-3.941,15.68-4.489,11.6-1.193,27.213,9.956,30.766,21.133a8.93,8.93,0,0,1-4.933,11.045c-.806.355-2.059-.306-3.106-.5.453-.887.679-2.1,1.4-2.606,3.441-2.438,4.457-4.888,2.094-8.361a58.169,58.169,0,0,0-9.084-10.606c-5.659-5.07-12.457-8.048-20.136-5.807-6.713,1.959-13.151,4.863-19.71,7.348-1.839.7-1.53,2.034-.982,3.4,1.418,3.538,3.2,6.972,4.229,10.618,2.539,9-1.032,14.413-10.212,15.663a79.408,79.408,0,0,1-9.876.377,23.16,23.16,0,0,0-15.453,5.914c-4.963,4.322-8.3,9.822-11,15.668-5.5,11.895-10.924,23.83-16.06,35.885-4.757,11.166-9.439,22.388-13.491,33.821-2.334,6.586,1.21,12.381,4.457,18C101.085,426.928,114.674,422.308,128.986,419.983ZM270.355,193.859c-7.585,1.094-14.794.385-22-.885-5.5-.969-11.022-1.389-16.45.6-4.422,1.619-5.441,3.2-5.792,7.85a14.837,14.837,0,0,1-1.841,5.752c-1.729,3.177-4,6.063-5.711,9.246-3.06,5.683-8.62,7.782-14.46,4.966-1.84-.888-3.34-2.454-5.1-3.54-2.33-1.439-4.621-3.192-7.183-3.944a5.992,5.992,0,0,0-7.783,5.509c-.079,9.222,3.471,16.79,11.84,21.009,5.579,2.812,9.042,6.587,10.478,12.629,1.752,7.375,6.53,12.483,13.066,16.07a69.974,69.974,0,0,0,23.607,7.785,63.852,63.852,0,0,0,14.7.554c4.541-.393,6.3-3.16,6.395-7.7a52.344,52.344,0,0,1,.433-8.295c.685-3.731,1.634-7.338,1.18-11.243-.135-1.159,1.291-3.078,2.494-3.709,4.148-2.176,4.384-2.369,2.388-6.681-1.348-2.915-2.912-5.735-4.149-8.694a51.2,51.2,0,0,1-2.637-7.865c-1.1-4.653.867-8.413,5.156-10.478a9.508,9.508,0,0,0,2.958-1.582c.774-.842,1.633-2.23,1.463-3.207C272.59,203.332,271.436,198.714,270.355,193.859ZM116.686,472.714c3.642,1.707,9.622,2.3,14.317,1.649a78.563,78.563,0,0,0,26.323-8.715c16.142-8.63,31.959-17.864,47.942-26.792,7.873-4.4,15.628-9.067,23.781-12.878,7.309-3.415,15.408-3.961,23.437-4.1,3.269-.057,6.335-.407,8.7-3.144a9.908,9.908,0,0,1,3.646-2.446c2.031-.845,2.775-2.073,2.2-4.21-.517-1.925.418-3.061,2.292-3.3a42.188,42.188,0,0,1,5.177-.272c1.824,0,4.142.425,4.353-1.952.07-.8-2.282-2.219-3.736-2.65-2.81-.834-5.8-1.05-8.653-1.756-1.438-.356-2.84-1.143-2.06-3.172.75-1.951,2.126-1.227,3.471-.911a63.29,63.29,0,0,0,8.371,1.742c1.047.1,2.222-1.164,3.34-1.806a19.08,19.08,0,0,0-2.1-3.458c-.5-.539-1.619-.479-2.444-.74-2.639-.834-5.336-1.536-7.884-2.593a2.269,2.269,0,0,1-.938-3.8c1.278-1.269,2.429-.379,3.77.1a82.941,82.941,0,0,0,10.333,3.021,3.578,3.578,0,0,0,2.955-1.729c1.091-2.559-1.19-5.628-3.948-5.792-5.456-.323-10.938-.442-16.356-1.094-3.493-.42-6.859-1.8-7.832-5.786-.215-.88.642-2.021,1-3.043.871.475,2.106.73,2.55,1.463,2.061,3.4,5.343,3.642,8.695,4.035.8-5.166,1.142-5.916,6.266-6.628,4.587-.637,9.3-.371,13.945-.611.7-.036,1.366-.662,2.048-1.014-.418-.762-.66-1.763-1.3-2.233-1.166-.863-2.728-1.218-3.827-2.14A5.605,5.605,0,0,0,279,364.6c-7.721,2.293-15.383,4.806-23.166,6.864a23.206,23.206,0,0,0-15.007,11.44c-4.487,7.773-11.332,13.03-19.842,16.046-1.986.7-3.926,1.536-6.446,2.53.847.637,1.295.906,1.662,1.259,6,5.755,5.783,12.581-.829,17.544a49.917,49.917,0,0,1-9.4,5.537c-15.66,7.057-31.468,13.789-47.091,20.928-9.855,4.5-19.555,9.368-29.17,14.37A34.287,34.287,0,0,0,116.686,472.714Zm-3.814-1.907a3.3,3.3,0,0,0,.716-.506c5.658-7.589,13.244-12.769,21.674-16.641,20.723-9.52,41.588-18.73,62.326-28.218a147.209,147.209,0,0,0,15.594-8.29c3.494-2.14,4.21-5.762,2.55-8.8-2.12-3.887-5.551-5.355-9.428-4.167-9.445,2.894-18.806,6.143-28.385,8.508-17.412,4.3-34.951,8.091-52.453,12.023a12.736,12.736,0,0,0-8.657,6.045c-5.8,9.616-8.316,20.106-8.609,31.228C108.1,465.826,110.128,468.468,112.872,470.807ZM390.093,306.652l-.516.422c.534,1.548,1.177,3.069,1.581,4.65,1.015,3.986,1.7,8.051.039,12-1.553,3.7-5.032,4.208-7.609,1.169-1.339-1.579-2.284-3.487-3.568-5.119-3.853-4.9-7.735-9.779-11.731-14.562a6.642,6.642,0,0,0-3.246-2,3.362,3.362,0,0,0-2.635.935c-.369.352-.178,1.6.126,2.276a14.52,14.52,0,0,0,1.793,2.545c4.1,5.5,8.235,10.965,12.245,16.525a3.537,3.537,0,0,1,.34,2.787,2.3,2.3,0,0,1-2.03,1.05,7,7,0,0,1-2.785-2.088c-2.472-3.022-4.6-6.347-7.255-9.192-4.009-4.3-8.295-8.345-12.6-12.351-.637-.592-2.024-.378-3.064-.536a11.7,11.7,0,0,0-.1,2.919,6.139,6.139,0,0,0,1.278,2.236c2.046,2.7,4.189,5.322,6.2,8.046,2.675,3.625,5.339,7.264,7.809,11.028.428.653-.128,1.953-.23,2.954a10.3,10.3,0,0,1-3.126-.835c-.788-.508-1.2-1.592-1.925-2.625-3.847,2.679-7.617,5.144-11.21,7.846-4.48,3.369-6.755,8.12-7.431,13.565a52.9,52.9,0,0,0,4.51,28.924c5.472,11.994,11.36,23.808,16.518,35.933,2.865,6.734,4.64,13.934,6.831,20.948a30.854,30.854,0,0,1,.647,4.414c6.178-8.869,9.514-17.971,9.668-28.2a15.88,15.88,0,0,0-7.015-14.015,52.739,52.739,0,0,1-6.947-6.283c-6.465-6.7-11.825-14.126-14.16-23.323-2.166-8.53,1.478-15.463,9.65-18.561,1.863-.706,3.82-1.158,5.693-1.84,2.352-.858,4.894-1.477,6.947-2.821,6.376-4.175,12.6-8.591,18.78-13.052a6.933,6.933,0,0,0,2.221-3.3,47.261,47.261,0,0,0,1.9-7.549c.319-1.986.819-4.351.064-6.014C394.3,312.4,392.024,309.6,390.093,306.652ZM204.1,363.63c4.962,5.7,4.32,8.413-2.493,11.251-.4.167-.8.338-1.206.489-11.622,4.307-23.223,8.673-34.876,12.9-9.857,3.573-19.767,7-29.672,10.442-1.6.556-2.643,1.195-1.975,3.14,1.517,4.411,2.883,8.875,4.49,13.251.709,1.933,2.11,2.612,4.074,1.22,4.1-2.909,8.166-5.885,12.408-8.577,6.213-3.945,12.405-7.975,18.914-11.381,5.108-2.673,6.013-2.087,9.546,2.491.091.118.28.16.072.047,4.59-3.12,8.977-6.2,13.475-9.108a4.228,4.228,0,0,0,2.082-4.379c-.517-5.181,1.88-8.245,6.667-10.064,5.911-2.246,11.641-4.964,17.523-7.291,2.309-.914,3.381-1.939,2.413-4.56-.8-2.181-1.122-4.536-1.754-6.787a15.8,15.8,0,0,0-1.218-2.489C217.978,360.957,210.028,360.007,204.1,363.63Zm249.282,68.611c-10.964.532-21.065,2.938-30.447,8.008-10.8,5.837-19.058,14.664-27.309,23.477a2.835,2.835,0,0,0-.643,2.108c1.542,9.068,4.213,17.709,10.021,25.069a15.782,15.782,0,0,0,2.168,1.992c1.527-5.6,2.7-11.114,4.542-16.392a65,65,0,0,1,13.2-21.633c2.969-3.345,5.987-2.6,7.305,1.664.569,1.842.806,3.787,1.181,5.627Zm-2.969,68.393c.488-.8.684-1.076.834-1.375,4.866-9.659,7.826-19.968,10.524-30.388,1.412-5.453,1.586-10.68-.426-16.046-1.272-3.392-1.874-7.029-2.922-10.512-.313-1.039-1.133-2.742-1.7-2.733a8.7,8.7,0,0,0-4.744,1.341c-1.337.965-2.159,2.677-3.127,4.115-5.08,7.548-10.135,15.113-14.822,22.109,2.969,5.539,5.977,10.782,8.627,16.2C445.358,488.856,447.7,494.54,450.415,500.634Zm3.93-71.545c-9.52-16.814-32.573-19.128-44.816-5.07-6.577,7.552-9.8,16.657-12.307,26.1-.713,2.69-1.155,5.452-1.722,8.181C411.238,440.621,429.693,429.005,454.345,429.089ZM244.959,370.567c-2.653.14-5.151.347-7.651.383-2.623.039-5.247-.112-7.871-.125a9.015,9.015,0,0,0-3.247.248c-5.729,2.259-11.333,4.852-17.122,6.935-4.66,1.677-6.952,4.445-6.227,9.5.336,2.343-.963,3.8-2.878,5.08-4.75,3.174-9.4,6.5-14.025,9.855-1.808,1.312-3.487,2.395-5.479.226l-2.985,6.079c.675-.167,1.072-.242,1.456-.364,13.059-4.143,26.146-8.2,39.164-12.47A35.988,35.988,0,0,0,236.937,382.2C239.5,378.536,242.016,374.839,244.959,370.567Zm101.65,76.616c.738,4.162,1.4,8.146,2.188,12.1a2.857,2.857,0,0,0,1.278,1.77c3.441,1.785,6.789,4.023,10.463,5.033,12.062,3.317,19.649-.764,23.677-12.613a57.76,57.76,0,0,0,2.02-29.279c-.723-3.975-1.977-7.852-2.99-11.774-1.563,14.3-5.97,24.592-15.488,35.283a11.957,11.957,0,0,1-9.182,4.148A17.151,17.151,0,0,1,346.609,447.183Zm-23.254-83.1c-2.178,1.5-4.541,3.243-7.035,4.777-1.368.842-1.514,1.675-1.176,3.193,2.327,10.459,7.225,19.649,13.534,28.181a50.806,50.806,0,0,1,3.55,5.128c.926,1.643.376,3.419-1.489,3.626-2.757.307-5.857.02-7.608-2.4a123.337,123.337,0,0,1-9.162-14.191c-2.911-5.462-5.133-11.291-7.7-17.06l-4.441,2.45c.155.5.234.829.352,1.138a112.38,112.38,0,0,0,14.853,26.487,142.636,142.636,0,0,0,10.09,11.532c.533.578,2.137,1.043,2.573.7,5.036-3.95,9.943-8.066,14.507-11.827-4.3-6.991-8.806-13.3-12.225-20.16S326.231,371.416,323.355,364.081Zm21.593,24.143-.53.2c1.344,3.788,2.641,7.593,4.044,11.359,2.076,5.573,1.966,6.256-2.706,9.9a8.343,8.343,0,0,0-3.466,6.08,57.924,57.924,0,0,0,1.14,19.1,17.006,17.006,0,0,0,9.838,12.02c3.607,1.712,7.236,1.695,10.545-.841.552-.423,1.214-1.234,1.169-1.816-.279-3.618-.19-7.4-1.264-10.8-2.394-7.579-5.151-15.069-8.223-22.4C352.26,403.314,348.486,395.819,344.948,388.224ZM72.1,429.011c-1.332-9.169-10.085-14.889-17.229-15.7-13.7-1.558-23.081,7.517-27.956,15.771-.051.087.1.293.169.47,6.764.808,13.327,2.512,19.141,6.085,2.6,1.6,4.269,1.635,6.775-.076C58.665,431.689,65.2,429.922,72.1,429.011Zm-47.777,5.882c-5.309,8.532-10.469,16.822-15.648,25.144,4.972,8.367,10.088,16.975,15.4,25.915.285-1.027.47-1.738.68-2.442,2.194-7.378,4.288-14.788,6.642-22.114.954-2.967,3.638-5.84,3.424-8.592-.221-2.855-3-5.512-4.655-8.254C28.209,441.314,26.251,438.08,24.323,434.893Zm486.185-7.934c-3.213-6.3-14.815-14.967-25.34-14.247-11.037.755-17.956,7.528-24.52,15.833,1.284.191,2.106.39,2.935.425,7.7.327,15.182,1.5,22.1,5.177a2.638,2.638,0,0,0,2.107-.241C494.805,430.008,502.394,428.018,510.508,426.959ZM326.434,328.553c-1.213-5.015-2.345-9.692-3.489-14.423-3.931.545-7.658,1.1-11.4,1.565-2.61.323-5.318.193-7.837.833-5.118,1.3-10.116,3.063-15.2,4.5-9.93,2.805-19.868,5.591-29.845,8.227-3.332.88-5.391,2.372-6.054,6.063-.409,2.276-2.079,4.326-3.046,6.209-.48,0-.209.064.018-.009q17.831-5.742,35.653-11.51c10.142-3.295,20.264-6.653,30.409-9.938,3.1-1,4.54-.248,5.65,2.748a18.668,18.668,0,0,1,.711,2.228C322.5,327.172,323.823,328.294,326.434,328.553ZM85.9,437.852a38.089,38.089,0,0,1-4.777,2.945c-2.406,1.038-2.754,2.759-2.393,5.035a64.52,64.52,0,0,0,11.188,27.994,37.928,37.928,0,0,0,11.447,10.643,97.156,97.156,0,0,1,1.47-9.78c2.311-9.081-2.237-15.711-7.54-22.5-1.8,4.37-2.6,8.4-.01,12.429.767,1.192.984,2.532-.436,3.041-.739.265-1.963-.594-2.866-1.12-.374-.218-.494-.887-.71-1.36-2.373-5.189-1.324-10.133.98-15.037.391-.832.724-2.185.323-2.81C90.527,444.145,88.232,441.116,85.9,437.852Zm213.932-71.334L324.7,353.191q-1.524-6.982-3.145-14.413c-.767.163-1.434.256-2.071.447Q303.939,343.9,288.4,348.6c-2.639.8-2.88,1.436-1.64,3.88a24.51,24.51,0,0,0,1.632,2.466,9.172,9.172,0,0,0,.318-3.2c.023-2.74,1.469-3.949,4.19-3.585,2.648.354,3.109,2.526,3.619,4.514C297.66,357.113,298.659,361.584,299.828,366.518ZM375.821,396.8c-4.429-15.242-7.275-30.031-5.671-45.528-2,.5-3.591.868-5.167,1.3-10.214,2.807-13.213,8.6-9.646,18.6.145.408.3.813.466,1.214C359.85,382.342,367.026,389.749,375.821,396.8ZM228.3,352.528c.585.386,1.627.733,2.1,1.454,1.223,1.852,2.652,1.706,4.477,1.116,7.1-2.294,14.236-4.485,21.362-6.7,19.884-6.187,39.756-12.416,59.673-18.5,2.721-.83,2.4-2.254,1.887-4.287-.668-2.666-2.231-1-3.457-.849a11.458,11.458,0,0,0-1.986.616Zm84.467-45.153c-1.322-2.428-3.324-2.761-5.692-2.22q-31.05,7.1-62.1,14.2c-5.628,1.293-7.277,3.8-6.538,10.509,1.355-1.021,2.346-1.883,3.45-2.563a5.616,5.616,0,0,1,2.814-1.18,3.688,3.688,0,0,1,3.462,3.813c-.226,2.059-1.867,3.2-4.382,3.045-3.677-.226-6.953,3.731-6.083,7.566,1.9-.552,3.774-1.2,5.7-1.629,3.31-.737,5.342-2.452,5.763-6.038.408-3.475,2.46-5.716,5.813-6.983,4.134-1.563,8.115-3.528,12.234-5.134,11.714-4.569,23.443-9.1,35.217-13.516C305.772,305.986,309.305,304.42,312.766,307.375ZM477.445,492.111c3.4-8.8,6.659-17.181,9.851-25.585a2.076,2.076,0,0,0-.258-1.782c-4.332-4.705-8.734-9.347-13.135-14.024-4.548,5.086-7.487,10.207-4.156,16.849a21.336,21.336,0,0,1,1,3.225C472.948,477.81,475.154,484.824,477.445,492.111ZM349.366,330.482c-2.9.882-5.8,1.695-8.639,2.68-.716.248-1.239,1.048-1.853,1.591-.961.849-1.835,2.251-2.906,2.422a30.917,30.917,0,0,1-6.193-.168c-5.1,3.346-2.923,8.127-1.768,12.77.021.085.049.167.069.251.69,2.8,2.193,5.536.357,8.5-.317.513.013,1.534.239,2.26,2.6,8.322,6.585,15.975,11.583,23.9-.53-3.613-.954-6.576-1.4-9.536-.841-5.564-2.042-11.1-2.457-16.695-.569-7.663.331-15.19,5.694-21.29A89.446,89.446,0,0,1,349.366,330.482ZM6.673,463.246C5.43,465.233,4.491,466.5,3.817,467.9a5.1,5.1,0,0,0-.616,2.931c2.105,10.707,5.5,20.952,11.335,30.261a20.284,20.284,0,0,0,2.416,2.655c3.485-3.486,4.4-7.782,5.629-11.9.179-.6-.31-1.487-.661-2.15-1.622-3.065-3.236-6.139-4.98-9.135C13.638,474.885,10.248,469.263,6.673,463.246ZM49.558,441.3c-3.171,3.63-6.17,6.97-9.029,10.426a2.86,2.86,0,0,0-.466,2.489c2.473,4.913,5.113,9.742,7.839,14.854L62.964,452.2Zm464.175,53.991c-1.473-15.714-5.638-29.871-14.362-42.95-2.109,3.409-3.875,6.48-5.861,9.4-1.366,2.01-1.208,3.4.362,5.386,4.944,6.247,9.642,12.692,14.292,19.164C510.108,489,511.69,491.965,513.733,495.294ZM291.115,478.421c-7.255-10.772-15.619-20.487-22.643-20.586-.355,5.157,2.79,14.837,6.632,20.412q7.512,10.9,15.834.563A2.586,2.586,0,0,0,291.115,478.421ZM64.791,455.338c-4.3,4.807-8.36,9.7-12.821,14.185-2.3,2.312-2.587,4.28-1.6,7.289,1.691,5.185,2.8,10.56,4.2,16.04.478-.9.951-1.628,1.272-2.419,3.552-8.755,6.9-17.6,10.7-26.244,1.521-3.459,1.589-6.137-1.332-8.641A3.054,3.054,0,0,0,64.791,455.338Zm-27.28,1.112a31.619,31.619,0,0,0-2.075,4.152C32.6,469.954,29.9,479.349,27,488.682a7.071,7.071,0,0,0,1.054,6.047c5.4-7.227,10.849-14.48,16.232-21.78a2.489,2.489,0,0,0,.4-2.068C42.468,466.237,40.122,461.653,37.511,456.45Zm96.558-38.43.451-.475c-1.632-5.388-3.349-10.753-4.867-16.174-.915-3.268-.214-4.445,2.916-5.569q27.072-9.716,54.153-19.41c4.9-1.765,9.746-3.664,14.562-5.634a2.4,2.4,0,0,0,1.2-1.975c-.346-1.282-1.308-1.23-2.451-.559a22.843,22.843,0,0,1-4.051,1.759Q162.2,381.8,128.4,393.54c-1.537.533-2.156,1.255-1.716,2.818,1.761,6.255,3.462,12.527,5.331,18.75C132.339,416.187,133.366,417.054,134.069,418.02ZM343.812,304.779c-3.037.822-6.007,1.7-9.017,2.407-1.572.369-1.891,1.169-1.53,2.6.971,3.856,1.857,7.734,2.839,11.587.693,2.721,1.488,5.415,2.3,8.342l17.561-5.518c-1.969-2.584-3.749-4.787-5.377-7.1-1.272-1.808-2.717-2.41-4.865-1.6a10.436,10.436,0,0,1-4.043.734c-.841-.038-1.643-.911-2.463-1.409.585-.766,1.014-1.851,1.788-2.228a24.589,24.589,0,0,1,4.308-1.278C344.822,309.184,344.362,307.18,343.812,304.779ZM475.466,447.464l13.985,14.841c2.664-4.524,5.158-8.759,7.93-13.469-3.184-3-6.336-6.051-9.612-8.966a2.628,2.628,0,0,0-2.4-.436C482.079,441.933,478.928,444.618,475.466,447.464ZM94.94,496.441c1.553-2.378,2.815-4.441,4.214-6.406.931-1.308.647-2.1-.607-2.965-10.709-7.355-16.859-17.916-20.863-29.942-.9-2.718-1.594-5.506-2.533-8.785a60.274,60.274,0,0,1-2.359,7.142c-1.088,2.288-.512,4,.751,5.957,3.517,5.461,6.883,11.021,10.266,16.568C87.457,483.992,91.056,490.005,94.94,496.441ZM73.26,432.519a43.613,43.613,0,0,0-20.338,6.786q6.352,5.394,12.169,10.33C71.509,445.8,74.879,440.473,73.26,432.519Zm355.8,23.693c-8.189,5.6-19.445,30.158-17.057,37.423,2.473-4.267,4.695-8.051,6.868-11.863,2.87-5.038,5.216-10.448,10.186-13.963a1.781,1.781,0,0,0,.708-1.28C429.593,463.277,429.33,460.031,429.055,456.212ZM400.349,298.655c2.116,3.444,3.828,6.343,5.687,9.143a2.227,2.227,0,0,0,1.908.724c2.862-.682,5.712-1.46,8.491-2.419.658-.228,1.541-1.368,1.447-1.948-.53-3.277-1.326-6.511-2.075-9.963Zm59.219,133.5c.867,2.021,1.076,3.9,2.112,4.677,3.837,2.857,7.947,5.347,12.024,8.022l9.157-8.211C475.694,433.084,468.194,432.517,459.568,432.156Zm-264.765,58-.993-1.051c-.148-.676-.24-1.37-.452-2.025-1.972-6.106-3.9-12.227-5.989-18.291a34.078,34.078,0,0,0-2.759-5.58c-.353-.619-1.133-1-1.718-1.483-1.083,1.34-2.447,2.549-3.157,4.064-.559,1.194-.885,3.669-.329,4.023,3.415,2.168,4.972,5.5,6.427,8.949,1.553,3.675,2.937,7.422,4.526,11.08a2.492,2.492,0,0,0,1.829,1.29A7.942,7.942,0,0,0,194.8,490.155ZM386.49,474.183,361.7,493.64c4.619,2.662,11.354,1.335,15.772-3.228C382,485.74,384.323,479.893,386.49,474.183Zm12.025-147.75.682.6c1.4-1.618,2.7-3.332,4.214-4.832,2.274-2.255,2.8-4.836,1.343-7.563a92.519,92.519,0,0,0-6.858-11.591c-1.8-2.445-4.457-4.316-6.916-6.2-1.142-.876-2.758-1.683-4.169.327.915,1.055,1.867,2.044,2.694,3.128,3.1,4.055,6.257,8.066,9.181,12.244a9.392,9.392,0,0,1,1.291,8.2C399.445,322.629,399,324.536,398.515,326.433ZM27.147,432.947,37.41,449.872l9.065-10.294A54.141,54.141,0,0,0,27.147,432.947ZM372.03,297.183c-.156,1.742,13.463,23.7,15.242,24.724C390.68,314.138,383.309,301.182,372.03,297.183ZM499.551,445.7l9.522-15.179a61.149,61.149,0,0,0-18.881,5.924ZM104.068,458.455c.99-4.659,1.739-9.17,2.94-13.557,1.182-4.318,2.822-8.51,4.261-12.758A179.8,179.8,0,0,0,98.51,446.708a2.525,2.525,0,0,0-.254,2.273C100.081,452.172,102.082,455.261,104.068,458.455Zm49.2-44.408c.551-.094,1.106-.168,1.652-.284,4.316-.919,8.616-1.914,12.948-2.75,4.509-.869,9.129-6.778,8.816-11.727C167.843,402.612,160.738,408.561,153.271,414.047ZM446.863,287.661l.125,1.35a24.509,24.509,0,0,0,4.416-.483c11.21-3.3,22.394-6.674,33.579-10.05,1.965-.593,3.9-1.293,5.952-1.98-.35-.911-.588-1.531-.882-2.3ZM95.038,444.521c4.53-5.235,8.894-10.276,13.558-15.664-3.585,1.228-6.779,2.248-9.918,3.419s-6.2,2.487-9.589,3.86C91.252,439.185,93.14,441.847,95.038,444.521Zm199.268-75.689c-.315,4.931-2.416,6.824-6.852,6.61a30.274,30.274,0,0,1-3.865-.511c-3.754-.674-7.242.363-11.047,1.3,5.444,4.709,16.8,3.15,23.82-1.33C295.742,373.069,295.109,371.2,294.306,368.832Zm146.545-82.916c-3.2.99-6.874,2.2-10.6,3.245-1.549.432-2.012,1.093-1.378,2.585.532,1.25.653,2.868,2.756,2.05,1.609-.625,3.264-1.141,4.917-1.645,5.97-1.817,6.457-1.594,9.158,4,.043.089.256.1.878.311C444.624,292.862,442.837,289.573,440.851,285.916ZM471.3,447.841l-8.817-7.027-.724.6c1.357,4.82,2.714,9.641,4.188,14.88C467.785,453.392,469.39,450.859,471.3,447.841ZM433.569,275.569l-5.08,9.213.817.732,10.053-3.546ZM321.731,360.344l-.475-.7c-2.287,1.207-4.588,2.391-6.86,3.628q-6.281,3.418-12.53,6.9c-1.387.774-2.421,1.737-.854,3.591ZM78.072,437.609l.851.456,5.209-3.2c-1.51-3.256-2.9-6.255-4.293-9.255l-.477.013Zm193.4-24.562c1.65,5.455-3.414,5.5-6.027,7.623,2.657-.45,5.161-1.066,7.65-1.739,1.546-.417,2.862-1.192,2.285-3.08C274.885,414.232,274.365,412.373,271.472,413.047Zm-160.83,61.626c-1.285-1.556-2.377-2.88-3.764-4.561-.492,4.2-.907,7.733-1.415,12.061ZM269.784,228.662l.848-.154L268.8,218.37l-.71.129C266.792,222.227,268.432,225.418,269.784,228.662ZM293.294,315l15.92-4.111-.231-.861C303.477,310.659,298.455,313.086,293.294,315Zm130.218-28.162c-1.131,1-1.193,2.178-.31,3.845a58.621,58.621,0,0,1,2.5,6.54c.392,1.025.877,2.015,1.32,3.02l.233-.153Q425.38,293.451,423.512,286.833Zm7.945-15.626,5.287-3.065c-.526-1.132-1-2.16-1.753-3.777ZM340.166,441.4l-.753.109,3.951,13.4.826-.242Q342.177,448.03,340.166,441.4ZM69.379,455.334l1.636-5.773L67.3,452.5ZM231.557,340.357l2.211,6.177,2.759-1.008ZM505,273.419c2.412,0,2.263-1.464,1.8-3.163-.475-1.732-1.41-1.669-2.533-.875C504.514,270.754,504.747,272.031,505,273.419Zm-270.875,94.1c-1.437-2.067-2.653-3.819-3.884-5.56-.027-.038-.23.049-.349.077C230.684,366.9,231.064,367.448,234.124,367.517Zm125.1-67.374-4.675,1.41,3.464,2.305C358.421,302.609,358.76,301.572,359.225,300.143Zm72.65-1.028,8.677-3.462C434.633,296.424,432.266,297.45,431.875,299.115ZM311.273,374.1l-.5.166,2.841,8.421.458-.153Q312.675,378.316,311.273,374.1Z"/><path d="M262.584,364.669c-2.144.33-3.842-.191-4.282-2.575-.344-1.867.149-3.8,2.134-4.092a4.973,4.973,0,0,1,3.842,1.652c1.209,1.467.827,3.256-.917,4.454-.28.192-.55.4-.826.6Z"/><path class="cls-1" d="M524.571,4V520.285H4V4H524.571m4-4H0V524.285H528.571V0Z"/><path class="cls-2" d="M525.268,521.371H4V3.781H525.268ZM34,491.371H495.268V33.781H34Z"/></g></svg>