<?xml version="1.0" encoding="utf-8"?>
<!-- Generator: Adobe Illustrator 24.0.1, SVG Export Plug-In . SVG Version: 6.00 Build 0)  -->
<svg version="1.1" xmlns="http://www.w3.org/2000/svg" xmlns:xlink="http://www.w3.org/1999/xlink" x="0px" y="0px"
	 viewBox="0 0 528.57 523.81" style="enable-background:new 0 0 528.57 523.81;" xml:space="preserve">
<style type="text/css">
	.st0{fill:#616060;}
	.st1{fill:#8D8989;}
	.st2{fill:#FFFFFF;}
</style>
<g id="Layer_1">
	<g>
		<path d="M117.39,226.75c-0.02-81.1,65.68-146.74,146.62-146.89c80.59-0.15,147.21,64.71,147.18,146.92
			c-0.03,81.58-65.7,147.19-147.5,146.88C181.78,373.36,117.35,306.98,117.39,226.75z M400.85,226.84
			c0.42-73.37-58.86-135.63-134.4-136.72C189.2,89,128.3,150.92,127.61,225.38c-0.72,77.9,63.19,138.83,138.11,138.05
			C339.85,362.65,401.19,301.59,400.85,226.84z"/>
		<path d="M298.83,100.76c1.37,0.7,2.16,1.26,3.04,1.53c7.11,2.16,14.03,4.82,20.64,8.23c30.37,15.69,51.75,39.44,63.84,71.44
			c3.86,10.22,6.2,20.83,7.2,31.74c2.99,32.73-4.61,62.71-24.02,89.28c-20.01,27.39-46.8,44.55-80.16,51.33
			c-11.64,2.37-23.39,2.92-35.14,2.02c-25.85-1.98-49.21-10.85-69.62-26.9c-24.54-19.3-40.43-44.22-47.3-74.74
			c-2.38-10.58-3.39-21.34-2.97-32.17c0.95-24.02,7.63-46.33,20.87-66.47c16.16-24.58,38.1-41.95,65.85-51.91
			c9.94-3.57,20.19-5.79,30.67-6.78c14.7-1.39,29.27-0.44,43.62,3.2C297.91,101.22,297.9,101.23,298.83,100.76z M295.17,114.32
			c-35.35-11.21-86.93-3.88-121.55,38c-32.99,39.9-35.75,97.28-6.43,140.31c29.67,43.55,84.13,62.12,134.16,45.49
			c24.38-8.11,43.99-22.91,58.88-43.83c8.49-11.93,14.55-25.01,17.89-39.12c-4.43-1.17-8.49-2.25-12.43-3.29
			c-0.76,0.84-1.56,1.71-2.42,2.65c0.62,0.32,1.28,0.67,2.17,1.13c-0.61,0.81-1.16,1.53-1.96,2.58c-0.96-1.35-1.7-2.4-2.56-3.62
			c-1.22,2.18-3.06,3.18-5.53,2.81c-2.76-0.41-3.49-2.62-4.13-4.85c-1.13,0.68-2.16,1.31-3.47,2.09c-0.33-1.26-0.56-2.14-0.84-3.21
			c0.95-0.08,1.69-0.13,2.32-0.18c-0.3-1.24-0.58-2.38-0.78-3.17c-5.96-1.42-11.84-2.82-17.72-4.21c-0.99-0.23-1.99-0.4-2.95-0.59
			c-9.47,32.73-38.68,51.21-68.83,48.72c-30.41-2.51-53.87-24.79-59.08-53.37c-2.52-13.83-0.97-27.32,5.24-40.05
			c8.34-17.07,21.75-28.44,39.85-34.56c-0.46-4.2-1.22-8.26-0.46-12.9c2.77,3.77,3.78,7.82,5.33,11.18
			c5.36-0.31,10.45-0.91,15.53-0.82c5.15,0.09,10.29,0.86,15.65,1.36c1.6-5.44,3.25-11.05,4.88-16.61c-2.56-3.27-2.7-5.77,2.06-7.47
			c1.64-5.52,3.3-11.12,4.94-16.65c-0.63-0.82-1.16-1.5-1.98-2.56c0.26-1.01,0.28-2.49,1-3.43
			C292.66,115.26,294.08,114.91,295.17,114.32z M321.52,241.83c-16.79-3.86-33.35-7.68-49.77-11.46c-1.17,1.11-2.14,2.39-3.42,3.15
			c-1.36,0.82-3.01,1.15-4.5,1.69c-1.74,5.65-2.52,11.63-6.44,16.37c-0.65-6.15,1.65-11.74,3.09-17.42
			c-5.74-5.07-4.95-9.63-1.3-13.85c-1.51-6.79-2.97-13.42-4.44-20.02c-0.79,0.04-1.94,0.38-2.83,0.05
			c-0.72-0.27-1.13-1.36-1.95-2.44c-0.15,1.8-0.28,3.27-0.41,4.89c-1.37-0.27-2.64-0.51-3.95-0.77c-0.04-2.35,1.78-3.52,2.68-5.19
			c-5.25-0.8-7.58-2.49-8.11-5.79c-0.58-3.59,0.97-5.94,5.41-8.21c-1.78-1.24-4.53-1.06-5.57-3.92c1.09-0.76,2.15-1.49,3.5-2.43
			c0.53,3.46,2.75,4.74,5.52,5.7c0.29-0.61,0.52-1.08,0.7-1.44c-1.35-0.22-2.58-0.42-3.75-0.61c0.14-2.79,0.14-2.79,3.46-3.84
			c-0.87-2.02-1.73-4.03-2.59-6.03c-20.04,5.09-44.96,27.62-41.63,62.58c2.71,28.48,25.63,51.28,55.11,53.19
			C293.32,288.17,316.42,264.35,321.52,241.83z M291.46,142.47c-1,2.95-1,2.95-3.94,4.19c-1.46,5.66-2.94,11.4-4.45,17.28
			c16.4,5.38,29,15.05,37.61,29.61c8.6,14.53,10.81,30.24,7.79,46.81c7.14,1.79,14.23,2.21,20.4,5.13c1-1.09,1.8-1.95,2.64-2.86
			c-0.64-0.42-1.31-0.87-2.14-1.42c0.69-0.8,1.23-1.42,2.02-2.33c0.88,1.29,1.58,2.33,2.37,3.49c0.98-2.5,2.79-3.42,5.3-3.26
			c3.43,0.22,3.6,3.13,4.42,5.45c1.16-0.71,2.18-1.35,3.53-2.18c0.28,1.3,0.48,2.17,0.7,3.19c-1.04,0.12-1.85,0.21-2.29,0.26
			c0.36,1.3,0.68,2.5,0.92,3.37c4.19,0.83,8.3,1.64,12.53,2.48c0.14-0.43,0.35-0.86,0.41-1.31c0.63-4.38,1.34-8.76,1.83-13.16
			c1.32-11.9,0.43-23.68-2.12-35.35c-4.23-19.41-12.86-36.65-25.86-51.67c-14.69-16.97-32.76-28.83-54.18-35.56
			c-0.83-0.26-1.73-0.28-2.94-0.46c3.16,5.36,2.86,6.38-2.15,8.3c-1.45,5.58-2.92,11.24-4.3,16.55
			C290.37,140.49,290.96,141.57,291.46,142.47z M272.4,227.41c16.75,3.88,33.3,7.71,49.84,11.54c7.09-29.94-12.5-61.23-40.86-68.78
			c-4.36,16.53-8.71,33.06-13.09,49.66C270.96,221.65,272.21,224.16,272.4,227.41z M264.81,218.75c4.77-16.4,9.52-32.73,14.38-49.43
			c-9.36-2.43-18.48-2.53-27.88-0.47c0.2,2.52,0.37,4.69,0.54,6.9c3.61-0.69,3.61-0.69,4.88,1.87c-1,0.64-2.04,1.31-3.19,2.05
			c0.43,0.29,0.93,0.64,1.48,1.01c2-2.19,3.08-4.5,2.25-7.75c1.72,0.36,3.05,0.63,4.9,1.02c-1.34,2.13-2.38,3.78-3.5,5.56
			c3.61,0.16,6.44,1.41,7.53,4.94c1.24,3.99-0.89,6.67-4.1,8.75c1.86,1.16,4.23,1.14,5.11,3.7c-1.06,0.75-2.12,1.49-3.23,2.27
			c-1.53-3.61-2.12-4.15-5.8-5.41c-0.28,0.43-0.58,0.88-1.01,1.53c1.58,0.1,3.18-0.69,4.05,1.02c0.61,2.82-2.18,2.26-3.53,3.27
			c3.11,6.11,4.63,12.54,5.53,19.25C263.79,218.79,264.24,218.77,264.81,218.75z M344.32,138.43c2.69,2.73,5.17,5.25,7.73,7.85
			c2.2-2,4.44-4.04,6.9-6.27c-3-2.95-5.69-5.58-8.47-8.31C348.24,134.15,346.3,136.27,344.32,138.43z M169.52,313.39
			c2.96,2.92,5.65,5.58,8.47,8.36c2.26-2.52,4.22-4.7,5.85-6.51c-2.7-2.78-5.14-5.29-7.65-7.88
			C174.15,309.21,172.02,311.14,169.52,313.39z M150.85,190.92c-3.02-0.93-5.82-1.8-8.83-2.73c-1.36,3.91-2.43,7.51-2.98,11.42
			c3.05,0.68,5.84,1.3,8.92,1.98C148.91,198.06,149.83,194.67,150.85,190.92z M136.69,241.25c0.68,4.05,1.29,7.69,1.95,11.61
			c3.25-0.64,6.13-1.2,9.18-1.79c-0.61-3.77-1.17-7.31-1.76-10.93C142.91,240.51,139.98,240.86,136.69,241.25z M240,110.28
			c3.62-0.57,7.02-1.11,10.78-1.71c-0.33-3.12-0.65-6.11-0.99-9.38c-4.09,0.67-7.83,1.29-11.77,1.94
			C238.71,104.33,239.32,107.14,240,110.28z M138.51,201.07c-0.65,4.14-1.24,7.89-1.86,11.85c3.38,0.3,6.37,0.57,9.43,0.84
			c0.55-3.78,1.04-7.15,1.56-10.73C144.53,202.36,141.74,201.76,138.51,201.07z M278.14,99.13c-0.35,3.4-0.64,6.33-0.97,9.5
			c3.81,0.15,7.24,1.46,10.92,1.26c0.6-3.09,1.14-5.88,1.73-8.92C285.86,100.34,282.19,99.76,278.14,99.13z M227.97,113.49
			c3.61-1,7-1.94,10.57-2.94c-0.7-3.13-1.34-6.01-2.05-9.16c-3.86,1.07-7.51,2.08-11.42,3.16
			C226.12,107.78,227.02,110.58,227.97,113.49z M238.58,352.43c4.04,0.73,7.71,1.75,11.81,1.51c0.29-3.03,0.57-5.92,0.86-8.9
			c-3.75-0.61-7.12-1.15-10.77-1.74C239.85,346.37,239.23,349.32,238.58,352.43z M349.71,322.56c-2.18-2.41-4.22-4.65-6.31-6.96
			c-2.94,2.39-5.62,4.56-8.49,6.9c1.85,2.49,3.64,4.9,5.6,7.54C343.76,327.4,346.66,325.05,349.71,322.56z M367.44,150.36
			c-2.57-3.13-4.97-6.05-7.5-9.14c-2.5,2.24-4.72,4.23-6.99,6.27c2.43,2.94,4.67,5.65,7,8.48
			C362.48,154.07,364.83,152.31,367.44,150.36z M360.17,297.21c-2.34,2.89-4.55,5.61-6.89,8.5c2.37,2.1,4.59,4.06,7.03,6.22
			c2.56-3.17,4.94-6.13,7.45-9.23C365.12,300.79,362.72,299.05,360.17,297.21z M340.09,123.2c-2,2.71-3.75,5.08-5.58,7.57
			c2.92,2.33,5.72,4.57,8.58,6.85c2.15-2.41,4.11-4.61,6.24-7C346.2,128.11,343.3,125.78,340.09,123.2z M175.54,305.97
			c-2.42-2.97-4.64-5.68-6.95-8.5c-2.54,1.87-4.91,3.62-7.55,5.57c2.58,3.15,5.03,6.13,7.53,9.18
			C171.03,310,173.17,308.09,175.54,305.97z M380.42,200.98c3.04-0.69,5.9-1.35,9.15-2.09c-1.03-3.87-1.99-7.45-3.04-11.42
			c-3.15,1.02-5.94,1.92-8.92,2.89C378.58,194.03,379.48,197.43,380.42,200.98z M277.54,345c0.43,3.19,0.81,6.07,1.24,9.26
			c3.99-0.62,7.56-1.17,11.56-1.78c-0.66-3.28-1.25-6.21-1.86-9.24C284.71,343.85,281.33,344.39,277.54,345z M382.56,239.84
			c-0.61,3.83-1.17,7.26-1.74,10.81c3.11,0.64,5.98,1.23,9.18,1.88c0.54-4.04,1.87-7.73,1.37-11.78
			C388.44,240.45,385.69,240.17,382.56,239.84z M304.4,104.78c-1.06,3.22-1.98,6.02-2.95,8.94c3.46,1.31,6.74,2.55,10.25,3.89
			c1.26-2.87,2.46-5.61,3.76-8.59C311.68,107.57,308.21,106.24,304.4,104.78z M175.26,147.9c-2.42-2.11-4.64-4.05-7.08-6.17
			c-2.53,3.13-4.87,6.02-7.46,9.2c2.67,1.93,5.1,3.69,7.61,5.5C170.72,153.49,172.9,150.81,175.26,147.9z M224.17,348.3
			c0.96-2.91,1.85-5.6,2.82-8.51c-3.48-1.33-6.76-2.59-10.24-3.92c-1.26,2.87-2.44,5.57-3.72,8.49
			C216.76,345.88,220.14,347.63,224.17,348.3z M228.4,340.21c-0.93,3.01-1.8,5.81-2.78,8.96c3.95,1.06,7.6,2.03,11.43,3.06
			c0.68-3.24,1.3-6.19,1.94-9.22C235.45,342.07,232.14,341.2,228.4,340.21z M188.12,123.69c-3.35,2.18-6.24,4.73-9.28,7.49
			c2.16,2.38,4.19,4.61,6.23,6.86c3-2.46,5.65-4.64,8.42-6.92C191.67,128.6,189.99,126.27,188.12,123.69z M185.39,315.8
			c-2.13,2.39-4.08,4.58-6.25,7.01c3.26,2.62,6.21,4.99,9.27,7.45c1.98-2.74,3.72-5.13,5.5-7.59
			C191.06,320.38,188.37,318.2,185.39,315.8z M151.27,189.55c1.33-3.55,2.55-6.83,3.84-10.27c-2.91-1.28-5.58-2.45-8.54-3.76
			c-1.47,3.86-2.81,7.4-4.22,11.11C145.46,187.64,148.18,188.54,151.27,189.55z M389.92,200.43c-3.34,0.73-6.27,1.37-9.2,2.01
			c0.63,3.79,1.2,7.17,1.8,10.79c3.12-0.35,5.95-0.66,8.91-1c0-1.09,0.11-1.95-0.02-2.79C390.99,206.61,390.49,203.78,389.92,200.43
			z M183.8,138.79c-2-2.11-4.07-4.29-6.12-6.46c-2.95,2.84-5.64,5.43-8.51,8.19c2.47,2.19,4.73,4.19,6.99,6.19
			C178.77,144,181.16,141.53,183.8,138.79z M385.93,186.01c-1.43-3.83-2.39-7.57-4.52-10.98c-2.88,1.3-5.56,2.51-8.28,3.74
			c1.41,3.54,2.71,6.78,4.05,10.16C380.17,187.93,382.87,187.03,385.93,186.01z M155.35,274.76c-1.37-3.58-2.62-6.86-3.93-10.29
			c-3.02,1.02-5.88,1.98-8.93,3.01c1.46,3.73,2.82,7.19,4.31,10.98C149.7,277.19,152.31,276.07,155.35,274.76z M142.05,265.96
			c3.24-1.08,6.09-2.02,8.92-2.96c-1-3.66-1.88-6.88-2.87-10.5c-3.08,0.67-6.01,1.3-9.18,1.99
			C140.02,258.5,141.01,262.15,142.05,265.96z M216.31,117.89c3.51-1.4,6.78-2.69,10.22-4.06c-1.03-3.06-1.96-5.84-2.98-8.85
			c-3.84,1.51-7.36,2.89-11.04,4.34C213.84,112.33,215,114.95,216.31,117.89z M373.35,274.35c2.86,1.26,5.62,2.49,8.49,3.76
			c1.59-3.8,3.23-7.23,4.05-11.17c-3.02-0.98-5.79-1.87-8.63-2.78C375.91,267.7,374.71,270.82,373.35,274.35z M315.92,344.29
			c-1.36-3.12-2.56-5.87-3.75-8.6c-3.63,1.42-6.89,2.71-10.26,4.03c1.02,3.01,1.96,5.77,3.01,8.84
			C308.75,347.07,312.19,345.74,315.92,344.29z M300.48,340.13c-3.63,0.98-6.92,1.88-10.51,2.85c0.65,3.07,1.26,5.94,1.93,9.16
			c3.98-1.06,7.64-2.04,11.51-3.07C302.38,345.9,301.46,343.12,300.48,340.13z M344.91,314.92c1.79,2,3.76,4.21,5.92,6.63
			c2.84-2.88,5.57-5.64,8.37-8.48c-2.45-2.21-4.57-4.12-6.68-6.03C349.92,309.73,347.48,312.26,344.91,314.92z M262.55,98.45
			c-3.85,0.21-7.35,0.41-11.23,0.62c0.34,3.33,0.64,6.21,0.91,8.83c3.64,0,6.93,0,10.32,0C262.55,104.66,262.55,101.82,262.55,98.45
			z M382.98,238.4c2.84,0.27,5.82,0.55,8.94,0.84c0.18-4.02,1.12-7.58,0.45-11.23c-3.14,0-6.09,0-9.39,0
			C382.98,231.48,382.98,234.8,382.98,238.4z M360.75,157.18c2.03,3.05,3.83,5.76,5.76,8.65c2.75-1.5,5.35-2.91,8.22-4.47
			c-2.15-3.28-4.17-6.39-6.36-9.73C365.71,153.57,363.33,155.3,360.75,157.18z M136.1,228.44c0.15,3.92-0.35,7.61,0.96,11.26
			c3-0.37,5.81-0.72,8.46-1.05c0-3.64,0-6.86,0-10.21C142.36,228.44,139.5,228.44,136.1,228.44z M189.24,122.66
			c1.94,2.7,3.71,5.14,5.51,7.63c2.97-2,5.66-3.8,8.54-5.74c-1.52-2.74-2.98-5.36-4.55-8.19
			C195.42,118.56,192.41,120.55,189.24,122.66z M160.12,301.77c2.73-1.97,5.13-3.71,7.65-5.54c-1.95-2.88-3.81-5.62-5.77-8.52
			c-2.84,1.56-5.4,2.97-8.15,4.48C156.03,295.52,157.97,298.49,160.12,301.77z M277.11,354.41c-0.34-3.24-0.66-6.25-0.98-9.28
			c-3.53,0.19-6.74,0.36-9.99,0.53c0,3.22,0,6.23,0,9.54C269.89,354.93,273.4,354.68,277.11,354.41z M322.27,122.89
			c1.54-2.81,3.31-5.27,4.49-8.27c-3.43-1.72-6.58-3.3-9.89-4.96c-1.34,3.04-2.53,5.73-3.77,8.55
			C316.22,119.81,319.04,121.24,322.27,122.89z M155.79,177.96c1.58-3.17,3.03-6.06,4.57-9.14c-2.74-1.57-5.29-3.03-8.14-4.66
			c-1.71,3.41-3.31,6.61-4.97,9.93C150.24,175.46,152.86,176.64,155.79,177.96z M383.17,224.55c3.25,0,6.19,0,9.51,0
			c-0.25-3.58-0.5-6.97-0.77-10.76c-3.25,0.3-6.25,0.59-9.28,0.87C382.82,218.05,382.99,221.19,383.17,224.55z M252.06,354.37
			c3.6,0.26,6.95,1.08,10.38,0.52c0-3.21,0-6.21,0-9.24c-3.32-0.17-6.37-0.32-9.59-0.48c-0.26,2.18-0.55,4.35-0.77,6.52
			C251.99,352.52,252.06,353.36,252.06,354.37z M189.68,331.18c3.16,2.06,6.09,3.98,9.2,6c1.62-2.86,3.07-5.42,4.61-8.15
			c-2.89-1.9-5.51-3.63-8.35-5.5C193.32,326.08,191.6,328.48,189.68,331.18z M339.24,330.92c-2.04-2.76-3.77-5.12-5.56-7.55
			c-2.83,1.88-5.44,3.62-8.24,5.49c1.55,2.78,3,5.39,4.56,8.19C333.17,334.95,336.02,333.06,339.24,330.92z M381.31,279.6
			c-2.98-1.34-5.71-2.57-8.59-3.86c-1.56,3.13-2.96,5.93-4.5,8.99c2.72,1.54,5.27,2.99,8.11,4.6
			C378.02,286.02,379.58,282.98,381.31,279.6z M322.53,330.49c-3.11,1.6-5.99,3.08-9,4.63c1.36,2.92,2.33,5.79,4.02,8.47
			c3.3-1.7,6.33-3.25,9.47-4.87C325.44,335.82,324.06,333.3,322.53,330.49z M153.87,161.26c2.98,1.69,5.54,3.14,8.19,4.64
			c1.91-2.93,3.61-5.55,5.38-8.26c-2.69-1.92-5.08-3.63-7.62-5.45C157.76,155.35,155.92,158.15,153.87,161.26z M361.03,296.01
			c2.62,1.86,5.03,3.56,7.65,5.41c2.07-3.16,3.99-6.09,6.01-9.17c-2.96-1.68-5.54-3.15-8.17-4.64
			C364.66,290.46,362.92,293.11,361.03,296.01z M389.76,254.07c-3.17-0.67-6.01-1.26-9.45-1.99c1.93,2.38,4.91,1.12,6.63,3.67
			c-2.7-0.3-4.9-0.55-7.11-0.8c-0.78,2.81-1.44,5.19-2.15,7.75c3.03,0.95,5.83,1.84,8.96,2.83
			C387.71,261.64,388.69,258.04,389.76,254.07z M266.06,108.02c3.29,0,6.32,0,9.66,0c0.26-2.87,0.52-5.7,0.79-8.66
			c-3.51-1.02-6.91-0.7-10.46-0.7C266.06,101.84,266.06,104.7,266.06,108.02z M215.4,335.27c-3.03-1.52-5.91-2.97-9.01-4.52
			c-1.57,2.75-3.02,5.28-4.64,8.12c3.45,1.73,6.5,3.27,9.78,4.92C212.88,340.82,214.1,338.14,215.4,335.27z M333.36,129.89
			c1.88-2.64,3.61-5.08,5.42-7.63c-3.18-2.06-5.97-3.88-8.97-5.82c-1.62,2.88-3.1,5.5-4.6,8.17
			C328.01,126.42,330.5,128.03,333.36,129.89z M156.01,276.04c-2.91,1.41-5.81,2.31-8.49,4.07c1.63,3.17,3.14,6.1,4.71,9.15
			c2.52-1.38,4.7-2.57,6.87-3.78c0.4-0.22,0.74-0.56,1.19-0.91C158.88,281.77,157.52,279.05,156.01,276.04z M214.98,118.49
			c-1.38-3.02-2.6-5.68-3.91-8.56c-3.34,1.71-6.29,3.23-9.35,4.79c1.6,2.91,3.02,5.49,4.5,8.2
			C209.23,121.39,211.95,120.02,214.98,118.49z M136.47,214.41c0,3.7,0,6.9,0,10.27c2.95,0,5.88,0,9.1,0
			c0.02-3.25,0.4-6.33,0.07-9.43C142.56,214.97,139.82,214.72,136.47,214.41z M376.39,164.29c-3.04,1.64-5.62,3.04-8.25,4.46
			c1.56,3.02,2.95,5.73,4.44,8.6c2.9-1.32,5.58-2.54,8.5-3.88C379.51,170.4,378.03,167.52,376.39,164.29z M291.57,101.36
			c-0.99,3.19-1.7,6.07-1.87,9.28c2.08,0.46,3.9,0.87,5.93,1.32c0.91-3.1,1.73-5.89,2.62-8.91
			C295.97,102.47,293.96,101.96,291.57,101.36z M269.78,226.51c0.02-3.29-2.35-5.67-5.59-5.62c-3.04,0.04-5.31,2.43-5.32,5.59
			c-0.01,3.32,2.06,5.37,5.39,5.34C267.56,231.79,269.77,229.67,269.78,226.51z M262.74,185.35c-0.93-2.86-2.26-3.98-4.3-3.63
			c-1.73,0.29-2.83,1.46-2.9,3.07c-0.09,2,1.2,3.69,3.03,3.97C260.56,189.06,261.73,188.11,262.74,185.35z M250.04,188.36
			c-0.08-2.06-1.71-3.52-3.85-3.45c-1.94,0.06-3.34,1.47-3.28,3.31c0.07,2.2,1.58,3.69,3.67,3.63
			C248.58,191.78,250.11,190.24,250.04,188.36z M296.92,112.51c1.39,0.27,2.26,0.44,3.18,0.63c0.94-2.98,1.8-5.69,2.72-8.63
			c-1.24-0.42-2.34-0.8-3.62-1.24C298.42,106.44,297.72,109.28,296.92,112.51z M362.04,243.86c-1.53-2.12-1.53-2.12-3.92-1.89
			c-1.02,0.86-1.63,1.87-0.78,3.18c0.81,1.25,1.98,1.31,3.5,0.71C361.16,245.33,361.58,244.63,362.04,243.86z M359.5,251.66
			c-1.04-1.13-2.15-1.66-3.41-0.81c-1.39,0.93-1.23,2.22-0.65,3.46C358.42,255.72,359.55,254.99,359.5,251.66z M294.37,120.49
			c1.41-0.46,2.16-1.06,2.12-2.34c-0.05-1.27-0.82-1.85-2.4-2.18c-0.53,0.8-1.15,1.73-1.82,2.74
			C293.16,119.47,293.72,119.95,294.37,120.49z M253.99,182.57c-0.85-0.95-1.54-1.73-2.41-2.7c-0.33,1.52-0.58,2.63-0.83,3.79
			c0.57,0.55,1.1,1.05,1.74,1.67C253.02,184.35,253.46,183.55,253.99,182.57z M256.31,192.75c-0.74-0.55-1.53-1.14-2.41-1.8
			c-0.3,0.82-0.52,1.44-0.75,2.08c0.82,1.01,1.59,1.95,2.5,3.07C255.89,194.89,256.08,193.9,256.31,192.75z"/>
		<path d="M174.32,225.55c-6.4,2.09-13.36,2.23-19.65,5.96c0-2.21,0-4.06,0-6.58c1.16,0.85,1.93,1.42,2.98,2.19
			c3.99-0.67,8.28-1.16,12.99-3.34c3.4,0.33,18.03-3.31,21.67-5.71c1.41,1.56,1.5,3.69,0.15,5.91c-0.38-0.22-0.77-0.42-1.13-0.68
			c-0.3-0.22-0.56-0.51-1.18-1.08c-4.21,0.85-8.61,1.74-13.02,2.63c4.32,1.8,8.66,3.02,13.2,3.45c0.72-0.61,1.35-1.14,2.06-1.74
			c1.46,1.53,1.03,3.05,0.53,4.92C187.04,228.21,180.53,227.5,174.32,225.55z"/>
		<path d="M208.01,132.53c-0.14,0.88-0.28,1.76-0.43,2.67c2.14,3.61,7.4,8.92,9.28,9.35c1.51,3.93,5.08,6.17,7.68,9.19
			c2.52,2.93,4.97,5.99,9.36,7.66c-2.18,1.33-3.78,2.29-5.27,3.2c-1.85-0.98-0.08-2.22-0.31-3.45c-2.96-3.25-5.91-6.5-8.87-9.74
			c-0.2,0.11-0.4,0.21-0.6,0.32c1.24,3.91,2.34,7.87,3.81,11.7c0.39,1.02,1.9,1.62,3.01,2.52c-1.14,1.21-2.37,2.1-4.35,2.16
			c0.76-5.84-2.15-10.83-3.18-16.21c-0.35-1.84-1.26-3.35-2.64-4.69c-2.84-2.76-5.47-5.72-8.3-8.49c-1-0.98-2.33-1.61-3.5-2.41
			c-0.37-0.25-0.73-0.53-1.56-1.13c1.99-1.14,3.65-2.1,5.31-3.06C207.64,132.25,207.83,132.39,208.01,132.53z"/>
		<path d="M255.86,136.91c-2.14-6.12-2.19-13.02-5.75-19.07c1.99-0.68,3.89-0.68,6.12,0.05c-0.68,0.9-1.23,1.62-1.98,2.61
			c0.87,4.06,1.09,8.5,3.02,12.04c1.35,8.08,2.57,15.73,6.14,23.06c-1.77,0.89-3.71,0.18-6.37,0.42c0.91-1.39,1.43-2.19,2.2-3.38
			c-0.84-3.96-1.75-8.26-2.66-12.55c-0.23-0.01-0.45-0.02-0.68-0.02c-1,4.25-2,8.5-2.96,12.6c0.76,1.02,1.31,1.75,1.97,2.65
			c-1.65,1.18-3.19,0.52-4.71,0.6c-0.05-0.6-0.2-1-0.07-1.15c2.72-3.05,2.69-7.11,3.91-10.69
			C254.81,141.81,255.23,139.43,255.86,136.91z"/>
		<path d="M204.92,184.69c-0.71,2.59-1.56,4.3-3.4,6.05c-0.42-1.12-0.72-1.93-1.03-2.75c-3.4-2.01-11.73-4.28-13.06-3.98
			c-7.73-2.65-14.69-5.39-22.79-5.72c1.04-1.85,1.97-3.52,3.28-5.86c0.73,1.56,1.14,2.45,1.7,3.65c3.9,1.23,7.88,3.06,12.98,3.45
			c2.68,2,6.7,2.37,10.44,3.42C196.75,183.98,200.33,185.93,204.92,184.69z"/>
		<path d="M301.75,302.5c-1.65-4.36-3.3-8.72-4.95-13.08c0.22-0.14,0.43-0.28,0.65-0.42c0.57,0.64,1.2,1.25,1.72,1.94
			c5.77,7.73,11.45,15.52,17.31,23.17c1.52,1.99,3.58,3.56,5.56,5.48c-1.08,1.57-3.14,1.97-4.86,3c-0.33-0.26-0.61-0.49-1.02-0.82
			c0.4-0.78,0.77-1.51,1.26-2.46c-5.45-7.33-10.91-14.67-16.74-22.51c0.44,2.29,0.77,3.98,1.09,5.68L301.75,302.5z"/>
		<path d="M189.81,234.59c1.12-0.79,1.93-1.35,3-2.11c0.77,2.4,0.85,4.25-0.2,6.71c-2.23-3.32-5.23-2.61-8.03-2.62
			c-7.62-0.02-15.24,0.01-22.86-0.02c-2.14-0.01-4.26-0.13-5.77,1.84c-0.16,0.21-0.7,0.15-1.3,0.25c0-1.93,0-3.7,0-5.48
			c1.44,0.11,1.44,0.11,2.97,1.43C168.29,234.59,179.09,234.59,189.81,234.59z"/>
		<path d="M177.12,293.61c-1.84-1.22-2.39-3.08-3.41-4.82c0.52-0.26,1.05-0.74,1.31-0.62c2.09,0.95,3.69-0.1,5.37-1.1
			c7.2-4.29,14.41-8.56,21.62-12.83c1.76-1.04,3.54-2.01,3.75-4.38c0.02-0.19,0.42-0.34,0.76-0.6c1.8,1.01,2.25,2.91,3.29,4.73
			c-0.69,0.2-1.3,0.6-1.64,0.44c-1.56-0.73-2.8-0.09-4.07,0.67c-7.86,4.68-15.72,9.38-23.6,14.03c-1.31,0.77-2.35,1.63-2.59,3.24
			C177.87,292.76,177.45,293.11,177.12,293.61z"/>
		<path d="M237.53,293.48c1.91,1.19,3.47,2.16,5.03,3.13c-0.04,0.24-0.07,0.48-0.11,0.73c-0.91,0.32-1.82,0.64-3.11,1.1
			c-1.5,2.43-3.19,5.13-4.84,7.84c-2.91,4.78-5.82,9.56-8.7,14.35c-1.55,2.58-3.77,4.94-2.58,8.56c-2.49,0.02-3.92-1.27-5.36-2.57
			c0.14-0.3,0.21-0.6,0.31-0.62c2.55-0.3,3.59-2.28,4.74-4.17c4.34-7.18,8.69-14.36,13.08-21.51c0.99-1.61,1.88-3.15,1.14-5.13
			C237.02,294.9,237.28,294.47,237.53,293.48z"/>
		<path d="M203.02,262.35c0.96,2,2.7,3.18,2.45,5.66c-0.98-0.27-1.75-0.48-3.02-0.82c-9.04,5.35-18.39,10.89-27.42,16.23
			c-0.72,1.47-1.24,2.52-2.06,4.17c-1.3-2.17-2.25-3.75-3.19-5.33c0.13-0.22,0.27-0.43,0.4-0.65c0.95,0.14,1.89,0.28,3.34,0.49
			c2.55-1.48,5.46-3.16,8.35-4.87c5.56-3.29,11.1-6.61,16.66-9.91c1.51-0.9,3-1.77,3.2-3.8
			C201.77,263.18,202.39,262.91,203.02,262.35z"/>
		<path d="M198.25,255.97c2.19,1.37,3.1,2.88,3.24,5.44c-3.23-1.58-5.43,0.61-7.82,2.02c-6.82,4-13.6,8.05-20.39,12.1
			c-0.82,0.49-1.61,1.03-2.29,1.47c-0.58,1.21-1.08,2.26-1.92,4c-1.34-2.21-2.27-3.77-3.21-5.32c0.13-0.22,0.27-0.44,0.4-0.66
			c0.94,0.13,1.89,0.26,3.25,0.45c1.36-0.77,3.05-1.69,4.7-2.66c5.98-3.52,11.96-7.03,17.91-10.61
			C194.69,260.66,197.84,259.68,198.25,255.97z"/>
		<path d="M365.71,270.84c-0.92,1.79-1.37,3.66-3.4,5.01c-0.3-3.77-3.27-4.57-5.66-5.94c-6.75-3.89-13.52-7.74-20.28-11.6
			c-1.66-0.95-3.27-2.11-5.37-1.07c-0.28,0.14-0.84-0.27-1.59-0.54c0.93-1.72,1.76-3.27,2.55-4.73c2.31-0.16,1.35,1.88,2.05,2.8
			c2.07,1.21,4.14,2.43,6.22,3.62c6.17,3.54,12.36,7.07,18.53,10.61c1.84,1.05,3.67,2.15,5.94,1.25
			C364.85,270.17,365.16,270.5,365.71,270.84z"/>
		<path d="M358.31,284.13c-1.01,1.79-1.85,3.27-2.83,5c-0.56-0.5-1.25-0.82-1.25-1.15c-0.01-1.64-1.07-2.38-2.27-3.07
			c-8.11-4.63-16.23-9.25-24.33-13.89c-1.21-0.69-2.38-1.17-3.83-0.61c-0.47,0.18-1.14-0.14-2.13-0.3c1.13-1.91,2.03-3.43,2.86-4.83
			c2.06,0.23,1.24,1.96,1.89,2.9c5.68,3.26,11.35,6.52,17.03,9.77c2.59,1.48,5.23,2.88,7.79,4.42c1.78,1.07,3.5,2.05,5.68,1.23
			C357.15,283.51,357.56,283.84,358.31,284.13z"/>
		<path d="M215.95,321.99c-0.05,1.18,1.52,2.3-0.28,3.57c-1.4-0.88-2.95-1.84-4.5-2.81c0.03-0.23,0.06-0.47,0.1-0.7
			c0.83-0.29,1.66-0.59,2.8-0.98c0.46-0.62,1.14-1.43,1.69-2.32c4.68-7.64,9.33-15.3,13.98-22.96c0.85-1.4,1.75-2.8,0.8-4.58
			c-0.14-0.27,0.26-0.82,0.51-1.55c1.81,0.98,3.56,1.61,5.08,3.56c-1.16,0.42-2.06,0.75-3.44,1.26
			C227.24,303.42,221.59,312.71,215.95,321.99z"/>
		<path d="M266.29,120.7c-0.68-0.92-1.26-1.73-2.01-2.75c2.24-0.78,4.05-0.72,6.11-0.12c-0.26,0.54-0.35,1.07-0.67,1.31
			c-1.2,0.93-1.46,2.17-1.46,3.58c0.01,9.25,0.02,18.5,0,27.75c0,1.42,0.3,2.65,1.43,3.62c0.32,0.28,0.45,0.78,0.8,1.41
			c-2,0.91-3.85,0.36-5.56,0.44c-0.85-1.7,0.93-1.83,1.35-3.16C266.29,142.32,266.29,131.45,266.29,120.7z"/>
		<path d="M317.95,276.74c0.98-1.76,1.88-3.37,2.78-4.98c0.25,0.01,0.49,0.01,0.74,0.02c0.35,0.88,0.7,1.76,1.26,3.17
			c9.04,5.17,18.49,10.57,27.77,15.88c1.29-0.22,2.29-0.4,3.53-0.61c-0.03,2.52-1.41,3.94-2.97,5.95c-0.52-1.44-0.82-2.3-1.22-3.41
			c-0.86-0.55-1.89-1.26-2.97-1.88c-7.28-4.17-14.58-8.31-21.87-12.47c-1.76-1.01-3.46-2.18-5.65-1.15
			C319.12,277.37,318.68,277.02,317.95,276.74z"/>
		<path d="M234.33,160.74c-0.11-0.15-0.36-0.35-0.33-0.43c1.06-2.61-0.42-4.57-1.63-6.62c-4.14-7.07-8.28-14.14-12.39-21.23
			c-0.94-1.62-1.83-3.19-3.93-3.47c-0.37-0.05-0.72-0.29-1.18-0.49c1.41-2.08,3.24-2.52,5.05-3.77c0.21,0.89,0.59,1.53,0.43,1.98
			c-0.54,1.44-0.09,2.62,0.62,3.83c4.62,7.91,9.14,15.87,13.87,23.71c0.86,1.42,2.51,2.37,3.96,3.69
			C238.43,159.2,237.22,160.05,234.33,160.74z"/>
		<path d="M358.31,277.4c1.39-0.18,2.35-0.3,3.3-0.42c0.13,0.21,0.26,0.42,0.39,0.64c-0.92,1.58-1.83,3.16-2.75,4.74
			c-0.25-0.02-0.49-0.03-0.74-0.05c-0.33-0.91-0.66-1.81-1.08-2.95c-0.8-0.5-1.76-1.14-2.75-1.71c-7.43-4.26-14.88-8.49-22.31-12.77
			c-1.7-0.98-3.35-1.91-5.39-1c-0.19,0.08-0.53-0.16-0.94-0.3c0.06-2.14,1.23-3.66,2.55-5.11c0.29,0.16,0.59,0.22,0.61,0.34
			c0.46,2.91,2.93,3.83,5.05,5.05c6.76,3.89,13.54,7.75,20.32,11.6C355.84,276.17,357.14,276.79,358.31,277.4z"/>
		<path d="M210.36,322.31c-1.56-0.95-2.93-1.78-4.2-2.54c0.04-1.89,1.62-1.25,2.71-1.68c3.63-8.36,7.27-16.72,10.87-25.09
			c0.01-0.02-0.43-0.23-0.88-0.46c1.86-2.31,3.65-4.53,5.44-6.74c0.15,0.05,0.3,0.11,0.45,0.16c-0.13,0.55-0.17,1.13-0.39,1.63
			c-3.93,8.99-7.87,17.98-11.84,26.95c-0.93,2.11-1.96,4.18-1.58,6.61C210.99,321.37,210.71,321.64,210.36,322.31z"/>
		<path d="M165.33,274.83c-0.89-1.54-1.68-2.93-2.72-4.75c1.41,0,2.37,0,3.26,0c3.89-2,21.06-15.91,22.17-18.02
			c2.34-0.97,4.79-1.98,7.23-2.98c0.08,0.16,0.17,0.32,0.25,0.47c-0.92,0.79-1.8,1.62-2.76,2.37c-7.19,5.65-14.38,11.31-21.6,16.93
			c-1.9,1.48-3.85,2.88-4.72,5.29C166.36,274.34,165.97,274.43,165.33,274.83z"/>
		<path d="M267.36,335.82c-2,1.18-3.23,1.18-5.23-0.07c0.26-0.37,0.5-0.75,0.78-1.1c0.29-0.37,0.6-0.73,0.94-1.13
			c-0.59-4.79-1.15-9.55-1.77-14.31c-0.47-3.62-1.02-7.23-1.54-10.84c-0.11-0.75,0.34-1.77-0.95-2c-0.11-0.02-0.21-0.54-0.17-0.81
			c0.32-2.43,0.67-4.86,1.02-7.29c0.23,0,0.46,0,0.69,0c0.44,3.04,0.93,6.07,1.33,9.12c1.02,7.91,1.93,15.83,3.06,23.72
			C265.73,332.74,266.72,334.26,267.36,335.82z"/>
		<path d="M268.24,298.01c1.88,0,3.71,0,5.58,0c0.02,0.43,0.16,0.88,0.03,0.97c-1.95,1.47-1.99,3.57-2,5.7
			c0,8.19,0.02,16.38-0.03,24.58c-0.01,2.18,0.14,4.23,1.94,5.79c0.17,0.15,0.13,0.54,0.24,1.02c-2,0.91-3.91,0.93-6.38-0.22
			c3.3-2.1,2.59-5.13,2.6-7.94c0.03-7.52,0.01-15.04,0.01-22.55c0-2.3,0.31-4.69-1.98-6.28
			C268.12,298.99,268.24,298.54,268.24,298.01z"/>
		<path d="M277.97,155.75c-1.91,0-3.75,0-5.67,0c0-0.4-0.1-0.85,0.02-0.92c2.13-1.25,1.98-3.3,1.98-5.34c-0.02-7.23,0-14.46,0-21.69
			c0-5.65,0-5.65-2.07-9.96c1.94-0.64,3.8-0.7,6.17,0.17c-3.06,2.45-2.46,5.61-2.47,8.62c-0.02,7.33,0,14.65-0.01,21.98
			c0,2.24-0.04,4.46,1.94,6.07C278,154.81,277.92,155.22,277.97,155.75z"/>
		<path d="M301.77,302.47c0.59,1.27,1.3,2.5,1.77,3.81c1.56,4.34,3,8.72,4.55,13.07c0.44,1.24,1.11,2.41,1.63,3.51
			c1.18,0.27,2.09,0.48,3,0.69c-0.42,1.98-1.91,2.97-4.59,3.15c-0.06-0.07-0.18-0.16-0.17-0.22c0.65-4.69-1.57-8.75-2.86-13
			c-0.94-3.13-2.06-6.2-3.07-9.31c-0.17-0.53-0.2-1.11-0.29-1.67L301.77,302.47z"/>
		<path d="M172.31,171.08c-1.34,0.18-2.14,0.29-3.1,0.42c-0.31-2.08,1-3.14,2.21-4.92c1.95,4.84,6.18,7.33,8.73,11.33
			C177.52,175.61,174.88,173.31,172.31,171.08z"/>
		<path d="M189.86,186.53c2.43,2.14,4.86,4.29,7.14,6.3c1.28-0.06,2.25-0.1,3.84-0.18c-0.92,1.78-1.59,3.08-2.43,4.7
			c-1.56-2.04-2.78-3.89-4.25-5.5c-1.53-1.67-3.32-3.11-5-4.65C189.4,186.98,189.63,186.75,189.86,186.53z"/>
		<path d="M154.68,222.99c0-1.47,0-2.93,0-4.56c2.13,0.95,3.96,1.89,5.87,2.57c1.88,0.67,3.85,1.08,5.71,2.04
			c-0.58-0.05-1.18-0.04-1.75-0.15c-1.13-0.23-2.25-0.51-3.37-0.8c-2.18-0.55-4.29-0.71-6.04,1.33
			C154.97,223.27,154.83,223.13,154.68,222.99z"/>
		<path d="M215.55,139.8c-2.06-2.89-1.58-7.19-6.47-8.56c1.8-1.11,3.04-1.88,4.63-2.87c0.23,2.29,0.33,4.18,0.63,6.04
			C214.63,136.23,215.13,138.01,215.55,139.8z"/>
		<path d="M259.89,120.58c-0.59-0.85-1.11-1.62-1.8-2.62c1.73-0.78,3.21-0.73,5.09-0.04c-2.97,3.36-2.99,7.67-4.95,11.35
			C258.79,126.37,259.34,123.46,259.89,120.58z"/>
		<path d="M202.98,314.02c0.13,1.42,0.21,2.37,0.3,3.32c-0.21,0.1-0.42,0.2-0.63,0.3c-1.23-0.78-2.45-1.57-3.8-2.43
			c2.14-1.79,3.99-3.35,6.33-5.31C204.25,311.63,203.57,312.91,202.98,314.02z"/>
		<path d="M256.48,332.95c0.91,1.15,1.49,1.88,2.14,2.71c-1.62,1.55-3.14,1.14-4.7,0.46c0.87-2.52,1.68-4.88,2.56-7.42
			C256.48,330.21,256.48,331.65,256.48,332.95z"/>
		<path d="M161.39,267.78c-1.2-1.83-2-3.05-3.09-4.71c2.49-0.4,4.59-0.73,7.22-1.15c-1.19,0.95-2.06,1.65-2.86,2.29
			C162.29,265.25,161.96,266.17,161.39,267.78z"/>
		<path d="M315.29,129.15c1.93,1.1,3.8,2.16,5.67,3.23c-0.01,0.23-0.01,0.47-0.02,0.7c-0.98,0.37-1.96,0.74-2.94,1.1
			c-0.13-0.1-0.26-0.19-0.39-0.29c-5.27,9.49-10.55,18.98-15.82,28.48c-0.09,1.31,1.93,2.28,0.28,3.79
			c-1.8-0.99-3.69-2.01-5.52-3.01c0.21-2.06,1.83-1.22,3.19-1.99c0.73-1.21,1.76-2.82,2.69-4.49c3.67-6.56,7.28-13.15,10.96-19.71
			c1.14-2.04,2.44-4,1.1-6.45c-0.07-0.13,0.02-0.38,0.1-0.55C314.69,129.79,314.85,129.67,315.29,129.15z"/>
		<path d="M370.58,216.49c0.88-0.73,1.67-1.39,2.6-2.16c1.63,1.91,0.95,3.83,0.67,6.3c-1.2-0.77-2.08-1.33-3.23-2.06
			c-10.48,0-21.26,0-31.75,0c-1.16,0.74-2.05,1.32-3.06,1.96c-0.76-2.96-0.72-3.86,0.19-6.13c0.82,0.69,1.57,1.32,2.47,2.08
			C349,216.49,359.69,216.49,370.58,216.49z"/>
		<path d="M338.45,224.13c10.62,0,21.41,0,32.07,0c1.02-0.69,1.91-1.3,2.86-1.95c1.08,2.55,1.06,3.88-0.07,6.11
			c-0.82-0.66-1.59-1.29-2.48-2.02c-0.45-0.05-1.02-0.16-1.59-0.16c-9.45-0.01-18.9,0.07-28.34-0.08c-2.09-0.03-3.29,1.25-4.93,2.29
			c-1.12-2.01-0.75-3.89-0.25-6.36C336.78,222.81,337.53,223.4,338.45,224.13z"/>
		<path d="M359.49,179.2c-9.29,5.01-18.78,10.12-27.96,15.07c-0.63,1.35-1.07,2.31-1.84,3.95c-1.26-2.21-2.14-3.74-3.02-5.27
			c1.31-0.85,1.31-0.85,3.38-0.03c9.34-5.01,18.91-10.15,28.16-15.12c0.76-1.43,1.31-2.46,2.17-4.08c1.2,2.23,2.08,3.86,3.32,6.18
			C361.99,179.61,361.02,179.45,359.49,179.2z"/>
		<path d="M327.87,187.48c-0.62,1.4-1.02,2.32-1.57,3.56c-1.85-1.57-2.34-3.4-3.18-4.9c1.17-1.72,2.24,0.26,3.38-0.05
			c3.65-1.94,7.3-3.88,10.94-5.83c4.93-2.64,9.84-5.3,14.78-7.92c1.65-0.88,3.22-1.76,3.51-3.87c0.04-0.27,0.51-0.48,0.77-0.71
			c1.66,1.38,1.98,1.91,2.95,4.77c-1.03,1.54-2.05-0.24-3.2-0.27C346.75,177.35,337.25,182.44,327.87,187.48z"/>
		<path d="M373.73,230.09c0.76,3.24,0.67,4.18-0.65,5.93c-1.71-2.88-4.51-2.36-7.16-2.36c-6.74-0.01-13.48-0.04-20.22,0.01
			c-3.36,0.03-6.94-0.83-9.56,2.35c-1.19-2.34-1.15-4.16,0.11-6.14c1.88,2.5,4.6,2.26,7.26,2.26c7.42-0.01,14.83-0.02,22.25,0.01
			c2.52,0.01,5.01,0.03,6.96-1.98C372.85,230.02,373.24,230.12,373.73,230.09z"/>
		<path d="M260.04,227.22c-0.05-1.93,1.44-3.53,2.97-4.04c0.17-0.06,0.89-0.29,1.81-0.15c2.04,0.32,3.49,1.96,3.52,3.98
			c0.02,1.71-1.24,3.81-3.34,4.21C262.56,231.69,260.1,229.63,260.04,227.22z"/>
	</g>
	<g>
		<g>
			<path d="M147.61,438.98c-1.39-11.5-11.21-20.44-23.07-20.44s-21.68,8.94-23.07,20.44c-0.11,0.92-0.17,1.86-0.17,2.8
				s0.06,1.88,0.17,2.8c1.39,11.5,11.21,20.43,23.07,20.43s21.68-8.94,23.07-20.43c0.11-0.92,0.17-1.86,0.17-2.8
				S147.72,439.89,147.61,438.98z M124.54,463.62c-11.09,0-20.28-8.31-21.65-19.03c-0.12-0.92-0.18-1.86-0.18-2.8
				s0.06-1.89,0.18-2.8c1.38-10.72,10.56-19.04,21.65-19.04c11.09,0,20.28,8.31,21.65,19.04c0.12,0.92,0.18,1.86,0.18,2.8
				s-0.06,1.88-0.18,2.8C144.81,455.31,135.63,463.62,124.54,463.62z"/>
		</g>
		<g>
			<path d="M216.73,438.98c-1.39-11.5-11.21-20.44-23.07-20.44c-11.87,0-21.69,8.94-23.08,20.44c-0.11,0.92-0.17,1.86-0.17,2.8
				s0.06,1.88,0.17,2.8c1.39,11.5,11.21,20.43,23.08,20.43c11.87,0,21.68-8.94,23.07-20.43c0.11-0.92,0.17-1.86,0.17-2.8
				S216.85,439.89,216.73,438.98z M193.66,463.62c-11.09,0-20.28-8.31-21.66-19.03c-0.12-0.92-0.18-1.86-0.18-2.8
				s0.06-1.89,0.18-2.8c1.38-10.72,10.57-19.04,21.66-19.04c11.09,0,20.28,8.31,21.65,19.04c0.12,0.92,0.18,1.86,0.18,2.8
				s-0.06,1.88-0.18,2.8C213.94,455.31,204.76,463.62,193.66,463.62z"/>
		</g>
		<g>
			<path d="M285.86,438.98c-1.39-11.5-11.21-20.44-23.08-20.44c-11.87,0-21.68,8.94-23.07,20.44c-0.11,0.92-0.17,1.86-0.17,2.8
				s0.06,1.88,0.17,2.8c1.39,11.5,11.21,20.43,23.07,20.43c11.87,0,21.69-8.94,23.08-20.43c0.11-0.92,0.17-1.86,0.17-2.8
				S285.97,439.89,285.86,438.98z M262.78,463.62c-11.09,0-20.28-8.31-21.65-19.03c-0.12-0.92-0.18-1.86-0.18-2.8
				s0.06-1.89,0.18-2.8c1.38-10.72,10.57-19.04,21.65-19.04c11.09,0,20.28,8.31,21.66,19.04c0.12,0.92,0.18,1.86,0.18,2.8
				s-0.06,1.88-0.18,2.8C283.06,455.31,273.88,463.62,262.78,463.62z"/>
		</g>
		<g>
			<path d="M354.98,438.98c-1.39-11.5-11.21-20.44-23.08-20.44c-11.87,0-21.68,8.94-23.07,20.44c-0.11,0.92-0.17,1.86-0.17,2.8
				s0.06,1.88,0.17,2.8c1.39,11.5,11.21,20.43,23.07,20.43c11.87,0,21.69-8.94,23.08-20.43c0.11-0.92,0.17-1.86,0.17-2.8
				S355.1,439.89,354.98,438.98z M331.91,463.62c-11.09,0-20.28-8.31-21.65-19.03c-0.12-0.92-0.18-1.86-0.18-2.8s0.06-1.89,0.18-2.8
				c1.38-10.72,10.56-19.04,21.65-19.04c11.09,0,20.28,8.31,21.66,19.04c0.12,0.92,0.18,1.86,0.18,2.8s-0.06,1.88-0.18,2.8
				C352.19,455.31,343,463.62,331.91,463.62z"/>
		</g>
		<g>
			<path d="M424.1,438.98c-1.39-11.5-11.21-20.44-23.07-20.44s-21.69,8.94-23.08,20.44c-0.11,0.92-0.17,1.86-0.17,2.8
				s0.06,1.88,0.17,2.8c1.39,11.5,11.21,20.43,23.08,20.43s21.68-8.94,23.07-20.43c0.11-0.92,0.17-1.86,0.17-2.8
				S424.22,439.89,424.1,438.98z M401.03,463.62c-11.09,0-20.28-8.31-21.66-19.03c-0.12-0.92-0.18-1.86-0.18-2.8s0.06-1.89,0.18-2.8
				c1.38-10.72,10.57-19.04,21.66-19.04c11.09,0,20.28,8.31,21.65,19.04c0.12,0.92,0.18,1.86,0.18,2.8s-0.06,1.88-0.18,2.8
				C421.31,455.31,412.13,463.62,401.03,463.62z"/>
		</g>
		<g>
			<path d="M102.88,438.98c-0.12,0.92-0.18,1.86-0.18,2.8s0.06,1.88,0.18,2.8H83.96v-5.61H102.88z"/>
			<path d="M172,438.98c-0.12,0.92-0.18,1.86-0.18,2.8s0.06,1.88,0.18,2.8h-25.81c0.12-0.92,0.18-1.86,0.18-2.8s-0.06-1.89-0.18-2.8
				H172z"/>
			<path d="M241.13,438.98c-0.12,0.92-0.18,1.86-0.18,2.8s0.06,1.88,0.18,2.8h-25.81c0.12-0.92,0.18-1.86,0.18-2.8
				s-0.06-1.89-0.18-2.8H241.13z"/>
			<path d="M310.25,438.98c-0.12,0.92-0.18,1.86-0.18,2.8s0.06,1.88,0.18,2.8h-25.81c0.12-0.92,0.18-1.86,0.18-2.8
				s-0.06-1.89-0.18-2.8H310.25z"/>
			<path d="M379.37,438.98c-0.12,0.92-0.18,1.86-0.18,2.8s0.06,1.88,0.18,2.8h-25.81c0.12-0.92,0.18-1.86,0.18-2.8
				s-0.06-1.89-0.18-2.8H379.37z"/>
			<path d="M444.61,438.98v5.61h-21.92c0.12-0.92,0.18-1.86,0.18-2.8s-0.06-1.89-0.18-2.8H444.61z"/>
		</g>
	</g>
</g>
<g id="Layer_17">
</g>
</svg>
